<svg xmlns="http://www.w3.org/2000/svg" width="724.3128662109375" height="163.16781616210938" viewBox="-441.2082214355469 -104.76403045654297 724.3128662109375 163.16781616210938"><title>Neo4j Graph Visualization</title><desc>Created using Neo4j (http://www.neo4j.com/)</desc><g class="layer relationships"><g class="relationship" transform="translate(-152.90329741556008 -75.76403402904796) rotate(415.7373806282736)"><path class="b-outline" fill="#A5ABB6" stroke="none" d="M 25 0.5 L 25.883745649749123 0.5 L 25.883745649749123 -0.5 L 25 -0.5 Z M 92.33687064974913 0.5 L 93.22061629949825 0.5 L 93.22061629949825 3.5 L 100.22061629949825 0 L 93.22061629949825 -3.5 L 93.22061629949825 -0.5 L 92.33687064974913 -0.5 Z"/><text text-anchor="middle" pointer-events="none" font-size="8px" fill="#000000" x="59.11030814974912" y="3" font-family="Helvetica Neue, Helvetica, Arial, sans-serif">HAS_PRODUCT</text></g><g class="relationship" transform="translate(-152.90329741556008 -75.76403402904796) rotate(478.87155127612425)"><path class="b-outline" fill="#A5ABB6" stroke="none" d="M 25 0.5 L 27.49815073552753 0.5 L 27.49815073552753 -0.5 L 25 -0.5 Z M 79.73252573552753 0.5 L 82.23067647105506 0.5 L 82.23067647105506 3.5 L 89.23067647105506 0 L 82.23067647105506 -3.5 L 82.23067647105506 -0.5 L 79.73252573552753 -0.5 Z"/><text text-anchor="middle" pointer-events="none" font-size="8px" fill="#000000" x="53.61533823552753" y="3" transform="rotate(180 53.61533823552753 0)" font-family="Helvetica Neue, Helvetica, Arial, sans-serif">HAS_PRO…</text></g><g class="relationship" transform="translate(-10.816470318121993 -72.36552784420371) rotate(485.57364502415857)"><path class="b-outline" fill="#A5ABB6" stroke="none" d="M 25 0.5 L 26.13480901078485 0.5 L 26.13480901078485 -0.5 L 25 -0.5 Z M 89.92387151078485 0.5 L 91.0586805215697 0.5 L 91.0586805215697 3.5 L 98.0586805215697 0 L 91.0586805215697 -3.5 L 91.0586805215697 -0.5 L 89.92387151078485 -0.5 Z"/><text text-anchor="middle" pointer-events="none" font-size="8px" fill="#000000" x="58.02934026078485" y="3" transform="rotate(180 58.02934026078485 0)" font-family="Helvetica Neue, Helvetica, Arial, sans-serif">HAS_PRODU…</text></g><g class="relationship" transform="translate(126.20686902951567 -68.63836596418662) rotate(484.10630101963636)"><path class="b-outline" fill="#A5ABB6" stroke="none" d="M 25 0.5 L 25.789283060749227 0.5 L 25.789283060749227 -0.5 L 25 -0.5 Z M 83.80100181074923 0.5 L 84.59028487149845 0.5 L 84.59028487149845 3.5 L 91.59028487149845 0 L 84.59028487149845 -3.5 L 84.59028487149845 -0.5 L 83.80100181074923 -0.5 Z"/><text text-anchor="middle" pointer-events="none" font-size="8px" fill="#000000" x="54.79514243574923" y="3" transform="rotate(180 54.79514243574923 0)" font-family="Helvetica Neue, Helvetica, Arial, sans-serif">HAS_PROD…</text></g><g class="relationship" transform="translate(-277.2161774005168 -72.84401264639035) rotate(414.5440746642092)"><path class="b-outline" fill="#A5ABB6" stroke="none" d="M 25 0.5 L 27.10426515395242 0.5 L 27.10426515395242 -0.5 L 25 -0.5 Z M 85.11598390395241 0.5 L 87.22024905790484 0.5 L 87.22024905790484 3.5 L 94.22024905790484 0 L 87.22024905790484 -3.5 L 87.22024905790484 -0.5 L 85.11598390395241 -0.5 Z"/><text text-anchor="middle" pointer-events="none" font-size="8px" fill="#000000" x="56.11012452895242" y="3" font-family="Helvetica Neue, Helvetica, Arial, sans-serif">HAS_PROD…</text></g><g class="relationship" transform="translate(60.831192076329245 27.898235329466615) rotate(234.4507115028881)"><path class="b-outline" fill="#A5ABB6" stroke="none" d="M 25 0.5 L 27.110310849087917 0.5 L 27.110310849087917 -0.5 L 25 -0.5 Z M 89.12202959908791 0.5 L 91.23234044817583 0.5 L 91.23234044817583 3.5 L 98.23234044817583 0 L 91.23234044817583 -3.5 L 91.23234044817583 -0.5 L 89.12202959908791 -0.5 Z"/><text text-anchor="middle" pointer-events="none" font-size="8px" fill="#000000" x="58.11617022408792" y="3" transform="rotate(180 58.11617022408792 0)" font-family="Helvetica Neue, Helvetica, Arial, sans-serif">HAS_REACT…</text></g><g class="relationship" transform="translate(197.46528826379557 29.403775885919345) rotate(233.9898140952759)"><path class="b-outline" fill="#A5ABB6" stroke="none" d="M 25 0.5 L 26.09534500726597 0.5 L 26.09534500726597 -0.5 L 25 -0.5 Z M 88.10706375726596 0.5 L 89.20240876453194 0.5 L 89.20240876453194 3.5 L 96.20240876453194 0 L 89.20240876453194 -3.5 L 89.20240876453194 -0.5 L 88.10706375726596 -0.5 Z"/><text text-anchor="middle" pointer-events="none" font-size="8px" fill="#000000" x="57.10120438226597" y="3" transform="rotate(180 57.10120438226597 0)" font-family="Helvetica Neue, Helvetica, Arial, sans-serif">HAS_REACT…</text></g><g class="relationship" transform="translate(197.46528826379557 29.403775885919345) rotate(299.58332230006476)"><path class="b-outline" fill="#A5ABB6" stroke="none" d="M 25 0.5 L 25.300871540843623 0.5 L 25.300871540843623 -0.5 L 25 -0.5 Z M 82.42587154084362 0.5 L 82.72674308168725 0.5 L 82.72674308168725 3.5 L 89.72674308168725 0 L 82.72674308168725 -3.5 L 82.72674308168725 -0.5 L 82.42587154084362 -0.5 Z"/><text text-anchor="middle" pointer-events="none" font-size="8px" fill="#000000" x="53.86337154084362" y="3" font-family="Helvetica Neue, Helvetica, Arial, sans-serif">HAS_REAC…</text></g><g class="relationship" transform="translate(-343.7072793771504 27.030592440491315) rotate(236.2324147439491)"><path class="b-outline" fill="#A5ABB6" stroke="none" d="M 25 0.5 L 27.11505725774129 0.5 L 27.11505725774129 -0.5 L 25 -0.5 Z M 89.12677600774128 0.5 L 91.24183326548258 0.5 L 91.24183326548258 3.5 L 98.24183326548258 0 L 91.24183326548258 -3.5 L 91.24183326548258 -0.5 L 89.12677600774128 -0.5 Z"/><text text-anchor="middle" pointer-events="none" font-size="8px" fill="#000000" x="58.12091663274129" y="3" transform="rotate(180 58.12091663274129 0)" font-family="Helvetica Neue, Helvetica, Arial, sans-serif">HAS_REACT…</text></g><g class="relationship" transform="translate(-343.7072793771504 27.030592440491315) rotate(303.65352585555075)"><path class="b-outline" fill="#A5ABB6" stroke="none" d="M 25 0.5 L 25.48581376246063 0.5 L 25.48581376246063 -0.5 L 25 -0.5 Z M 87.49753251246062 0.5 L 87.98334627492126 0.5 L 87.98334627492126 3.5 L 94.98334627492126 0 L 87.98334627492126 -3.5 L 87.98334627492126 -0.5 L 87.49753251246062 -0.5 Z"/><text text-anchor="middle" pointer-events="none" font-size="8px" fill="#000000" x="56.49167313746063" y="3" font-family="Helvetica Neue, Helvetica, Arial, sans-serif">HAS_REACT…</text></g></g><g class="layer nodes"><g class="node" aria-label="graph-node7" transform="translate(-82.4057220519318,27.72651923198992)"><circle class="b-outline" cx="0" cy="0" r="25" fill="#57C7E3" stroke="#23b3d7" stroke-width="2px"/><text class="caption" text-anchor="middle" pointer-events="none" x="0" y="5" font-size="10px" fill="#2A2C34" font-family="Helvetica Neue, Helvetica, Arial, sans-serif"> M_acco…</text></g><g class="node" aria-label="graph-node8" transform="translate(-208.05930935278627,24.26826972436668)"><circle class="b-outline" cx="0" cy="0" r="25" fill="#57C7E3" stroke="#23b3d7" stroke-width="2px"/><text class="caption" text-anchor="middle" pointer-events="none" x="0" y="5" font-size="10px" fill="#2A2C34" font-family="Helvetica Neue, Helvetica, Arial, sans-serif"> M_for_c</text></g><g class="node" aria-label="graph-node15" transform="translate(60.831192076329245,27.898235329466615)"><circle class="b-outline" cx="0" cy="0" r="25" fill="#57C7E3" stroke="#23b3d7" stroke-width="2px"/><text class="caption" text-anchor="middle" pointer-events="none" x="0" y="5" font-size="10px" fill="#2A2C34" font-family="Helvetica Neue, Helvetica, Arial, sans-serif"> M_acald…</text></g><g class="node" aria-label="graph-node25" transform="translate(197.46528826379557,29.403775885919345)"><circle class="b-outline" cx="0" cy="0" r="25" fill="#57C7E3" stroke="#23b3d7" stroke-width="2px"/><text class="caption" text-anchor="middle" pointer-events="none" x="0" y="5" font-size="10px" fill="#2A2C34" font-family="Helvetica Neue, Helvetica, Arial, sans-serif"> M_acald…</text></g><g class="node" aria-label="graph-node85" transform="translate(-343.7072793771504,27.030592440491315)"><circle class="b-outline" cx="0" cy="0" r="25" fill="#57C7E3" stroke="#23b3d7" stroke-width="2px"/><text class="caption" text-anchor="middle" pointer-events="none" x="0" y="5" font-size="10px" fill="#2A2C34" font-family="Helvetica Neue, Helvetica, Arial, sans-serif"> M_for_e</text></g><g class="node" aria-label="graph-node105" transform="translate(-152.90329741556008,-75.76403402904796)"><circle class="b-outline" cx="0" cy="0" r="25" fill="#F79767" stroke="#f36924" stroke-width="2px"/><text class="caption" text-anchor="middle" pointer-events="none" x="0" y="0" font-size="10px" fill="#FFFFFF" font-family="Helvetica Neue, Helvetica, Arial, sans-serif"> Pyruvate</text><text class="caption" text-anchor="middle" pointer-events="none" x="0" y="10" font-size="10px" fill="#FFFFFF" font-family="Helvetica Neue, Helvetica, Arial, sans-serif">ly…</text></g><g class="node" aria-label="graph-node109" transform="translate(-10.816470318121993,-72.36552784420371)"><circle class="b-outline" cx="0" cy="0" r="25" fill="#F79767" stroke="#f36924" stroke-width="2px"/><text class="caption" text-anchor="middle" pointer-events="none" x="0" y="5" font-size="10px" fill="#FFFFFF" font-family="Helvetica Neue, Helvetica, Arial, sans-serif"> Acetalde…</text></g><g class="node" aria-label="graph-node114" transform="translate(126.20686902951567,-68.63836596418662)"><circle class="b-outline" cx="0" cy="0" r="25" fill="#F79767" stroke="#f36924" stroke-width="2px"/><text class="caption" text-anchor="middle" pointer-events="none" x="0" y="5" font-size="10px" fill="#FFFFFF" font-family="Helvetica Neue, Helvetica, Arial, sans-serif"> Acetalde…</text></g><g class="node" aria-label="graph-node148" transform="translate(254.1045909231735,-70.36703634085796)"><circle class="b-outline" cx="0" cy="0" r="25" fill="#F79767" stroke="#f36924" stroke-width="2px"/><text class="caption" text-anchor="middle" pointer-events="none" x="0" y="5" font-size="10px" fill="#FFFFFF" font-family="Helvetica Neue, Helvetica, Arial, sans-serif"> Acetalde…</text></g><g class="node" aria-label="graph-node152" transform="translate(-412.2082208970438,-75.42022735869406)"><circle class="b-outline" cx="0" cy="0" r="25" fill="#F79767" stroke="#f36924" stroke-width="2px"/><text class="caption" text-anchor="middle" pointer-events="none" x="0" y="0" font-size="10px" fill="#FFFFFF" font-family="Helvetica Neue, Helvetica, Arial, sans-serif"> Formate</text><text class="caption" text-anchor="middle" pointer-events="none" x="0" y="10" font-size="10px" fill="#FFFFFF" font-family="Helvetica Neue, Helvetica, Arial, sans-serif"> excha…</text></g><g class="node" aria-label="graph-node170" transform="translate(-277.2161774005168,-72.84401264639035)"><circle class="b-outline" cx="0" cy="0" r="25" fill="#F79767" stroke="#f36924" stroke-width="2px"/><text class="caption" text-anchor="middle" pointer-events="none" x="0" y="-5" font-size="10px" fill="#FFFFFF" font-family="Helvetica Neue, Helvetica, Arial, sans-serif"> Formate</text><text class="caption" text-anchor="middle" pointer-events="none" x="0" y="5" font-size="10px" fill="#FFFFFF" font-family="Helvetica Neue, Helvetica, Arial, sans-serif"> transport</text><text class="caption" text-anchor="middle" pointer-events="none" x="0" y="15" font-size="10px" fill="#FFFFFF" font-family="Helvetica Neue, Helvetica, Arial, sans-serif"> v</text></g></g></svg>