<svg xmlns="http://www.w3.org/2000/svg" width="865.50244140625" height="202.08265686035156" viewBox="-489.3231201171875 -169.233154296875 865.50244140625 202.08265686035156"><title>Neo4j Graph Visualization</title><desc>Created using Neo4j (http://www.neo4j.com/)</desc><g class="layer relationships"><g class="relationship" transform="translate(86.69018783835688 -126.25191763140668) rotate(474.2979185735645)"><path class="b-outline" fill="#A5ABB6" stroke="none" d="M 25 0.5 L 33.16692334945772 0.5 L 33.16692334945772 -0.5 L 25 -0.5 Z M 99.62004834945772 0.5 L 107.78697169891544 0.5 L 107.78697169891544 3.5 L 114.78697169891544 0 L 107.78697169891544 -3.5 L 107.78697169891544 -0.5 L 99.62004834945772 -0.5 Z"/><text text-anchor="middle" pointer-events="none" font-size="8px" fill="#000000" x="66.39348584945772" y="3" transform="rotate(180 66.39348584945772 0)" font-family="Helvetica Neue, Helvetica, Arial, sans-serif">HAS_PRODUCT</text></g><g class="relationship" transform="translate(86.69018783835688 -126.25191763140668) rotate(413.91952286959406)"><path class="b-outline" fill="#A5ABB6" stroke="none" d="M 25 0.5 L 39.70397605186227 0.5 L 39.70397605186227 -0.5 L 25 -0.5 Z M 106.15710105186227 0.5 L 120.86107710372454 0.5 L 120.86107710372454 3.5 L 127.86107710372454 0 L 120.86107710372454 -3.5 L 120.86107710372454 -0.5 L 106.15710105186227 -0.5 Z"/><text text-anchor="middle" pointer-events="none" font-size="8px" fill="#000000" x="72.93053855186227" y="3" font-family="Helvetica Neue, Helvetica, Arial, sans-serif">HAS_PRODUCT</text></g><g class="relationship" transform="translate(-47.92281816082253 -129.88900633553232) rotate(419.53118627017545)"><path class="b-outline" fill="#A5ABB6" stroke="none" d="M 25 0.5 L 39.291930650251885 0.5 L 39.291930650251885 -0.5 L 25 -0.5 Z M 105.74505565025189 0.5 L 120.03698630050377 0.5 L 120.03698630050377 3.5 L 127.03698630050377 0 L 120.03698630050377 -3.5 L 120.03698630050377 -0.5 L 105.74505565025189 -0.5 Z"/><text text-anchor="middle" pointer-events="none" font-size="8px" fill="#000000" x="72.51849315025189" y="3" font-family="Helvetica Neue, Helvetica, Arial, sans-serif">HAS_PRODUCT</text></g><g class="relationship" transform="translate(-194.92813515945545 -132.94701463942073) rotate(418.8976405709568)"><path class="b-outline" fill="#A5ABB6" stroke="none" d="M 25 0.5 L 43.15500161931064 0.5 L 43.15500161931064 -0.5 L 25 -0.5 Z M 109.60812661931064 0.5 L 127.76312823862128 0.5 L 127.76312823862128 3.5 L 134.76312823862128 0 L 127.76312823862128 -3.5 L 127.76312823862128 -0.5 L 109.60812661931064 -0.5 Z"/><text text-anchor="middle" pointer-events="none" font-size="8px" fill="#000000" x="76.38156411931064" y="3" font-family="Helvetica Neue, Helvetica, Arial, sans-serif">HAS_PRODUCT</text></g><g class="relationship" transform="translate(-323.9848020839693 -136.7566697211767) rotate(429.90234735754746)"><path class="b-outline" fill="#A5ABB6" stroke="none" d="M 25 0.5 L 36.86585654056641 0.5 L 36.86585654056641 -0.5 L 25 -0.5 Z M 103.31898154056641 0.5 L 115.18483808113282 0.5 L 115.18483808113282 3.5 L 122.18483808113282 0 L 115.18483808113282 -3.5 L 115.18483808113282 -0.5 L 103.31898154056641 -0.5 Z"/><text text-anchor="middle" pointer-events="none" font-size="8px" fill="#000000" x="70.09241904056641" y="3" font-family="Helvetica Neue, Helvetica, Arial, sans-serif">HAS_PRODUCT</text></g><g class="relationship" transform="translate(225.3000032354206 -122.60345067551981) rotate(472.0603803581209)"><path class="b-outline" fill="#A5ABB6" stroke="none" d="M 25 0.5 L 27.955082751582765 0.5 L 27.955082751582765 -0.5 L 25 -0.5 Z M 94.40820775158276 0.5 L 97.36329050316553 0.5 L 97.36329050316553 3.5 L 104.36329050316553 0 L 97.36329050316553 -3.5 L 97.36329050316553 -0.5 L 94.40820775158276 -0.5 Z"/><text text-anchor="middle" pointer-events="none" font-size="8px" fill="#000000" x="61.181645251582765" y="3" transform="rotate(180 61.181645251582765 0)" font-family="Helvetica Neue, Helvetica, Arial, sans-serif">HAS_PRODUCT</text></g><g class="relationship" transform="translate(-112.3995213766098 3.84949500783614) rotate(295.73919277931884)"><path class="b-outline" fill="#A5ABB6" stroke="none" d="M 25 0.5 L 36.02387912795915 0.5 L 36.02387912795915 -0.5 L 25 -0.5 Z M 105.44575412795915 0.5 L 116.4696332559183 0.5 L 116.4696332559183 3.5 L 123.4696332559183 0 L 116.4696332559183 -3.5 L 116.4696332559183 -0.5 L 105.44575412795915 -0.5 Z"/><text text-anchor="middle" pointer-events="none" font-size="8px" fill="#000000" x="70.73481662795915" y="3" font-family="Helvetica Neue, Helvetica, Arial, sans-serif">HAS_REACTANT</text></g><g class="relationship" transform="translate(-273.4089683931411 1.4658378796007128) rotate(300.2797556675864)"><path class="b-outline" fill="#A5ABB6" stroke="none" d="M 25 0.5 L 39.61267091568865 0.5 L 39.61267091568865 -0.5 L 25 -0.5 Z M 109.03454591568865 0.5 L 123.6472168313773 0.5 L 123.6472168313773 3.5 L 130.6472168313773 0 L 123.6472168313773 -3.5 L 123.6472168313773 -0.5 L 109.03454591568865 -0.5 Z"/><text text-anchor="middle" pointer-events="none" font-size="8px" fill="#000000" x="74.32360841568865" y="3" font-family="Helvetica Neue, Helvetica, Arial, sans-serif">HAS_REACTANT</text></g><g class="relationship" transform="translate(-389.0106787363886 -7.621065359239992) rotate(296.72741369038937)"><path class="b-outline" fill="#A5ABB6" stroke="none" d="M 25 0.5 L 34.0807787411059 0.5 L 34.0807787411059 -0.5 L 25 -0.5 Z M 103.5026537411059 0.5 L 112.5834324822118 0.5 L 112.5834324822118 3.5 L 119.5834324822118 0 L 112.5834324822118 -3.5 L 112.5834324822118 -0.5 L 103.5026537411059 -0.5 Z"/><text text-anchor="middle" pointer-events="none" font-size="8px" fill="#000000" x="68.7917162411059" y="3" font-family="Helvetica Neue, Helvetica, Arial, sans-serif">HAS_REACTANT</text></g><g class="relationship" transform="translate(-389.0106787363886 -7.621065359239992) rotate(241.73075796329988)"><path class="b-outline" fill="#A5ABB6" stroke="none" d="M 25 0.5 L 37.07423601660628 0.5 L 37.07423601660628 -0.5 L 25 -0.5 Z M 106.49611101660628 0.5 L 118.57034703321256 0.5 L 118.57034703321256 3.5 L 125.57034703321256 0 L 118.57034703321256 -3.5 L 118.57034703321256 -0.5 L 106.49611101660628 -0.5 Z"/><text text-anchor="middle" pointer-events="none" font-size="8px" fill="#000000" x="71.78517351660628" y="3" transform="rotate(180 71.78517351660628 0)" font-family="Helvetica Neue, Helvetica, Arial, sans-serif">HAS_REACTANT</text></g><g class="relationship" transform="translate(300.85100324900077 -7.499833096995401) rotate(290.1744640077926)"><path class="b-outline" fill="#A5ABB6" stroke="none" d="M 25 0.5 L 28.954993694846365 0.5 L 28.954993694846365 -0.5 L 25 -0.5 Z M 98.37686869484637 0.5 L 102.33186238969273 0.5 L 102.33186238969273 3.5 L 109.33186238969273 0 L 102.33186238969273 -3.5 L 102.33186238969273 -0.5 L 98.37686869484637 -0.5 Z"/><text text-anchor="middle" pointer-events="none" font-size="8px" fill="#000000" x="63.665931194846365" y="3" font-family="Helvetica Neue, Helvetica, Arial, sans-serif">HAS_REACTANT</text></g><g class="relationship" transform="translate(300.85100324900077 -7.499833096995401) rotate(236.72015390712613)"><path class="b-outline" fill="#A5ABB6" stroke="none" d="M 25 0.5 L 30.630903670023883 0.5 L 30.630903670023883 -0.5 L 25 -0.5 Z M 100.05277867002388 0.5 L 105.68368234004777 0.5 L 105.68368234004777 3.5 L 112.68368234004777 0 L 105.68368234004777 -3.5 L 105.68368234004777 -0.5 L 100.05277867002388 -0.5 Z"/><text text-anchor="middle" pointer-events="none" font-size="8px" fill="#000000" x="65.34184117002388" y="3" transform="rotate(180 65.34184117002388 0)" font-family="Helvetica Neue, Helvetica, Arial, sans-serif">HAS_REACTANT</text></g></g><g class="layer nodes"><g class="node" aria-label="graph-node7" transform="translate(29.170470114625516,1.1524760516043102)"><circle class="b-outline" cx="0" cy="0" r="25" fill="#57C7E3" stroke="#23b3d7" stroke-width="2px"/><text class="caption" text-anchor="middle" pointer-events="none" x="0" y="5" font-size="10px" fill="#2A2C34" font-family="Helvetica Neue, Helvetica, Arial, sans-serif"> M_acco…</text></g><g class="node" aria-label="graph-node8" transform="translate(176.7132877578164,-2.7110321958480483)"><circle class="b-outline" cx="0" cy="0" r="25" fill="#57C7E3" stroke="#23b3d7" stroke-width="2px"/><text class="caption" text-anchor="middle" pointer-events="none" x="0" y="5" font-size="10px" fill="#2A2C34" font-family="Helvetica Neue, Helvetica, Arial, sans-serif"> M_for_c</text></g><g class="node" aria-label="graph-node15" transform="translate(-112.3995213766098,3.84949500783614)"><circle class="b-outline" cx="0" cy="0" r="25" fill="#57C7E3" stroke="#23b3d7" stroke-width="2px"/><text class="caption" text-anchor="middle" pointer-events="none" x="0" y="5" font-size="10px" fill="#2A2C34" font-family="Helvetica Neue, Helvetica, Arial, sans-serif"> M_acald…</text></g><g class="node" aria-label="graph-node24" transform="translate(-273.4089683931411,1.4658378796007128)"><circle class="b-outline" cx="0" cy="0" r="25" fill="#57C7E3" stroke="#23b3d7" stroke-width="2px"/><text class="caption" text-anchor="middle" pointer-events="none" x="0" y="5" font-size="10px" fill="#2A2C34" font-family="Helvetica Neue, Helvetica, Arial, sans-serif"> M_etoh_c</text></g><g class="node" aria-label="graph-node77" transform="translate(-389.0106787363886,-7.621065359239992)"><circle class="b-outline" cx="0" cy="0" r="25" fill="#57C7E3" stroke="#23b3d7" stroke-width="2px"/><text class="caption" text-anchor="middle" pointer-events="none" x="0" y="5" font-size="10px" fill="#2A2C34" font-family="Helvetica Neue, Helvetica, Arial, sans-serif"> M_etoh_e</text></g><g class="node" aria-label="graph-node85" transform="translate(300.85100324900077,-7.499833096995401)"><circle class="b-outline" cx="0" cy="0" r="25" fill="#57C7E3" stroke="#23b3d7" stroke-width="2px"/><text class="caption" text-anchor="middle" pointer-events="none" x="0" y="5" font-size="10px" fill="#2A2C34" font-family="Helvetica Neue, Helvetica, Arial, sans-serif"> M_for_e</text></g><g class="node" aria-label="graph-node105" transform="translate(86.69018783835688,-126.25191763140668)"><circle class="b-outline" cx="0" cy="0" r="25" fill="#F79767" stroke="#f36924" stroke-width="2px"/><text class="caption" text-anchor="middle" pointer-events="none" x="0" y="0" font-size="10px" fill="#FFFFFF" font-family="Helvetica Neue, Helvetica, Arial, sans-serif"> Pyruvate</text><text class="caption" text-anchor="middle" pointer-events="none" x="0" y="10" font-size="10px" fill="#FFFFFF" font-family="Helvetica Neue, Helvetica, Arial, sans-serif">ly…</text></g><g class="node" aria-label="graph-node109" transform="translate(-47.92281816082253,-129.88900633553232)"><circle class="b-outline" cx="0" cy="0" r="25" fill="#F79767" stroke="#f36924" stroke-width="2px"/><text class="caption" text-anchor="middle" pointer-events="none" x="0" y="5" font-size="10px" fill="#FFFFFF" font-family="Helvetica Neue, Helvetica, Arial, sans-serif"> Acetalde…</text></g><g class="node" aria-label="graph-node113" transform="translate(-194.92813515945545,-132.94701463942073)"><circle class="b-outline" cx="0" cy="0" r="25" fill="#F79767" stroke="#f36924" stroke-width="2px"/><text class="caption" text-anchor="middle" pointer-events="none" x="0" y="0" font-size="10px" fill="#FFFFFF" font-family="Helvetica Neue, Helvetica, Arial, sans-serif"> Alcohol</text><text class="caption" text-anchor="middle" pointer-events="none" x="0" y="10" font-size="10px" fill="#FFFFFF" font-family="Helvetica Neue, Helvetica, Arial, sans-serif"> dehyd…</text></g><g class="node" aria-label="graph-node139" transform="translate(-323.9848020839693,-136.7566697211767)"><circle class="b-outline" cx="0" cy="0" r="25" fill="#F79767" stroke="#f36924" stroke-width="2px"/><text class="caption" text-anchor="middle" pointer-events="none" x="0" y="0" font-size="10px" fill="#FFFFFF" font-family="Helvetica Neue, Helvetica, Arial, sans-serif"> Ethanol</text><text class="caption" text-anchor="middle" pointer-events="none" x="0" y="10" font-size="10px" fill="#FFFFFF" font-family="Helvetica Neue, Helvetica, Arial, sans-serif"> revers…</text></g><g class="node" aria-label="graph-node151" transform="translate(-460.32312533273483,-140.23314763738435)"><circle class="b-outline" cx="0" cy="0" r="25" fill="#F79767" stroke="#f36924" stroke-width="2px"/><text class="caption" text-anchor="middle" pointer-events="none" x="0" y="0" font-size="10px" fill="#FFFFFF" font-family="Helvetica Neue, Helvetica, Arial, sans-serif"> Ethanol</text><text class="caption" text-anchor="middle" pointer-events="none" x="0" y="10" font-size="10px" fill="#FFFFFF" font-family="Helvetica Neue, Helvetica, Arial, sans-serif"> excha…</text></g><g class="node" aria-label="graph-node152" transform="translate(347.17936123322835,-133.5900091598775)"><circle class="b-outline" cx="0" cy="0" r="25" fill="#F79767" stroke="#f36924" stroke-width="2px"/><text class="caption" text-anchor="middle" pointer-events="none" x="0" y="0" font-size="10px" fill="#FFFFFF" font-family="Helvetica Neue, Helvetica, Arial, sans-serif"> Formate</text><text class="caption" text-anchor="middle" pointer-events="none" x="0" y="10" font-size="10px" fill="#FFFFFF" font-family="Helvetica Neue, Helvetica, Arial, sans-serif"> excha…</text></g><g class="node" aria-label="graph-node170" transform="translate(225.3000032354206,-122.60345067551981)"><circle class="b-outline" cx="0" cy="0" r="25" fill="#F79767" stroke="#f36924" stroke-width="2px"/><text class="caption" text-anchor="middle" pointer-events="none" x="0" y="-5" font-size="10px" fill="#FFFFFF" font-family="Helvetica Neue, Helvetica, Arial, sans-serif"> Formate</text><text class="caption" text-anchor="middle" pointer-events="none" x="0" y="5" font-size="10px" fill="#FFFFFF" font-family="Helvetica Neue, Helvetica, Arial, sans-serif"> transport</text><text class="caption" text-anchor="middle" pointer-events="none" x="0" y="15" font-size="10px" fill="#FFFFFF" font-family="Helvetica Neue, Helvetica, Arial, sans-serif"> v</text></g></g></svg>