<svg xmlns="http://www.w3.org/2000/svg" width="567.5625610351562" height="639.3196411132812" viewBox="-260.88397216796875 -321.33245849609375 567.5625610351562 639.3196411132812"><title>Neo4j Graph Visualization</title><desc>Created using Neo4j (http://www.neo4j.com/)</desc><g class="layer relationships"><g class="relationship" transform="translate(69.9193673566085 -62.21781034349769) rotate(212.89674976982565)"><path class="b-outline" fill="#A5ABB6" stroke="none" d="M 25 0.5 L 25.090756957118778 0.5 L 25.090756957118778 -0.5 L 25 -0.5 Z M 71.98919445711877 0.5 L 72.07995141423756 0.5 L 72.07995141423756 3.5 L 79.07995141423756 0 L 72.07995141423756 -3.5 L 72.07995141423756 -0.5 L 71.98919445711877 -0.5 Z"/><text text-anchor="middle" pointer-events="none" font-size="8px" fill="#000000" x="48.53997570711878" y="3" transform="rotate(180 48.53997570711878 0)" font-family="Helvetica Neue, Helvetica, Arial, sans-serif">HAS_CO…</text></g><g class="relationship" transform="translate(34.5232437696861 156.79569628046656) rotate(423.34982098339935)"><path class="b-outline" fill="#A5ABB6" stroke="none" d="M 25 0.5 L 38.112444133028816 0.5 L 38.112444133028816 -0.5 L 25 -0.5 Z M 102.79213163302882 0.5 L 115.90457576605763 0.5 L 115.90457576605763 3.5 L 122.90457576605763 0 L 115.90457576605763 -3.5 L 115.90457576605763 -0.5 L 102.79213163302882 -0.5 Z"/><text text-anchor="middle" pointer-events="none" font-size="8px" fill="#000000" x="70.45228788302882" y="3" font-family="Helvetica Neue, Helvetica, Arial, sans-serif">IS_COMPOSED</text></g><g class="relationship" transform="translate(129.63176029468028 127.17942338834516) rotate(403.10833697916826)"><path class="b-outline" fill="#A5ABB6" stroke="none" d="M 25 0.5 L 39.24200129399094 0.5 L 39.24200129399094 -0.5 L 25 -0.5 Z M 103.92168879399094 0.5 L 118.16369008798188 0.5 L 118.16369008798188 3.5 L 125.16369008798188 0 L 118.16369008798188 -3.5 L 118.16369008798188 -0.5 L 103.92168879399094 -0.5 Z"/><text text-anchor="middle" pointer-events="none" font-size="8px" fill="#000000" x="71.58184504399094" y="3" font-family="Helvetica Neue, Helvetica, Arial, sans-serif">IS_COMPOSED</text></g><g class="relationship" transform="translate(129.63176029468028 127.17942338834516) rotate(353.33467182150173)"><path class="b-outline" fill="#A5ABB6" stroke="none" d="M 25 0.5 L 38.6872737254557 0.5 L 38.6872737254557 -0.5 L 25 -0.5 Z M 103.3669612254557 0.5 L 117.0542349509114 0.5 L 117.0542349509114 3.5 L 124.0542349509114 0 L 117.0542349509114 -3.5 L 117.0542349509114 -0.5 L 103.3669612254557 -0.5 Z"/><text text-anchor="middle" pointer-events="none" font-size="8px" fill="#000000" x="71.0271174754557" y="3" font-family="Helvetica Neue, Helvetica, Arial, sans-serif">IS_COMPOSED</text></g><g class="relationship" transform="translate(129.63176029468028 127.17942338834516) rotate(460.0810385330592)"><path class="b-outline" fill="#A5ABB6" stroke="none" d="M 25 0.5 L 46.33266712881131 0.5 L 46.33266712881131 -0.5 L 25 -0.5 Z M 111.01235462881131 0.5 L 132.34502175762262 0.5 L 132.34502175762262 3.5 L 139.34502175762262 0 L 132.34502175762262 -3.5 L 132.34502175762262 -0.5 L 111.01235462881131 -0.5 Z"/><text text-anchor="middle" pointer-events="none" font-size="8px" fill="#000000" x="78.67251087881131" y="3" transform="rotate(180 78.67251087881131 0)" font-family="Helvetica Neue, Helvetica, Arial, sans-serif">IS_COMPOSED</text></g><g class="relationship" transform="translate(69.9193673566085 -62.21781034349769) rotate(459.1805422901466)"><path class="b-outline" fill="#A5ABB6" stroke="none" d="M 25 0.5 L 61.980415375625256 0.5 L 61.980415375625256 -0.5 L 25 -0.5 Z M 152.87494662562526 0.5 L 189.8553620012505 0.5 L 189.8553620012505 3.5 L 196.8553620012505 0 L 189.8553620012505 -3.5 L 189.8553620012505 -0.5 L 152.87494662562526 -0.5 Z"/><text text-anchor="middle" pointer-events="none" font-size="8px" fill="#000000" x="107.42768100062526" y="3" transform="rotate(180 107.42768100062526 0)" font-family="Helvetica Neue, Helvetica, Arial, sans-serif">HAS_UNITDEFINITION</text></g><g class="relationship" transform="translate(69.9193673566085 -62.21781034349769) rotate(432.5011902127968)"><path class="b-outline" fill="#A5ABB6" stroke="none" d="M 25 0.5 L 50.34634194324302 0.5 L 50.34634194324302 -0.5 L 25 -0.5 Z M 141.24087319324303 0.5 L 166.58721513648604 0.5 L 166.58721513648604 3.5 L 173.58721513648604 0 L 166.58721513648604 -3.5 L 166.58721513648604 -0.5 L 141.24087319324303 -0.5 Z"/><text text-anchor="middle" pointer-events="none" font-size="8px" fill="#000000" x="95.79360756824302" y="3" font-family="Helvetica Neue, Helvetica, Arial, sans-serif">HAS_UNITDEFINITION</text></g><g class="relationship" transform="translate(69.9193673566085 -62.21781034349769) rotate(284.0035951267496)"><path class="b-outline" fill="#A5ABB6" stroke="none" d="M 25 0.5 L 64.95744206631812 0.5 L 64.95744206631812 -0.5 L 25 -0.5 Z M 126.53556706631812 0.5 L 166.49300913263625 0.5 L 166.49300913263625 3.5 L 173.49300913263625 0 L 166.49300913263625 -3.5 L 166.49300913263625 -0.5 L 126.53556706631812 -0.5 Z"/><text text-anchor="middle" pointer-events="none" font-size="8px" fill="#000000" x="95.74650456631812" y="3" font-family="Helvetica Neue, Helvetica, Arial, sans-serif">HAS_SPECIES</text></g><g class="relationship" transform="translate(69.9193673566085 -62.21781034349769) rotate(255.82974177317544)"><path class="b-outline" fill="#A5ABB6" stroke="none" d="M 25 0.5 L 38.38468185591243 0.5 L 38.38468185591243 -0.5 L 25 -0.5 Z M 99.96280685591243 0.5 L 113.34748871182487 0.5 L 113.34748871182487 3.5 L 120.34748871182487 0 L 113.34748871182487 -3.5 L 113.34748871182487 -0.5 L 99.96280685591243 -0.5 Z"/><text text-anchor="middle" pointer-events="none" font-size="8px" fill="#000000" x="69.17374435591243" y="3" transform="rotate(180 69.17374435591243 0)" font-family="Helvetica Neue, Helvetica, Arial, sans-serif">HAS_SPECIES</text></g><g class="relationship" transform="translate(69.9193673566085 -62.21781034349769) rotate(305.5533358657375)"><path class="b-outline" fill="#A5ABB6" stroke="none" d="M 25 0.5 L 25.748249370897312 0.5 L 25.748249370897312 -0.5 L 25 -0.5 Z M 84.65449937089731 0.5 L 85.40274874179462 0.5 L 85.40274874179462 3.5 L 92.40274874179462 0 L 85.40274874179462 -3.5 L 85.40274874179462 -0.5 L 84.65449937089731 -0.5 Z"/><text text-anchor="middle" pointer-events="none" font-size="8px" fill="#000000" x="55.20137437089731" y="3" font-family="Helvetica Neue, Helvetica, Arial, sans-serif">HAS_SPECI…</text></g><g class="relationship" transform="translate(69.9193673566085 -62.21781034349769) rotate(251.03819011437844)"><path class="b-outline" fill="#A5ABB6" stroke="none" d="M 25 0.5 L 87.37004479772489 0.5 L 87.37004479772489 -0.5 L 25 -0.5 Z M 148.9481697977249 0.5 L 211.31821459544977 0.5 L 211.31821459544977 3.5 L 218.31821459544977 0 L 211.31821459544977 -3.5 L 211.31821459544977 -0.5 L 148.9481697977249 -0.5 Z"/><text text-anchor="middle" pointer-events="none" font-size="8px" fill="#000000" x="118.15910729772489" y="3" transform="rotate(180 118.15910729772489 0)" font-family="Helvetica Neue, Helvetica, Arial, sans-serif">HAS_SPECIES</text></g><g class="relationship" transform="translate(117.95125713481244 -254.81171533237134) rotate(494.86438355301675)"><path class="b-outline" fill="#A5ABB6" stroke="none" d="M 25 0.5 L 52.29435963365195 0.5 L 52.29435963365195 -0.5 L 25 -0.5 Z M 132.67717213365194 0.5 L 159.9715317673039 0.5 L 159.9715317673039 3.5 L 166.9715317673039 0 L 159.9715317673039 -3.5 L 159.9715317673039 -0.5 L 132.67717213365194 -0.5 Z"/><text text-anchor="middle" pointer-events="none" font-size="8px" fill="#000000" x="92.48576588365195" y="3" transform="rotate(180 92.48576588365195 0)" font-family="Helvetica Neue, Helvetica, Arial, sans-serif">IN_COMPARTMENT</text></g><g class="relationship" transform="translate(34.33770304779824 -203.14274653241065) rotate(481.54489334655653)"><path class="b-outline" fill="#A5ABB6" stroke="none" d="M 25 0.5 L 26.790353181754718 0.5 L 26.790353181754718 -0.5 L 25 -0.5 Z M 65.23957193175471 0.5 L 67.02992511350944 0.5 L 67.02992511350944 3.5 L 74.02992511350944 0 L 67.02992511350944 -3.5 L 67.02992511350944 -0.5 L 65.23957193175471 -0.5 Z"/><text text-anchor="middle" pointer-events="none" font-size="8px" fill="#000000" x="46.01496255675472" y="3" transform="rotate(180 46.01496255675472 0)" font-family="Helvetica Neue, Helvetica, Arial, sans-serif">IN_CO…</text></g><g class="relationship" transform="translate(138.18443457732383 -157.73370435847394) rotate(525.9383605037083)"><path class="b-outline" fill="#A5ABB6" stroke="none" d="M 25 0.5 L 36.54069076440578 0.5 L 36.54069076440578 -0.5 L 25 -0.5 Z M 116.92350326440578 0.5 L 128.46419402881156 0.5 L 128.46419402881156 3.5 L 135.46419402881156 0 L 128.46419402881156 -3.5 L 128.46419402881156 -0.5 L 116.92350326440578 -0.5 Z"/><text text-anchor="middle" pointer-events="none" font-size="8px" fill="#000000" x="76.73209701440578" y="3" transform="rotate(180 76.73209701440578 0)" font-family="Helvetica Neue, Helvetica, Arial, sans-serif">IN_COMPARTMENT</text></g><g class="relationship" transform="translate(-9.143930931079135 -292.3324522457232) rotate(452.74656473977427)"><path class="b-outline" fill="#A5ABB6" stroke="none" d="M 25 0.5 L 43.201425352834505 0.5 L 43.201425352834505 -0.5 L 25 -0.5 Z M 123.5842378528345 0.5 L 141.785663205669 0.5 L 141.785663205669 3.5 L 148.785663205669 0 L 141.785663205669 -3.5 L 141.785663205669 -0.5 L 123.5842378528345 -0.5 Z"/><text text-anchor="middle" pointer-events="none" font-size="8px" fill="#000000" x="83.3928316028345" y="3" transform="rotate(180 83.3928316028345 0)" font-family="Helvetica Neue, Helvetica, Arial, sans-serif">IN_COMPARTMENT</text></g><g class="relationship" transform="translate(69.9193673566085 -62.21781034349769) rotate(227.73127274724794)"><path class="b-outline" fill="#A5ABB6" stroke="none" d="M 25 0.5 L 62.49695906512997 0.5 L 62.49695906512997 -0.5 L 25 -0.5 Z M 130.73133406512997 0.5 L 168.22829313025994 0.5 L 168.22829313025994 3.5 L 175.22829313025994 0 L 168.22829313025994 -3.5 L 168.22829313025994 -0.5 L 130.73133406512997 -0.5 Z"/><text text-anchor="middle" pointer-events="none" font-size="8px" fill="#000000" x="96.61414656512997" y="3" transform="rotate(180 96.61414656512997 0)" font-family="Helvetica Neue, Helvetica, Arial, sans-serif">HAS_REACTION</text></g><g class="relationship" transform="translate(69.9193673566085 -62.21781034349769) rotate(198.90386598148768)"><path class="b-outline" fill="#A5ABB6" stroke="none" d="M 25 0.5 L 60.86807216832112 0.5 L 60.86807216832112 -0.5 L 25 -0.5 Z M 129.10244716832113 0.5 L 164.97051933664224 0.5 L 164.97051933664224 3.5 L 171.97051933664224 0 L 164.97051933664224 -3.5 L 164.97051933664224 -0.5 L 129.10244716832113 -0.5 Z"/><text text-anchor="middle" pointer-events="none" font-size="8px" fill="#000000" x="94.98525966832112" y="3" transform="rotate(180 94.98525966832112 0)" font-family="Helvetica Neue, Helvetica, Arial, sans-serif">HAS_REACTION</text></g><g class="relationship" transform="translate(-64.75592728275026 -210.38641155056587) rotate(474.84905134929943)"><path class="b-outline" fill="#A5ABB6" stroke="none" d="M 25 0.5 L 56.06563679738437 0.5 L 56.06563679738437 -0.5 L 25 -0.5 Z M 134.67891804738437 0.5 L 165.74455484476874 0.5 L 165.74455484476874 3.5 L 172.74455484476874 0 L 165.74455484476874 -3.5 L 165.74455484476874 -0.5 L 134.67891804738437 -0.5 Z"/><text text-anchor="middle" pointer-events="none" font-size="8px" fill="#000000" x="95.37227742238437" y="3" transform="rotate(180 95.37227742238437 0)" font-family="Helvetica Neue, Helvetica, Arial, sans-serif">HAS_KENETICLAW</text></g><g class="relationship" transform="translate(-116.42725168906179 -126.03256614491387) rotate(487.7900984214259)"><path class="b-outline" fill="#A5ABB6" stroke="none" d="M 25 0.5 L 51.40213477171193 0.5 L 51.40213477171193 -0.5 L 25 -0.5 Z M 130.01541602171193 0.5 L 156.41755079342386 0.5 L 156.41755079342386 3.5 L 163.41755079342386 0 L 156.41755079342386 -3.5 L 156.41755079342386 -0.5 L 130.01541602171193 -0.5 Z"/><text text-anchor="middle" pointer-events="none" font-size="8px" fill="#000000" x="90.70877539671193" y="3" transform="rotate(180 90.70877539671193 0)" font-family="Helvetica Neue, Helvetica, Arial, sans-serif">HAS_KENETICLAW</text></g><g class="relationship" transform="translate(-9.143930931079135 -292.3324522457232) rotate(484.1624493768432)"><path class="b-outline" fill="#A5ABB6" stroke="none" d="M 25 0.5 L 27.456742337533285 0.5 L 27.456742337533285 -0.5 L 25 -0.5 Z M 64.57783608753329 0.5 L 67.03457842506657 0.5 L 67.03457842506657 3.5 L 74.03457842506657 0 L 67.03457842506657 -3.5 L 67.03457842506657 -0.5 L 64.57783608753329 -0.5 Z"/><text text-anchor="middle" pointer-events="none" font-size="8px" fill="#000000" x="46.017289212533285" y="3" transform="rotate(180 46.017289212533285 0)" font-family="Helvetica Neue, Helvetica, Arial, sans-serif">IS_RE…</text></g><g class="relationship" transform="translate(138.18443457732383 -157.73370435847394) rotate(194.5446500503329)"><path class="b-outline" fill="#A5ABB6" stroke="none" d="M 25 0.5 L 71.06411558748069 0.5 L 71.06411558748069 -0.5 L 25 -0.5 Z M 131.59536558748067 0.5 L 177.65948117496137 0.5 L 177.65948117496137 3.5 L 184.65948117496137 0 L 177.65948117496137 -3.5 L 177.65948117496137 -0.5 L 131.59536558748067 -0.5 Z"/><text text-anchor="middle" pointer-events="none" font-size="8px" fill="#000000" x="101.32974058748069" y="3" transform="rotate(180 101.32974058748069 0)" font-family="Helvetica Neue, Helvetica, Arial, sans-serif">IS_REACTANT</text></g><g class="relationship" transform="translate(117.95125713481244 -254.81171533237134) rotate(511.2134288703361)"><path class="b-outline" fill="#A5ABB6" stroke="none" d="M 25 0.5 L 99.94801927756458 0.5 L 99.94801927756458 -0.5 L 25 -0.5 Z M 160.47926927756458 0.5 L 235.42728855512917 0.5 L 235.42728855512917 3.5 L 242.42728855512917 0 L 235.42728855512917 -3.5 L 235.42728855512917 -0.5 L 160.47926927756458 -0.5 Z"/><text text-anchor="middle" pointer-events="none" font-size="8px" fill="#000000" x="130.21364427756458" y="3" transform="rotate(180 130.21364427756458 0)" font-family="Helvetica Neue, Helvetica, Arial, sans-serif">IS_REACTANT</text></g><g class="relationship" transform="translate(-64.75592728275026 -210.38641155056587) rotate(346.33372161590455)"><path class="b-outline" fill="#A5ABB6" stroke="none" d="M 25 0.5 L 57.28875919532125 0.5 L 57.28875919532125 -0.5 L 25 -0.5 Z M 123.74188419532125 0.5 L 156.0306433906425 0.5 L 156.0306433906425 3.5 L 163.0306433906425 0 L 156.0306433906425 -3.5 L 156.0306433906425 -0.5 L 123.74188419532125 -0.5 Z"/><text text-anchor="middle" pointer-events="none" font-size="8px" fill="#000000" x="90.51532169532125" y="3" font-family="Helvetica Neue, Helvetica, Arial, sans-serif">HAS_PRODUCT</text></g><g class="relationship" transform="translate(-116.42725168906179 -126.03256614491387) rotate(302.8268562736467)"><path class="b-outline" fill="#A5ABB6" stroke="none" d="M 25 0.5 L 62.22464142143082 0.5 L 62.22464142143082 -0.5 L 25 -0.5 Z M 128.67776642143082 0.5 L 165.90240784286163 0.5 L 165.90240784286163 3.5 L 172.90240784286163 0 L 165.90240784286163 -3.5 L 165.90240784286163 -0.5 L 128.67776642143082 -0.5 Z"/><text text-anchor="middle" pointer-events="none" font-size="8px" fill="#000000" x="95.45120392143082" y="3" font-family="Helvetica Neue, Helvetica, Arial, sans-serif">HAS_PRODUCT</text></g><g class="relationship" transform="translate(-116.42725168906179 -126.03256614491387) rotate(332.91209165042255)"><path class="b-outline" fill="#A5ABB6" stroke="none" d="M 25 0.5 L 47.94346096787166 0.5 L 47.94346096787166 -0.5 L 25 -0.5 Z M 114.39658596787166 0.5 L 137.34004693574332 0.5 L 137.34004693574332 3.5 L 144.34004693574332 0 L 137.34004693574332 -3.5 L 137.34004693574332 -0.5 L 114.39658596787166 -0.5 Z"/><text text-anchor="middle" pointer-events="none" font-size="8px" fill="#000000" x="81.17002346787166" y="3" font-family="Helvetica Neue, Helvetica, Arial, sans-serif">HAS_PRODUCT</text></g><g class="relationship" transform="translate(-57.493634727839094 119.32036228020729) rotate(362.4049464528705)"><path class="b-outline" fill="#A5ABB6" stroke="none" d="M 25 0.5 L 64.69596038891159 0.5 L 64.69596038891159 -0.5 L 25 -0.5 Z M 115.59439788891159 0.5 L 155.29035827782317 0.5 L 155.29035827782317 3.5 L 162.29035827782317 0 L 155.29035827782317 -3.5 L 155.29035827782317 -0.5 L 115.59439788891159 -0.5 Z"/><text text-anchor="middle" pointer-events="none" font-size="8px" fill="#000000" x="90.14517913891159" y="3" font-family="Helvetica Neue, Helvetica, Arial, sans-serif">HAS_UNITS</text></g><g class="relationship" transform="translate(-19.369081744654835 27.391547701104862) rotate(427.3899710348346)"><path class="b-outline" fill="#A5ABB6" stroke="none" d="M 25 0.5 L 41.13968268755501 0.5 L 41.13968268755501 -0.5 L 25 -0.5 Z M 92.03812018755501 0.5 L 108.17780287511002 0.5 L 108.17780287511002 3.5 L 115.17780287511002 0 L 108.17780287511002 -3.5 L 108.17780287511002 -0.5 L 92.03812018755501 -0.5 Z"/><text text-anchor="middle" pointer-events="none" font-size="8px" fill="#000000" x="66.58890143755501" y="3" font-family="Helvetica Neue, Helvetica, Arial, sans-serif">HAS_UNITS</text></g><g class="relationship" transform="translate(-144.8235918125303 177.8861866520145) rotate(353.29304245751746)"><path class="b-outline" fill="#A5ABB6" stroke="none" d="M 25 0.5 L 61.34211003835448 0.5 L 61.34211003835448 -0.5 L 25 -0.5 Z M 112.24054753835448 0.5 L 148.58265757670895 0.5 L 148.58265757670895 3.5 L 155.58265757670895 0 L 148.58265757670895 -3.5 L 148.58265757670895 -0.5 L 112.24054753835448 -0.5 Z"/><text text-anchor="middle" pointer-events="none" font-size="8px" fill="#000000" x="86.79132878835448" y="3" font-family="Helvetica Neue, Helvetica, Arial, sans-serif">HAS_UNITS</text></g><g class="relationship" transform="translate(-147.85394038961502 -30.949433231025825) rotate(418.9806450167687)"><path class="b-outline" fill="#A5ABB6" stroke="none" d="M 25 0.5 L 46.125806438229944 0.5 L 46.125806438229944 -0.5 L 25 -0.5 Z M 122.21955643822994 0.5 L 143.3453628764599 0.5 L 143.3453628764599 3.5 L 150.3453628764599 0 L 143.3453628764599 -3.5 L 143.3453628764599 -0.5 L 122.21955643822994 -0.5 Z"/><text text-anchor="middle" pointer-events="none" font-size="8px" fill="#000000" x="84.17268143822994" y="3" font-family="Helvetica Neue, Helvetica, Arial, sans-serif">HAS_PARAMETER</text></g><g class="relationship" transform="translate(-147.85394038961502 -30.949433231025825) rotate(384.4213225177773)"><path class="b-outline" fill="#A5ABB6" stroke="none" d="M 25 0.5 L 29.008119431894457 0.5 L 29.008119431894457 -0.5 L 25 -0.5 Z M 105.10186943189446 0.5 L 109.10998886378891 0.5 L 109.10998886378891 3.5 L 116.10998886378891 0 L 109.10998886378891 -3.5 L 109.10998886378891 -0.5 L 105.10186943189446 -0.5 Z"/><text text-anchor="middle" pointer-events="none" font-size="8px" fill="#000000" x="67.05499443189446" y="3" font-family="Helvetica Neue, Helvetica, Arial, sans-serif">HAS_PARAMETER</text></g><g class="relationship" transform="translate(-231.8839673192685 22.86646092671628) rotate(420.68106888771337)"><path class="b-outline" fill="#A5ABB6" stroke="none" d="M 25 0.5 L 47.35000957325282 0.5 L 47.35000957325282 -0.5 L 25 -0.5 Z M 123.44375957325282 0.5 L 145.79376914650564 0.5 L 145.79376914650564 3.5 L 152.79376914650564 0 L 145.79376914650564 -3.5 L 145.79376914650564 -0.5 L 123.44375957325282 -0.5 Z"/><text text-anchor="middle" pointer-events="none" font-size="8px" fill="#000000" x="85.39688457325282" y="3" font-family="Helvetica Neue, Helvetica, Arial, sans-serif">HAS_PARAMETER</text></g></g><g class="layer nodes"><g class="node" aria-label="graph-node0" transform="translate(34.5232437696861,156.79569628046656)"><circle class="b-outline" cx="0" cy="0" r="25" fill="#D9C8AE" stroke="#c0a378" stroke-width="2px"/><text class="caption" text-anchor="middle" pointer-events="none" x="0" y="5" font-size="10px" fill="#2A2C34" font-family="Helvetica Neue, Helvetica, Arial, sans-serif"> per_sec…</text></g><g class="node" aria-label="graph-node1" transform="translate(129.63176029468028,127.17942338834516)"><circle class="b-outline" cx="0" cy="0" r="25" fill="#D9C8AE" stroke="#c0a378" stroke-width="2px"/><text class="caption" text-anchor="middle" pointer-events="none" x="0" y="5" font-size="10px" fill="#2A2C34" font-family="Helvetica Neue, Helvetica, Arial, sans-serif"> litre_per…</text></g><g class="node" aria-label="graph-node2" transform="translate(-17.471434202124136,-118.74642335772494)"><circle class="b-outline" cx="0" cy="0" r="25" fill="#F79767" stroke="#f36924" stroke-width="2px"/><text class="caption" text-anchor="middle" pointer-events="none" x="0" y="5" font-size="10px" fill="#FFFFFF" font-family="Helvetica Neue, Helvetica, Arial, sans-serif"> cytosol</text></g><g class="node" aria-label="graph-node3" transform="translate(69.9193673566085,-62.21781034349769)"><circle class="b-outline" cx="0" cy="0" r="25" fill="#57C7E3" stroke="#23b3d7" stroke-width="2px"/><text class="caption" text-anchor="middle" pointer-events="none" x="0" y="5" font-size="10px" fill="#2A2C34" font-family="Helvetica Neue, Helvetica, Arial, sans-serif"> Enzymat…</text></g><g class="node" aria-label="graph-node4" transform="translate(100.86465895666277,288.98714896756985)"><circle class="b-outline" cx="0" cy="0" r="25" fill="#F16667" stroke="#eb2728" stroke-width="2px"/><text class="caption" text-anchor="middle" pointer-events="none" x="0" y="5" font-size="10px" fill="#FFFFFF" font-family="Helvetica Neue, Helvetica, Arial, sans-serif"> e97d363…</text></g><g class="node" aria-label="graph-node5" transform="translate(239.26069143709825,229.7982875284751)"><circle class="b-outline" cx="0" cy="0" r="25" fill="#F16667" stroke="#eb2728" stroke-width="2px"/><text class="caption" text-anchor="middle" pointer-events="none" x="0" y="5" font-size="10px" fill="#FFFFFF" font-family="Helvetica Neue, Helvetica, Arial, sans-serif"> 1692378…</text></g><g class="node" aria-label="graph-node6" transform="translate(277.67854803387604,109.87874141025507)"><circle class="b-outline" cx="0" cy="0" r="25" fill="#F16667" stroke="#eb2728" stroke-width="2px"/><text class="caption" text-anchor="middle" pointer-events="none" x="0" y="5" font-size="10px" fill="#FFFFFF" font-family="Helvetica Neue, Helvetica, Arial, sans-serif"> b871e8f…</text></g><g class="node" aria-label="graph-node7" transform="translate(117.95125713481244,-254.81171533237134)"><circle class="b-outline" cx="0" cy="0" r="25" fill="#ECB5C9" stroke="#da7298" stroke-width="2px"/><text class="caption" text-anchor="middle" pointer-events="none" x="0" y="5" font-size="10px" fill="#2A2C34" font-family="Helvetica Neue, Helvetica, Arial, sans-serif"> ES</text></g><g class="node" aria-label="graph-node8" transform="translate(34.33770304779824,-203.14274653241065)"><circle class="b-outline" cx="0" cy="0" r="25" fill="#ECB5C9" stroke="#da7298" stroke-width="2px"/><text class="caption" text-anchor="middle" pointer-events="none" x="0" y="5" font-size="10px" fill="#2A2C34" font-family="Helvetica Neue, Helvetica, Arial, sans-serif"> P</text></g><g class="node" aria-label="graph-node9" transform="translate(138.18443457732383,-157.73370435847394)"><circle class="b-outline" cx="0" cy="0" r="25" fill="#ECB5C9" stroke="#da7298" stroke-width="2px"/><text class="caption" text-anchor="middle" pointer-events="none" x="0" y="5" font-size="10px" fill="#2A2C34" font-family="Helvetica Neue, Helvetica, Arial, sans-serif"> S</text></g><g class="node" aria-label="graph-node10" transform="translate(-9.143930931079135,-292.3324522457232)"><circle class="b-outline" cx="0" cy="0" r="25" fill="#ECB5C9" stroke="#da7298" stroke-width="2px"/><text class="caption" text-anchor="middle" pointer-events="none" x="0" y="5" font-size="10px" fill="#2A2C34" font-family="Helvetica Neue, Helvetica, Arial, sans-serif"> E</text></g><g class="node" aria-label="graph-node11" transform="translate(-64.75592728275026,-210.38641155056587)"><circle class="b-outline" cx="0" cy="0" r="25" fill="#4C8EDA" stroke="#2870c2" stroke-width="2px"/><text class="caption" text-anchor="middle" pointer-events="none" x="0" y="5" font-size="10px" fill="#FFFFFF" font-family="Helvetica Neue, Helvetica, Arial, sans-serif"> veq</text></g><g class="node" aria-label="graph-node12" transform="translate(-116.42725168906179,-126.03256614491387)"><circle class="b-outline" cx="0" cy="0" r="25" fill="#4C8EDA" stroke="#2870c2" stroke-width="2px"/><text class="caption" text-anchor="middle" pointer-events="none" x="0" y="5" font-size="10px" fill="#FFFFFF" font-family="Helvetica Neue, Helvetica, Arial, sans-serif"> vcat</text></g><g class="node" aria-label="graph-node13" transform="translate(-147.85394038961502,-30.949433231025825)"><circle class="b-outline" cx="0" cy="0" r="25" fill="#FFC454" stroke="#d7a013" stroke-width="2px"/><text class="caption" text-anchor="middle" pointer-events="none" x="0" y="5" font-size="10px" fill="#2A2C34" font-family="Helvetica Neue, Helvetica, Arial, sans-serif"> 99b0e60…</text></g><g class="node" aria-label="graph-node14" transform="translate(-231.8839673192685,22.86646092671628)"><circle class="b-outline" cx="0" cy="0" r="25" fill="#FFC454" stroke="#d7a013" stroke-width="2px"/><text class="caption" text-anchor="middle" pointer-events="none" x="0" y="5" font-size="10px" fill="#2A2C34" font-family="Helvetica Neue, Helvetica, Arial, sans-serif"> 9c0adfb…</text></g><g class="node" aria-label="graph-node15" transform="translate(-57.493634727839094,119.32036228020729)"><circle class="b-outline" cx="0" cy="0" r="25" fill="#569480" stroke="#447666" stroke-width="2px"/><text class="caption" text-anchor="middle" pointer-events="none" x="0" y="5" font-size="10px" fill="#FFFFFF" font-family="Helvetica Neue, Helvetica, Arial, sans-serif"> kon</text></g><g class="node" aria-label="graph-node16" transform="translate(-19.369081744654835,27.391547701104862)"><circle class="b-outline" cx="0" cy="0" r="25" fill="#569480" stroke="#447666" stroke-width="2px"/><text class="caption" text-anchor="middle" pointer-events="none" x="0" y="5" font-size="10px" fill="#FFFFFF" font-family="Helvetica Neue, Helvetica, Arial, sans-serif"> koff</text></g><g class="node" aria-label="graph-node17" transform="translate(-144.8235918125303,177.8861866520145)"><circle class="b-outline" cx="0" cy="0" r="25" fill="#569480" stroke="#447666" stroke-width="2px"/><text class="caption" text-anchor="middle" pointer-events="none" x="0" y="5" font-size="10px" fill="#FFFFFF" font-family="Helvetica Neue, Helvetica, Arial, sans-serif"> kcat</text></g></g></svg>