<svg xmlns="http://www.w3.org/2000/svg" width="522.3689575195312" height="645.1104736328125" viewBox="-269.3499755859375 -336.8251037597656 522.3689575195312 645.1104736328125"><title>Neo4j Graph Visualization</title><desc>Created using Neo4j (http://www.neo4j.com/)</desc><g class="layer relationships"><g class="relationship" transform="translate(81.13871312050964 136.68928474935183) rotate(300.05479137099775)"><path class="b-outline" fill="#A5ABB6" stroke="none" d="M 25 0.5 L 65.85474325417036 0.5 L 65.85474325417036 -0.5 L 25 -0.5 Z M 154.68677450417036 0.5 L 195.54151775834072 0.5 L 195.54151775834072 3.5 L 202.54151775834072 0 L 195.54151775834072 -3.5 L 195.54151775834072 -0.5 L 154.68677450417036 -0.5 Z"/><text text-anchor="middle" pointer-events="none" font-size="8px" fill="#000000" x="110.27075887917036" y="3" font-family="Helvetica Neue, Helvetica, Arial, sans-serif">HAS_COMPARTMENT</text></g><g class="relationship" transform="translate(-115.54509811558981 147.92066449962766) rotate(477.5665573101242)"><path class="b-outline" fill="#A5ABB6" stroke="none" d="M 25 0.5 L 38.10453335495647 0.5 L 38.10453335495647 -0.5 L 25 -0.5 Z M 102.78422085495647 0.5 L 115.88875420991295 0.5 L 115.88875420991295 3.5 L 122.88875420991295 0 L 115.88875420991295 -3.5 L 115.88875420991295 -0.5 L 102.78422085495647 -0.5 Z"/><text text-anchor="middle" pointer-events="none" font-size="8px" fill="#000000" x="70.44437710495647" y="3" transform="rotate(180 70.44437710495647 0)" font-family="Helvetica Neue, Helvetica, Arial, sans-serif">IS_COMPOSED</text></g><g class="relationship" transform="translate(81.13871312050964 136.68928474935183) rotate(536.731746460918)"><path class="b-outline" fill="#A5ABB6" stroke="none" d="M 25 0.5 L 49.55484792269564 0.5 L 49.55484792269564 -0.5 L 25 -0.5 Z M 140.44937917269564 0.5 L 165.0042270953913 0.5 L 165.0042270953913 3.5 L 172.0042270953913 0 L 165.0042270953913 -3.5 L 165.0042270953913 -0.5 L 140.44937917269564 -0.5 Z"/><text text-anchor="middle" pointer-events="none" font-size="8px" fill="#000000" x="95.00211354769564" y="3" transform="rotate(180 95.00211354769564 0)" font-family="Helvetica Neue, Helvetica, Arial, sans-serif">HAS_UNITDEFINITION</text></g><g class="relationship" transform="translate(224.01896390379068 -217.6040947589552) rotate(460.41507355118864)"><path class="b-outline" fill="#A5ABB6" stroke="none" d="M 25 0.5 L 36.29929117085052 0.5 L 36.29929117085052 -0.5 L 25 -0.5 Z M 116.68210367085052 0.5 L 127.98139484170105 0.5 L 127.98139484170105 3.5 L 134.98139484170105 0 L 127.98139484170105 -3.5 L 127.98139484170105 -0.5 L 116.68210367085052 -0.5 Z"/><text text-anchor="middle" pointer-events="none" font-size="8px" fill="#000000" x="76.49069742085052" y="3" transform="rotate(180 76.49069742085052 0)" font-family="Helvetica Neue, Helvetica, Arial, sans-serif">IN_COMPARTMENT</text></g><g class="relationship" transform="translate(93.83114032113066 -158.0110221486903) rotate(403.9883813720471)"><path class="b-outline" fill="#A5ABB6" stroke="none" d="M 25 0.5 L 26.683469630632985 0.5 L 26.683469630632985 -0.5 L 25 -0.5 Z M 107.06628213063298 0.5 L 108.74975176126597 0.5 L 108.74975176126597 3.5 L 115.74975176126597 0 L 108.74975176126597 -3.5 L 108.74975176126597 -0.5 L 107.06628213063298 -0.5 Z"/><text text-anchor="middle" pointer-events="none" font-size="8px" fill="#000000" x="66.87487588063298" y="3" font-family="Helvetica Neue, Helvetica, Arial, sans-serif">IN_COMPARTMENT</text></g><g class="relationship" transform="translate(130.61471165184096 -250.17066512801176) rotate(431.2454879205529)"><path class="b-outline" fill="#A5ABB6" stroke="none" d="M 25 0.5 L 56.58905509236456 0.5 L 56.58905509236456 -0.5 L 25 -0.5 Z M 136.97186759236456 0.5 L 168.56092268472912 0.5 L 168.56092268472912 3.5 L 175.56092268472912 0 L 168.56092268472912 -3.5 L 168.56092268472912 -0.5 L 136.97186759236456 -0.5 Z"/><text text-anchor="middle" pointer-events="none" font-size="8px" fill="#000000" x="96.78046134236456" y="3" font-family="Helvetica Neue, Helvetica, Arial, sans-serif">IN_COMPARTMENT</text></g><g class="relationship" transform="translate(205.57971343171448 80.90496377511772) rotate(265.7533955147849)"><path class="b-outline" fill="#A5ABB6" stroke="none" d="M 25 0.5 L 27.084667091820776 0.5 L 27.084667091820776 -0.5 L 25 -0.5 Z M 107.46747959182078 0.5 L 109.55214668364155 0.5 L 109.55214668364155 3.5 L 116.55214668364155 0 L 109.55214668364155 -3.5 L 109.55214668364155 -0.5 L 107.46747959182078 -0.5 Z"/><text text-anchor="middle" pointer-events="none" font-size="8px" fill="#000000" x="67.27607334182078" y="3" transform="rotate(180 67.27607334182078 0)" font-family="Helvetica Neue, Helvetica, Arial, sans-serif">IN_COMPARTMENT</text></g><g class="relationship" transform="translate(31.364376052520697 -80.80209445163084) rotate(367.1514922155076)"><path class="b-outline" fill="#A5ABB6" stroke="none" d="M 25 0.5 L 38.817216884521116 0.5 L 38.817216884521116 -0.5 L 25 -0.5 Z M 119.20002938452112 0.5 L 133.01724626904223 0.5 L 133.01724626904223 3.5 L 140.01724626904223 0 L 133.01724626904223 -3.5 L 133.01724626904223 -0.5 L 119.20002938452112 -0.5 Z"/><text text-anchor="middle" pointer-events="none" font-size="8px" fill="#000000" x="79.00862313452112" y="3" font-family="Helvetica Neue, Helvetica, Arial, sans-serif">IN_COMPARTMENT</text></g><g class="relationship" transform="translate(38.52130914465417 -307.8251161734058) rotate(495.53562561183264)"><path class="b-outline" fill="#A5ABB6" stroke="none" d="M 25 0.5 L 56.47284731483272 0.5 L 56.47284731483272 -0.5 L 25 -0.5 Z M 135.08612856483273 0.5 L 166.55897587966544 0.5 L 166.55897587966544 3.5 L 173.55897587966544 0 L 166.55897587966544 -3.5 L 166.55897587966544 -0.5 L 135.08612856483273 -0.5 Z"/><text text-anchor="middle" pointer-events="none" font-size="8px" fill="#000000" x="95.77948793983272" y="3" transform="rotate(180 95.77948793983272 0)" font-family="Helvetica Neue, Helvetica, Arial, sans-serif">HAS_KENETICLAW</text></g><g class="relationship" transform="translate(-35.915073291588655 -241.67564878141454) rotate(509.00693653294564)"><path class="b-outline" fill="#A5ABB6" stroke="none" d="M 25 0.5 L 52.82002157073987 0.5 L 52.82002157073987 -0.5 L 25 -0.5 Z M 131.43330282073987 0.5 L 159.25332439147974 0.5 L 159.25332439147974 3.5 L 166.25332439147974 0 L 159.25332439147974 -3.5 L 159.25332439147974 -0.5 L 131.43330282073987 -0.5 Z"/><text text-anchor="middle" pointer-events="none" font-size="8px" fill="#000000" x="92.12666219573987" y="3" transform="rotate(180 92.12666219573987 0)" font-family="Helvetica Neue, Helvetica, Arial, sans-serif">HAS_KENETICLAW</text></g><g class="relationship" transform="translate(224.01896390379068 -217.6040947589552) rotate(205.93702999397323)"><path class="b-outline" fill="#A5ABB6" stroke="none" d="M 25 0.5 L 69.37167744946122 0.5 L 69.37167744946122 -0.5 L 25 -0.5 Z M 129.90292744946123 0.5 L 174.27460489892243 0.5 L 174.27460489892243 3.5 L 181.27460489892243 0 L 174.27460489892243 -3.5 L 174.27460489892243 -0.5 L 129.90292744946123 -0.5 Z"/><text text-anchor="middle" pointer-events="none" font-size="8px" fill="#000000" x="99.63730244946122" y="3" transform="rotate(180 99.63730244946122 0)" font-family="Helvetica Neue, Helvetica, Arial, sans-serif">IS_REACTANT</text></g><g class="relationship" transform="translate(130.61471165184096 -250.17066512801176) rotate(537.0797593385877)"><path class="b-outline" fill="#A5ABB6" stroke="none" d="M 25 0.5 L 49.607534014208326 0.5 L 49.607534014208326 -0.5 L 25 -0.5 Z M 110.13878401420833 0.5 L 134.74631802841665 0.5 L 134.74631802841665 3.5 L 141.74631802841665 0 L 134.74631802841665 -3.5 L 134.74631802841665 -0.5 L 110.13878401420833 -0.5 Z"/><text text-anchor="middle" pointer-events="none" font-size="8px" fill="#000000" x="79.87315901420833" y="3" transform="rotate(180 79.87315901420833 0)" font-family="Helvetica Neue, Helvetica, Arial, sans-serif">IS_REACTANT</text></g><g class="relationship" transform="translate(38.52130914465417 -307.8251161734058) rotate(392.04834560036915)"><path class="b-outline" fill="#A5ABB6" stroke="none" d="M 25 0.5 L 27.820079435793815 0.5 L 27.820079435793815 -0.5 L 25 -0.5 Z M 73.83179818579382 0.5 L 76.65187762158763 0.5 L 76.65187762158763 3.5 L 83.65187762158763 0 L 76.65187762158763 -3.5 L 76.65187762158763 -0.5 L 73.83179818579382 -0.5 Z"/><text text-anchor="middle" pointer-events="none" font-size="8px" fill="#000000" x="50.825938810793815" y="3" font-family="Helvetica Neue, Helvetica, Arial, sans-serif">HAS_PR…</text></g><g class="relationship" transform="translate(-35.915073291588655 -241.67564878141454) rotate(392.8152541202659)"><path class="b-outline" fill="#A5ABB6" stroke="none" d="M 25 0.5 L 40.464514860713365 0.5 L 40.464514860713365 -0.5 L 25 -0.5 Z M 106.91763986071336 0.5 L 122.38215472142673 0.5 L 122.38215472142673 3.5 L 129.38215472142673 0 L 122.38215472142673 -3.5 L 122.38215472142673 -0.5 L 106.91763986071336 -0.5 Z"/><text text-anchor="middle" pointer-events="none" font-size="8px" fill="#000000" x="73.69107736071336" y="3" font-family="Helvetica Neue, Helvetica, Arial, sans-serif">HAS_PRODUCT</text></g><g class="relationship" transform="translate(-148.0212274972198 -4.125721046072651) rotate(437.94316453351763)"><path class="b-outline" fill="#A5ABB6" stroke="none" d="M 25 0.5 L 48.788806593335224 0.5 L 48.788806593335224 -0.5 L 25 -0.5 Z M 99.68724409333522 0.5 L 123.47605068667045 0.5 L 123.47605068667045 3.5 L 130.47605068667045 0 L 123.47605068667045 -3.5 L 123.47605068667045 -0.5 L 99.68724409333522 -0.5 Z"/><text text-anchor="middle" pointer-events="none" font-size="8px" fill="#000000" x="74.23802534333522" y="3" font-family="Helvetica Neue, Helvetica, Arial, sans-serif">HAS_UNITS</text></g><g class="relationship" transform="translate(-240.34998627776605 33.629622949564926) rotate(402.48213526398285)"><path class="b-outline" fill="#A5ABB6" stroke="none" d="M 25 0.5 L 55.66564739031173 0.5 L 55.66564739031173 -0.5 L 25 -0.5 Z M 106.56408489031173 0.5 L 137.22973228062347 0.5 L 137.22973228062347 3.5 L 144.22973228062347 0 L 137.22973228062347 -3.5 L 137.22973228062347 -0.5 L 106.56408489031173 -0.5 Z"/><text text-anchor="middle" pointer-events="none" font-size="8px" fill="#000000" x="81.11486614031173" y="3" font-family="Helvetica Neue, Helvetica, Arial, sans-serif">HAS_UNITS</text></g><g class="relationship" transform="translate(-103.18747704856366 -168.7413758655379) rotate(465.2352164614418)"><path class="b-outline" fill="#A5ABB6" stroke="none" d="M 25 0.5 L 43.75901429102976 0.5 L 43.75901429102976 -0.5 L 25 -0.5 Z M 119.85276429102976 0.5 L 138.61177858205951 0.5 L 138.61177858205951 3.5 L 145.61177858205951 0 L 138.61177858205951 -3.5 L 138.61177858205951 -0.5 L 119.85276429102976 -0.5 Z"/><text text-anchor="middle" pointer-events="none" font-size="8px" fill="#000000" x="81.80588929102976" y="3" transform="rotate(180 81.80588929102976 0)" font-family="Helvetica Neue, Helvetica, Arial, sans-serif">HAS_PARAMETER</text></g><g class="relationship" transform="translate(-199.86309317717368 -143.19275246744337) rotate(462.8966634346941)"><path class="b-outline" fill="#A5ABB6" stroke="none" d="M 25 0.5 L 49.15227185521057 0.5 L 49.15227185521057 -0.5 L 25 -0.5 Z M 125.24602185521057 0.5 L 149.39829371042114 0.5 L 149.39829371042114 3.5 L 156.39829371042114 0 L 149.39829371042114 -3.5 L 149.39829371042114 -0.5 L 125.24602185521057 -0.5 Z"/><text text-anchor="middle" pointer-events="none" font-size="8px" fill="#000000" x="87.19914685521057" y="3" transform="rotate(180 87.19914685521057 0)" font-family="Helvetica Neue, Helvetica, Arial, sans-serif">HAS_PARAMETER</text></g><g class="relationship" transform="translate(81.13871312050964 136.68928474935183) rotate(474.9074559347544)"><path class="b-outline" fill="#A5ABB6" stroke="none" d="M 25 0.5 L 27.5838651045066 0.5 L 27.5838651045066 -0.5 L 25 -0.5 Z M 115.3768338545066 0.5 L 117.9606989590132 0.5 L 117.9606989590132 3.5 L 124.9606989590132 0 L 117.9606989590132 -3.5 L 117.9606989590132 -0.5 L 115.3768338545066 -0.5 Z"/><text text-anchor="middle" pointer-events="none" font-size="8px" fill="#000000" x="71.4803494795066" y="3" transform="rotate(180 71.4803494795066 0)" font-family="Helvetica Neue, Helvetica, Arial, sans-serif">HAS_ASSIGNMENT…</text></g><g class="relationship" transform="translate(-35.915073291588655 -241.67564878141454) rotate(427.30467302419953)"><path class="b-outline" fill="#A5ABB6" stroke="none" d="M 25 0.5 L 58.46510778077504 0.5 L 58.46510778077504 -0.5 L 25 -0.5 Z M 108.91042028077504 0.5 L 142.37552806155009 0.5 L 142.37552806155009 3.5 L 149.37552806155009 0 L 142.37552806155009 -3.5 L 142.37552806155009 -0.5 L 108.91042028077504 -0.5 Z"/><text text-anchor="middle" pointer-events="none" font-size="8px" fill="#000000" x="83.68776403077504" y="3" font-family="Helvetica Neue, Helvetica, Arial, sans-serif">MODIFIERS</text></g><g class="relationship" transform="translate(81.13871312050964 136.68928474935183) rotate(430.0059658470757)"><path class="b-outline" fill="#A5ABB6" stroke="none" d="M 25 0.5 L 25.355273755993508 0.5 L 25.355273755993508 -0.5 L 25 -0.5 Z M 119.38652375599351 0.5 L 119.74179751198702 0.5 L 119.74179751198702 3.5 L 126.74179751198702 0 L 119.74179751198702 -3.5 L 119.74179751198702 -0.5 L 119.38652375599351 -0.5 Z"/><text text-anchor="middle" pointer-events="none" font-size="8px" fill="#000000" x="72.37089875599351" y="3" font-family="Helvetica Neue, Helvetica, Arial, sans-serif">HAS_ALGEBRAICRULE</text></g><g class="relationship" transform="translate(81.13871312050964 136.68928474935183) rotate(383.94519344601605)"><path class="b-outline" fill="#A5ABB6" stroke="none" d="M 25 0.5 L 34.2196318299149 0.5 L 34.2196318299149 -0.5 L 25 -0.5 Z M 110.3133818299149 0.5 L 119.5330136598298 0.5 L 119.5330136598298 3.5 L 126.5330136598298 0 L 119.5330136598298 -3.5 L 119.5330136598298 -0.5 L 110.3133818299149 -0.5 Z"/><text text-anchor="middle" pointer-events="none" font-size="8px" fill="#000000" x="72.2665068299149" y="3" font-family="Helvetica Neue, Helvetica, Arial, sans-serif">HAS_PARAMETER</text></g></g><g class="layer nodes"><g class="node" aria-label="graph-node0" transform="translate(-115.54509811558981,147.92066449962766)"><circle class="b-outline" cx="0" cy="0" r="25" fill="#D9C8AE" stroke="#c0a378" stroke-width="2px"/><text class="caption" text-anchor="middle" pointer-events="none" x="0" y="5" font-size="10px" fill="#2A2C34" font-family="Helvetica Neue, Helvetica, Arial, sans-serif"> per_sec…</text></g><g class="node" aria-label="graph-node1" transform="translate(195.097863300387,-60.25856213923301)"><circle class="b-outline" cx="0" cy="0" r="25" fill="#F79767" stroke="#f36924" stroke-width="2px"/><text class="caption" text-anchor="middle" pointer-events="none" x="0" y="5" font-size="10px" fill="#FFFFFF" font-family="Helvetica Neue, Helvetica, Arial, sans-serif"> cell</text></g><g class="node" aria-label="graph-node2" transform="translate(81.13871312050964,136.68928474935183)"><circle class="b-outline" cx="0" cy="0" r="25" fill="#57C7E3" stroke="#23b3d7" stroke-width="2px"/><text class="caption" text-anchor="middle" pointer-events="none" x="0" y="5" font-size="10px" fill="#2A2C34" font-family="Helvetica Neue, Helvetica, Arial, sans-serif"> 67b7624…</text></g><g class="node" aria-label="graph-node3" transform="translate(-183.9848624168925,279.0201774054435)"><circle class="b-outline" cx="0" cy="0" r="25" fill="#F16667" stroke="#eb2728" stroke-width="2px"/><text class="caption" text-anchor="middle" pointer-events="none" x="0" y="5" font-size="10px" fill="#FFFFFF" font-family="Helvetica Neue, Helvetica, Arial, sans-serif"> e97d363…</text></g><g class="node" aria-label="graph-node4" transform="translate(224.01896390379068,-217.6040947589552)"><circle class="b-outline" cx="0" cy="0" r="25" fill="#ECB5C9" stroke="#da7298" stroke-width="2px"/><text class="caption" text-anchor="middle" pointer-events="none" x="0" y="5" font-size="10px" fill="#2A2C34" font-family="Helvetica Neue, Helvetica, Arial, sans-serif"> X0</text></g><g class="node" aria-label="graph-node5" transform="translate(93.83114032113066,-158.0110221486903)"><circle class="b-outline" cx="0" cy="0" r="25" fill="#ECB5C9" stroke="#da7298" stroke-width="2px"/><text class="caption" text-anchor="middle" pointer-events="none" x="0" y="5" font-size="10px" fill="#2A2C34" font-family="Helvetica Neue, Helvetica, Arial, sans-serif"> X1</text></g><g class="node" aria-label="graph-node6" transform="translate(130.61471165184096,-250.17066512801176)"><circle class="b-outline" cx="0" cy="0" r="25" fill="#ECB5C9" stroke="#da7298" stroke-width="2px"/><text class="caption" text-anchor="middle" pointer-events="none" x="0" y="5" font-size="10px" fill="#2A2C34" font-family="Helvetica Neue, Helvetica, Arial, sans-serif"> T</text></g><g class="node" aria-label="graph-node7" transform="translate(205.57971343171448,80.90496377511772)"><circle class="b-outline" cx="0" cy="0" r="25" fill="#ECB5C9" stroke="#da7298" stroke-width="2px"/><text class="caption" text-anchor="middle" pointer-events="none" x="0" y="5" font-size="10px" fill="#2A2C34" font-family="Helvetica Neue, Helvetica, Arial, sans-serif"> S1</text></g><g class="node" aria-label="graph-node8" transform="translate(31.364376052520697,-80.80209445163084)"><circle class="b-outline" cx="0" cy="0" r="25" fill="#ECB5C9" stroke="#da7298" stroke-width="2px"/><text class="caption" text-anchor="middle" pointer-events="none" x="0" y="5" font-size="10px" fill="#2A2C34" font-family="Helvetica Neue, Helvetica, Arial, sans-serif"> S2</text></g><g class="node" aria-label="graph-node9" transform="translate(38.52130914465417,-307.8251161734058)"><circle class="b-outline" cx="0" cy="0" r="25" fill="#4C8EDA" stroke="#2870c2" stroke-width="2px"/><text class="caption" text-anchor="middle" pointer-events="none" x="0" y="5" font-size="10px" fill="#FFFFFF" font-family="Helvetica Neue, Helvetica, Arial, sans-serif"> in</text></g><g class="node" aria-label="graph-node10" transform="translate(-35.915073291588655,-241.67564878141454)"><circle class="b-outline" cx="0" cy="0" r="25" fill="#4C8EDA" stroke="#2870c2" stroke-width="2px"/><text class="caption" text-anchor="middle" pointer-events="none" x="0" y="5" font-size="10px" fill="#FFFFFF" font-family="Helvetica Neue, Helvetica, Arial, sans-serif"> out</text></g><g class="node" aria-label="graph-node11" transform="translate(-103.18747704856366,-168.7413758655379)"><circle class="b-outline" cx="0" cy="0" r="25" fill="#FFC454" stroke="#d7a013" stroke-width="2px"/><text class="caption" text-anchor="middle" pointer-events="none" x="0" y="5" font-size="10px" fill="#2A2C34" font-family="Helvetica Neue, Helvetica, Arial, sans-serif"> 4a21fcfb…</text></g><g class="node" aria-label="graph-node12" transform="translate(-199.86309317717368,-143.19275246744337)"><circle class="b-outline" cx="0" cy="0" r="25" fill="#FFC454" stroke="#d7a013" stroke-width="2px"/><text class="caption" text-anchor="middle" pointer-events="none" x="0" y="5" font-size="10px" fill="#2A2C34" font-family="Helvetica Neue, Helvetica, Arial, sans-serif"> 6919046…</text></g><g class="node" aria-label="graph-node13" transform="translate(219.62990241849295,198.1908677831268)"><circle class="b-outline" cx="0" cy="0" r="25" fill="#569480" stroke="#447666" stroke-width="2px"/><text class="caption" text-anchor="middle" pointer-events="none" x="0" y="5" font-size="10px" fill="#FFFFFF" font-family="Helvetica Neue, Helvetica, Arial, sans-serif"> Keq</text></g><g class="node" aria-label="graph-node14" transform="translate(-148.0212274972198,-4.125721046072651)"><circle class="b-outline" cx="0" cy="0" r="25" fill="#569480" stroke="#447666" stroke-width="2px"/><text class="caption" text-anchor="middle" pointer-events="none" x="0" y="5" font-size="10px" fill="#FFFFFF" font-family="Helvetica Neue, Helvetica, Arial, sans-serif"> k1</text></g><g class="node" aria-label="graph-node15" transform="translate(-240.34998627776605,33.629622949564926)"><circle class="b-outline" cx="0" cy="0" r="25" fill="#569480" stroke="#447666" stroke-width="2px"/><text class="caption" text-anchor="middle" pointer-events="none" x="0" y="5" font-size="10px" fill="#FFFFFF" font-family="Helvetica Neue, Helvetica, Arial, sans-serif"> k2</text></g><g class="node" aria-label="graph-node16" transform="translate(17.98218830598698,272.70202167361333)"><circle class="b-outline" cx="0" cy="0" r="25" fill="#A5ABB6" stroke="#9AA1AC" stroke-width="2px"/><text class="caption" text-anchor="middle" pointer-events="none" x="0" y="5" font-size="10px" fill="#FFFFFF" font-family="Helvetica Neue, Helvetica, Arial, sans-serif"> S2</text></g><g class="node" aria-label="graph-node17" transform="translate(133.0226171106404,279.28533525185264)"><circle class="b-outline" cx="0" cy="0" r="25" fill="#A5ABB6" stroke="#9AA1AC" stroke-width="2px"/><text class="caption" text-anchor="middle" pointer-events="none" x="0" y="5" font-size="10px" fill="#FFFFFF" font-family="Helvetica Neue, Helvetica, Arial, sans-serif"> b28057a…</text></g></g></svg>