<svg xmlns="http://www.w3.org/2000/svg" width="411.52337646484375" height="478.72955322265625" viewBox="-285.430908203125 -250.6548614501953 411.52337646484375 478.72955322265625"><title>Neo4j Graph Visualization</title><desc>Created using Neo4j (http://www.neo4j.com/)</desc><g class="layer relationships"><g class="relationship" transform="translate(-218.8664647486685 -77.8171571967114) rotate(464.9700599878339)"><path class="b-outline" fill="#A5ABB6" stroke="none" d="M 25 0.5 L 26.493937455006318 0.5 L 26.493937455006318 -0.5 L 25 -0.5 Z M 111.92753120500632 0.5 L 113.42146866001264 0.5 L 113.42146866001264 3.5 L 120.42146866001264 0 L 113.42146866001264 -3.5 L 113.42146866001264 -0.5 L 111.92753120500632 -0.5 Z"/><text text-anchor="middle" pointer-events="none" font-size="8px" fill="#000000" x="69.21073433000632" y="3" transform="rotate(180 69.21073433000632 0)" font-family="Helvetica Neue, Helvetica, Arial, sans-serif">HAS_EVENTASSIG…</text></g><g class="relationship" transform="translate(-65.70934652824131 -110.00768988624131) rotate(528.1303544981081)"><path class="b-outline" fill="#A5ABB6" stroke="none" d="M 25 0.5 L 47.96657417243476 0.5 L 47.96657417243476 -0.5 L 25 -0.5 Z M 101.53688667243476 0.5 L 124.50346084486952 0.5 L 124.50346084486952 3.5 L 131.50346084486952 0 L 124.50346084486952 -3.5 L 124.50346084486952 -0.5 L 101.53688667243476 -0.5 Z"/><text text-anchor="middle" pointer-events="none" font-size="8px" fill="#000000" x="74.75173042243476" y="3" transform="rotate(180 74.75173042243476 0)" font-family="Helvetica Neue, Helvetica, Arial, sans-serif">HAS_EVENT</text></g><g class="relationship" transform="translate(-218.8664647486685 -77.8171571967114) rotate(265.63361544541584)"><path class="b-outline" fill="#A5ABB6" stroke="none" d="M 25 0.5 L 36.95632286110745 0.5 L 36.95632286110745 -0.5 L 25 -0.5 Z M 100.30007286110745 0.5 L 112.2563957222149 0.5 L 112.2563957222149 3.5 L 119.2563957222149 0 L 112.2563957222149 -3.5 L 112.2563957222149 -0.5 L 100.30007286110745 -0.5 Z"/><text text-anchor="middle" pointer-events="none" font-size="8px" fill="#000000" x="68.62819786110745" y="3" transform="rotate(180 68.62819786110745 0)" font-family="Helvetica Neue, Helvetica, Arial, sans-serif">HAS_TRIGGER</text></g><g class="relationship" transform="translate(27.303046493080743 -69.14665858677131) rotate(448.0017982885763)"><path class="b-outline" fill="#A5ABB6" stroke="none" d="M 25 0.5 L 36.99032254885901 0.5 L 36.99032254885901 -0.5 L 25 -0.5 Z M 87.88876004885901 0.5 L 99.87908259771802 0.5 L 99.87908259771802 3.5 L 106.87908259771802 0 L 99.87908259771802 -3.5 L 99.87908259771802 -0.5 L 87.88876004885901 -0.5 Z"/><text text-anchor="middle" pointer-events="none" font-size="8px" fill="#000000" x="62.43954129885901" y="3" font-family="Helvetica Neue, Helvetica, Arial, sans-serif">HAS_UNITS</text></g><g class="relationship" transform="translate(-65.70934652824131 -110.00768988624131) rotate(313.31742498783854)"><path class="b-outline" fill="#A5ABB6" stroke="none" d="M 25 0.5 L 26.572570185850175 0.5 L 26.572570185850175 -0.5 L 25 -0.5 Z M 85.47100768585017 0.5 L 87.04357787170035 0.5 L 87.04357787170035 3.5 L 94.04357787170035 0 L 87.04357787170035 -3.5 L 87.04357787170035 -0.5 L 85.47100768585017 -0.5 Z"/><text text-anchor="middle" pointer-events="none" font-size="8px" fill="#000000" x="56.021788935850175" y="3" font-family="Helvetica Neue, Helvetica, Arial, sans-serif">HAS_COMP…</text></g><g class="relationship" transform="translate(-65.70934652824131 -110.00768988624131) rotate(420.518985817146)"><path class="b-outline" fill="#A5ABB6" stroke="none" d="M 25 0.5 L 50.223434150380626 0.5 L 50.223434150380626 -0.5 L 25 -0.5 Z M 141.11796540038063 0.5 L 166.34139955076125 0.5 L 166.34139955076125 3.5 L 173.34139955076125 0 L 166.34139955076125 -3.5 L 166.34139955076125 -0.5 L 141.11796540038063 -0.5 Z"/><text text-anchor="middle" pointer-events="none" font-size="8px" fill="#000000" x="95.67069977538063" y="3" font-family="Helvetica Neue, Helvetica, Arial, sans-serif">HAS_UNITDEFINITION</text></g><g class="relationship" transform="translate(-65.70934652824131 -110.00768988624131) rotate(439.3579095888059)"><path class="b-outline" fill="#A5ABB6" stroke="none" d="M 25 0.5 L 26.777665225711516 0.5 L 26.777665225711516 -0.5 L 25 -0.5 Z M 77.68391522571152 0.5 L 79.46158045142303 0.5 L 79.46158045142303 3.5 L 86.46158045142303 0 L 79.46158045142303 -3.5 L 79.46158045142303 -0.5 L 77.68391522571152 -0.5 Z"/><text text-anchor="middle" pointer-events="none" font-size="8px" fill="#000000" x="52.230790225711516" y="3" font-family="Helvetica Neue, Helvetica, Arial, sans-serif">HAS_SPE…</text></g><g class="relationship" transform="translate(-45.12535959227244 -0.46325416014470605) rotate(287.2970049682518)"><path class="b-outline" fill="#A5ABB6" stroke="none" d="M 25 0.5 L 59.032271811873 0.5 L 59.032271811873 -0.5 L 25 -0.5 Z M 139.415084311873 0.5 L 173.447356123746 0.5 L 173.447356123746 3.5 L 180.447356123746 0 L 173.447356123746 -3.5 L 173.447356123746 -0.5 L 139.415084311873 -0.5 Z"/><text text-anchor="middle" pointer-events="none" font-size="8px" fill="#000000" x="99.223678061873" y="3" font-family="Helvetica Neue, Helvetica, Arial, sans-serif">IN_COMPARTMENT</text></g><g class="relationship" transform="translate(-65.70934652824131 -110.00768988624131) rotate(349.7310517912699)"><path class="b-outline" fill="#A5ABB6" stroke="none" d="M 25 0.5 L 44.733840785435405 0.5 L 44.733840785435405 -0.5 L 25 -0.5 Z M 113.7182157854354 0.5 L 133.4520565708708 0.5 L 133.4520565708708 3.5 L 140.4520565708708 0 L 133.4520565708708 -3.5 L 133.4520565708708 -0.5 L 113.7182157854354 -0.5 Z"/><text text-anchor="middle" pointer-events="none" font-size="8px" fill="#000000" x="79.2260282854354" y="3" font-family="Helvetica Neue, Helvetica, Arial, sans-serif">HAS_RATERULE</text></g><g class="relationship" transform="translate(31.901423456184233 62.65223122691768) rotate(431.4410439340894)"><path class="b-outline" fill="#A5ABB6" stroke="none" d="M 25 0.5 L 36.11317007359514 0.5 L 36.11317007359514 -0.5 L 25 -0.5 Z M 100.79285757359514 0.5 L 111.90602764719029 0.5 L 111.90602764719029 3.5 L 118.90602764719029 0 L 111.90602764719029 -3.5 L 111.90602764719029 -0.5 L 100.79285757359514 -0.5 Z"/><text text-anchor="middle" pointer-events="none" font-size="8px" fill="#000000" x="68.45301382359514" y="3" font-family="Helvetica Neue, Helvetica, Arial, sans-serif">IS_COMPOSED</text></g></g><g class="layer nodes"><g class="node" aria-label="graph-node-4" transform="translate(77.70387594515638,199.07466391007043)"><circle class="b-outline" cx="0" cy="0" r="25" fill="#F16667" stroke="#eb2728" stroke-width="2px"/><text class="caption" text-anchor="middle" pointer-events="none" x="0" y="5" font-size="10px" fill="#FFFFFF" font-family="Helvetica Neue, Helvetica, Arial, sans-serif"> unit</text></g><g class="node" aria-label="graph-node-7" transform="translate(97.09246530945822,-139.50265701442967)"><circle class="b-outline" cx="0" cy="0" r="25" fill="#A5ABB6" stroke="#9AA1AC" stroke-width="2px"/><text class="caption" text-anchor="middle" pointer-events="none" x="0" y="5" font-size="10px" fill="#FFFFFF" font-family="Helvetica Neue, Helvetica, Arial, sans-serif"> rateRule</text></g><g class="node" aria-label="graph-node-10" transform="translate(-256.43090432542704,62.668843623722985)"><circle class="b-outline" cx="0" cy="0" r="25" fill="#A5ABB6" stroke="#9AA1AC" stroke-width="2px"/><text class="caption" text-anchor="middle" pointer-events="none" x="0" y="5" font-size="10px" fill="#FFFFFF" font-family="Helvetica Neue, Helvetica, Arial, sans-serif"> eventAs…</text></g><g class="node" aria-label="graph-node-2" transform="translate(15.959268438714215,-196.61952950343655)"><circle class="b-outline" cx="0" cy="0" r="25" fill="#F79767" stroke="#f36924" stroke-width="2px"/><text class="caption" text-anchor="middle" pointer-events="none" x="0" y="5" font-size="10px" fill="#FFFFFF" font-family="Helvetica Neue, Helvetica, Arial, sans-serif"> compart…</text></g><g class="node" aria-label="graph-node-6" transform="translate(27.303046493080743,-69.14665858677131)"><circle class="b-outline" cx="0" cy="0" r="25" fill="#569480" stroke="#447666" stroke-width="2px"/><text class="caption" text-anchor="middle" pointer-events="none" x="0" y="5" font-size="10px" fill="#FFFFFF" font-family="Helvetica Neue, Helvetica, Arial, sans-serif"> Parameter</text></g><g class="node" aria-label="graph-node-3" transform="translate(-65.70934652824131,-110.00768988624131)"><circle class="b-outline" cx="0" cy="0" r="25" fill="#57C7E3" stroke="#23b3d7" stroke-width="2px"/><text class="caption" text-anchor="middle" pointer-events="none" x="0" y="5" font-size="10px" fill="#2A2C34" font-family="Helvetica Neue, Helvetica, Arial, sans-serif"> model</text></g><g class="node" aria-label="graph-node-9" transform="translate(-229.849287514191,-221.65486195754727)"><circle class="b-outline" cx="0" cy="0" r="25" fill="#A5ABB6" stroke="#9AA1AC" stroke-width="2px"/><text class="caption" text-anchor="middle" pointer-events="none" x="0" y="5" font-size="10px" fill="#FFFFFF" font-family="Helvetica Neue, Helvetica, Arial, sans-serif"> trigger</text></g><g class="node" aria-label="graph-node-8" transform="translate(-218.8664647486685,-77.8171571967114)"><circle class="b-outline" cx="0" cy="0" r="25" fill="#A5ABB6" stroke="#9AA1AC" stroke-width="2px"/><text class="caption" text-anchor="middle" pointer-events="none" x="0" y="5" font-size="10px" fill="#FFFFFF" font-family="Helvetica Neue, Helvetica, Arial, sans-serif"> event</text></g><g class="node" aria-label="graph-node-5" transform="translate(-45.12535959227244,-0.46325416014470605)"><circle class="b-outline" cx="0" cy="0" r="25" fill="#ECB5C9" stroke="#da7298" stroke-width="2px"/><text class="caption" text-anchor="middle" pointer-events="none" x="0" y="5" font-size="10px" fill="#2A2C34" font-family="Helvetica Neue, Helvetica, Arial, sans-serif"> Species</text></g><g class="node" aria-label="graph-node-1" transform="translate(31.901423456184233,62.65223122691768)"><circle class="b-outline" cx="0" cy="0" r="25" fill="#D9C8AE" stroke="#c0a378" stroke-width="2px"/><text class="caption" text-anchor="middle" pointer-events="none" x="0" y="5" font-size="10px" fill="#2A2C34" font-family="Helvetica Neue, Helvetica, Arial, sans-serif"> UnitDefi…</text></g></g></svg>