<svg xmlns="http://www.w3.org/2000/svg" width="678.0184936523438" height="1040.3448486328125" viewBox="-283.31640625 -549.1091918945312 678.0184936523438 1040.3448486328125"><title>Neo4j Graph Visualization</title><desc>Created using Neo4j (http://www.neo4j.com/)</desc><g class="layer relationships"><g class="relationship" transform="translate(24.074096002080974 221.5196332534887) rotate(250.4104069551671)"><path class="b-outline" fill="#A5ABB6" stroke="none" d="M 25 0.5 L 46.55489316168428 0.5 L 46.55489316168428 -0.5 L 25 -0.5 Z M 135.38692441168428 0.5 L 156.94181757336855 0.5 L 156.94181757336855 3.5 L 163.94181757336855 0 L 156.94181757336855 -3.5 L 156.94181757336855 -0.5 L 135.38692441168428 -0.5 Z"/><text text-anchor="middle" pointer-events="none" font-size="8px" fill="#000000" x="90.97090878668428" y="3" transform="rotate(180 90.97090878668428 0)" font-family="Helvetica Neue, Helvetica, Arial, sans-serif">HAS_COMPARTMENT</text></g><g class="relationship" transform="translate(24.074096002080974 221.5196332534887) rotate(407.2666300665795)"><path class="b-outline" fill="#A5ABB6" stroke="none" d="M 25 0.5 L 27.229789138539545 0.5 L 27.229789138539545 -0.5 L 25 -0.5 Z M 74.12822663853954 0.5 L 76.35801577707909 0.5 L 76.35801577707909 3.5 L 83.35801577707909 0 L 76.35801577707909 -3.5 L 76.35801577707909 -0.5 L 74.12822663853954 -0.5 Z"/><text text-anchor="middle" pointer-events="none" font-size="8px" fill="#000000" x="50.679007888539545" y="3" font-family="Helvetica Neue, Helvetica, Arial, sans-serif">HAS_CO…</text></g><g class="relationship" transform="translate(-50.7814557583266 429.15310492898044) rotate(371.79673477897796)"><path class="b-outline" fill="#A5ABB6" stroke="none" d="M 25 0.5 L 45.07002036523551 0.5 L 45.07002036523551 -0.5 L 25 -0.5 Z M 109.74970786523551 0.5 L 129.81972823047101 0.5 L 129.81972823047101 3.5 L 136.81972823047101 0 L 129.81972823047101 -3.5 L 129.81972823047101 -0.5 L 109.74970786523551 -0.5 Z"/><text text-anchor="middle" pointer-events="none" font-size="8px" fill="#000000" x="77.40986411523551" y="3" font-family="Helvetica Neue, Helvetica, Arial, sans-serif">IS_COMPOSED</text></g><g class="relationship" transform="translate(211.05087193072467 333.447598530685) rotate(406.03833131405963)"><path class="b-outline" fill="#A5ABB6" stroke="none" d="M 25 0.5 L 38.95118501087772 0.5 L 38.95118501087772 -0.5 L 25 -0.5 Z M 103.63087251087772 0.5 L 117.58205752175544 0.5 L 117.58205752175544 3.5 L 124.58205752175544 0 L 117.58205752175544 -3.5 L 117.58205752175544 -0.5 L 103.63087251087772 -0.5 Z"/><text text-anchor="middle" pointer-events="none" font-size="8px" fill="#000000" x="71.29102876087772" y="3" font-family="Helvetica Neue, Helvetica, Arial, sans-serif">IS_COMPOSED</text></g><g class="relationship" transform="translate(211.05087193072467 333.447598530685) rotate(357.98503750832106)"><path class="b-outline" fill="#A5ABB6" stroke="none" d="M 25 0.5 L 41.533553786920606 0.5 L 41.533553786920606 -0.5 L 25 -0.5 Z M 106.2132412869206 0.5 L 122.74679507384121 0.5 L 122.74679507384121 3.5 L 129.7467950738412 0 L 122.74679507384121 -3.5 L 122.74679507384121 -0.5 L 106.2132412869206 -0.5 Z"/><text text-anchor="middle" pointer-events="none" font-size="8px" fill="#000000" x="73.8733975369206" y="3" font-family="Helvetica Neue, Helvetica, Arial, sans-serif">IS_COMPOSED</text></g><g class="relationship" transform="translate(211.05087193072467 333.447598530685) rotate(488.7681544046378)"><path class="b-outline" fill="#A5ABB6" stroke="none" d="M 25 0.5 L 46.74978555582335 0.5 L 46.74978555582335 -0.5 L 25 -0.5 Z M 111.42947305582335 0.5 L 133.1792586116467 0.5 L 133.1792586116467 3.5 L 140.1792586116467 0 L 133.1792586116467 -3.5 L 133.1792586116467 -0.5 L 111.42947305582335 -0.5 Z"/><text text-anchor="middle" pointer-events="none" font-size="8px" fill="#000000" x="79.08962930582335" y="3" transform="rotate(180 79.08962930582335 0)" font-family="Helvetica Neue, Helvetica, Arial, sans-serif">IS_COMPOSED</text></g><g class="relationship" transform="translate(24.074096002080974 221.5196332534887) rotate(469.825133364507)"><path class="b-outline" fill="#A5ABB6" stroke="none" d="M 25 0.5 L 61.41012219902866 0.5 L 61.41012219902866 -0.5 L 25 -0.5 Z M 152.30465344902865 0.5 L 188.71477564805733 0.5 L 188.71477564805733 3.5 L 195.71477564805733 0 L 188.71477564805733 -3.5 L 188.71477564805733 -0.5 L 152.30465344902865 -0.5 Z"/><text text-anchor="middle" pointer-events="none" font-size="8px" fill="#000000" x="106.85738782402866" y="3" transform="rotate(180 106.85738782402866 0)" font-family="Helvetica Neue, Helvetica, Arial, sans-serif">HAS_UNITDEFINITION</text></g><g class="relationship" transform="translate(24.074096002080974 221.5196332534887) rotate(390.9055664530633)"><path class="b-outline" fill="#A5ABB6" stroke="none" d="M 25 0.5 L 60.01165340846359 0.5 L 60.01165340846359 -0.5 L 25 -0.5 Z M 150.9061846584636 0.5 L 185.91783806692717 0.5 L 185.91783806692717 3.5 L 192.91783806692717 0 L 185.91783806692717 -3.5 L 185.91783806692717 -0.5 L 150.9061846584636 -0.5 Z"/><text text-anchor="middle" pointer-events="none" font-size="8px" fill="#000000" x="105.45891903346359" y="3" font-family="Helvetica Neue, Helvetica, Arial, sans-serif">HAS_UNITDEFINITION</text></g><g class="relationship" transform="translate(229.6025337966323 -73.20035378253232) rotate(314.40310037978054)"><path class="b-outline" fill="#A5ABB6" stroke="none" d="M 25 0.5 L 32.94012861039096 0.5 L 32.94012861039096 -0.5 L 25 -0.5 Z M 111.55340986039096 0.5 L 119.49353847078191 0.5 L 119.49353847078191 3.5 L 126.49353847078191 0 L 119.49353847078191 -3.5 L 119.49353847078191 -0.5 L 111.55340986039096 -0.5 Z"/><text text-anchor="middle" pointer-events="none" font-size="8px" fill="#000000" x="72.24676923539096" y="3" font-family="Helvetica Neue, Helvetica, Arial, sans-serif">HAS_KENETICLAW</text></g><g class="relationship" transform="translate(123.02920285156186 -217.40210874602604) rotate(228.90152608011732)"><path class="b-outline" fill="#A5ABB6" stroke="none" d="M 25 0.5 L 46.115393344936805 0.5 L 46.115393344936805 -0.5 L 25 -0.5 Z M 124.7286745949368 0.5 L 145.8440679398736 0.5 L 145.8440679398736 3.5 L 152.8440679398736 0 L 145.8440679398736 -3.5 L 145.8440679398736 -0.5 L 124.7286745949368 -0.5 Z"/><text text-anchor="middle" pointer-events="none" font-size="8px" fill="#000000" x="85.4220339699368" y="3" transform="rotate(180 85.4220339699368 0)" font-family="Helvetica Neue, Helvetica, Arial, sans-serif">HAS_KENETICLAW</text></g><g class="relationship" transform="translate(101.50467333294038 -375.3319769942277) rotate(195.00054498586275)"><path class="b-outline" fill="#A5ABB6" stroke="none" d="M 25 0.5 L 44.17950302631769 0.5 L 44.17950302631769 -0.5 L 25 -0.5 Z M 122.79278427631769 0.5 L 141.97228730263538 0.5 L 141.97228730263538 3.5 L 148.97228730263538 0 L 141.97228730263538 -3.5 L 141.97228730263538 -0.5 L 122.79278427631769 -0.5 Z"/><text text-anchor="middle" pointer-events="none" font-size="8px" fill="#000000" x="83.48614365131769" y="3" transform="rotate(180 83.48614365131769 0)" font-family="Helvetica Neue, Helvetica, Arial, sans-serif">HAS_KENETICLAW</text></g><g class="relationship" transform="translate(26.438262877321964 -453.7983407970626) rotate(204.46644671689182)"><path class="b-outline" fill="#A5ABB6" stroke="none" d="M 25 0.5 L 37.247944610561404 0.5 L 37.247944610561404 -0.5 L 25 -0.5 Z M 115.8612258605614 0.5 L 128.1091704711228 0.5 L 128.1091704711228 3.5 L 135.1091704711228 0 L 128.1091704711228 -3.5 L 128.1091704711228 -0.5 L 115.8612258605614 -0.5 Z"/><text text-anchor="middle" pointer-events="none" font-size="8px" fill="#000000" x="76.5545852355614" y="3" transform="rotate(180 76.5545852355614 0)" font-family="Helvetica Neue, Helvetica, Arial, sans-serif">HAS_KENETICLAW</text></g><g class="relationship" transform="translate(330.90025780188597 59.681561888676896) rotate(232.68122470304525)"><path class="b-outline" fill="#A5ABB6" stroke="none" d="M 25 0.5 L 49.77902234663571 0.5 L 49.77902234663571 -0.5 L 25 -0.5 Z M 110.31027234663571 0.5 L 135.08929469327143 0.5 L 135.08929469327143 3.5 L 142.08929469327143 0 L 135.08929469327143 -3.5 L 135.08929469327143 -0.5 L 110.31027234663571 -0.5 Z"/><text text-anchor="middle" pointer-events="none" font-size="8px" fill="#000000" x="80.04464734663571" y="3" transform="rotate(180 80.04464734663571 0)" font-family="Helvetica Neue, Helvetica, Arial, sans-serif">IS_REACTANT</text></g><g class="relationship" transform="translate(36.98417580169094 -31.59194347397536) rotate(347.8105582624912)"><path class="b-outline" fill="#A5ABB6" stroke="none" d="M 24.018736134675446,6.953439040707552 L 24.277555179777966,5.987513214418485 A 282.9800914621329 282.9800914621329 0 0 0 64.86357929576494,13.739414928300107 L 64.74818385303064,14.732734560541473 A 283.9800914621329 283.9800914621329 0 0 1 24.018736134675446,6.953439040707552 Z M 125.2686744366246,15.270687562825515 L 125.1709546209195,14.27547359707819 A 282.9800914621329 282.9800914621329 0 0 0 165.88836474181076,7.246259788102548 L 165.1635416050998,4.33513776721636 L 172.8017866466637,6.040192805924663 L 166.85479559075873,11.127755815950799 L 166.12997245404776,8.21663379506461 A 283.9800914621329 283.9800914621329 0 0 1 125.2686744366246,15.270687562825515"/><text text-anchor="middle" pointer-events="none" font-size="8px" fill="#000000" x="94.9985011241256" y="19.118627745593074" font-family="Helvetica Neue, Helvetica, Arial, sans-serif">IS_REACTANT</text></g><g class="relationship" transform="translate(36.98417580169094 -31.59194347397536) rotate(294.84792514735926)"><path class="b-outline" fill="#A5ABB6" stroke="none" d="M 25 0.5 L 68.61743536454445 0.5 L 68.61743536454445 -0.5 L 25 -0.5 Z M 129.14868536454446 0.5 L 172.7661207290889 0.5 L 172.7661207290889 3.5 L 179.7661207290889 0 L 172.7661207290889 -3.5 L 172.7661207290889 -0.5 L 129.14868536454446 -0.5 Z"/><text text-anchor="middle" pointer-events="none" font-size="8px" fill="#000000" x="98.88306036454445" y="3" font-family="Helvetica Neue, Helvetica, Arial, sans-serif">IS_REACTANT</text></g><g class="relationship" transform="translate(-45.78456450360967 -185.72995738443376) rotate(307.8412648453797)"><path class="b-outline" fill="#A5ABB6" stroke="none" d="M 25 0.5 L 86.27920560776138 0.5 L 86.27920560776138 -0.5 L 25 -0.5 Z M 146.81045560776138 0.5 L 208.08966121552277 0.5 L 208.08966121552277 3.5 L 215.08966121552277 0 L 208.08966121552277 -3.5 L 208.08966121552277 -0.5 L 146.81045560776138 -0.5 Z"/><text text-anchor="middle" pointer-events="none" font-size="8px" fill="#000000" x="116.54483060776138" y="3" font-family="Helvetica Neue, Helvetica, Arial, sans-serif">IS_REACTANT</text></g><g class="relationship" transform="translate(31.886768493526834 -256.6066855455364) rotate(300.3864238192406)"><path class="b-outline" fill="#A5ABB6" stroke="none" d="M 25 0.5 L 35.049975527435535 0.5 L 35.049975527435535 -0.5 L 25 -0.5 Z M 95.58122552743554 0.5 L 105.63120105487107 0.5 L 105.63120105487107 3.5 L 112.63120105487107 0 L 105.63120105487107 -3.5 L 105.63120105487107 -0.5 L 95.58122552743554 -0.5 Z"/><text text-anchor="middle" pointer-events="none" font-size="8px" fill="#000000" x="65.31560052743554" y="3" font-family="Helvetica Neue, Helvetica, Arial, sans-serif">IS_REACTANT</text></g><g class="relationship" transform="translate(31.886768493526834 -256.6066855455364) rotate(268.4172911917987)"><path class="b-outline" fill="#A5ABB6" stroke="none" d="M 25 0.5 L 64.8678316897645 0.5 L 64.8678316897645 -0.5 L 25 -0.5 Z M 125.3990816897645 0.5 L 165.266913379529 0.5 L 165.266913379529 3.5 L 172.266913379529 0 L 165.266913379529 -3.5 L 165.266913379529 -0.5 L 125.3990816897645 -0.5 Z"/><text text-anchor="middle" pointer-events="none" font-size="8px" fill="#000000" x="95.1334566897645" y="3" transform="rotate(180 95.1334566897645 0)" font-family="Helvetica Neue, Helvetica, Arial, sans-serif">IS_REACTANT</text></g><g class="relationship" transform="translate(229.6025337966323 -73.20035378253232) rotate(527.8105582624912)"><path class="b-outline" fill="#A5ABB6" stroke="none" d="M 24.018736134675446,6.953439040707552 L 24.277555179777966,5.987513214418485 A 282.9800914621329 282.9800914621329 0 0 0 61.929444168048605,13.383012186293513 L 61.80368002724598,14.375072356287319 A 283.9800914621329 283.9800914621329 0 0 1 24.018736134675446,6.953439040707552 Z M 128.21907086195145,14.965423798466247 L 128.11096159813354,13.97128478048296 A 282.9800914621329 282.9800914621329 0 0 0 165.88836474181076,7.246259788102548 L 165.1635416050998,4.33513776721636 L 172.8017866466637,6.040192805924663 L 166.85479559075873,11.127755815950799 L 166.12997245404776,8.21663379506461 A 283.9800914621329 283.9800914621329 0 0 1 128.21907086195145,14.965423798466247"/><text text-anchor="middle" pointer-events="none" font-size="8px" fill="#000000" x="94.9985011241256" y="19.118627745593074" transform="rotate(180 94.9985011241256 16.118627745593074)" font-family="Helvetica Neue, Helvetica, Arial, sans-serif">HAS_PRODUCT</text></g><g class="relationship" transform="translate(123.02920285156186 -217.40210874602604) rotate(529.3739283423441)"><path class="b-outline" fill="#A5ABB6" stroke="none" d="M 25 0.5 L 49.153023579169 0.5 L 49.153023579169 -0.5 L 25 -0.5 Z M 115.606148579169 0.5 L 139.759172158338 0.5 L 139.759172158338 3.5 L 146.759172158338 0 L 139.759172158338 -3.5 L 139.759172158338 -0.5 L 115.606148579169 -0.5 Z"/><text text-anchor="middle" pointer-events="none" font-size="8px" fill="#000000" x="82.379586079169" y="3" transform="rotate(180 82.379586079169 0)" font-family="Helvetica Neue, Helvetica, Arial, sans-serif">HAS_PRODUCT</text></g><g class="relationship" transform="translate(101.50467333294038 -375.3319769942277) rotate(511.01549429379)"><path class="b-outline" fill="#A5ABB6" stroke="none" d="M 25 0.5 L 58.53201249162508 0.5 L 58.53201249162508 -0.5 L 25 -0.5 Z M 124.98513749162508 0.5 L 158.51714998325016 0.5 L 158.51714998325016 3.5 L 165.51714998325016 0 L 158.51714998325016 -3.5 L 158.51714998325016 -0.5 L 124.98513749162508 -0.5 Z"/><text text-anchor="middle" pointer-events="none" font-size="8px" fill="#000000" x="91.75857499162508" y="3" transform="rotate(180 91.75857499162508 0)" font-family="Helvetica Neue, Helvetica, Arial, sans-serif">HAS_PRODUCT</text></g><g class="relationship" transform="translate(221.45805700388982 161.105783715336) rotate(453.45571712129583)"><path class="b-outline" fill="#A5ABB6" stroke="none" d="M 25 0.5 L 57.37866005371434 0.5 L 57.37866005371434 -0.5 L 25 -0.5 Z M 108.27709755371434 0.5 L 140.65575760742868 0.5 L 140.65575760742868 3.5 L 147.65575760742868 0 L 140.65575760742868 -3.5 L 140.65575760742868 -0.5 L 108.27709755371434 -0.5 Z"/><text text-anchor="middle" pointer-events="none" font-size="8px" fill="#000000" x="82.82787880371434" y="3" transform="rotate(180 82.82787880371434 0)" font-family="Helvetica Neue, Helvetica, Arial, sans-serif">HAS_UNITS</text></g><g class="relationship" transform="translate(135.47471003652274 208.70040687378864) rotate(418.7910697791968)"><path class="b-outline" fill="#A5ABB6" stroke="none" d="M 25 0.5 L 43.97817334813597 0.5 L 43.97817334813597 -0.5 L 25 -0.5 Z M 94.87661084813597 0.5 L 113.85478419627194 0.5 L 113.85478419627194 3.5 L 120.85478419627194 0 L 113.85478419627194 -3.5 L 113.85478419627194 -0.5 L 94.87661084813597 -0.5 Z"/><text text-anchor="middle" pointer-events="none" font-size="8px" fill="#000000" x="69.42739209813597" y="3" font-family="Helvetica Neue, Helvetica, Arial, sans-serif">HAS_UNITS</text></g><g class="relationship" transform="translate(-43.23608273639829 325.68138689456094) rotate(454.17074511254293)"><path class="b-outline" fill="#A5ABB6" stroke="none" d="M 25 0.5 L 25.14667020973782 0.5 L 25.14667020973782 -0.5 L 25 -0.5 Z M 71.59979520973782 0.5 L 71.74646541947564 0.5 L 71.74646541947564 3.5 L 78.74646541947564 0 L 71.74646541947564 -3.5 L 71.74646541947564 -0.5 L 71.59979520973782 -0.5 Z"/><text text-anchor="middle" pointer-events="none" font-size="8px" fill="#000000" x="48.37323270973782" y="3" transform="rotate(180 48.37323270973782 0)" font-family="Helvetica Neue, Helvetica, Arial, sans-serif">HAS_UN…</text></g><g class="relationship" transform="translate(-136.10050149129304 290.83476683861085) rotate(418.3324257945304)"><path class="b-outline" fill="#A5ABB6" stroke="none" d="M 25 0.5 L 52.308553519589395 0.5 L 52.308553519589395 -0.5 L 25 -0.5 Z M 103.2069910195894 0.5 L 130.5155445391788 0.5 L 130.5155445391788 3.5 L 137.5155445391788 0 L 130.5155445391788 -3.5 L 130.5155445391788 -0.5 L 103.2069910195894 -0.5 Z"/><text text-anchor="middle" pointer-events="none" font-size="8px" fill="#000000" x="77.7577722695894" y="3" font-family="Helvetica Neue, Helvetica, Arial, sans-serif">HAS_UNITS</text></g><g class="relationship" transform="translate(24.074096002080974 221.5196332534887) rotate(342.98207857138345)"><path class="b-outline" fill="#A5ABB6" stroke="none" d="M 25 0.5 L 61.66439046649613 0.5 L 61.66439046649613 -0.5 L 25 -0.5 Z M 137.75814046649612 0.5 L 174.42253093299226 0.5 L 174.42253093299226 3.5 L 181.42253093299226 0 L 174.42253093299226 -3.5 L 174.42253093299226 -0.5 L 137.75814046649612 -0.5 Z"/><text text-anchor="middle" pointer-events="none" font-size="8px" fill="#000000" x="99.71126546649613" y="3" font-family="Helvetica Neue, Helvetica, Arial, sans-serif">HAS_PARAMETER</text></g><g class="relationship" transform="translate(24.074096002080974 221.5196332534887) rotate(353.4356636952963)"><path class="b-outline" fill="#A5ABB6" stroke="none" d="M 25 0.5 L 27.188975313834433 0.5 L 27.188975313834433 -0.5 L 25 -0.5 Z M 77.94678781383443 0.5 L 80.13576312766887 0.5 L 80.13576312766887 3.5 L 87.13576312766887 0 L 80.13576312766887 -3.5 L 80.13576312766887 -0.5 L 77.94678781383443 -0.5 Z"/><text text-anchor="middle" pointer-events="none" font-size="8px" fill="#000000" x="52.56788156383443" y="3" font-family="Helvetica Neue, Helvetica, Arial, sans-serif">HAS_PAR…</text></g><g class="relationship" transform="translate(24.074096002080974 221.5196332534887) rotate(482.87087562570514)"><path class="b-outline" fill="#A5ABB6" stroke="none" d="M 25 0.5 L 27.12982515814415 0.5 L 27.12982515814415 -0.5 L 25 -0.5 Z M 89.88763765814414 0.5 L 92.0174628162883 0.5 L 92.0174628162883 3.5 L 99.0174628162883 0 L 92.0174628162883 -3.5 L 92.0174628162883 -0.5 L 89.88763765814414 -0.5 Z"/><text text-anchor="middle" pointer-events="none" font-size="8px" fill="#000000" x="58.50873140814415" y="3" transform="rotate(180 58.50873140814415 0)" font-family="Helvetica Neue, Helvetica, Arial, sans-serif">HAS_PARAM…</text></g><g class="relationship" transform="translate(24.074096002080974 221.5196332534887) rotate(516.5995794803141)"><path class="b-outline" fill="#A5ABB6" stroke="none" d="M 25 0.5 L 45.71779343185692 0.5 L 45.71779343185692 -0.5 L 25 -0.5 Z M 121.81154343185692 0.5 L 142.52933686371384 0.5 L 142.52933686371384 3.5 L 149.52933686371384 0 L 142.52933686371384 -3.5 L 142.52933686371384 -0.5 L 121.81154343185692 -0.5 Z"/><text text-anchor="middle" pointer-events="none" font-size="8px" fill="#000000" x="83.76466843185692" y="3" transform="rotate(180 83.76466843185692 0)" font-family="Helvetica Neue, Helvetica, Arial, sans-serif">HAS_PARAMETER</text></g><g class="relationship" transform="translate(330.90025780188597 59.681561888676896) rotate(465.06618174098355)"><path class="b-outline" fill="#A5ABB6" stroke="none" d="M 25 0.5 L 58.85972655592967 0.5 L 58.85972655592967 -0.5 L 25 -0.5 Z M 120.43785155592967 0.5 L 154.29757811185934 0.5 L 154.29757811185934 3.5 L 161.29757811185934 0 L 154.29757811185934 -3.5 L 154.29757811185934 -0.5 L 120.43785155592967 -0.5 Z"/><text text-anchor="middle" pointer-events="none" font-size="8px" fill="#000000" x="89.64878905592967" y="3" transform="rotate(180 89.64878905592967 0)" font-family="Helvetica Neue, Helvetica, Arial, sans-serif">HAS_SPECIES</text></g><g class="relationship" transform="translate(36.98417580169094 -31.59194347397536) rotate(484.2927496938445)"><path class="b-outline" fill="#A5ABB6" stroke="none" d="M 25 0.5 L 71.89222657112926 0.5 L 71.89222657112926 -0.5 L 25 -0.5 Z M 133.47035157112924 0.5 L 180.3625781422585 0.5 L 180.3625781422585 3.5 L 187.3625781422585 0 L 180.3625781422585 -3.5 L 180.3625781422585 -0.5 L 133.47035157112924 -0.5 Z"/><text text-anchor="middle" pointer-events="none" font-size="8px" fill="#000000" x="102.68128907112926" y="3" transform="rotate(180 102.68128907112926 0)" font-family="Helvetica Neue, Helvetica, Arial, sans-serif">HAS_SPECIES</text></g><g class="relationship" transform="translate(-45.78456450360967 -185.72995738443376) rotate(495.7770454595819)"><path class="b-outline" fill="#A5ABB6" stroke="none" d="M 25 0.5 L 65.30508821230731 0.5 L 65.30508821230731 -0.5 L 25 -0.5 Z M 126.88321321230731 0.5 L 167.18830142461462 0.5 L 167.18830142461462 3.5 L 174.18830142461462 0 L 167.18830142461462 -3.5 L 167.18830142461462 -0.5 L 126.88321321230731 -0.5 Z"/><text text-anchor="middle" pointer-events="none" font-size="8px" fill="#000000" x="96.09415071230731" y="3" transform="rotate(180 96.09415071230731 0)" font-family="Helvetica Neue, Helvetica, Arial, sans-serif">HAS_SPECIES</text></g><g class="relationship" transform="translate(31.886768493526834 -256.6066855455364) rotate(447.4474330429813)"><path class="b-outline" fill="#A5ABB6" stroke="none" d="M 25 0.5 L 28.414484985525576 0.5 L 28.414484985525576 -0.5 L 25 -0.5 Z M 89.99260998552558 0.5 L 93.40709497105115 0.5 L 93.40709497105115 3.5 L 100.40709497105115 0 L 93.40709497105115 -3.5 L 93.40709497105115 -0.5 L 89.99260998552558 -0.5 Z"/><text text-anchor="middle" pointer-events="none" font-size="8px" fill="#000000" x="59.203547485525576" y="3" font-family="Helvetica Neue, Helvetica, Arial, sans-serif">HAS_SPECIES</text></g><g class="relationship" transform="translate(-65.15035231311131 -283.0124944098128) rotate(415.92035436590936)"><path class="b-outline" fill="#A5ABB6" stroke="none" d="M 25 0.5 L 57.281563513048596 0.5 L 57.281563513048596 -0.5 L 25 -0.5 Z M 118.8596885130486 0.5 L 151.1412520260972 0.5 L 151.1412520260972 3.5 L 158.1412520260972 0 L 151.1412520260972 -3.5 L 151.1412520260972 -0.5 L 118.8596885130486 -0.5 Z"/><text text-anchor="middle" pointer-events="none" font-size="8px" fill="#000000" x="88.0706260130486" y="3" font-family="Helvetica Neue, Helvetica, Arial, sans-serif">HAS_SPECIES</text></g><g class="relationship" transform="translate(282.4750708394615 239.5753885698573) rotate(521.5896574059057)"><path class="b-outline" fill="#A5ABB6" stroke="none" d="M 25 0.5 L 53.73000271789053 0.5 L 53.73000271789053 -0.5 L 25 -0.5 Z M 134.11281521789053 0.5 L 162.84281793578106 0.5 L 162.84281793578106 3.5 L 169.84281793578106 0 L 162.84281793578106 -3.5 L 162.84281793578106 -0.5 L 134.11281521789053 -0.5 Z"/><text text-anchor="middle" pointer-events="none" font-size="8px" fill="#000000" x="93.92140896789053" y="3" transform="rotate(180 93.92140896789053 0)" font-family="Helvetica Neue, Helvetica, Arial, sans-serif">IN_COMPARTMENT</text></g><g class="relationship" transform="translate(-82.66546833091382 143.85556221980158) rotate(401.09921133305204)"><path class="b-outline" fill="#A5ABB6" stroke="none" d="M 25 0.5 L 75.91883841865133 0.5 L 75.91883841865133 -0.5 L 25 -0.5 Z M 156.30165091865132 0.5 L 207.22048933730267 0.5 L 207.22048933730267 3.5 L 214.22048933730267 0 L 207.22048933730267 -3.5 L 207.22048933730267 -0.5 L 156.30165091865132 -0.5 Z"/><text text-anchor="middle" pointer-events="none" font-size="8px" fill="#000000" x="116.11024466865133" y="3" font-family="Helvetica Neue, Helvetica, Arial, sans-serif">IN_COMPARTMENT</text></g><g class="relationship" transform="translate(-188.52912459618435 -46.80562550408793) rotate(391.1797254437332)"><path class="b-outline" fill="#A5ABB6" stroke="none" d="M 25 0.5 L 43.53619939556269 0.5 L 43.53619939556269 -0.5 L 25 -0.5 Z M 123.91901189556269 0.5 L 142.45521129112538 0.5 L 142.45521129112538 3.5 L 149.45521129112538 0 L 142.45521129112538 -3.5 L 142.45521129112538 -0.5 L 123.91901189556269 -0.5 Z"/><text text-anchor="middle" pointer-events="none" font-size="8px" fill="#000000" x="83.72760564556269" y="3" font-family="Helvetica Neue, Helvetica, Arial, sans-serif">IN_COMPARTMENT</text></g><g class="relationship" transform="translate(37.4718941261779 -131.3240217777758) rotate(473.6993781928927)"><path class="b-outline" fill="#A5ABB6" stroke="none" d="M 25 0.5 L 51.778948621051185 0.5 L 51.778948621051185 -0.5 L 25 -0.5 Z M 132.1617611210512 0.5 L 158.94070974210237 0.5 L 158.94070974210237 3.5 L 165.94070974210237 0 L 158.94070974210237 -3.5 L 158.94070974210237 -0.5 L 132.1617611210512 -0.5 Z"/><text text-anchor="middle" pointer-events="none" font-size="8px" fill="#000000" x="91.97035487105119" y="3" transform="rotate(180 91.97035487105119 0)" font-family="Helvetica Neue, Helvetica, Arial, sans-serif">IN_COMPARTMENT</text></g><g class="relationship" transform="translate(-82.66546833091382 143.85556221980158) rotate(195.04553461859655)"><path class="b-outline" fill="#A5ABB6" stroke="none" d="M 25 0.5 L 33.02044924684098 0.5 L 33.02044924684098 -0.5 L 25 -0.5 Z M 137.723574246841 0.5 L 145.74402349368196 0.5 L 145.74402349368196 3.5 L 152.74402349368196 0 L 145.74402349368196 -3.5 L 145.74402349368196 -0.5 L 137.723574246841 -0.5 Z"/><text text-anchor="middle" pointer-events="none" font-size="8px" fill="#000000" x="85.37201174684098" y="3" transform="rotate(180 85.37201174684098 0)" font-family="Helvetica Neue, Helvetica, Arial, sans-serif">BELONGS_SPECIESTYPE</text></g><g class="relationship" transform="translate(-188.52912459618435 -46.80562550408793) rotate(474.47542651795055)"><path class="b-outline" fill="#A5ABB6" stroke="none" d="M 25 0.5 L 27.547475560078155 0.5 L 27.547475560078155 -0.5 L 25 -0.5 Z M 124.24278806007815 0.5 L 126.79026362015631 0.5 L 126.79026362015631 3.5 L 133.7902636201563 0 L 126.79026362015631 -3.5 L 126.79026362015631 -0.5 L 124.24278806007815 -0.5 Z"/><text text-anchor="middle" pointer-events="none" font-size="8px" fill="#000000" x="75.89513181007815" y="3" transform="rotate(180 75.89513181007815 0)" font-family="Helvetica Neue, Helvetica, Arial, sans-serif">BELONGS_SPECIEST…</text></g></g><g class="layer nodes"><g class="node" aria-label="graph-node0" transform="translate(-50.7814557583266,429.15310492898044)"><circle class="b-outline" cx="0" cy="0" r="25" fill="#D9C8AE" stroke="#c0a378" stroke-width="2px"/><text class="caption" text-anchor="middle" pointer-events="none" x="0" y="5" font-size="10px" fill="#2A2C34" font-family="Helvetica Neue, Helvetica, Arial, sans-serif"> per_sec…</text></g><g class="node" aria-label="graph-node1" transform="translate(211.05087193072467,333.447598530685)"><circle class="b-outline" cx="0" cy="0" r="25" fill="#D9C8AE" stroke="#c0a378" stroke-width="2px"/><text class="caption" text-anchor="middle" pointer-events="none" x="0" y="5" font-size="10px" fill="#2A2C34" font-family="Helvetica Neue, Helvetica, Arial, sans-serif"> litre_per…</text></g><g class="node" aria-label="graph-node2" transform="translate(-39.27440218760793,43.514076584492955)"><circle class="b-outline" cx="0" cy="0" r="25" fill="#F79767" stroke="#f36924" stroke-width="2px"/><text class="caption" text-anchor="middle" pointer-events="none" x="0" y="5" font-size="10px" fill="#FFFFFF" font-family="Helvetica Neue, Helvetica, Arial, sans-serif"> cytoplasm</text></g><g class="node" aria-label="graph-node3" transform="translate(97.60449973037672,301.1107088254368)"><circle class="b-outline" cx="0" cy="0" r="25" fill="#F79767" stroke="#f36924" stroke-width="2px"/><text class="caption" text-anchor="middle" pointer-events="none" x="0" y="5" font-size="10px" fill="#FFFFFF" font-family="Helvetica Neue, Helvetica, Arial, sans-serif"> nucleus</text></g><g class="node" aria-label="graph-node4" transform="translate(24.074096002080974,221.5196332534887)"><circle class="b-outline" cx="0" cy="0" r="25" fill="#57C7E3" stroke="#23b3d7" stroke-width="2px"/><text class="caption" text-anchor="middle" pointer-events="none" x="0" y="5" font-size="10px" fill="#2A2C34" font-family="Helvetica Neue, Helvetica, Arial, sans-serif"> LotkaVol…</text></g><g class="node" aria-label="graph-node5" transform="translate(107.62048465406679,462.2355733703176)"><circle class="b-outline" cx="0" cy="0" r="25" fill="#F16667" stroke="#eb2728" stroke-width="2px"/><text class="caption" text-anchor="middle" pointer-events="none" x="0" y="5" font-size="10px" fill="#FFFFFF" font-family="Helvetica Neue, Helvetica, Arial, sans-serif"> e97d363…</text></g><g class="node" aria-label="graph-node6" transform="translate(314.88729157008675,441.11741737013534)"><circle class="b-outline" cx="0" cy="0" r="25" fill="#F16667" stroke="#eb2728" stroke-width="2px"/><text class="caption" text-anchor="middle" pointer-events="none" x="0" y="5" font-size="10px" fill="#FFFFFF" font-family="Helvetica Neue, Helvetica, Arial, sans-serif"> 1692378…</text></g><g class="node" aria-label="graph-node7" transform="translate(365.70198383029805,328.0066267561724)"><circle class="b-outline" cx="0" cy="0" r="25" fill="#F16667" stroke="#eb2728" stroke-width="2px"/><text class="caption" text-anchor="middle" pointer-events="none" x="0" y="5" font-size="10px" fill="#FFFFFF" font-family="Helvetica Neue, Helvetica, Arial, sans-serif"> b871e8f…</text></g><g class="node" aria-label="graph-node8" transform="translate(330.90025780188597,59.681561888676896)"><circle class="b-outline" cx="0" cy="0" r="25" fill="#A5ABB6" stroke="#9AA1AC" stroke-width="2px"/><text class="caption" text-anchor="middle" pointer-events="none" x="0" y="5" font-size="10px" fill="#FFFFFF" font-family="Helvetica Neue, Helvetica, Arial, sans-serif"> a48dff80…</text></g><g class="node" aria-label="graph-node9" transform="translate(36.98417580169094,-31.59194347397536)"><circle class="b-outline" cx="0" cy="0" r="25" fill="#A5ABB6" stroke="#9AA1AC" stroke-width="2px"/><text class="caption" text-anchor="middle" pointer-events="none" x="0" y="5" font-size="10px" fill="#FFFFFF" font-family="Helvetica Neue, Helvetica, Arial, sans-serif"> 4681aa2…</text></g><g class="node selected" aria-label="graph-node10" transform="translate(-45.78456450360967,-185.72995738443376)"><circle class="b-outline" cx="0" cy="0" r="25" fill="#A5ABB6" stroke="#9AA1AC" stroke-width="2px"/><text class="caption" text-anchor="middle" pointer-events="none" x="0" y="5" font-size="10px" fill="#FFFFFF" font-family="Helvetica Neue, Helvetica, Arial, sans-serif"> e3afcf7e…</text></g><g class="node" aria-label="graph-node11" transform="translate(31.886768493526834,-256.6066855455364)"><circle class="b-outline" cx="0" cy="0" r="25" fill="#A5ABB6" stroke="#9AA1AC" stroke-width="2px"/><text class="caption" text-anchor="middle" pointer-events="none" x="0" y="5" font-size="10px" fill="#FFFFFF" font-family="Helvetica Neue, Helvetica, Arial, sans-serif"> 869c9d1…</text></g><g class="node" aria-label="graph-node12" transform="translate(-65.15035231311131,-283.0124944098128)"><circle class="b-outline" cx="0" cy="0" r="25" fill="#A5ABB6" stroke="#9AA1AC" stroke-width="2px"/><text class="caption" text-anchor="middle" pointer-events="none" x="0" y="5" font-size="10px" fill="#FFFFFF" font-family="Helvetica Neue, Helvetica, Arial, sans-serif"> c4f2280…</text></g><g class="node" aria-label="graph-node13" transform="translate(229.6025337966323,-73.20035378253232)"><circle class="b-outline" cx="0" cy="0" r="25" fill="#4C8EDA" stroke="#2870c2" stroke-width="2px"/><text class="caption" text-anchor="middle" pointer-events="none" x="0" y="5" font-size="10px" fill="#FFFFFF" font-family="Helvetica Neue, Helvetica, Arial, sans-serif"> production</text></g><g class="node" aria-label="graph-node14" transform="translate(123.02920285156186,-217.40210874602604)"><circle class="b-outline" cx="0" cy="0" r="25" fill="#4C8EDA" stroke="#2870c2" stroke-width="2px"/><text class="caption" text-anchor="middle" pointer-events="none" x="0" y="5" font-size="10px" fill="#FFFFFF" font-family="Helvetica Neue, Helvetica, Arial, sans-serif"> transport</text></g><g class="node" aria-label="graph-node15" transform="translate(101.50467333294038,-375.3319769942277)"><circle class="b-outline" cx="0" cy="0" r="25" fill="#4C8EDA" stroke="#2870c2" stroke-width="2px"/><text class="caption" text-anchor="middle" pointer-events="none" x="0" y="5" font-size="10px" fill="#FFFFFF" font-family="Helvetica Neue, Helvetica, Arial, sans-serif"> transfor…</text></g><g class="node" aria-label="graph-node16" transform="translate(26.438262877321964,-453.7983407970626)"><circle class="b-outline" cx="0" cy="0" r="25" fill="#4C8EDA" stroke="#2870c2" stroke-width="2px"/><text class="caption" text-anchor="middle" pointer-events="none" x="0" y="5" font-size="10px" fill="#FFFFFF" font-family="Helvetica Neue, Helvetica, Arial, sans-serif"> degradat…</text></g><g class="node" aria-label="graph-node17" transform="translate(335.6028657906237,-181.43261244676737)"><circle class="b-outline" cx="0" cy="0" r="25" fill="#FFC454" stroke="#d7a013" stroke-width="2px"/><text class="caption" text-anchor="middle" pointer-events="none" x="0" y="5" font-size="10px" fill="#2A2C34" font-family="Helvetica Neue, Helvetica, Arial, sans-serif"> 2bea841…</text></g><g class="node" aria-label="graph-node18" transform="translate(6.1224845713906975,-351.42200175584406)"><circle class="b-outline" cx="0" cy="0" r="25" fill="#FFC454" stroke="#d7a013" stroke-width="2px"/><text class="caption" text-anchor="middle" pointer-events="none" x="0" y="5" font-size="10px" fill="#2A2C34" font-family="Helvetica Neue, Helvetica, Arial, sans-serif"> bf3b710…</text></g><g class="node" aria-label="graph-node19" transform="translate(-66.53922373269471,-420.3609166697847)"><circle class="b-outline" cx="0" cy="0" r="25" fill="#FFC454" stroke="#d7a013" stroke-width="2px"/><text class="caption" text-anchor="middle" pointer-events="none" x="0" y="5" font-size="10px" fill="#2A2C34" font-family="Helvetica Neue, Helvetica, Arial, sans-serif"> 0d73326…</text></g><g class="node" aria-label="graph-node20" transform="translate(-119.29373900200459,-520.1092003691947)"><circle class="b-outline" cx="0" cy="0" r="25" fill="#FFC454" stroke="#d7a013" stroke-width="2px"/><text class="caption" text-anchor="middle" pointer-events="none" x="0" y="5" font-size="10px" fill="#2A2C34" font-family="Helvetica Neue, Helvetica, Arial, sans-serif"> 3908d2c…</text></g><g class="node" aria-label="graph-node21" transform="translate(221.45805700388982,161.105783715336)"><circle class="b-outline" cx="0" cy="0" r="25" fill="#569480" stroke="#447666" stroke-width="2px"/><text class="caption" text-anchor="middle" pointer-events="none" x="0" y="5" font-size="10px" fill="#FFFFFF" font-family="Helvetica Neue, Helvetica, Arial, sans-serif"> k1</text></g><g class="node" aria-label="graph-node22" transform="translate(135.47471003652274,208.70040687378864)"><circle class="b-outline" cx="0" cy="0" r="25" fill="#569480" stroke="#447666" stroke-width="2px"/><text class="caption" text-anchor="middle" pointer-events="none" x="0" y="5" font-size="10px" fill="#FFFFFF" font-family="Helvetica Neue, Helvetica, Arial, sans-serif"> k2</text></g><g class="node" aria-label="graph-node23" transform="translate(-43.23608273639829,325.68138689456094)"><circle class="b-outline" cx="0" cy="0" r="25" fill="#569480" stroke="#447666" stroke-width="2px"/><text class="caption" text-anchor="middle" pointer-events="none" x="0" y="5" font-size="10px" fill="#FFFFFF" font-family="Helvetica Neue, Helvetica, Arial, sans-serif"> KT</text></g><g class="node" aria-label="graph-node24" transform="translate(-136.10050149129304,290.83476683861085)"><circle class="b-outline" cx="0" cy="0" r="25" fill="#569480" stroke="#447666" stroke-width="2px"/><text class="caption" text-anchor="middle" pointer-events="none" x="0" y="5" font-size="10px" fill="#FFFFFF" font-family="Helvetica Neue, Helvetica, Arial, sans-serif"> k3</text></g><g class="node" aria-label="graph-node25" transform="translate(282.4750708394615,239.5753885698573)"><circle class="b-outline" cx="0" cy="0" r="25" fill="#ECB5C9" stroke="#da7298" stroke-width="2px"/><text class="caption" text-anchor="middle" pointer-events="none" x="0" y="5" font-size="10px" fill="#2A2C34" font-family="Helvetica Neue, Helvetica, Arial, sans-serif"> X</text></g><g class="node" aria-label="graph-node26" transform="translate(-82.66546833091382,143.85556221980158)"><circle class="b-outline" cx="0" cy="0" r="25" fill="#ECB5C9" stroke="#da7298" stroke-width="2px"/><text class="caption" text-anchor="middle" pointer-events="none" x="0" y="5" font-size="10px" fill="#2A2C34" font-family="Helvetica Neue, Helvetica, Arial, sans-serif"> Y1n</text></g><g class="node" aria-label="graph-node27" transform="translate(-188.52912459618435,-46.80562550408793)"><circle class="b-outline" cx="0" cy="0" r="25" fill="#ECB5C9" stroke="#da7298" stroke-width="2px"/><text class="caption" text-anchor="middle" pointer-events="none" x="0" y="5" font-size="10px" fill="#2A2C34" font-family="Helvetica Neue, Helvetica, Arial, sans-serif"> Y1c</text></g><g class="node" aria-label="graph-node28" transform="translate(37.4718941261779,-131.3240217777758)"><circle class="b-outline" cx="0" cy="0" r="25" fill="#ECB5C9" stroke="#da7298" stroke-width="2px"/><text class="caption" text-anchor="middle" pointer-events="none" x="0" y="5" font-size="10px" fill="#2A2C34" font-family="Helvetica Neue, Helvetica, Arial, sans-serif"> Y2</text></g><g class="node" aria-label="graph-node29" transform="translate(-254.31639653048384,97.71559325634622)"><circle class="b-outline" cx="0" cy="0" r="25" fill="#A5ABB6" stroke="#9AA1AC" stroke-width="2px"/><text class="caption" text-anchor="middle" pointer-events="none" x="0" y="5" font-size="10px" fill="#FFFFFF" font-family="Helvetica Neue, Helvetica, Arial, sans-serif"> Y1</text></g></g></svg>