<svg xmlns="http://www.w3.org/2000/svg" width="962.0008544921875" height="821.9636840820312" viewBox="-399.1039123535156 -470.9610290527344 962.0008544921875 821.9636840820312"><title>Neo4j Graph Visualization</title><desc>Created using Neo4j (http://www.neo4j.com/)</desc><g class="layer relationships"><g class="relationship" transform="translate(153.5818052677108 -148.78764187392048) rotate(304.39702526516504)"><path class="b-outline" fill="#A5ABB6" stroke="none" d="M 25 0.5 L 26.754250804704583 0.5 L 26.754250804704583 -0.5 L 25 -0.5 Z M 100.92221955470458 0.5 L 102.67647035940917 0.5 L 102.67647035940917 3.5 L 109.67647035940917 0 L 102.67647035940917 -3.5 L 102.67647035940917 -0.5 L 100.92221955470458 -0.5 Z"/><text text-anchor="middle" pointer-events="none" font-size="8px" fill="#000000" x="63.83823517970458" y="3" font-family="Helvetica Neue, Helvetica, Arial, sans-serif">HAS_COMPART…</text></g><g class="relationship" transform="translate(153.5818052677108 -148.78764187392048) rotate(342.05214772607883)"><path class="b-outline" fill="#A5ABB6" stroke="none" d="M 25 0.5 L 42.082184541536435 0.5 L 42.082184541536435 -0.5 L 25 -0.5 Z M 130.91421579153644 0.5 L 147.99640033307287 0.5 L 147.99640033307287 3.5 L 154.99640033307287 0 L 147.99640033307287 -3.5 L 147.99640033307287 -0.5 L 130.91421579153644 -0.5 Z"/><text text-anchor="middle" pointer-events="none" font-size="8px" fill="#000000" x="86.49820016653644" y="3" font-family="Helvetica Neue, Helvetica, Arial, sans-serif">HAS_COMPARTMENT</text></g><g class="relationship" transform="translate(153.5818052677108 -148.78764187392048) rotate(305.40769049832784)"><path class="b-outline" fill="#A5ABB6" stroke="none" d="M 25 0.5 L 69.19099389144557 0.5 L 69.19099389144557 -0.5 L 25 -0.5 Z M 158.02302514144557 0.5 L 202.21401903289114 0.5 L 202.21401903289114 3.5 L 209.21401903289114 0 L 202.21401903289114 -3.5 L 202.21401903289114 -0.5 L 158.02302514144557 -0.5 Z"/><text text-anchor="middle" pointer-events="none" font-size="8px" fill="#000000" x="113.60700951644557" y="3" font-family="Helvetica Neue, Helvetica, Arial, sans-serif">HAS_COMPARTMENT</text></g><g class="relationship" transform="translate(329.01568293321196 -15.747797282584914) rotate(407.42046088994675)"><path class="b-outline" fill="#A5ABB6" stroke="none" d="M 25 0.5 L 46.29473496515534 0.5 L 46.29473496515534 -0.5 L 25 -0.5 Z M 110.97442246515534 0.5 L 132.26915743031068 0.5 L 132.26915743031068 3.5 L 139.26915743031068 0 L 132.26915743031068 -3.5 L 132.26915743031068 -0.5 L 110.97442246515534 -0.5 Z"/><text text-anchor="middle" pointer-events="none" font-size="8px" fill="#000000" x="78.63457871515534" y="3" font-family="Helvetica Neue, Helvetica, Arial, sans-serif">IS_COMPOSED</text></g><g class="relationship" transform="translate(380.32108512857417 -121.82219344714102) rotate(376.3475459464886)"><path class="b-outline" fill="#A5ABB6" stroke="none" d="M 25 0.5 L 44.18326228846095 0.5 L 44.18326228846095 -0.5 L 25 -0.5 Z M 108.86294978846095 0.5 L 128.0462120769219 0.5 L 128.0462120769219 3.5 L 135.0462120769219 0 L 128.0462120769219 -3.5 L 128.0462120769219 -0.5 L 108.86294978846095 -0.5 Z"/><text text-anchor="middle" pointer-events="none" font-size="8px" fill="#000000" x="76.52310603846095" y="3" font-family="Helvetica Neue, Helvetica, Arial, sans-serif">IS_COMPOSED</text></g><g class="relationship" transform="translate(-106.43620539605826 41.15645411164445) rotate(411.7033418681723)"><path class="b-outline" fill="#A5ABB6" stroke="none" d="M 25 0.5 L 94.91228362571786 0.5 L 94.91228362571786 -0.5 L 25 -0.5 Z M 159.59197112571786 0.5 L 229.50425475143572 0.5 L 229.50425475143572 3.5 L 236.50425475143572 0 L 229.50425475143572 -3.5 L 229.50425475143572 -0.5 L 159.59197112571786 -0.5 Z"/><text text-anchor="middle" pointer-events="none" font-size="8px" fill="#000000" x="127.25212737571786" y="3" font-family="Helvetica Neue, Helvetica, Arial, sans-serif">IS_COMPOSED</text></g><g class="relationship" transform="translate(45.03571053833279 147.73808304651456) rotate(466.8814008434447)"><path class="b-outline" fill="#A5ABB6" stroke="none" d="M 25 0.5 L 55.21620696327453 0.5 L 55.21620696327453 -0.5 L 25 -0.5 Z M 119.89589446327453 0.5 L 150.11210142654906 0.5 L 150.11210142654906 3.5 L 157.11210142654906 0 L 150.11210142654906 -3.5 L 150.11210142654906 -0.5 L 119.89589446327453 -0.5 Z"/><text text-anchor="middle" pointer-events="none" font-size="8px" fill="#000000" x="87.55605071327453" y="3" transform="rotate(180 87.55605071327453 0)" font-family="Helvetica Neue, Helvetica, Arial, sans-serif">IS_COMPOSED</text></g><g class="relationship" transform="translate(45.03571053833279 147.73808304651456) rotate(413.35922964994955)"><path class="b-outline" fill="#A5ABB6" stroke="none" d="M 25 0.5 L 49.830375125677264 0.5 L 49.830375125677264 -0.5 L 25 -0.5 Z M 114.51006262567726 0.5 L 139.34043775135453 0.5 L 139.34043775135453 3.5 L 146.34043775135453 0 L 139.34043775135453 -3.5 L 139.34043775135453 -0.5 L 114.51006262567726 -0.5 Z"/><text text-anchor="middle" pointer-events="none" font-size="8px" fill="#000000" x="82.17021887567726" y="3" font-family="Helvetica Neue, Helvetica, Arial, sans-serif">IS_COMPOSED</text></g><g class="relationship" transform="translate(45.03571053833279 147.73808304651456) rotate(443.87226318660834)"><path class="b-outline" fill="#A5ABB6" stroke="none" d="M 25 0.5 L 27.10462976675411 0.5 L 27.10462976675411 -0.5 L 25 -0.5 Z M 65.1124422667541 0.5 L 67.21707203350822 0.5 L 67.21707203350822 3.5 L 74.21707203350822 0 L 67.21707203350822 -3.5 L 67.21707203350822 -0.5 L 65.1124422667541 -0.5 Z"/><text text-anchor="middle" pointer-events="none" font-size="8px" fill="#000000" x="46.10853601675411" y="3" font-family="Helvetica Neue, Helvetica, Arial, sans-serif">IS_CO…</text></g><g class="relationship" transform="translate(-11.541828241436818 67.4850317524281) rotate(460.1617751209369)"><path class="b-outline" fill="#A5ABB6" stroke="none" d="M 25 0.5 L 40.064192953777265 0.5 L 40.064192953777265 -0.5 L 25 -0.5 Z M 104.74388045377727 0.5 L 119.80807340755453 0.5 L 119.80807340755453 3.5 L 126.80807340755453 0 L 119.80807340755453 -3.5 L 119.80807340755453 -0.5 L 104.74388045377727 -0.5 Z"/><text text-anchor="middle" pointer-events="none" font-size="8px" fill="#000000" x="72.40403670377727" y="3" transform="rotate(180 72.40403670377727 0)" font-family="Helvetica Neue, Helvetica, Arial, sans-serif">IS_COMPOSED</text></g><g class="relationship" transform="translate(-11.541828241436818 67.4850317524281) rotate(385.0388932552301)"><path class="b-outline" fill="#A5ABB6" stroke="none" d="M 25 0.5 L 49.785559666882065 0.5 L 49.785559666882065 -0.5 L 25 -0.5 Z M 114.46524716688207 0.5 L 139.25080683376413 0.5 L 139.25080683376413 3.5 L 146.25080683376413 0 L 139.25080683376413 -3.5 L 139.25080683376413 -0.5 L 114.46524716688207 -0.5 Z"/><text text-anchor="middle" pointer-events="none" font-size="8px" fill="#000000" x="82.12540341688207" y="3" font-family="Helvetica Neue, Helvetica, Arial, sans-serif">IS_COMPOSED</text></g><g class="relationship" transform="translate(153.5818052677108 -148.78764187392048) rotate(397.17477059095205)"><path class="b-outline" fill="#A5ABB6" stroke="none" d="M 25 0.5 L 61.13979728618038 0.5 L 61.13979728618038 -0.5 L 25 -0.5 Z M 152.0343285361804 0.5 L 188.17412582236076 0.5 L 188.17412582236076 3.5 L 195.17412582236076 0 L 188.17412582236076 -3.5 L 188.17412582236076 -0.5 L 152.0343285361804 -0.5 Z"/><text text-anchor="middle" pointer-events="none" font-size="8px" fill="#000000" x="106.58706291118038" y="3" font-family="Helvetica Neue, Helvetica, Arial, sans-serif">HAS_UNITDEFINITION</text></g><g class="relationship" transform="translate(153.5818052677108 -148.78764187392048) rotate(366.78216659244845)"><path class="b-outline" fill="#A5ABB6" stroke="none" d="M 25 0.5 L 65.22129007301196 0.5 L 65.22129007301196 -0.5 L 25 -0.5 Z M 156.11582132301197 0.5 L 196.33711139602391 0.5 L 196.33711139602391 3.5 L 203.33711139602391 0 L 196.33711139602391 -3.5 L 196.33711139602391 -0.5 L 156.11582132301197 -0.5 Z"/><text text-anchor="middle" pointer-events="none" font-size="8px" fill="#000000" x="110.66855569801196" y="3" font-family="Helvetica Neue, Helvetica, Arial, sans-serif">HAS_UNITDEFINITION</text></g><g class="relationship" transform="translate(153.5818052677108 -148.78764187392048) rotate(503.8517366742995)"><path class="b-outline" fill="#A5ABB6" stroke="none" d="M 25 0.5 L 112.05593734726807 0.5 L 112.05593734726807 -0.5 L 25 -0.5 Z M 202.95046859726807 0.5 L 290.00640594453614 0.5 L 290.00640594453614 3.5 L 297.00640594453614 0 L 290.00640594453614 -3.5 L 290.00640594453614 -0.5 L 202.95046859726807 -0.5 Z"/><text text-anchor="middle" pointer-events="none" font-size="8px" fill="#000000" x="157.50320297226807" y="3" transform="rotate(180 157.50320297226807 0)" font-family="Helvetica Neue, Helvetica, Arial, sans-serif">HAS_UNITDEFINITION</text></g><g class="relationship" transform="translate(153.5818052677108 -148.78764187392048) rotate(470.1056382607286)"><path class="b-outline" fill="#A5ABB6" stroke="none" d="M 25 0.5 L 108.93699595653683 0.5 L 108.93699595653683 -0.5 L 25 -0.5 Z M 199.83152720653683 0.5 L 283.76852316307367 0.5 L 283.76852316307367 3.5 L 290.76852316307367 0 L 283.76852316307367 -3.5 L 283.76852316307367 -0.5 L 199.83152720653683 -0.5 Z"/><text text-anchor="middle" pointer-events="none" font-size="8px" fill="#000000" x="154.38426158153683" y="3" transform="rotate(180 154.38426158153683 0)" font-family="Helvetica Neue, Helvetica, Arial, sans-serif">HAS_UNITDEFINITION</text></g><g class="relationship" transform="translate(153.5818052677108 -148.78764187392048) rotate(487.3616414033629)"><path class="b-outline" fill="#A5ABB6" stroke="none" d="M 25 0.5 L 87.10390462056642 0.5 L 87.10390462056642 -0.5 L 25 -0.5 Z M 177.99843587056642 0.5 L 240.10234049113285 0.5 L 240.10234049113285 3.5 L 247.10234049113285 0 L 240.10234049113285 -3.5 L 240.10234049113285 -0.5 L 177.99843587056642 -0.5 Z"/><text text-anchor="middle" pointer-events="none" font-size="8px" fill="#000000" x="132.55117024556642" y="3" transform="rotate(180 132.55117024556642 0)" font-family="Helvetica Neue, Helvetica, Arial, sans-serif">HAS_UNITDEFINITION</text></g><g class="relationship" transform="translate(153.5818052677108 -148.78764187392048) rotate(259.6238498920797)"><path class="b-outline" fill="#A5ABB6" stroke="none" d="M 25 0.5 L 28.599378976690474 0.5 L 28.599378976690474 -0.5 L 25 -0.5 Z M 90.17750397669047 0.5 L 93.77688295338095 0.5 L 93.77688295338095 3.5 L 100.77688295338095 0 L 93.77688295338095 -3.5 L 93.77688295338095 -0.5 L 90.17750397669047 -0.5 Z"/><text text-anchor="middle" pointer-events="none" font-size="8px" fill="#000000" x="59.388441476690474" y="3" transform="rotate(180 59.388441476690474 0)" font-family="Helvetica Neue, Helvetica, Arial, sans-serif">HAS_SPECIES</text></g><g class="relationship" transform="translate(153.5818052677108 -148.78764187392048) rotate(280.4740393093311)"><path class="b-outline" fill="#A5ABB6" stroke="none" d="M 25 0.5 L 68.36132929465046 0.5 L 68.36132929465046 -0.5 L 25 -0.5 Z M 129.93945429465046 0.5 L 173.30078358930092 0.5 L 173.30078358930092 3.5 L 180.30078358930092 0 L 173.30078358930092 -3.5 L 173.30078358930092 -0.5 L 129.93945429465046 -0.5 Z"/><text text-anchor="middle" pointer-events="none" font-size="8px" fill="#000000" x="99.15039179465046" y="3" font-family="Helvetica Neue, Helvetica, Arial, sans-serif">HAS_SPECIES</text></g><g class="relationship" transform="translate(153.5818052677108 -148.78764187392048) rotate(269.7149924306901)"><path class="b-outline" fill="#A5ABB6" stroke="none" d="M 25 0.5 L 112.29944037054054 0.5 L 112.29944037054054 -0.5 L 25 -0.5 Z M 173.87756537054054 0.5 L 261.1770057410811 0.5 L 261.1770057410811 3.5 L 268.1770057410811 0 L 261.1770057410811 -3.5 L 261.1770057410811 -0.5 L 173.87756537054054 -0.5 Z"/><text text-anchor="middle" pointer-events="none" font-size="8px" fill="#000000" x="143.08850287054054" y="3" transform="rotate(180 143.08850287054054 0)" font-family="Helvetica Neue, Helvetica, Arial, sans-serif">HAS_SPECIES</text></g><g class="relationship" transform="translate(153.5818052677108 -148.78764187392048) rotate(207.01607384416315)"><path class="b-outline" fill="#A5ABB6" stroke="none" d="M 25 0.5 L 25.849884157199313 0.5 L 25.849884157199313 -0.5 L 25 -0.5 Z M 66.08425915719931 0.5 L 66.93414331439863 0.5 L 66.93414331439863 3.5 L 73.93414331439863 0 L 66.93414331439863 -3.5 L 66.93414331439863 -0.5 L 66.08425915719931 -0.5 Z"/><text text-anchor="middle" pointer-events="none" font-size="8px" fill="#000000" x="45.96707165719931" y="3" transform="rotate(180 45.96707165719931 0)" font-family="Helvetica Neue, Helvetica, Arial, sans-serif">HAS_S…</text></g><g class="relationship" transform="translate(153.5818052677108 -148.78764187392048) rotate(228.40811762763053)"><path class="b-outline" fill="#A5ABB6" stroke="none" d="M 25 0.5 L 57.1477514405839 0.5 L 57.1477514405839 -0.5 L 25 -0.5 Z M 118.7258764405839 0.5 L 150.8736278811678 0.5 L 150.8736278811678 3.5 L 157.8736278811678 0 L 150.8736278811678 -3.5 L 150.8736278811678 -0.5 L 118.7258764405839 -0.5 Z"/><text text-anchor="middle" pointer-events="none" font-size="8px" fill="#000000" x="87.9368139405839" y="3" transform="rotate(180 87.9368139405839 0)" font-family="Helvetica Neue, Helvetica, Arial, sans-serif">HAS_SPECIES</text></g><g class="relationship" transform="translate(153.5818052677108 -148.78764187392048) rotate(419.17282190344247)"><path class="b-outline" fill="#A5ABB6" stroke="none" d="M 25 0.5 L 40.278918547346024 0.5 L 40.278918547346024 -0.5 L 25 -0.5 Z M 101.85704354734602 0.5 L 117.13596209469205 0.5 L 117.13596209469205 3.5 L 124.13596209469205 0 L 117.13596209469205 -3.5 L 117.13596209469205 -0.5 L 101.85704354734602 -0.5 Z"/><text text-anchor="middle" pointer-events="none" font-size="8px" fill="#000000" x="71.06798104734602" y="3" font-family="Helvetica Neue, Helvetica, Arial, sans-serif">HAS_SPECIES</text></g><g class="relationship" transform="translate(153.5818052677108 -148.78764187392048) rotate(379.08880959465387)"><path class="b-outline" fill="#A5ABB6" stroke="none" d="M 25 0.5 L 34.37242513088127 0.5 L 34.37242513088127 -0.5 L 25 -0.5 Z M 95.95055013088127 0.5 L 105.32297526176254 0.5 L 105.32297526176254 3.5 L 112.32297526176254 0 L 105.32297526176254 -3.5 L 105.32297526176254 -0.5 L 95.95055013088127 -0.5 Z"/><text text-anchor="middle" pointer-events="none" font-size="8px" fill="#000000" x="65.16148763088127" y="3" font-family="Helvetica Neue, Helvetica, Arial, sans-serif">HAS_SPECIES</text></g><g class="relationship" transform="translate(153.5818052677108 -148.78764187392048) rotate(254.52825877181766)"><path class="b-outline" fill="#A5ABB6" stroke="none" d="M 25 0.5 L 77.291859529208 0.5 L 77.291859529208 -0.5 L 25 -0.5 Z M 138.869984529208 0.5 L 191.161844058416 0.5 L 191.161844058416 3.5 L 198.161844058416 0 L 191.161844058416 -3.5 L 191.161844058416 -0.5 L 138.869984529208 -0.5 Z"/><text text-anchor="middle" pointer-events="none" font-size="8px" fill="#000000" x="108.080922029208" y="3" transform="rotate(180 108.080922029208 0)" font-family="Helvetica Neue, Helvetica, Arial, sans-serif">HAS_SPECIES</text></g><g class="relationship" transform="translate(130.92816747937104 -272.5076361368657) rotate(337.01274683167526)"><path class="b-outline" fill="#A5ABB6" stroke="none" d="M 25 0.5 L 42.31579078228515 0.5 L 42.31579078228515 -0.5 L 25 -0.5 Z M 122.69860328228515 0.5 L 140.0143940645703 0.5 L 140.0143940645703 3.5 L 147.0143940645703 0 L 140.0143940645703 -3.5 L 140.0143940645703 -0.5 L 122.69860328228515 -0.5 Z"/><text text-anchor="middle" pointer-events="none" font-size="8px" fill="#000000" x="82.50719703228515" y="3" font-family="Helvetica Neue, Helvetica, Arial, sans-serif">IN_COMPARTMENT</text></g><g class="relationship" transform="translate(190.90343358031814 -350.66757599932225) rotate(366.37051043366944)"><path class="b-outline" fill="#A5ABB6" stroke="none" d="M 25 0.5 L 26.77090119779806 0.5 L 26.77090119779806 -0.5 L 25 -0.5 Z M 65.22011994779805 0.5 L 66.99102114559612 0.5 L 66.99102114559612 3.5 L 73.99102114559612 0 L 66.99102114559612 -3.5 L 66.99102114559612 -0.5 L 65.22011994779805 -0.5 Z"/><text text-anchor="middle" pointer-events="none" font-size="8px" fill="#000000" x="45.99551057279806" y="3" font-family="Helvetica Neue, Helvetica, Arial, sans-serif">IN_CO…</text></g><g class="relationship" transform="translate(152.12345489872325 -441.9610204564704) rotate(396.71114538569776)"><path class="b-outline" fill="#A5ABB6" stroke="none" d="M 25 0.5 L 41.85599082542976 0.5 L 41.85599082542976 -0.5 L 25 -0.5 Z M 122.23880332542976 0.5 L 139.0947941508595 0.5 L 139.0947941508595 3.5 L 146.0947941508595 0 L 139.0947941508595 -3.5 L 139.0947941508595 -0.5 L 122.23880332542976 -0.5 Z"/><text text-anchor="middle" pointer-events="none" font-size="8px" fill="#000000" x="82.04739707542976" y="3" font-family="Helvetica Neue, Helvetica, Arial, sans-serif">IN_COMPARTMENT</text></g><g class="relationship" transform="translate(65.44344214519569 -193.72753127562726) rotate(326.8933627814951)"><path class="b-outline" fill="#A5ABB6" stroke="none" d="M 25 0.5 L 89.91947090570727 0.5 L 89.91947090570727 -0.5 L 25 -0.5 Z M 170.30228340570727 0.5 L 235.22175431141454 0.5 L 235.22175431141454 3.5 L 242.22175431141454 0 L 235.22175431141454 -3.5 L 235.22175431141454 -0.5 L 170.30228340570727 -0.5 Z"/><text text-anchor="middle" pointer-events="none" font-size="8px" fill="#000000" x="130.11087715570727" y="3" font-family="Helvetica Neue, Helvetica, Arial, sans-serif">IN_COMPARTMENT</text></g><g class="relationship" transform="translate(32.18658634267403 -285.5573921718655) rotate(367.3984634467548)"><path class="b-outline" fill="#A5ABB6" stroke="none" d="M 25 0.5 L 55.87613743359181 0.5 L 55.87613743359181 -0.5 L 25 -0.5 Z M 136.2589499335918 0.5 L 167.13508736718362 0.5 L 167.13508736718362 3.5 L 174.13508736718362 0 L 167.13508736718362 -3.5 L 167.13508736718362 -0.5 L 136.2589499335918 -0.5 Z"/><text text-anchor="middle" pointer-events="none" font-size="8px" fill="#000000" x="96.06754368359181" y="3" font-family="Helvetica Neue, Helvetica, Arial, sans-serif">IN_COMPARTMENT</text></g><g class="relationship" transform="translate(230.00656670454453 -20.722068712229326) rotate(297.3208934873112)"><path class="b-outline" fill="#A5ABB6" stroke="none" d="M 25 0.5 L 59.59617733669067 0.5 L 59.59617733669067 -0.5 L 25 -0.5 Z M 139.9789898366907 0.5 L 174.57516717338135 0.5 L 174.57516717338135 3.5 L 181.57516717338135 0 L 174.57516717338135 -3.5 L 174.57516717338135 -0.5 L 139.9789898366907 -0.5 Z"/><text text-anchor="middle" pointer-events="none" font-size="8px" fill="#000000" x="99.78758358669067" y="3" font-family="Helvetica Neue, Helvetica, Arial, sans-serif">IN_COMPARTMENT</text></g><g class="relationship" transform="translate(283.35377501849734 -103.87845125837292) rotate(292.44566268583577)"><path class="b-outline" fill="#A5ABB6" stroke="none" d="M 25 0.5 L 25.576809671168533 0.5 L 25.576809671168533 -0.5 L 25 -0.5 Z M 76.02602842116853 0.5 L 76.60283809233707 0.5 L 76.60283809233707 3.5 L 83.60283809233707 0 L 76.60283809233707 -3.5 L 76.60283809233707 -0.5 L 76.02602842116853 -0.5 Z"/><text text-anchor="middle" pointer-events="none" font-size="8px" fill="#000000" x="50.80141904616853" y="3" font-family="Helvetica Neue, Helvetica, Arial, sans-serif">IN_COMP…</text></g><g class="relationship" transform="translate(94.05046602459477 -363.8625783297377) rotate(367.05990468384346)"><path class="b-outline" fill="#A5ABB6" stroke="none" d="M 25 0.5 L 54.670724138215334 0.5 L 54.670724138215334 -0.5 L 25 -0.5 Z M 135.05353663821535 0.5 L 164.72426077643067 0.5 L 164.72426077643067 3.5 L 171.72426077643067 0 L 164.72426077643067 -3.5 L 164.72426077643067 -0.5 L 135.05353663821535 -0.5 Z"/><text text-anchor="middle" pointer-events="none" font-size="8px" fill="#000000" x="94.86213038821533" y="3" font-family="Helvetica Neue, Helvetica, Arial, sans-serif">IN_COMPARTMENT</text></g><g class="relationship" transform="translate(153.5818052677108 -148.78764187392048) rotate(239.577556291537)"><path class="b-outline" fill="#A5ABB6" stroke="none" d="M 25 0.5 L 111.35056620163297 0.5 L 111.35056620163297 -0.5 L 25 -0.5 Z M 179.58494120163297 0.5 L 265.93550740326594 0.5 L 265.93550740326594 3.5 L 272.93550740326594 0 L 265.93550740326594 -3.5 L 265.93550740326594 -0.5 L 179.58494120163297 -0.5 Z"/><text text-anchor="middle" pointer-events="none" font-size="8px" fill="#000000" x="145.46775370163297" y="3" transform="rotate(180 145.46775370163297 0)" font-family="Helvetica Neue, Helvetica, Arial, sans-serif">HAS_REACTION</text></g><g class="relationship" transform="translate(153.5818052677108 -148.78764187392048) rotate(220.29812083631435)"><path class="b-outline" fill="#A5ABB6" stroke="none" d="M 25 0.5 L 100.66137556775854 0.5 L 100.66137556775854 -0.5 L 25 -0.5 Z M 168.89575056775854 0.5 L 244.55712613551708 0.5 L 244.55712613551708 3.5 L 251.55712613551708 0 L 244.55712613551708 -3.5 L 244.55712613551708 -0.5 L 168.89575056775854 -0.5 Z"/><text text-anchor="middle" pointer-events="none" font-size="8px" fill="#000000" x="134.77856306775854" y="3" transform="rotate(180 134.77856306775854 0)" font-family="Helvetica Neue, Helvetica, Arial, sans-serif">HAS_REACTION</text></g><g class="relationship" transform="translate(153.5818052677108 -148.78764187392048) rotate(185.70364713399954)"><path class="b-outline" fill="#A5ABB6" stroke="none" d="M 25 0.5 L 91.63009018510141 0.5 L 91.63009018510141 -0.5 L 25 -0.5 Z M 159.8644651851014 0.5 L 226.49455537020282 0.5 L 226.49455537020282 3.5 L 233.49455537020282 0 L 226.49455537020282 -3.5 L 226.49455537020282 -0.5 L 159.8644651851014 -0.5 Z"/><text text-anchor="middle" pointer-events="none" font-size="8px" fill="#000000" x="125.74727768510141" y="3" transform="rotate(180 125.74727768510141 0)" font-family="Helvetica Neue, Helvetica, Arial, sans-serif">HAS_REACTION</text></g><g class="relationship" transform="translate(153.5818052677108 -148.78764187392048) rotate(532.9908561047721)"><path class="b-outline" fill="#A5ABB6" stroke="none" d="M 25 0.5 L 47.96617797918388 0.5 L 47.96617797918388 -0.5 L 25 -0.5 Z M 116.20055297918388 0.5 L 139.16673095836776 0.5 L 139.16673095836776 3.5 L 146.16673095836776 0 L 139.16673095836776 -3.5 L 139.16673095836776 -0.5 L 116.20055297918388 -0.5 Z"/><text text-anchor="middle" pointer-events="none" font-size="8px" fill="#000000" x="82.08336547918388" y="3" transform="rotate(180 82.08336547918388 0)" font-family="Helvetica Neue, Helvetica, Arial, sans-serif">HAS_REACTION</text></g><g class="relationship" transform="translate(2.7157297929913975 -405.7020125161595) rotate(512.6770248162461)"><path class="b-outline" fill="#A5ABB6" stroke="none" d="M 25 0.5 L 65.67722327202281 0.5 L 65.67722327202281 -0.5 L 25 -0.5 Z M 144.29050452202281 0.5 L 184.96772779404563 0.5 L 184.96772779404563 3.5 L 191.96772779404563 0 L 184.96772779404563 -3.5 L 184.96772779404563 -0.5 L 144.29050452202281 -0.5 Z"/><text text-anchor="middle" pointer-events="none" font-size="8px" fill="#000000" x="104.98386389702281" y="3" transform="rotate(180 104.98386389702281 0)" font-family="Helvetica Neue, Helvetica, Arial, sans-serif">HAS_KENETICLAW</text></g><g class="relationship" transform="translate(-57.3454227213816 -327.6550466998802) rotate(499.2867972804904)"><path class="b-outline" fill="#A5ABB6" stroke="none" d="M 25 0.5 L 49.667168866115404 0.5 L 49.667168866115404 -0.5 L 25 -0.5 Z M 128.2804501161154 0.5 L 152.9476189822308 0.5 L 152.9476189822308 3.5 L 159.9476189822308 0 L 152.9476189822308 -3.5 L 152.9476189822308 -0.5 L 128.2804501161154 -0.5 Z"/><text text-anchor="middle" pointer-events="none" font-size="8px" fill="#000000" x="88.9738094911154" y="3" transform="rotate(180 88.9738094911154 0)" font-family="Helvetica Neue, Helvetica, Arial, sans-serif">HAS_KENETICLAW</text></g><g class="relationship" transform="translate(-103.63300709594537 -174.477629354805) rotate(503.06355464509596)"><path class="b-outline" fill="#A5ABB6" stroke="none" d="M 25 0.5 L 123.882990379874 0.5 L 123.882990379874 -0.5 L 25 -0.5 Z M 202.496271629874 0.5 L 301.379262009748 0.5 L 301.379262009748 3.5 L 308.379262009748 0 L 301.379262009748 -3.5 L 301.379262009748 -0.5 L 202.496271629874 -0.5 Z"/><text text-anchor="middle" pointer-events="none" font-size="8px" fill="#000000" x="163.189631004874" y="3" transform="rotate(180 163.189631004874 0)" font-family="Helvetica Neue, Helvetica, Arial, sans-serif">HAS_KENETICLAW</text></g><g class="relationship" transform="translate(-16.305743604316223 -127.90055195624937) rotate(505.2071786730899)"><path class="b-outline" fill="#A5ABB6" stroke="none" d="M 25 0.5 L 65.23598824320852 0.5 L 65.23598824320852 -0.5 L 25 -0.5 Z M 143.8492694932085 0.5 L 184.08525773641705 0.5 L 184.08525773641705 3.5 L 191.08525773641705 0 L 184.08525773641705 -3.5 L 184.08525773641705 -0.5 L 143.8492694932085 -0.5 Z"/><text text-anchor="middle" pointer-events="none" font-size="8px" fill="#000000" x="104.54262886820852" y="3" transform="rotate(180 104.54262886820852 0)" font-family="Helvetica Neue, Helvetica, Arial, sans-serif">HAS_KENETICLAW</text></g><g class="relationship" transform="translate(94.05046602459477 -363.8625783297377) rotate(204.61199276599518)"><path class="b-outline" fill="#A5ABB6" stroke="none" d="M 25 0.5 L 25.502381976815975 0.5 L 25.502381976815975 -0.5 L 25 -0.5 Z M 67.95941322681597 0.5 L 68.46179520363195 0.5 L 68.46179520363195 3.5 L 75.46179520363195 0 L 68.46179520363195 -3.5 L 68.46179520363195 -0.5 L 67.95941322681597 -0.5 Z"/><text text-anchor="middle" pointer-events="none" font-size="8px" fill="#000000" x="46.730897601815975" y="3" transform="rotate(180 46.730897601815975 0)" font-family="Helvetica Neue, Helvetica, Arial, sans-serif">IS_REA…</text></g><g class="relationship" transform="translate(65.44344214519569 -193.72753127562726) rotate(253.51540516102858)"><path class="b-outline" fill="#A5ABB6" stroke="none" d="M 25 0.5 L 76.76485336924172 0.5 L 76.76485336924172 -0.5 L 25 -0.5 Z M 137.29610336924173 0.5 L 189.06095673848344 0.5 L 189.06095673848344 3.5 L 196.06095673848344 0 L 189.06095673848344 -3.5 L 189.06095673848344 -0.5 L 137.29610336924173 -0.5 Z"/><text text-anchor="middle" pointer-events="none" font-size="8px" fill="#000000" x="107.03047836924172" y="3" transform="rotate(180 107.03047836924172 0)" font-family="Helvetica Neue, Helvetica, Arial, sans-serif">IS_REACTANT</text></g><g class="relationship" transform="translate(65.44344214519569 -193.72753127562726) rotate(227.48444461244281)"><path class="b-outline" fill="#A5ABB6" stroke="none" d="M 25 0.5 L 57.082716650984594 0.5 L 57.082716650984594 -0.5 L 25 -0.5 Z M 117.6139666509846 0.5 L 149.6966833019692 0.5 L 149.6966833019692 3.5 L 156.6966833019692 0 L 149.6966833019692 -3.5 L 149.6966833019692 -0.5 L 117.6139666509846 -0.5 Z"/><text text-anchor="middle" pointer-events="none" font-size="8px" fill="#000000" x="87.3483416509846" y="3" transform="rotate(180 87.3483416509846 0)" font-family="Helvetica Neue, Helvetica, Arial, sans-serif">IS_REACTANT</text></g><g class="relationship" transform="translate(190.90343358031814 -350.66757599932225) rotate(534.7038491391277)"><path class="b-outline" fill="#A5ABB6" stroke="none" d="M 25 0.5 L 90.89097446414755 0.5 L 90.89097446414755 -0.5 L 25 -0.5 Z M 151.42222446414755 0.5 L 217.3131989282951 0.5 L 217.3131989282951 3.5 L 224.3131989282951 0 L 217.3131989282951 -3.5 L 217.3131989282951 -0.5 L 151.42222446414755 -0.5 Z"/><text text-anchor="middle" pointer-events="none" font-size="8px" fill="#000000" x="121.15659946414755" y="3" transform="rotate(180 121.15659946414755 0)" font-family="Helvetica Neue, Helvetica, Arial, sans-serif">IS_REACTANT</text></g><g class="relationship" transform="translate(65.44344214519569 -193.72753127562726) rotate(533.5046587980237)"><path class="b-outline" fill="#A5ABB6" stroke="none" d="M 25 0.5 L 51.31875137421078 0.5 L 51.31875137421078 -0.5 L 25 -0.5 Z M 111.85000137421078 0.5 L 138.16875274842155 0.5 L 138.16875274842155 3.5 L 145.16875274842155 0 L 138.16875274842155 -3.5 L 138.16875274842155 -0.5 L 111.85000137421078 -0.5 Z"/><text text-anchor="middle" pointer-events="none" font-size="8px" fill="#000000" x="81.58437637421078" y="3" transform="rotate(180 81.58437637421078 0)" font-family="Helvetica Neue, Helvetica, Arial, sans-serif">IS_REACTANT</text></g><g class="relationship" transform="translate(32.18658634267403 -285.5573921718655) rotate(467.09692990789347)"><path class="b-outline" fill="#A5ABB6" stroke="none" d="M 25 0.5 L 48.70737865947041 0.5 L 48.70737865947041 -0.5 L 25 -0.5 Z M 109.23862865947041 0.5 L 132.94600731894081 0.5 L 132.94600731894081 3.5 L 139.94600731894081 0 L 132.94600731894081 -3.5 L 132.94600731894081 -0.5 L 109.23862865947041 -0.5 Z"/><text text-anchor="middle" pointer-events="none" font-size="8px" fill="#000000" x="78.97300365947041" y="3" transform="rotate(180 78.97300365947041 0)" font-family="Helvetica Neue, Helvetica, Arial, sans-serif">IS_REACTANT</text></g><g class="relationship" transform="translate(2.7157297929913975 -405.7020125161595) rotate(406.0918212301544)"><path class="b-outline" fill="#A5ABB6" stroke="none" d="M 25 0.5 L 55.71148577633582 0.5 L 55.71148577633582 -0.5 L 25 -0.5 Z M 122.16461077633582 0.5 L 152.87609655267164 0.5 L 152.87609655267164 3.5 L 159.87609655267164 0 L 152.87609655267164 -3.5 L 152.87609655267164 -0.5 L 122.16461077633582 -0.5 Z"/><text text-anchor="middle" pointer-events="none" font-size="8px" fill="#000000" x="88.93804827633582" y="3" font-family="Helvetica Neue, Helvetica, Arial, sans-serif">HAS_PRODUCT</text></g><g class="relationship" transform="translate(-57.3454227213816 -327.6550466998802) rotate(331.3789540899257)"><path class="b-outline" fill="#A5ABB6" stroke="none" d="M 25 0.5 L 82.58716924101624 0.5 L 82.58716924101624 -0.5 L 25 -0.5 Z M 149.04029424101623 0.5 L 206.62746348203248 0.5 L 206.62746348203248 3.5 L 213.62746348203248 0 L 206.62746348203248 -3.5 L 206.62746348203248 -0.5 L 149.04029424101623 -0.5 Z"/><text text-anchor="middle" pointer-events="none" font-size="8px" fill="#000000" x="115.81373174101624" y="3" font-family="Helvetica Neue, Helvetica, Arial, sans-serif">HAS_PRODUCT</text></g><g class="relationship" transform="translate(-103.63300709594537 -174.477629354805) rotate(320.72205696382036)"><path class="b-outline" fill="#A5ABB6" stroke="none" d="M 25 0.5 L 51.00267388862686 0.5 L 51.00267388862686 -0.5 L 25 -0.5 Z M 117.45579888862686 0.5 L 143.45847277725372 0.5 L 143.45847277725372 3.5 L 150.45847277725372 0 L 143.45847277725372 -3.5 L 143.45847277725372 -0.5 L 117.45579888862686 -0.5 Z"/><text text-anchor="middle" pointer-events="none" font-size="8px" fill="#000000" x="84.22923638862686" y="3" font-family="Helvetica Neue, Helvetica, Arial, sans-serif">HAS_PRODUCT</text></g><g class="relationship" transform="translate(-16.305743604316223 -127.90055195624937) rotate(321.1579046203335)"><path class="b-outline" fill="#A5ABB6" stroke="none" d="M 25 0.5 L 25.972994883220053 0.5 L 25.972994883220053 -0.5 L 25 -0.5 Z M 71.98471363322005 0.5 L 72.9577085164401 0.5 L 72.9577085164401 3.5 L 79.9577085164401 0 L 72.9577085164401 -3.5 L 72.9577085164401 -0.5 L 71.98471363322005 -0.5 Z"/><text text-anchor="middle" pointer-events="none" font-size="8px" fill="#000000" x="48.97885425822005" y="3" font-family="Helvetica Neue, Helvetica, Arial, sans-serif">HAS_PR…</text></g><g class="relationship" transform="translate(-121.74277169786811 -73.12796027650856) rotate(412.94312780939646)"><path class="b-outline" fill="#A5ABB6" stroke="none" d="M 25 0.5 L 109.43148007590048 0.5 L 109.43148007590048 -0.5 L 25 -0.5 Z M 160.32991757590048 0.5 L 244.76139765180096 0.5 L 244.76139765180096 3.5 L 251.76139765180096 0 L 244.76139765180096 -3.5 L 244.76139765180096 -0.5 L 160.32991757590048 -0.5 Z"/><text text-anchor="middle" pointer-events="none" font-size="8px" fill="#000000" x="134.88069882590048" y="3" font-family="Helvetica Neue, Helvetica, Arial, sans-serif">HAS_UNITS</text></g><g class="relationship" transform="translate(-252.6054965318261 -124.87784344323606) rotate(408.6407292792207)"><path class="b-outline" fill="#A5ABB6" stroke="none" d="M 25 0.5 L 81.65463474940962 0.5 L 81.65463474940962 -0.5 L 25 -0.5 Z M 132.55307224940964 0.5 L 189.20770699881925 0.5 L 189.20770699881925 3.5 L 196.20770699881925 0 L 189.20770699881925 -3.5 L 189.20770699881925 -0.5 L 132.55307224940964 -0.5 Z"/><text text-anchor="middle" pointer-events="none" font-size="8px" fill="#000000" x="107.10385349940962" y="3" font-family="Helvetica Neue, Helvetica, Arial, sans-serif">HAS_UNITS</text></g><g class="relationship" transform="translate(-33.462632293248824 -29.53032807192296) rotate(426.1151860592745)"><path class="b-outline" fill="#A5ABB6" stroke="none" d="M 25 0.5 L 67.98642924360436 0.5 L 67.98642924360436 -0.5 L 25 -0.5 Z M 118.88486674360436 0.5 L 161.87129598720873 0.5 L 161.87129598720873 3.5 L 168.87129598720873 0 L 161.87129598720873 -3.5 L 161.87129598720873 -0.5 L 118.88486674360436 -0.5 Z"/><text text-anchor="middle" pointer-events="none" font-size="8px" fill="#000000" x="93.43564799360436" y="3" font-family="Helvetica Neue, Helvetica, Arial, sans-serif">HAS_UNITS</text></g><g class="relationship" transform="translate(-289.6685143088528 -32.61968740710569) rotate(381.9315492899217)"><path class="b-outline" fill="#A5ABB6" stroke="none" d="M 25 0.5 L 69.81438548621196 0.5 L 69.81438548621196 -0.5 L 25 -0.5 Z M 120.71282298621196 0.5 L 165.52720847242392 0.5 L 165.52720847242392 3.5 L 172.52720847242392 0 L 165.52720847242392 -3.5 L 165.52720847242392 -0.5 L 120.71282298621196 -0.5 Z"/><text text-anchor="middle" pointer-events="none" font-size="8px" fill="#000000" x="95.26360423621196" y="3" font-family="Helvetica Neue, Helvetica, Arial, sans-serif">HAS_UNITS</text></g><g class="relationship" transform="translate(-313.01767270151146 142.79947169045573) rotate(333.80171182168397)"><path class="b-outline" fill="#A5ABB6" stroke="none" d="M 25 0.5 L 86.16725015931871 0.5 L 86.16725015931871 -0.5 L 25 -0.5 Z M 137.0656876593187 0.5 L 198.23293781863742 0.5 L 198.23293781863742 3.5 L 205.23293781863742 0 L 198.23293781863742 -3.5 L 198.23293781863742 -0.5 L 137.0656876593187 -0.5 Z"/><text text-anchor="middle" pointer-events="none" font-size="8px" fill="#000000" x="111.61646890931871" y="3" font-family="Helvetica Neue, Helvetica, Arial, sans-serif">HAS_UNITS</text></g><g class="relationship" transform="translate(-227.98603771375542 87.80663194890738) rotate(354.6363144941449)"><path class="b-outline" fill="#A5ABB6" stroke="none" d="M 25 0.5 L 79.7488300464739 0.5 L 79.7488300464739 -0.5 L 25 -0.5 Z M 130.6472675464739 0.5 L 185.3960975929478 0.5 L 185.3960975929478 3.5 L 192.3960975929478 0 L 185.3960975929478 -3.5 L 185.3960975929478 -0.5 L 130.6472675464739 -0.5 Z"/><text text-anchor="middle" pointer-events="none" font-size="8px" fill="#000000" x="105.1980487964739" y="3" font-family="Helvetica Neue, Helvetica, Arial, sans-serif">HAS_UNITS</text></g><g class="relationship" transform="translate(-224.13267735034538 186.33363356072536) rotate(330.7926910920536)"><path class="b-outline" fill="#A5ABB6" stroke="none" d="M 25 0.5 L 92.82912423083745 0.5 L 92.82912423083745 -0.5 L 25 -0.5 Z M 143.72756173083746 0.5 L 211.5566859616749 0.5 L 211.5566859616749 3.5 L 218.5566859616749 0 L 211.5566859616749 -3.5 L 211.5566859616749 -0.5 L 143.72756173083746 -0.5 Z"/><text text-anchor="middle" pointer-events="none" font-size="8px" fill="#000000" x="118.27834298083745" y="3" font-family="Helvetica Neue, Helvetica, Arial, sans-serif">HAS_UNITS</text></g><g class="relationship" transform="translate(-136.00774138887044 233.85092981225975) rotate(334.56202480303)"><path class="b-outline" fill="#A5ABB6" stroke="none" d="M 25 0.5 L 71.2906858087862 0.5 L 71.2906858087862 -0.5 L 25 -0.5 Z M 122.1891233087862 0.5 L 168.4798091175724 0.5 L 168.4798091175724 3.5 L 175.4798091175724 0 L 168.4798091175724 -3.5 L 168.4798091175724 -0.5 L 122.1891233087862 -0.5 Z"/><text text-anchor="middle" pointer-events="none" font-size="8px" fill="#000000" x="96.7399045587862" y="3" font-family="Helvetica Neue, Helvetica, Arial, sans-serif">HAS_UNITS</text></g><g class="relationship" transform="translate(-139.15027045267135 135.35607645009566) rotate(331.9928483880814)"><path class="b-outline" fill="#A5ABB6" stroke="none" d="M 25 0.5 L 43.31832796346394 0.5 L 43.31832796346394 -0.5 L 25 -0.5 Z M 94.21676546346394 0.5 L 112.53509342692789 0.5 L 112.53509342692789 3.5 L 119.53509342692789 0 L 112.53509342692789 -3.5 L 112.53509342692789 -0.5 L 94.21676546346394 -0.5 Z"/><text text-anchor="middle" pointer-events="none" font-size="8px" fill="#000000" x="68.76754671346394" y="3" font-family="Helvetica Neue, Helvetica, Arial, sans-serif">HAS_UNITS</text></g><g class="relationship" transform="translate(-190.0456129183971 -306.1125569487466) rotate(433.6607294571385)"><path class="b-outline" fill="#A5ABB6" stroke="none" d="M 25 0.5 L 79.84824475911782 0.5 L 79.84824475911782 -0.5 L 25 -0.5 Z M 155.94199475911782 0.5 L 210.79023951823564 0.5 L 210.79023951823564 3.5 L 217.79023951823564 0 L 210.79023951823564 -3.5 L 210.79023951823564 -0.5 L 155.94199475911782 -0.5 Z"/><text text-anchor="middle" pointer-events="none" font-size="8px" fill="#000000" x="117.89511975911782" y="3" font-family="Helvetica Neue, Helvetica, Arial, sans-serif">HAS_PARAMETER</text></g><g class="relationship" transform="translate(-190.0456129183971 -306.1125569487466) rotate(469.0440131654184)"><path class="b-outline" fill="#A5ABB6" stroke="none" d="M 25 0.5 L 54.317300291333765 0.5 L 54.317300291333765 -0.5 L 25 -0.5 Z M 130.41105029133377 0.5 L 159.72835058266753 0.5 L 159.72835058266753 3.5 L 166.72835058266753 0 L 159.72835058266753 -3.5 L 159.72835058266753 -0.5 L 130.41105029133377 -0.5 Z"/><text text-anchor="middle" pointer-events="none" font-size="8px" fill="#000000" x="92.36417529133377" y="3" transform="rotate(180 92.36417529133377 0)" font-family="Helvetica Neue, Helvetica, Arial, sans-serif">HAS_PARAMETER</text></g><g class="relationship" transform="translate(-197.53276844523822 -207.01869286698152) rotate(407.2497250812315)"><path class="b-outline" fill="#A5ABB6" stroke="none" d="M 25 0.5 L 79.30544108719393 0.5 L 79.30544108719393 -0.5 L 25 -0.5 Z M 155.3991910871939 0.5 L 209.70463217438785 0.5 L 209.70463217438785 3.5 L 216.70463217438785 0 L 209.70463217438785 -3.5 L 209.70463217438785 -0.5 L 155.3991910871939 -0.5 Z"/><text text-anchor="middle" pointer-events="none" font-size="8px" fill="#000000" x="117.35231608719393" y="3" font-family="Helvetica Neue, Helvetica, Arial, sans-serif">HAS_PARAMETER</text></g><g class="relationship" transform="translate(-197.53276844523822 -207.01869286698152) rotate(477.8476867064228)"><path class="b-outline" fill="#A5ABB6" stroke="none" d="M 25 0.5 L 57.07362080492685 0.5 L 57.07362080492685 -0.5 L 25 -0.5 Z M 133.16737080492686 0.5 L 165.2409916098537 0.5 L 165.2409916098537 3.5 L 172.2409916098537 0 L 165.2409916098537 -3.5 L 165.2409916098537 -0.5 L 133.16737080492686 -0.5 Z"/><text text-anchor="middle" pointer-events="none" font-size="8px" fill="#000000" x="95.12049580492685" y="3" transform="rotate(180 95.12049580492685 0)" font-family="Helvetica Neue, Helvetica, Arial, sans-serif">HAS_PARAMETER</text></g><g class="relationship" transform="translate(-370.10390952721855 25.85956263816244) rotate(423.9798838240431)"><path class="b-outline" fill="#A5ABB6" stroke="none" d="M 25 0.5 L 25.074696202230584 0.5 L 25.074696202230584 -0.5 L 25 -0.5 Z M 98.05516495223058 0.5 L 98.12986115446117 0.5 L 98.12986115446117 3.5 L 105.12986115446117 0 L 98.12986115446117 -3.5 L 98.12986115446117 -0.5 L 98.05516495223058 -0.5 Z"/><text text-anchor="middle" pointer-events="none" font-size="8px" fill="#000000" x="61.564930577230584" y="3" font-family="Helvetica Neue, Helvetica, Arial, sans-serif">HAS_PARAMET…</text></g><g class="relationship" transform="translate(-370.10390952721855 25.85956263816244) rotate(383.55167194510955)"><path class="b-outline" fill="#A5ABB6" stroke="none" d="M 25 0.5 L 35.96913767637896 0.5 L 35.96913767637896 -0.5 L 25 -0.5 Z M 112.06288767637896 0.5 L 123.03202535275793 0.5 L 123.03202535275793 3.5 L 130.03202535275793 0 L 123.03202535275793 -3.5 L 123.03202535275793 -0.5 L 112.06288767637896 -0.5 Z"/><text text-anchor="middle" pointer-events="none" font-size="8px" fill="#000000" x="74.01601267637896" y="3" font-family="Helvetica Neue, Helvetica, Arial, sans-serif">HAS_PARAMETER</text></g><g class="relationship" transform="translate(-370.10390952721855 25.85956263816244) rotate(407.7095599108757)"><path class="b-outline" fill="#A5ABB6" stroke="none" d="M 25 0.5 L 66.91916583962681 0.5 L 66.91916583962681 -0.5 L 25 -0.5 Z M 143.01291583962683 0.5 L 184.93208167925363 0.5 L 184.93208167925363 3.5 L 191.93208167925363 0 L 184.93208167925363 -3.5 L 184.93208167925363 -0.5 L 143.01291583962683 -0.5 Z"/><text text-anchor="middle" pointer-events="none" font-size="8px" fill="#000000" x="104.96604083962681" y="3" font-family="Helvetica Neue, Helvetica, Arial, sans-serif">HAS_PARAMETER</text></g><g class="relationship" transform="translate(-193.7594320021164 -4.599996057136603) rotate(436.3853957708933)"><path class="b-outline" fill="#A5ABB6" stroke="none" d="M 25 0.5 L 81.1255565164785 0.5 L 81.1255565164785 -0.5 L 25 -0.5 Z M 157.2193065164785 0.5 L 213.344863032957 0.5 L 213.344863032957 3.5 L 220.344863032957 0 L 213.344863032957 -3.5 L 213.344863032957 -0.5 L 157.2193065164785 -0.5 Z"/><text text-anchor="middle" pointer-events="none" font-size="8px" fill="#000000" x="119.1724315164785" y="3" font-family="Helvetica Neue, Helvetica, Arial, sans-serif">HAS_PARAMETER</text></g><g class="relationship" transform="translate(-193.7594320021164 -4.599996057136603) rotate(428.68487399815535)"><path class="b-outline" fill="#A5ABB6" stroke="none" d="M 25 0.5 L 33.56947268274986 0.5 L 33.56947268274986 -0.5 L 25 -0.5 Z M 109.66322268274986 0.5 L 118.23269536549972 0.5 L 118.23269536549972 3.5 L 125.23269536549972 0 L 118.23269536549972 -3.5 L 118.23269536549972 -0.5 L 109.66322268274986 -0.5 Z"/><text text-anchor="middle" pointer-events="none" font-size="8px" fill="#000000" x="71.61634768274986" y="3" font-family="Helvetica Neue, Helvetica, Arial, sans-serif">HAS_PARAMETER</text></g></g><g class="layer nodes"><g class="node" aria-label="graph-node0" transform="translate(329.01568293321196,-15.747797282584914)"><circle class="b-outline" cx="0" cy="0" r="25" fill="#D9C8AE" stroke="#c0a378" stroke-width="2px"/><text class="caption" text-anchor="middle" pointer-events="none" x="0" y="5" font-size="10px" fill="#2A2C34" font-family="Helvetica Neue, Helvetica, Arial, sans-serif"> substance</text></g><g class="node" aria-label="graph-node1" transform="translate(380.32108512857417,-121.82219344714102)"><circle class="b-outline" cx="0" cy="0" r="25" fill="#D9C8AE" stroke="#c0a378" stroke-width="2px"/><text class="caption" text-anchor="middle" pointer-events="none" x="0" y="5" font-size="10px" fill="#2A2C34" font-family="Helvetica Neue, Helvetica, Arial, sans-serif"> area</text></g><g class="node" aria-label="graph-node2" transform="translate(-106.43620539605826,41.15645411164445)"><circle class="b-outline" cx="0" cy="0" r="25" fill="#D9C8AE" stroke="#c0a378" stroke-width="2px"/><text class="caption" text-anchor="middle" pointer-events="none" x="0" y="5" font-size="10px" fill="#2A2C34" font-family="Helvetica Neue, Helvetica, Arial, sans-serif"> per_sec…</text></g><g class="node" aria-label="graph-node3" transform="translate(45.03571053833279,147.73808304651456)"><circle class="b-outline" cx="0" cy="0" r="25" fill="#D9C8AE" stroke="#c0a378" stroke-width="2px"/><text class="caption" text-anchor="middle" pointer-events="none" x="0" y="5" font-size="10px" fill="#2A2C34" font-family="Helvetica Neue, Helvetica, Arial, sans-serif"> litre_per…</text></g><g class="node" aria-label="graph-node4" transform="translate(-11.541828241436818,67.4850317524281)"><circle class="b-outline" cx="0" cy="0" r="25" fill="#D9C8AE" stroke="#c0a378" stroke-width="2px"/><text class="caption" text-anchor="middle" pointer-events="none" x="0" y="5" font-size="10px" fill="#2A2C34" font-family="Helvetica Neue, Helvetica, Arial, sans-serif"> subs_pe…</text></g><g class="node" aria-label="graph-node5" transform="translate(229.66379765072867,-259.91496571238616)"><circle class="b-outline" cx="0" cy="0" r="25" fill="#F79767" stroke="#f36924" stroke-width="2px"/><text class="caption" text-anchor="middle" pointer-events="none" x="0" y="5" font-size="10px" fill="#FFFFFF" font-family="Helvetica Neue, Helvetica, Arial, sans-serif"> Extracell…</text></g><g class="node" aria-label="graph-node6" transform="translate(324.8191080918864,-204.25375994942146)"><circle class="b-outline" cx="0" cy="0" r="25" fill="#F79767" stroke="#f36924" stroke-width="2px"/><text class="caption" text-anchor="middle" pointer-events="none" x="0" y="5" font-size="10px" fill="#FFFFFF" font-family="Helvetica Neue, Helvetica, Arial, sans-serif"> Plasma…</text></g><g class="node" aria-label="graph-node7" transform="translate(289.2832009572688,-339.6837862023105)"><circle class="b-outline" cx="0" cy="0" r="25" fill="#F79767" stroke="#f36924" stroke-width="2px"/><text class="caption" text-anchor="middle" pointer-events="none" x="0" y="5" font-size="10px" fill="#FFFFFF" font-family="Helvetica Neue, Helvetica, Arial, sans-serif"> Cytosol</text></g><g class="node" aria-label="graph-node8" transform="translate(153.5818052677108,-148.78764187392048)"><circle class="b-outline" cx="0" cy="0" r="25" fill="#57C7E3" stroke="#23b3d7" stroke-width="2px"/><text class="caption" text-anchor="middle" pointer-events="none" x="0" y="5" font-size="10px" fill="#2A2C34" font-family="Helvetica Neue, Helvetica, Arial, sans-serif"> facilitate…</text></g><g class="node" aria-label="graph-node9" transform="translate(440.16234003701965,105.20995028867564)"><circle class="b-outline" cx="0" cy="0" r="25" fill="#F16667" stroke="#eb2728" stroke-width="2px"/><text class="caption" text-anchor="middle" pointer-events="none" x="0" y="5" font-size="10px" fill="#FFFFFF" font-family="Helvetica Neue, Helvetica, Arial, sans-serif"> 36346b4…</text></g><g class="node" aria-label="graph-node10" transform="translate(533.896957737404,-76.77509195761641)"><circle class="b-outline" cx="0" cy="0" r="25" fill="#F16667" stroke="#eb2728" stroke-width="2px"/><text class="caption" text-anchor="middle" pointer-events="none" x="0" y="5" font-size="10px" fill="#FFFFFF" font-family="Helvetica Neue, Helvetica, Arial, sans-serif"> d9307d3…</text></g><g class="node" aria-label="graph-node11" transform="translate(55.62667822534679,246.38826696096544)"><circle class="b-outline" cx="0" cy="0" r="25" fill="#F16667" stroke="#eb2728" stroke-width="2px"/><text class="caption" text-anchor="middle" pointer-events="none" x="0" y="5" font-size="10px" fill="#FFFFFF" font-family="Helvetica Neue, Helvetica, Arial, sans-serif"> e97d363…</text></g><g class="node" aria-label="graph-node12" transform="translate(-7.848110476144073,322.0025916559915)"><circle class="b-outline" cx="0" cy="0" r="25" fill="#F16667" stroke="#eb2728" stroke-width="2px"/><text class="caption" text-anchor="middle" pointer-events="none" x="0" y="5" font-size="10px" fill="#FFFFFF" font-family="Helvetica Neue, Helvetica, Arial, sans-serif"> 9080569…</text></g><g class="node" aria-label="graph-node13" transform="translate(147.29099676411636,285.2204529988429)"><circle class="b-outline" cx="0" cy="0" r="25" fill="#F16667" stroke="#eb2728" stroke-width="2px"/><text class="caption" text-anchor="middle" pointer-events="none" x="0" y="5" font-size="10px" fill="#FFFFFF" font-family="Helvetica Neue, Helvetica, Arial, sans-serif"> b871e8f…</text></g><g class="node" aria-label="graph-node14" transform="translate(-38.32503741759912,216.911772525087)"><circle class="b-outline" cx="0" cy="0" r="25" fill="#F16667" stroke="#eb2728" stroke-width="2px"/><text class="caption" text-anchor="middle" pointer-events="none" x="0" y="5" font-size="10px" fill="#FFFFFF" font-family="Helvetica Neue, Helvetica, Arial, sans-serif"> 9903029…</text></g><g class="node" aria-label="graph-node15" transform="translate(143.61494738170327,139.96408955153137)"><circle class="b-outline" cx="0" cy="0" r="25" fill="#F16667" stroke="#eb2728" stroke-width="2px"/><text class="caption" text-anchor="middle" pointer-events="none" x="0" y="5" font-size="10px" fill="#FFFFFF" font-family="Helvetica Neue, Helvetica, Arial, sans-serif"> 1c22729…</text></g><g class="node" aria-label="graph-node16" transform="translate(130.92816747937104,-272.5076361368657)"><circle class="b-outline" cx="0" cy="0" r="25" fill="#ECB5C9" stroke="#da7298" stroke-width="2px"/><text class="caption" text-anchor="middle" pointer-events="none" x="0" y="5" font-size="10px" fill="#2A2C34" font-family="Helvetica Neue, Helvetica, Arial, sans-serif"> CaBPB_C</text></g><g class="node" aria-label="graph-node17" transform="translate(190.90343358031814,-350.66757599932225)"><circle class="b-outline" cx="0" cy="0" r="25" fill="#ECB5C9" stroke="#da7298" stroke-width="2px"/><text class="caption" text-anchor="middle" pointer-events="none" x="0" y="5" font-size="10px" fill="#2A2C34" font-family="Helvetica Neue, Helvetica, Arial, sans-serif"> B_C</text></g><g class="node" aria-label="graph-node18" transform="translate(152.12345489872325,-441.9610204564704)"><circle class="b-outline" cx="0" cy="0" r="25" fill="#ECB5C9" stroke="#da7298" stroke-width="2px"/><text class="caption" text-anchor="middle" pointer-events="none" x="0" y="5" font-size="10px" fill="#2A2C34" font-family="Helvetica Neue, Helvetica, Arial, sans-serif"> CaB_C</text></g><g class="node" aria-label="graph-node19" transform="translate(65.44344214519569,-193.72753127562726)"><circle class="b-outline" cx="0" cy="0" r="25" fill="#ECB5C9" stroke="#da7298" stroke-width="2px"/><text class="caption" text-anchor="middle" pointer-events="none" x="0" y="5" font-size="10px" fill="#2A2C34" font-family="Helvetica Neue, Helvetica, Arial, sans-serif"> Ca_C</text></g><g class="node" aria-label="graph-node20" transform="translate(32.18658634267403,-285.5573921718655)"><circle class="b-outline" cx="0" cy="0" r="25" fill="#ECB5C9" stroke="#da7298" stroke-width="2px"/><text class="caption" text-anchor="middle" pointer-events="none" x="0" y="5" font-size="10px" fill="#2A2C34" font-family="Helvetica Neue, Helvetica, Arial, sans-serif"> Ca_EC</text></g><g class="node" aria-label="graph-node21" transform="translate(230.00656670454453,-20.722068712229326)"><circle class="b-outline" cx="0" cy="0" r="25" fill="#ECB5C9" stroke="#da7298" stroke-width="2px"/><text class="caption" text-anchor="middle" pointer-events="none" x="0" y="5" font-size="10px" fill="#2A2C34" font-family="Helvetica Neue, Helvetica, Arial, sans-serif"> CaCh_PM</text></g><g class="node" aria-label="graph-node22" transform="translate(283.35377501849734,-103.87845125837292)"><circle class="b-outline" cx="0" cy="0" r="25" fill="#ECB5C9" stroke="#da7298" stroke-width="2px"/><text class="caption" text-anchor="middle" pointer-events="none" x="0" y="5" font-size="10px" fill="#2A2C34" font-family="Helvetica Neue, Helvetica, Arial, sans-serif"> CaPump…</text></g><g class="node" aria-label="graph-node23" transform="translate(94.05046602459477,-363.8625783297377)"><circle class="b-outline" cx="0" cy="0" r="25" fill="#ECB5C9" stroke="#da7298" stroke-width="2px"/><text class="caption" text-anchor="middle" pointer-events="none" x="0" y="5" font-size="10px" fill="#2A2C34" font-family="Helvetica Neue, Helvetica, Arial, sans-serif"> CaBP_C</text></g><g class="node" aria-label="graph-node24" transform="translate(2.7157297929913975,-405.7020125161595)"><circle class="b-outline" cx="0" cy="0" r="25" fill="#4C8EDA" stroke="#2870c2" stroke-width="2px"/><text class="caption" text-anchor="middle" pointer-events="none" x="0" y="5" font-size="10px" fill="#FFFFFF" font-family="Helvetica Neue, Helvetica, Arial, sans-serif"> Calcium…</text></g><g class="node" aria-label="graph-node25" transform="translate(-57.3454227213816,-327.6550466998802)"><circle class="b-outline" cx="0" cy="0" r="25" fill="#4C8EDA" stroke="#2870c2" stroke-width="2px"/><text class="caption" text-anchor="middle" pointer-events="none" x="0" y="5" font-size="10px" fill="#FFFFFF" font-family="Helvetica Neue, Helvetica, Arial, sans-serif"> Calcium…</text></g><g class="node" aria-label="graph-node26" transform="translate(-103.63300709594537,-174.477629354805)"><circle class="b-outline" cx="0" cy="0" r="25" fill="#4C8EDA" stroke="#2870c2" stroke-width="2px"/><text class="caption" text-anchor="middle" pointer-events="none" x="0" y="5" font-size="10px" fill="#FFFFFF" font-family="Helvetica Neue, Helvetica, Arial, sans-serif"> Ca_Pump</text></g><g class="node" aria-label="graph-node27" transform="translate(-16.305743604316223,-127.90055195624937)"><circle class="b-outline" cx="0" cy="0" r="25" fill="#4C8EDA" stroke="#2870c2" stroke-width="2px"/><text class="caption" text-anchor="middle" pointer-events="none" x="0" y="5" font-size="10px" fill="#FFFFFF" font-family="Helvetica Neue, Helvetica, Arial, sans-serif"> Ca_cha…</text></g><g class="node" aria-label="graph-node28" transform="translate(-190.0456129183971,-306.1125569487466)"><circle class="b-outline" cx="0" cy="0" r="25" fill="#FFC454" stroke="#d7a013" stroke-width="2px"/><text class="caption" text-anchor="middle" pointer-events="none" x="0" y="5" font-size="10px" fill="#2A2C34" font-family="Helvetica Neue, Helvetica, Arial, sans-serif"> 405ce0a…</text></g><g class="node" aria-label="graph-node29" transform="translate(-197.53276844523822,-207.01869286698152)"><circle class="b-outline" cx="0" cy="0" r="25" fill="#FFC454" stroke="#d7a013" stroke-width="2px"/><text class="caption" text-anchor="middle" pointer-events="none" x="0" y="5" font-size="10px" fill="#2A2C34" font-family="Helvetica Neue, Helvetica, Arial, sans-serif"> 85fc1be…</text></g><g class="node" aria-label="graph-node30" transform="translate(-370.10390952721855,25.85956263816244)"><circle class="b-outline" cx="0" cy="0" r="25" fill="#FFC454" stroke="#d7a013" stroke-width="2px"/><text class="caption" text-anchor="middle" pointer-events="none" x="0" y="5" font-size="10px" fill="#2A2C34" font-family="Helvetica Neue, Helvetica, Arial, sans-serif"> 0f48395…</text></g><g class="node" aria-label="graph-node31" transform="translate(-193.7594320021164,-4.599996057136603)"><circle class="b-outline" cx="0" cy="0" r="25" fill="#FFC454" stroke="#d7a013" stroke-width="2px"/><text class="caption" text-anchor="middle" pointer-events="none" x="0" y="5" font-size="10px" fill="#2A2C34" font-family="Helvetica Neue, Helvetica, Arial, sans-serif"> e627b47…</text></g><g class="node" aria-label="graph-node32" transform="translate(-121.74277169786811,-73.12796027650856)"><circle class="b-outline" cx="0" cy="0" r="25" fill="#569480" stroke="#447666" stroke-width="2px"/><text class="caption" text-anchor="middle" pointer-events="none" x="0" y="5" font-size="10px" fill="#FFFFFF" font-family="Helvetica Neue, Helvetica, Arial, sans-serif"> Kf_Calci…</text></g><g class="node" aria-label="graph-node33" transform="translate(-252.6054965318261,-124.87784344323606)"><circle class="b-outline" cx="0" cy="0" r="25" fill="#569480" stroke="#447666" stroke-width="2px"/><text class="caption" text-anchor="middle" pointer-events="none" x="0" y="5" font-size="10px" fill="#FFFFFF" font-family="Helvetica Neue, Helvetica, Arial, sans-serif"> Kr_Calci…</text></g><g class="node" aria-label="graph-node34" transform="translate(-33.462632293248824,-29.53032807192296)"><circle class="b-outline" cx="0" cy="0" r="25" fill="#569480" stroke="#447666" stroke-width="2px"/><text class="caption" text-anchor="middle" pointer-events="none" x="0" y="5" font-size="10px" fill="#FFFFFF" font-family="Helvetica Neue, Helvetica, Arial, sans-serif"> Kf_Calci…</text></g><g class="node" aria-label="graph-node35" transform="translate(-289.6685143088528,-32.61968740710569)"><circle class="b-outline" cx="0" cy="0" r="25" fill="#569480" stroke="#447666" stroke-width="2px"/><text class="caption" text-anchor="middle" pointer-events="none" x="0" y="5" font-size="10px" fill="#FFFFFF" font-family="Helvetica Neue, Helvetica, Arial, sans-serif"> Kr_Calci…</text></g><g class="node" aria-label="graph-node36" transform="translate(-313.01767270151146,142.79947169045573)"><circle class="b-outline" cx="0" cy="0" r="25" fill="#569480" stroke="#447666" stroke-width="2px"/><text class="caption" text-anchor="middle" pointer-events="none" x="0" y="5" font-size="10px" fill="#FFFFFF" font-family="Helvetica Neue, Helvetica, Arial, sans-serif"> Vmax</text></g><g class="node" aria-label="graph-node37" transform="translate(-227.98603771375542,87.80663194890738)"><circle class="b-outline" cx="0" cy="0" r="25" fill="#569480" stroke="#447666" stroke-width="2px"/><text class="caption" text-anchor="middle" pointer-events="none" x="0" y="5" font-size="10px" fill="#FFFFFF" font-family="Helvetica Neue, Helvetica, Arial, sans-serif"> kP</text></g><g class="node" aria-label="graph-node38" transform="translate(-224.13267735034538,186.33363356072536)"><circle class="b-outline" cx="0" cy="0" r="25" fill="#569480" stroke="#447666" stroke-width="2px"/><text class="caption" text-anchor="middle" pointer-events="none" x="0" y="5" font-size="10px" fill="#FFFFFF" font-family="Helvetica Neue, Helvetica, Arial, sans-serif"> Ca_Rest</text></g><g class="node" aria-label="graph-node39" transform="translate(-136.00774138887044,233.85092981225975)"><circle class="b-outline" cx="0" cy="0" r="25" fill="#569480" stroke="#447666" stroke-width="2px"/><text class="caption" text-anchor="middle" pointer-events="none" x="0" y="5" font-size="10px" fill="#FFFFFF" font-family="Helvetica Neue, Helvetica, Arial, sans-serif"> J0</text></g><g class="node" aria-label="graph-node40" transform="translate(-139.15027045267135,135.35607645009566)"><circle class="b-outline" cx="0" cy="0" r="25" fill="#569480" stroke="#447666" stroke-width="2px"/><text class="caption" text-anchor="middle" pointer-events="none" x="0" y="5" font-size="10px" fill="#FFFFFF" font-family="Helvetica Neue, Helvetica, Arial, sans-serif"> Kc</text></g></g></svg>