<svg xmlns="http://www.w3.org/2000/svg" width="737.4358520507812" height="637.5586547851562" viewBox="-352.6155090332031 -340.6235656738281 737.4358520507812 637.5586547851562"><title>Neo4j Graph Visualization</title><desc>Created using Neo4j (http://www.neo4j.com/)</desc><g class="layer relationships"><g class="relationship" transform="translate(26.885612699696214 3.6665086934727373) rotate(315.2620790022285)"><path class="b-outline" fill="#A5ABB6" stroke="none" d="M 25 0.5 L 36.419816652311326 0.5 L 36.419816652311326 -0.5 L 25 -0.5 Z M 125.25184790231133 0.5 L 136.67166455462265 0.5 L 136.67166455462265 3.5 L 143.67166455462265 0 L 136.67166455462265 -3.5 L 136.67166455462265 -0.5 L 125.25184790231133 -0.5 Z"/><text text-anchor="middle" pointer-events="none" font-size="8px" fill="#000000" x="80.83583227731133" y="3" font-family="Helvetica Neue, Helvetica, Arial, sans-serif">HAS_COMPARTMENT</text></g><g class="relationship" transform="translate(152.22478218535724 128.56292164979266) rotate(424.758983065367)"><path class="b-outline" fill="#A5ABB6" stroke="none" d="M 25 0.5 L 41.2020259732534 0.5 L 41.2020259732534 -0.5 L 25 -0.5 Z M 105.8817134732534 0.5 L 122.0837394465068 0.5 L 122.0837394465068 3.5 L 129.0837394465068 0 L 122.0837394465068 -3.5 L 122.0837394465068 -0.5 L 105.8817134732534 -0.5 Z"/><text text-anchor="middle" pointer-events="none" font-size="8px" fill="#000000" x="73.5418697232534" y="3" font-family="Helvetica Neue, Helvetica, Arial, sans-serif">IS_COMPOSED</text></g><g class="relationship" transform="translate(221.52779290530833 57.61931290958617) rotate(450.97997703699116)"><path class="b-outline" fill="#A5ABB6" stroke="none" d="M 25 0.5 L 69.33341110970825 0.5 L 69.33341110970825 -0.5 L 25 -0.5 Z M 134.01309860970827 0.5 L 178.3465097194165 0.5 L 178.3465097194165 3.5 L 185.3465097194165 0 L 178.3465097194165 -3.5 L 178.3465097194165 -0.5 L 134.01309860970827 -0.5 Z"/><text text-anchor="middle" pointer-events="none" font-size="8px" fill="#000000" x="101.67325485970825" y="3" transform="rotate(180 101.67325485970825 0)" font-family="Helvetica Neue, Helvetica, Arial, sans-serif">IS_COMPOSED</text></g><g class="relationship" transform="translate(221.52779290530833 57.61931290958617) rotate(427.4392710864105)"><path class="b-outline" fill="#A5ABB6" stroke="none" d="M 25 0.5 L 34.33676957861647 0.5 L 34.33676957861647 -0.5 L 25 -0.5 Z M 99.01645707861647 0.5 L 108.35322665723294 0.5 L 108.35322665723294 3.5 L 115.35322665723294 0 L 108.35322665723294 -3.5 L 108.35322665723294 -0.5 L 99.01645707861647 -0.5 Z"/><text text-anchor="middle" pointer-events="none" font-size="8px" fill="#000000" x="66.67661332861647" y="3" font-family="Helvetica Neue, Helvetica, Arial, sans-serif">IS_COMPOSED</text></g><g class="relationship" transform="translate(221.52779290530833 57.61931290958617) rotate(333.64867904545645)"><path class="b-outline" fill="#A5ABB6" stroke="none" d="M 25 0.5 L 39.092686382602565 0.5 L 39.092686382602565 -0.5 L 25 -0.5 Z M 103.77237388260257 0.5 L 117.86506026520513 0.5 L 117.86506026520513 3.5 L 124.86506026520513 0 L 117.86506026520513 -3.5 L 117.86506026520513 -0.5 L 103.77237388260257 -0.5 Z"/><text text-anchor="middle" pointer-events="none" font-size="8px" fill="#000000" x="71.43253013260257" y="3" font-family="Helvetica Neue, Helvetica, Arial, sans-serif">IS_COMPOSED</text></g><g class="relationship" transform="translate(95.54351254911558 218.92165769801682) rotate(381.82509895104874)"><path class="b-outline" fill="#A5ABB6" stroke="none" d="M 25 0.5 L 30.07833247738776 0.5 L 30.07833247738776 -0.5 L 25 -0.5 Z M 94.75801997738776 0.5 L 99.83635245477552 0.5 L 99.83635245477552 3.5 L 106.83635245477552 0 L 99.83635245477552 -3.5 L 99.83635245477552 -0.5 L 94.75801997738776 -0.5 Z"/><text text-anchor="middle" pointer-events="none" font-size="8px" fill="#000000" x="62.41817622738776" y="3" font-family="Helvetica Neue, Helvetica, Arial, sans-serif">IS_COMPOSED</text></g><g class="relationship" transform="translate(95.54351254911558 218.92165769801682) rotate(350.0060120385135)"><path class="b-outline" fill="#A5ABB6" stroke="none" d="M 25 0.5 L 55.461842863117454 0.5 L 55.461842863117454 -0.5 L 25 -0.5 Z M 120.14153036311745 0.5 L 150.6033732262349 0.5 L 150.6033732262349 3.5 L 157.6033732262349 0 L 150.6033732262349 -3.5 L 150.6033732262349 -0.5 L 120.14153036311745 -0.5 Z"/><text text-anchor="middle" pointer-events="none" font-size="8px" fill="#000000" x="87.80168661311745" y="3" font-family="Helvetica Neue, Helvetica, Arial, sans-serif">IS_COMPOSED</text></g><g class="relationship" transform="translate(26.885612699696214 3.6665086934727373) rotate(404.89862331422694)"><path class="b-outline" fill="#A5ABB6" stroke="none" d="M 25 0.5 L 39.524511480344245 0.5 L 39.524511480344245 -0.5 L 25 -0.5 Z M 130.41904273034424 0.5 L 144.9435542106885 0.5 L 144.9435542106885 3.5 L 151.9435542106885 0 L 144.9435542106885 -3.5 L 144.9435542106885 -0.5 L 130.41904273034424 -0.5 Z"/><text text-anchor="middle" pointer-events="none" font-size="8px" fill="#000000" x="84.97177710534424" y="3" font-family="Helvetica Neue, Helvetica, Arial, sans-serif">HAS_UNITDEFINITION</text></g><g class="relationship" transform="translate(26.885612699696214 3.6665086934727373) rotate(375.4928246095582)"><path class="b-outline" fill="#A5ABB6" stroke="none" d="M 25 0.5 L 52.04343122126431 0.5 L 52.04343122126431 -0.5 L 25 -0.5 Z M 142.9379624712643 0.5 L 169.98139369252863 0.5 L 169.98139369252863 3.5 L 176.98139369252863 0 L 169.98139369252863 -3.5 L 169.98139369252863 -0.5 L 142.9379624712643 -0.5 Z"/><text text-anchor="middle" pointer-events="none" font-size="8px" fill="#000000" x="97.49069684626431" y="3" font-family="Helvetica Neue, Helvetica, Arial, sans-serif">HAS_UNITDEFINITION</text></g><g class="relationship" transform="translate(26.885612699696214 3.6665086934727373) rotate(432.30936891057894)"><path class="b-outline" fill="#A5ABB6" stroke="none" d="M 25 0.5 L 64.0225161583395 0.5 L 64.0225161583395 -0.5 L 25 -0.5 Z M 154.9170474083395 0.5 L 193.939563566679 0.5 L 193.939563566679 3.5 L 200.939563566679 0 L 193.939563566679 -3.5 L 193.939563566679 -0.5 L 154.9170474083395 -0.5 Z"/><text text-anchor="middle" pointer-events="none" font-size="8px" fill="#000000" x="109.4697817833395" y="3" font-family="Helvetica Neue, Helvetica, Arial, sans-serif">HAS_UNITDEFINITION</text></g><g class="relationship" transform="translate(26.885612699696214 3.6665086934727373) rotate(282.844117763206)"><path class="b-outline" fill="#A5ABB6" stroke="none" d="M 25 0.5 L 70.7086075820751 0.5 L 70.7086075820751 -0.5 L 25 -0.5 Z M 132.2867325820751 0.5 L 177.9953401641502 0.5 L 177.9953401641502 3.5 L 184.9953401641502 0 L 177.9953401641502 -3.5 L 177.9953401641502 -0.5 L 132.2867325820751 -0.5 Z"/><text text-anchor="middle" pointer-events="none" font-size="8px" fill="#000000" x="101.4976700820751" y="3" font-family="Helvetica Neue, Helvetica, Arial, sans-serif">HAS_SPECIES</text></g><g class="relationship" transform="translate(26.885612699696214 3.6665086934727373) rotate(271.84346076788637)"><path class="b-outline" fill="#A5ABB6" stroke="none" d="M 25 0.5 L 26.881097020141226 0.5 L 26.881097020141226 -0.5 L 25 -0.5 Z M 67.11547202014123 0.5 L 68.99656904028245 0.5 L 68.99656904028245 3.5 L 75.99656904028245 0 L 68.99656904028245 -3.5 L 68.99656904028245 -0.5 L 67.11547202014123 -0.5 Z"/><text text-anchor="middle" pointer-events="none" font-size="8px" fill="#000000" x="46.998284520141226" y="3" font-family="Helvetica Neue, Helvetica, Arial, sans-serif">HAS_S…</text></g><g class="relationship" transform="translate(26.885612699696214 3.6665086934727373) rotate(254.82157727108324)"><path class="b-outline" fill="#A5ABB6" stroke="none" d="M 25 0.5 L 61.2850636125486 0.5 L 61.2850636125486 -0.5 L 25 -0.5 Z M 122.8631886125486 0.5 L 159.1482522250972 0.5 L 159.1482522250972 3.5 L 166.1482522250972 0 L 159.1482522250972 -3.5 L 159.1482522250972 -0.5 L 122.8631886125486 -0.5 Z"/><text text-anchor="middle" pointer-events="none" font-size="8px" fill="#000000" x="92.0741261125486" y="3" transform="rotate(180 92.0741261125486 0)" font-family="Helvetica Neue, Helvetica, Arial, sans-serif">HAS_SPECIES</text></g><g class="relationship" transform="translate(26.885612699696214 3.6665086934727373) rotate(225.15004449181208)"><path class="b-outline" fill="#A5ABB6" stroke="none" d="M 25 0.5 L 33.53069523550168 0.5 L 33.53069523550168 -0.5 L 25 -0.5 Z M 95.10882023550168 0.5 L 103.63951547100336 0.5 L 103.63951547100336 3.5 L 110.63951547100336 0 L 103.63951547100336 -3.5 L 103.63951547100336 -0.5 L 95.10882023550168 -0.5 Z"/><text text-anchor="middle" pointer-events="none" font-size="8px" fill="#000000" x="64.31975773550168" y="3" transform="rotate(180 64.31975773550168 0)" font-family="Helvetica Neue, Helvetica, Arial, sans-serif">HAS_SPECIES</text></g><g class="relationship" transform="translate(73.56742921055674 -201.07442736452106) rotate(409.62953353150937)"><path class="b-outline" fill="#A5ABB6" stroke="none" d="M 25 0.5 L 25.354624886573873 0.5 L 25.354624886573873 -0.5 L 25 -0.5 Z M 80.54993738657387 0.5 L 80.90456227314775 0.5 L 80.90456227314775 3.5 L 87.90456227314775 0 L 80.90456227314775 -3.5 L 80.90456227314775 -0.5 L 80.54993738657387 -0.5 Z"/><text text-anchor="middle" pointer-events="none" font-size="8px" fill="#000000" x="52.95228113657387" y="3" font-family="Helvetica Neue, Helvetica, Arial, sans-serif">IN_COMPA…</text></g><g class="relationship" transform="translate(30.134562155992676 -97.27778924028362) rotate(351.3283646145595)"><path class="b-outline" fill="#A5ABB6" stroke="none" d="M 25 0.5 L 27.8584069714745 0.5 L 27.8584069714745 -0.5 L 25 -0.5 Z M 83.0537194714745 0.5 L 85.912126442949 0.5 L 85.912126442949 3.5 L 92.912126442949 0 L 85.912126442949 -3.5 L 85.912126442949 -0.5 L 83.0537194714745 -0.5 Z"/><text text-anchor="middle" pointer-events="none" font-size="8px" fill="#000000" x="55.4560632214745" y="3" font-family="Helvetica Neue, Helvetica, Arial, sans-serif">IN_COMPA…</text></g><g class="relationship" transform="translate(-23.161919932102425 -180.81356829637033) rotate(381.16286252058205)"><path class="b-outline" fill="#A5ABB6" stroke="none" d="M 25 0.5 L 47.38105977018357 0.5 L 47.38105977018357 -0.5 L 25 -0.5 Z M 127.76387227018357 0.5 L 150.14493204036714 0.5 L 150.14493204036714 3.5 L 157.14493204036714 0 L 150.14493204036714 -3.5 L 150.14493204036714 -0.5 L 127.76387227018357 -0.5 Z"/><text text-anchor="middle" pointer-events="none" font-size="8px" fill="#000000" x="87.57246602018357" y="3" font-family="Helvetica Neue, Helvetica, Arial, sans-serif">IN_COMPARTMENT</text></g><g class="relationship" transform="translate(-68.77450937981357 -92.49595384228935) rotate(354.0230241034143)"><path class="b-outline" fill="#A5ABB6" stroke="none" d="M 25 0.5 L 64.63412237326384 0.5 L 64.63412237326384 -0.5 L 25 -0.5 Z M 145.01693487326384 0.5 L 184.65105724652767 0.5 L 184.65105724652767 3.5 L 191.65105724652767 0 L 184.65105724652767 -3.5 L 184.65105724652767 -0.5 L 145.01693487326384 -0.5 Z"/><text text-anchor="middle" pointer-events="none" font-size="8px" fill="#000000" x="104.82552862326384" y="3" font-family="Helvetica Neue, Helvetica, Arial, sans-serif">IN_COMPARTMENT</text></g><g class="relationship" transform="translate(26.885612699696214 3.6665086934727373) rotate(230.2007874196633)"><path class="b-outline" fill="#A5ABB6" stroke="none" d="M 25 0.5 L 79.3580833999666 0.5 L 79.3580833999666 -0.5 L 25 -0.5 Z M 147.5924583999666 0.5 L 201.9505417999332 0.5 L 201.9505417999332 3.5 L 208.9505417999332 0 L 201.9505417999332 -3.5 L 201.9505417999332 -0.5 L 147.5924583999666 -0.5 Z"/><text text-anchor="middle" pointer-events="none" font-size="8px" fill="#000000" x="113.4752708999666" y="3" transform="rotate(180 113.4752708999666 0)" font-family="Helvetica Neue, Helvetica, Arial, sans-serif">HAS_REACTION</text></g><g class="relationship" transform="translate(26.885612699696214 3.6665086934727373) rotate(196.5039890586927)"><path class="b-outline" fill="#A5ABB6" stroke="none" d="M 25 0.5 L 66.63902347846825 0.5 L 66.63902347846825 -0.5 L 25 -0.5 Z M 134.87339847846823 0.5 L 176.5124219569365 0.5 L 176.5124219569365 3.5 L 183.5124219569365 0 L 176.5124219569365 -3.5 L 176.5124219569365 -0.5 L 134.87339847846823 -0.5 Z"/><text text-anchor="middle" pointer-events="none" font-size="8px" fill="#000000" x="100.75621097846825" y="3" transform="rotate(180 100.75621097846825 0)" font-family="Helvetica Neue, Helvetica, Arial, sans-serif">HAS_REACTION</text></g><g class="relationship" transform="translate(26.885612699696214 3.6665086934727373) rotate(525.2460689613866)"><path class="b-outline" fill="#A5ABB6" stroke="none" d="M 25 0.5 L 41.287121386778054 0.5 L 41.287121386778054 -0.5 L 25 -0.5 Z M 109.52149638677805 0.5 L 125.80861777355611 0.5 L 125.80861777355611 3.5 L 132.8086177735561 0 L 125.80861777355611 -3.5 L 125.80861777355611 -0.5 L 109.52149638677805 -0.5 Z"/><text text-anchor="middle" pointer-events="none" font-size="8px" fill="#000000" x="75.40430888677805" y="3" transform="rotate(180 75.40430888677805 0)" font-family="Helvetica Neue, Helvetica, Arial, sans-serif">HAS_REACTION</text></g><g class="relationship" transform="translate(-122.86592810866371 -176.0758959694348) rotate(244.8581200878429)"><path class="b-outline" fill="#A5ABB6" stroke="none" d="M 25 0.5 L 32.06018702350791 0.5 L 32.06018702350791 -0.5 L 25 -0.5 Z M 110.67346827350791 0.5 L 117.73365529701582 0.5 L 117.73365529701582 3.5 L 124.73365529701582 0 L 117.73365529701582 -3.5 L 117.73365529701582 -0.5 L 110.67346827350791 -0.5 Z"/><text text-anchor="middle" pointer-events="none" font-size="8px" fill="#000000" x="71.36682764850791" y="3" transform="rotate(180 71.36682764850791 0)" font-family="Helvetica Neue, Helvetica, Arial, sans-serif">HAS_KENETICLAW</text></g><g class="relationship" transform="translate(-173.0360888754212 -55.56813783756702) rotate(185.94923209013268)"><path class="b-outline" fill="#A5ABB6" stroke="none" d="M 25 0.5 L 32.8907690596169 0.5 L 32.8907690596169 -0.5 L 25 -0.5 Z M 111.5040503096169 0.5 L 119.3948193692338 0.5 L 119.3948193692338 3.5 L 126.3948193692338 0 L 119.3948193692338 -3.5 L 119.3948193692338 -0.5 L 111.5040503096169 -0.5 Z"/><text text-anchor="middle" pointer-events="none" font-size="8px" fill="#000000" x="72.1974096846169" y="3" transform="rotate(180 72.1974096846169 0)" font-family="Helvetica Neue, Helvetica, Arial, sans-serif">HAS_KENETICLAW</text></g><g class="relationship" transform="translate(-125.71981326330946 43.85536050899399) rotate(504.0493807652132)"><path class="b-outline" fill="#A5ABB6" stroke="none" d="M 25 0.5 L 34.6451890480414 0.5 L 34.6451890480414 -0.5 L 25 -0.5 Z M 113.2584702980414 0.5 L 122.9036593460828 0.5 L 122.9036593460828 3.5 L 129.9036593460828 0 L 122.9036593460828 -3.5 L 122.9036593460828 -0.5 L 113.2584702980414 -0.5 Z"/><text text-anchor="middle" pointer-events="none" font-size="8px" fill="#000000" x="73.9518296730414" y="3" transform="rotate(180 73.9518296730414 0)" font-family="Helvetica Neue, Helvetica, Arial, sans-serif">HAS_KENETICLAW</text></g><g class="relationship" transform="translate(73.56742921055674 -201.07442736452106) rotate(532.747401757761)"><path class="b-outline" fill="#A5ABB6" stroke="none" d="M 25 0.5 L 65.24320091922255 0.5 L 65.24320091922255 -0.5 L 25 -0.5 Z M 125.77445091922255 0.5 L 166.0176518384451 0.5 L 166.0176518384451 3.5 L 173.0176518384451 0 L 166.0176518384451 -3.5 L 166.0176518384451 -0.5 L 125.77445091922255 -0.5 Z"/><text text-anchor="middle" pointer-events="none" font-size="8px" fill="#000000" x="95.50882591922255" y="3" transform="rotate(180 95.50882591922255 0)" font-family="Helvetica Neue, Helvetica, Arial, sans-serif">IS_REACTANT</text></g><g class="relationship" transform="translate(-23.161919932102425 -180.81356829637033) rotate(500.1154889928611)"><path class="b-outline" fill="#A5ABB6" stroke="none" d="M 25 0.5 L 63.89281596551689 0.5 L 63.89281596551689 -0.5 L 25 -0.5 Z M 124.42406596551689 0.5 L 163.31688193103378 0.5 L 163.31688193103378 3.5 L 170.31688193103378 0 L 163.31688193103378 -3.5 L 163.31688193103378 -0.5 L 124.42406596551689 -0.5 Z"/><text text-anchor="middle" pointer-events="none" font-size="8px" fill="#000000" x="94.15844096551689" y="3" transform="rotate(180 94.15844096551689 0)" font-family="Helvetica Neue, Helvetica, Arial, sans-serif">IS_REACTANT</text></g><g class="relationship" transform="translate(-68.77450937981357 -92.49595384228935) rotate(472.66720248135744)"><path class="b-outline" fill="#A5ABB6" stroke="none" d="M 25 0.5 L 40.11679604808522 0.5 L 40.11679604808522 -0.5 L 25 -0.5 Z M 100.64804604808522 0.5 L 115.76484209617044 0.5 L 115.76484209617044 3.5 L 122.76484209617044 0 L 115.76484209617044 -3.5 L 115.76484209617044 -0.5 L 100.64804604808522 -0.5 Z"/><text text-anchor="middle" pointer-events="none" font-size="8px" fill="#000000" x="70.38242104808522" y="3" transform="rotate(180 70.38242104808522 0)" font-family="Helvetica Neue, Helvetica, Arial, sans-serif">IS_REACTANT</text></g><g class="relationship" transform="translate(-122.86592810866371 -176.0758959694348) rotate(357.2795015064553)"><path class="b-outline" fill="#A5ABB6" stroke="none" d="M 25 0.5 L 26.2910652883646 0.5 L 26.2910652883646 -0.5 L 25 -0.5 Z M 66.52544028836459 0.5 L 67.8165055767292 0.5 L 67.8165055767292 3.5 L 74.8165055767292 0 L 67.8165055767292 -3.5 L 67.8165055767292 -0.5 L 66.52544028836459 -0.5 Z"/><text text-anchor="middle" pointer-events="none" font-size="8px" fill="#000000" x="46.4082527883646" y="3" font-family="Helvetica Neue, Helvetica, Arial, sans-serif">HAS_P…</text></g><g class="relationship" transform="translate(-173.0360888754212 -55.56813783756702) rotate(340.49665307631403)"><path class="b-outline" fill="#A5ABB6" stroke="none" d="M 25 0.5 L 25.686837113488885 0.5 L 25.686837113488885 -0.5 L 25 -0.5 Z M 77.92121211348888 0.5 L 78.60804922697777 0.5 L 78.60804922697777 3.5 L 85.60804922697777 0 L 78.60804922697777 -3.5 L 78.60804922697777 -0.5 L 77.92121211348888 -0.5 Z"/><text text-anchor="middle" pointer-events="none" font-size="8px" fill="#000000" x="51.804024613488885" y="3" font-family="Helvetica Neue, Helvetica, Arial, sans-serif">HAS_PRO…</text></g><g class="relationship" transform="translate(-125.71981326330946 43.85536050899399) rotate(317.8377431310062)"><path class="b-outline" fill="#A5ABB6" stroke="none" d="M 25 0.5 L 68.40330040237991 0.5 L 68.40330040237991 -0.5 L 25 -0.5 Z M 134.8564254023799 0.5 L 178.25972580475982 0.5 L 178.25972580475982 3.5 L 185.25972580475982 0 L 178.25972580475982 -3.5 L 178.25972580475982 -0.5 L 134.8564254023799 -0.5 Z"/><text text-anchor="middle" pointer-events="none" font-size="8px" fill="#000000" x="101.62986290237991" y="3" font-family="Helvetica Neue, Helvetica, Arial, sans-serif">HAS_PRODUCT</text></g><g class="relationship" transform="translate(53.31003908163114 129.22438954584834) rotate(336.9420510646348)"><path class="b-outline" fill="#A5ABB6" stroke="none" d="M 25 0.5 L 62.46262361953141 0.5 L 62.46262361953141 -0.5 L 25 -0.5 Z M 113.36106111953141 0.5 L 150.82368473906283 0.5 L 150.82368473906283 3.5 L 157.82368473906283 0 L 150.82368473906283 -3.5 L 150.82368473906283 -0.5 L 113.36106111953141 -0.5 Z"/><text text-anchor="middle" pointer-events="none" font-size="8px" fill="#000000" x="87.91184236953141" y="3" font-family="Helvetica Neue, Helvetica, Arial, sans-serif">HAS_UNITS</text></g><g class="relationship" transform="translate(-41.92377711196188 160.1646588474913) rotate(383.14308955012734)"><path class="b-outline" fill="#A5ABB6" stroke="none" d="M 25 0.5 L 45.79976224754142 0.5 L 45.79976224754142 -0.5 L 25 -0.5 Z M 96.69819974754142 0.5 L 117.49796199508285 0.5 L 117.49796199508285 3.5 L 124.49796199508285 0 L 117.49796199508285 -3.5 L 117.49796199508285 -0.5 L 96.69819974754142 -0.5 Z"/><text text-anchor="middle" pointer-events="none" font-size="8px" fill="#000000" x="71.24898099754142" y="3" font-family="Helvetica Neue, Helvetica, Arial, sans-serif">HAS_UNITS</text></g><g class="relationship" transform="translate(26.885612699696214 3.6665086934727373) rotate(438.11519239692524)"><path class="b-outline" fill="#A5ABB6" stroke="none" d="M 25 0.5 L 26.607298195813314 0.5 L 26.607298195813314 -0.5 L 25 -0.5 Z M 94.70104819581331 0.5 L 96.30834639162663 0.5 L 96.30834639162663 3.5 L 103.30834639162663 0 L 96.30834639162663 -3.5 L 96.30834639162663 -0.5 L 94.70104819581331 -0.5 Z"/><text text-anchor="middle" pointer-events="none" font-size="8px" fill="#000000" x="60.654173195813314" y="3" font-family="Helvetica Neue, Helvetica, Arial, sans-serif">HAS_PARAME…</text></g><g class="relationship" transform="translate(26.885612699696214 3.6665086934727373) rotate(473.7342187535223)"><path class="b-outline" fill="#A5ABB6" stroke="none" d="M 25 0.5 L 43.93178187977681 0.5 L 43.93178187977681 -0.5 L 25 -0.5 Z M 120.0255318797768 0.5 L 138.9573137595536 0.5 L 138.9573137595536 3.5 L 145.9573137595536 0 L 138.9573137595536 -3.5 L 138.9573137595536 -0.5 L 120.0255318797768 -0.5 Z"/><text text-anchor="middle" pointer-events="none" font-size="8px" fill="#000000" x="81.9786568797768" y="3" transform="rotate(180 81.9786568797768 0)" font-family="Helvetica Neue, Helvetica, Arial, sans-serif">HAS_PARAMETER</text></g></g><g class="layer nodes"><g class="node" aria-label="graph-node0" transform="translate(152.22478218535724,128.56292164979266)"><circle class="b-outline" cx="0" cy="0" r="25" fill="#D9C8AE" stroke="#c0a378" stroke-width="2px"/><text class="caption" text-anchor="middle" pointer-events="none" x="0" y="5" font-size="10px" fill="#2A2C34" font-family="Helvetica Neue, Helvetica, Arial, sans-serif"> substance</text></g><g class="node" aria-label="graph-node1" transform="translate(221.52779290530833,57.61931290958617)"><circle class="b-outline" cx="0" cy="0" r="25" fill="#D9C8AE" stroke="#c0a378" stroke-width="2px"/><text class="caption" text-anchor="middle" pointer-events="none" x="0" y="5" font-size="10px" fill="#2A2C34" font-family="Helvetica Neue, Helvetica, Arial, sans-serif"> mmls</text></g><g class="node" aria-label="graph-node2" transform="translate(95.54351254911558,218.92165769801682)"><circle class="b-outline" cx="0" cy="0" r="25" fill="#D9C8AE" stroke="#c0a378" stroke-width="2px"/><text class="caption" text-anchor="middle" pointer-events="none" x="0" y="5" font-size="10px" fill="#2A2C34" font-family="Helvetica Neue, Helvetica, Arial, sans-serif"> mml</text></g><g class="node" aria-label="graph-node3" transform="translate(146.69879360470824,-115.05557057171704)"><circle class="b-outline" cx="0" cy="0" r="25" fill="#F79767" stroke="#f36924" stroke-width="2px"/><text class="caption" text-anchor="middle" pointer-events="none" x="0" y="5" font-size="10px" fill="#FFFFFF" font-family="Helvetica Neue, Helvetica, Arial, sans-serif"> cell</text></g><g class="node" aria-label="graph-node4" transform="translate(26.885612699696214,3.6665086934727373)"><circle class="b-outline" cx="0" cy="0" r="25" fill="#57C7E3" stroke="#23b3d7" stroke-width="2px"/><text class="caption" text-anchor="middle" pointer-events="none" x="0" y="5" font-size="10px" fill="#2A2C34" font-family="Helvetica Neue, Helvetica, Arial, sans-serif"> cd9f827f…</text></g><g class="node" aria-label="graph-node5" transform="translate(217.93023823789352,267.93505590462576)"><circle class="b-outline" cx="0" cy="0" r="25" fill="#F16667" stroke="#eb2728" stroke-width="2px"/><text class="caption" text-anchor="middle" pointer-events="none" x="0" y="5" font-size="10px" fill="#FFFFFF" font-family="Helvetica Neue, Helvetica, Arial, sans-serif"> f2dd3fd2…</text></g><g class="node" aria-label="graph-node6" transform="translate(275.37605643268233,187.2317843318343)"><circle class="b-outline" cx="0" cy="0" r="25" fill="#F16667" stroke="#eb2728" stroke-width="2px"/><text class="caption" text-anchor="middle" pointer-events="none" x="0" y="5" font-size="10px" fill="#FFFFFF" font-family="Helvetica Neue, Helvetica, Arial, sans-serif"> 1c22729…</text></g><g class="node" aria-label="graph-node7" transform="translate(355.8202553519997,-8.901892869455063)"><circle class="b-outline" cx="0" cy="0" r="25" fill="#F16667" stroke="#eb2728" stroke-width="2px"/><text class="caption" text-anchor="middle" pointer-events="none" x="0" y="5" font-size="10px" fill="#FFFFFF" font-family="Helvetica Neue, Helvetica, Arial, sans-serif"> e97d363…</text></g><g class="node" aria-label="graph-node8" transform="translate(73.56742921055674,-201.07442736452106)"><circle class="b-outline" cx="0" cy="0" r="25" fill="#ECB5C9" stroke="#da7298" stroke-width="2px"/><text class="caption" text-anchor="middle" pointer-events="none" x="0" y="5" font-size="10px" fill="#2A2C34" font-family="Helvetica Neue, Helvetica, Arial, sans-serif"> x0</text></g><g class="node" aria-label="graph-node9" transform="translate(30.134562155992676,-97.27778924028362)"><circle class="b-outline" cx="0" cy="0" r="25" fill="#ECB5C9" stroke="#da7298" stroke-width="2px"/><text class="caption" text-anchor="middle" pointer-events="none" x="0" y="5" font-size="10px" fill="#2A2C34" font-family="Helvetica Neue, Helvetica, Arial, sans-serif"> x1</text></g><g class="node" aria-label="graph-node10" transform="translate(-23.161919932102425,-180.81356829637033)"><circle class="b-outline" cx="0" cy="0" r="25" fill="#ECB5C9" stroke="#da7298" stroke-width="2px"/><text class="caption" text-anchor="middle" pointer-events="none" x="0" y="5" font-size="10px" fill="#2A2C34" font-family="Helvetica Neue, Helvetica, Arial, sans-serif"> s1</text></g><g class="node" aria-label="graph-node11" transform="translate(-68.77450937981357,-92.49595384228935)"><circle class="b-outline" cx="0" cy="0" r="25" fill="#ECB5C9" stroke="#da7298" stroke-width="2px"/><text class="caption" text-anchor="middle" pointer-events="none" x="0" y="5" font-size="10px" fill="#2A2C34" font-family="Helvetica Neue, Helvetica, Arial, sans-serif"> s2</text></g><g class="node" aria-label="graph-node12" transform="translate(-122.86592810866371,-176.0758959694348)"><circle class="b-outline" cx="0" cy="0" r="25" fill="#4C8EDA" stroke="#2870c2" stroke-width="2px"/><text class="caption" text-anchor="middle" pointer-events="none" x="0" y="5" font-size="10px" fill="#FFFFFF" font-family="Helvetica Neue, Helvetica, Arial, sans-serif"> v1</text></g><g class="node" aria-label="graph-node13" transform="translate(-173.0360888754212,-55.56813783756702)"><circle class="b-outline" cx="0" cy="0" r="25" fill="#4C8EDA" stroke="#2870c2" stroke-width="2px"/><text class="caption" text-anchor="middle" pointer-events="none" x="0" y="5" font-size="10px" fill="#FFFFFF" font-family="Helvetica Neue, Helvetica, Arial, sans-serif"> v2</text></g><g class="node" aria-label="graph-node14" transform="translate(-125.71981326330946,43.85536050899399)"><circle class="b-outline" cx="0" cy="0" r="25" fill="#4C8EDA" stroke="#2870c2" stroke-width="2px"/><text class="caption" text-anchor="middle" pointer-events="none" x="0" y="5" font-size="10px" fill="#FFFFFF" font-family="Helvetica Neue, Helvetica, Arial, sans-serif"> v3</text></g><g class="node" aria-label="graph-node15" transform="translate(-186.48195276500647,-311.6235589353788)"><circle class="b-outline" cx="0" cy="0" r="25" fill="#FFC454" stroke="#d7a013" stroke-width="2px"/><text class="caption" text-anchor="middle" pointer-events="none" x="0" y="5" font-size="10px" fill="#2A2C34" font-family="Helvetica Neue, Helvetica, Arial, sans-serif"> fe0c238…</text></g><g class="node" aria-label="graph-node16" transform="translate(-323.61551454924944,-71.2597883429461)"><circle class="b-outline" cx="0" cy="0" r="25" fill="#FFC454" stroke="#d7a013" stroke-width="2px"/><text class="caption" text-anchor="middle" pointer-events="none" x="0" y="5" font-size="10px" fill="#2A2C34" font-family="Helvetica Neue, Helvetica, Arial, sans-serif"> 8d1c813…</text></g><g class="node" aria-label="graph-node17" transform="translate(-251.11793176081622,134.79740554918715)"><circle class="b-outline" cx="0" cy="0" r="25" fill="#FFC454" stroke="#d7a013" stroke-width="2px"/><text class="caption" text-anchor="middle" pointer-events="none" x="0" y="5" font-size="10px" fill="#2A2C34" font-family="Helvetica Neue, Helvetica, Arial, sans-serif"> b9f4aeb…</text></g><g class="node" aria-label="graph-node18" transform="translate(53.31003908163114,129.22438954584834)"><circle class="b-outline" cx="0" cy="0" r="25" fill="#569480" stroke="#447666" stroke-width="2px"/><text class="caption" text-anchor="middle" pointer-events="none" x="0" y="5" font-size="10px" fill="#FFFFFF" font-family="Helvetica Neue, Helvetica, Arial, sans-serif"> vm</text></g><g class="node" aria-label="graph-node19" transform="translate(-41.92377711196188,160.1646588474913)"><circle class="b-outline" cx="0" cy="0" r="25" fill="#569480" stroke="#447666" stroke-width="2px"/><text class="caption" text-anchor="middle" pointer-events="none" x="0" y="5" font-size="10px" fill="#FFFFFF" font-family="Helvetica Neue, Helvetica, Arial, sans-serif"> km</text></g></g></svg>