<svg xmlns="http://www.w3.org/2000/svg" width="288.1398010253906" height="517.3406372070312" viewBox="-113.7837905883789 -243.0926513671875 288.1398010253906 517.3406372070312"><title>Neo4j Graph Visualization</title><desc>Created using Neo4j (http://www.neo4j.com/)</desc><g class="layer relationships"><g class="relationship" transform="translate(-84.78379229451058 -142.65134131518604) rotate(330.28246056646293)"><path class="b-outline" fill="#A5ABB6" stroke="none" d="M 24.018736134675446,-6.953439040707552 L 24.277555179777966,-5.987513214418485 A 179.25880973037584 179.25880973037584 0 0 1 38.51430767785949,-9.187387004882908 L 38.33490873221816,-10.171163411543887 A 180.25880973037584 180.25880973037584 0 0 0 24.018736134675446,-6.953439040707552 Z M 98.74379462499094,-10.896557105156859 L 98.58807049962603,-9.908756519623864 A 179.25880973037584 179.25880973037584 0 0 1 112.89755538444567,-7.05166773947549 L 112.19090549135176,-4.136081018317917 L 119.818366049329,-5.888749109115954 L 113.83975524190423,-10.93911670101892 L 113.13310534881032,-8.023529979861348 A 180.25880973037584 180.25880973037584 0 0 0 98.74379462499094,-10.896557105156859"/><text text-anchor="middle" pointer-events="none" font-size="8px" fill="#000000" x="68.5147496779181" y="-9.582650405393963" font-family="Helvetica Neue, Helvetica, Arial, sans-serif">IS_REACTANT</text></g><g class="relationship" transform="translate(86.97015823608524 -69.98820750717113) rotate(252.0825089680344)"><path class="b-outline" fill="#A5ABB6" stroke="none" d="M 25 0.5 L 38.107646181406864 0.5 L 38.107646181406864 -0.5 L 25 -0.5 Z M 106.34202118140686 0.5 L 119.44966736281373 0.5 L 119.44966736281373 3.5 L 126.44966736281373 0 L 119.44966736281373 -3.5 L 119.44966736281373 -0.5 L 106.34202118140686 -0.5 Z"/><text text-anchor="middle" pointer-events="none" font-size="8px" fill="#000000" x="72.22483368140686" y="3" transform="rotate(180 72.22483368140686 0)" font-family="Helvetica Neue, Helvetica, Arial, sans-serif">HAS_REACTION</text></g><g class="relationship" transform="translate(145.35599715542304 10.68562622653883) rotate(497.9222124382487)"><path class="b-outline" fill="#A5ABB6" stroke="none" d="M 25 0.5 L 39.39353396481377 0.5 L 39.39353396481377 -0.5 L 25 -0.5 Z M 90.29197146481377 0.5 L 104.68550542962754 0.5 L 104.68550542962754 3.5 L 111.68550542962754 0 L 104.68550542962754 -3.5 L 104.68550542962754 -0.5 L 90.29197146481377 -0.5 Z"/><text text-anchor="middle" pointer-events="none" font-size="8px" fill="#000000" x="64.84275271481377" y="3" transform="rotate(180 64.84275271481377 0)" font-family="Helvetica Neue, Helvetica, Arial, sans-serif">HAS_UNITS</text></g><g class="relationship" transform="translate(86.97015823608524 -69.98820750717113) rotate(514.5649397518082)"><path class="b-outline" fill="#A5ABB6" stroke="none" d="M 25 0.5 L 39.86141894654341 0.5 L 39.86141894654341 -0.5 L 25 -0.5 Z M 128.6934501965434 0.5 L 143.55486914308682 0.5 L 143.55486914308682 3.5 L 150.55486914308682 0 L 143.55486914308682 -3.5 L 143.55486914308682 -0.5 L 128.6934501965434 -0.5 Z"/><text text-anchor="middle" pointer-events="none" font-size="8px" fill="#000000" x="84.27743457154341" y="3" transform="rotate(180 84.27743457154341 0)" font-family="Helvetica Neue, Helvetica, Arial, sans-serif">HAS_COMPARTMENT</text></g><g class="relationship" transform="translate(-11.983149606600279 -74.18003498046464) rotate(388.34155614474525)"><path class="b-outline" fill="#A5ABB6" stroke="none" d="M 25 0.5 L 47.83683094787314 0.5 L 47.83683094787314 -0.5 L 25 -0.5 Z M 123.93058094787314 0.5 L 146.76741189574628 0.5 L 146.76741189574628 3.5 L 153.76741189574628 0 L 146.76741189574628 -3.5 L 146.76741189574628 -0.5 L 123.93058094787314 -0.5 Z"/><text text-anchor="middle" pointer-events="none" font-size="8px" fill="#000000" x="85.88370594787314" y="3" font-family="Helvetica Neue, Helvetica, Arial, sans-serif">HAS_PARAMETER</text></g><g class="relationship" transform="translate(86.97015823608524 -69.98820750717113) rotate(464.03592879172953)"><path class="b-outline" fill="#A5ABB6" stroke="none" d="M 25 0.5 L 39.83962602332706 0.5 L 39.83962602332706 -0.5 L 25 -0.5 Z M 130.73415727332707 0.5 L 145.5737832966541 0.5 L 145.5737832966541 3.5 L 152.5737832966541 0 L 145.5737832966541 -3.5 L 145.5737832966541 -0.5 L 130.73415727332707 -0.5 Z"/><text text-anchor="middle" pointer-events="none" font-size="8px" fill="#000000" x="85.28689164832706" y="3" transform="rotate(180 85.28689164832706 0)" font-family="Helvetica Neue, Helvetica, Arial, sans-serif">HAS_UNITDEFINITION</text></g><g class="relationship" transform="translate(40.377106897421754 -214.09264640916885) rotate(510.28246056646293)"><path class="b-outline" fill="#A5ABB6" stroke="none" d="M 24.018736134675446,-6.953439040707552 L 24.277555179777966,-5.987513214418485 A 179.25880973037584 179.25880973037584 0 0 1 35.61400335523533,-8.633776420991126 L 35.41842498540287,-9.614464496402292 A 180.25880973037584 180.25880973037584 0 0 0 24.018736134675446,-6.953439040707552 Z M 101.67280524013023,-10.410051253230165 L 101.50083219678167,-9.424949597378628 A 179.25880973037584 179.25880973037584 0 0 1 112.89755538444567,-7.05166773947549 L 112.19090549135176,-4.136081018317917 L 119.818366049329,-5.888749109115954 L 113.83975524190423,-10.93911670101892 L 113.13310534881032,-8.023529979861348 A 180.25880973037584 180.25880973037584 0 0 0 101.67280524013023,-10.410051253230165"/><text text-anchor="middle" pointer-events="none" font-size="8px" fill="#000000" x="68.5147496779181" y="-9.582650405393963" transform="rotate(180 68.5147496779181 -12.582650405393963)" font-family="Helvetica Neue, Helvetica, Arial, sans-serif">HAS_PRODUCT</text></g><g class="relationship" transform="translate(86.97015823608524 -69.98820750717113) rotate(202.9315347944668)"><path class="b-outline" fill="#A5ABB6" stroke="none" d="M 25 0.5 L 58.957050740268414 0.5 L 58.957050740268414 -0.5 L 25 -0.5 Z M 120.53517574026841 0.5 L 154.49222648053683 0.5 L 154.49222648053683 3.5 L 161.49222648053683 0 L 154.49222648053683 -3.5 L 154.49222648053683 -0.5 L 120.53517574026841 -0.5 Z"/><text text-anchor="middle" pointer-events="none" font-size="8px" fill="#000000" x="89.74611324026841" y="3" transform="rotate(180 89.74611324026841 0)" font-family="Helvetica Neue, Helvetica, Arial, sans-serif">HAS_SPECIES</text></g><g class="relationship" transform="translate(-84.78379229451058 -142.65134131518604) rotate(444.89962193151086)"><path class="b-outline" fill="#A5ABB6" stroke="none" d="M 25 0.5 L 30.633791788267914 0.5 L 30.633791788267914 -0.5 L 25 -0.5 Z M 111.01660428826791 0.5 L 116.65039607653583 0.5 L 116.65039607653583 3.5 L 123.65039607653583 0 L 116.65039607653583 -3.5 L 116.65039607653583 -0.5 L 111.01660428826791 -0.5 Z"/><text text-anchor="middle" pointer-events="none" font-size="8px" fill="#000000" x="70.82519803826791" y="3" font-family="Helvetica Neue, Helvetica, Arial, sans-serif">IN_COMPARTMENT</text></g><g class="relationship" transform="translate(40.377106897421754 -214.09264640916885) rotate(470.5176298259079)"><path class="b-outline" fill="#A5ABB6" stroke="none" d="M 25 0.5 L 31.887963092347874 0.5 L 31.887963092347874 -0.5 L 25 -0.5 Z M 110.50124434234787 0.5 L 117.38920743469575 0.5 L 117.38920743469575 3.5 L 124.38920743469575 0 L 117.38920743469575 -3.5 L 117.38920743469575 -0.5 L 110.50124434234787 -0.5 Z"/><text text-anchor="middle" pointer-events="none" font-size="8px" fill="#000000" x="71.19460371734787" y="3" transform="rotate(180 71.19460371734787 0)" font-family="Helvetica Neue, Helvetica, Arial, sans-serif">HAS_KENETICLAW</text></g><g class="relationship" transform="translate(43.90313585532675 102.28390311304018) rotate(446.03904023442203)"><path class="b-outline" fill="#A5ABB6" stroke="none" d="M 25 0.5 L 35.81334685730744 0.5 L 35.81334685730744 -0.5 L 25 -0.5 Z M 100.49303435730744 0.5 L 111.30638121461487 0.5 L 111.30638121461487 3.5 L 118.30638121461487 0 L 111.30638121461487 -3.5 L 111.30638121461487 -0.5 L 100.49303435730744 -0.5 Z"/><text text-anchor="middle" pointer-events="none" font-size="8px" fill="#000000" x="68.15319060730744" y="3" font-family="Helvetica Neue, Helvetica, Arial, sans-serif">IS_COMPOSED</text></g></g><g class="layer nodes"><g class="node" aria-label="graph-node-4" transform="translate(53.80227302953025,245.24797545303346)"><circle class="b-outline" cx="0" cy="0" r="25" fill="#F16667" stroke="#eb2728" stroke-width="2px"/><text class="caption" text-anchor="middle" pointer-events="none" x="0" y="5" font-size="10px" fill="#FFFFFF" font-family="Helvetica Neue, Helvetica, Arial, sans-serif"> unit</text></g><g class="node" aria-label="graph-node-2" transform="translate(-71.5686428643042,5.410470369151687)"><circle class="b-outline" cx="0" cy="0" r="25" fill="#F79767" stroke="#f36924" stroke-width="2px"/><text class="caption" text-anchor="middle" pointer-events="none" x="0" y="5" font-size="10px" fill="#FFFFFF" font-family="Helvetica Neue, Helvetica, Arial, sans-serif"> compart…</text></g><g class="node" aria-label="graph-node-8" transform="translate(145.35599715542304,10.68562622653883)"><circle class="b-outline" cx="0" cy="0" r="25" fill="#569480" stroke="#447666" stroke-width="2px"/><text class="caption" text-anchor="middle" pointer-events="none" x="0" y="5" font-size="10px" fill="#FFFFFF" font-family="Helvetica Neue, Helvetica, Arial, sans-serif"> Parameter</text></g><g class="node" aria-label="graph-node-3" transform="translate(86.97015823608524,-69.98820750717113)"><circle class="b-outline" cx="0" cy="0" r="25" fill="#57C7E3" stroke="#23b3d7" stroke-width="2px"/><text class="caption" text-anchor="middle" pointer-events="none" x="0" y="5" font-size="10px" fill="#2A2C34" font-family="Helvetica Neue, Helvetica, Arial, sans-serif"> model</text></g><g class="node" aria-label="graph-node-6" transform="translate(40.377106897421754,-214.09264640916885)"><circle class="b-outline" cx="0" cy="0" r="25" fill="#4C8EDA" stroke="#2870c2" stroke-width="2px"/><text class="caption" text-anchor="middle" pointer-events="none" x="0" y="5" font-size="10px" fill="#FFFFFF" font-family="Helvetica Neue, Helvetica, Arial, sans-serif"> Reaction</text></g><g class="node" aria-label="graph-node-5" transform="translate(-84.78379229451058,-142.65134131518604)"><circle class="b-outline" cx="0" cy="0" r="25" fill="#ECB5C9" stroke="#da7298" stroke-width="2px"/><text class="caption" text-anchor="middle" pointer-events="none" x="0" y="5" font-size="10px" fill="#2A2C34" font-family="Helvetica Neue, Helvetica, Arial, sans-serif"> Species</text></g><g class="node" aria-label="graph-node-7" transform="translate(-11.983149606600279,-74.18003498046464)"><circle class="b-outline" cx="0" cy="0" r="25" fill="#FFC454" stroke="#d7a013" stroke-width="2px"/><text class="caption" text-anchor="middle" pointer-events="none" x="0" y="5" font-size="10px" fill="#2A2C34" font-family="Helvetica Neue, Helvetica, Arial, sans-serif"> KineticL…</text></g><g class="node" aria-label="graph-node-1" transform="translate(43.90313585532675,102.28390311304018)"><circle class="b-outline" cx="0" cy="0" r="25" fill="#D9C8AE" stroke="#c0a378" stroke-width="2px"/><text class="caption" text-anchor="middle" pointer-events="none" x="0" y="5" font-size="10px" fill="#2A2C34" font-family="Helvetica Neue, Helvetica, Arial, sans-serif"> UnitDefi…</text></g></g></svg>