<svg xmlns="http://www.w3.org/2000/svg" width="372.88519287109375" height="507.1883239746094" viewBox="-176.37924194335938 -215.00631713867188 372.88519287109375 507.1883239746094"><title>Neo4j Graph Visualization</title><desc>Created using Neo4j (http://www.neo4j.com/)</desc><g class="layer relationships"><g class="relationship" transform="translate(133.35412325113955 162.97309608665617) rotate(210.56156071526397)"><path class="b-outline" fill="#A5ABB6" stroke="none" d="M 25 0.5 L 31.78639130570575 0.5 L 31.78639130570575 -0.5 L 25 -0.5 Z M 120.61842255570575 0.5 L 127.4048138614115 0.5 L 127.4048138614115 3.5 L 134.4048138614115 0 L 127.4048138614115 -3.5 L 127.4048138614115 -0.5 L 120.61842255570575 -0.5 Z"/><text text-anchor="middle" pointer-events="none" font-size="8px" fill="#000000" x="76.20240693070575" y="3" transform="rotate(180 76.20240693070575 0)" font-family="Helvetica Neue, Helvetica, Arial, sans-serif">HAS_COMPARTMENT</text></g><g class="relationship" transform="translate(-4.024908167575122 -185.63339011224065) rotate(180.14904922588914)"><path class="b-outline" fill="#A5ABB6" stroke="none" d="M 25 0.5 L 28.87076916925588 0.5 L 28.87076916925588 -0.5 L 25 -0.5 Z M 107.48405041925588 0.5 L 111.35481958851176 0.5 L 111.35481958851176 3.5 L 118.35481958851176 0 L 111.35481958851176 -3.5 L 111.35481958851176 -0.5 L 107.48405041925588 -0.5 Z"/><text text-anchor="middle" pointer-events="none" font-size="8px" fill="#000000" x="68.17740979425588" y="3" transform="rotate(180 68.17740979425588 0)" font-family="Helvetica Neue, Helvetica, Arial, sans-serif">HAS_KENETICLAW</text></g><g class="relationship" transform="translate(61.03978846669526 -56.396365756179016) rotate(243.27691877694798)"><path class="b-outline" fill="#A5ABB6" stroke="none" d="M 25 0.5 L 38.58011297487815 0.5 L 38.58011297487815 -0.5 L 25 -0.5 Z M 99.11136297487815 0.5 L 112.6914759497563 0.5 L 112.6914759497563 3.5 L 119.6914759497563 0 L 112.6914759497563 -3.5 L 112.6914759497563 -0.5 L 99.11136297487815 -0.5 Z"/><text text-anchor="middle" pointer-events="none" font-size="8px" fill="#000000" x="68.84573797487815" y="3" transform="rotate(180 68.84573797487815 0)" font-family="Helvetica Neue, Helvetica, Arial, sans-serif">IS_REACTANT</text></g><g class="relationship" transform="translate(-4.024908167575122 -185.63339011224065) rotate(478.33098585406066)"><path class="b-outline" fill="#A5ABB6" stroke="none" d="M 25 0.5 L 41.066328044375865 0.5 L 41.066328044375865 -0.5 L 25 -0.5 Z M 107.51945304437587 0.5 L 123.58578108875173 0.5 L 123.58578108875173 3.5 L 130.58578108875173 0 L 123.58578108875173 -3.5 L 123.58578108875173 -0.5 L 107.51945304437587 -0.5 Z"/><text text-anchor="middle" pointer-events="none" font-size="8px" fill="#000000" x="74.29289054437587" y="3" transform="rotate(180 74.29289054437587 0)" font-family="Helvetica Neue, Helvetica, Arial, sans-serif">HAS_PRODUCT</text></g><g class="relationship" transform="translate(133.35412325113955 162.97309608665617) rotate(283.8697771265239)"><path class="b-outline" fill="#A5ABB6" stroke="none" d="M 25 0.5 L 29.687083297828096 0.5 L 29.687083297828096 -0.5 L 25 -0.5 Z M 105.7808332978281 0.5 L 110.46791659565619 0.5 L 110.46791659565619 3.5 L 117.46791659565619 0 L 110.46791659565619 -3.5 L 110.46791659565619 -0.5 L 105.7808332978281 -0.5 Z"/><text text-anchor="middle" pointer-events="none" font-size="8px" fill="#000000" x="67.7339582978281" y="3" font-family="Helvetica Neue, Helvetica, Arial, sans-serif">HAS_PARAMETER</text></g><g class="relationship" transform="translate(61.03978846669526 -56.396365756179016) rotate(475.15217726820384)"><path class="b-outline" fill="#A5ABB6" stroke="none" d="M 25 0.5 L 32.71193603124006 0.5 L 32.71193603124006 -0.5 L 25 -0.5 Z M 113.09474853124006 0.5 L 120.80668456248011 0.5 L 120.80668456248011 3.5 L 127.80668456248011 0 L 120.80668456248011 -3.5 L 120.80668456248011 -0.5 L 113.09474853124006 -0.5 Z"/><text text-anchor="middle" pointer-events="none" font-size="8px" fill="#000000" x="72.90334228124006" y="3" transform="rotate(180 72.90334228124006 0)" font-family="Helvetica Neue, Helvetica, Arial, sans-serif">IN_COMPARTMENT</text></g><g class="relationship" transform="translate(-77.86036645639555 -48.68354390467154) rotate(420.47977456794604)"><path class="b-outline" fill="#A5ABB6" stroke="none" d="M 25 0.5 L 31.353288099732964 0.5 L 31.353288099732964 -0.5 L 25 -0.5 Z M 111.73610059973296 0.5 L 118.08938869946593 0.5 L 118.08938869946593 3.5 L 125.08938869946593 0 L 118.08938869946593 -3.5 L 118.08938869946593 -0.5 L 111.73610059973296 -0.5 Z"/><text text-anchor="middle" pointer-events="none" font-size="8px" fill="#000000" x="71.54469434973296" y="3" font-family="Helvetica Neue, Helvetica, Arial, sans-serif">IN_COMPARTMENT</text></g><g class="relationship" transform="translate(133.35412325113955 162.97309608665617) rotate(495.4711050973347)"><path class="b-outline" fill="#A5ABB6" stroke="none" d="M 25 0.5 L 26.946325879828734 0.5 L 26.946325879828734 -0.5 L 25 -0.5 Z M 108.95023212982873 0.5 L 110.89655800965747 0.5 L 110.89655800965747 3.5 L 117.89655800965747 0 L 110.89655800965747 -3.5 L 110.89655800965747 -0.5 L 108.95023212982873 -0.5 Z"/><text text-anchor="middle" pointer-events="none" font-size="8px" fill="#000000" x="67.94827900482873" y="3" transform="rotate(180 67.94827900482873 0)" font-family="Helvetica Neue, Helvetica, Arial, sans-serif">HAS_FUNCTIOND…</text></g></g><g class="layer nodes"><g class="node" aria-label="graph-node0" transform="translate(-3.906707097606428,81.92151291788626)"><circle class="b-outline" cx="0" cy="0" r="25" fill="#F79767" stroke="#f36924" stroke-width="2px"/><text class="caption" text-anchor="middle" pointer-events="none" x="0" y="5" font-size="10px" fill="#FFFFFF" font-family="Helvetica Neue, Helvetica, Arial, sans-serif"> compart…</text></g><g class="node" aria-label="graph-node1" transform="translate(133.35412325113955,162.97309608665617)"><circle class="b-outline" cx="0" cy="0" r="25" fill="#57C7E3" stroke="#23b3d7" stroke-width="2px"/><text class="caption" text-anchor="middle" pointer-events="none" x="0" y="5" font-size="10px" fill="#2A2C34" font-family="Helvetica Neue, Helvetica, Arial, sans-serif"> Example</text></g><g class="node" aria-label="graph-node2" transform="translate(61.03978846669526,-56.396365756179016)"><circle class="b-outline" cx="0" cy="0" r="25" fill="#ECB5C9" stroke="#da7298" stroke-width="2px"/><text class="caption" text-anchor="middle" pointer-events="none" x="0" y="5" font-size="10px" fill="#2A2C34" font-family="Helvetica Neue, Helvetica, Arial, sans-serif"> S1</text></g><g class="node" aria-label="graph-node3" transform="translate(-77.86036645639555,-48.68354390467154)"><circle class="b-outline" cx="0" cy="0" r="25" fill="#ECB5C9" stroke="#da7298" stroke-width="2px"/><text class="caption" text-anchor="middle" pointer-events="none" x="0" y="5" font-size="10px" fill="#2A2C34" font-family="Helvetica Neue, Helvetica, Arial, sans-serif"> S2</text></g><g class="node" aria-label="graph-node4" transform="translate(-4.024908167575122,-185.63339011224065)"><circle class="b-outline" cx="0" cy="0" r="25" fill="#4C8EDA" stroke="#2870c2" stroke-width="2px"/><text class="caption" text-anchor="middle" pointer-events="none" x="0" y="5" font-size="10px" fill="#FFFFFF" font-family="Helvetica Neue, Helvetica, Arial, sans-serif"> reaction_1</text></g><g class="node" aria-label="graph-node5" transform="translate(-147.3792426952154,-186.0063128819351)"><circle class="b-outline" cx="0" cy="0" r="25" fill="#FFC454" stroke="#d7a013" stroke-width="2px"/><text class="caption" text-anchor="middle" pointer-events="none" x="0" y="5" font-size="10px" fill="#2A2C34" font-family="Helvetica Neue, Helvetica, Arial, sans-serif"> b827af6…</text></g><g class="node" aria-label="graph-node6" transform="translate(167.50595766600415,24.659107404359396)"><circle class="b-outline" cx="0" cy="0" r="25" fill="#569480" stroke="#447666" stroke-width="2px"/><text class="caption" text-anchor="middle" pointer-events="none" x="0" y="5" font-size="10px" fill="#FFFFFF" font-family="Helvetica Neue, Helvetica, Arial, sans-serif"> t</text></g><g class="node" aria-label="graph-node7" transform="translate(31.483612585432507,263.182004611375)"><circle class="b-outline" cx="0" cy="0" r="25" fill="#A5ABB6" stroke="#9AA1AC" stroke-width="2px"/><text class="caption" text-anchor="middle" pointer-events="none" x="0" y="5" font-size="10px" fill="#FFFFFF" font-family="Helvetica Neue, Helvetica, Arial, sans-serif"> f</text></g></g></svg>