<svg xmlns="http://www.w3.org/2000/svg" width="415.6162109375" height="444.589111328125" viewBox="-261.88555908203125 -94.68865966796875 415.6162109375 444.589111328125"><title>Neo4j Graph Visualization</title><desc>Created using Neo4j (http://www.neo4j.com/)</desc><g class="layer relationships"><g class="relationship" transform="translate(-232.88555741433717 -57.06665923952425) rotate(379.68151052685437)"><path class="b-outline" fill="#A5ABB6" stroke="none" d="M 21.40063509461097,-12.933012701892217 L 21.90063509461097,-12.06698729810778 A 97.81236001013006 97.81236001013006 0 0 1 39.008461487880865,-19.858309416336155 L 38.68336603359981,-20.803990623512135 A 98.81236001013006 98.81236001013006 0 0 0 21.40063509461097,-12.933012701892217 Z M 98.54983091529444,-22.19679479950166 L 98.26906628410077,-21.237018147425417 A 97.81236001013006 97.81236001013006 0 0 1 115.72071976117817,-14.249728603670327 L 114.34316672012537,-11.584705598312556 L 122.16869894718845,-11.479608675440073 L 117.55745714924859,-17.803092610814023 L 116.17990410819579,-15.138069605456252 A 98.81236001013006 98.81236001013006 0 0 0 98.54983091529444,-22.19679479950166"/><text text-anchor="middle" pointer-events="none" font-size="8px" fill="#000000" x="68.52017895108138" y="-22.644762831150118" font-family="Helvetica Neue, Helvetica, Arial, sans-serif">IS_REACTANT</text></g><g class="relationship" transform="translate(-96.94295520898223 -8.441648049545336) rotate(199.68151052685437)"><path class="b-outline" fill="#A5ABB6" stroke="none" d="M 25 0.5 L 43.46595574591828 0.5 L 43.46595574591828 -0.5 L 25 -0.5 Z M 93.91126824591828 0.5 L 112.37722399183656 0.5 L 112.37722399183656 3.5 L 119.37722399183656 0 L 112.37722399183656 -3.5 L 112.37722399183656 -0.5 L 93.91126824591828 -0.5 Z"/><text text-anchor="middle" pointer-events="none" font-size="8px" fill="#000000" x="68.68861199591828" y="3" transform="rotate(180 68.68861199591828 0)" font-family="Helvetica Neue, Helvetica, Arial, sans-serif">MODIFIERS</text></g><g class="relationship" transform="translate(124.73061101802024 78.23281815888402) rotate(456.6174147340466)"><path class="b-outline" fill="#A5ABB6" stroke="none" d="M 25 0.5 L 38.91695157668484 0.5 L 38.91695157668484 -0.5 L 25 -0.5 Z M 89.81538907668484 0.5 L 103.73234065336968 0.5 L 103.73234065336968 3.5 L 110.73234065336968 0 L 103.73234065336968 -3.5 L 103.73234065336968 -0.5 L 89.81538907668484 -0.5 Z"/><text text-anchor="middle" pointer-events="none" font-size="8px" fill="#000000" x="64.36617032668484" y="3" transform="rotate(180 64.36617032668484 0)" font-family="Helvetica Neue, Helvetica, Arial, sans-serif">HAS_UNITS</text></g><g class="relationship" transform="translate(-27.876545205753605 135.2779098340607) rotate(194.2947896952253)"><path class="b-outline" fill="#A5ABB6" stroke="none" d="M 25 0.5 L 35.31520472196968 0.5 L 35.31520472196968 -0.5 L 25 -0.5 Z M 124.14723597196968 0.5 L 134.46244069393936 0.5 L 134.46244069393936 3.5 L 141.46244069393936 0 L 134.46244069393936 -3.5 L 134.46244069393936 -0.5 L 124.14723597196968 -0.5 Z"/><text text-anchor="middle" pointer-events="none" font-size="8px" fill="#000000" x="79.73122034696968" y="3" transform="rotate(180 79.73122034696968 0)" font-family="Helvetica Neue, Helvetica, Arial, sans-serif">HAS_COMPARTMENT</text></g><g class="relationship" transform="translate(-27.876545205753605 135.2779098340607) rotate(339.5040800567655)"><path class="b-outline" fill="#A5ABB6" stroke="none" d="M 25 0.5 L 39.913370848721556 0.5 L 39.913370848721556 -0.5 L 25 -0.5 Z M 116.00712084872156 0.5 L 130.9204916974431 0.5 L 130.9204916974431 3.5 L 137.9204916974431 0 L 130.9204916974431 -3.5 L 130.9204916974431 -0.5 L 116.00712084872156 -0.5 Z"/><text text-anchor="middle" pointer-events="none" font-size="8px" fill="#000000" x="77.96024584872156" y="3" font-family="Helvetica Neue, Helvetica, Arial, sans-serif">HAS_PARAMETER</text></g><g class="relationship" transform="translate(-27.876545205753605 135.2779098340607) rotate(389.5923285993376)"><path class="b-outline" fill="#A5ABB6" stroke="none" d="M 25 0.5 L 29.808266159093407 0.5 L 29.808266159093407 -0.5 L 25 -0.5 Z M 120.7027974090934 0.5 L 125.51106356818681 0.5 L 125.51106356818681 3.5 L 132.5110635681868 0 L 125.51106356818681 -3.5 L 125.51106356818681 -0.5 L 120.7027974090934 -0.5 Z"/><text text-anchor="middle" pointer-events="none" font-size="8px" fill="#000000" x="75.2555317840934" y="3" font-family="Helvetica Neue, Helvetica, Arial, sans-serif">HAS_UNITDEFINITION</text></g><g class="relationship" transform="translate(-96.94295520898223 -8.441648049545336) rotate(199.68151052685437)"><path class="b-outline" fill="#A5ABB6" stroke="none" d="M 21.40063509461097,-12.933012701892217 L 21.90063509461097,-12.06698729810778 A 97.81236001013006 97.81236001013006 0 0 1 36.237441155624694,-18.85881378442511 L 35.88401574046785,-19.79427649128263 A 98.81236001013006 98.81236001013006 0 0 0 21.40063509461097,-12.933012701892217 Z M 101.39310939549203,-21.318357450268834 L 101.08357024175984,-20.367470752335393 A 97.81236001013006 97.81236001013006 0 0 1 115.72071976117817,-14.249728603670327 L 114.34316672012537,-11.584705598312556 L 122.16869894718845,-11.479608675440073 L 117.55745714924859,-17.803092610814023 L 116.17990410819579,-15.138069605456252 A 98.81236001013006 98.81236001013006 0 0 0 101.39310939549203,-21.318357450268834"/><text text-anchor="middle" pointer-events="none" font-size="8px" fill="#000000" x="68.52017895108138" y="-22.644762831150118" transform="rotate(180 68.52017895108138 -25.644762831150118)" font-family="Helvetica Neue, Helvetica, Arial, sans-serif">HAS_PRODUCT</text></g><g class="relationship" transform="translate(-232.88555741433717 -57.06665923952425) rotate(433.8837579650079)"><path class="b-outline" fill="#A5ABB6" stroke="none" d="M 25 0.5 L 35.02364531458568 0.5 L 35.02364531458568 -0.5 L 25 -0.5 Z M 115.40645781458568 0.5 L 125.43010312917136 0.5 L 125.43010312917136 3.5 L 132.43010312917136 0 L 125.43010312917136 -3.5 L 125.43010312917136 -0.5 L 115.40645781458568 -0.5 Z"/><text text-anchor="middle" pointer-events="none" font-size="8px" fill="#000000" x="75.21505156458568" y="3" font-family="Helvetica Neue, Helvetica, Arial, sans-serif">IN_COMPARTMENT</text></g><g class="relationship" transform="translate(-96.94295520898223 -8.441648049545336) rotate(339.03116056633235)"><path class="b-outline" fill="#A5ABB6" stroke="none" d="M 25 0.5 L 37.17852804651618 0.5 L 37.17852804651618 -0.5 L 25 -0.5 Z M 115.79180929651618 0.5 L 127.97033734303236 0.5 L 127.97033734303236 3.5 L 134.97033734303236 0 L 127.97033734303236 -3.5 L 127.97033734303236 -0.5 L 115.79180929651618 -0.5 Z"/><text text-anchor="middle" pointer-events="none" font-size="8px" fill="#000000" x="76.48516867151618" y="3" font-family="Helvetica Neue, Helvetica, Arial, sans-serif">HAS_KENETICLAW</text></g><g class="relationship" transform="translate(-27.876545205753605 135.2779098340607) rotate(302.52019461942075)"><path class="b-outline" fill="#A5ABB6" stroke="none" d="M 25 0.5 L 37.32832417042631 0.5 L 37.32832417042631 -0.5 L 25 -0.5 Z M 106.31269917042631 0.5 L 118.64102334085263 0.5 L 118.64102334085263 3.5 L 125.64102334085263 0 L 118.64102334085263 -3.5 L 118.64102334085263 -0.5 L 106.31269917042631 -0.5 Z"/><text text-anchor="middle" pointer-events="none" font-size="8px" fill="#000000" x="71.82051167042631" y="3" font-family="Helvetica Neue, Helvetica, Arial, sans-serif">HAS_RATERULE</text></g><g class="relationship" transform="translate(109.08894159071521 213.06088080449686) rotate(490.2014276146921)"><path class="b-outline" fill="#A5ABB6" stroke="none" d="M 25 0.5 L 34.75613229200394 0.5 L 34.75613229200394 -0.5 L 25 -0.5 Z M 99.43581979200394 0.5 L 109.19195208400788 0.5 L 109.19195208400788 3.5 L 116.19195208400788 0 L 109.19195208400788 -3.5 L 109.19195208400788 -0.5 L 99.43581979200394 -0.5 Z"/><text text-anchor="middle" pointer-events="none" font-size="8px" fill="#000000" x="67.09597604200394" y="3" transform="rotate(180 67.09597604200394 0)" font-family="Helvetica Neue, Helvetica, Arial, sans-serif">IS_COMPOSED</text></g></g><g class="layer nodes"><g class="node" aria-label="graph-node-4" transform="translate(17.952823651832983,320.90046231482603)"><circle class="b-outline" cx="0" cy="0" r="25" fill="#F16667" stroke="#eb2728" stroke-width="2px"/><text class="caption" text-anchor="middle" pointer-events="none" x="0" y="5" font-size="10px" fill="#FFFFFF" font-family="Helvetica Neue, Helvetica, Arial, sans-serif"> unit</text></g><g class="node" aria-label="graph-node-9" transform="translate(53.107592752186775,8.257095349234667)"><circle class="b-outline" cx="0" cy="0" r="25" fill="#A5ABB6" stroke="#9AA1AC" stroke-width="2px"/><text class="caption" text-anchor="middle" pointer-events="none" x="0" y="5" font-size="10px" fill="#FFFFFF" font-family="Helvetica Neue, Helvetica, Arial, sans-serif"> rateRule</text></g><g class="node" aria-label="graph-node-2" transform="translate(-189.18500722951813,94.17652006058715)"><circle class="b-outline" cx="0" cy="0" r="25" fill="#F79767" stroke="#f36924" stroke-width="2px"/><text class="caption" text-anchor="middle" pointer-events="none" x="0" y="5" font-size="10px" fill="#FFFFFF" font-family="Helvetica Neue, Helvetica, Arial, sans-serif"> compart…</text></g><g class="node" aria-label="graph-node-8" transform="translate(124.73061101802024,78.23281815888402)"><circle class="b-outline" cx="0" cy="0" r="25" fill="#569480" stroke="#447666" stroke-width="2px"/><text class="caption" text-anchor="middle" pointer-events="none" x="0" y="5" font-size="10px" fill="#FFFFFF" font-family="Helvetica Neue, Helvetica, Arial, sans-serif"> Parameter</text></g><g class="node" aria-label="graph-node-3" transform="translate(-27.876545205753605,135.2779098340607)"><circle class="b-outline" cx="0" cy="0" r="25" fill="#57C7E3" stroke="#23b3d7" stroke-width="2px"/><text class="caption" text-anchor="middle" pointer-events="none" x="0" y="5" font-size="10px" fill="#2A2C34" font-family="Helvetica Neue, Helvetica, Arial, sans-serif"> model</text></g><g class="node" aria-label="graph-node-6" transform="translate(-96.94295520898223,-8.441648049545336)"><circle class="b-outline" cx="0" cy="0" r="25" fill="#4C8EDA" stroke="#2870c2" stroke-width="2px"/><text class="caption" text-anchor="middle" pointer-events="none" x="0" y="5" font-size="10px" fill="#FFFFFF" font-family="Helvetica Neue, Helvetica, Arial, sans-serif"> Reaction</text></g><g class="node" aria-label="graph-node-5" transform="translate(-232.88555741433717,-57.06665923952425)"><circle class="b-outline" cx="0" cy="0" r="25" fill="#ECB5C9" stroke="#da7298" stroke-width="2px"/><text class="caption" text-anchor="middle" pointer-events="none" x="0" y="5" font-size="10px" fill="#2A2C34" font-family="Helvetica Neue, Helvetica, Arial, sans-serif"> Species</text></g><g class="node" aria-label="graph-node-7" transform="translate(52.4333766876874,-65.68865931423557)"><circle class="b-outline" cx="0" cy="0" r="25" fill="#FFC454" stroke="#d7a013" stroke-width="2px"/><text class="caption" text-anchor="middle" pointer-events="none" x="0" y="5" font-size="10px" fill="#2A2C34" font-family="Helvetica Neue, Helvetica, Arial, sans-serif"> KineticL…</text></g><g class="node" aria-label="graph-node-1" transform="translate(109.08894159071521,213.06088080449686)"><circle class="b-outline" cx="0" cy="0" r="25" fill="#D9C8AE" stroke="#c0a378" stroke-width="2px"/><text class="caption" text-anchor="middle" pointer-events="none" x="0" y="5" font-size="10px" fill="#2A2C34" font-family="Helvetica Neue, Helvetica, Arial, sans-serif"> UnitDefi…</text></g></g></svg>