<svg xmlns="http://www.w3.org/2000/svg" width="331.39129638671875" height="542.5996704101562" viewBox="-106.32734680175781 -273.012939453125 331.39129638671875 542.5996704101562"><title>Neo4j Graph Visualization</title><desc>Created using Neo4j (http://www.neo4j.com/)</desc><g class="layer relationships"><g class="relationship" transform="translate(-71.8832642636699 -101.69938269234449) rotate(326.1525931686883)"><path class="b-outline" fill="#A5ABB6" stroke="none" d="M 24.018736134675446,-6.953439040707552 L 24.277555179777966,-5.987513214418485 A 196.42493964612123 196.42493964612123 0 0 1 42.84465855669255,-10.011398445214553 L 42.68036469464654,-10.99780988416586 A 197.42493964612123 197.42493964612123 0 0 0 24.018736134675446,-6.953439040707552 Z M 103.12278758647213,-11.683917054241448 L 102.98092750970895,-10.694030334146277 A 196.42493964612123 196.42493964612123 0 0 1 121.63458841861339,-7.092653534190288 L 120.92411064513239,-4.17799723654738 L 128.55386607536033,-5.920648112341748 L 122.58189211658807,-10.978861931047499 L 121.87141434310706,-8.06420563340459 A 197.42493964612123 197.42493964612123 0 0 0 103.12278758647213,-11.683917054241448"/><text text-anchor="middle" pointer-events="none" font-size="8px" fill="#000000" x="72.88083731512627" y="-10.167844605352656" font-family="Helvetica Neue, Helvetica, Arial, sans-serif">IS_REACTANT</text></g><g class="relationship" transform="translate(66.06109325188186 -36.5682603923106) rotate(265.81125488658563)"><path class="b-outline" fill="#A5ABB6" stroke="none" d="M 25 0.5 L 37.71498054030806 0.5 L 37.71498054030806 -0.5 L 25 -0.5 Z M 105.94935554030806 0.5 L 118.66433608061612 0.5 L 118.66433608061612 3.5 L 125.66433608061612 0 L 118.66433608061612 -3.5 L 118.66433608061612 -0.5 L 105.94935554030806 -0.5 Z"/><text text-anchor="middle" pointer-events="none" font-size="8px" fill="#000000" x="71.83216804030806" y="3" transform="rotate(180 71.83216804030806 0)" font-family="Helvetica Neue, Helvetica, Arial, sans-serif">HAS_REACTION</text></g><g class="relationship" transform="translate(196.0639282438994 35.146180639486936) rotate(506.4019575550987)"><path class="b-outline" fill="#A5ABB6" stroke="none" d="M 25 0.5 L 43.373777691678896 0.5 L 43.373777691678896 -0.5 L 25 -0.5 Z M 94.2722151916789 0.5 L 112.64599288335779 0.5 L 112.64599288335779 3.5 L 119.64599288335779 0 L 112.64599288335779 -3.5 L 112.64599288335779 -0.5 L 94.2722151916789 -0.5 Z"/><text text-anchor="middle" pointer-events="none" font-size="8px" fill="#000000" x="68.8229964416789" y="3" transform="rotate(180 68.8229964416789 0)" font-family="Helvetica Neue, Helvetica, Arial, sans-serif">HAS_UNITS</text></g><g class="relationship" transform="translate(66.06109325188186 -36.5682603923106) rotate(510.83518263698346)"><path class="b-outline" fill="#A5ABB6" stroke="none" d="M 25 0.5 L 28.958486486463045 0.5 L 28.958486486463045 -0.5 L 25 -0.5 Z M 117.79051773646304 0.5 L 121.74900422292609 0.5 L 121.74900422292609 3.5 L 128.7490042229261 0 L 121.74900422292609 -3.5 L 121.74900422292609 -0.5 L 117.79051773646304 -0.5 Z"/><text text-anchor="middle" pointer-events="none" font-size="8px" fill="#000000" x="73.37450211146304" y="3" transform="rotate(180 73.37450211146304 0)" font-family="Helvetica Neue, Helvetica, Arial, sans-serif">HAS_COMPARTMENT</text></g><g class="relationship" transform="translate(66.06109325188186 -36.5682603923106) rotate(388.8827767787389)"><path class="b-outline" fill="#A5ABB6" stroke="none" d="M 25 0.5 L 32.68872656431836 0.5 L 32.68872656431836 -0.5 L 25 -0.5 Z M 108.78247656431836 0.5 L 116.47120312863672 0.5 L 116.47120312863672 3.5 L 123.47120312863672 0 L 116.47120312863672 -3.5 L 116.47120312863672 -0.5 L 108.78247656431836 -0.5 Z"/><text text-anchor="middle" pointer-events="none" font-size="8px" fill="#000000" x="70.73560156431836" y="3" font-family="Helvetica Neue, Helvetica, Arial, sans-serif">HAS_PARAMETER</text></g><g class="relationship" transform="translate(66.06109325188186 -36.5682603923106) rotate(446.40989437058715)"><path class="b-outline" fill="#A5ABB6" stroke="none" d="M 25 0.5 L 27.08003104081682 0.5 L 27.08003104081682 -0.5 L 25 -0.5 Z M 117.97456229081682 0.5 L 120.05459333163364 0.5 L 120.05459333163364 3.5 L 127.05459333163364 0 L 120.05459333163364 -3.5 L 120.05459333163364 -0.5 L 117.97456229081682 -0.5 Z"/><text text-anchor="middle" pointer-events="none" font-size="8px" fill="#000000" x="72.52729666581682" y="3" font-family="Helvetica Neue, Helvetica, Arial, sans-serif">HAS_UNITDEFINITION</text></g><g class="relationship" transform="translate(55.05622536154031 -186.83014860528687) rotate(506.1525931686883)"><path class="b-outline" fill="#A5ABB6" stroke="none" d="M 24.018736134675446,-6.953439040707552 L 24.277555179777966,-5.987513214418485 A 196.42493964612123 196.42493964612123 0 0 1 39.93512933193033,-9.504286535171275 L 39.756023047235736,-10.488116265756247 A 197.42493964612123 197.42493964612123 0 0 0 24.018736134675446,-6.953439040707552 Z M 106.05794569993901,-11.240737063291647 L 105.9012184127883,-10.253095145660382 A 196.42493964612123 196.42493964612123 0 0 1 121.63458841861339,-7.092653534190288 L 120.92411064513239,-4.17799723654738 L 128.55386607536033,-5.920648112341748 L 122.58189211658807,-10.978861931047499 L 121.87141434310706,-8.06420563340459 A 197.42493964612123 197.42493964612123 0 0 0 106.05794569993901,-11.240737063291647"/><text text-anchor="middle" pointer-events="none" font-size="8px" fill="#000000" x="72.88083731512627" y="-10.167844605352656" transform="rotate(180 72.88083731512627 -13.167844605352656)" font-family="Helvetica Neue, Helvetica, Arial, sans-serif">HAS_PRODUCT</text></g><g class="relationship" transform="translate(66.06109325188186 -36.5682603923106) rotate(205.274574292885)"><path class="b-outline" fill="#A5ABB6" stroke="none" d="M 25 0.5 L 41.98463687016353 0.5 L 41.98463687016353 -0.5 L 25 -0.5 Z M 103.56276187016353 0.5 L 120.54739874032705 0.5 L 120.54739874032705 3.5 L 127.54739874032705 0 L 120.54739874032705 -3.5 L 120.54739874032705 -0.5 L 103.56276187016353 -0.5 Z"/><text text-anchor="middle" pointer-events="none" font-size="8px" fill="#000000" x="72.77369937016353" y="3" transform="rotate(180 72.77369937016353 0)" font-family="Helvetica Neue, Helvetica, Arial, sans-serif">HAS_SPECIES</text></g><g class="relationship" transform="translate(-71.8832642636699 -101.69938269234449) rotate(448.4918598722406)"><path class="b-outline" fill="#A5ABB6" stroke="none" d="M 25 0.5 L 26.361176438968045 0.5 L 26.361176438968045 -0.5 L 25 -0.5 Z M 106.74398893896804 0.5 L 108.10516537793609 0.5 L 108.10516537793609 3.5 L 115.10516537793609 0 L 108.10516537793609 -3.5 L 108.10516537793609 -0.5 L 106.74398893896804 -0.5 Z"/><text text-anchor="middle" pointer-events="none" font-size="8px" fill="#000000" x="66.55258268896804" y="3" font-family="Helvetica Neue, Helvetica, Arial, sans-serif">IN_COMPARTMENT</text></g><g class="relationship" transform="translate(55.05622536154031 -186.83014860528687) rotate(203.36182340606854)"><path class="b-outline" fill="#A5ABB6" stroke="none" d="M 25 0.5 L 29.296206332091927 0.5 L 29.296206332091927 -0.5 L 25 -0.5 Z M 107.90948758209193 0.5 L 112.20569391418385 0.5 L 112.20569391418385 3.5 L 119.20569391418385 0 L 112.20569391418385 -3.5 L 112.20569391418385 -0.5 L 107.90948758209193 -0.5 Z"/><text text-anchor="middle" pointer-events="none" font-size="8px" fill="#000000" x="68.60284695709193" y="3" transform="rotate(180 68.60284695709193 0)" font-family="Helvetica Neue, Helvetica, Arial, sans-serif">HAS_KENETICLAW</text></g><g class="relationship" transform="translate(75.58247362833826 115.18793443668251) rotate(478.8746634290531)"><path class="b-outline" fill="#A5ABB6" stroke="none" d="M 25 0.5 L 35.76110889402449 0.5 L 35.76110889402449 -0.5 L 25 -0.5 Z M 100.44079639402449 0.5 L 111.20190528804898 0.5 L 111.20190528804898 3.5 L 118.20190528804898 0 L 111.20190528804898 -3.5 L 111.20190528804898 -0.5 L 100.44079639402449 -0.5 Z"/><text text-anchor="middle" pointer-events="none" font-size="8px" fill="#000000" x="68.10095264402449" y="3" transform="rotate(180 68.10095264402449 0)" font-family="Helvetica Neue, Helvetica, Arial, sans-serif">IS_COMPOSED</text></g></g><g class="layer nodes"><g class="node" aria-label="graph-node-4" transform="translate(6.430960957165275,240.5867142290551)"><circle class="b-outline" cx="0" cy="0" r="25" fill="#F16667" stroke="#eb2728" stroke-width="2px"/><text class="caption" text-anchor="middle" pointer-events="none" x="0" y="5" font-size="10px" fill="#FFFFFF" font-family="Helvetica Neue, Helvetica, Arial, sans-serif"> unit</text></g><g class="node" aria-label="graph-node-2" transform="translate(-68.19584042455149,38.35724967831307)"><circle class="b-outline" cx="0" cy="0" r="25" fill="#F79767" stroke="#f36924" stroke-width="2px"/><text class="caption" text-anchor="middle" pointer-events="none" x="0" y="5" font-size="10px" fill="#FFFFFF" font-family="Helvetica Neue, Helvetica, Arial, sans-serif"> compart…</text></g><g class="node" aria-label="graph-node-8" transform="translate(196.0639282438994,35.146180639486936)"><circle class="b-outline" cx="0" cy="0" r="25" fill="#569480" stroke="#447666" stroke-width="2px"/><text class="caption" text-anchor="middle" pointer-events="none" x="0" y="5" font-size="10px" fill="#FFFFFF" font-family="Helvetica Neue, Helvetica, Arial, sans-serif"> Parameter</text></g><g class="node" aria-label="graph-node-3" transform="translate(66.06109325188186,-36.5682603923106)"><circle class="b-outline" cx="0" cy="0" r="25" fill="#57C7E3" stroke="#23b3d7" stroke-width="2px"/><text class="caption" text-anchor="middle" pointer-events="none" x="0" y="5" font-size="10px" fill="#2A2C34" font-family="Helvetica Neue, Helvetica, Arial, sans-serif"> model</text></g><g class="node" aria-label="graph-node-6" transform="translate(55.05622536154031,-186.83014860528687)"><circle class="b-outline" cx="0" cy="0" r="25" fill="#4C8EDA" stroke="#2870c2" stroke-width="2px"/><text class="caption" text-anchor="middle" pointer-events="none" x="0" y="5" font-size="10px" fill="#FFFFFF" font-family="Helvetica Neue, Helvetica, Arial, sans-serif"> Reaction</text></g><g class="node" aria-label="graph-node-5" transform="translate(-71.8832642636699,-101.69938269234449)"><circle class="b-outline" cx="0" cy="0" r="25" fill="#ECB5C9" stroke="#da7298" stroke-width="2px"/><text class="caption" text-anchor="middle" pointer-events="none" x="0" y="5" font-size="10px" fill="#2A2C34" font-family="Helvetica Neue, Helvetica, Arial, sans-serif"> Species</text></g><g class="node" aria-label="graph-node-7" transform="translate(-77.32734797155484,-244.012940324757)"><circle class="b-outline" cx="0" cy="0" r="25" fill="#FFC454" stroke="#d7a013" stroke-width="2px"/><text class="caption" text-anchor="middle" pointer-events="none" x="0" y="5" font-size="10px" fill="#2A2C34" font-family="Helvetica Neue, Helvetica, Arial, sans-serif"> KineticL…</text></g><g class="node" aria-label="graph-node-1" transform="translate(75.58247362833826,115.18793443668251)"><circle class="b-outline" cx="0" cy="0" r="25" fill="#D9C8AE" stroke="#c0a378" stroke-width="2px"/><text class="caption" text-anchor="middle" pointer-events="none" x="0" y="5" font-size="10px" fill="#2A2C34" font-family="Helvetica Neue, Helvetica, Arial, sans-serif"> UnitDefi…</text></g></g></svg>