<svg xmlns="http://www.w3.org/2000/svg" width="289.6185302734375" height="274.7599182128906" viewBox="-195.60328674316406 -187.23231506347656 289.6185302734375 274.7599182128906"><title>Neo4j Graph Visualization</title><desc>Created using Neo4j (http://www.neo4j.com/)</desc><g class="layer relationships"><g class="relationship" transform="translate(-66.1653562738085 -83.9025544893098) rotate(386.21072300723796)"><path class="b-outline" fill="#A5ABB6" stroke="none" d="M 25 0.5 L 25.191506881796897 0.5 L 25.191506881796897 -0.5 L 25 -0.5 Z M 114.0235381317969 0.5 L 114.2150450135938 0.5 L 114.2150450135938 3.5 L 121.2150450135938 0 L 114.2150450135938 -3.5 L 114.2150450135938 -0.5 L 114.0235381317969 -0.5 Z"/><text text-anchor="middle" pointer-events="none" font-size="8px" fill="#000000" x="69.6075225067969" y="3" font-family="Helvetica Neue, Helvetica, Arial, sans-serif">HAS_COMPARTMENT</text></g><g class="relationship" transform="translate(-66.1653562738085 -83.9025544893098) rotate(328.91523699906554)"><path class="b-outline" fill="#A5ABB6" stroke="none" d="M 25 0.5 L 30.43546150593292 0.5 L 30.43546150593292 -0.5 L 25 -0.5 Z M 106.52921150593292 0.5 L 111.96467301186584 0.5 L 111.96467301186584 3.5 L 118.96467301186584 0 L 111.96467301186584 -3.5 L 111.96467301186584 -0.5 L 106.52921150593292 -0.5 Z"/><text text-anchor="middle" pointer-events="none" font-size="8px" fill="#000000" x="68.48233650593292" y="3" font-family="Helvetica Neue, Helvetica, Arial, sans-serif">HAS_PARAMETER</text></g><g class="relationship" transform="translate(-66.1653562738085 -83.9025544893098) rotate(494.2778599305884)"><path class="b-outline" fill="#A5ABB6" stroke="none" d="M 25 0.5 L 37.643586991390436 0.5 L 37.643586991390436 -0.5 L 25 -0.5 Z M 99.22171199139044 0.5 L 111.86529898278087 0.5 L 111.86529898278087 3.5 L 118.86529898278087 0 L 111.86529898278087 -3.5 L 111.86529898278087 -0.5 L 99.22171199139044 -0.5 Z"/><text text-anchor="middle" pointer-events="none" font-size="8px" fill="#000000" x="68.43264949139044" y="3" transform="rotate(180 68.43264949139044 0)" font-family="Helvetica Neue, Helvetica, Arial, sans-serif">HAS_SPECIES</text></g><g class="relationship" transform="translate(-66.1653562738085 -83.9025544893098) rotate(436.8252714476109)"><path class="b-outline" fill="#A5ABB6" stroke="none" d="M 25 0.5 L 35.147970452217464 0.5 L 35.147970452217464 -0.5 L 25 -0.5 Z M 104.13234545221746 0.5 L 114.28031590443493 0.5 L 114.28031590443493 3.5 L 121.28031590443493 0 L 114.28031590443493 -3.5 L 114.28031590443493 -0.5 L 104.13234545221746 -0.5 Z"/><text text-anchor="middle" pointer-events="none" font-size="8px" fill="#000000" x="69.64015795221746" y="3" font-family="Helvetica Neue, Helvetica, Arial, sans-serif">HAS_RATERULE</text></g></g><g class="layer nodes"><g class="node" aria-label="graph-node-4" transform="translate(-32.824937272966444,58.52759429229323)"><circle class="b-outline" cx="0" cy="0" r="25" fill="#A5ABB6" stroke="#9AA1AC" stroke-width="2px"/><text class="caption" text-anchor="middle" pointer-events="none" x="0" y="5" font-size="10px" fill="#FFFFFF" font-family="Helvetica Neue, Helvetica, Arial, sans-serif"> rateRule</text></g><g class="node" aria-label="graph-node-1" transform="translate(65.01523279394465,-19.323204537761494)"><circle class="b-outline" cx="0" cy="0" r="25" fill="#F79767" stroke="#f36924" stroke-width="2px"/><text class="caption" text-anchor="middle" pointer-events="none" x="0" y="5" font-size="10px" fill="#FFFFFF" font-family="Helvetica Neue, Helvetica, Arial, sans-serif"> compart…</text></g><g class="node" aria-label="graph-node-5" transform="translate(57.126625877084365,-158.2323211559513)"><circle class="b-outline" cx="0" cy="0" r="25" fill="#569480" stroke="#447666" stroke-width="2px"/><text class="caption" text-anchor="middle" pointer-events="none" x="0" y="5" font-size="10px" fill="#FFFFFF" font-family="Helvetica Neue, Helvetica, Arial, sans-serif"> Parameter</text></g><g class="node" aria-label="graph-node-2" transform="translate(-66.1653562738085,-83.9025544893098)"><circle class="b-outline" cx="0" cy="0" r="25" fill="#57C7E3" stroke="#23b3d7" stroke-width="2px"/><text class="caption" text-anchor="middle" pointer-events="none" x="0" y="5" font-size="10px" fill="#2A2C34" font-family="Helvetica Neue, Helvetica, Arial, sans-serif"> model</text></g><g class="node" aria-label="graph-node-3" transform="translate(-166.60328582631976,19.099613248120438)"><circle class="b-outline" cx="0" cy="0" r="25" fill="#ECB5C9" stroke="#da7298" stroke-width="2px"/><text class="caption" text-anchor="middle" pointer-events="none" x="0" y="5" font-size="10px" fill="#2A2C34" font-family="Helvetica Neue, Helvetica, Arial, sans-serif"> Species</text></g></g></svg>