<svg xmlns="http://www.w3.org/2000/svg" width="449.1391906738281" height="553.9942626953125" viewBox="-200.6126708984375 -271.12750244140625 449.1391906738281 553.9942626953125"><title>Neo4j Graph Visualization</title><desc>Created using Neo4j (http://www.neo4j.com/)</desc><g class="layer relationships"><g class="relationship" transform="translate(64.97482291729166 -237.27595898549504) rotate(535.0901785658322)"><path class="b-outline" fill="#A5ABB6" stroke="none" d="M 21.40063509461097,-12.933012701892217 L 21.90063509461097,-12.06698729810778 A 111.92539237383936 111.92539237383936 0 0 1 45.803937336488936,-22.37242322994568 L 45.51750194175777,-23.330522788783483 A 112.92539237383936 112.92539237383936 0 0 0 21.40063509461097,-12.933012701892217 Z M 105.572602820187,-24.609766891946023 L 105.32722601913126,-23.640339109435303 A 111.92539237383936 111.92539237383936 0 0 1 129.64768296418862,-14.362125822632995 L 128.25967751026016,-11.702531707008433 L 136.08473680963402,-11.566712116070638 L 131.49835690275992,-17.90825131013241 L 130.11035144883147,-15.248657194507848 A 112.92539237383936 112.92539237383936 0 0 0 105.572602820187,-24.609766891946023"/><text text-anchor="middle" pointer-events="none" font-size="8px" fill="#000000" x="75.46908165238686" y="-24.53664927664245" transform="rotate(180 75.46908165238686 -27.53664927664245)" font-family="Helvetica Neue, Helvetica, Arial, sans-serif">IS_REACTANT</text></g><g class="relationship" transform="translate(97.08316908977945 22.856331074341714) rotate(392.16431912000075)"><path class="b-outline" fill="#A5ABB6" stroke="none" d="M 25 0.5 L 27.368049867855916 0.5 L 27.368049867855916 -0.5 L 25 -0.5 Z M 110.27429986785592 0.5 L 112.64234973571183 0.5 L 112.64234973571183 3.5 L 119.64234973571183 0 L 112.64234973571183 -3.5 L 112.64234973571183 -0.5 L 110.27429986785592 -0.5 Z"/><text text-anchor="middle" pointer-events="none" font-size="8px" fill="#000000" x="68.82117486785592" y="3" font-family="Helvetica Neue, Helvetica, Arial, sans-serif">HAS_ASSIGNMEN…</text></g><g class="relationship" transform="translate(-92.6925291821482 -223.73187296700675) rotate(355.09017856583216)"><path class="b-outline" fill="#A5ABB6" stroke="none" d="M 25 0.5 L 50.401354303252674 0.5 L 50.401354303252674 -0.5 L 25 -0.5 Z M 100.84666680325267 0.5 L 126.24802110650535 0.5 L 126.24802110650535 3.5 L 133.24802110650535 0 L 126.24802110650535 -3.5 L 126.24802110650535 -0.5 L 100.84666680325267 -0.5 Z"/><text text-anchor="middle" pointer-events="none" font-size="8px" fill="#000000" x="75.62401055325267" y="3" font-family="Helvetica Neue, Helvetica, Arial, sans-serif">MODIFIERS</text></g><g class="relationship" transform="translate(-68.84218594557899 29.914005196617573) rotate(414.46488451040614)"><path class="b-outline" fill="#A5ABB6" stroke="none" d="M 25 0.5 L 46.27999933550706 0.5 L 46.27999933550706 -0.5 L 25 -0.5 Z M 97.17843683550706 0.5 L 118.45843617101411 0.5 L 118.45843617101411 3.5 L 125.45843617101411 0 L 118.45843617101411 -3.5 L 118.45843617101411 -0.5 L 97.17843683550706 -0.5 Z"/><text text-anchor="middle" pointer-events="none" font-size="8px" fill="#000000" x="71.72921808550706" y="3" font-family="Helvetica Neue, Helvetica, Arial, sans-serif">HAS_UNITS</text></g><g class="relationship" transform="translate(97.08316908977945 22.856331074341714) rotate(296.48069594703566)"><path class="b-outline" fill="#A5ABB6" stroke="none" d="M 25 0.5 L 30.53744749907615 0.5 L 30.53744749907615 -0.5 L 25 -0.5 Z M 119.36947874907615 0.5 L 124.9069262481523 0.5 L 124.9069262481523 3.5 L 131.9069262481523 0 L 124.9069262481523 -3.5 L 124.9069262481523 -0.5 L 119.36947874907615 -0.5 Z"/><text text-anchor="middle" pointer-events="none" font-size="8px" fill="#000000" x="74.95346312407615" y="3" font-family="Helvetica Neue, Helvetica, Arial, sans-serif">HAS_COMPARTMENT</text></g><g class="relationship" transform="translate(-171.61267419756064 -88.73139003818405) rotate(409.10093172798923)"><path class="b-outline" fill="#A5ABB6" stroke="none" d="M 25 0.5 L 36.93640835698784 0.5 L 36.93640835698784 -0.5 L 25 -0.5 Z M 113.03015835698784 0.5 L 124.96656671397568 0.5 L 124.96656671397568 3.5 L 131.96656671397568 0 L 124.96656671397568 -3.5 L 124.96656671397568 -0.5 L 113.03015835698784 -0.5 Z"/><text text-anchor="middle" pointer-events="none" font-size="8px" fill="#000000" x="74.98328335698784" y="3" font-family="Helvetica Neue, Helvetica, Arial, sans-serif">HAS_PARAMETER</text></g><g class="relationship" transform="translate(97.08316908977945 22.856331074341714) rotate(537.5643786725441)"><path class="b-outline" fill="#A5ABB6" stroke="none" d="M 25 0.5 L 41.49081856085523 0.5 L 41.49081856085523 -0.5 L 25 -0.5 Z M 117.58456856085523 0.5 L 134.07538712171046 0.5 L 134.07538712171046 3.5 L 141.07538712171046 0 L 134.07538712171046 -3.5 L 134.07538712171046 -0.5 L 117.58456856085523 -0.5 Z"/><text text-anchor="middle" pointer-events="none" font-size="8px" fill="#000000" x="79.53769356085523" y="3" transform="rotate(180 79.53769356085523 0)" font-family="Helvetica Neue, Helvetica, Arial, sans-serif">HAS_PARAMETER</text></g><g class="relationship" transform="translate(97.08316908977945 22.856331074341714) rotate(232.08990703409546)"><path class="b-outline" fill="#A5ABB6" stroke="none" d="M 25 0.5 L 27.339610770472675 0.5 L 27.339610770472675 -0.5 L 25 -0.5 Z M 108.03101702047267 0.5 L 110.37062779094535 0.5 L 110.37062779094535 3.5 L 117.37062779094535 0 L 110.37062779094535 -3.5 L 110.37062779094535 -0.5 L 108.03101702047267 -0.5 Z"/><text text-anchor="middle" pointer-events="none" font-size="8px" fill="#000000" x="67.68531389547267" y="3" transform="rotate(180 67.68531389547267 0)" font-family="Helvetica Neue, Helvetica, Arial, sans-serif">HAS_ALGEBRAIC…</text></g><g class="relationship" transform="translate(97.08316908977945 22.856331074341714) rotate(481.2174430962724)"><path class="b-outline" fill="#A5ABB6" stroke="none" d="M 25 0.5 L 26.762313603044547 0.5 L 26.762313603044547 -0.5 L 25 -0.5 Z M 117.65684485304455 0.5 L 119.4191584560891 0.5 L 119.4191584560891 3.5 L 126.4191584560891 0 L 119.4191584560891 -3.5 L 119.4191584560891 -0.5 L 117.65684485304455 -0.5 Z"/><text text-anchor="middle" pointer-events="none" font-size="8px" fill="#000000" x="72.20957922804455" y="3" transform="rotate(180 72.20957922804455 0)" font-family="Helvetica Neue, Helvetica, Arial, sans-serif">HAS_UNITDEFINITION</text></g><g class="relationship" transform="translate(-92.6925291821482 -223.73187296700675) rotate(355.09017856583216)"><path class="b-outline" fill="#A5ABB6" stroke="none" d="M 21.40063509461097,-12.933012701892217 L 21.90063509461097,-12.06698729810778 A 111.92539237383936 111.92539237383936 0 0 1 42.991125685149434,-21.490986505598897 L 42.679559159834916,-22.441210847690513 A 112.92539237383936 112.92539237383936 0 0 0 21.40063509461097,-12.933012701892217 Z M 108.44584098629849,-23.842109805195165 L 108.17502049976413,-22.87947993651599 A 111.92539237383936 111.92539237383936 0 0 1 129.64768296418862,-14.362125822632995 L 128.25967751026016,-11.702531707008433 L 136.08473680963402,-11.566712116070638 L 131.49835690275992,-17.90825131013241 L 130.11035144883147,-15.248657194507848 A 112.92539237383936 112.92539237383936 0 0 0 108.44584098629849,-23.842109805195165"/><text text-anchor="middle" pointer-events="none" font-size="8px" fill="#000000" x="75.46908165238686" y="-24.53664927664245" font-family="Helvetica Neue, Helvetica, Arial, sans-serif">HAS_PRODUCT</text></g><g class="relationship" transform="translate(64.97482291729166 -237.27595898549504) rotate(409.5415625127229)"><path class="b-outline" fill="#A5ABB6" stroke="none" d="M 25 0.5 L 34.959498754795106 0.5 L 34.959498754795106 -0.5 L 25 -0.5 Z M 115.3423112547951 0.5 L 125.30181000959021 0.5 L 125.30181000959021 3.5 L 132.3018100095902 0 L 125.30181000959021 -3.5 L 125.30181000959021 -0.5 L 115.3423112547951 -0.5 Z"/><text text-anchor="middle" pointer-events="none" font-size="8px" fill="#000000" x="75.1509050047951" y="3" font-family="Helvetica Neue, Helvetica, Arial, sans-serif">IN_COMPARTMENT</text></g><g class="relationship" transform="translate(-92.6925291821482 -223.73187296700675) rotate(480.31019653390956)"><path class="b-outline" fill="#A5ABB6" stroke="none" d="M 25 0.5 L 35.38146537627918 0.5 L 35.38146537627918 -0.5 L 25 -0.5 Z M 113.99474662627918 0.5 L 124.37621200255836 0.5 L 124.37621200255836 3.5 L 131.37621200255836 0 L 124.37621200255836 -3.5 L 124.37621200255836 -0.5 L 113.99474662627918 -0.5 Z"/><text text-anchor="middle" pointer-events="none" font-size="8px" fill="#000000" x="74.68810600127918" y="3" transform="rotate(180 74.68810600127918 0)" font-family="Helvetica Neue, Helvetica, Arial, sans-serif">HAS_KENETICLAW</text></g><g class="relationship" transform="translate(18.60452835507495 152.3509815274913) rotate(494.70882604498325)"><path class="b-outline" fill="#A5ABB6" stroke="none" d="M 25 0.5 L 35.5806007253417 0.5 L 35.5806007253417 -0.5 L 25 -0.5 Z M 100.2602882253417 0.5 L 110.8408889506834 0.5 L 110.8408889506834 3.5 L 117.8408889506834 0 L 110.8408889506834 -3.5 L 110.8408889506834 -0.5 L 100.2602882253417 -0.5 Z"/><text text-anchor="middle" pointer-events="none" font-size="8px" fill="#000000" x="67.9204444753417" y="3" transform="rotate(180 67.9204444753417 0)" font-family="Helvetica Neue, Helvetica, Arial, sans-serif">IS_COMPOSED</text></g></g><g class="layer nodes"><g class="node" aria-label="graph-node-9" transform="translate(219.52651251836312,99.8565712499275)"><circle class="b-outline" cx="0" cy="0" r="25" fill="#A5ABB6" stroke="#9AA1AC" stroke-width="2px"/><text class="caption" text-anchor="middle" pointer-events="none" x="0" y="5" font-size="10px" fill="#FFFFFF" font-family="Helvetica Neue, Helvetica, Arial, sans-serif"> assignm…</text></g><g class="node" aria-label="graph-node-4" transform="translate(-81.88463531581623,253.86673173870884)"><circle class="b-outline" cx="0" cy="0" r="25" fill="#F16667" stroke="#eb2728" stroke-width="2px"/><text class="caption" text-anchor="middle" pointer-events="none" x="0" y="5" font-size="10px" fill="#FFFFFF" font-family="Helvetica Neue, Helvetica, Arial, sans-serif"> unit</text></g><g class="node" aria-label="graph-node-2" transform="translate(167.0473817933247,-117.58864906171078)"><circle class="b-outline" cx="0" cy="0" r="25" fill="#F79767" stroke="#f36924" stroke-width="2px"/><text class="caption" text-anchor="middle" pointer-events="none" x="0" y="5" font-size="10px" fill="#FFFFFF" font-family="Helvetica Neue, Helvetica, Arial, sans-serif"> compart…</text></g><g class="node" aria-label="graph-node-8" transform="translate(-68.84218594557899,29.914005196617573)"><circle class="b-outline" cx="0" cy="0" r="25" fill="#569480" stroke="#447666" stroke-width="2px"/><text class="caption" text-anchor="middle" pointer-events="none" x="0" y="5" font-size="10px" fill="#FFFFFF" font-family="Helvetica Neue, Helvetica, Arial, sans-serif"> Parameter</text></g><g class="node" aria-label="graph-node-3" transform="translate(97.08316908977945,22.856331074341714)"><circle class="b-outline" cx="0" cy="0" r="25" fill="#57C7E3" stroke="#23b3d7" stroke-width="2px"/><text class="caption" text-anchor="middle" pointer-events="none" x="0" y="5" font-size="10px" fill="#2A2C34" font-family="Helvetica Neue, Helvetica, Arial, sans-serif"> model</text></g><g class="node" aria-label="graph-node-6" transform="translate(-92.6925291821482,-223.73187296700675)"><circle class="b-outline" cx="0" cy="0" r="25" fill="#4C8EDA" stroke="#2870c2" stroke-width="2px"/><text class="caption" text-anchor="middle" pointer-events="none" x="0" y="5" font-size="10px" fill="#FFFFFF" font-family="Helvetica Neue, Helvetica, Arial, sans-serif"> Reaction</text></g><g class="node" aria-label="graph-node-5" transform="translate(64.97482291729166,-237.27595898549504)"><circle class="b-outline" cx="0" cy="0" r="25" fill="#ECB5C9" stroke="#da7298" stroke-width="2px"/><text class="caption" text-anchor="middle" pointer-events="none" x="0" y="5" font-size="10px" fill="#2A2C34" font-family="Helvetica Neue, Helvetica, Arial, sans-serif"> Species</text></g><g class="node" aria-label="graph-node-7" transform="translate(-171.61267419756064,-88.73139003818405)"><circle class="b-outline" cx="0" cy="0" r="25" fill="#FFC454" stroke="#d7a013" stroke-width="2px"/><text class="caption" text-anchor="middle" pointer-events="none" x="0" y="5" font-size="10px" fill="#2A2C34" font-family="Helvetica Neue, Helvetica, Arial, sans-serif"> KineticL…</text></g><g class="node" aria-label="graph-node-1" transform="translate(18.60452835507495,152.3509815274913)"><circle class="b-outline" cx="0" cy="0" r="25" fill="#D9C8AE" stroke="#c0a378" stroke-width="2px"/><text class="caption" text-anchor="middle" pointer-events="none" x="0" y="5" font-size="10px" fill="#2A2C34" font-family="Helvetica Neue, Helvetica, Arial, sans-serif"> UnitDefi…</text></g><g class="node" aria-label="graph-node-10" transform="translate(9.60721113652722,-89.4706578363771)"><circle class="b-outline" cx="0" cy="0" r="25" fill="#A5ABB6" stroke="#9AA1AC" stroke-width="2px"/><text class="caption" text-anchor="middle" pointer-events="none" x="0" y="5" font-size="10px" fill="#FFFFFF" font-family="Helvetica Neue, Helvetica, Arial, sans-serif"> algebrai…</text></g></g></svg>