<svg xmlns="http://www.w3.org/2000/svg" width="607.5994262695312" height="512.7796630859375" viewBox="-314.85284423828125 -223.20201110839844 607.5994262695312 512.7796630859375"><title>Neo4j Graph Visualization</title><desc>Created using Neo4j (http://www.neo4j.com/)</desc><g class="layer relationships"><g class="relationship" transform="translate(-88.49519000348906 -184.67536249915793) rotate(183.79571526713409)"><path class="b-outline" fill="#A5ABB6" stroke="none" d="M 24.018736134675446,-6.953439040707552 L 24.277555179777966,-5.987513214418485 A 178.85267190613592 178.85267190613592 0 0 1 38.41207902745335,-9.167362708322315 L 38.23228884838361,-10.151067690270708 A 179.85267190613592 179.85267190613592 0 0 0 24.018736134675446,-6.953439040707552 Z M 98.64024573218742,-10.877443261198664 L 98.48416124093072,-9.889699553757765 A 178.85267190613592 178.85267190613592 0 0 1 112.69105945131777,-7.050641533201318 L 111.98450540212471,-4.135031584053646 L 119.61190834086119,-5.887950409942129 L 113.63313151690852,-10.938121465398215 L 112.92657746771546,-8.022511516250542 A 179.85267190613592 179.85267190613592 0 0 0 98.64024573218742,-10.877443261198664"/><text text-anchor="middle" pointer-events="none" font-size="8px" fill="#000000" x="68.41156235091651" y="-9.568805452289979" transform="rotate(180 68.41156235091651 -12.568805452289979)" font-family="Helvetica Neue, Helvetica, Arial, sans-serif">IS_REACTANT</text></g><g class="relationship" transform="translate(263.74654269414117 117.73379259410558) rotate(528.4587766111795)"><path class="b-outline" fill="#A5ABB6" stroke="none" d="M 25 0.5 L 43.378792155195754 0.5 L 43.378792155195754 -0.5 L 25 -0.5 Z M 94.27722965519575 0.5 L 112.65602181039151 0.5 L 112.65602181039151 3.5 L 119.65602181039151 0 L 112.65602181039151 -3.5 L 112.65602181039151 -0.5 L 94.27722965519575 -0.5 Z"/><text text-anchor="middle" pointer-events="none" font-size="8px" fill="#000000" x="68.82801090519575" y="3" transform="rotate(180 68.82801090519575 0)" font-family="Helvetica Neue, Helvetica, Arial, sans-serif">HAS_UNITS</text></g><g class="relationship" transform="translate(181.27200395153122 0.025107237556578055) rotate(529.658168284632)"><path class="b-outline" fill="#A5ABB6" stroke="none" d="M 25 0.5 L 26.9670392718819 0.5 L 26.9670392718819 -0.5 L 25 -0.5 Z M 115.7990705218819 0.5 L 117.7661097937638 0.5 L 117.7661097937638 3.5 L 124.7661097937638 0 L 117.7661097937638 -3.5 L 117.7661097937638 -0.5 L 115.7990705218819 -0.5 Z"/><text text-anchor="middle" pointer-events="none" font-size="8px" fill="#000000" x="71.3830548968819" y="3" transform="rotate(180 71.3830548968819 0)" font-family="Helvetica Neue, Helvetica, Arial, sans-serif">HAS_COMPARTMENT</text></g><g class="relationship" transform="translate(181.27200395153122 0.025107237556578055) rotate(414.98235652986097)"><path class="b-outline" fill="#A5ABB6" stroke="none" d="M 25 0.5 L 30.316509538256554 0.5 L 30.316509538256554 -0.5 L 25 -0.5 Z M 106.41025953825655 0.5 L 111.72676907651311 0.5 L 111.72676907651311 3.5 L 118.72676907651311 0 L 111.72676907651311 -3.5 L 111.72676907651311 -0.5 L 106.41025953825655 -0.5 Z"/><text text-anchor="middle" pointer-events="none" font-size="8px" fill="#000000" x="68.36338453825655" y="3" font-family="Helvetica Neue, Helvetica, Arial, sans-serif">HAS_PARAMETER</text></g><g class="relationship" transform="translate(-99.88391771031107 -32.083110159501516) rotate(322.8198598417503)"><path class="b-outline" fill="#A5ABB6" stroke="none" d="M 25 0.5 L 26.379298327134578 0.5 L 26.379298327134578 -0.5 L 25 -0.5 Z M 112.85195457713458 0.5 L 114.23125290426916 0.5 L 114.23125290426916 3.5 L 121.23125290426916 0 L 114.23125290426916 -3.5 L 114.23125290426916 -0.5 L 112.85195457713458 -0.5 Z"/><text text-anchor="middle" pointer-events="none" font-size="8px" fill="#000000" x="69.61562645213458" y="3" font-family="Helvetica Neue, Helvetica, Arial, sans-serif">BELONGS_SPECIE…</text></g><g class="relationship" transform="translate(181.27200395153122 0.025107237556578055) rotate(472.0020357129647)"><path class="b-outline" fill="#A5ABB6" stroke="none" d="M 25 0.5 L 30.137666130875786 0.5 L 30.137666130875786 -0.5 L 25 -0.5 Z M 121.03219738087579 0.5 L 126.16986351175157 0.5 L 126.16986351175157 3.5 L 133.16986351175157 0 L 126.16986351175157 -3.5 L 126.16986351175157 -0.5 L 121.03219738087579 -0.5 Z"/><text text-anchor="middle" pointer-events="none" font-size="8px" fill="#000000" x="75.58493175587579" y="3" transform="rotate(180 75.58493175587579 0)" font-family="Helvetica Neue, Helvetica, Arial, sans-serif">HAS_UNITDEFINITION</text></g><g class="relationship" transform="translate(-232.08817300317722 -194.20201231689495) rotate(363.7957152671341)"><path class="b-outline" fill="#A5ABB6" stroke="none" d="M 24.018736134675446,-6.953439040707552 L 24.277555179777966,-5.987513214418485 A 178.85267190613592 178.85267190613592 0 0 1 35.51202391778827,-8.612548164779213 L 35.31601896776343,-9.593151070937353 A 179.85267190613592 179.85267190613592 0 0 0 24.018736134675446,-6.953439040707552 Z M 101.56908781453649,-10.389811199699409 L 101.39671864954484,-9.404778778425822 A 178.85267190613592 178.85267190613592 0 0 1 112.69105945131777,-7.050641533201318 L 111.98450540212471,-4.135031584053646 L 119.61190834086119,-5.887950409942129 L 113.63313151690852,-10.938121465398215 L 112.92657746771546,-8.022511516250542 A 179.85267190613592 179.85267190613592 0 0 0 101.56908781453649,-10.389811199699409"/><text text-anchor="middle" pointer-events="none" font-size="8px" fill="#000000" x="68.41156235091651" y="-9.568805452289979" font-family="Helvetica Neue, Helvetica, Arial, sans-serif">HAS_PRODUCT</text></g><g class="relationship" transform="translate(-88.49519000348906 -184.67536249915793) rotate(454.2683586311216)"><path class="b-outline" fill="#A5ABB6" stroke="none" d="M 25 0.5 L 42.21926808051508 0.5 L 42.21926808051508 -0.5 L 25 -0.5 Z M 103.79739308051508 0.5 L 121.01666116103016 0.5 L 121.01666116103016 3.5 L 128.01666116103016 0 L 121.01666116103016 -3.5 L 121.01666116103016 -0.5 L 103.79739308051508 -0.5 Z"/><text text-anchor="middle" pointer-events="none" font-size="8px" fill="#000000" x="73.00833058051508" y="3" transform="rotate(180 73.00833058051508 0)" font-family="Helvetica Neue, Helvetica, Arial, sans-serif">HAS_SPECIES</text></g><g class="relationship" transform="translate(-232.08817300317722 -194.20201231689495) rotate(471.76030320759565)"><path class="b-outline" fill="#A5ABB6" stroke="none" d="M 25 0.5 L 29.706347231278684 0.5 L 29.706347231278684 -0.5 L 25 -0.5 Z M 108.31962848127868 0.5 L 113.02597571255737 0.5 L 113.02597571255737 3.5 L 120.02597571255737 0 L 113.02597571255737 -3.5 L 113.02597571255737 -0.5 L 108.31962848127868 -0.5 Z"/><text text-anchor="middle" pointer-events="none" font-size="8px" fill="#000000" x="69.01298785627868" y="3" transform="rotate(180 69.01298785627868 0)" font-family="Helvetica Neue, Helvetica, Arial, sans-serif">HAS_KENETICLAW</text></g><g class="relationship" transform="translate(-99.88391771031107 -32.083110159501516) rotate(383.78974226851034)"><path class="b-outline" fill="#A5ABB6" stroke="none" d="M 25 0.5 L 29.433299721912547 0.5 L 29.433299721912547 -0.5 L 25 -0.5 Z M 109.81611222191255 0.5 L 114.2494119438251 0.5 L 114.2494119438251 3.5 L 121.2494119438251 0 L 114.2494119438251 -3.5 L 114.2494119438251 -0.5 L 109.81611222191255 -0.5 Z"/><text text-anchor="middle" pointer-events="none" font-size="8px" fill="#000000" x="69.62470597191255" y="3" font-family="Helvetica Neue, Helvetica, Arial, sans-serif">IN_COMPARTMENT</text></g><g class="relationship" transform="translate(122.01531968842123 146.675545673547) rotate(488.09286820075386)"><path class="b-outline" fill="#A5ABB6" stroke="none" d="M 25 0.5 L 36.52379197062399 0.5 L 36.52379197062399 -0.5 L 25 -0.5 Z M 101.20347947062399 0.5 L 112.72727144124798 0.5 L 112.72727144124798 3.5 L 119.72727144124798 0 L 112.72727144124798 -3.5 L 112.72727144124798 -0.5 L 101.20347947062399 -0.5 Z"/><text text-anchor="middle" pointer-events="none" font-size="8px" fill="#000000" x="68.86363572062399" y="3" transform="rotate(180 68.86363572062399 0)" font-family="Helvetica Neue, Helvetica, Arial, sans-serif">IS_COMPOSED</text></g></g><g class="layer nodes"><g class="node" aria-label="graph-node-4" transform="translate(32.72757818208815,260.57761903275724)"><circle class="b-outline" cx="0" cy="0" r="25" fill="#F16667" stroke="#eb2728" stroke-width="2px"/><text class="caption" text-anchor="middle" pointer-events="none" x="0" y="5" font-size="10px" fill="#FFFFFF" font-family="Helvetica Neue, Helvetica, Arial, sans-serif"> unit</text></g><g class="node" aria-label="graph-node-2" transform="translate(33.93895963012662,26.91119460155841)"><circle class="b-outline" cx="0" cy="0" r="25" fill="#F79767" stroke="#f36924" stroke-width="2px"/><text class="caption" text-anchor="middle" pointer-events="none" x="0" y="5" font-size="10px" fill="#FFFFFF" font-family="Helvetica Neue, Helvetica, Arial, sans-serif"> compart…</text></g><g class="node" aria-label="graph-node-8" transform="translate(263.74654269414117,117.73379259410558)"><circle class="b-outline" cx="0" cy="0" r="25" fill="#569480" stroke="#447666" stroke-width="2px"/><text class="caption" text-anchor="middle" pointer-events="none" x="0" y="5" font-size="10px" fill="#FFFFFF" font-family="Helvetica Neue, Helvetica, Arial, sans-serif"> Parameter</text></g><g class="node" aria-label="graph-node-10" transform="translate(16.624288267421967,-120.454017509163)"><circle class="b-outline" cx="0" cy="0" r="25" fill="#A5ABB6" stroke="#9AA1AC" stroke-width="2px"/><text class="caption" text-anchor="middle" pointer-events="none" x="0" y="5" font-size="10px" fill="#FFFFFF" font-family="Helvetica Neue, Helvetica, Arial, sans-serif"> Species…</text></g><g class="node" aria-label="graph-node-3" transform="translate(181.27200395153122,0.025107237556578055)"><circle class="b-outline" cx="0" cy="0" r="25" fill="#57C7E3" stroke="#23b3d7" stroke-width="2px"/><text class="caption" text-anchor="middle" pointer-events="none" x="0" y="5" font-size="10px" fill="#2A2C34" font-family="Helvetica Neue, Helvetica, Arial, sans-serif"> model</text></g><g class="node" aria-label="graph-node-5" transform="translate(-88.49519000348906,-184.67536249915793)"><circle class="b-outline" cx="0" cy="0" r="25" fill="#A5ABB6" stroke="#9AA1AC" stroke-width="2px"/><text class="caption" text-anchor="middle" pointer-events="none" x="0" y="5" font-size="10px" fill="#FFFFFF" font-family="Helvetica Neue, Helvetica, Arial, sans-serif"> species…</text></g><g class="node" aria-label="graph-node-6" transform="translate(-232.08817300317722,-194.20201231689495)"><circle class="b-outline" cx="0" cy="0" r="25" fill="#4C8EDA" stroke="#2870c2" stroke-width="2px"/><text class="caption" text-anchor="middle" pointer-events="none" x="0" y="5" font-size="10px" fill="#FFFFFF" font-family="Helvetica Neue, Helvetica, Arial, sans-serif"> Reaction</text></g><g class="node" aria-label="graph-node-7" transform="translate(-285.85284875188614,-59.51016670991147)"><circle class="b-outline" cx="0" cy="0" r="25" fill="#FFC454" stroke="#d7a013" stroke-width="2px"/><text class="caption" text-anchor="middle" pointer-events="none" x="0" y="5" font-size="10px" fill="#2A2C34" font-family="Helvetica Neue, Helvetica, Arial, sans-serif"> KineticL…</text></g><g class="node" aria-label="graph-node-9" transform="translate(-99.88391771031107,-32.083110159501516)"><circle class="b-outline" cx="0" cy="0" r="25" fill="#ECB5C9" stroke="#da7298" stroke-width="2px"/><text class="caption" text-anchor="middle" pointer-events="none" x="0" y="5" font-size="10px" fill="#2A2C34" font-family="Helvetica Neue, Helvetica, Arial, sans-serif"> Species</text></g><g class="node" aria-label="graph-node-1" transform="translate(122.01531968842123,146.675545673547)"><circle class="b-outline" cx="0" cy="0" r="25" fill="#D9C8AE" stroke="#c0a378" stroke-width="2px"/><text class="caption" text-anchor="middle" pointer-events="none" x="0" y="5" font-size="10px" fill="#2A2C34" font-family="Helvetica Neue, Helvetica, Arial, sans-serif"> UnitDefi…</text></g></g></svg>