<svg xmlns="http://www.w3.org/2000/svg" width="584.7116088867188" height="644.400634765625" viewBox="-374.5298767089844 -291.0555114746094 584.7116088867188 644.400634765625"><title>Neo4j Graph Visualization</title><desc>Created using Neo4j (http://www.neo4j.com/)</desc><g class="layer relationships"><g class="relationship" transform="translate(-3.06979296428132 -84.67207606581376) rotate(372.1685080343195)"><path class="b-outline" fill="#A5ABB6" stroke="none" d="M 25 0.5 L 39.56718685960726 0.5 L 39.56718685960726 -0.5 L 25 -0.5 Z M 128.39921810960726 0.5 L 142.96640496921452 0.5 L 142.96640496921452 3.5 L 149.96640496921452 0 L 142.96640496921452 -3.5 L 142.96640496921452 -0.5 L 128.39921810960726 -0.5 Z"/><text text-anchor="middle" pointer-events="none" font-size="8px" fill="#000000" x="83.98320248460726" y="3" font-family="Helvetica Neue, Helvetica, Arial, sans-serif">HAS_COMPARTMENT</text></g><g class="relationship" transform="translate(-116.983349261762 116.31801784346447) rotate(418.38721576374115)"><path class="b-outline" fill="#A5ABB6" stroke="none" d="M 25 0.5 L 62.870720869992724 0.5 L 62.870720869992724 -0.5 L 25 -0.5 Z M 127.55040836999272 0.5 L 165.42112923998545 0.5 L 165.42112923998545 3.5 L 172.42112923998545 0 L 165.42112923998545 -3.5 L 165.42112923998545 -0.5 L 127.55040836999272 -0.5 Z"/><text text-anchor="middle" pointer-events="none" font-size="8px" fill="#000000" x="95.21056461999272" y="3" font-family="Helvetica Neue, Helvetica, Arial, sans-serif">IS_COMPOSED</text></g><g class="relationship" transform="translate(-201.93891595141295 167.06469514736492) rotate(451.77665171081867)"><path class="b-outline" fill="#A5ABB6" stroke="none" d="M 25 0.5 L 42.83817539861087 0.5 L 42.83817539861087 -0.5 L 25 -0.5 Z M 107.51786289861087 0.5 L 125.35603829722174 0.5 L 125.35603829722174 3.5 L 132.35603829722174 0 L 125.35603829722174 -3.5 L 125.35603829722174 -0.5 L 107.51786289861087 -0.5 Z"/><text text-anchor="middle" pointer-events="none" font-size="8px" fill="#000000" x="75.17801914861087" y="3" transform="rotate(180 75.17801914861087 0)" font-family="Helvetica Neue, Helvetica, Arial, sans-serif">IS_COMPOSED</text></g><g class="relationship" transform="translate(-201.93891595141295 167.06469514736492) rotate(414.20431572333996)"><path class="b-outline" fill="#A5ABB6" stroke="none" d="M 25 0.5 L 40.01797862386124 0.5 L 40.01797862386124 -0.5 L 25 -0.5 Z M 104.69766612386124 0.5 L 119.71564474772248 0.5 L 119.71564474772248 3.5 L 126.71564474772248 0 L 119.71564474772248 -3.5 L 119.71564474772248 -0.5 L 104.69766612386124 -0.5 Z"/><text text-anchor="middle" pointer-events="none" font-size="8px" fill="#000000" x="72.35782237386124" y="3" font-family="Helvetica Neue, Helvetica, Arial, sans-serif">IS_COMPOSED</text></g><g class="relationship" transform="translate(-3.06979296428132 -84.67207606581376) rotate(479.54291851442025)"><path class="b-outline" fill="#A5ABB6" stroke="none" d="M 25 0.5 L 66.56606278129235 0.5 L 66.56606278129235 -0.5 L 25 -0.5 Z M 157.46059403129235 0.5 L 199.0266568125847 0.5 L 199.0266568125847 3.5 L 206.0266568125847 0 L 199.0266568125847 -3.5 L 199.0266568125847 -0.5 L 157.46059403129235 -0.5 Z"/><text text-anchor="middle" pointer-events="none" font-size="8px" fill="#000000" x="112.01332840629235" y="3" transform="rotate(180 112.01332840629235 0)" font-family="Helvetica Neue, Helvetica, Arial, sans-serif">HAS_UNITDEFINITION</text></g><g class="relationship" transform="translate(-3.06979296428132 -84.67207606581376) rotate(488.3083254764376)"><path class="b-outline" fill="#A5ABB6" stroke="none" d="M 25 0.5 L 111.45872713906971 0.5 L 111.45872713906971 -0.5 L 25 -0.5 Z M 202.3532583890697 0.5 L 288.8119855281394 0.5 L 288.8119855281394 3.5 L 295.8119855281394 0 L 288.8119855281394 -3.5 L 288.8119855281394 -0.5 L 202.3532583890697 -0.5 Z"/><text text-anchor="middle" pointer-events="none" font-size="8px" fill="#000000" x="156.9059927640697" y="3" transform="rotate(180 156.9059927640697 0)" font-family="Helvetica Neue, Helvetica, Arial, sans-serif">HAS_UNITDEFINITION</text></g><g class="relationship" transform="translate(-3.06979296428132 -84.67207606581376) rotate(338.1525562730378)"><path class="b-outline" fill="#A5ABB6" stroke="none" d="M 25 0.5 L 64.96532294058079 0.5 L 64.96532294058079 -0.5 L 25 -0.5 Z M 126.54344794058079 0.5 L 166.50877088116158 0.5 L 166.50877088116158 3.5 L 173.50877088116158 0 L 166.50877088116158 -3.5 L 166.50877088116158 -0.5 L 126.54344794058079 -0.5 Z"/><text text-anchor="middle" pointer-events="none" font-size="8px" fill="#000000" x="95.75438544058079" y="3" font-family="Helvetica Neue, Helvetica, Arial, sans-serif">HAS_SPECIES</text></g><g class="relationship" transform="translate(-3.06979296428132 -84.67207606581376) rotate(308.86196901948307)"><path class="b-outline" fill="#A5ABB6" stroke="none" d="M 25 0.5 L 42.67575600180179 0.5 L 42.67575600180179 -0.5 L 25 -0.5 Z M 104.25388100180179 0.5 L 121.92963700360357 0.5 L 121.92963700360357 3.5 L 128.92963700360357 0 L 121.92963700360357 -3.5 L 121.92963700360357 -0.5 L 104.25388100180179 -0.5 Z"/><text text-anchor="middle" pointer-events="none" font-size="8px" fill="#000000" x="73.46481850180179" y="3" font-family="Helvetica Neue, Helvetica, Arial, sans-serif">HAS_SPECIES</text></g><g class="relationship" transform="translate(181.1816805269943 -158.5444432476176) rotate(456.80495951001757)"><path class="b-outline" fill="#A5ABB6" stroke="none" d="M 25 0.5 L 27.044824606841587 0.5 L 27.044824606841587 -0.5 L 25 -0.5 Z M 77.49404335684159 0.5 L 79.53886796368317 0.5 L 79.53886796368317 3.5 L 86.53886796368317 0 L 79.53886796368317 -3.5 L 79.53886796368317 -0.5 L 77.49404335684159 -0.5 Z"/><text text-anchor="middle" pointer-events="none" font-size="8px" fill="#000000" x="52.26943398184159" y="3" transform="rotate(180 52.26943398184159 0)" font-family="Helvetica Neue, Helvetica, Arial, sans-serif">IN_COMP…</text></g><g class="relationship" transform="translate(93.5127956447617 -204.53089604013823) rotate(424.5918752314175)"><path class="b-outline" fill="#A5ABB6" stroke="none" d="M 25 0.5 L 43.07046127489069 0.5 L 43.07046127489069 -0.5 L 25 -0.5 Z M 123.45327377489069 0.5 L 141.52373504978138 0.5 L 141.52373504978138 3.5 L 148.52373504978138 0 L 141.52373504978138 -3.5 L 141.52373504978138 -0.5 L 123.45327377489069 -0.5 Z"/><text text-anchor="middle" pointer-events="none" font-size="8px" fill="#000000" x="83.26186752489069" y="3" font-family="Helvetica Neue, Helvetica, Arial, sans-serif">IN_COMPARTMENT</text></g><g class="relationship" transform="translate(-3.06979296428132 -84.67207606581376) rotate(269.6868041560285)"><path class="b-outline" fill="#A5ABB6" stroke="none" d="M 25 0.5 L 38.96712686197304 0.5 L 38.96712686197304 -0.5 L 25 -0.5 Z M 107.95150186197304 0.5 L 121.91862872394609 0.5 L 121.91862872394609 3.5 L 128.91862872394609 0 L 121.91862872394609 -3.5 L 121.91862872394609 -0.5 L 107.95150186197304 -0.5 Z"/><text text-anchor="middle" pointer-events="none" font-size="8px" fill="#000000" x="73.45931436197304" y="3" transform="rotate(180 73.45931436197304 0)" font-family="Helvetica Neue, Helvetica, Arial, sans-serif">HAS_RATERULE</text></g><g class="relationship" transform="translate(-3.06979296428132 -84.67207606581376) rotate(506.2909383420523)"><path class="b-outline" fill="#A5ABB6" stroke="none" d="M 25 0.5 L 32.61051286274015 0.5 L 32.61051286274015 -0.5 L 25 -0.5 Z M 101.59488786274015 0.5 L 109.2054007254803 0.5 L 109.2054007254803 3.5 L 116.2054007254803 0 L 109.2054007254803 -3.5 L 109.2054007254803 -0.5 L 101.59488786274015 -0.5 Z"/><text text-anchor="middle" pointer-events="none" font-size="8px" fill="#000000" x="67.10270036274015" y="3" transform="rotate(180 67.10270036274015 0)" font-family="Helvetica Neue, Helvetica, Arial, sans-serif">HAS_RATERULE</text></g><g class="relationship" transform="translate(-3.06979296428132 -84.67207606581376) rotate(187.2541364716535)"><path class="b-outline" fill="#A5ABB6" stroke="none" d="M 25 0.5 L 45.47758225057349 0.5 L 45.47758225057349 -0.5 L 25 -0.5 Z M 99.04789475057349 0.5 L 119.52547700114698 0.5 L 119.52547700114698 3.5 L 126.52547700114698 0 L 119.52547700114698 -3.5 L 119.52547700114698 -0.5 L 99.04789475057349 -0.5 Z"/><text text-anchor="middle" pointer-events="none" font-size="8px" fill="#000000" x="72.26273850057349" y="3" transform="rotate(180 72.26273850057349 0)" font-family="Helvetica Neue, Helvetica, Arial, sans-serif">HAS_EVENT</text></g><g class="relationship" transform="translate(-3.06979296428132 -84.67207606581376) rotate(215.0415867884259)"><path class="b-outline" fill="#A5ABB6" stroke="none" d="M 25 0.5 L 71.71587331889006 0.5 L 71.71587331889006 -0.5 L 25 -0.5 Z M 125.28618581889006 0.5 L 172.00205913778012 0.5 L 172.00205913778012 3.5 L 179.00205913778012 0 L 172.00205913778012 -3.5 L 172.00205913778012 -0.5 L 125.28618581889006 -0.5 Z"/><text text-anchor="middle" pointer-events="none" font-size="8px" fill="#000000" x="98.50102956889006" y="3" transform="rotate(180 98.50102956889006 0)" font-family="Helvetica Neue, Helvetica, Arial, sans-serif">HAS_EVENT</text></g><g class="relationship" transform="translate(-153.38243522061302 -103.80528693971495) rotate(203.84059559009006)"><path class="b-outline" fill="#A5ABB6" stroke="none" d="M 25 0.5 L 40.329363781915404 0.5 L 40.329363781915404 -0.5 L 25 -0.5 Z M 103.6731137819154 0.5 L 119.00247756383081 0.5 L 119.00247756383081 3.5 L 126.00247756383081 0 L 119.00247756383081 -3.5 L 119.00247756383081 -0.5 L 103.6731137819154 -0.5 Z"/><text text-anchor="middle" pointer-events="none" font-size="8px" fill="#000000" x="72.0012387819154" y="3" transform="rotate(180 72.0012387819154 0)" font-family="Helvetica Neue, Helvetica, Arial, sans-serif">HAS_TRIGGER</text></g><g class="relationship" transform="translate(-170.0935232282129 -201.80411122774444) rotate(202.7442501417829)"><path class="b-outline" fill="#A5ABB6" stroke="none" d="M 25 0.5 L 42.7491287861438 0.5 L 42.7491287861438 -0.5 L 25 -0.5 Z M 106.0928787861438 0.5 L 123.8420075722876 0.5 L 123.8420075722876 3.5 L 130.8420075722876 0 L 123.8420075722876 -3.5 L 123.8420075722876 -0.5 L 106.0928787861438 -0.5 Z"/><text text-anchor="middle" pointer-events="none" font-size="8px" fill="#000000" x="74.4210037861438" y="3" transform="rotate(180 74.4210037861438 0)" font-family="Helvetica Neue, Helvetica, Arial, sans-serif">HAS_TRIGGER</text></g><g class="relationship" transform="translate(-153.38243522061302 -103.80528693971495) rotate(524.2742417803316)"><path class="b-outline" fill="#A5ABB6" stroke="none" d="M 25 0.5 L 27.700197448637 0.5 L 27.700197448637 -0.5 L 25 -0.5 Z M 106.911134948637 0.5 L 109.611332397274 0.5 L 109.611332397274 3.5 L 116.611332397274 0 L 109.611332397274 -3.5 L 109.611332397274 -0.5 L 106.911134948637 -0.5 Z"/><text text-anchor="middle" pointer-events="none" font-size="8px" fill="#000000" x="67.305666198637" y="3" transform="rotate(180 67.305666198637 0)" font-family="Helvetica Neue, Helvetica, Arial, sans-serif">HAS_EVENTASSI…</text></g><g class="relationship" transform="translate(-170.0935232282129 -201.80411122774444) rotate(491.24940810096786)"><path class="b-outline" fill="#A5ABB6" stroke="none" d="M 25 0.5 L 34.25932240956088 0.5 L 34.25932240956088 -0.5 L 25 -0.5 Z M 140.13432240956087 0.5 L 149.39364481912176 0.5 L 149.39364481912176 3.5 L 156.39364481912176 0 L 149.39364481912176 -3.5 L 149.39364481912176 -0.5 L 140.13432240956087 -0.5 Z"/><text text-anchor="middle" pointer-events="none" font-size="8px" fill="#000000" x="87.19682240956088" y="3" transform="rotate(180 87.19682240956088 0)" font-family="Helvetica Neue, Helvetica, Arial, sans-serif">HAS_EVENTASSIGNMENT</text></g><g class="relationship" transform="translate(35.85271519311448 198.08748867901076) rotate(208.1474155312577)"><path class="b-outline" fill="#A5ABB6" stroke="none" d="M 25 0.5 L 57.71840634550554 0.5 L 57.71840634550554 -0.5 L 25 -0.5 Z M 108.61684384550554 0.5 L 141.33525019101108 0.5 L 141.33525019101108 3.5 L 148.33525019101108 0 L 141.33525019101108 -3.5 L 141.33525019101108 -0.5 L 108.61684384550554 -0.5 Z"/><text text-anchor="middle" pointer-events="none" font-size="8px" fill="#000000" x="83.16762509550554" y="3" transform="rotate(180 83.16762509550554 0)" font-family="Helvetica Neue, Helvetica, Arial, sans-serif">HAS_UNITS</text></g><g class="relationship" transform="translate(-13.778882040810613 14.50928499680723) rotate(495.390064900538)"><path class="b-outline" fill="#A5ABB6" stroke="none" d="M 25 0.5 L 43.53557299661823 0.5 L 43.53557299661823 -0.5 L 25 -0.5 Z M 94.43401049661823 0.5 L 112.96958349323646 0.5 L 112.96958349323646 3.5 L 119.96958349323646 0 L 112.96958349323646 -3.5 L 112.96958349323646 -0.5 L 94.43401049661823 -0.5 Z"/><text text-anchor="middle" pointer-events="none" font-size="8px" fill="#000000" x="68.98479174661823" y="3" transform="rotate(180 68.98479174661823 0)" font-family="Helvetica Neue, Helvetica, Arial, sans-serif">HAS_UNITS</text></g><g class="relationship" transform="translate(-66.1972737006769 201.7872443969522) rotate(194.34851715747266)"><path class="b-outline" fill="#A5ABB6" stroke="none" d="M 25 0.5 L 41.106917432558674 0.5 L 41.106917432558674 -0.5 L 25 -0.5 Z M 92.00535493255867 0.5 L 108.11227236511735 0.5 L 108.11227236511735 3.5 L 115.11227236511735 0 L 108.11227236511735 -3.5 L 108.11227236511735 -0.5 L 92.00535493255867 -0.5 Z"/><text text-anchor="middle" pointer-events="none" font-size="8px" fill="#000000" x="66.55613618255867" y="3" transform="rotate(180 66.55613618255867 0)" font-family="Helvetica Neue, Helvetica, Arial, sans-serif">HAS_UNITS</text></g><g class="relationship" transform="translate(-19.618803271622493 114.65512974689473) rotate(523.9622241387531)"><path class="b-outline" fill="#A5ABB6" stroke="none" d="M 25 0.5 L 65.902489238098 0.5 L 65.902489238098 -0.5 L 25 -0.5 Z M 116.800926738098 0.5 L 157.703415976196 0.5 L 157.703415976196 3.5 L 164.703415976196 0 L 157.703415976196 -3.5 L 157.703415976196 -0.5 L 116.800926738098 -0.5 Z"/><text text-anchor="middle" pointer-events="none" font-size="8px" fill="#000000" x="91.351707988098" y="3" transform="rotate(180 91.351707988098 0)" font-family="Helvetica Neue, Helvetica, Arial, sans-serif">HAS_UNITS</text></g><g class="relationship" transform="translate(-345.52987900938166 133.64585335654343) rotate(373.1015814477649)"><path class="b-outline" fill="#A5ABB6" stroke="none" d="M 25 0.5 L 44.76506693899465 0.5 L 44.76506693899465 -0.5 L 25 -0.5 Z M 95.66350443899465 0.5 L 115.4285713779893 0.5 L 115.4285713779893 3.5 L 122.4285713779893 0 L 115.4285713779893 -3.5 L 115.4285713779893 -0.5 L 95.66350443899465 -0.5 Z"/><text text-anchor="middle" pointer-events="none" font-size="8px" fill="#000000" x="70.21428568899465" y="3" font-family="Helvetica Neue, Helvetica, Arial, sans-serif">HAS_UNITS</text></g></g><g class="layer nodes"><g class="node" aria-label="graph-node0" transform="translate(-116.983349261762,116.31801784346447)"><circle class="b-outline" cx="0" cy="0" r="25" fill="#D9C8AE" stroke="#c0a378" stroke-width="2px"/><text class="caption" text-anchor="middle" pointer-events="none" x="0" y="5" font-size="10px" fill="#2A2C34" font-family="Helvetica Neue, Helvetica, Arial, sans-serif"> per_sec…</text></g><g class="node" aria-label="graph-node1" transform="translate(-201.93891595141295,167.06469514736492)"><circle class="b-outline" cx="0" cy="0" r="25" fill="#D9C8AE" stroke="#c0a378" stroke-width="2px"/><text class="caption" text-anchor="middle" pointer-events="none" x="0" y="5" font-size="10px" fill="#2A2C34" font-family="Helvetica Neue, Helvetica, Arial, sans-serif"> concentr…</text></g><g class="node" aria-label="graph-node2" transform="translate(167.96544912586634,-47.79133812558597)"><circle class="b-outline" cx="0" cy="0" r="25" fill="#F79767" stroke="#f36924" stroke-width="2px"/><text class="caption" text-anchor="middle" pointer-events="none" x="0" y="5" font-size="10px" fill="#FFFFFF" font-family="Helvetica Neue, Helvetica, Arial, sans-serif"> cell</text></g><g class="node" aria-label="graph-node3" transform="translate(-3.06979296428132,-84.67207606581376)"><circle class="b-outline" cx="0" cy="0" r="25" fill="#57C7E3" stroke="#23b3d7" stroke-width="2px"/><text class="caption" text-anchor="middle" pointer-events="none" x="0" y="5" font-size="10px" fill="#2A2C34" font-family="Helvetica Neue, Helvetica, Arial, sans-serif"> e745255…</text></g><g class="node" aria-label="graph-node4" transform="translate(-13.499944014070493,284.44382522809263)"><circle class="b-outline" cx="0" cy="0" r="25" fill="#F16667" stroke="#eb2728" stroke-width="2px"/><text class="caption" text-anchor="middle" pointer-events="none" x="0" y="5" font-size="10px" fill="#FFFFFF" font-family="Helvetica Neue, Helvetica, Arial, sans-serif"> e97d363…</text></g><g class="node" aria-label="graph-node5" transform="translate(-206.81749649521544,324.34508884115735)"><circle class="b-outline" cx="0" cy="0" r="25" fill="#F16667" stroke="#eb2728" stroke-width="2px"/><text class="caption" text-anchor="middle" pointer-events="none" x="0" y="5" font-size="10px" fill="#FFFFFF" font-family="Helvetica Neue, Helvetica, Arial, sans-serif"> 61243ac…</text></g><g class="node" aria-label="graph-node6" transform="translate(-113.20095403971483,290.1224497871077)"><circle class="b-outline" cx="0" cy="0" r="25" fill="#F16667" stroke="#eb2728" stroke-width="2px"/><text class="caption" text-anchor="middle" pointer-events="none" x="0" y="5" font-size="10px" fill="#FFFFFF" font-family="Helvetica Neue, Helvetica, Arial, sans-serif"> 1c22729…</text></g><g class="node" aria-label="graph-node7" transform="translate(181.1816805269943,-158.5444432476176)"><circle class="b-outline" cx="0" cy="0" r="25" fill="#ECB5C9" stroke="#da7298" stroke-width="2px"/><text class="caption" text-anchor="middle" pointer-events="none" x="0" y="5" font-size="10px" fill="#2A2C34" font-family="Helvetica Neue, Helvetica, Arial, sans-serif"> P1</text></g><g class="node" aria-label="graph-node8" transform="translate(93.5127956447617,-204.53089604013823)"><circle class="b-outline" cx="0" cy="0" r="25" fill="#ECB5C9" stroke="#da7298" stroke-width="2px"/><text class="caption" text-anchor="middle" pointer-events="none" x="0" y="5" font-size="10px" fill="#2A2C34" font-family="Helvetica Neue, Helvetica, Arial, sans-serif"> P2</text></g><g class="node" aria-label="graph-node9" transform="translate(35.85271519311448,198.08748867901076)"><circle class="b-outline" cx="0" cy="0" r="25" fill="#569480" stroke="#447666" stroke-width="2px"/><text class="caption" text-anchor="middle" pointer-events="none" x="0" y="5" font-size="10px" fill="#FFFFFF" font-family="Helvetica Neue, Helvetica, Arial, sans-serif"> k1</text></g><g class="node" aria-label="graph-node10" transform="translate(-13.778882040810613,14.50928499680723)"><circle class="b-outline" cx="0" cy="0" r="25" fill="#569480" stroke="#447666" stroke-width="2px"/><text class="caption" text-anchor="middle" pointer-events="none" x="0" y="5" font-size="10px" fill="#FFFFFF" font-family="Helvetica Neue, Helvetica, Arial, sans-serif"> k2</text></g><g class="node" aria-label="graph-node11" transform="translate(-66.1972737006769,201.7872443969522)"><circle class="b-outline" cx="0" cy="0" r="25" fill="#569480" stroke="#447666" stroke-width="2px"/><text class="caption" text-anchor="middle" pointer-events="none" x="0" y="5" font-size="10px" fill="#FFFFFF" font-family="Helvetica Neue, Helvetica, Arial, sans-serif"> tau</text></g><g class="node" aria-label="graph-node12" transform="translate(-19.618803271622493,114.65512974689473)"><circle class="b-outline" cx="0" cy="0" r="25" fill="#569480" stroke="#447666" stroke-width="2px"/><text class="caption" text-anchor="middle" pointer-events="none" x="0" y="5" font-size="10px" fill="#FFFFFF" font-family="Helvetica Neue, Helvetica, Arial, sans-serif"> G1</text></g><g class="node" aria-label="graph-node13" transform="translate(-345.52987900938166,133.64585335654343)"><circle class="b-outline" cx="0" cy="0" r="25" fill="#569480" stroke="#447666" stroke-width="2px"/><text class="caption" text-anchor="middle" pointer-events="none" x="0" y="5" font-size="10px" fill="#FFFFFF" font-family="Helvetica Neue, Helvetica, Arial, sans-serif"> G2</text></g><g class="node" aria-label="graph-node14" transform="translate(-3.911153971384115,-238.5884052187522)"><circle class="b-outline" cx="0" cy="0" r="25" fill="#A5ABB6" stroke="#9AA1AC" stroke-width="2px"/><text class="caption" text-anchor="middle" pointer-events="none" x="0" y="5" font-size="10px" fill="#FFFFFF" font-family="Helvetica Neue, Helvetica, Arial, sans-serif"> P1</text></g><g class="node" aria-label="graph-node15" transform="translate(-120.53381566118208,-6.3064677551175565)"><circle class="b-outline" cx="0" cy="0" r="25" fill="#A5ABB6" stroke="#9AA1AC" stroke-width="2px"/><text class="caption" text-anchor="middle" pointer-events="none" x="0" y="5" font-size="10px" fill="#FFFFFF" font-family="Helvetica Neue, Helvetica, Arial, sans-serif"> P2</text></g><g class="node" aria-label="graph-node16" transform="translate(-153.38243522061302,-103.80528693971495)"><circle class="b-outline" cx="0" cy="0" r="25" fill="#A5ABB6" stroke="#9AA1AC" stroke-width="2px"/><text class="caption" text-anchor="middle" pointer-events="none" x="0" y="5" font-size="10px" fill="#FFFFFF" font-family="Helvetica Neue, Helvetica, Arial, sans-serif"> 7e1ca7d…</text></g><g class="node" aria-label="graph-node17" transform="translate(-170.0935232282129,-201.80411122774444)"><circle class="b-outline" cx="0" cy="0" r="25" fill="#A5ABB6" stroke="#9AA1AC" stroke-width="2px"/><text class="caption" text-anchor="middle" pointer-events="none" x="0" y="5" font-size="10px" fill="#FFFFFF" font-family="Helvetica Neue, Helvetica, Arial, sans-serif"> 1717674…</text></g><g class="node" aria-label="graph-node18" transform="translate(-291.50040223725983,-164.8395020784688)"><circle class="b-outline" cx="0" cy="0" r="25" fill="#A5ABB6" stroke="#9AA1AC" stroke-width="2px"/><text class="caption" text-anchor="middle" pointer-events="none" x="0" y="5" font-size="10px" fill="#FFFFFF" font-family="Helvetica Neue, Helvetica, Arial, sans-serif"> 3f002ad…</text></g><g class="node" aria-label="graph-node19" transform="translate(-313.8172212275482,-262.05550090098603)"><circle class="b-outline" cx="0" cy="0" r="25" fill="#A5ABB6" stroke="#9AA1AC" stroke-width="2px"/><text class="caption" text-anchor="middle" pointer-events="none" x="0" y="5" font-size="10px" fill="#FFFFFF" font-family="Helvetica Neue, Helvetica, Arial, sans-serif"> 07f53e4…</text></g><g class="node" aria-label="graph-node20" transform="translate(-289.69325494433167,-65.42391268632089)"><circle class="b-outline" cx="0" cy="0" r="25" fill="#A5ABB6" stroke="#9AA1AC" stroke-width="2px"/><text class="caption" text-anchor="middle" pointer-events="none" x="0" y="5" font-size="10px" fill="#FFFFFF" font-family="Helvetica Neue, Helvetica, Arial, sans-serif"> G2</text></g></g></svg>