<svg xmlns="http://www.w3.org/2000/svg" width="477.1042175292969" height="502.44720458984375" viewBox="-194.91543579101562 -277.792236328125 477.1042175292969 502.44720458984375"><title>Neo4j Graph Visualization</title><desc>Created using Neo4j (http://www.neo4j.com/)</desc><g class="layer relationships"><g class="relationship" transform="translate(123.00780986984641 -46.247310030417026) rotate(320.6067833056756)"><path class="b-outline" fill="#A5ABB6" stroke="none" d="M 25 0.5 L 36.309845529396554 0.5 L 36.309845529396554 -0.5 L 25 -0.5 Z M 125.14187677939655 0.5 L 136.4517223087931 0.5 L 136.4517223087931 3.5 L 143.4517223087931 0 L 136.4517223087931 -3.5 L 136.4517223087931 -0.5 L 125.14187677939655 -0.5 Z"/><text text-anchor="middle" pointer-events="none" font-size="8px" fill="#000000" x="80.72586115439655" y="3" font-family="Helvetica Neue, Helvetica, Arial, sans-serif">HAS_COMPARTMENT</text></g><g class="relationship" transform="translate(249.03763564138075 50.110632217851986) rotate(457.12254403761096)"><path class="b-outline" fill="#A5ABB6" stroke="none" d="M 25 0.5 L 37.498254985267735 0.5 L 37.498254985267735 -0.5 L 25 -0.5 Z M 102.17794248526774 0.5 L 114.67619747053547 0.5 L 114.67619747053547 3.5 L 121.67619747053547 0 L 114.67619747053547 -3.5 L 114.67619747053547 -0.5 L 102.17794248526774 -0.5 Z"/><text text-anchor="middle" pointer-events="none" font-size="8px" fill="#000000" x="69.83809873526774" y="3" transform="rotate(180 69.83809873526774 0)" font-family="Helvetica Neue, Helvetica, Arial, sans-serif">IS_COMPOSED</text></g><g class="relationship" transform="translate(41.44077075161955 138.99515214009065) rotate(241.63869515501187)"><path class="b-outline" fill="#A5ABB6" stroke="none" d="M 25 0.5 L 31.896216695259128 0.5 L 31.896216695259128 -0.5 L 25 -0.5 Z M 96.57590419525913 0.5 L 103.47212089051826 0.5 L 103.47212089051826 3.5 L 110.47212089051826 0 L 103.47212089051826 -3.5 L 103.47212089051826 -0.5 L 96.57590419525913 -0.5 Z"/><text text-anchor="middle" pointer-events="none" font-size="8px" fill="#000000" x="64.23606044525913" y="3" transform="rotate(180 64.23606044525913 0)" font-family="Helvetica Neue, Helvetica, Arial, sans-serif">IS_COMPOSED</text></g><g class="relationship" transform="translate(123.00780986984641 -46.247310030417026) rotate(397.40024806684875)"><path class="b-outline" fill="#A5ABB6" stroke="none" d="M 25 0.5 L 30.375445527487784 0.5 L 30.375445527487784 -0.5 L 25 -0.5 Z M 121.26997677748778 0.5 L 126.64542230497557 0.5 L 126.64542230497557 3.5 L 133.64542230497557 0 L 126.64542230497557 -3.5 L 126.64542230497557 -0.5 L 121.26997677748778 -0.5 Z"/><text text-anchor="middle" pointer-events="none" font-size="8px" fill="#000000" x="75.82271115248778" y="3" font-family="Helvetica Neue, Helvetica, Arial, sans-serif">HAS_UNITDEFINITION</text></g><g class="relationship" transform="translate(123.00780986984641 -46.247310030417026) rotate(473.7651328041477)"><path class="b-outline" fill="#A5ABB6" stroke="none" d="M 25 0.5 L 52.255441430575246 0.5 L 52.255441430575246 -0.5 L 25 -0.5 Z M 143.14997268057525 0.5 L 170.4054141111505 0.5 L 170.4054141111505 3.5 L 177.4054141111505 0 L 170.4054141111505 -3.5 L 170.4054141111505 -0.5 L 143.14997268057525 -0.5 Z"/><text text-anchor="middle" pointer-events="none" font-size="8px" fill="#000000" x="97.70270705557525" y="3" transform="rotate(180 97.70270705557525 0)" font-family="Helvetica Neue, Helvetica, Arial, sans-serif">HAS_UNITDEFINITION</text></g><g class="relationship" transform="translate(123.00780986984641 -46.247310030417026) rotate(269.0038923408104)"><path class="b-outline" fill="#A5ABB6" stroke="none" d="M 25 0.5 L 66.99871636302368 0.5 L 66.99871636302368 -0.5 L 25 -0.5 Z M 128.57684136302368 0.5 L 170.57555772604735 0.5 L 170.57555772604735 3.5 L 177.57555772604735 0 L 170.57555772604735 -3.5 L 170.57555772604735 -0.5 L 128.57684136302368 -0.5 Z"/><text text-anchor="middle" pointer-events="none" font-size="8px" fill="#000000" x="97.78777886302368" y="3" transform="rotate(180 97.78777886302368 0)" font-family="Helvetica Neue, Helvetica, Arial, sans-serif">HAS_SPECIES</text></g><g class="relationship" transform="translate(123.00780986984641 -46.247310030417026) rotate(268.96973887659647)"><path class="b-outline" fill="#A5ABB6" stroke="none" d="M 25 0.5 L 25.451986734034477 0.5 L 25.451986734034477 -0.5 L 25 -0.5 Z M 71.02229923403448 0.5 L 71.47428596806895 0.5 L 71.47428596806895 3.5 L 78.47428596806895 0 L 71.47428596806895 -3.5 L 71.47428596806895 -0.5 L 71.02229923403448 -0.5 Z"/><text text-anchor="middle" pointer-events="none" font-size="8px" fill="#000000" x="48.23714298403448" y="3" transform="rotate(180 48.23714298403448 0)" font-family="Helvetica Neue, Helvetica, Arial, sans-serif">HAS_SP…</text></g><g class="relationship" transform="translate(119.4861386152186 -248.7922542269915) rotate(395.57654187552146)"><path class="b-outline" fill="#A5ABB6" stroke="none" d="M 25 0.5 L 38.50225829661855 0.5 L 38.50225829661855 -0.5 L 25 -0.5 Z M 118.88507079661855 0.5 L 132.3873290932371 0.5 L 132.3873290932371 3.5 L 139.3873290932371 0 L 132.3873290932371 -3.5 L 132.3873290932371 -0.5 L 118.88507079661855 -0.5 Z"/><text text-anchor="middle" pointer-events="none" font-size="8px" fill="#000000" x="78.69366454661855" y="3" font-family="Helvetica Neue, Helvetica, Arial, sans-serif">IN_COMPARTMENT</text></g><g class="relationship" transform="translate(121.14729256360388 -149.7048681494587) rotate(358.50396733864136)"><path class="b-outline" fill="#A5ABB6" stroke="none" d="M 25 0.5 L 26.351843709581786 0.5 L 26.351843709581786 -0.5 L 25 -0.5 Z M 98.73465620958179 0.5 L 100.08649991916357 0.5 L 100.08649991916357 3.5 L 107.08649991916357 0 L 100.08649991916357 -3.5 L 100.08649991916357 -0.5 L 98.73465620958179 -0.5 Z"/><text text-anchor="middle" pointer-events="none" font-size="8px" fill="#000000" x="62.543249959581786" y="3" font-family="Helvetica Neue, Helvetica, Arial, sans-serif">IN_COMPARTM…</text></g><g class="relationship" transform="translate(123.00780986984641 -46.247310030417026) rotate(229.608088378912)"><path class="b-outline" fill="#A5ABB6" stroke="none" d="M 25 0.5 L 67.90168822073822 0.5 L 67.90168822073822 -0.5 L 25 -0.5 Z M 136.1360632207382 0.5 L 179.03775144147644 0.5 L 179.03775144147644 3.5 L 186.03775144147644 0 L 179.03775144147644 -3.5 L 179.03775144147644 -0.5 L 136.1360632207382 -0.5 Z"/><text text-anchor="middle" pointer-events="none" font-size="8px" fill="#000000" x="102.01887572073822" y="3" transform="rotate(180 102.01887572073822 0)" font-family="Helvetica Neue, Helvetica, Arial, sans-serif">HAS_REACTION</text></g><g class="relationship" transform="translate(123.00780986984641 -46.247310030417026) rotate(203.17350008148992)"><path class="b-outline" fill="#A5ABB6" stroke="none" d="M 25 0.5 L 40.43859290579921 0.5 L 40.43859290579921 -0.5 L 25 -0.5 Z M 108.67296790579921 0.5 L 124.11156081159842 0.5 L 124.11156081159842 3.5 L 131.11156081159842 0 L 124.11156081159842 -3.5 L 124.11156081159842 -0.5 L 108.67296790579921 -0.5 Z"/><text text-anchor="middle" pointer-events="none" font-size="8px" fill="#000000" x="74.55578040579921" y="3" transform="rotate(180 74.55578040579921 0)" font-family="Helvetica Neue, Helvetica, Arial, sans-serif">HAS_REACTION</text></g><g class="relationship" transform="translate(-13.747267636999036 -206.97994924713333) rotate(500.38565524246377)"><path class="b-outline" fill="#A5ABB6" stroke="none" d="M 25 0.5 L 40.52373108913129 0.5 L 40.52373108913129 -0.5 L 25 -0.5 Z M 119.13701233913129 0.5 L 134.66074342826258 0.5 L 134.66074342826258 3.5 L 141.66074342826258 0 L 134.66074342826258 -3.5 L 134.66074342826258 -0.5 L 119.13701233913129 -0.5 Z"/><text text-anchor="middle" pointer-events="none" font-size="8px" fill="#000000" x="79.83037171413129" y="3" transform="rotate(180 79.83037171413129 0)" font-family="Helvetica Neue, Helvetica, Arial, sans-serif">HAS_KENETICLAW</text></g><g class="relationship" transform="translate(-20.508271091152427 -107.6798252371821) rotate(503.36133073330683)"><path class="b-outline" fill="#A5ABB6" stroke="none" d="M 25 0.5 L 47.79933558482297 0.5 L 47.79933558482297 -0.5 L 25 -0.5 Z M 126.41261683482297 0.5 L 149.21195241964594 0.5 L 149.21195241964594 3.5 L 156.21195241964594 0 L 149.21195241964594 -3.5 L 149.21195241964594 -0.5 L 126.41261683482297 -0.5 Z"/><text text-anchor="middle" pointer-events="none" font-size="8px" fill="#000000" x="87.10597620982297" y="3" transform="rotate(180 87.10597620982297 0)" font-family="Helvetica Neue, Helvetica, Arial, sans-serif">HAS_KENETICLAW</text></g><g class="relationship" transform="translate(119.4861386152186 -248.7922542269915) rotate(522.5767090585075)"><path class="b-outline" fill="#A5ABB6" stroke="none" d="M 25 0.5 L 36.054517848065586 0.5 L 36.054517848065586 -0.5 L 25 -0.5 Z M 96.58576784806559 0.5 L 107.64028569613117 0.5 L 107.64028569613117 3.5 L 114.64028569613117 0 L 107.64028569613117 -3.5 L 107.64028569613117 -0.5 L 96.58576784806559 -0.5 Z"/><text text-anchor="middle" pointer-events="none" font-size="8px" fill="#000000" x="66.32014284806559" y="3" transform="rotate(180 66.32014284806559 0)" font-family="Helvetica Neue, Helvetica, Arial, sans-serif">IS_REACTANT</text></g><g class="relationship" transform="translate(121.14729256360388 -149.7048681494587) rotate(523.4759247453642)"><path class="b-outline" fill="#A5ABB6" stroke="none" d="M 25 0.5 L 40.11333503959011 0.5 L 40.11333503959011 -0.5 L 25 -0.5 Z M 100.64458503959011 0.5 L 115.75792007918022 0.5 L 115.75792007918022 3.5 L 122.75792007918022 0 L 115.75792007918022 -3.5 L 115.75792007918022 -0.5 L 100.64458503959011 -0.5 Z"/><text text-anchor="middle" pointer-events="none" font-size="8px" fill="#000000" x="70.37896003959011" y="3" transform="rotate(180 70.37896003959011 0)" font-family="Helvetica Neue, Helvetica, Arial, sans-serif">IS_REACTANT</text></g><g class="relationship" transform="translate(-13.747267636999036 -206.97994924713333) rotate(383.0056636507991)"><path class="b-outline" fill="#A5ABB6" stroke="none" d="M 25 0.5 L 36.548565078291006 0.5 L 36.548565078291006 -0.5 L 25 -0.5 Z M 103.001690078291 0.5 L 114.55025515658201 0.5 L 114.55025515658201 3.5 L 121.55025515658201 0 L 114.55025515658201 -3.5 L 114.55025515658201 -0.5 L 103.001690078291 -0.5 Z"/><text text-anchor="middle" pointer-events="none" font-size="8px" fill="#000000" x="69.775127578291" y="3" font-family="Helvetica Neue, Helvetica, Arial, sans-serif">HAS_PRODUCT</text></g><g class="relationship" transform="translate(-20.508271091152427 -107.6798252371821) rotate(314.772124189874)"><path class="b-outline" fill="#A5ABB6" stroke="none" d="M 25 0.5 L 62.66049949053183 0.5 L 62.66049949053183 -0.5 L 25 -0.5 Z M 129.11362449053183 0.5 L 166.77412398106367 0.5 L 166.77412398106367 3.5 L 173.77412398106367 0 L 166.77412398106367 -3.5 L 166.77412398106367 -0.5 L 129.11362449053183 -0.5 Z"/><text text-anchor="middle" pointer-events="none" font-size="8px" fill="#000000" x="95.88706199053183" y="3" font-family="Helvetica Neue, Helvetica, Arial, sans-serif">HAS_PRODUCT</text></g><g class="relationship" transform="translate(-103.79388726170346 78.00715637073787) rotate(382.77886415042775)"><path class="b-outline" fill="#A5ABB6" stroke="none" d="M 25 0.5 L 49.810925860407934 0.5 L 49.810925860407934 -0.5 L 25 -0.5 Z M 100.70936336040793 0.5 L 125.52028922081587 0.5 L 125.52028922081587 3.5 L 132.52028922081587 0 L 125.52028922081587 -3.5 L 125.52028922081587 -0.5 L 100.70936336040793 -0.5 Z"/><text text-anchor="middle" pointer-events="none" font-size="8px" fill="#000000" x="75.26014461040793" y="3" font-family="Helvetica Neue, Helvetica, Arial, sans-serif">HAS_UNITS</text></g><g class="relationship" transform="translate(-118.50022176987758 176.75329807402406) rotate(346.7170674610211)"><path class="b-outline" fill="#A5ABB6" stroke="none" d="M 25 0.5 L 53.21950807646637 0.5 L 53.21950807646637 -0.5 L 25 -0.5 Z M 104.11794557646637 0.5 L 132.33745365293274 0.5 L 132.33745365293274 3.5 L 139.33745365293274 0 L 132.33745365293274 -3.5 L 132.33745365293274 -0.5 L 104.11794557646637 -0.5 Z"/><text text-anchor="middle" pointer-events="none" font-size="8px" fill="#000000" x="78.66872682646637" y="3" font-family="Helvetica Neue, Helvetica, Arial, sans-serif">HAS_UNITS</text></g><g class="relationship" transform="translate(-142.13497649671513 -100.71424634250874) rotate(437.8918656076483)"><path class="b-outline" fill="#A5ABB6" stroke="none" d="M 25 0.5 L 49.847023745372496 0.5 L 49.847023745372496 -0.5 L 25 -0.5 Z M 125.9407737453725 0.5 L 150.787797490745 0.5 L 150.787797490745 3.5 L 157.787797490745 0 L 150.787797490745 -3.5 L 150.787797490745 -0.5 L 125.9407737453725 -0.5 Z"/><text text-anchor="middle" pointer-events="none" font-size="8px" fill="#000000" x="87.8938987453725" y="3" font-family="Helvetica Neue, Helvetica, Arial, sans-serif">HAS_PARAMETER</text></g><g class="relationship" transform="translate(-165.91544115853986 0.4614092329953685) rotate(434.9460531009206)"><path class="b-outline" fill="#A5ABB6" stroke="none" d="M 25 0.5 L 49.73159056117794 0.5 L 49.73159056117794 -0.5 L 25 -0.5 Z M 125.82534056117794 0.5 L 150.55693112235588 0.5 L 150.55693112235588 3.5 L 157.55693112235588 0 L 150.55693112235588 -3.5 L 150.55693112235588 -0.5 L 125.82534056117794 -0.5 Z"/><text text-anchor="middle" pointer-events="none" font-size="8px" fill="#000000" x="87.77846556117794" y="3" font-family="Helvetica Neue, Helvetica, Arial, sans-serif">HAS_PARAMETER</text></g></g><g class="layer nodes"><g class="node" aria-label="graph-node0" transform="translate(249.03763564138075,50.110632217851986)"><circle class="b-outline" cx="0" cy="0" r="25" fill="#D9C8AE" stroke="#c0a378" stroke-width="2px"/><text class="caption" text-anchor="middle" pointer-events="none" x="0" y="5" font-size="10px" fill="#2A2C34" font-family="Helvetica Neue, Helvetica, Arial, sans-serif"> substance</text></g><g class="node" aria-label="graph-node1" transform="translate(41.44077075161955,138.99515214009065)"><circle class="b-outline" cx="0" cy="0" r="25" fill="#D9C8AE" stroke="#c0a378" stroke-width="2px"/><text class="caption" text-anchor="middle" pointer-events="none" x="0" y="5" font-size="10px" fill="#2A2C34" font-family="Helvetica Neue, Helvetica, Arial, sans-serif"> per_sec…</text></g><g class="node" aria-label="graph-node2" transform="translate(253.18876883814124,-153.15334667425623)"><circle class="b-outline" cx="0" cy="0" r="25" fill="#F79767" stroke="#f36924" stroke-width="2px"/><text class="caption" text-anchor="middle" pointer-events="none" x="0" y="5" font-size="10px" fill="#FFFFFF" font-family="Helvetica Neue, Helvetica, Arial, sans-serif"> Cell</text></g><g class="node" aria-label="graph-node3" transform="translate(123.00780986984641,-46.247310030417026)"><circle class="b-outline" cx="0" cy="0" r="25" fill="#57C7E3" stroke="#23b3d7" stroke-width="2px"/><text class="caption" text-anchor="middle" pointer-events="none" x="0" y="5" font-size="10px" fill="#2A2C34" font-family="Helvetica Neue, Helvetica, Arial, sans-serif"> dimeriza…</text></g><g class="node" aria-label="graph-node4" transform="translate(230.85097263445238,195.6549628978477)"><circle class="b-outline" cx="0" cy="0" r="25" fill="#F16667" stroke="#eb2728" stroke-width="2px"/><text class="caption" text-anchor="middle" pointer-events="none" x="0" y="5" font-size="10px" fill="#FFFFFF" font-family="Helvetica Neue, Helvetica, Arial, sans-serif"> 9660949…</text></g><g class="node" aria-label="graph-node5" transform="translate(-22.91255396035499,19.783805628567844)"><circle class="b-outline" cx="0" cy="0" r="25" fill="#F16667" stroke="#eb2728" stroke-width="2px"/><text class="caption" text-anchor="middle" pointer-events="none" x="0" y="5" font-size="10px" fill="#FFFFFF" font-family="Helvetica Neue, Helvetica, Arial, sans-serif"> e97d363…</text></g><g class="node" aria-label="graph-node6" transform="translate(119.4861386152186,-248.7922542269915)"><circle class="b-outline" cx="0" cy="0" r="25" fill="#ECB5C9" stroke="#da7298" stroke-width="2px"/><text class="caption" text-anchor="middle" pointer-events="none" x="0" y="5" font-size="10px" fill="#2A2C34" font-family="Helvetica Neue, Helvetica, Arial, sans-serif"> P</text></g><g class="node" aria-label="graph-node7" transform="translate(121.14729256360388,-149.7048681494587)"><circle class="b-outline" cx="0" cy="0" r="25" fill="#ECB5C9" stroke="#da7298" stroke-width="2px"/><text class="caption" text-anchor="middle" pointer-events="none" x="0" y="5" font-size="10px" fill="#2A2C34" font-family="Helvetica Neue, Helvetica, Arial, sans-serif"> P2</text></g><g class="node" aria-label="graph-node8" transform="translate(-13.747267636999036,-206.97994924713333)"><circle class="b-outline" cx="0" cy="0" r="25" fill="#4C8EDA" stroke="#2870c2" stroke-width="2px"/><text class="caption" text-anchor="middle" pointer-events="none" x="0" y="5" font-size="10px" fill="#FFFFFF" font-family="Helvetica Neue, Helvetica, Arial, sans-serif"> Dimeriza…</text></g><g class="node" aria-label="graph-node9" transform="translate(-20.508271091152427,-107.6798252371821)"><circle class="b-outline" cx="0" cy="0" r="25" fill="#4C8EDA" stroke="#2870c2" stroke-width="2px"/><text class="caption" text-anchor="middle" pointer-events="none" x="0" y="5" font-size="10px" fill="#FFFFFF" font-family="Helvetica Neue, Helvetica, Arial, sans-serif"> Dissocia…</text></g><g class="node" aria-label="graph-node10" transform="translate(-142.13497649671513,-100.71424634250874)"><circle class="b-outline" cx="0" cy="0" r="25" fill="#FFC454" stroke="#d7a013" stroke-width="2px"/><text class="caption" text-anchor="middle" pointer-events="none" x="0" y="5" font-size="10px" fill="#2A2C34" font-family="Helvetica Neue, Helvetica, Arial, sans-serif"> 79cd177…</text></g><g class="node" aria-label="graph-node11" transform="translate(-165.91544115853986,0.4614092329953685)"><circle class="b-outline" cx="0" cy="0" r="25" fill="#FFC454" stroke="#d7a013" stroke-width="2px"/><text class="caption" text-anchor="middle" pointer-events="none" x="0" y="5" font-size="10px" fill="#2A2C34" font-family="Helvetica Neue, Helvetica, Arial, sans-serif"> 8c0923b…</text></g><g class="node" aria-label="graph-node12" transform="translate(-103.79388726170346,78.00715637073787)"><circle class="b-outline" cx="0" cy="0" r="25" fill="#569480" stroke="#447666" stroke-width="2px"/><text class="caption" text-anchor="middle" pointer-events="none" x="0" y="5" font-size="10px" fill="#FFFFFF" font-family="Helvetica Neue, Helvetica, Arial, sans-serif"> c1</text></g><g class="node" aria-label="graph-node13" transform="translate(-118.50022176987758,176.75329807402406)"><circle class="b-outline" cx="0" cy="0" r="25" fill="#569480" stroke="#447666" stroke-width="2px"/><text class="caption" text-anchor="middle" pointer-events="none" x="0" y="5" font-size="10px" fill="#FFFFFF" font-family="Helvetica Neue, Helvetica, Arial, sans-serif"> c2</text></g></g></svg>