<svg xmlns="http://www.w3.org/2000/svg" width="804.5328369140625" height="582.1068115234375" viewBox="-450.65863037109375 -222.62835693359375 804.5328369140625 582.1068115234375"><title>Neo4j Graph Visualization</title><desc>Created using Neo4j (http://www.neo4j.com/)</desc><g class="layer relationships"><g class="relationship" transform="translate(-6.117214009447189 183.51977556958323) rotate(224.47039828652373)"><path class="b-outline" fill="#A5ABB6" stroke="none" d="M 25 0.5 L 56.36207623555575 0.5 L 56.36207623555575 -0.5 L 25 -0.5 Z M 145.19410748555575 0.5 L 176.5561837211115 0.5 L 176.5561837211115 3.5 L 183.5561837211115 0 L 176.5561837211115 -3.5 L 176.5561837211115 -0.5 L 145.19410748555575 -0.5 Z"/><text text-anchor="middle" pointer-events="none" font-size="8px" fill="#000000" x="100.77809186055575" y="3" transform="rotate(180 100.77809186055575 0)" font-family="Helvetica Neue, Helvetica, Arial, sans-serif">HAS_COMPARTMENT</text></g><g class="relationship" transform="translate(183.69674014470723 209.07389031268073) rotate(401.76911970158085)"><path class="b-outline" fill="#A5ABB6" stroke="none" d="M 25 0.5 L 36.11251125543265 0.5 L 36.11251125543265 -0.5 L 25 -0.5 Z M 100.79219875543265 0.5 L 111.9047100108653 0.5 L 111.9047100108653 3.5 L 118.9047100108653 0 L 111.9047100108653 -3.5 L 111.9047100108653 -0.5 L 100.79219875543265 -0.5 Z"/><text text-anchor="middle" pointer-events="none" font-size="8px" fill="#000000" x="68.45235500543265" y="3" font-family="Helvetica Neue, Helvetica, Arial, sans-serif">IS_COMPOSED</text></g><g class="relationship" transform="translate(183.69674014470723 209.07389031268073) rotate(340.72773082125616)"><path class="b-outline" fill="#A5ABB6" stroke="none" d="M 25 0.5 L 38.939419398961675 0.5 L 38.939419398961675 -0.5 L 25 -0.5 Z M 103.61910689896168 0.5 L 117.55852629792335 0.5 L 117.55852629792335 3.5 L 124.55852629792335 0 L 117.55852629792335 -3.5 L 117.55852629792335 -0.5 L 103.61910689896168 -0.5 Z"/><text text-anchor="middle" pointer-events="none" font-size="8px" fill="#000000" x="71.27926314896168" y="3" font-family="Helvetica Neue, Helvetica, Arial, sans-serif">IS_COMPOSED</text></g><g class="relationship" transform="translate(183.69674014470723 209.07389031268073) rotate(294.05350563099046)"><path class="b-outline" fill="#A5ABB6" stroke="none" d="M 25 0.5 L 45.46654046100372 0.5 L 45.46654046100372 -0.5 L 25 -0.5 Z M 110.14622796100372 0.5 L 130.61276842200743 0.5 L 130.61276842200743 3.5 L 137.61276842200743 0 L 130.61276842200743 -3.5 L 130.61276842200743 -0.5 L 110.14622796100372 -0.5 Z"/><text text-anchor="middle" pointer-events="none" font-size="8px" fill="#000000" x="77.80638421100372" y="3" font-family="Helvetica Neue, Helvetica, Arial, sans-serif">IS_COMPOSED</text></g><g class="relationship" transform="translate(109.56503566397717 1.2458612101014783) rotate(311.7629484945685)"><path class="b-outline" fill="#A5ABB6" stroke="none" d="M 25 0.5 L 39.81591833981386 0.5 L 39.81591833981386 -0.5 L 25 -0.5 Z M 104.49560583981386 0.5 L 119.31152417962772 0.5 L 119.31152417962772 3.5 L 126.31152417962772 0 L 119.31152417962772 -3.5 L 119.31152417962772 -0.5 L 104.49560583981386 -0.5 Z"/><text text-anchor="middle" pointer-events="none" font-size="8px" fill="#000000" x="72.15576208981386" y="3" font-family="Helvetica Neue, Helvetica, Arial, sans-serif">IS_COMPOSED</text></g><g class="relationship" transform="translate(109.56503566397717 1.2458612101014783) rotate(270.2596291627727)"><path class="b-outline" fill="#A5ABB6" stroke="none" d="M 25 0.5 L 39.4713499771712 0.5 L 39.4713499771712 -0.5 L 25 -0.5 Z M 104.1510374771712 0.5 L 118.6223874543424 0.5 L 118.6223874543424 3.5 L 125.6223874543424 0 L 118.6223874543424 -3.5 L 118.6223874543424 -0.5 L 104.1510374771712 -0.5 Z"/><text text-anchor="middle" pointer-events="none" font-size="8px" fill="#000000" x="71.8111937271712" y="3" font-family="Helvetica Neue, Helvetica, Arial, sans-serif">IS_COMPOSED</text></g><g class="relationship" transform="translate(109.56503566397717 1.2458612101014783) rotate(382.90823572734064)"><path class="b-outline" fill="#A5ABB6" stroke="none" d="M 25 0.5 L 40.376898847044686 0.5 L 40.376898847044686 -0.5 L 25 -0.5 Z M 105.05658634704469 0.5 L 120.43348519408937 0.5 L 120.43348519408937 3.5 L 127.43348519408937 0 L 120.43348519408937 -3.5 L 120.43348519408937 -0.5 L 105.05658634704469 -0.5 Z"/><text text-anchor="middle" pointer-events="none" font-size="8px" fill="#000000" x="72.71674259704469" y="3" font-family="Helvetica Neue, Helvetica, Arial, sans-serif">IS_COMPOSED</text></g><g class="relationship" transform="translate(-6.117214009447189 183.51977556958323) rotate(367.66746727813205)"><path class="b-outline" fill="#A5ABB6" stroke="none" d="M 25 0.5 L 46.81591880923186 0.5 L 46.81591880923186 -0.5 L 25 -0.5 Z M 137.71045005923185 0.5 L 159.52636886846372 0.5 L 159.52636886846372 3.5 L 166.52636886846372 0 L 159.52636886846372 -3.5 L 159.52636886846372 -0.5 L 137.71045005923185 -0.5 Z"/><text text-anchor="middle" pointer-events="none" font-size="8px" fill="#000000" x="92.26318443423186" y="3" font-family="Helvetica Neue, Helvetica, Arial, sans-serif">HAS_UNITDEFINITION</text></g><g class="relationship" transform="translate(-6.117214009447189 183.51977556958323) rotate(302.4017268371106)"><path class="b-outline" fill="#A5ABB6" stroke="none" d="M 25 0.5 L 58.995036955397296 0.5 L 58.995036955397296 -0.5 L 25 -0.5 Z M 149.8895682053973 0.5 L 183.8846051607946 0.5 L 183.8846051607946 3.5 L 190.8846051607946 0 L 183.8846051607946 -3.5 L 183.8846051607946 -0.5 L 149.8895682053973 -0.5 Z"/><text text-anchor="middle" pointer-events="none" font-size="8px" fill="#000000" x="104.4423025803973" y="3" font-family="Helvetica Neue, Helvetica, Arial, sans-serif">HAS_UNITDEFINITION</text></g><g class="relationship" transform="translate(-96.86998028051394 -106.61175674487916) rotate(471.9602698026231)"><path class="b-outline" fill="#A5ABB6" stroke="none" d="M 25 0.5 L 33.95723756252562 0.5 L 33.95723756252562 -0.5 L 25 -0.5 Z M 114.34005006252562 0.5 L 123.29728762505124 0.5 L 123.29728762505124 3.5 L 130.29728762505124 0 L 123.29728762505124 -3.5 L 123.29728762505124 -0.5 L 114.34005006252562 -0.5 Z"/><text text-anchor="middle" pointer-events="none" font-size="8px" fill="#000000" x="74.14864381252562" y="3" transform="rotate(180 74.14864381252562 0)" font-family="Helvetica Neue, Helvetica, Arial, sans-serif">IN_COMPARTMENT</text></g><g class="relationship" transform="translate(-180.3080295459193 -158.38313613558455) rotate(442.61944426863454)"><path class="b-outline" fill="#A5ABB6" stroke="none" d="M 25 0.5 L 55.02690462442621 0.5 L 55.02690462442621 -0.5 L 25 -0.5 Z M 135.4097171244262 0.5 L 165.43662174885242 0.5 L 165.43662174885242 3.5 L 172.43662174885242 0 L 165.43662174885242 -3.5 L 165.43662174885242 -0.5 L 135.4097171244262 -0.5 Z"/><text text-anchor="middle" pointer-events="none" font-size="8px" fill="#000000" x="95.21831087442621" y="3" font-family="Helvetica Neue, Helvetica, Arial, sans-serif">IN_COMPARTMENT</text></g><g class="relationship" transform="translate(-225.81283901257902 -70.30230270829969) rotate(416.6596949822458)"><path class="b-outline" fill="#A5ABB6" stroke="none" d="M 25 0.5 L 28.111111589081958 0.5 L 28.111111589081958 -0.5 L 25 -0.5 Z M 93.82986158908196 0.5 L 96.94097317816392 0.5 L 96.94097317816392 3.5 L 103.94097317816392 0 L 96.94097317816392 -3.5 L 96.94097317816392 -0.5 L 93.82986158908196 -0.5 Z"/><text text-anchor="middle" pointer-events="none" font-size="8px" fill="#000000" x="60.97048658908196" y="3" font-family="Helvetica Neue, Helvetica, Arial, sans-serif">IN_COMPART…</text></g><g class="relationship" transform="translate(-310.73135992189196 -18.59526251179666) rotate(379.7760957370592)"><path class="b-outline" fill="#A5ABB6" stroke="none" d="M 25 0.5 L 39.08341156273899 0.5 L 39.08341156273899 -0.5 L 25 -0.5 Z M 119.46622406273899 0.5 L 133.54963562547798 0.5 L 133.54963562547798 3.5 L 140.54963562547798 0 L 133.54963562547798 -3.5 L 133.54963562547798 -0.5 L 119.46622406273899 -0.5 Z"/><text text-anchor="middle" pointer-events="none" font-size="8px" fill="#000000" x="79.27481781273899" y="3" font-family="Helvetica Neue, Helvetica, Arial, sans-serif">IN_COMPARTMENT</text></g><g class="relationship" transform="translate(-282.64697071488615 -193.62835271480992) rotate(525.4903715504689)"><path class="b-outline" fill="#A5ABB6" stroke="none" d="M 25 0.5 L 28.989070027807088 0.5 L 28.989070027807088 -0.5 L 25 -0.5 Z M 107.60235127780709 0.5 L 111.59142130561418 0.5 L 111.59142130561418 3.5 L 118.59142130561418 0 L 111.59142130561418 -3.5 L 111.59142130561418 -0.5 L 107.60235127780709 -0.5 Z"/><text text-anchor="middle" pointer-events="none" font-size="8px" fill="#000000" x="68.29571065280709" y="3" transform="rotate(180 68.29571065280709 0)" font-family="Helvetica Neue, Helvetica, Arial, sans-serif">HAS_KENETICLAW</text></g><g class="relationship" transform="translate(-96.86998028051394 -106.61175674487916) rotate(205.0980511550302)"><path class="b-outline" fill="#A5ABB6" stroke="none" d="M 25 0.5 L 68.8074930049712 0.5 L 68.8074930049712 -0.5 L 25 -0.5 Z M 129.3387430049712 0.5 L 173.1462360099424 0.5 L 173.1462360099424 3.5 L 180.1462360099424 0 L 173.1462360099424 -3.5 L 173.1462360099424 -0.5 L 129.3387430049712 -0.5 Z"/><text text-anchor="middle" pointer-events="none" font-size="8px" fill="#000000" x="99.0731180049712" y="3" transform="rotate(180 99.0731180049712 0)" font-family="Helvetica Neue, Helvetica, Arial, sans-serif">IS_REACTANT</text></g><g class="relationship" transform="translate(-180.3080295459193 -158.38313613558455) rotate(199.0035502260189)"><path class="b-outline" fill="#A5ABB6" stroke="none" d="M 25 0.5 L 26.501857602675635 0.5 L 26.501857602675635 -0.5 L 25 -0.5 Z M 74.73623260267564 0.5 L 76.23809020535127 0.5 L 76.23809020535127 3.5 L 83.23809020535127 0 L 76.23809020535127 -3.5 L 76.23809020535127 -0.5 L 74.73623260267564 -0.5 Z"/><text text-anchor="middle" pointer-events="none" font-size="8px" fill="#000000" x="50.619045102675635" y="3" transform="rotate(180 50.619045102675635 0)" font-family="Helvetica Neue, Helvetica, Arial, sans-serif">IS_REAC…</text></g><g class="relationship" transform="translate(-282.64697071488615 -193.62835271480992) rotate(459.11551995811294)"><path class="b-outline" fill="#A5ABB6" stroke="none" d="M 25 0.5 L 51.909372062606664 0.5 L 51.909372062606664 -0.5 L 25 -0.5 Z M 118.36249706260666 0.5 L 145.27186912521333 0.5 L 145.27186912521333 3.5 L 152.27186912521333 0 L 145.27186912521333 -3.5 L 145.27186912521333 -0.5 L 118.36249706260666 -0.5 Z"/><text text-anchor="middle" pointer-events="none" font-size="8px" fill="#000000" x="85.13593456260666" y="3" transform="rotate(180 85.13593456260666 0)" font-family="Helvetica Neue, Helvetica, Arial, sans-serif">HAS_PRODUCT</text></g><g class="relationship" transform="translate(-26.336434664357384 48.96131404203859) rotate(340.65365811574543)"><path class="b-outline" fill="#A5ABB6" stroke="none" d="M 25 0.5 L 43.068095273018116 0.5 L 43.068095273018116 -0.5 L 25 -0.5 Z M 93.96653277301812 0.5 L 112.03462804603623 0.5 L 112.03462804603623 3.5 L 119.03462804603623 0 L 112.03462804603623 -3.5 L 112.03462804603623 -0.5 L 93.96653277301812 -0.5 Z"/><text text-anchor="middle" pointer-events="none" font-size="8px" fill="#000000" x="68.51731402301812" y="3" font-family="Helvetica Neue, Helvetica, Arial, sans-serif">HAS_UNITS</text></g><g class="relationship" transform="translate(102.50175362281256 101.80222088753094) rotate(412.8775611235902)"><path class="b-outline" fill="#A5ABB6" stroke="none" d="M 25 0.5 L 38.3185984019436 0.5 L 38.3185984019436 -0.5 L 25 -0.5 Z M 89.2170359019436 0.5 L 102.5356343038872 0.5 L 102.5356343038872 3.5 L 109.5356343038872 0 L 102.5356343038872 -3.5 L 102.5356343038872 -0.5 L 89.2170359019436 -0.5 Z"/><text text-anchor="middle" pointer-events="none" font-size="8px" fill="#000000" x="63.7678171519436" y="3" font-family="Helvetica Neue, Helvetica, Arial, sans-serif">HAS_UNITS</text></g><g class="relationship" transform="translate(-6.117214009447189 183.51977556958323) rotate(456.15160650096686)"><path class="b-outline" fill="#A5ABB6" stroke="none" d="M 25 0.5 L 35.91269677389438 0.5 L 35.91269677389438 -0.5 L 25 -0.5 Z M 104.89707177389438 0.5 L 115.80976854778876 0.5 L 115.80976854778876 3.5 L 122.80976854778876 0 L 115.80976854778876 -3.5 L 115.80976854778876 -0.5 L 104.89707177389438 -0.5 Z"/><text text-anchor="middle" pointer-events="none" font-size="8px" fill="#000000" x="70.40488427389438" y="3" transform="rotate(180 70.40488427389438 0)" font-family="Helvetica Neue, Helvetica, Arial, sans-serif">HAS_RATERULE</text></g><g class="relationship" transform="translate(-282.64697071488615 -193.62835271480992) rotate(425.257646778291)"><path class="b-outline" fill="#A5ABB6" stroke="none" d="M 25 0.5 L 39.17328091961909 0.5 L 39.17328091961909 -0.5 L 25 -0.5 Z M 89.61859341961909 0.5 L 103.79187433923818 0.5 L 103.79187433923818 3.5 L 110.79187433923818 0 L 103.79187433923818 -3.5 L 103.79187433923818 -0.5 L 89.61859341961909 -0.5 Z"/><text text-anchor="middle" pointer-events="none" font-size="8px" fill="#000000" x="64.39593716961909" y="3" font-family="Helvetica Neue, Helvetica, Arial, sans-serif">MODIFIERS</text></g><g class="relationship" transform="translate(-6.117214009447189 183.51977556958323) rotate(261.45447170977275)"><path class="b-outline" fill="#A5ABB6" stroke="none" d="M 25 0.5 L 26.487668528548156 0.5 L 26.487668528548156 -0.5 L 25 -0.5 Z M 102.58141852854816 0.5 L 104.06908705709631 0.5 L 104.06908705709631 3.5 L 111.06908705709631 0 L 104.06908705709631 -3.5 L 104.06908705709631 -0.5 L 102.58141852854816 -0.5 Z"/><text text-anchor="middle" pointer-events="none" font-size="8px" fill="#000000" x="64.53454352854816" y="3" transform="rotate(180 64.53454352854816 0)" font-family="Helvetica Neue, Helvetica, Arial, sans-serif">HAS_PARAMETER</text></g><g class="relationship" transform="translate(-6.117214009447189 183.51977556958323) rotate(323.04467527968967)"><path class="b-outline" fill="#A5ABB6" stroke="none" d="M 25 0.5 L 26.41605399940397 0.5 L 26.41605399940397 -0.5 L 25 -0.5 Z M 102.50980399940397 0.5 L 103.92585799880794 0.5 L 103.92585799880794 3.5 L 110.92585799880794 0 L 103.92585799880794 -3.5 L 103.92585799880794 -0.5 L 102.50980399940397 -0.5 Z"/><text text-anchor="middle" pointer-events="none" font-size="8px" fill="#000000" x="64.46292899940397" y="3" font-family="Helvetica Neue, Helvetica, Arial, sans-serif">HAS_PARAMETER</text></g></g><g class="layer nodes"><g class="node" aria-label="graph-node0" transform="translate(183.69674014470723,209.07389031268073)"><circle class="b-outline" cx="0" cy="0" r="25" fill="#D9C8AE" stroke="#c0a378" stroke-width="2px"/><text class="caption" text-anchor="middle" pointer-events="none" x="0" y="5" font-size="10px" fill="#2A2C34" font-family="Helvetica Neue, Helvetica, Arial, sans-serif"> mole_pe…</text></g><g class="node" aria-label="graph-node1" transform="translate(109.56503566397717,1.2458612101014783)"><circle class="b-outline" cx="0" cy="0" r="25" fill="#D9C8AE" stroke="#c0a378" stroke-width="2px"/><text class="caption" text-anchor="middle" pointer-events="none" x="0" y="5" font-size="10px" fill="#2A2C34" font-family="Helvetica Neue, Helvetica, Arial, sans-serif"> litre_sq_…</text></g><g class="node" aria-label="graph-node2" transform="translate(-154.94550884125422,37.41768651617261)"><circle class="b-outline" cx="0" cy="0" r="25" fill="#F79767" stroke="#f36924" stroke-width="2px"/><text class="caption" text-anchor="middle" pointer-events="none" x="0" y="5" font-size="10px" fill="#FFFFFF" font-family="Helvetica Neue, Helvetica, Arial, sans-serif"> compart…</text></g><g class="node" aria-label="graph-node3" transform="translate(-6.117214009447189,183.51977556958323)"><circle class="b-outline" cx="0" cy="0" r="25" fill="#57C7E3" stroke="#23b3d7" stroke-width="2px"/><text class="caption" text-anchor="middle" pointer-events="none" x="0" y="5" font-size="10px" fill="#2A2C34" font-family="Helvetica Neue, Helvetica, Arial, sans-serif"> Boundar…</text></g><g class="node" aria-label="graph-node4" transform="translate(291.02592790551324,304.9332196339152)"><circle class="b-outline" cx="0" cy="0" r="25" fill="#F16667" stroke="#eb2728" stroke-width="2px"/><text class="caption" text-anchor="middle" pointer-events="none" x="0" y="5" font-size="10px" fill="#FFFFFF" font-family="Helvetica Neue, Helvetica, Arial, sans-serif"> 61243ac…</text></g><g class="node" aria-label="graph-node5" transform="translate(324.8741274814299,159.71096806142418)"><circle class="b-outline" cx="0" cy="0" r="25" fill="#F16667" stroke="#eb2728" stroke-width="2px"/><text class="caption" text-anchor="middle" pointer-events="none" x="0" y="5" font-size="10px" fill="#FFFFFF" font-family="Helvetica Neue, Helvetica, Arial, sans-serif"> 1c22729…</text></g><g class="node" aria-label="graph-node6" transform="translate(249.97601004774145,60.581564467234564)"><circle class="b-outline" cx="0" cy="0" r="25" fill="#F16667" stroke="#eb2728" stroke-width="2px"/><text class="caption" text-anchor="middle" pointer-events="none" x="0" y="5" font-size="10px" fill="#FFFFFF" font-family="Helvetica Neue, Helvetica, Arial, sans-serif"> e97d363…</text></g><g class="node" aria-label="graph-node7" transform="translate(210.3461146836682,-111.61844431289752)"><circle class="b-outline" cx="0" cy="0" r="25" fill="#F16667" stroke="#eb2728" stroke-width="2px"/><text class="caption" text-anchor="middle" pointer-events="none" x="0" y="5" font-size="10px" fill="#FFFFFF" font-family="Helvetica Neue, Helvetica, Arial, sans-serif"> 9173808…</text></g><g class="node" aria-label="graph-node8" transform="translate(110.24756116327364,-149.37497984912528)"><circle class="b-outline" cx="0" cy="0" r="25" fill="#F16667" stroke="#eb2728" stroke-width="2px"/><text class="caption" text-anchor="middle" pointer-events="none" x="0" y="5" font-size="10px" fill="#FFFFFF" font-family="Helvetica Neue, Helvetica, Arial, sans-serif"> 970593c…</text></g><g class="node" aria-label="graph-node9" transform="translate(-96.86998028051394,-106.61175674487916)"><circle class="b-outline" cx="0" cy="0" r="25" fill="#ECB5C9" stroke="#da7298" stroke-width="2px"/><text class="caption" text-anchor="middle" pointer-events="none" x="0" y="5" font-size="10px" fill="#2A2C34" font-family="Helvetica Neue, Helvetica, Arial, sans-serif"> S1</text></g><g class="node" aria-label="graph-node10" transform="translate(-180.3080295459193,-158.38313613558455)"><circle class="b-outline" cx="0" cy="0" r="25" fill="#ECB5C9" stroke="#da7298" stroke-width="2px"/><text class="caption" text-anchor="middle" pointer-events="none" x="0" y="5" font-size="10px" fill="#2A2C34" font-family="Helvetica Neue, Helvetica, Arial, sans-serif"> S2</text></g><g class="node" aria-label="graph-node11" transform="translate(-225.81283901257902,-70.30230270829969)"><circle class="b-outline" cx="0" cy="0" r="25" fill="#ECB5C9" stroke="#da7298" stroke-width="2px"/><text class="caption" text-anchor="middle" pointer-events="none" x="0" y="5" font-size="10px" fill="#2A2C34" font-family="Helvetica Neue, Helvetica, Arial, sans-serif"> S3</text></g><g class="node" aria-label="graph-node12" transform="translate(-310.73135992189196,-18.59526251179666)"><circle class="b-outline" cx="0" cy="0" r="25" fill="#ECB5C9" stroke="#da7298" stroke-width="2px"/><text class="caption" text-anchor="middle" pointer-events="none" x="0" y="5" font-size="10px" fill="#2A2C34" font-family="Helvetica Neue, Helvetica, Arial, sans-serif"> S4</text></g><g class="node" aria-label="graph-node13" transform="translate(-282.64697071488615,-193.62835271480992)"><circle class="b-outline" cx="0" cy="0" r="25" fill="#4C8EDA" stroke="#2870c2" stroke-width="2px"/><text class="caption" text-anchor="middle" pointer-events="none" x="0" y="5" font-size="10px" fill="#FFFFFF" font-family="Helvetica Neue, Helvetica, Arial, sans-serif"> reaction_1</text></g><g class="node" aria-label="graph-node14" transform="translate(-421.6586227299007,-157.65257090783746)"><circle class="b-outline" cx="0" cy="0" r="25" fill="#FFC454" stroke="#d7a013" stroke-width="2px"/><text class="caption" text-anchor="middle" pointer-events="none" x="0" y="5" font-size="10px" fill="#2A2C34" font-family="Helvetica Neue, Helvetica, Arial, sans-serif"> 532fafcc…</text></g><g class="node" aria-label="graph-node15" transform="translate(-26.336434664357384,48.96131404203859)"><circle class="b-outline" cx="0" cy="0" r="25" fill="#569480" stroke="#447666" stroke-width="2px"/><text class="caption" text-anchor="middle" pointer-events="none" x="0" y="5" font-size="10px" fill="#FFFFFF" font-family="Helvetica Neue, Helvetica, Arial, sans-serif"> k1</text></g><g class="node" aria-label="graph-node16" transform="translate(102.50175362281256,101.80222088753094)"><circle class="b-outline" cx="0" cy="0" r="25" fill="#569480" stroke="#447666" stroke-width="2px"/><text class="caption" text-anchor="middle" pointer-events="none" x="0" y="5" font-size="10px" fill="#FFFFFF" font-family="Helvetica Neue, Helvetica, Arial, sans-serif"> k2</text></g><g class="node" aria-label="graph-node17" transform="translate(-21.956454359153067,330.4784301064806)"><circle class="b-outline" cx="0" cy="0" r="25" fill="#A5ABB6" stroke="#9AA1AC" stroke-width="2px"/><text class="caption" text-anchor="middle" pointer-events="none" x="0" y="5" font-size="10px" fill="#FFFFFF" font-family="Helvetica Neue, Helvetica, Arial, sans-serif"> S1</text></g></g></svg>