<svg xmlns="http://www.w3.org/2000/svg" width="809.2218017578125" height="630.8310546875" viewBox="-472.0777587890625 -316.6137390136719 809.2218017578125 630.8310546875"><title>Neo4j Graph Visualization</title><desc>Created using Neo4j (http://www.neo4j.com/)</desc><g class="layer relationships"><g class="relationship" transform="translate(112.63462547667024 143.40795335793476) rotate(305.30308400710356)"><path class="b-outline" fill="#A5ABB6" stroke="none" d="M 25 0.5 L 60.465931692549546 0.5 L 60.465931692549546 -0.5 L 25 -0.5 Z M 149.29796294254953 0.5 L 184.7638946350991 0.5 L 184.7638946350991 3.5 L 191.7638946350991 0 L 184.7638946350991 -3.5 L 184.7638946350991 -0.5 L 149.29796294254953 -0.5 Z"/><text text-anchor="middle" pointer-events="none" font-size="8px" fill="#000000" x="104.88194731754955" y="3" font-family="Helvetica Neue, Helvetica, Arial, sans-serif">HAS_COMPARTMENT</text></g><g class="relationship" transform="translate(-90.56133415438673 149.27444131605785) rotate(473.07043979189973)"><path class="b-outline" fill="#A5ABB6" stroke="none" d="M 25 0.5 L 38.04021765406459 0.5 L 38.04021765406459 -0.5 L 25 -0.5 Z M 102.71990515406459 0.5 L 115.76012280812918 0.5 L 115.76012280812918 3.5 L 122.76012280812918 0 L 115.76012280812918 -3.5 L 115.76012280812918 -0.5 L 102.71990515406459 -0.5 Z"/><text text-anchor="middle" pointer-events="none" font-size="8px" fill="#000000" x="70.38006140406459" y="3" transform="rotate(180 70.38006140406459 0)" font-family="Helvetica Neue, Helvetica, Arial, sans-serif">IS_COMPOSED</text></g><g class="relationship" transform="translate(112.63462547667024 143.40795335793476) rotate(538.346268022802)"><path class="b-outline" fill="#A5ABB6" stroke="none" d="M 25 0.5 L 52.69304833967267 0.5 L 52.69304833967267 -0.5 L 25 -0.5 Z M 143.58757958967266 0.5 L 171.28062792934534 0.5 L 171.28062792934534 3.5 L 178.28062792934534 0 L 171.28062792934534 -3.5 L 171.28062792934534 -0.5 L 143.58757958967266 -0.5 Z"/><text text-anchor="middle" pointer-events="none" font-size="8px" fill="#000000" x="98.14031396467267" y="3" transform="rotate(180 98.14031396467267 0)" font-family="Helvetica Neue, Helvetica, Arial, sans-serif">HAS_UNITDEFINITION</text></g><g class="relationship" transform="translate(255.43777473817013 -201.70744939446575) rotate(455.9511667260962)"><path class="b-outline" fill="#A5ABB6" stroke="none" d="M 25 0.5 L 40.87082270995978 0.5 L 40.87082270995978 -0.5 L 25 -0.5 Z M 121.25363520995978 0.5 L 137.12445791991956 0.5 L 137.12445791991956 3.5 L 144.12445791991956 0 L 137.12445791991956 -3.5 L 137.12445791991956 -0.5 L 121.25363520995978 -0.5 Z"/><text text-anchor="middle" pointer-events="none" font-size="8px" fill="#000000" x="81.06222895995978" y="3" transform="rotate(180 81.06222895995978 0)" font-family="Helvetica Neue, Helvetica, Arial, sans-serif">IN_COMPARTMENT</text></g><g class="relationship" transform="translate(91.01860091466595 -106.68632103970593) rotate(386.4869039078984)"><path class="b-outline" fill="#A5ABB6" stroke="none" d="M 25 0.5 L 38.36348454471981 0.5 L 38.36348454471981 -0.5 L 25 -0.5 Z M 118.74629704471981 0.5 L 132.10978158943962 0.5 L 132.10978158943962 3.5 L 139.10978158943962 0 L 132.10978158943962 -3.5 L 132.10978158943962 -0.5 L 118.74629704471981 -0.5 Z"/><text text-anchor="middle" pointer-events="none" font-size="8px" fill="#000000" x="78.55489079471981" y="3" font-family="Helvetica Neue, Helvetica, Arial, sans-serif">IN_COMPARTMENT</text></g><g class="relationship" transform="translate(158.2806472845108 -180.17272157971107) rotate(421.5053174411694)"><path class="b-outline" fill="#A5ABB6" stroke="none" d="M 25 0.5 L 39.75648214726519 0.5 L 39.75648214726519 -0.5 L 25 -0.5 Z M 120.13929464726519 0.5 L 134.89577679453038 0.5 L 134.89577679453038 3.5 L 141.89577679453038 0 L 134.89577679453038 -3.5 L 134.89577679453038 -0.5 L 120.13929464726519 -0.5 Z"/><text text-anchor="middle" pointer-events="none" font-size="8px" fill="#000000" x="79.94788839726519" y="3" font-family="Helvetica Neue, Helvetica, Arial, sans-serif">IN_COMPARTMENT</text></g><g class="relationship" transform="translate(122.55398355960669 44.15607070955949) rotate(326.05234526946964)"><path class="b-outline" fill="#A5ABB6" stroke="none" d="M 25 0.5 L 25.83369588899042 0.5 L 25.83369588899042 -0.5 L 25 -0.5 Z M 106.21650838899042 0.5 L 107.05020427798084 0.5 L 107.05020427798084 3.5 L 114.05020427798084 0 L 107.05020427798084 -3.5 L 107.05020427798084 -0.5 L 106.21650838899042 -0.5 Z"/><text text-anchor="middle" pointer-events="none" font-size="8px" fill="#000000" x="66.02510213899042" y="3" font-family="Helvetica Neue, Helvetica, Arial, sans-serif">IN_COMPARTMENT</text></g><g class="relationship" transform="translate(308.1439717101267 95.1921943435415) rotate(241.37292434423637)"><path class="b-outline" fill="#A5ABB6" stroke="none" d="M 25 0.5 L 29.61288522072533 0.5 L 29.61288522072533 -0.5 L 25 -0.5 Z M 109.99569772072533 0.5 L 114.60858294145066 0.5 L 114.60858294145066 3.5 L 121.60858294145066 0 L 114.60858294145066 -3.5 L 114.60858294145066 -0.5 L 109.99569772072533 -0.5 Z"/><text text-anchor="middle" pointer-events="none" font-size="8px" fill="#000000" x="69.80429147072533" y="3" transform="rotate(180 69.80429147072533 0)" font-family="Helvetica Neue, Helvetica, Arial, sans-serif">IN_COMPARTMENT</text></g><g class="relationship" transform="translate(95.37418307723766 -287.6137334794789) rotate(494.36636530129954)"><path class="b-outline" fill="#A5ABB6" stroke="none" d="M 25 0.5 L 51.447148937742085 0.5 L 51.447148937742085 -0.5 L 25 -0.5 Z M 130.0604301877421 0.5 L 156.50757912548417 0.5 L 156.50757912548417 3.5 L 163.50757912548417 0 L 156.50757912548417 -3.5 L 156.50757912548417 -0.5 L 130.0604301877421 -0.5 Z"/><text text-anchor="middle" pointer-events="none" font-size="8px" fill="#000000" x="90.75378956274209" y="3" transform="rotate(180 90.75378956274209 0)" font-family="Helvetica Neue, Helvetica, Arial, sans-serif">HAS_KENETICLAW</text></g><g class="relationship" transform="translate(-8.762492041783002 -248.23022948456227) rotate(507.99296938189485)"><path class="b-outline" fill="#A5ABB6" stroke="none" d="M 25 0.5 L 48.217529581483404 0.5 L 48.217529581483404 -0.5 L 25 -0.5 Z M 126.8308108314834 0.5 L 150.0483404129668 0.5 L 150.0483404129668 3.5 L 157.0483404129668 0 L 150.0483404129668 -3.5 L 150.0483404129668 -0.5 L 126.8308108314834 -0.5 Z"/><text text-anchor="middle" pointer-events="none" font-size="8px" fill="#000000" x="87.5241702064834" y="3" transform="rotate(180 87.5241702064834 0)" font-family="Helvetica Neue, Helvetica, Arial, sans-serif">HAS_KENETICLAW</text></g><g class="relationship" transform="translate(255.43777473817013 -201.70744939446575) rotate(208.2224982525076)"><path class="b-outline" fill="#A5ABB6" stroke="none" d="M 25 0.5 L 57.06422006853009 0.5 L 57.06422006853009 -0.5 L 25 -0.5 Z M 117.59547006853009 0.5 L 149.65969013706018 0.5 L 149.65969013706018 3.5 L 156.65969013706018 0 L 149.65969013706018 -3.5 L 149.65969013706018 -0.5 L 117.59547006853009 -0.5 Z"/><text text-anchor="middle" pointer-events="none" font-size="8px" fill="#000000" x="87.32984506853009" y="3" transform="rotate(180 87.32984506853009 0)" font-family="Helvetica Neue, Helvetica, Arial, sans-serif">IS_REACTANT</text></g><g class="relationship" transform="translate(158.2806472845108 -180.17272157971107) rotate(202.16719761993158)"><path class="b-outline" fill="#A5ABB6" stroke="none" d="M 25 0.5 L 56.42200549637472 0.5 L 56.42200549637472 -0.5 L 25 -0.5 Z M 116.95325549637472 0.5 L 148.37526099274945 0.5 L 148.37526099274945 3.5 L 155.37526099274945 0 L 148.37526099274945 -3.5 L 148.37526099274945 -0.5 L 116.95325549637472 -0.5 Z"/><text text-anchor="middle" pointer-events="none" font-size="8px" fill="#000000" x="86.68763049637472" y="3" transform="rotate(180 86.68763049637472 0)" font-family="Helvetica Neue, Helvetica, Arial, sans-serif">IS_REACTANT</text></g><g class="relationship" transform="translate(95.37418307723766 -287.6137334794789) rotate(419.6511255425566)"><path class="b-outline" fill="#A5ABB6" stroke="none" d="M 25 0.5 L 25.52453041632355 0.5 L 25.52453041632355 -0.5 L 25 -0.5 Z M 91.97765541632356 0.5 L 92.5021858326471 0.5 L 92.5021858326471 3.5 L 99.5021858326471 0 L 92.5021858326471 -3.5 L 92.5021858326471 -0.5 L 91.97765541632356 -0.5 Z"/><text text-anchor="middle" pointer-events="none" font-size="8px" fill="#000000" x="58.75109291632355" y="3" font-family="Helvetica Neue, Helvetica, Arial, sans-serif">HAS_PRODUCT</text></g><g class="relationship" transform="translate(-8.762492041783002 -248.23022948456227) rotate(414.8181542270845)"><path class="b-outline" fill="#A5ABB6" stroke="none" d="M 25 0.5 L 49.8629064460407 0.5 L 49.8629064460407 -0.5 L 25 -0.5 Z M 116.3160314460407 0.5 L 141.1789378920814 0.5 L 141.1789378920814 3.5 L 148.1789378920814 0 L 141.1789378920814 -3.5 L 141.1789378920814 -0.5 L 116.3160314460407 -0.5 Z"/><text text-anchor="middle" pointer-events="none" font-size="8px" fill="#000000" x="83.0894689460407" y="3" font-family="Helvetica Neue, Helvetica, Arial, sans-serif">HAS_PRODUCT</text></g><g class="relationship" transform="translate(-106.76686345443267 -2.9712199505763923) rotate(443.92412661888574)"><path class="b-outline" fill="#A5ABB6" stroke="none" d="M 25 0.5 L 47.60363971134255 0.5 L 47.60363971134255 -0.5 L 25 -0.5 Z M 98.50207721134255 0.5 L 121.1057169226851 0.5 L 121.1057169226851 3.5 L 128.1057169226851 0 L 121.1057169226851 -3.5 L 121.1057169226851 -0.5 L 98.50207721134255 -0.5 Z"/><text text-anchor="middle" pointer-events="none" font-size="8px" fill="#000000" x="73.05285846134255" y="3" font-family="Helvetica Neue, Helvetica, Arial, sans-serif">HAS_UNITS</text></g><g class="relationship" transform="translate(-204.74672062332985 24.101434886195864) rotate(407.6282872521796)"><path class="b-outline" fill="#A5ABB6" stroke="none" d="M 25 0.5 L 55.76586848620629 0.5 L 55.76586848620629 -0.5 L 25 -0.5 Z M 106.66430598620629 0.5 L 137.43017447241257 0.5 L 137.43017447241257 3.5 L 144.43017447241257 0 L 137.43017447241257 -3.5 L 137.43017447241257 -0.5 L 106.66430598620629 -0.5 Z"/><text text-anchor="middle" pointer-events="none" font-size="8px" fill="#000000" x="81.21508723620629" y="3" font-family="Helvetica Neue, Helvetica, Arial, sans-serif">HAS_UNITS</text></g><g class="relationship" transform="translate(-36.43857262089703 -152.85281621110124) rotate(475.1371745589553)"><path class="b-outline" fill="#A5ABB6" stroke="none" d="M 25 0.5 L 41.23380117078479 0.5 L 41.23380117078479 -0.5 L 25 -0.5 Z M 117.32755117078479 0.5 L 133.56135234156957 0.5 L 133.56135234156957 3.5 L 140.56135234156957 0 L 133.56135234156957 -3.5 L 133.56135234156957 -0.5 L 117.32755117078479 -0.5 Z"/><text text-anchor="middle" pointer-events="none" font-size="8px" fill="#000000" x="79.28067617078479" y="3" transform="rotate(180 79.28067617078479 0)" font-family="Helvetica Neue, Helvetica, Arial, sans-serif">HAS_PARAMETER</text></g><g class="relationship" transform="translate(-163.13640167575838 -151.74036332527774) rotate(463.313293221783)"><path class="b-outline" fill="#A5ABB6" stroke="none" d="M 25 0.5 L 48.8021103860618 0.5 L 48.8021103860618 -0.5 L 25 -0.5 Z M 124.8958603860618 0.5 L 148.6979707721236 0.5 L 148.6979707721236 3.5 L 155.6979707721236 0 L 148.6979707721236 -3.5 L 148.6979707721236 -0.5 L 124.8958603860618 -0.5 Z"/><text text-anchor="middle" pointer-events="none" font-size="8px" fill="#000000" x="86.8489853860618" y="3" transform="rotate(180 86.8489853860618 0)" font-family="Helvetica Neue, Helvetica, Arial, sans-serif">HAS_PARAMETER</text></g><g class="relationship" transform="translate(112.63462547667024 143.40795335793476) rotate(476.03822920455957)"><path class="b-outline" fill="#A5ABB6" stroke="none" d="M 25 0.5 L 26.414013582225266 0.5 L 26.414013582225266 -0.5 L 25 -0.5 Z M 114.20698233222527 0.5 L 115.62099591445053 0.5 L 115.62099591445053 3.5 L 122.62099591445053 0 L 115.62099591445053 -3.5 L 115.62099591445053 -0.5 L 114.20698233222527 -0.5 Z"/><text text-anchor="middle" pointer-events="none" font-size="8px" fill="#000000" x="70.31049795722527" y="3" transform="rotate(180 70.31049795722527 0)" font-family="Helvetica Neue, Helvetica, Arial, sans-serif">HAS_ASSIGNMENT…</text></g><g class="relationship" transform="translate(112.63462547667024 143.40795335793476) rotate(424.5043128291622)"><path class="b-outline" fill="#A5ABB6" stroke="none" d="M 25 0.5 L 26.795753793392976 0.5 L 26.795753793392976 -0.5 L 25 -0.5 Z M 114.58872254339298 0.5 L 116.38447633678595 0.5 L 116.38447633678595 3.5 L 123.38447633678595 0 L 116.38447633678595 -3.5 L 116.38447633678595 -0.5 L 114.58872254339298 -0.5 Z"/><text text-anchor="middle" pointer-events="none" font-size="8px" fill="#000000" x="70.69223816839298" y="3" font-family="Helvetica Neue, Helvetica, Arial, sans-serif">HAS_ASSIGNMENT…</text></g></g><g class="layer nodes"><g class="node" aria-label="graph-node0" transform="translate(-90.56133415438673,149.27444131605785)"><circle class="b-outline" cx="0" cy="0" r="25" fill="#D9C8AE" stroke="#c0a378" stroke-width="2px"/><text class="caption" text-anchor="middle" pointer-events="none" x="0" y="5" font-size="10px" fill="#2A2C34" font-family="Helvetica Neue, Helvetica, Arial, sans-serif"> per_sec…</text></g><g class="node" aria-label="graph-node1" transform="translate(237.90281682757183,-33.49446678676039)"><circle class="b-outline" cx="0" cy="0" r="25" fill="#F79767" stroke="#f36924" stroke-width="2px"/><text class="caption" text-anchor="middle" pointer-events="none" x="0" y="5" font-size="10px" fill="#FFFFFF" font-family="Helvetica Neue, Helvetica, Arial, sans-serif"> cell</text></g><g class="node" aria-label="graph-node2" transform="translate(112.63462547667024,143.40795335793476)"><circle class="b-outline" cx="0" cy="0" r="25" fill="#57C7E3" stroke="#23b3d7" stroke-width="2px"/><text class="caption" text-anchor="middle" pointer-events="none" x="0" y="5" font-size="10px" fill="#2A2C34" font-family="Helvetica Neue, Helvetica, Arial, sans-serif"> a636cf6…</text></g><g class="node" aria-label="graph-node3" transform="translate(-148.46298636884188,285.2172696046796)"><circle class="b-outline" cx="0" cy="0" r="25" fill="#F16667" stroke="#eb2728" stroke-width="2px"/><text class="caption" text-anchor="middle" pointer-events="none" x="0" y="5" font-size="10px" fill="#FFFFFF" font-family="Helvetica Neue, Helvetica, Arial, sans-serif"> e97d363…</text></g><g class="node" aria-label="graph-node4" transform="translate(255.43777473817013,-201.70744939446575)"><circle class="b-outline" cx="0" cy="0" r="25" fill="#ECB5C9" stroke="#da7298" stroke-width="2px"/><text class="caption" text-anchor="middle" pointer-events="none" x="0" y="5" font-size="10px" fill="#2A2C34" font-family="Helvetica Neue, Helvetica, Arial, sans-serif"> X0</text></g><g class="node" aria-label="graph-node5" transform="translate(91.01860091466595,-106.68632103970593)"><circle class="b-outline" cx="0" cy="0" r="25" fill="#ECB5C9" stroke="#da7298" stroke-width="2px"/><text class="caption" text-anchor="middle" pointer-events="none" x="0" y="5" font-size="10px" fill="#2A2C34" font-family="Helvetica Neue, Helvetica, Arial, sans-serif"> X1</text></g><g class="node" aria-label="graph-node6" transform="translate(158.2806472845108,-180.17272157971107)"><circle class="b-outline" cx="0" cy="0" r="25" fill="#ECB5C9" stroke="#da7298" stroke-width="2px"/><text class="caption" text-anchor="middle" pointer-events="none" x="0" y="5" font-size="10px" fill="#2A2C34" font-family="Helvetica Neue, Helvetica, Arial, sans-serif"> T</text></g><g class="node" aria-label="graph-node7" transform="translate(122.55398355960669,44.15607070955949)"><circle class="b-outline" cx="0" cy="0" r="25" fill="#ECB5C9" stroke="#da7298" stroke-width="2px"/><text class="caption" text-anchor="middle" pointer-events="none" x="0" y="5" font-size="10px" fill="#2A2C34" font-family="Helvetica Neue, Helvetica, Arial, sans-serif"> S1</text></g><g class="node" aria-label="graph-node8" transform="translate(308.1439717101267,95.1921943435415)"><circle class="b-outline" cx="0" cy="0" r="25" fill="#ECB5C9" stroke="#da7298" stroke-width="2px"/><text class="caption" text-anchor="middle" pointer-events="none" x="0" y="5" font-size="10px" fill="#2A2C34" font-family="Helvetica Neue, Helvetica, Arial, sans-serif"> S2</text></g><g class="node" aria-label="graph-node9" transform="translate(95.37418307723766,-287.6137334794789)"><circle class="b-outline" cx="0" cy="0" r="25" fill="#4C8EDA" stroke="#2870c2" stroke-width="2px"/><text class="caption" text-anchor="middle" pointer-events="none" x="0" y="5" font-size="10px" fill="#FFFFFF" font-family="Helvetica Neue, Helvetica, Arial, sans-serif"> in</text></g><g class="node" aria-label="graph-node10" transform="translate(-8.762492041783002,-248.23022948456227)"><circle class="b-outline" cx="0" cy="0" r="25" fill="#4C8EDA" stroke="#2870c2" stroke-width="2px"/><text class="caption" text-anchor="middle" pointer-events="none" x="0" y="5" font-size="10px" fill="#FFFFFF" font-family="Helvetica Neue, Helvetica, Arial, sans-serif"> out</text></g><g class="node" aria-label="graph-node11" transform="translate(-36.43857262089703,-152.85281621110124)"><circle class="b-outline" cx="0" cy="0" r="25" fill="#FFC454" stroke="#d7a013" stroke-width="2px"/><text class="caption" text-anchor="middle" pointer-events="none" x="0" y="5" font-size="10px" fill="#2A2C34" font-family="Helvetica Neue, Helvetica, Arial, sans-serif"> 4a21fcfb…</text></g><g class="node" aria-label="graph-node12" transform="translate(-163.13640167575838,-151.74036332527774)"><circle class="b-outline" cx="0" cy="0" r="25" fill="#FFC454" stroke="#d7a013" stroke-width="2px"/><text class="caption" text-anchor="middle" pointer-events="none" x="0" y="5" font-size="10px" fill="#2A2C34" font-family="Helvetica Neue, Helvetica, Arial, sans-serif"> 6919046…</text></g><g class="node" aria-label="graph-node13" transform="translate(-443.07774637243625,-16.605620196215238)"><circle class="b-outline" cx="0" cy="0" r="25" fill="#569480" stroke="#447666" stroke-width="2px"/><text class="caption" text-anchor="middle" pointer-events="none" x="0" y="5" font-size="10px" fill="#FFFFFF" font-family="Helvetica Neue, Helvetica, Arial, sans-serif"> Keq</text></g><g class="node" aria-label="graph-node14" transform="translate(-106.76686345443267,-2.9712199505763923)"><circle class="b-outline" cx="0" cy="0" r="25" fill="#569480" stroke="#447666" stroke-width="2px"/><text class="caption" text-anchor="middle" pointer-events="none" x="0" y="5" font-size="10px" fill="#FFFFFF" font-family="Helvetica Neue, Helvetica, Arial, sans-serif"> k1</text></g><g class="node" aria-label="graph-node15" transform="translate(-204.74672062332985,24.101434886195864)"><circle class="b-outline" cx="0" cy="0" r="25" fill="#569480" stroke="#447666" stroke-width="2px"/><text class="caption" text-anchor="middle" pointer-events="none" x="0" y="5" font-size="10px" fill="#FFFFFF" font-family="Helvetica Neue, Helvetica, Arial, sans-serif"> k2</text></g><g class="node" aria-label="graph-node16" transform="translate(47.833326558823124,276.04561804385287)"><circle class="b-outline" cx="0" cy="0" r="25" fill="#A5ABB6" stroke="#9AA1AC" stroke-width="2px"/><text class="caption" text-anchor="middle" pointer-events="none" x="0" y="5" font-size="10px" fill="#FFFFFF" font-family="Helvetica Neue, Helvetica, Arial, sans-serif"> S1</text></g><g class="node" aria-label="graph-node17" transform="translate(176.50570765739172,277.34240627728525)"><circle class="b-outline" cx="0" cy="0" r="25" fill="#A5ABB6" stroke="#9AA1AC" stroke-width="2px"/><text class="caption" text-anchor="middle" pointer-events="none" x="0" y="5" font-size="10px" fill="#FFFFFF" font-family="Helvetica Neue, Helvetica, Arial, sans-serif"> S2</text></g></g></svg>