<svg xmlns="http://www.w3.org/2000/svg" width="483.3924560546875" height="291.8898620605469" viewBox="-208.31272888183594 -179.1117401123047 483.3924560546875 291.8898620605469"><title>Neo4j Graph Visualization</title><desc>Created using Neo4j (http://www.neo4j.com/)</desc><g class="layer relationships"><g class="relationship" transform="translate(-151.87218174050636 45.83475428251511) rotate(259.83747523087925)"><path class="b-outline" fill="#A5ABB6" stroke="none" d="M 24.018736134675446,-6.953439040707552 L 24.277555179777966,-5.987513214418485 A 201.6889230800102 201.6889230800102 0 0 1 44.17587475031902,-10.256288822773172 L 44.015714170275814,-11.243379795581774 A 202.6889230800102 202.6889230800102 0 0 0 24.018736134675446,-6.953439040707552 Z M 104.46652732906608,-11.918250693924108 L 104.32844362303683,-10.92783013167329 A 201.6889230800102 201.6889230800102 0 0 1 124.31710485521953,-7.10435147070271 L 123.6055345647112,-4.189961702386552 L 131.23594269637528,-5.92975242090266 L 125.26586524256396,-10.990204495124253 L 124.55429495205564,-8.075814726808096 A 202.6889230800102 202.6889230800102 0 0 0 104.46652732906608,-11.918250693924108"/><text text-anchor="middle" pointer-events="none" font-size="8px" fill="#000000" x="74.22139979439088" y="-10.347297968895703" transform="rotate(180 74.22139979439088 -13.347297968895703)" font-family="Helvetica Neue, Helvetica, Arial, sans-serif">IS_REACTANT</text></g><g class="relationship" transform="translate(118.02627074380953 -13.979495519226772) rotate(250.16377508631382)"><path class="b-outline" fill="#A5ABB6" stroke="none" d="M 25 0.5 L 25.189547437691246 0.5 L 25.189547437691246 -0.5 L 25 -0.5 Z M 112.52939118769125 0.5 L 112.71893862538249 0.5 L 112.71893862538249 3.5 L 119.71893862538249 0 L 112.71893862538249 -3.5 L 112.71893862538249 -0.5 L 112.52939118769125 -0.5 Z"/><text text-anchor="middle" pointer-events="none" font-size="8px" fill="#000000" x="68.85946931269125" y="3" transform="rotate(180 68.85946931269125 0)" font-family="Helvetica Neue, Helvetica, Arial, sans-serif">HAS_FUNCTIONDE…</text></g><g class="relationship" transform="translate(118.02627074380953 -13.979495519226772) rotate(500.2330016791708)"><path class="b-outline" fill="#A5ABB6" stroke="none" d="M 25 0.5 L 28.49686869428244 0.5 L 28.49686869428244 -0.5 L 25 -0.5 Z M 117.32889994428244 0.5 L 120.82576863856488 0.5 L 120.82576863856488 3.5 L 127.82576863856488 0 L 120.82576863856488 -3.5 L 120.82576863856488 -0.5 L 117.32889994428244 -0.5 Z"/><text text-anchor="middle" pointer-events="none" font-size="8px" fill="#000000" x="72.91288431928244" y="3" transform="rotate(180 72.91288431928244 0)" font-family="Helvetica Neue, Helvetica, Arial, sans-serif">HAS_COMPARTMENT</text></g><g class="relationship" transform="translate(118.02627074380953 -13.979495519226772) rotate(385.55316082598324)"><path class="b-outline" fill="#A5ABB6" stroke="none" d="M 25 0.5 L 29.421593501732346 0.5 L 29.421593501732346 -0.5 L 25 -0.5 Z M 105.51534350173235 0.5 L 109.93693700346469 0.5 L 109.93693700346469 3.5 L 116.93693700346469 0 L 109.93693700346469 -3.5 L 109.93693700346469 -0.5 L 105.51534350173235 -0.5 Z"/><text text-anchor="middle" pointer-events="none" font-size="8px" fill="#000000" x="67.46846850173235" y="3" font-family="Helvetica Neue, Helvetica, Arial, sans-serif">HAS_PARAMETER</text></g><g class="relationship" transform="translate(-179.31272728409485 -107.24781155173456) rotate(439.83747523087925)"><path class="b-outline" fill="#A5ABB6" stroke="none" d="M 24.018736134675446,-6.953439040707552 L 24.277555179777966,-5.987513214418485 A 201.6889230800102 201.6889230800102 0 0 1 41.26395569024561,-9.761905580079627 L 41.08935743551207,-10.746545336256474 A 202.6889230800102 202.6889230800102 0 0 0 24.018736134675446,-6.953439040707552 Z M 107.40324661151269,-11.486871423239364 L 107.25067410541573,-10.498579143403447 A 201.6889230800102 201.6889230800102 0 0 1 124.31710485521953,-7.10435147070271 L 123.6055345647112,-4.189961702386552 L 131.23594269637528,-5.92975242090266 L 125.26586524256396,-10.990204495124253 L 124.55429495205564,-8.075814726808096 A 202.6889230800102 202.6889230800102 0 0 0 107.40324661151269,-11.486871423239364"/><text text-anchor="middle" pointer-events="none" font-size="8px" fill="#000000" x="74.22139979439088" y="-10.347297968895703" font-family="Helvetica Neue, Helvetica, Arial, sans-serif">HAS_PRODUCT</text></g><g class="relationship" transform="translate(-179.31272728409485 -107.24781155173456) rotate(394.55414703796976)"><path class="b-outline" fill="#A5ABB6" stroke="none" d="M 25 0.5 L 27.092949075664038 0.5 L 27.092949075664038 -0.5 L 25 -0.5 Z M 105.70623032566404 0.5 L 107.79917940132808 0.5 L 107.79917940132808 3.5 L 114.79917940132808 0 L 107.79917940132808 -3.5 L 107.79917940132808 -0.5 L 105.70623032566404 -0.5 Z"/><text text-anchor="middle" pointer-events="none" font-size="8px" fill="#000000" x="66.39958970066404" y="3" font-family="Helvetica Neue, Helvetica, Arial, sans-serif">HAS_KENETICLAW</text></g><g class="relationship" transform="translate(-151.87218174050636 45.83475428251511) rotate(373.9782842269429)"><path class="b-outline" fill="#A5ABB6" stroke="none" d="M 25 0.5 L 34.848676795573155 0.5 L 34.848676795573155 -0.5 L 25 -0.5 Z M 115.23148929557316 0.5 L 125.08016609114631 0.5 L 125.08016609114631 3.5 L 132.0801660911463 0 L 125.08016609114631 -3.5 L 125.08016609114631 -0.5 L 115.23148929557316 -0.5 Z"/><text text-anchor="middle" pointer-events="none" font-size="8px" fill="#000000" x="75.04008304557316" y="3" font-family="Helvetica Neue, Helvetica, Arial, sans-serif">IN_COMPARTMENT</text></g></g><g class="layer nodes"><g class="node" aria-label="graph-node-7" transform="translate(68.91839984711478,-150.1117408281571)"><circle class="b-outline" cx="0" cy="0" r="25" fill="#A5ABB6" stroke="#9AA1AC" stroke-width="2px"/><text class="caption" text-anchor="middle" pointer-events="none" x="0" y="5" font-size="10px" fill="#FFFFFF" font-family="Helvetica Neue, Helvetica, Arial, sans-serif"> function…</text></g><g class="node" aria-label="graph-node-1" transform="translate(0.5564240279359421,83.77811632004293)"><circle class="b-outline" cx="0" cy="0" r="25" fill="#F79767" stroke="#f36924" stroke-width="2px"/><text class="caption" text-anchor="middle" pointer-events="none" x="0" y="5" font-size="10px" fill="#FFFFFF" font-family="Helvetica Neue, Helvetica, Arial, sans-serif"> compart…</text></g><g class="node" aria-label="graph-node-6" transform="translate(246.07971071759218,47.24476925223739)"><circle class="b-outline" cx="0" cy="0" r="25" fill="#569480" stroke="#447666" stroke-width="2px"/><text class="caption" text-anchor="middle" pointer-events="none" x="0" y="5" font-size="10px" fill="#FFFFFF" font-family="Helvetica Neue, Helvetica, Arial, sans-serif"> Parameter</text></g><g class="node" aria-label="graph-node-2" transform="translate(118.02627074380953,-13.979495519226772)"><circle class="b-outline" cx="0" cy="0" r="25" fill="#57C7E3" stroke="#23b3d7" stroke-width="2px"/><text class="caption" text-anchor="middle" pointer-events="none" x="0" y="5" font-size="10px" fill="#2A2C34" font-family="Helvetica Neue, Helvetica, Arial, sans-serif"> model</text></g><g class="node" aria-label="graph-node-4" transform="translate(-179.31272728409485,-107.24781155173456)"><circle class="b-outline" cx="0" cy="0" r="25" fill="#4C8EDA" stroke="#2870c2" stroke-width="2px"/><text class="caption" text-anchor="middle" pointer-events="none" x="0" y="5" font-size="10px" fill="#FFFFFF" font-family="Helvetica Neue, Helvetica, Arial, sans-serif"> Reaction</text></g><g class="node" aria-label="graph-node-3" transform="translate(-151.87218174050636,45.83475428251511)"><circle class="b-outline" cx="0" cy="0" r="25" fill="#ECB5C9" stroke="#da7298" stroke-width="2px"/><text class="caption" text-anchor="middle" pointer-events="none" x="0" y="5" font-size="10px" fill="#2A2C34" font-family="Helvetica Neue, Helvetica, Arial, sans-serif"> Species</text></g><g class="node" aria-label="graph-node-5" transform="translate(-64.17544537546443,-27.955839221761092)"><circle class="b-outline" cx="0" cy="0" r="25" fill="#FFC454" stroke="#d7a013" stroke-width="2px"/><text class="caption" text-anchor="middle" pointer-events="none" x="0" y="5" font-size="10px" fill="#2A2C34" font-family="Helvetica Neue, Helvetica, Arial, sans-serif"> KineticL…</text></g></g></svg>