<svg xmlns="http://www.w3.org/2000/svg" width="350.39752197265625" height="349.5137023925781" viewBox="-135.31381225585938 -135.26580810546875 350.39752197265625 349.5137023925781"><title>Neo4j Graph Visualization</title><desc>Created using Neo4j (http://www.neo4j.com/)</desc><g class="layer relationships"><g class="relationship" transform="translate(41.5187032498655 41.36355364306011) rotate(438.83160903134467)"><path class="b-outline" fill="#A5ABB6" stroke="none" d="M 25 0.5 L 25.41486878341341 0.5 L 25.41486878341341 -0.5 L 25 -0.5 Z M 114.24690003341341 0.5 L 114.66176881682682 0.5 L 114.66176881682682 3.5 L 121.66176881682682 0 L 114.66176881682682 -3.5 L 114.66176881682682 -0.5 L 114.24690003341341 -0.5 Z"/><text text-anchor="middle" pointer-events="none" font-size="8px" fill="#000000" x="69.83088440841341" y="3" font-family="Helvetica Neue, Helvetica, Arial, sans-serif">HAS_COMPARTMENT</text></g><g class="relationship" transform="translate(41.5187032498655 41.36355364306011) rotate(268.24882188148274)"><path class="b-outline" fill="#A5ABB6" stroke="none" d="M 25 0.5 L 32.30229382263528 0.5 L 32.30229382263528 -0.5 L 25 -0.5 Z M 108.39604382263528 0.5 L 115.69833764527056 0.5 L 115.69833764527056 3.5 L 122.69833764527056 0 L 115.69833764527056 -3.5 L 115.69833764527056 -0.5 L 108.39604382263528 -0.5 Z"/><text text-anchor="middle" pointer-events="none" font-size="8px" fill="#000000" x="70.34916882263528" y="3" transform="rotate(180 70.34916882263528 0)" font-family="Helvetica Neue, Helvetica, Arial, sans-serif">HAS_PARAMETER</text></g><g class="relationship" transform="translate(41.5187032498655 41.36355364306011) rotate(224.4784358179541)"><path class="b-outline" fill="#A5ABB6" stroke="none" d="M 25 0.5 L 32.71923266156584 0.5 L 32.71923266156584 -0.5 L 25 -0.5 Z M 108.81298266156584 0.5 L 116.53221532313168 0.5 L 116.53221532313168 3.5 L 123.53221532313168 0 L 116.53221532313168 -3.5 L 116.53221532313168 -0.5 L 108.81298266156584 -0.5 Z"/><text text-anchor="middle" pointer-events="none" font-size="8px" fill="#000000" x="70.76610766156584" y="3" transform="rotate(180 70.76610766156584 0)" font-family="Helvetica Neue, Helvetica, Arial, sans-serif">HAS_PARAMETER</text></g><g class="relationship" transform="translate(41.5187032498655 41.36355364306011) rotate(180.34758860969288)"><path class="b-outline" fill="#A5ABB6" stroke="none" d="M 25 0.5 L 32.37074718362756 0.5 L 32.37074718362756 -0.5 L 25 -0.5 Z M 108.46449718362756 0.5 L 115.83524436725511 0.5 L 115.83524436725511 3.5 L 122.83524436725511 0 L 115.83524436725511 -3.5 L 115.83524436725511 -0.5 L 108.46449718362756 -0.5 Z"/><text text-anchor="middle" pointer-events="none" font-size="8px" fill="#000000" x="70.41762218362756" y="3" transform="rotate(180 70.41762218362756 0)" font-family="Helvetica Neue, Helvetica, Arial, sans-serif">HAS_PARAMETER</text></g><g class="relationship" transform="translate(41.5187032498655 41.36355364306011) rotate(492.517726813622)"><path class="b-outline" fill="#A5ABB6" stroke="none" d="M 25 0.5 L 32.021922146642666 0.5 L 32.021922146642666 -0.5 L 25 -0.5 Z M 108.11567214664267 0.5 L 115.13759429328533 0.5 L 115.13759429328533 3.5 L 122.13759429328533 0 L 115.13759429328533 -3.5 L 115.13759429328533 -0.5 L 108.11567214664267 -0.5 Z"/><text text-anchor="middle" pointer-events="none" font-size="8px" fill="#000000" x="70.06879714664267" y="3" transform="rotate(180 70.06879714664267 0)" font-family="Helvetica Neue, Helvetica, Arial, sans-serif">HAS_PARAMETER</text></g><g class="relationship" transform="translate(41.5187032498655 41.36355364306011) rotate(369.6342748855351)"><path class="b-outline" fill="#A5ABB6" stroke="none" d="M 25 0.5 L 39.027480164266805 0.5 L 39.027480164266805 -0.5 L 25 -0.5 Z M 100.6056051642668 0.5 L 114.63308532853361 0.5 L 114.63308532853361 3.5 L 121.63308532853361 0 L 114.63308532853361 -3.5 L 114.63308532853361 -0.5 L 100.6056051642668 -0.5 Z"/><text text-anchor="middle" pointer-events="none" font-size="8px" fill="#000000" x="69.8165426642668" y="3" font-family="Helvetica Neue, Helvetica, Arial, sans-serif">HAS_SPECIES</text></g><g class="relationship" transform="translate(41.5187032498655 41.36355364306011) rotate(316.0375278765514)"><path class="b-outline" fill="#A5ABB6" stroke="none" d="M 25 0.5 L 35.52984994539901 0.5 L 35.52984994539901 -0.5 L 25 -0.5 Z M 104.51422494539901 0.5 L 115.04407489079802 0.5 L 115.04407489079802 3.5 L 122.04407489079802 0 L 115.04407489079802 -3.5 L 115.04407489079802 -0.5 L 104.51422494539901 -0.5 Z"/><text text-anchor="middle" pointer-events="none" font-size="8px" fill="#000000" x="70.02203744539901" y="3" font-family="Helvetica Neue, Helvetica, Arial, sans-serif">HAS_RATERULE</text></g></g><g class="layer nodes"><g class="node" aria-label="graph-node0" transform="translate(69.92608275418765,185.24786558212375)"><circle class="b-outline" cx="0" cy="0" r="25" fill="#F79767" stroke="#f36924" stroke-width="2px"/><text class="caption" text-anchor="middle" pointer-events="none" x="0" y="5" font-size="10px" fill="#FFFFFF" font-family="Helvetica Neue, Helvetica, Arial, sans-serif"> cell</text></g><g class="node" aria-label="graph-node1" transform="translate(41.5187032498655,41.36355364306011)"><circle class="b-outline" cx="0" cy="0" r="25" fill="#57C7E3" stroke="#23b3d7" stroke-width="2px"/><text class="caption" text-anchor="middle" pointer-events="none" x="0" y="5" font-size="10px" fill="#2A2C34" font-family="Helvetica Neue, Helvetica, Arial, sans-serif"> acdc228…</text></g><g class="node" aria-label="graph-node2" transform="translate(186.08368991134995,65.90385405951459)"><circle class="b-outline" cx="0" cy="0" r="25" fill="#ECB5C9" stroke="#da7298" stroke-width="2px"/><text class="caption" text-anchor="middle" pointer-events="none" x="0" y="5" font-size="10px" fill="#2A2C34" font-family="Helvetica Neue, Helvetica, Arial, sans-serif"> P</text></g><g class="node" aria-label="graph-node3" transform="translate(147.36023973293783,-60.712541087259034)"><circle class="b-outline" cx="0" cy="0" r="25" fill="#A5ABB6" stroke="#9AA1AC" stroke-width="2px"/><text class="caption" text-anchor="middle" pointer-events="none" x="0" y="5" font-size="10px" fill="#FFFFFF" font-family="Helvetica Neue, Helvetica, Arial, sans-serif"> P</text></g><g class="node" aria-label="graph-node4" transform="translate(37.00518005186966,-106.26580336806249)"><circle class="b-outline" cx="0" cy="0" r="25" fill="#569480" stroke="#447666" stroke-width="2px"/><text class="caption" text-anchor="middle" pointer-events="none" x="0" y="5" font-size="10px" fill="#FFFFFF" font-family="Helvetica Neue, Helvetica, Arial, sans-serif"> tau</text></g><g class="node" aria-label="graph-node5" transform="translate(-64.46114109975798,-62.70417228782941)"><circle class="b-outline" cx="0" cy="0" r="25" fill="#569480" stroke="#447666" stroke-width="2px"/><text class="caption" text-anchor="middle" pointer-events="none" x="0" y="5" font-size="10px" fill="#FFFFFF" font-family="Helvetica Neue, Helvetica, Arial, sans-serif"> m</text></g><g class="node" aria-label="graph-node6" transform="translate(-106.31382071928324,40.466706924219835)"><circle class="b-outline" cx="0" cy="0" r="25" fill="#569480" stroke="#447666" stroke-width="2px"/><text class="caption" text-anchor="middle" pointer-events="none" x="0" y="5" font-size="10px" fill="#FFFFFF" font-family="Helvetica Neue, Helvetica, Arial, sans-serif"> q</text></g><g class="node" aria-label="graph-node7" transform="translate(-57.919573008383715,149.81400716541077)"><circle class="b-outline" cx="0" cy="0" r="25" fill="#569480" stroke="#447666" stroke-width="2px"/><text class="caption" text-anchor="middle" pointer-events="none" x="0" y="5" font-size="10px" fill="#FFFFFF" font-family="Helvetica Neue, Helvetica, Arial, sans-serif"> delta_t</text></g></g></svg>