<svg xmlns="http://www.w3.org/2000/svg" width="437.3838195800781" height="523.7073974609375" viewBox="-213.76165771484375 -219.47398376464844 437.3838195800781 523.7073974609375"><title>Neo4j Graph Visualization</title><desc>Created using Neo4j (http://www.neo4j.com/)</desc><g class="layer relationships"><g class="relationship" transform="translate(55.47035756644588 -190.4739846473881) rotate(533.7182608986295)"><path class="b-outline" fill="#A5ABB6" stroke="none" d="M 24.018736134675446,-6.953439040707552 L 24.277555179777966,-5.987513214418485 A 215.078822793135 215.078822793135 0 0 1 47.56799556931587,-10.865381633740213 L 47.417464453666724,-11.85398690543434 A 216.078822793135 216.078822793135 0 0 0 24.018736134675446,-6.953439040707552 Z M 107.88652639792535,-12.501823012493986 L 107.75721027467063,-11.510219593648344 A 215.078822793135 215.078822793135 0 0 1 131.14681097611418,-7.132458421329085 L 130.4326156928088,-4.218710817760037 L 138.0645879316595,-5.951627360878067 L 132.09907135385467,-11.017455226087815 L 131.3848760705493,-8.103707622518767 A 216.078822793135 216.078822793135 0 0 0 107.88652639792535,-12.501823012493986"/><text text-anchor="middle" pointer-events="none" font-size="8px" fill="#000000" x="77.6345766404809" y="-10.803775448022947" transform="rotate(180 77.6345766404809 -13.803775448022947)" font-family="Helvetica Neue, Helvetica, Arial, sans-serif">IS_REACTANT</text></g><g class="relationship" transform="translate(109.04523321864326 2.6894566578227446) rotate(206.61534111108637)"><path class="b-outline" fill="#A5ABB6" stroke="none" d="M 25 0.5 L 25.035747016796932 0.5 L 25.035747016796932 -0.5 L 25 -0.5 Z M 112.82871576679693 0.5 L 112.86446278359386 0.5 L 112.86446278359386 3.5 L 119.86446278359386 0 L 112.86446278359386 -3.5 L 112.86446278359386 -0.5 L 112.82871576679693 -0.5 Z"/><text text-anchor="middle" pointer-events="none" font-size="8px" fill="#000000" x="68.93223139179693" y="3" transform="rotate(180 68.93223139179693 0)" font-family="Helvetica Neue, Helvetica, Arial, sans-serif">HAS_ASSIGNMENT…</text></g><g class="relationship" transform="translate(-90.06431103426156 88.2704532796473) rotate(379.42060684240596)"><path class="b-outline" fill="#A5ABB6" stroke="none" d="M 25 0.5 L 47.71654488462744 0.5 L 47.71654488462744 -0.5 L 25 -0.5 Z M 98.61498238462744 0.5 L 121.33152726925488 0.5 L 121.33152726925488 3.5 L 128.33152726925488 0 L 121.33152726925488 -3.5 L 121.33152726925488 -0.5 L 98.61498238462744 -0.5 Z"/><text text-anchor="middle" pointer-events="none" font-size="8px" fill="#000000" x="73.16576363462744" y="3" font-family="Helvetica Neue, Helvetica, Arial, sans-serif">HAS_UNITS</text></g><g class="relationship" transform="translate(109.04523321864326 2.6894566578227446) rotate(305.4550708130898)"><path class="b-outline" fill="#A5ABB6" stroke="none" d="M 25 0.5 L 25.849000768474923 0.5 L 25.849000768474923 -0.5 L 25 -0.5 Z M 114.68103201847492 0.5 L 115.53003278694985 0.5 L 115.53003278694985 3.5 L 122.53003278694985 0 L 115.53003278694985 -3.5 L 115.53003278694985 -0.5 L 114.68103201847492 -0.5 Z"/><text text-anchor="middle" pointer-events="none" font-size="8px" fill="#000000" x="70.26501639347492" y="3" font-family="Helvetica Neue, Helvetica, Arial, sans-serif">HAS_COMPARTMENT</text></g><g class="relationship" transform="translate(-184.76165388080847 -34.712974900568064) rotate(412.403698684738)"><path class="b-outline" fill="#A5ABB6" stroke="none" d="M 25 0.5 L 36.061936273518796 0.5 L 36.061936273518796 -0.5 L 25 -0.5 Z M 112.1556862735188 0.5 L 123.21762254703759 0.5 L 123.21762254703759 3.5 L 130.2176225470376 0 L 123.21762254703759 -3.5 L 123.21762254703759 -0.5 L 112.1556862735188 -0.5 Z"/><text text-anchor="middle" pointer-events="none" font-size="8px" fill="#000000" x="74.1088112735188" y="3" font-family="Helvetica Neue, Helvetica, Arial, sans-serif">HAS_PARAMETER</text></g><g class="relationship" transform="translate(109.04523321864326 2.6894566578227446) rotate(471.7567592587584)"><path class="b-outline" fill="#A5ABB6" stroke="none" d="M 25 0.5 L 26.571687209190813 0.5 L 26.571687209190813 -0.5 L 25 -0.5 Z M 113.46621845919081 0.5 L 115.03790566838163 0.5 L 115.03790566838163 3.5 L 122.03790566838163 0 L 115.03790566838163 -3.5 L 115.03790566838163 -0.5 L 113.46621845919081 -0.5 Z"/><text text-anchor="middle" pointer-events="none" font-size="8px" fill="#000000" x="70.01895283419081" y="3" transform="rotate(180 70.01895283419081 0)" font-family="Helvetica Neue, Helvetica, Arial, sans-serif">HAS_UNITDEFINITI…</text></g><g class="relationship" transform="translate(-105.90071641177703 -172.71050827953033) rotate(353.7182608986295)"><path class="b-outline" fill="#A5ABB6" stroke="none" d="M 24.018736134675446,-6.953439040707552 L 24.277555179777966,-5.987513214418485 A 215.078822793135 215.078822793135 0 0 1 44.65073187693618,-10.400660808360499 L 44.4866370656405,-11.387105379994324 A 216.078822793135 216.078822793135 0 0 0 24.018736134675446,-6.953439040707552 Z M 110.82668380099952,-12.097840361443303 L 110.68376080334096,-11.108106550390914 A 215.078822793135 215.078822793135 0 0 1 131.14681097611418,-7.132458421329085 L 130.4326156928088,-4.218710817760037 L 138.0645879316595,-5.951627360878067 L 132.09907135385467,-11.017455226087815 L 131.3848760705493,-8.103707622518767 A 216.078822793135 216.078822793135 0 0 0 110.82668380099952,-12.097840361443303"/><text text-anchor="middle" pointer-events="none" font-size="8px" fill="#000000" x="77.6345766404809" y="-10.803775448022947" font-family="Helvetica Neue, Helvetica, Arial, sans-serif">HAS_PRODUCT</text></g><g class="relationship" transform="translate(55.47035756644588 -190.4739846473881) rotate(387.67852598470336)"><path class="b-outline" fill="#A5ABB6" stroke="none" d="M 25 0.5 L 34.875020369643835 0.5 L 34.875020369643835 -0.5 L 25 -0.5 Z M 115.25783286964383 0.5 L 125.13285323928767 0.5 L 125.13285323928767 3.5 L 132.13285323928767 0 L 125.13285323928767 -3.5 L 125.13285323928767 -0.5 L 115.25783286964383 -0.5 Z"/><text text-anchor="middle" pointer-events="none" font-size="8px" fill="#000000" x="75.06642661964383" y="3" font-family="Helvetica Neue, Helvetica, Arial, sans-serif">IN_COMPARTMENT</text></g><g class="relationship" transform="translate(-105.90071641177703 -172.71050827953033) rotate(479.7465101181423)"><path class="b-outline" fill="#A5ABB6" stroke="none" d="M 25 0.5 L 36.664056297155355 0.5 L 36.664056297155355 -0.5 L 25 -0.5 Z M 115.27733754715535 0.5 L 126.94139384431071 0.5 L 126.94139384431071 3.5 L 133.9413938443107 0 L 126.94139384431071 -3.5 L 126.94139384431071 -0.5 L 115.27733754715535 -0.5 Z"/><text text-anchor="middle" pointer-events="none" font-size="8px" fill="#000000" x="75.97069692215535" y="3" transform="rotate(180 75.97069692215535 0)" font-family="Helvetica Neue, Helvetica, Arial, sans-serif">HAS_KENETICLAW</text></g><g class="relationship" transform="translate(54.543132688380645 139.25323934244614) rotate(434.37481559809265)"><path class="b-outline" fill="#A5ABB6" stroke="none" d="M 25 0.5 L 34.75927852478732 0.5 L 34.75927852478732 -0.5 L 25 -0.5 Z M 99.43896602478732 0.5 L 109.19824454957464 0.5 L 109.19824454957464 3.5 L 116.19824454957464 0 L 109.19824454957464 -3.5 L 109.19824454957464 -0.5 L 99.43896602478732 -0.5 Z"/><text text-anchor="middle" pointer-events="none" font-size="8px" fill="#000000" x="67.09912227478732" y="3" font-family="Helvetica Neue, Helvetica, Arial, sans-serif">IS_COMPOSED</text></g></g><g class="layer nodes"><g class="node" aria-label="graph-node-9" transform="translate(-20.46856767808925,-62.20960308005625)"><circle class="b-outline" cx="0" cy="0" r="25" fill="#A5ABB6" stroke="#9AA1AC" stroke-width="2px"/><text class="caption" text-anchor="middle" pointer-events="none" x="0" y="5" font-size="10px" fill="#FFFFFF" font-family="Helvetica Neue, Helvetica, Arial, sans-serif"> assignm…</text></g><g class="node" aria-label="graph-node-4" transform="translate(92.57391313498697,275.23339966925084)"><circle class="b-outline" cx="0" cy="0" r="25" fill="#F16667" stroke="#eb2728" stroke-width="2px"/><text class="caption" text-anchor="middle" pointer-events="none" x="0" y="5" font-size="10px" fill="#FFFFFF" font-family="Helvetica Neue, Helvetica, Arial, sans-serif"> unit</text></g><g class="node" aria-label="graph-node-2" transform="translate(194.62215001001368,-117.48417558569962)"><circle class="b-outline" cx="0" cy="0" r="25" fill="#F79767" stroke="#f36924" stroke-width="2px"/><text class="caption" text-anchor="middle" pointer-events="none" x="0" y="5" font-size="10px" fill="#FFFFFF" font-family="Helvetica Neue, Helvetica, Arial, sans-serif"> compart…</text></g><g class="node" aria-label="graph-node-8" transform="translate(-90.06431103426156,88.2704532796473)"><circle class="b-outline" cx="0" cy="0" r="25" fill="#569480" stroke="#447666" stroke-width="2px"/><text class="caption" text-anchor="middle" pointer-events="none" x="0" y="5" font-size="10px" fill="#FFFFFF" font-family="Helvetica Neue, Helvetica, Arial, sans-serif"> Parameter</text></g><g class="node" aria-label="graph-node-3" transform="translate(109.04523321864326,2.6894566578227446)"><circle class="b-outline" cx="0" cy="0" r="25" fill="#57C7E3" stroke="#23b3d7" stroke-width="2px"/><text class="caption" text-anchor="middle" pointer-events="none" x="0" y="5" font-size="10px" fill="#2A2C34" font-family="Helvetica Neue, Helvetica, Arial, sans-serif"> model</text></g><g class="node" aria-label="graph-node-6" transform="translate(-105.90071641177703,-172.71050827953033)"><circle class="b-outline" cx="0" cy="0" r="25" fill="#4C8EDA" stroke="#2870c2" stroke-width="2px"/><text class="caption" text-anchor="middle" pointer-events="none" x="0" y="5" font-size="10px" fill="#FFFFFF" font-family="Helvetica Neue, Helvetica, Arial, sans-serif"> Reaction</text></g><g class="node" aria-label="graph-node-5" transform="translate(55.47035756644588,-190.4739846473881)"><circle class="b-outline" cx="0" cy="0" r="25" fill="#ECB5C9" stroke="#da7298" stroke-width="2px"/><text class="caption" text-anchor="middle" pointer-events="none" x="0" y="5" font-size="10px" fill="#2A2C34" font-family="Helvetica Neue, Helvetica, Arial, sans-serif"> Species</text></g><g class="node" aria-label="graph-node-7" transform="translate(-184.76165388080847,-34.712974900568064)"><circle class="b-outline" cx="0" cy="0" r="25" fill="#FFC454" stroke="#d7a013" stroke-width="2px"/><text class="caption" text-anchor="middle" pointer-events="none" x="0" y="5" font-size="10px" fill="#2A2C34" font-family="Helvetica Neue, Helvetica, Arial, sans-serif"> KineticL…</text></g><g class="node" aria-label="graph-node-1" transform="translate(54.543132688380645,139.25323934244614)"><circle class="b-outline" cx="0" cy="0" r="25" fill="#D9C8AE" stroke="#c0a378" stroke-width="2px"/><text class="caption" text-anchor="middle" pointer-events="none" x="0" y="5" font-size="10px" fill="#2A2C34" font-family="Helvetica Neue, Helvetica, Arial, sans-serif"> UnitDefi…</text></g></g></svg>