<svg xmlns="http://www.w3.org/2000/svg" width="336.8193359375" height="567.7595825195312" viewBox="-101.53104400634766 -300.82110595703125 336.8193359375 567.7595825195312"><title>Neo4j Graph Visualization</title><desc>Created using Neo4j (http://www.neo4j.com/)</desc><g class="layer relationships"><g class="relationship" transform="translate(97.05013974904378 100.51846230736943) rotate(440.7492913936792)"><path class="b-outline" fill="#A5ABB6" stroke="none" d="M 25 0.5 L 25.923985775570017 0.5 L 25.923985775570017 -0.5 L 25 -0.5 Z M 106.30679827557002 0.5 L 107.23078405114003 0.5 L 107.23078405114003 3.5 L 114.23078405114003 0 L 107.23078405114003 -3.5 L 107.23078405114003 -0.5 L 106.30679827557002 -0.5 Z"/><text text-anchor="middle" pointer-events="none" font-size="8px" fill="#000000" x="66.11539202557002" y="3" font-family="Helvetica Neue, Helvetica, Arial, sans-serif">IN_COMPARTMENT</text></g><g class="relationship" transform="translate(206.2883000992657 103.795671202028) rotate(482.92266249053495)"><path class="b-outline" fill="#A5ABB6" stroke="none" d="M 25 0.5 L 36.212096575669634 0.5 L 36.212096575669634 -0.5 L 25 -0.5 Z M 116.59490907566963 0.5 L 127.80700565133927 0.5 L 127.80700565133927 3.5 L 134.80700565133927 0 L 127.80700565133927 -3.5 L 127.80700565133927 -0.5 L 116.59490907566963 -0.5 Z"/><text text-anchor="middle" pointer-events="none" font-size="8px" fill="#000000" x="76.40350282566963" y="3" transform="rotate(180 76.40350282566963 0)" font-family="Helvetica Neue, Helvetica, Arial, sans-serif">IN_COMPARTMENT</text></g><g class="relationship" transform="translate(155.79561234692298 -41.72255776990634) rotate(240.0819299331207)"><path class="b-outline" fill="#A5ABB6" stroke="none" d="M 25 0.5 L 48.93569518508373 0.5 L 48.93569518508373 -0.5 L 25 -0.5 Z M 105.17007018508373 0.5 L 129.10576537016746 0.5 L 129.10576537016746 3.5 L 136.10576537016746 0 L 129.10576537016746 -3.5 L 129.10576537016746 -0.5 L 105.17007018508373 -0.5 Z"/><text text-anchor="middle" pointer-events="none" font-size="8px" fill="#000000" x="77.05288268508373" y="3" transform="rotate(180 77.05288268508373 0)" font-family="Helvetica Neue, Helvetica, Arial, sans-serif">HAS_GROUP</text></g><g class="relationship" transform="translate(75.44232057706257 -181.35928695408313) rotate(218.39110178318782)"><path class="b-outline" fill="#A5ABB6" stroke="none" d="M 25 0.5 L 38.32669492908988 0.5 L 38.32669492908988 -0.5 L 25 -0.5 Z M 100.33841367908988 0.5 L 113.66510860817976 0.5 L 113.66510860817976 3.5 L 120.66510860817976 0 L 113.66510860817976 -3.5 L 113.66510860817976 -0.5 L 100.33841367908988 -0.5 Z"/><text text-anchor="middle" pointer-events="none" font-size="8px" fill="#000000" x="69.33255430408988" y="3" transform="rotate(180 69.33255430408988 0)" font-family="Helvetica Neue, Helvetica, Arial, sans-serif">HAS_MEMBER</text></g><g class="relationship" transform="translate(75.44232057706257 -181.35928695408313) rotate(529.7644546736813)"><path class="b-outline" fill="#A5ABB6" stroke="none" d="M 25 0.5 L 40.67732015944685 0.5 L 40.67732015944685 -0.5 L 25 -0.5 Z M 102.68903890944685 0.5 L 118.3663590688937 0.5 L 118.3663590688937 3.5 L 125.3663590688937 0 L 118.3663590688937 -3.5 L 118.3663590688937 -0.5 L 102.68903890944685 -0.5 Z"/><text text-anchor="middle" pointer-events="none" font-size="8px" fill="#000000" x="71.68317953444685" y="3" transform="rotate(180 71.68317953444685 0)" font-family="Helvetica Neue, Helvetica, Arial, sans-serif">HAS_MEMBER</text></g><g class="relationship" transform="translate(155.79561234692298 -41.72255776990634) rotate(472.4406016312864)"><path class="b-outline" fill="#A5ABB6" stroke="none" d="M 25 0.5 L 42.65822196048656 0.5 L 42.65822196048656 -0.5 L 25 -0.5 Z M 104.23634696048656 0.5 L 121.89456892097311 0.5 L 121.89456892097311 3.5 L 128.89456892097311 0 L 121.89456892097311 -3.5 L 121.89456892097311 -0.5 L 104.23634696048656 -0.5 Z"/><text text-anchor="middle" pointer-events="none" font-size="8px" fill="#000000" x="73.44728446048656" y="3" transform="rotate(180 73.44728446048656 0)" font-family="Helvetica Neue, Helvetica, Arial, sans-serif">HAS_SPECIES</text></g><g class="relationship" transform="translate(155.79561234692298 -41.72255776990634) rotate(430.8639770581799)"><path class="b-outline" fill="#A5ABB6" stroke="none" d="M 25 0.5 L 42.7256544046019 0.5 L 42.7256544046019 -0.5 L 25 -0.5 Z M 104.3037794046019 0.5 L 122.0294338092038 0.5 L 122.0294338092038 3.5 L 129.0294338092038 0 L 122.0294338092038 -3.5 L 122.0294338092038 -0.5 L 104.3037794046019 -0.5 Z"/><text text-anchor="middle" pointer-events="none" font-size="8px" fill="#000000" x="73.5147169046019" y="3" font-family="Helvetica Neue, Helvetica, Arial, sans-serif">HAS_SPECIES</text></g><g class="relationship" transform="translate(155.79561234692298 -41.72255776990634) rotate(189.92341930636866)"><path class="b-outline" fill="#A5ABB6" stroke="none" d="M 25 0.5 L 45.66676215923404 0.5 L 45.66676215923404 -0.5 L 25 -0.5 Z M 93.90504340923404 0.5 L 114.57180556846808 0.5 L 114.57180556846808 3.5 L 121.57180556846808 0 L 114.57180556846808 -3.5 L 114.57180556846808 -0.5 L 93.90504340923404 -0.5 Z"/><text text-anchor="middle" pointer-events="none" font-size="8px" fill="#000000" x="69.78590278423404" y="3" transform="rotate(180 69.78590278423404 0)" font-family="Helvetica Neue, Helvetica, Arial, sans-serif">HAS_RULE</text></g><g class="relationship" transform="translate(155.79561234692298 -41.72255776990634) rotate(510.6886224802755)"><path class="b-outline" fill="#A5ABB6" stroke="none" d="M 25 0.5 L 47.62607848379193 0.5 L 47.62607848379193 -0.5 L 25 -0.5 Z M 95.86435973379193 0.5 L 118.49043821758386 0.5 L 118.49043821758386 3.5 L 125.49043821758386 0 L 118.49043821758386 -3.5 L 118.49043821758386 -0.5 L 95.86435973379193 -0.5 Z"/><text text-anchor="middle" pointer-events="none" font-size="8px" fill="#000000" x="71.74521910879193" y="3" transform="rotate(180 71.74521910879193 0)" font-family="Helvetica Neue, Helvetica, Arial, sans-serif">HAS_RULE</text></g></g><g class="layer nodes"><g class="node" aria-label="graph-node0" transform="translate(119.43215273387368,237.938463479841)"><circle class="b-outline" cx="0" cy="0" r="25" fill="#A5ABB6" stroke="#9AA1AC" stroke-width="2px"/><text class="caption" text-anchor="middle" pointer-events="none" x="0" y="5" font-size="10px" fill="#FFFFFF" font-family="Helvetica Neue, Helvetica, Arial, sans-serif"> compart…</text></g><g class="node" aria-label="graph-node1" transform="translate(97.05013974904378,100.51846230736943)"><circle class="b-outline" cx="0" cy="0" r="25" fill="#ECB5C9" stroke="#da7298" stroke-width="2px"/><text class="caption" text-anchor="middle" pointer-events="none" x="0" y="5" font-size="10px" fill="#2A2C34" font-family="Helvetica Neue, Helvetica, Arial, sans-serif"> Dose1</text></g><g class="node" aria-label="graph-node2" transform="translate(206.2883000992657,103.795671202028)"><circle class="b-outline" cx="0" cy="0" r="25" fill="#ECB5C9" stroke="#da7298" stroke-width="2px"/><text class="caption" text-anchor="middle" pointer-events="none" x="0" y="5" font-size="10px" fill="#2A2C34" font-family="Helvetica Neue, Helvetica, Arial, sans-serif"> Dose2</text></g><g class="node" aria-label="graph-node3" transform="translate(155.79561234692298,-41.72255776990634)"><circle class="b-outline" cx="0" cy="0" r="25" fill="#57C7E3" stroke="#23b3d7" stroke-width="2px"/><text class="caption" text-anchor="middle" pointer-events="none" x="0" y="5" font-size="10px" fill="#2A2C34" font-family="Helvetica Neue, Helvetica, Arial, sans-serif"> cell</text></g><g class="node" aria-label="graph-node4" transform="translate(75.44232057706257,-181.35928695408313)"><circle class="b-outline" cx="0" cy="0" r="25" fill="#A5ABB6" stroke="#9AA1AC" stroke-width="2px"/><text class="caption" text-anchor="middle" pointer-events="none" x="0" y="5" font-size="10px" fill="#FFFFFF" font-family="Helvetica Neue, Helvetica, Arial, sans-serif"> effectB</text></g><g class="node" aria-label="graph-node5" transform="translate(-38.728522386393486,-271.82111582597065)"><circle class="b-outline" cx="0" cy="0" r="25" fill="#A5ABB6" stroke="#9AA1AC" stroke-width="2px"/><text class="caption" text-anchor="middle" pointer-events="none" x="0" y="5" font-size="10px" fill="#FFFFFF" font-family="Helvetica Neue, Helvetica, Arial, sans-serif"> fb8b68c…</text></g><g class="node" aria-label="graph-node6" transform="translate(-72.53104182499668,-154.63989401441637)"><circle class="b-outline" cx="0" cy="0" r="25" fill="#A5ABB6" stroke="#9AA1AC" stroke-width="2px"/><text class="caption" text-anchor="middle" pointer-events="none" x="0" y="5" font-size="10px" fill="#FFFFFF" font-family="Helvetica Neue, Helvetica, Arial, sans-serif"> d5bf674f…</text></g><g class="node" aria-label="graph-node7" transform="translate(11.416672123489189,-66.9815325622241)"><circle class="b-outline" cx="0" cy="0" r="25" fill="#A5ABB6" stroke="#9AA1AC" stroke-width="2px"/><text class="caption" text-anchor="middle" pointer-events="none" x="0" y="5" font-size="10px" fill="#FFFFFF" font-family="Helvetica Neue, Helvetica, Arial, sans-serif"> Dose1</text></g><g class="node" aria-label="graph-node8" transform="translate(24.57215251158167,31.950881024295406)"><circle class="b-outline" cx="0" cy="0" r="25" fill="#A5ABB6" stroke="#9AA1AC" stroke-width="2px"/><text class="caption" text-anchor="middle" pointer-events="none" x="0" y="5" font-size="10px" fill="#FFFFFF" font-family="Helvetica Neue, Helvetica, Arial, sans-serif"> Dose2</text></g></g></svg>