<svg xmlns="http://www.w3.org/2000/svg" width="343.524658203125" height="260.118896484375" viewBox="-267.2839050292969 -254.8980255126953 343.524658203125 260.118896484375"><title>Neo4j Graph Visualization</title><desc>Created using Neo4j (http://www.neo4j.com/)</desc><g class="layer relationships"><g class="relationship" transform="translate(-9.798216893760767 -144.11010070420124) rotate(428.1317517853656)"><path class="b-outline" fill="#A5ABB6" stroke="none" d="M 25 0.5 L 29.962557833441537 0.5 L 29.962557833441537 -0.5 L 25 -0.5 Z M 91.97427658344154 0.5 L 96.93683441688307 0.5 L 96.93683441688307 3.5 L 103.93683441688307 0 L 96.93683441688307 -3.5 L 96.93683441688307 -0.5 L 91.97427658344154 -0.5 Z"/><text text-anchor="middle" pointer-events="none" font-size="8px" fill="#000000" x="60.96841720844154" y="3" font-family="Helvetica Neue, Helvetica, Arial, sans-serif">HAS_MEMBER</text></g><g class="relationship" transform="translate(-99.89251139714462 -214.77893575986968) rotate(398.1101925331374)"><path class="b-outline" fill="#A5ABB6" stroke="none" d="M 25 0.5 L 25.63459445957688 0.5 L 25.63459445957688 -0.5 L 25 -0.5 Z M 81.86896945957687 0.5 L 82.50356391915376 0.5 L 82.50356391915376 3.5 L 89.50356391915376 0 L 82.50356391915376 -3.5 L 82.50356391915376 -0.5 L 81.86896945957687 -0.5 Z"/><text text-anchor="middle" pointer-events="none" font-size="8px" fill="#000000" x="53.75178195957688" y="3" font-family="Helvetica Neue, Helvetica, Arial, sans-serif">HAS_GROUP</text></g><g class="relationship" transform="translate(-99.89251139714462 -214.77893575986968) rotate(520.9761674759925)"><path class="b-outline" fill="#A5ABB6" stroke="none" d="M 25 0.5 L 38.90422836505515 0.5 L 38.90422836505515 -0.5 L 25 -0.5 Z M 100.48235336505515 0.5 L 114.3865817301103 0.5 L 114.3865817301103 3.5 L 121.3865817301103 0 L 114.3865817301103 -3.5 L 114.3865817301103 -0.5 L 100.48235336505515 -0.5 Z"/><text text-anchor="middle" pointer-events="none" font-size="8px" fill="#000000" x="69.69329086505515" y="3" transform="rotate(180 69.69329086505515 0)" font-family="Helvetica Neue, Helvetica, Arial, sans-serif">HAS_SPECIES</text></g><g class="relationship" transform="translate(-99.89251139714462 -214.77893575986968) rotate(355.67828045207307)"><path class="b-outline" fill="#A5ABB6" stroke="none" d="M 25 0.5 L 46.15725397526178 0.5 L 46.15725397526178 -0.5 L 25 -0.5 Z M 94.39553522526178 0.5 L 115.55278920052356 0.5 L 115.55278920052356 3.5 L 122.55278920052356 0 L 115.55278920052356 -3.5 L 115.55278920052356 -0.5 L 94.39553522526178 -0.5 Z"/><text text-anchor="middle" pointer-events="none" font-size="8px" fill="#000000" x="70.27639460026178" y="3" font-family="Helvetica Neue, Helvetica, Arial, sans-serif">HAS_RULE</text></g><g class="relationship" transform="translate(-238.28390769982883 -167.0625576489981) rotate(409.22704406046364)"><path class="b-outline" fill="#A5ABB6" stroke="none" d="M 25 0.5 L 50.90965440378625 0.5 L 50.90965440378625 -0.5 L 25 -0.5 Z M 131.29246690378625 0.5 L 157.2021213075725 0.5 L 157.2021213075725 3.5 L 164.2021213075725 0 L 157.2021213075725 -3.5 L 157.2021213075725 -0.5 L 131.29246690378625 -0.5 Z"/><text text-anchor="middle" pointer-events="none" font-size="8px" fill="#000000" x="91.10106065378625" y="3" font-family="Helvetica Neue, Helvetica, Arial, sans-serif">IN_COMPARTMENT</text></g></g><g class="layer nodes"><g class="node" aria-label="graph-node-6" transform="translate(47.24073197491308,-225.89803175158485)"><circle class="b-outline" cx="0" cy="0" r="25" fill="#A5ABB6" stroke="#9AA1AC" stroke-width="2px"/><text class="caption" text-anchor="middle" pointer-events="none" x="0" y="5" font-size="10px" fill="#FFFFFF" font-family="Helvetica Neue, Helvetica, Arial, sans-serif"> assignm…</text></g><g class="node" aria-label="graph-node-1" transform="translate(-114.72296045243374,-23.779149598338506)"><circle class="b-outline" cx="0" cy="0" r="25" fill="#A5ABB6" stroke="#9AA1AC" stroke-width="2px"/><text class="caption" text-anchor="middle" pointer-events="none" x="0" y="5" font-size="10px" fill="#FFFFFF" font-family="Helvetica Neue, Helvetica, Arial, sans-serif"> Compart…</text></g><g class="node" aria-label="graph-node-5" transform="translate(38.22734268909508,-24.4511984185782)"><circle class="b-outline" cx="0" cy="0" r="25" fill="#A5ABB6" stroke="#9AA1AC" stroke-width="2px"/><text class="caption" text-anchor="middle" pointer-events="none" x="0" y="5" font-size="10px" fill="#FFFFFF" font-family="Helvetica Neue, Helvetica, Arial, sans-serif"> member</text></g><g class="node" aria-label="graph-node-3" transform="translate(-99.89251139714462,-214.77893575986968)"><circle class="b-outline" cx="0" cy="0" r="25" fill="#57C7E3" stroke="#23b3d7" stroke-width="2px"/><text class="caption" text-anchor="middle" pointer-events="none" x="0" y="5" font-size="10px" fill="#2A2C34" font-family="Helvetica Neue, Helvetica, Arial, sans-serif"> model</text></g><g class="node" aria-label="graph-node-2" transform="translate(-238.28390769982883,-167.0625576489981)"><circle class="b-outline" cx="0" cy="0" r="25" fill="#ECB5C9" stroke="#da7298" stroke-width="2px"/><text class="caption" text-anchor="middle" pointer-events="none" x="0" y="5" font-size="10px" fill="#2A2C34" font-family="Helvetica Neue, Helvetica, Arial, sans-serif"> Species</text></g><g class="node" aria-label="graph-node-4" transform="translate(-9.798216893760767,-144.11010070420124)"><circle class="b-outline" cx="0" cy="0" r="25" fill="#A5ABB6" stroke="#9AA1AC" stroke-width="2px"/><text class="caption" text-anchor="middle" pointer-events="none" x="0" y="5" font-size="10px" fill="#FFFFFF" font-family="Helvetica Neue, Helvetica, Arial, sans-serif"> group</text></g></g></svg>