<svg xmlns="http://www.w3.org/2000/svg" width="726.1561279296875" height="569.6874389648438" viewBox="-322.276123046875 -299.282958984375 726.1561279296875 569.6874389648438"><title>Neo4j Graph Visualization</title><desc>Created using Neo4j (http://www.neo4j.com/)</desc><g class="layer relationships"><g class="relationship" transform="translate(186.19737666898237 -55.76839879719945) rotate(430.36505077557337)"><path class="b-outline" fill="#A5ABB6" stroke="none" d="M 25 0.5 L 39.97619003510276 0.5 L 39.97619003510276 -0.5 L 25 -0.5 Z M 120.35900253510276 0.5 L 135.33519257020552 0.5 L 135.33519257020552 3.5 L 142.33519257020552 0 L 135.33519257020552 -3.5 L 135.33519257020552 -0.5 L 120.35900253510276 -0.5 Z"/><text text-anchor="middle" pointer-events="none" font-size="8px" fill="#000000" x="80.16759628510276" y="3" font-family="Helvetica Neue, Helvetica, Arial, sans-serif">IN_COMPARTMENT</text></g><g class="relationship" transform="translate(39.27721485788355 115.66121273081473) rotate(356.10696363546515)"><path class="b-outline" fill="#A5ABB6" stroke="none" d="M 25 0.5 L 58.118095860422386 0.5 L 58.118095860422386 -0.5 L 25 -0.5 Z M 138.5009083604224 0.5 L 171.61900422084477 0.5 L 171.61900422084477 3.5 L 178.61900422084477 0 L 171.61900422084477 -3.5 L 171.61900422084477 -0.5 L 138.5009083604224 -0.5 Z"/><text text-anchor="middle" pointer-events="none" font-size="8px" fill="#000000" x="98.30950211042239" y="3" font-family="Helvetica Neue, Helvetica, Arial, sans-serif">IN_COMPARTMENT</text></g><g class="relationship" transform="translate(284.7594355169282 -56.15792022237834) rotate(464.99950241791413)"><path class="b-outline" fill="#A5ABB6" stroke="none" d="M 25 0.5 L 38.09243551407353 0.5 L 38.09243551407353 -0.5 L 25 -0.5 Z M 118.47524801407353 0.5 L 131.56768352814706 0.5 L 131.56768352814706 3.5 L 138.56768352814706 0 L 131.56768352814706 -3.5 L 131.56768352814706 -0.5 L 118.47524801407353 -0.5 Z"/><text text-anchor="middle" pointer-events="none" font-size="8px" fill="#000000" x="78.28384176407353" y="3" transform="rotate(180 78.28384176407353 0)" font-family="Helvetica Neue, Helvetica, Arial, sans-serif">IN_COMPARTMENT</text></g><g class="relationship" transform="translate(98.22491124384648 -10.587417949483656) rotate(397.9411289440756)"><path class="b-outline" fill="#A5ABB6" stroke="none" d="M 25 0.5 L 47.73239277233017 0.5 L 47.73239277233017 -0.5 L 25 -0.5 Z M 128.11520527233017 0.5 L 150.84759804466034 0.5 L 150.84759804466034 3.5 L 157.84759804466034 0 L 150.84759804466034 -3.5 L 150.84759804466034 -0.5 L 128.11520527233017 -0.5 Z"/><text text-anchor="middle" pointer-events="none" font-size="8px" fill="#000000" x="87.92379902233017" y="3" font-family="Helvetica Neue, Helvetica, Arial, sans-serif">IN_COMPARTMENT</text></g><g class="relationship" transform="translate(374.87995568946144 -13.974360982073524) rotate(498.83510819534126)"><path class="b-outline" fill="#A5ABB6" stroke="none" d="M 25 0.5 L 44.28039605543282 0.5 L 44.28039605543282 -0.5 L 25 -0.5 Z M 124.66320855543282 0.5 L 143.94360461086563 0.5 L 143.94360461086563 3.5 L 150.94360461086563 0 L 143.94360461086563 -3.5 L 143.94360461086563 -0.5 L 124.66320855543282 -0.5 Z"/><text text-anchor="middle" pointer-events="none" font-size="8px" fill="#000000" x="84.47180230543282" y="3" transform="rotate(180 84.47180230543282 0)" font-family="Helvetica Neue, Helvetica, Arial, sans-serif">IN_COMPARTMENT</text></g><g class="relationship" transform="translate(188.04798472221057 241.4044580602196) rotate(291.2868832768327)"><path class="b-outline" fill="#A5ABB6" stroke="none" d="M 25 0.5 L 31.202133657197876 0.5 L 31.202133657197876 -0.5 L 25 -0.5 Z M 111.58494615719788 0.5 L 117.78707981439575 0.5 L 117.78707981439575 3.5 L 124.78707981439575 0 L 117.78707981439575 -3.5 L 117.78707981439575 -0.5 L 111.58494615719788 -0.5 Z"/><text text-anchor="middle" pointer-events="none" font-size="8px" fill="#000000" x="71.39353990719788" y="3" font-family="Helvetica Neue, Helvetica, Arial, sans-serif">IN_COMPARTMENT</text></g><g class="relationship" transform="translate(125.63995906658508 -196.434190733432) rotate(401.3986995864425)"><path class="b-outline" fill="#A5ABB6" stroke="none" d="M 25 0.5 L 69.3352589230757 0.5 L 69.3352589230757 -0.5 L 25 -0.5 Z M 135.78838392307568 0.5 L 180.1236428461514 0.5 L 180.1236428461514 3.5 L 187.1236428461514 0 L 180.1236428461514 -3.5 L 180.1236428461514 -0.5 L 135.78838392307568 -0.5 Z"/><text text-anchor="middle" pointer-events="none" font-size="8px" fill="#000000" x="102.5618214230757" y="3" font-family="Helvetica Neue, Helvetica, Arial, sans-serif">HAS_PRODUCT</text></g><g class="relationship" transform="translate(-131.05268514148358 6.375004284845687) rotate(392.6848371185357)"><path class="b-outline" fill="#A5ABB6" stroke="none" d="M 25 0.5 L 64.46107284924882 0.5 L 64.46107284924882 -0.5 L 25 -0.5 Z M 130.9141978492488 0.5 L 170.37527069849764 0.5 L 170.37527069849764 3.5 L 177.37527069849764 0 L 170.37527069849764 -3.5 L 170.37527069849764 -0.5 L 130.9141978492488 -0.5 Z"/><text text-anchor="middle" pointer-events="none" font-size="8px" fill="#000000" x="97.68763534924882" y="3" font-family="Helvetica Neue, Helvetica, Arial, sans-serif">HAS_PRODUCT</text></g><g class="relationship" transform="translate(276.43802604714506 -178.89180831321997) rotate(419.16632979484314)"><path class="b-outline" fill="#A5ABB6" stroke="none" d="M 25 0.5 L 59.30543470135501 0.5 L 59.30543470135501 -0.5 L 25 -0.5 Z M 125.75855970135501 0.5 L 160.06399440271002 0.5 L 160.06399440271002 3.5 L 167.06399440271002 0 L 160.06399440271002 -3.5 L 160.06399440271002 -0.5 L 125.75855970135501 -0.5 Z"/><text text-anchor="middle" pointer-events="none" font-size="8px" fill="#000000" x="92.53199720135501" y="3" font-family="Helvetica Neue, Helvetica, Arial, sans-serif">HAS_PRODUCT</text></g><g class="relationship" transform="translate(276.43802604714506 -178.89180831321997) rotate(496.63793579705543)"><path class="b-outline" fill="#A5ABB6" stroke="none" d="M 25 0.5 L 85.83595430632482 0.5 L 85.83595430632482 -0.5 L 25 -0.5 Z M 152.28907930632482 0.5 L 213.12503361264964 0.5 L 213.12503361264964 3.5 L 220.12503361264964 0 L 213.12503361264964 -3.5 L 213.12503361264964 -0.5 L 152.28907930632482 -0.5 Z"/><text text-anchor="middle" pointer-events="none" font-size="8px" fill="#000000" x="119.06251680632482" y="3" transform="rotate(180 119.06251680632482 0)" font-family="Helvetica Neue, Helvetica, Arial, sans-serif">HAS_PRODUCT</text></g><g class="relationship" transform="translate(144.2322196670143 84.97970092828349) rotate(244.29320479842607)"><path class="b-outline" fill="#A5ABB6" stroke="none" d="M 25 0.5 L 26.52655203288755 0.5 L 26.52655203288755 -0.5 L 25 -0.5 Z M 72.53827078288755 0.5 L 74.0648228157751 0.5 L 74.0648228157751 3.5 L 81.0648228157751 0 L 74.0648228157751 -3.5 L 74.0648228157751 -0.5 L 72.53827078288755 -0.5 Z"/><text text-anchor="middle" pointer-events="none" font-size="8px" fill="#000000" x="49.53241140788755" y="3" transform="rotate(180 49.53241140788755 0)" font-family="Helvetica Neue, Helvetica, Arial, sans-serif">HAS_PR…</text></g><g class="relationship" transform="translate(144.2322196670143 84.97970092828349) rotate(434.3520362800037)"><path class="b-outline" fill="#A5ABB6" stroke="none" d="M 25 0.5 L 44.496165093878176 0.5 L 44.496165093878176 -0.5 L 25 -0.5 Z M 110.94929009387818 0.5 L 130.44545518775635 0.5 L 130.44545518775635 3.5 L 137.44545518775635 0 L 130.44545518775635 -3.5 L 130.44545518775635 -0.5 L 110.94929009387818 -0.5 Z"/><text text-anchor="middle" pointer-events="none" font-size="8px" fill="#000000" x="77.72272759387818" y="3" font-family="Helvetica Neue, Helvetica, Arial, sans-serif">HAS_PRODUCT</text></g><g class="relationship" transform="translate(125.63995906658508 -196.434190733432) rotate(488.10866665416535)"><path class="b-outline" fill="#A5ABB6" stroke="none" d="M 25 0.5 L 42.7913318449754 0.5 L 42.7913318449754 -0.5 L 25 -0.5 Z M 148.3655505949754 0.5 L 166.1568824399508 0.5 L 166.1568824399508 3.5 L 173.1568824399508 0 L 166.1568824399508 -3.5 L 166.1568824399508 -0.5 L 148.3655505949754 -0.5 Z"/><text text-anchor="middle" pointer-events="none" font-size="8px" fill="#000000" x="95.5784412199754" y="3" transform="rotate(180 95.5784412199754 0)" font-family="Helvetica Neue, Helvetica, Arial, sans-serif">HAS_LOWERFLUXBOUND</text></g><g class="relationship" transform="translate(-131.05268514148358 6.375004284845687) rotate(340.76641053178787)"><path class="b-outline" fill="#A5ABB6" stroke="none" d="M 25 0.5 L 25.330367056332676 0.5 L 25.330367056332676 -0.5 L 25 -0.5 Z M 110.01396080633268 0.5 L 110.34432786266535 0.5 L 110.34432786266535 3.5 L 117.34432786266535 0 L 110.34432786266535 -3.5 L 110.34432786266535 -0.5 L 110.01396080633268 -0.5 Z"/><text text-anchor="middle" pointer-events="none" font-size="8px" fill="#000000" x="67.67216393133268" y="3" font-family="Helvetica Neue, Helvetica, Arial, sans-serif">HAS_LOWERFLUX…</text></g><g class="relationship" transform="translate(276.43802604714506 -178.89180831321997) rotate(513.1286306186717)"><path class="b-outline" fill="#A5ABB6" stroke="none" d="M 25 0.5 L 96.78708565189251 0.5 L 96.78708565189251 -0.5 L 25 -0.5 Z M 202.3613044018925 0.5 L 274.148390053785 0.5 L 274.148390053785 3.5 L 281.148390053785 0 L 274.148390053785 -3.5 L 274.148390053785 -0.5 L 202.3613044018925 -0.5 Z"/><text text-anchor="middle" pointer-events="none" font-size="8px" fill="#000000" x="149.5741950268925" y="3" transform="rotate(180 149.5741950268925 0)" font-family="Helvetica Neue, Helvetica, Arial, sans-serif">HAS_LOWERFLUXBOUND</text></g><g class="relationship" transform="translate(144.2322196670143 84.97970092828349) rotate(221.69346354631705)"><path class="b-outline" fill="#A5ABB6" stroke="none" d="M 25 0.5 L 38.05003901424797 0.5 L 38.05003901424797 -0.5 L 25 -0.5 Z M 143.62425776424797 0.5 L 156.67429677849594 0.5 L 156.67429677849594 3.5 L 163.67429677849594 0 L 156.67429677849594 -3.5 L 156.67429677849594 -0.5 L 143.62425776424797 -0.5 Z"/><text text-anchor="middle" pointer-events="none" font-size="8px" fill="#000000" x="90.83714838924797" y="3" transform="rotate(180 90.83714838924797 0)" font-family="Helvetica Neue, Helvetica, Arial, sans-serif">HAS_LOWERFLUXBOUND</text></g><g class="relationship" transform="translate(-143.9361736642991 -126.80636889495605) rotate(310.37829151152334)"><path class="b-outline" fill="#A5ABB6" stroke="none" d="M 25 0.5 L 37.68340142592763 0.5 L 37.68340142592763 -0.5 L 25 -0.5 Z M 113.77715142592763 0.5 L 126.46055285185525 0.5 L 126.46055285185525 3.5 L 133.46055285185525 0 L 126.46055285185525 -3.5 L 126.46055285185525 -0.5 L 113.77715142592763 -0.5 Z"/><text text-anchor="middle" pointer-events="none" font-size="8px" fill="#000000" x="75.73027642592763" y="3" font-family="Helvetica Neue, Helvetica, Arial, sans-serif">HAS_PARAMETER</text></g><g class="relationship" transform="translate(-143.9361736642991 -126.80636889495605) rotate(390.36527658275173)"><path class="b-outline" fill="#A5ABB6" stroke="none" d="M 25 0.5 L 43.80268209348458 0.5 L 43.80268209348458 -0.5 L 25 -0.5 Z M 119.89643209348458 0.5 L 138.69911418696915 0.5 L 138.69911418696915 3.5 L 145.69911418696915 0 L 138.69911418696915 -3.5 L 138.69911418696915 -0.5 L 119.89643209348458 -0.5 Z"/><text text-anchor="middle" pointer-events="none" font-size="8px" fill="#000000" x="81.84955709348458" y="3" font-family="Helvetica Neue, Helvetica, Arial, sans-serif">HAS_PARAMETER</text></g><g class="relationship" transform="translate(-143.9361736642991 -126.80636889495605) rotate(361.4658016936718)"><path class="b-outline" fill="#A5ABB6" stroke="none" d="M 25 0.5 L 60.06632840868653 0.5 L 60.06632840868653 -0.5 L 25 -0.5 Z M 136.16007840868653 0.5 L 171.22640681737306 0.5 L 171.22640681737306 3.5 L 178.22640681737306 0 L 171.22640681737306 -3.5 L 171.22640681737306 -0.5 L 136.16007840868653 -0.5 Z"/><text text-anchor="middle" pointer-events="none" font-size="8px" fill="#000000" x="98.11320340868653" y="3" font-family="Helvetica Neue, Helvetica, Arial, sans-serif">HAS_PARAMETER</text></g><g class="relationship" transform="translate(125.63995906658508 -196.434190733432) rotate(197.01637459756438)"><path class="b-outline" fill="#A5ABB6" stroke="none" d="M 25 0.5 L 31.880894665971326 0.5 L 31.880894665971326 -0.5 L 25 -0.5 Z M 135.6816759159713 0.5 L 142.56257058194265 0.5 L 142.56257058194265 3.5 L 149.56257058194265 0 L 142.56257058194265 -3.5 L 142.56257058194265 -0.5 L 135.6816759159713 -0.5 Z"/><text text-anchor="middle" pointer-events="none" font-size="8px" fill="#000000" x="83.78128529097133" y="3" transform="rotate(180 83.78128529097133 0)" font-family="Helvetica Neue, Helvetica, Arial, sans-serif">HAS_UPPERFLUXBOUND</text></g><g class="relationship" transform="translate(-131.05268514148358 6.375004284845687) rotate(326.0746285229976)"><path class="b-outline" fill="#A5ABB6" stroke="none" d="M 25 0.5 L 59.25638875489565 0.5 L 59.25638875489565 -0.5 L 25 -0.5 Z M 163.05717000489565 0.5 L 197.3135587597913 0.5 L 197.3135587597913 3.5 L 204.3135587597913 0 L 197.3135587597913 -3.5 L 197.3135587597913 -0.5 L 163.05717000489565 -0.5 Z"/><text text-anchor="middle" pointer-events="none" font-size="8px" fill="#000000" x="111.15677937989565" y="3" font-family="Helvetica Neue, Helvetica, Arial, sans-serif">HAS_UPPERFLUXBOUND</text></g><g class="relationship" transform="translate(276.43802604714506 -178.89180831321997) rotate(525.2262536179644)"><path class="b-outline" fill="#A5ABB6" stroke="none" d="M 25 0.5 L 56.92003208507546 0.5 L 56.92003208507546 -0.5 L 25 -0.5 Z M 160.72081333507546 0.5 L 192.64084542015092 0.5 L 192.64084542015092 3.5 L 199.64084542015092 0 L 192.64084542015092 -3.5 L 192.64084542015092 -0.5 L 160.72081333507546 -0.5 Z"/><text text-anchor="middle" pointer-events="none" font-size="8px" fill="#000000" x="108.82042271007546" y="3" transform="rotate(180 108.82042271007546 0)" font-family="Helvetica Neue, Helvetica, Arial, sans-serif">HAS_UPPERFLUXBOUND</text></g><g class="relationship" transform="translate(144.2322196670143 84.97970092828349) rotate(247.63337025066164)"><path class="b-outline" fill="#A5ABB6" stroke="none" d="M 25 0.5 L 56.296555315687925 0.5 L 56.296555315687925 -0.5 L 25 -0.5 Z M 160.09733656568793 0.5 L 191.39389188137585 0.5 L 191.39389188137585 3.5 L 198.39389188137585 0 L 191.39389188137585 -3.5 L 191.39389188137585 -0.5 L 160.09733656568793 -0.5 Z"/><text text-anchor="middle" pointer-events="none" font-size="8px" fill="#000000" x="108.19694594068793" y="3" transform="rotate(180 108.19694594068793 0)" font-family="Helvetica Neue, Helvetica, Arial, sans-serif">HAS_UPPERFLUXBOUND</text></g><g class="relationship" transform="translate(186.19737666898237 -55.76839879719945) rotate(246.7078491991719)"><path class="b-outline" fill="#A5ABB6" stroke="none" d="M 25 0.5 L 42.80797659956988 0.5 L 42.80797659956988 -0.5 L 25 -0.5 Z M 103.33922659956988 0.5 L 121.14720319913977 0.5 L 121.14720319913977 3.5 L 128.14720319913977 0 L 121.14720319913977 -3.5 L 121.14720319913977 -0.5 L 103.33922659956988 -0.5 Z"/><text text-anchor="middle" pointer-events="none" font-size="8px" fill="#000000" x="73.07360159956988" y="3" transform="rotate(180 73.07360159956988 0)" font-family="Helvetica Neue, Helvetica, Arial, sans-serif">IS_REACTANT</text></g><g class="relationship" transform="translate(98.22491124384648 -10.587417949483656) rotate(535.7688501398131)"><path class="b-outline" fill="#A5ABB6" stroke="none" d="M 25 0.5 L 81.186473689291 0.5 L 81.186473689291 -0.5 L 25 -0.5 Z M 141.717723689291 0.5 L 197.904197378582 0.5 L 197.904197378582 3.5 L 204.904197378582 0 L 197.904197378582 -3.5 L 197.904197378582 -0.5 L 141.717723689291 -0.5 Z"/><text text-anchor="middle" pointer-events="none" font-size="8px" fill="#000000" x="111.452098689291" y="3" transform="rotate(180 111.452098689291 0)" font-family="Helvetica Neue, Helvetica, Arial, sans-serif">IS_REACTANT</text></g><g class="relationship" transform="translate(284.7594355169282 -56.15792022237834) rotate(266.12125806515377)"><path class="b-outline" fill="#A5ABB6" stroke="none" d="M 25 0.5 L 27.742206089746276 0.5 L 27.742206089746276 -0.5 L 25 -0.5 Z M 88.27345608974628 0.5 L 91.01566217949255 0.5 L 91.01566217949255 3.5 L 98.01566217949255 0 L 91.01566217949255 -3.5 L 91.01566217949255 -0.5 L 88.27345608974628 -0.5 Z"/><text text-anchor="middle" pointer-events="none" font-size="8px" fill="#000000" x="58.007831089746276" y="3" transform="rotate(180 58.007831089746276 0)" font-family="Helvetica Neue, Helvetica, Arial, sans-serif">IS_REACTANT</text></g><g class="relationship" transform="translate(284.7594355169282 -56.15792022237834) rotate(494.8758325918599)"><path class="b-outline" fill="#A5ABB6" stroke="none" d="M 25 0.5 L 65.81816697765572 0.5 L 65.81816697765572 -0.5 L 25 -0.5 Z M 126.34941697765572 0.5 L 167.16758395531144 0.5 L 167.16758395531144 3.5 L 174.16758395531144 0 L 167.16758395531144 -3.5 L 167.16758395531144 -0.5 L 126.34941697765572 -0.5 Z"/><text text-anchor="middle" pointer-events="none" font-size="8px" fill="#000000" x="96.08379197765572" y="3" transform="rotate(180 96.08379197765572 0)" font-family="Helvetica Neue, Helvetica, Arial, sans-serif">IS_REACTANT</text></g><g class="relationship" transform="translate(-143.9361736642991 -126.80636889495605) rotate(486.36585048256507)"><path class="b-outline" fill="#A5ABB6" stroke="none" d="M 25 0.5 L 48.776434738217745 0.5 L 48.776434738217745 -0.5 L 25 -0.5 Z M 120.12799723821774 0.5 L 143.9044319764355 0.5 L 143.9044319764355 3.5 L 150.9044319764355 0 L 143.9044319764355 -3.5 L 143.9044319764355 -0.5 L 120.12799723821774 -0.5 Z"/><text text-anchor="middle" pointer-events="none" font-size="8px" fill="#000000" x="84.45221598821774" y="3" transform="rotate(180 84.45221598821774 0)" font-family="Helvetica Neue, Helvetica, Arial, sans-serif">HAS_OBJECTIVE</text></g><g class="relationship" transform="translate(-248.23677995976624 14.840207891602336) rotate(456.0413898982457)"><path class="b-outline" fill="#A5ABB6" stroke="none" d="M 25 0.5 L 27.014983066347114 0.5 L 27.014983066347114 -0.5 L 25 -0.5 Z M 118.81576431634711 0.5 L 120.83074738269423 0.5 L 120.83074738269423 3.5 L 127.83074738269423 0 L 120.83074738269423 -3.5 L 120.83074738269423 -0.5 L 118.81576431634711 -0.5 Z"/><text text-anchor="middle" pointer-events="none" font-size="8px" fill="#000000" x="72.91537369134711" y="3" transform="rotate(180 72.91537369134711 0)" font-family="Helvetica Neue, Helvetica, Arial, sans-serif">HAS_FLUXOBJECTIVE</text></g><g class="relationship" transform="translate(-143.9361736642991 -126.80636889495605) rotate(253.32323797785966)"><path class="b-outline" fill="#A5ABB6" stroke="none" d="M 25 0.5 L 25.940909771787943 0.5 L 25.940909771787943 -0.5 L 25 -0.5 Z M 116.83544102178794 0.5 L 117.77635079357589 0.5 L 117.77635079357589 3.5 L 124.77635079357589 0 L 117.77635079357589 -3.5 L 117.77635079357589 -0.5 L 116.83544102178794 -0.5 Z"/><text text-anchor="middle" pointer-events="none" font-size="8px" fill="#000000" x="71.38817539678794" y="3" transform="rotate(180 71.38817539678794 0)" font-family="Helvetica Neue, Helvetica, Arial, sans-serif">HAS_UNITDEFINITION</text></g><g class="relationship" transform="translate(-143.9361736642991 -126.80636889495605) rotate(209.92831983389436)"><path class="b-outline" fill="#A5ABB6" stroke="none" d="M 25 0.5 L 26.109349460833997 0.5 L 26.109349460833997 -0.5 L 25 -0.5 Z M 117.003880710834 0.5 L 118.113230171668 0.5 L 118.113230171668 3.5 L 125.113230171668 0 L 118.113230171668 -3.5 L 118.113230171668 -0.5 L 117.003880710834 -0.5 Z"/><text text-anchor="middle" pointer-events="none" font-size="8px" fill="#000000" x="71.556615085834" y="3" transform="rotate(180 71.556615085834 0)" font-family="Helvetica Neue, Helvetica, Arial, sans-serif">HAS_UNITDEFINITION</text></g><g class="relationship" transform="translate(-143.9361736642991 -126.80636889495605) rotate(530.8515630405934)"><path class="b-outline" fill="#A5ABB6" stroke="none" d="M 25 0.5 L 26.684761115387914 0.5 L 26.684761115387914 -0.5 L 25 -0.5 Z M 117.57929236538791 0.5 L 119.26405348077583 0.5 L 119.26405348077583 3.5 L 126.26405348077583 0 L 119.26405348077583 -3.5 L 119.26405348077583 -0.5 L 117.57929236538791 -0.5 Z"/><text text-anchor="middle" pointer-events="none" font-size="8px" fill="#000000" x="72.13202674038791" y="3" transform="rotate(180 72.13202674038791 0)" font-family="Helvetica Neue, Helvetica, Arial, sans-serif">HAS_UNITDEFINITION</text></g></g><g class="layer nodes"><g class="node" aria-label="graph-node0" transform="translate(242.42637595062175,101.83669728885089)"><circle class="b-outline" cx="0" cy="0" r="25" fill="#A5ABB6" stroke="#9AA1AC" stroke-width="2px"/><text class="caption" text-anchor="middle" pointer-events="none" x="0" y="5" font-size="10px" fill="#FFFFFF" font-family="Helvetica Neue, Helvetica, Arial, sans-serif"> compart…</text></g><g class="node" aria-label="graph-node1" transform="translate(186.19737666898237,-55.76839879719945)"><circle class="b-outline" cx="0" cy="0" r="25" fill="#ECB5C9" stroke="#da7298" stroke-width="2px"/><text class="caption" text-anchor="middle" pointer-events="none" x="0" y="5" font-size="10px" fill="#2A2C34" font-family="Helvetica Neue, Helvetica, Arial, sans-serif"> IN</text></g><g class="node" aria-label="graph-node2" transform="translate(39.27721485788355,115.66121273081473)"><circle class="b-outline" cx="0" cy="0" r="25" fill="#ECB5C9" stroke="#da7298" stroke-width="2px"/><text class="caption" text-anchor="middle" pointer-events="none" x="0" y="5" font-size="10px" fill="#2A2C34" font-family="Helvetica Neue, Helvetica, Arial, sans-serif"> OUT</text></g><g class="node" aria-label="graph-node3" transform="translate(284.7594355169282,-56.15792022237834)"><circle class="b-outline" cx="0" cy="0" r="25" fill="#ECB5C9" stroke="#da7298" stroke-width="2px"/><text class="caption" text-anchor="middle" pointer-events="none" x="0" y="5" font-size="10px" fill="#2A2C34" font-family="Helvetica Neue, Helvetica, Arial, sans-serif"> A</text></g><g class="node" aria-label="graph-node4" transform="translate(98.22491124384648,-10.587417949483656)"><circle class="b-outline" cx="0" cy="0" r="25" fill="#ECB5C9" stroke="#da7298" stroke-width="2px"/><text class="caption" text-anchor="middle" pointer-events="none" x="0" y="5" font-size="10px" fill="#2A2C34" font-family="Helvetica Neue, Helvetica, Arial, sans-serif"> B</text></g><g class="node" aria-label="graph-node5" transform="translate(374.87995568946144,-13.974360982073524)"><circle class="b-outline" cx="0" cy="0" r="25" fill="#ECB5C9" stroke="#da7298" stroke-width="2px"/><text class="caption" text-anchor="middle" pointer-events="none" x="0" y="5" font-size="10px" fill="#2A2C34" font-family="Helvetica Neue, Helvetica, Arial, sans-serif"> ATP</text></g><g class="node" aria-label="graph-node6" transform="translate(188.04798472221057,241.4044580602196)"><circle class="b-outline" cx="0" cy="0" r="25" fill="#ECB5C9" stroke="#da7298" stroke-width="2px"/><text class="caption" text-anchor="middle" pointer-events="none" x="0" y="5" font-size="10px" fill="#2A2C34" font-family="Helvetica Neue, Helvetica, Arial, sans-serif"> NADH</text></g><g class="node" aria-label="graph-node7" transform="translate(-41.28046463530657,-247.5190534557363)"><circle class="b-outline" cx="0" cy="0" r="25" fill="#569480" stroke="#447666" stroke-width="2px"/><text class="caption" text-anchor="middle" pointer-events="none" x="0" y="5" font-size="10px" fill="#FFFFFF" font-family="Helvetica Neue, Helvetica, Arial, sans-serif"> R1u</text></g><g class="node" aria-label="graph-node8" transform="translate(3.3464678679063278,-40.51609663028063)"><circle class="b-outline" cx="0" cy="0" r="25" fill="#569480" stroke="#447666" stroke-width="2px"/><text class="caption" text-anchor="middle" pointer-events="none" x="0" y="5" font-size="10px" fill="#FFFFFF" font-family="Helvetica Neue, Helvetica, Arial, sans-serif"> irrLow</text></g><g class="node" aria-label="graph-node9" transform="translate(59.22373162426902,-121.60778148678023)"><circle class="b-outline" cx="0" cy="0" r="25" fill="#569480" stroke="#447666" stroke-width="2px"/><text class="caption" text-anchor="middle" pointer-events="none" x="0" y="5" font-size="10px" fill="#FFFFFF" font-family="Helvetica Neue, Helvetica, Arial, sans-serif"> posInf</text></g><g class="node" aria-label="graph-node10" transform="translate(125.63995906658508,-196.434190733432)"><circle class="b-outline" cx="0" cy="0" r="25" fill="#4C8EDA" stroke="#2870c2" stroke-width="2px"/><text class="caption" text-anchor="middle" pointer-events="none" x="0" y="5" font-size="10px" fill="#FFFFFF" font-family="Helvetica Neue, Helvetica, Arial, sans-serif"> R1</text></g><g class="node" aria-label="graph-node11" transform="translate(-131.05268514148358,6.375004284845687)"><circle class="b-outline" cx="0" cy="0" r="25" fill="#4C8EDA" stroke="#2870c2" stroke-width="2px"/><text class="caption" text-anchor="middle" pointer-events="none" x="0" y="5" font-size="10px" fill="#FFFFFF" font-family="Helvetica Neue, Helvetica, Arial, sans-serif"> R2</text></g><g class="node" aria-label="graph-node12" transform="translate(276.43802604714506,-178.89180831321997)"><circle class="b-outline" cx="0" cy="0" r="25" fill="#4C8EDA" stroke="#2870c2" stroke-width="2px"/><text class="caption" text-anchor="middle" pointer-events="none" x="0" y="5" font-size="10px" fill="#FFFFFF" font-family="Helvetica Neue, Helvetica, Arial, sans-serif"> X1</text></g><g class="node" aria-label="graph-node13" transform="translate(144.2322196670143,84.97970092828349)"><circle class="b-outline" cx="0" cy="0" r="25" fill="#4C8EDA" stroke="#2870c2" stroke-width="2px"/><text class="caption" text-anchor="middle" pointer-events="none" x="0" y="5" font-size="10px" fill="#FFFFFF" font-family="Helvetica Neue, Helvetica, Arial, sans-serif"> X2</text></g><g class="node" aria-label="graph-node14" transform="translate(-143.9361736642991,-126.80636889495605)"><circle class="b-outline" cx="0" cy="0" r="25" fill="#57C7E3" stroke="#23b3d7" stroke-width="2px"/><text class="caption" text-anchor="middle" pointer-events="none" x="0" y="5" font-size="10px" fill="#2A2C34" font-family="Helvetica Neue, Helvetica, Arial, sans-serif"> fbcSpec…</text></g><g class="node" aria-label="graph-node15" transform="translate(-186.9177960970853,-270.2829711340867)"><circle class="b-outline" cx="0" cy="0" r="25" fill="#D9C8AE" stroke="#c0a378" stroke-width="2px"/><text class="caption" text-anchor="middle" pointer-events="none" x="0" y="5" font-size="10px" fill="#2A2C34" font-family="Helvetica Neue, Helvetica, Arial, sans-serif"> volume</text></g><g class="node" aria-label="graph-node16" transform="translate(-274.03184262376436,-201.70028580788966)"><circle class="b-outline" cx="0" cy="0" r="25" fill="#D9C8AE" stroke="#c0a378" stroke-width="2px"/><text class="caption" text-anchor="middle" pointer-events="none" x="0" y="5" font-size="10px" fill="#2A2C34" font-family="Helvetica Neue, Helvetica, Arial, sans-serif"> substance</text></g><g class="node" aria-label="graph-node17" transform="translate(-293.27611050235186,-102.75648031639037)"><circle class="b-outline" cx="0" cy="0" r="25" fill="#D9C8AE" stroke="#c0a378" stroke-width="2px"/><text class="caption" text-anchor="middle" pointer-events="none" x="0" y="5" font-size="10px" fill="#2A2C34" font-family="Helvetica Neue, Helvetica, Arial, sans-serif"> time</text></g><g class="node" aria-label="graph-node18" transform="translate(-248.23677995976624,14.840207891602336)"><circle class="b-outline" cx="0" cy="0" r="25" fill="#A5ABB6" stroke="#9AA1AC" stroke-width="2px"/><text class="caption" text-anchor="middle" pointer-events="none" x="0" y="5" font-size="10px" fill="#FFFFFF" font-family="Helvetica Neue, Helvetica, Arial, sans-serif"> objective1</text></g><g class="node" aria-label="graph-node19" transform="translate(-264.32173754830484,166.8221524933471)"><circle class="b-outline" cx="0" cy="0" r="25" fill="#A5ABB6" stroke="#9AA1AC" stroke-width="2px"/><text class="caption" text-anchor="middle" pointer-events="none" x="0" y="5" font-size="10px" fill="#FFFFFF" font-family="Helvetica Neue, Helvetica, Arial, sans-serif"> 2720846…</text></g></g></svg>