<svg xmlns="http://www.w3.org/2000/svg" width="381.93560791015625" height="470.544677734375" viewBox="-242.80126953125 -244.87974548339844 381.93560791015625 470.544677734375"><title>Neo4j Graph Visualization</title><desc>Created using Neo4j (http://www.neo4j.com/)</desc><g class="layer relationships"><g class="relationship" transform="translate(-84.67394929814436 52.901580751277905) rotate(205.50154990763855)"><path class="b-outline" fill="#A5ABB6" stroke="none" d="M 25 0.5 L 27.476205561870444 0.5 L 27.476205561870444 -0.5 L 25 -0.5 Z M 108.58948681187044 0.5 L 111.06569237374089 0.5 L 111.06569237374089 3.5 L 118.06569237374089 0 L 111.06569237374089 -3.5 L 111.06569237374089 -0.5 L 108.58948681187044 -0.5 Z"/><text text-anchor="middle" pointer-events="none" font-size="8px" fill="#000000" x="68.03284618687044" y="3" transform="rotate(180 68.03284618687044 0)" font-family="Helvetica Neue, Helvetica, Arial, sans-serif">HAS_FUNCTIONT…</text></g><g class="relationship" transform="translate(-84.67394929814436 52.901580751277905) rotate(381.5163355250463)"><path class="b-outline" fill="#A5ABB6" stroke="none" d="M 25 0.5 L 43.63454218386413 0.5 L 43.63454218386413 -0.5 L 25 -0.5 Z M 94.53297968386413 0.5 L 113.16752186772825 0.5 L 113.16752186772825 3.5 L 120.16752186772825 0 L 113.16752186772825 -3.5 L 113.16752186772825 -0.5 L 94.53297968386413 -0.5 Z"/><text text-anchor="middle" pointer-events="none" font-size="8px" fill="#000000" x="69.08376093386413" y="3" font-family="Helvetica Neue, Helvetica, Arial, sans-serif">HAS_INPUT</text></g><g class="relationship" transform="translate(-34.328745707244344 -88.51902598525834) rotate(366.8935322539333)"><path class="b-outline" fill="#A5ABB6" stroke="none" d="M 25 0.5 L 26.173521081423118 0.5 L 26.173521081423118 -0.5 L 25 -0.5 Z M 112.34148983142312 0.5 L 113.51501091284624 0.5 L 113.51501091284624 3.5 L 120.51501091284624 0 L 113.51501091284624 -3.5 L 113.51501091284624 -0.5 L 112.34148983142312 -0.5 Z"/><text text-anchor="middle" pointer-events="none" font-size="8px" fill="#000000" x="69.25750545642312" y="3" font-family="Helvetica Neue, Helvetica, Arial, sans-serif">HAS_COMPARTME…</text></g><g class="relationship" transform="translate(-34.328745707244344 -88.51902598525834) rotate(469.5955380581486)"><path class="b-outline" fill="#A5ABB6" stroke="none" d="M 25 0.5 L 33.88548229150608 0.5 L 33.88548229150608 -0.5 L 25 -0.5 Z M 109.22923229150608 0.5 L 118.11471458301216 0.5 L 118.11471458301216 3.5 L 125.11471458301216 0 L 118.11471458301216 -3.5 L 118.11471458301216 -0.5 L 109.22923229150608 -0.5 Z"/><text text-anchor="middle" pointer-events="none" font-size="8px" fill="#000000" x="71.55735729150608" y="3" transform="rotate(180 71.55735729150608 0)" font-family="Helvetica Neue, Helvetica, Arial, sans-serif">HAS_TRANSITION</text></g><g class="relationship" transform="translate(-84.67394929814436 52.901580751277905) rotate(445.3601100673029)"><path class="b-outline" fill="#A5ABB6" stroke="none" d="M 25 0.5 L 38.72543204110893 0.5 L 38.72543204110893 -0.5 L 25 -0.5 Z M 98.51058829110893 0.5 L 112.23602033221786 0.5 L 112.23602033221786 3.5 L 119.23602033221786 0 L 112.23602033221786 -3.5 L 112.23602033221786 -0.5 L 98.51058829110893 -0.5 Z"/><text text-anchor="middle" pointer-events="none" font-size="8px" fill="#000000" x="68.61801016610893" y="3" font-family="Helvetica Neue, Helvetica, Arial, sans-serif">HAS_OUTPUT</text></g><g class="relationship" transform="translate(-34.328745707244344 -88.51902598525834) rotate(296.7598333294534)"><path class="b-outline" fill="#A5ABB6" stroke="none" d="M 25 0.5 L 27.621180876917535 0.5 L 27.621180876917535 -0.5 L 25 -0.5 Z M 108.01571212691753 0.5 L 110.63689300383507 0.5 L 110.63689300383507 3.5 L 117.63689300383507 0 L 110.63689300383507 -3.5 L 110.63689300383507 -0.5 L 108.01571212691753 -0.5 Z"/><text text-anchor="middle" pointer-events="none" font-size="8px" fill="#000000" x="67.81844650191753" y="3" font-family="Helvetica Neue, Helvetica, Arial, sans-serif">HAS_QUALITATIV…</text></g></g><g class="layer nodes"><g class="node" aria-label="graph-node-6" transform="translate(-73.00628323477797,196.6649110198472)"><circle class="b-outline" cx="0" cy="0" r="25" fill="#A5ABB6" stroke="#9AA1AC" stroke-width="2px"/><text class="caption" text-anchor="middle" pointer-events="none" x="0" y="5" font-size="10px" fill="#FFFFFF" font-family="Helvetica Neue, Helvetica, Arial, sans-serif"> output</text></g><g class="node" aria-label="graph-node-5" transform="translate(50.37728891418114,106.14416204233737)"><circle class="b-outline" cx="0" cy="0" r="25" fill="#A5ABB6" stroke="#9AA1AC" stroke-width="2px"/><text class="caption" text-anchor="middle" pointer-events="none" x="0" y="5" font-size="10px" fill="#FFFFFF" font-family="Helvetica Neue, Helvetica, Arial, sans-serif"> input</text></g><g class="node" aria-label="graph-node-1" transform="translate(110.13432221338012,-71.05361995142091)"><circle class="b-outline" cx="0" cy="0" r="25" fill="#A5ABB6" stroke="#9AA1AC" stroke-width="2px"/><text class="caption" text-anchor="middle" pointer-events="none" x="0" y="5" font-size="10px" fill="#FFFFFF" font-family="Helvetica Neue, Helvetica, Arial, sans-serif"> Compart…</text></g><g class="node" aria-label="graph-node-3" transform="translate(29.893756567305754,-215.87974774586593)"><circle class="b-outline" cx="0" cy="0" r="25" fill="#A5ABB6" stroke="#9AA1AC" stroke-width="2px"/><text class="caption" text-anchor="middle" pointer-events="none" x="0" y="5" font-size="10px" fill="#FFFFFF" font-family="Helvetica Neue, Helvetica, Arial, sans-serif"> qualitativ…</text></g><g class="node" aria-label="graph-node-2" transform="translate(-34.328745707244344,-88.51902598525834)"><circle class="b-outline" cx="0" cy="0" r="25" fill="#57C7E3" stroke="#23b3d7" stroke-width="2px"/><text class="caption" text-anchor="middle" pointer-events="none" x="0" y="5" font-size="10px" fill="#2A2C34" font-family="Helvetica Neue, Helvetica, Arial, sans-serif"> model</text></g><g class="node" aria-label="graph-node-7" transform="translate(-213.80127177519216,-8.693280432804364)"><circle class="b-outline" cx="0" cy="0" r="25" fill="#A5ABB6" stroke="#9AA1AC" stroke-width="2px"/><text class="caption" text-anchor="middle" pointer-events="none" x="0" y="5" font-size="10px" fill="#FFFFFF" font-family="Helvetica Neue, Helvetica, Arial, sans-serif"> function…</text></g><g class="node" aria-label="graph-node-4" transform="translate(-84.67394929814436,52.901580751277905)"><circle class="b-outline" cx="0" cy="0" r="25" fill="#A5ABB6" stroke="#9AA1AC" stroke-width="2px"/><text class="caption" text-anchor="middle" pointer-events="none" x="0" y="5" font-size="10px" fill="#FFFFFF" font-family="Helvetica Neue, Helvetica, Arial, sans-serif"> transition</text></g></g></svg>