<svg xmlns="http://www.w3.org/2000/svg" width="297.3176574707031" height="536.7108764648438" viewBox="-88.14967346191406 -234.5595703125 297.3176574707031 536.7108764648438"><title>Neo4j Graph Visualization</title><desc>Created using Neo4j (http://www.neo4j.com/)</desc><g class="layer relationships"><g class="relationship" transform="translate(-59.14967324796311 -205.55957598505458) rotate(362.44419684564525)"><path class="b-outline" fill="#A5ABB6" stroke="none" d="M 24.018736134675446,-6.953439040707552 L 24.277555179777966,-5.987513214418485 A 201.21335220485412 201.21335220485412 0 0 1 44.0555494732132,-10.234298842057882 L 43.895024075508886,-11.22133055213203 A 202.21335220485412 202.21335220485412 0 0 0 24.018736134675446,-6.953439040707552 Z M 104.34511019446606,-11.89720192001684 L 104.2066934824638,-10.906827842287385 A 201.21335220485412 201.21335220485412 0 0 1 124.07469541306367,-7.103310296125421 L 123.36322236173505,-4.18889678784744 L 130.99357244093372,-5.928942094405009 L 125.02332614816847,-10.989194973829395 L 124.31185309683985,-8.074781465551414 A 202.21335220485412 202.21335220485412 0 0 0 104.34511019446606,-11.89720192001684"/><text text-anchor="middle" pointer-events="none" font-size="8px" fill="#000000" x="74.10025704260146" y="-10.331085324235033" font-family="Helvetica Neue, Helvetica, Arial, sans-serif">IS_REACTANT</text></g><g class="relationship" transform="translate(-27.261021099908383 146.87124879769658) rotate(423.77077172289364)"><path class="b-outline" fill="#A5ABB6" stroke="none" d="M 25 0.5 L 25.8778635536095 0.5 L 25.8778635536095 -0.5 L 25 -0.5 Z M 107.8973948036095 0.5 L 108.775258357219 0.5 L 108.775258357219 3.5 L 115.775258357219 0 L 108.775258357219 -3.5 L 108.775258357219 -0.5 L 107.8973948036095 -0.5 Z"/><text text-anchor="middle" pointer-events="none" font-size="8px" fill="#000000" x="66.8876291786095" y="3" font-family="Helvetica Neue, Helvetica, Arial, sans-serif">HAS_FLUXOBJEC…</text></g><g class="relationship" transform="translate(101.10344007277001 63.28722531666527) rotate(301.08238153942625)"><path class="b-outline" fill="#A5ABB6" stroke="none" d="M 25 0.5 L 35.0259655079723 0.5 L 35.0259655079723 -0.5 L 25 -0.5 Z M 111.1197155079723 0.5 L 121.1456810159446 0.5 L 121.1456810159446 3.5 L 128.1456810159446 0 L 121.1456810159446 -3.5 L 121.1456810159446 -0.5 L 111.1197155079723 -0.5 Z"/><text text-anchor="middle" pointer-events="none" font-size="8px" fill="#000000" x="73.0728405079723" y="3" font-family="Helvetica Neue, Helvetica, Arial, sans-serif">HAS_PARAMETER</text></g><g class="relationship" transform="translate(95.98940914534984 -198.9374365298409) rotate(182.44419684564525)"><path class="b-outline" fill="#A5ABB6" stroke="none" d="M 24.018736134675446,-6.953439040707552 L 24.277555179777966,-5.987513214418485 A 201.21335220485412 201.21335220485412 0 0 1 41.1438390308898,-9.738792039609393 L 40.968842871626094,-10.723361155640845 A 202.21335220485412 202.21335220485412 0 0 0 24.018736134675446,-6.953439040707552 Z M 107.28169375677373,-11.46478205532145 L 107.1287548407217,-10.476546411379758 A 201.21335220485412 201.21335220485412 0 0 1 124.07469541306367,-7.103310296125421 L 123.36322236173505,-4.18889678784744 L 130.99357244093372,-5.928942094405009 L 125.02332614816847,-10.989194973829395 L 124.31185309683985,-8.074781465551414 A 202.21335220485412 202.21335220485412 0 0 0 107.28169375677373,-11.46478205532145"/><text text-anchor="middle" pointer-events="none" font-size="8px" fill="#000000" x="74.10025704260146" y="-10.331085324235033" transform="rotate(180 74.10025704260146 -13.331085324235033)" font-family="Helvetica Neue, Helvetica, Arial, sans-serif">HAS_PRODUCT</text></g><g class="relationship" transform="translate(95.98940914534984 -198.9374365298409) rotate(417.28910408609374)"><path class="b-outline" fill="#A5ABB6" stroke="none" d="M 24.018736134675446,6.953439040707552 L 24.277555179777966,5.987513214418485 A 202.17630457719966 202.17630457719966 0 0 0 26.864654963434887,6.662421769679781 L 26.618632174496348,7.631685813850879 A 203.17630457719966 203.17630457719966 0 0 1 24.018736134675446,6.953439040707552 Z M 122.18840080360712,8.696994283539738 L 121.9640450765667,7.722486968152026 A 202.17630457719966 202.17630457719966 0 0 0 124.56554645879034,7.1054153298063625 L 123.85387681056498,4.191049822222453 L 131.48434425119035,5.930580401877879 L 125.5144393230908,10.991236006584908 L 124.80276967486544,8.076870499000998 A 203.17630457719966 203.17630457719966 0 0 1 122.18840080360712,8.696994283539738"/><text text-anchor="middle" pointer-events="none" font-size="8px" fill="#000000" x="74.34555726764243" y="16.363913259286335" font-family="Helvetica Neue, Helvetica, Arial, sans-serif">HAS_LOWERFLUXBO…</text></g><g class="relationship" transform="translate(101.10344007277001 63.28722531666527) rotate(192.60830479319895)"><path class="b-outline" fill="#A5ABB6" stroke="none" d="M 25 0.5 L 26.343106157650013 0.5 L 26.343106157650013 -0.5 L 25 -0.5 Z M 113.23763740765001 0.5 L 114.58074356530003 0.5 L 114.58074356530003 3.5 L 121.58074356530003 0 L 114.58074356530003 -3.5 L 114.58074356530003 -0.5 L 113.23763740765001 -0.5 Z"/><text text-anchor="middle" pointer-events="none" font-size="8px" fill="#000000" x="69.79037178265001" y="3" transform="rotate(180 69.79037178265001 0)" font-family="Helvetica Neue, Helvetica, Arial, sans-serif">HAS_UNITDEFINITI…</text></g><g class="relationship" transform="translate(-59.14967324796311 -205.55957598505458) rotate(421.5212865086321)"><path class="b-outline" fill="#A5ABB6" stroke="none" d="M 25 0.5 L 26.292154305957652 0.5 L 26.292154305957652 -0.5 L 25 -0.5 Z M 106.67496680595765 0.5 L 107.9671211119153 0.5 L 107.9671211119153 3.5 L 114.9671211119153 0 L 107.9671211119153 -3.5 L 107.9671211119153 -0.5 L 106.67496680595765 -0.5 Z"/><text text-anchor="middle" pointer-events="none" font-size="8px" fill="#000000" x="66.48356055595765" y="3" font-family="Helvetica Neue, Helvetica, Arial, sans-serif">IN_COMPARTMENT</text></g><g class="relationship" transform="translate(101.10344007277001 63.28722531666527) rotate(506.92999210678676)"><path class="b-outline" fill="#A5ABB6" stroke="none" d="M 25 0.5 L 37.41358464603947 0.5 L 37.41358464603947 -0.5 L 25 -0.5 Z M 108.76514714603947 0.5 L 121.17873179207893 0.5 L 121.17873179207893 3.5 L 128.17873179207893 0 L 121.17873179207893 -3.5 L 121.17873179207893 -0.5 L 108.76514714603947 -0.5 Z"/><text text-anchor="middle" pointer-events="none" font-size="8px" fill="#000000" x="73.08936589603947" y="3" transform="rotate(180 73.08936589603947 0)" font-family="Helvetica Neue, Helvetica, Arial, sans-serif">HAS_OBJECTIVE</text></g><g class="relationship" transform="translate(95.98940914534984 -198.9374365298409) rotate(417.28910408609374)"><path class="b-outline" fill="#A5ABB6" stroke="none" d="M 24.018736134675446,-6.953439040707552 L 24.277555179777966,-5.987513214418485 A 202.17630457719966 202.17630457719966 0 0 1 24.931478716731384,-6.1615591024878995 L 24.67589409387395,-7.128345790728304 A 203.17630457719966 203.17630457719966 0 0 0 24.018736134675446,-6.953439040707552 Z M 124.14187614582733,-8.237085035845496 L 123.90790573785114,-7.264841317330735 A 202.17630457719966 202.17630457719966 0 0 1 124.56554645879034,-7.1054153298063625 L 123.85387681056498,-4.191049822222453 L 131.48434425119035,-5.930580401877879 L 125.5144393230908,-10.991236006584908 L 124.80276967486544,-8.076870499000998 A 203.17630457719966 203.17630457719966 0 0 0 124.14187614582733,-8.237085035845496"/><text text-anchor="middle" pointer-events="none" font-size="8px" fill="#000000" x="74.34555726764239" y="-10.363913259286335" font-family="Helvetica Neue, Helvetica, Arial, sans-serif">HAS_UPPERFLUXBOU…</text></g></g><g class="layer nodes"><g class="node" aria-label="graph-node-8" transform="translate(34.956506689220355,273.15130502729585)"><circle class="b-outline" cx="0" cy="0" r="25" fill="#A5ABB6" stroke="#9AA1AC" stroke-width="2px"/><text class="caption" text-anchor="middle" pointer-events="none" x="0" y="5" font-size="10px" fill="#FFFFFF" font-family="Helvetica Neue, Helvetica, Arial, sans-serif"> fluxObje…</text></g><g class="node" aria-label="graph-node-1" transform="translate(7.591161168556334,-82.52927071946444)"><circle class="b-outline" cx="0" cy="0" r="25" fill="#A5ABB6" stroke="#9AA1AC" stroke-width="2px"/><text class="caption" text-anchor="middle" pointer-events="none" x="0" y="5" font-size="10px" fill="#FFFFFF" font-family="Helvetica Neue, Helvetica, Arial, sans-serif"> Compart…</text></g><g class="node" aria-label="graph-node-3" transform="translate(180.16796114723894,-67.87069903829818)"><circle class="b-outline" cx="0" cy="0" r="25" fill="#569480" stroke="#447666" stroke-width="2px"/><text class="caption" text-anchor="middle" pointer-events="none" x="0" y="5" font-size="10px" fill="#FFFFFF" font-family="Helvetica Neue, Helvetica, Arial, sans-serif"> Parameter</text></g><g class="node" aria-label="graph-node-5" transform="translate(101.10344007277001,63.28722531666527)"><circle class="b-outline" cx="0" cy="0" r="25" fill="#57C7E3" stroke="#23b3d7" stroke-width="2px"/><text class="caption" text-anchor="middle" pointer-events="none" x="0" y="5" font-size="10px" fill="#2A2C34" font-family="Helvetica Neue, Helvetica, Arial, sans-serif"> model</text></g><g class="node" aria-label="graph-node-4" transform="translate(95.98940914534984,-198.9374365298409)"><circle class="b-outline" cx="0" cy="0" r="25" fill="#4C8EDA" stroke="#2870c2" stroke-width="2px"/><text class="caption" text-anchor="middle" pointer-events="none" x="0" y="5" font-size="10px" fill="#FFFFFF" font-family="Helvetica Neue, Helvetica, Arial, sans-serif"> Reaction</text></g><g class="node" aria-label="graph-node-2" transform="translate(-59.14967324796311,-205.55957598505458)"><circle class="b-outline" cx="0" cy="0" r="25" fill="#ECB5C9" stroke="#da7298" stroke-width="2px"/><text class="caption" text-anchor="middle" pointer-events="none" x="0" y="5" font-size="10px" fill="#2A2C34" font-family="Helvetica Neue, Helvetica, Arial, sans-serif"> Species</text></g><g class="node" aria-label="graph-node-6" transform="translate(-41.942528312743256,31.290892514186428)"><circle class="b-outline" cx="0" cy="0" r="25" fill="#D9C8AE" stroke="#c0a378" stroke-width="2px"/><text class="caption" text-anchor="middle" pointer-events="none" x="0" y="5" font-size="10px" fill="#2A2C34" font-family="Helvetica Neue, Helvetica, Arial, sans-serif"> UnitDefi…</text></g><g class="node" aria-label="graph-node-7" transform="translate(-27.261021099908383,146.87124879769658)"><circle class="b-outline" cx="0" cy="0" r="25" fill="#A5ABB6" stroke="#9AA1AC" stroke-width="2px"/><text class="caption" text-anchor="middle" pointer-events="none" x="0" y="5" font-size="10px" fill="#FFFFFF" font-family="Helvetica Neue, Helvetica, Arial, sans-serif"> objective</text></g></g></svg>