<svg xmlns="http://www.w3.org/2000/svg" width="618.5123901367188" height="489.315185546875" viewBox="-286.8602294921875 -303.6905822753906 618.5123901367188 489.315185546875"><title>Neo4j Graph Visualization</title><desc>Created using Neo4j (http://www.neo4j.com/)</desc><g class="layer relationships"><g class="relationship" transform="translate(-144.74412408919778 -177.66915564576658) rotate(221.0040078097819)"><path class="b-outline" fill="#A5ABB6" stroke="none" d="M 25 0.5 L 36.319463598107944 0.5 L 36.319463598107944 -0.5 L 25 -0.5 Z M 104.55383859810794 0.5 L 115.87330219621589 0.5 L 115.87330219621589 3.5 L 122.87330219621589 0 L 115.87330219621589 -3.5 L 115.87330219621589 -0.5 L 104.55383859810794 -0.5 Z"/><text text-anchor="middle" pointer-events="none" font-size="8px" fill="#000000" x="70.43665109810794" y="3" transform="rotate(180 70.43665109810794 0)" font-family="Helvetica Neue, Helvetica, Arial, sans-serif">HAS_REACTION</text></g><g class="relationship" transform="translate(-144.74412408919778 -177.66915564576658) rotate(387.08078906795026)"><path class="b-outline" fill="#A5ABB6" stroke="none" d="M 25 0.5 L 53.58452936853776 0.5 L 53.58452936853776 -0.5 L 25 -0.5 Z M 111.90093561853776 0.5 L 140.48546498707552 0.5 L 140.48546498707552 3.5 L 147.48546498707552 0 L 140.48546498707552 -3.5 L 140.48546498707552 -0.5 L 111.90093561853776 -0.5 Z"/><text text-anchor="middle" pointer-events="none" font-size="8px" fill="#000000" x="82.74273249353776" y="3" font-family="Helvetica Neue, Helvetica, Arial, sans-serif">HAS_LAYOUT</text></g><g class="relationship" transform="translate(94.05103088132893 -203.64673804777993) rotate(459.29268739885276)"><path class="b-outline" fill="#A5ABB6" stroke="none" d="M 25 0.5 L 48.03093577071178 0.5 L 48.03093577071178 -0.5 L 25 -0.5 Z M 134.93718577071178 0.5 L 157.96812154142356 0.5 L 157.96812154142356 3.5 L 164.96812154142356 0 L 157.96812154142356 -3.5 L 157.96812154142356 -0.5 L 134.93718577071178 -0.5 Z"/><text text-anchor="middle" pointer-events="none" font-size="8px" fill="#000000" x="91.48406077071178" y="3" transform="rotate(180 91.48406077071178 0)" font-family="Helvetica Neue, Helvetica, Arial, sans-serif">HAS_BOUNDINGBOX</text></g><g class="relationship" transform="translate(204.29087349260612 -123.4229774681188) rotate(502.7251074472464)"><path class="b-outline" fill="#A5ABB6" stroke="none" d="M 25 0.5 L 41.590667770394944 0.5 L 41.590667770394944 -0.5 L 25 -0.5 Z M 128.49691777039493 0.5 L 145.0875855407899 0.5 L 145.0875855407899 3.5 L 152.0875855407899 0 L 145.0875855407899 -3.5 L 145.0875855407899 -0.5 L 128.49691777039493 -0.5 Z"/><text text-anchor="middle" pointer-events="none" font-size="8px" fill="#000000" x="85.04379277039494" y="3" transform="rotate(180 85.04379277039494 0)" font-family="Helvetica Neue, Helvetica, Arial, sans-serif">HAS_BOUNDINGBOX</text></g><g class="relationship" transform="translate(-8.620017371179399 144.0364019912715) rotate(294.1985204462587)"><path class="b-outline" fill="#A5ABB6" stroke="none" d="M 25 0.5 L 40.86767551493175 0.5 L 40.86767551493175 -0.5 L 25 -0.5 Z M 127.77392551493175 0.5 L 143.6416010298635 0.5 L 143.6416010298635 3.5 L 150.6416010298635 0 L 143.6416010298635 -3.5 L 143.6416010298635 -0.5 L 127.77392551493175 -0.5 Z"/><text text-anchor="middle" pointer-events="none" font-size="8px" fill="#000000" x="84.32080051493175" y="3" font-family="Helvetica Neue, Helvetica, Arial, sans-serif">HAS_BOUNDINGBOX</text></g><g class="relationship" transform="translate(8.830982505466825 -99.14576889860028) rotate(476.94527802994395)"><path class="b-outline" fill="#A5ABB6" stroke="none" d="M 25 0.5 L 56.49081700609679 0.5 L 56.49081700609679 -0.5 L 25 -0.5 Z M 134.0611295060968 0.5 L 165.55194651219358 0.5 L 165.55194651219358 3.5 L 172.55194651219358 0 L 165.55194651219358 -3.5 L 165.55194651219358 -0.5 L 134.0611295060968 -0.5 Z"/><text text-anchor="middle" pointer-events="none" font-size="8px" fill="#000000" x="95.27597325609679" y="3" transform="rotate(180 95.27597325609679 0)" font-family="Helvetica Neue, Helvetica, Arial, sans-serif">HAS_DIMENSIONS</text></g><g class="relationship" transform="translate(63.375383548599544 -16.17169474149053) rotate(507.1187687707526)"><path class="b-outline" fill="#A5ABB6" stroke="none" d="M 25 0.5 L 43.487253798747545 0.5 L 43.487253798747545 -0.5 L 25 -0.5 Z M 121.05756629874755 0.5 L 139.5448200974951 0.5 L 139.5448200974951 3.5 L 146.5448200974951 0 L 139.5448200974951 -3.5 L 139.5448200974951 -0.5 L 121.05756629874755 -0.5 Z"/><text text-anchor="middle" pointer-events="none" font-size="8px" fill="#000000" x="82.27241004874755" y="3" transform="rotate(180 82.27241004874755 0)" font-family="Helvetica Neue, Helvetica, Arial, sans-serif">HAS_DIMENSIONS</text></g><g class="relationship" transform="translate(-35.83827763862537 -11.061445001936388) rotate(404.23845091353223)"><path class="b-outline" fill="#A5ABB6" stroke="none" d="M 25 0.5 L 37.680603751614356 0.5 L 37.680603751614356 -0.5 L 25 -0.5 Z M 118.06341625161436 0.5 L 130.7440200032287 0.5 L 130.7440200032287 3.5 L 137.7440200032287 0 L 130.7440200032287 -3.5 L 130.7440200032287 -0.5 L 118.06341625161436 -0.5 Z"/><text text-anchor="middle" pointer-events="none" font-size="8px" fill="#000000" x="77.87201000161436" y="3" font-family="Helvetica Neue, Helvetica, Arial, sans-serif">IN_COMPARTMENT</text></g><g class="relationship" transform="translate(8.830982505466825 -99.14576889860028) rotate(454.10456736543455)"><path class="b-outline" fill="#A5ABB6" stroke="none" d="M 25 0.5 L 74.34907129705833 0.5 L 74.34907129705833 -0.5 L 25 -0.5 Z M 162.45844629705834 0.5 L 211.80751759411666 0.5 L 211.80751759411666 3.5 L 218.80751759411666 0 L 211.80751759411666 -3.5 L 211.80751759411666 -0.5 L 162.45844629705834 -0.5 Z"/><text text-anchor="middle" pointer-events="none" font-size="8px" fill="#000000" x="118.40375879705833" y="3" transform="rotate(180 118.40375879705833 0)" font-family="Helvetica Neue, Helvetica, Arial, sans-serif">HAS_SPECIESGLYPH</text></g><g class="relationship" transform="translate(8.830982505466825 -99.14576889860028) rotate(352.9198048381543)"><path class="b-outline" fill="#A5ABB6" stroke="none" d="M 25 0.5 L 37.29926087451955 0.5 L 37.29926087451955 -0.5 L 25 -0.5 Z M 152.66254212451955 0.5 L 164.9618029990391 0.5 L 164.9618029990391 3.5 L 171.9618029990391 0 L 164.9618029990391 -3.5 L 164.9618029990391 -0.5 L 152.66254212451955 -0.5 Z"/><text text-anchor="middle" pointer-events="none" font-size="8px" fill="#000000" x="94.98090149951955" y="3" font-family="Helvetica Neue, Helvetica, Arial, sans-serif">HAS_COMPARTMENTGLYPH</text></g><g class="relationship" transform="translate(8.830982505466825 -99.14576889860028) rotate(309.197081825101)"><path class="b-outline" fill="#A5ABB6" stroke="none" d="M 25 0.5 L 26.98450901467946 0.5 L 26.98450901467946 -0.5 L 25 -0.5 Z M 100.85950901467946 0.5 L 102.84401802935892 0.5 L 102.84401802935892 3.5 L 109.84401802935892 0 L 102.84401802935892 -3.5 L 102.84401802935892 -0.5 L 100.85950901467946 -0.5 Z"/><text text-anchor="middle" pointer-events="none" font-size="8px" fill="#000000" x="63.92200901467946" y="3" font-family="Helvetica Neue, Helvetica, Arial, sans-serif">HAS_TEXTGLYPH</text></g><g class="relationship" transform="translate(-135.0385409980452 -6.05098738755398) rotate(502.29079084665875)"><path class="b-outline" fill="#A5ABB6" stroke="none" d="M 25 0.5 L 25.77897752437454 0.5 L 25.77897752437454 -0.5 L 25 -0.5 Z M 122.47038377437454 0.5 L 123.24936129874908 0.5 L 123.24936129874908 3.5 L 130.24936129874908 0 L 123.24936129874908 -3.5 L 123.24936129874908 -0.5 L 122.47038377437454 -0.5 Z"/><text text-anchor="middle" pointer-events="none" font-size="8px" fill="#000000" x="74.12468064937454" y="3" transform="rotate(180 74.12468064937454 0)" font-family="Helvetica Neue, Helvetica, Arial, sans-serif">HAS_SPECIESREFER…</text></g><g class="relationship" transform="translate(-8.620017371179399 144.0364019912715) rotate(260.04646622557703)"><path class="b-outline" fill="#A5ABB6" stroke="none" d="M 25 0.5 L 44.444945136336784 0.5 L 44.444945136336784 -0.5 L 25 -0.5 Z M 106.02307013633678 0.5 L 125.46801527267357 0.5 L 125.46801527267357 3.5 L 132.46801527267357 0 L 125.46801527267357 -3.5 L 125.46801527267357 -0.5 L 106.02307013633678 -0.5 Z"/><text text-anchor="middle" pointer-events="none" font-size="8px" fill="#000000" x="75.23400763633678" y="3" transform="rotate(180 75.23400763633678 0)" font-family="Helvetica Neue, Helvetica, Arial, sans-serif">HAS_SPECIES</text></g><g class="relationship" transform="translate(-144.74412408919778 -177.66915564576658) rotate(416.8287075165602)"><path class="b-outline" fill="#A5ABB6" stroke="none" d="M 25 0.5 L 65.23306146886169 0.5 L 65.23306146886169 -0.5 L 25 -0.5 Z M 126.81118646886169 0.5 L 167.04424793772338 0.5 L 167.04424793772338 3.5 L 174.04424793772338 0 L 167.04424793772338 -3.5 L 167.04424793772338 -0.5 L 126.81118646886169 -0.5 Z"/><text text-anchor="middle" pointer-events="none" font-size="8px" fill="#000000" x="96.02212396886169" y="3" font-family="Helvetica Neue, Helvetica, Arial, sans-serif">HAS_SPECIES</text></g><g class="relationship" transform="translate(63.375383548599544 -16.17169474149053) rotate(207.10860402249233)"><path class="b-outline" fill="#A5ABB6" stroke="none" d="M 25 0.5 L 49.72705500936743 0.5 L 49.72705500936743 -0.5 L 25 -0.5 Z M 114.85205500936743 0.5 L 139.57911001873487 0.5 L 139.57911001873487 3.5 L 146.57911001873487 0 L 139.57911001873487 -3.5 L 139.57911001873487 -0.5 L 114.85205500936743 -0.5 Z"/><text text-anchor="middle" pointer-events="none" font-size="8px" fill="#000000" x="82.28955500936743" y="3" transform="rotate(180 82.28955500936743 0)" font-family="Helvetica Neue, Helvetica, Arial, sans-serif">HAS_POSITION</text></g><g class="relationship" transform="translate(150.65804899096682 31.577146791282022) rotate(359.5422348089163)"><path class="b-outline" fill="#A5ABB6" stroke="none" d="M 25 0.5 L 46.304153852213844 0.5 L 46.304153852213844 -0.5 L 25 -0.5 Z M 98.69477885221384 0.5 L 119.99893270442769 0.5 L 119.99893270442769 3.5 L 126.99893270442769 0 L 119.99893270442769 -3.5 L 119.99893270442769 -0.5 L 98.69477885221384 -0.5 Z"/><text text-anchor="middle" pointer-events="none" font-size="8px" fill="#000000" x="72.49946635221384" y="3" font-family="Helvetica Neue, Helvetica, Arial, sans-serif">HAS_START</text></g><g class="relationship" transform="translate(8.830982505466825 -99.14576889860028) rotate(507.09398879340523)"><path class="b-outline" fill="#A5ABB6" stroke="none" d="M 25 0.5 L 34.79839625915129 0.5 L 34.79839625915129 -0.5 L 25 -0.5 Z M 129.56402125915127 0.5 L 139.36241751830258 0.5 L 139.36241751830258 3.5 L 146.36241751830258 0 L 139.36241751830258 -3.5 L 139.36241751830258 -0.5 L 129.56402125915127 -0.5 Z"/><text text-anchor="middle" pointer-events="none" font-size="8px" fill="#000000" x="82.18120875915129" y="3" transform="rotate(180 82.18120875915129 0)" font-family="Helvetica Neue, Helvetica, Arial, sans-serif">HAS_REACTIONGLYPH</text></g><g class="relationship" transform="translate(-135.0385409980452 -6.05098738755398) rotate(367.5030485202285)"><path class="b-outline" fill="#A5ABB6" stroke="none" d="M 25 0.5 L 93.42178051961221 0.5 L 93.42178051961221 -0.5 L 25 -0.5 Z M 187.7420930196122 0.5 L 256.1638735392244 0.5 L 256.1638735392244 3.5 L 263.1638735392244 0 L 256.1638735392244 -3.5 L 256.1638735392244 -0.5 L 187.7420930196122 -0.5 Z"/><text text-anchor="middle" pointer-events="none" font-size="8px" fill="#000000" x="140.5819367696122" y="3" font-family="Helvetica Neue, Helvetica, Arial, sans-serif">HAS_CURVESEGMENT</text></g><g class="relationship" transform="translate(238.89750146792863 156.62458109751307) rotate(234.79137592934336)"><path class="b-outline" fill="#A5ABB6" stroke="none" d="M 25 0.5 L 25.86281709788615 0.5 L 25.86281709788615 -0.5 L 25 -0.5 Z M 120.18312959788615 0.5 L 121.0459466957723 0.5 L 121.0459466957723 3.5 L 128.0459466957723 0 L 121.0459466957723 -3.5 L 121.0459466957723 -0.5 L 120.18312959788615 -0.5 Z"/><text text-anchor="middle" pointer-events="none" font-size="8px" fill="#000000" x="73.02297334788615" y="3" transform="rotate(180 73.02297334788615 0)" font-family="Helvetica Neue, Helvetica, Arial, sans-serif">HAS_CURVESEGMENT</text></g><g class="relationship" transform="translate(150.65804899096682 31.577146791282022) rotate(252.6411171643398)"><path class="b-outline" fill="#A5ABB6" stroke="none" d="M 25 0.5 L 46.198667563874864 0.5 L 46.198667563874864 -0.5 L 25 -0.5 Z M 89.98773006387486 0.5 L 111.18639762774973 0.5 L 111.18639762774973 3.5 L 118.18639762774973 0 L 111.18639762774973 -3.5 L 111.18639762774973 -0.5 L 89.98773006387486 -0.5 Z"/><text text-anchor="middle" pointer-events="none" font-size="8px" fill="#000000" x="68.09319881387486" y="3" transform="rotate(180 68.09319881387486 0)" font-family="Helvetica Neue, Helvetica, Arial, sans-serif">HAS_END</text></g></g><g class="layer nodes"><g class="node" aria-label="graph-node-7" transform="translate(63.375383548599544,-16.17169474149053)"><circle class="b-outline" cx="0" cy="0" r="25" fill="#A5ABB6" stroke="#9AA1AC" stroke-width="2px"/><text class="caption" text-anchor="middle" pointer-events="none" x="0" y="5" font-size="10px" fill="#FFFFFF" font-family="Helvetica Neue, Helvetica, Arial, sans-serif"> boundin…</text></g><g class="node" aria-label="graph-node-4" transform="translate(-256.33873559125055,-274.69057692024234)"><circle class="b-outline" cx="0" cy="0" r="25" fill="#A5ABB6" stroke="#9AA1AC" stroke-width="2px"/><text class="caption" text-anchor="middle" pointer-events="none" x="0" y="5" font-size="10px" fill="#FFFFFF" font-family="Helvetica Neue, Helvetica, Arial, sans-serif"> reaction</text></g><g class="node" aria-label="graph-node-10" transform="translate(-8.620017371179399,144.0364019912715)"><circle class="b-outline" cx="0" cy="0" r="25" fill="#A5ABB6" stroke="#9AA1AC" stroke-width="2px"/><text class="caption" text-anchor="middle" pointer-events="none" x="0" y="5" font-size="10px" fill="#FFFFFF" font-family="Helvetica Neue, Helvetica, Arial, sans-serif"> species…</text></g><g class="node" aria-label="graph-node-17" transform="translate(238.89750146792863,156.62458109751307)"><circle class="b-outline" cx="0" cy="0" r="25" fill="#A5ABB6" stroke="#9AA1AC" stroke-width="2px"/><text class="caption" text-anchor="middle" pointer-events="none" x="0" y="5" font-size="10px" fill="#FFFFFF" font-family="Helvetica Neue, Helvetica, Arial, sans-serif"> curve</text></g><g class="node" aria-label="graph-node-1" transform="translate(80.75846829090214,102.47627950166864)"><circle class="b-outline" cx="0" cy="0" r="25" fill="#A5ABB6" stroke="#9AA1AC" stroke-width="2px"/><text class="caption" text-anchor="middle" pointer-events="none" x="0" y="5" font-size="10px" fill="#FFFFFF" font-family="Helvetica Neue, Helvetica, Arial, sans-serif"> Compart…</text></g><g class="node" aria-label="graph-node-13" transform="translate(150.65804899096682,31.577146791282022)"><circle class="b-outline" cx="0" cy="0" r="25" fill="#A5ABB6" stroke="#9AA1AC" stroke-width="2px"/><text class="caption" text-anchor="middle" pointer-events="none" x="0" y="5" font-size="10px" fill="#FFFFFF" font-family="Helvetica Neue, Helvetica, Arial, sans-serif"> curveSe…</text></g><g class="node" aria-label="graph-node-14" transform="translate(302.6521305030013,30.36276275064207)"><circle class="b-outline" cx="0" cy="0" r="25" fill="#A5ABB6" stroke="#9AA1AC" stroke-width="2px"/><text class="caption" text-anchor="middle" pointer-events="none" x="0" y="5" font-size="10px" fill="#FFFFFF" font-family="Helvetica Neue, Helvetica, Arial, sans-serif"> start</text></g><g class="node" aria-label="graph-node-6" transform="translate(204.29087349260612,-123.4229774681188)"><circle class="b-outline" cx="0" cy="0" r="25" fill="#A5ABB6" stroke="#9AA1AC" stroke-width="2px"/><text class="caption" text-anchor="middle" pointer-events="none" x="0" y="5" font-size="10px" fill="#FFFFFF" font-family="Helvetica Neue, Helvetica, Arial, sans-serif"> compart…</text></g><g class="node" aria-label="graph-node-11" transform="translate(94.05103088132893,-203.64673804777993)"><circle class="b-outline" cx="0" cy="0" r="25" fill="#A5ABB6" stroke="#9AA1AC" stroke-width="2px"/><text class="caption" text-anchor="middle" pointer-events="none" x="0" y="5" font-size="10px" fill="#FFFFFF" font-family="Helvetica Neue, Helvetica, Arial, sans-serif"> textGlyph</text></g><g class="node" aria-label="graph-node-5" transform="translate(8.830982505466825,-99.14576889860028)"><circle class="b-outline" cx="0" cy="0" r="25" fill="#A5ABB6" stroke="#9AA1AC" stroke-width="2px"/><text class="caption" text-anchor="middle" pointer-events="none" x="0" y="5" font-size="10px" fill="#FFFFFF" font-family="Helvetica Neue, Helvetica, Arial, sans-serif"> layout</text></g><g class="node" aria-label="graph-node-3" transform="translate(-144.74412408919778,-177.66915564576658)"><circle class="b-outline" cx="0" cy="0" r="25" fill="#57C7E3" stroke="#23b3d7" stroke-width="2px"/><text class="caption" text-anchor="middle" pointer-events="none" x="0" y="5" font-size="10px" fill="#2A2C34" font-family="Helvetica Neue, Helvetica, Arial, sans-serif"> model</text></g><g class="node" aria-label="graph-node-15" transform="translate(107.93753903332289,-105.0877810233219)"><circle class="b-outline" cx="0" cy="0" r="25" fill="#A5ABB6" stroke="#9AA1AC" stroke-width="2px"/><text class="caption" text-anchor="middle" pointer-events="none" x="0" y="5" font-size="10px" fill="#FFFFFF" font-family="Helvetica Neue, Helvetica, Arial, sans-serif"> end</text></g><g class="node" aria-label="graph-node-8" transform="translate(-89.3547980012618,-94.35662064519342)"><circle class="b-outline" cx="0" cy="0" r="25" fill="#A5ABB6" stroke="#9AA1AC" stroke-width="2px"/><text class="caption" text-anchor="middle" pointer-events="none" x="0" y="5" font-size="10px" fill="#FFFFFF" font-family="Helvetica Neue, Helvetica, Arial, sans-serif"> position</text></g><g class="node" aria-label="graph-node-12" transform="translate(-135.0385409980452,-6.05098738755398)"><circle class="b-outline" cx="0" cy="0" r="25" fill="#A5ABB6" stroke="#9AA1AC" stroke-width="2px"/><text class="caption" text-anchor="middle" pointer-events="none" x="0" y="5" font-size="10px" fill="#FFFFFF" font-family="Helvetica Neue, Helvetica, Arial, sans-serif"> reaction…</text></g><g class="node" aria-label="graph-node-2" transform="translate(-35.83827763862537,-11.061445001936388)"><circle class="b-outline" cx="0" cy="0" r="25" fill="#ECB5C9" stroke="#da7298" stroke-width="2px"/><text class="caption" text-anchor="middle" pointer-events="none" x="0" y="5" font-size="10px" fill="#2A2C34" font-family="Helvetica Neue, Helvetica, Arial, sans-serif"> Species</text></g><g class="node" aria-label="graph-node-9" transform="translate(-80.68757054029147,76.95988186636055)"><circle class="b-outline" cx="0" cy="0" r="25" fill="#A5ABB6" stroke="#9AA1AC" stroke-width="2px"/><text class="caption" text-anchor="middle" pointer-events="none" x="0" y="5" font-size="10px" fill="#FFFFFF" font-family="Helvetica Neue, Helvetica, Arial, sans-serif"> dimensi…</text></g><g class="node" aria-label="graph-node-16" transform="translate(-257.8602279698973,88.90793738025233)"><circle class="b-outline" cx="0" cy="0" r="25" fill="#A5ABB6" stroke="#9AA1AC" stroke-width="2px"/><text class="caption" text-anchor="middle" pointer-events="none" x="0" y="5" font-size="10px" fill="#FFFFFF" font-family="Helvetica Neue, Helvetica, Arial, sans-serif"> species…</text></g></g></svg>