<svg xmlns="http://www.w3.org/2000/svg" width="437.8353576660156" height="492.9460144042969" viewBox="-198.75872802734375 -254.75592041015625 437.8353576660156 492.9460144042969"><title>Neo4j Graph Visualization</title><desc>Created using Neo4j (http://www.neo4j.com/)</desc><g class="layer relationships"><g class="relationship" transform="translate(70.13357463331533 65.98725877339692) rotate(434.8309488093818)"><path class="b-outline" fill="#A5ABB6" stroke="none" d="M 25 0.5 L 25.152995984548525 0.5 L 25.152995984548525 -0.5 L 25 -0.5 Z M 116.21940223454853 0.5 L 116.37239821909705 0.5 L 116.37239821909705 3.5 L 123.37239821909705 0 L 116.37239821909705 -3.5 L 116.37239821909705 -0.5 L 116.21940223454853 -0.5 Z"/><text text-anchor="middle" pointer-events="none" font-size="8px" fill="#000000" x="70.68619910954853" y="3" font-family="Helvetica Neue, Helvetica, Arial, sans-serif">HAS_QUALITATIVES…</text></g><g class="relationship" transform="translate(70.13357463331533 65.98725877339692) rotate(383.4944580427003)"><path class="b-outline" fill="#A5ABB6" stroke="none" d="M 25 0.5 L 25.1635479722419 0.5 L 25.1635479722419 -0.5 L 25 -0.5 Z M 116.2299542222419 0.5 L 116.3935021944838 0.5 L 116.3935021944838 3.5 L 123.3935021944838 0 L 116.3935021944838 -3.5 L 116.3935021944838 -0.5 L 116.2299542222419 -0.5 Z"/><text text-anchor="middle" pointer-events="none" font-size="8px" fill="#000000" x="70.6967510972419" y="3" font-family="Helvetica Neue, Helvetica, Arial, sans-serif">HAS_QUALITATIVES…</text></g><g class="relationship" transform="translate(70.13357463331533 65.98725877339692) rotate(340.23477767424663)"><path class="b-outline" fill="#A5ABB6" stroke="none" d="M 25 0.5 L 25.318654281512693 0.5 L 25.318654281512693 -0.5 L 25 -0.5 Z M 116.38506053151269 0.5 L 116.70371481302539 0.5 L 116.70371481302539 3.5 L 123.70371481302539 0 L 116.70371481302539 -3.5 L 116.70371481302539 -0.5 L 116.38506053151269 -0.5 Z"/><text text-anchor="middle" pointer-events="none" font-size="8px" fill="#000000" x="70.85185740651269" y="3" font-family="Helvetica Neue, Helvetica, Arial, sans-serif">HAS_QUALITATIVES…</text></g><g class="relationship" transform="translate(70.13357463331533 65.98725877339692) rotate(298.26821862483337)"><path class="b-outline" fill="#A5ABB6" stroke="none" d="M 25 0.5 L 27.297832367513138 0.5 L 27.297832367513138 -0.5 L 25 -0.5 Z M 113.02830111751314 0.5 L 115.32613348502628 0.5 L 115.32613348502628 3.5 L 122.32613348502628 0 L 115.32613348502628 -3.5 L 115.32613348502628 -0.5 L 113.02830111751314 -0.5 Z"/><text text-anchor="middle" pointer-events="none" font-size="8px" fill="#000000" x="70.16306674251314" y="3" font-family="Helvetica Neue, Helvetica, Arial, sans-serif">HAS_QUALITATIVE…</text></g><g class="relationship" transform="translate(70.13357463331533 65.98725877339692) rotate(237.45690918865557)"><path class="b-outline" fill="#A5ABB6" stroke="none" d="M 25 0.5 L 49.466330021104866 0.5 L 49.466330021104866 -0.5 L 25 -0.5 Z M 124.81008002110487 0.5 L 149.27641004220973 0.5 L 149.27641004220973 3.5 L 156.27641004220973 0 L 149.27641004220973 -3.5 L 149.27641004220973 -0.5 L 124.81008002110487 -0.5 Z"/><text text-anchor="middle" pointer-events="none" font-size="8px" fill="#000000" x="87.13820502110487" y="3" transform="rotate(180 87.13820502110487 0)" font-family="Helvetica Neue, Helvetica, Arial, sans-serif">HAS_TRANSITION</text></g><g class="relationship" transform="translate(70.13357463331533 65.98725877339692) rotate(484.2572588578607)"><path class="b-outline" fill="#A5ABB6" stroke="none" d="M 25 0.5 L 26.68024064394085 0.5 L 26.68024064394085 -0.5 L 25 -0.5 Z M 115.51227189394085 0.5 L 117.1925125378817 0.5 L 117.1925125378817 3.5 L 124.1925125378817 0 L 117.1925125378817 -3.5 L 117.1925125378817 -0.5 L 115.51227189394085 -0.5 Z"/><text text-anchor="middle" pointer-events="none" font-size="8px" fill="#000000" x="71.09625626894085" y="3" transform="rotate(180 71.09625626894085 0)" font-family="Helvetica Neue, Helvetica, Arial, sans-serif">HAS_COMPARTMENT</text></g><g class="relationship" transform="translate(-27.38112463383354 -86.8264194907849) rotate(290.546509661084)"><path class="b-outline" fill="#A5ABB6" stroke="none" d="M 25 0.5 L 45.23454124155485 0.5 L 45.23454124155485 -0.5 L 25 -0.5 Z M 96.13297874155485 0.5 L 116.3675199831097 0.5 L 116.3675199831097 3.5 L 123.3675199831097 0 L 116.3675199831097 -3.5 L 116.3675199831097 -0.5 L 96.13297874155485 -0.5 Z"/><text text-anchor="middle" pointer-events="none" font-size="8px" fill="#000000" x="70.68375999155485" y="3" font-family="Helvetica Neue, Helvetica, Arial, sans-serif">HAS_INPUT</text></g><g class="relationship" transform="translate(-27.38112463383354 -86.8264194907849) rotate(240.62468877598377)"><path class="b-outline" fill="#A5ABB6" stroke="none" d="M 25 0.5 L 44.989418786007676 0.5 L 44.989418786007676 -0.5 L 25 -0.5 Z M 95.88785628600768 0.5 L 115.87727507201535 0.5 L 115.87727507201535 3.5 L 122.87727507201535 0 L 115.87727507201535 -3.5 L 115.87727507201535 -0.5 L 95.88785628600768 -0.5 Z"/><text text-anchor="middle" pointer-events="none" font-size="8px" fill="#000000" x="70.43863753600768" y="3" transform="rotate(180 70.43863753600768 0)" font-family="Helvetica Neue, Helvetica, Arial, sans-serif">HAS_INPUT</text></g><g class="relationship" transform="translate(-27.38112463383354 -86.8264194907849) rotate(196.5883346783619)"><path class="b-outline" fill="#A5ABB6" stroke="none" d="M 25 0.5 L 40.88771544146951 0.5 L 40.88771544146951 -0.5 L 25 -0.5 Z M 100.67287169146951 0.5 L 116.56058713293902 0.5 L 116.56058713293902 3.5 L 123.56058713293902 0 L 116.56058713293902 -3.5 L 116.56058713293902 -0.5 L 100.67287169146951 -0.5 Z"/><text text-anchor="middle" pointer-events="none" font-size="8px" fill="#000000" x="70.78029356646951" y="3" transform="rotate(180 70.78029356646951 0)" font-family="Helvetica Neue, Helvetica, Arial, sans-serif">HAS_OUTPUT</text></g><g class="relationship" transform="translate(-27.38112463383354 -86.8264194907849) rotate(517.5097832088998)"><path class="b-outline" fill="#A5ABB6" stroke="none" d="M 25 0.5 L 41.497335960728634 0.5 L 41.497335960728634 -0.5 L 25 -0.5 Z M 101.28249221072863 0.5 L 117.77982817145727 0.5 L 117.77982817145727 3.5 L 124.77982817145727 0 L 117.77982817145727 -3.5 L 117.77982817145727 -0.5 L 101.28249221072863 -0.5 Z"/><text text-anchor="middle" pointer-events="none" font-size="8px" fill="#000000" x="71.38991408572863" y="3" transform="rotate(180 71.38991408572863 0)" font-family="Helvetica Neue, Helvetica, Arial, sans-serif">HAS_OUTPUT</text></g><g class="relationship" transform="translate(-27.38112463383354 -86.8264194907849) rotate(477.96512963884277)"><path class="b-outline" fill="#A5ABB6" stroke="none" d="M 25 0.5 L 27.019392906829296 0.5 L 27.019392906829296 -0.5 L 25 -0.5 Z M 113.4686116568293 0.5 L 115.48800456365859 0.5 L 115.48800456365859 3.5 L 122.48800456365859 0 L 115.48800456365859 -3.5 L 115.48800456365859 -0.5 L 113.4686116568293 -0.5 Z"/><text text-anchor="middle" pointer-events="none" font-size="8px" fill="#000000" x="70.2440022818293" y="3" transform="rotate(180 70.2440022818293 0)" font-family="Helvetica Neue, Helvetica, Arial, sans-serif">HAS_FUNCTIONTE…</text></g></g><g class="layer nodes"><g class="node" aria-label="graph-node0" transform="translate(-13.848329581570136,189.2976215244966)"><circle class="b-outline" cx="0" cy="0" r="25" fill="#A5ABB6" stroke="#9AA1AC" stroke-width="2px"/><text class="caption" text-anchor="middle" pointer-events="none" x="0" y="5" font-size="10px" fill="#FFFFFF" font-family="Helvetica Neue, Helvetica, Arial, sans-serif"> default</text></g><g class="node" aria-label="graph-node1" transform="translate(70.13357463331533,65.98725877339692)"><circle class="b-outline" cx="0" cy="0" r="25" fill="#57C7E3" stroke="#23b3d7" stroke-width="2px"/><text class="caption" text-anchor="middle" pointer-events="none" x="0" y="5" font-size="10px" fill="#2A2C34" font-family="Helvetica Neue, Helvetica, Arial, sans-serif"> PN_exe…</text></g><g class="node" aria-label="graph-node2" transform="translate(108.95786529368897,209.19006254484944)"><circle class="b-outline" cx="0" cy="0" r="25" fill="#A5ABB6" stroke="#9AA1AC" stroke-width="2px"/><text class="caption" text-anchor="middle" pointer-events="none" x="0" y="5" font-size="10px" fill="#FFFFFF" font-family="Helvetica Neue, Helvetica, Arial, sans-serif"> A</text></g><g class="node" aria-label="graph-node3" transform="translate(206.22505357076722,125.14586638176915)"><circle class="b-outline" cx="0" cy="0" r="25" fill="#A5ABB6" stroke="#9AA1AC" stroke-width="2px"/><text class="caption" text-anchor="middle" pointer-events="none" x="0" y="5" font-size="10px" fill="#FFFFFF" font-family="Helvetica Neue, Helvetica, Arial, sans-serif"> B</text></g><g class="node" aria-label="graph-node4" transform="translate(210.0765891908937,15.700605715841053)"><circle class="b-outline" cx="0" cy="0" r="25" fill="#A5ABB6" stroke="#9AA1AC" stroke-width="2px"/><text class="caption" text-anchor="middle" pointer-events="none" x="0" y="5" font-size="10px" fill="#FFFFFF" font-family="Helvetica Neue, Helvetica, Arial, sans-serif"> C</text></g><g class="node" aria-label="graph-node5" transform="translate(139.90719380620666,-63.76878800348402)"><circle class="b-outline" cx="0" cy="0" r="25" fill="#A5ABB6" stroke="#9AA1AC" stroke-width="2px"/><text class="caption" text-anchor="middle" pointer-events="none" x="0" y="5" font-size="10px" fill="#FFFFFF" font-family="Helvetica Neue, Helvetica, Arial, sans-serif"> D</text></g><g class="node" aria-label="graph-node6" transform="translate(-27.38112463383354,-86.8264194907849)"><circle class="b-outline" cx="0" cy="0" r="25" fill="#A5ABB6" stroke="#9AA1AC" stroke-width="2px"/><text class="caption" text-anchor="middle" pointer-events="none" x="0" y="5" font-size="10px" fill="#FFFFFF" font-family="Helvetica Neue, Helvetica, Arial, sans-serif"> t1</text></g><g class="node" aria-label="graph-node7" transform="translate(24.69106871793845,-225.75592559180768)"><circle class="b-outline" cx="0" cy="0" r="25" fill="#A5ABB6" stroke="#9AA1AC" stroke-width="2px"/><text class="caption" text-anchor="middle" pointer-events="none" x="0" y="5" font-size="10px" fill="#FFFFFF" font-family="Helvetica Neue, Helvetica, Arial, sans-serif"> t1_A</text></g><g class="node" aria-label="graph-node8" transform="translate(-99.91911322713939,-215.69041249721755)"><circle class="b-outline" cx="0" cy="0" r="25" fill="#A5ABB6" stroke="#9AA1AC" stroke-width="2px"/><text class="caption" text-anchor="middle" pointer-events="none" x="0" y="5" font-size="10px" fill="#FFFFFF" font-family="Helvetica Neue, Helvetica, Arial, sans-serif"> t1_B</text></g><g class="node" aria-label="graph-node9" transform="translate(-169.75872713255288,-129.2394641350949)"><circle class="b-outline" cx="0" cy="0" r="25" fill="#A5ABB6" stroke="#9AA1AC" stroke-width="2px"/><text class="caption" text-anchor="middle" pointer-events="none" x="0" y="5" font-size="10px" fill="#FFFFFF" font-family="Helvetica Neue, Helvetica, Arial, sans-serif"> e302555…</text></g><g class="node" aria-label="graph-node10" transform="translate(-165.76942729443036,-29.531789604640153)"><circle class="b-outline" cx="0" cy="0" r="25" fill="#A5ABB6" stroke="#9AA1AC" stroke-width="2px"/><text class="caption" text-anchor="middle" pointer-events="none" x="0" y="5" font-size="10px" fill="#FFFFFF" font-family="Helvetica Neue, Helvetica, Arial, sans-serif"> da195a7…</text></g><g class="node" aria-label="graph-node11" transform="translate(-96.54328103454043,43.43987550594069)"><circle class="b-outline" cx="0" cy="0" r="25" fill="#A5ABB6" stroke="#9AA1AC" stroke-width="2px"/><text class="caption" text-anchor="middle" pointer-events="none" x="0" y="5" font-size="10px" fill="#FFFFFF" font-family="Helvetica Neue, Helvetica, Arial, sans-serif"> 186d742…</text></g></g></svg>