<svg xmlns="http://www.w3.org/2000/svg" width="564.5767211914062" height="743.6757202148438" viewBox="-202.59812927246094 -448.0205383300781 564.5767211914062 743.6757202148438"><title>Neo4j Graph Visualization</title><desc>Created using Neo4j (http://www.neo4j.com/)</desc><g class="layer relationships"><g class="relationship" transform="translate(12.33363178522761 -113.57258818602456) rotate(345.1664764050697)"><path class="b-outline" fill="#A5ABB6" stroke="none" d="M 25 0.5 L 26.810056974291463 0.5 L 26.810056974291463 -0.5 L 25 -0.5 Z M 73.70849447429146 0.5 L 75.51855144858293 0.5 L 75.51855144858293 3.5 L 82.51855144858293 0 L 75.51855144858293 -3.5 L 75.51855144858293 -0.5 L 73.70849447429146 -0.5 Z"/><text text-anchor="middle" pointer-events="none" font-size="8px" fill="#000000" x="50.25927572429146" y="3" font-family="Helvetica Neue, Helvetica, Arial, sans-serif">HAS_CO…</text></g><g class="relationship" transform="translate(-26.812462155167932 101.74678325863482) rotate(402.5121906236061)"><path class="b-outline" fill="#A5ABB6" stroke="none" d="M 25 0.5 L 45.154765640231034 0.5 L 45.154765640231034 -0.5 L 25 -0.5 Z M 109.83445314023103 0.5 L 129.98921878046207 0.5 L 129.98921878046207 3.5 L 136.98921878046207 0 L 129.98921878046207 -3.5 L 129.98921878046207 -0.5 L 109.83445314023103 -0.5 Z"/><text text-anchor="middle" pointer-events="none" font-size="8px" fill="#000000" x="77.49460939023103" y="3" font-family="Helvetica Neue, Helvetica, Arial, sans-serif">IS_COMPOSED</text></g><g class="relationship" transform="translate(71.84700367274851 113.68380948614305) rotate(472.07757229722176)"><path class="b-outline" fill="#A5ABB6" stroke="none" d="M 25 0.5 L 46.697788312241315 0.5 L 46.697788312241315 -0.5 L 25 -0.5 Z M 111.37747581224131 0.5 L 133.07526412448263 0.5 L 133.07526412448263 3.5 L 140.07526412448263 0 L 133.07526412448263 -3.5 L 133.07526412448263 -0.5 L 111.37747581224131 -0.5 Z"/><text text-anchor="middle" pointer-events="none" font-size="8px" fill="#000000" x="79.03763206224131" y="3" transform="rotate(180 79.03763206224131 0)" font-family="Helvetica Neue, Helvetica, Arial, sans-serif">IS_COMPOSED</text></g><g class="relationship" transform="translate(71.84700367274851 113.68380948614305) rotate(404.20309767814973)"><path class="b-outline" fill="#A5ABB6" stroke="none" d="M 25 0.5 L 46.82064326028643 0.5 L 46.82064326028643 -0.5 L 25 -0.5 Z M 111.50033076028643 0.5 L 133.32097402057286 0.5 L 133.32097402057286 3.5 L 140.32097402057286 0 L 133.32097402057286 -3.5 L 133.32097402057286 -0.5 L 111.50033076028643 -0.5 Z"/><text text-anchor="middle" pointer-events="none" font-size="8px" fill="#000000" x="79.16048701028643" y="3" font-family="Helvetica Neue, Helvetica, Arial, sans-serif">IS_COMPOSED</text></g><g class="relationship" transform="translate(179.00544033668228 54.248770130201336) rotate(388.8363744411998)"><path class="b-outline" fill="#A5ABB6" stroke="none" d="M 25 0.5 L 42.84129981641421 0.5 L 42.84129981641421 -0.5 L 25 -0.5 Z M 107.5209873164142 0.5 L 125.36228713282841 0.5 L 125.36228713282841 3.5 L 132.3622871328284 0 L 125.36228713282841 -3.5 L 125.36228713282841 -0.5 L 107.5209873164142 -0.5 Z"/><text text-anchor="middle" pointer-events="none" font-size="8px" fill="#000000" x="75.1811435664142" y="3" font-family="Helvetica Neue, Helvetica, Arial, sans-serif">IS_COMPOSED</text></g><g class="relationship" transform="translate(179.00544033668228 54.248770130201336) rotate(349.7875019451427)"><path class="b-outline" fill="#A5ABB6" stroke="none" d="M 25 0.5 L 42.38606814132888 0.5 L 42.38606814132888 -0.5 L 25 -0.5 Z M 107.06575564132888 0.5 L 124.45182378265775 0.5 L 124.45182378265775 3.5 L 131.45182378265775 0 L 124.45182378265775 -3.5 L 124.45182378265775 -0.5 L 107.06575564132888 -0.5 Z"/><text text-anchor="middle" pointer-events="none" font-size="8px" fill="#000000" x="74.72591189132888" y="3" font-family="Helvetica Neue, Helvetica, Arial, sans-serif">IS_COMPOSED</text></g><g class="relationship" transform="translate(179.00544033668228 54.248770130201336) rotate(478.8335584842488)"><path class="b-outline" fill="#A5ABB6" stroke="none" d="M 25 0.5 L 53.747705417673274 0.5 L 53.747705417673274 -0.5 L 25 -0.5 Z M 118.42739291767327 0.5 L 147.17509833534655 0.5 L 147.17509833534655 3.5 L 154.17509833534655 0 L 147.17509833534655 -3.5 L 147.17509833534655 -0.5 L 118.42739291767327 -0.5 Z"/><text text-anchor="middle" pointer-events="none" font-size="8px" fill="#000000" x="86.08754916767327" y="3" transform="rotate(180 86.08754916767327 0)" font-family="Helvetica Neue, Helvetica, Arial, sans-serif">IS_COMPOSED</text></g><g class="relationship" transform="translate(12.33363178522761 -113.57258818602456) rotate(460.30410394008334)"><path class="b-outline" fill="#A5ABB6" stroke="none" d="M 25 0.5 L 60.47719278137444 0.5 L 60.47719278137444 -0.5 L 25 -0.5 Z M 151.37172403137444 0.5 L 186.84891681274888 0.5 L 186.84891681274888 3.5 L 193.84891681274888 0 L 186.84891681274888 -3.5 L 186.84891681274888 -0.5 L 151.37172403137444 -0.5 Z"/><text text-anchor="middle" pointer-events="none" font-size="8px" fill="#000000" x="105.92445840637444" y="3" transform="rotate(180 105.92445840637444 0)" font-family="Helvetica Neue, Helvetica, Arial, sans-serif">HAS_UNITDEFINITION</text></g><g class="relationship" transform="translate(12.33363178522761 -113.57258818602456) rotate(435.3250604336647)"><path class="b-outline" fill="#A5ABB6" stroke="none" d="M 25 0.5 L 68.51263361337067 0.5 L 68.51263361337067 -0.5 L 25 -0.5 Z M 159.40716486337067 0.5 L 202.91979847674133 0.5 L 202.91979847674133 3.5 L 209.91979847674133 0 L 202.91979847674133 -3.5 L 202.91979847674133 -0.5 L 159.40716486337067 -0.5 Z"/><text text-anchor="middle" pointer-events="none" font-size="8px" fill="#000000" x="113.95989923837067" y="3" font-family="Helvetica Neue, Helvetica, Arial, sans-serif">HAS_UNITDEFINITION</text></g><g class="relationship" transform="translate(12.33363178522761 -113.57258818602456) rotate(405.196907133188)"><path class="b-outline" fill="#A5ABB6" stroke="none" d="M 25 0.5 L 69.31462603173344 0.5 L 69.31462603173344 -0.5 L 25 -0.5 Z M 160.20915728173344 0.5 L 204.52378331346688 0.5 L 204.52378331346688 3.5 L 211.52378331346688 0 L 204.52378331346688 -3.5 L 204.52378331346688 -0.5 L 160.20915728173344 -0.5 Z"/><text text-anchor="middle" pointer-events="none" font-size="8px" fill="#000000" x="114.76189165673344" y="3" font-family="Helvetica Neue, Helvetica, Arial, sans-serif">HAS_UNITDEFINITION</text></g><g class="relationship" transform="translate(12.33363178522761 -113.57258818602456) rotate(307.09319679382793)"><path class="b-outline" fill="#A5ABB6" stroke="none" d="M 25 0.5 L 90.49035241175609 0.5 L 90.49035241175609 -0.5 L 25 -0.5 Z M 152.06847741175608 0.5 L 217.55882982351218 0.5 L 217.55882982351218 3.5 L 224.55882982351218 0 L 217.55882982351218 -3.5 L 217.55882982351218 -0.5 L 152.06847741175608 -0.5 Z"/><text text-anchor="middle" pointer-events="none" font-size="8px" fill="#000000" x="121.27941491175609" y="3" font-family="Helvetica Neue, Helvetica, Arial, sans-serif">HAS_SPECIES</text></g><g class="relationship" transform="translate(12.33363178522761 -113.57258818602456) rotate(329.9636138882973)"><path class="b-outline" fill="#A5ABB6" stroke="none" d="M 25 0.5 L 69.77051263261156 0.5 L 69.77051263261156 -0.5 L 25 -0.5 Z M 131.34863763261154 0.5 L 176.1191502652231 0.5 L 176.1191502652231 3.5 L 183.1191502652231 0 L 176.1191502652231 -3.5 L 176.1191502652231 -0.5 L 131.34863763261154 -0.5 Z"/><text text-anchor="middle" pointer-events="none" font-size="8px" fill="#000000" x="100.55957513261156" y="3" font-family="Helvetica Neue, Helvetica, Arial, sans-serif">HAS_SPECIES</text></g><g class="relationship" transform="translate(12.33363178522761 -113.57258818602456) rotate(264.58090516065226)"><path class="b-outline" fill="#A5ABB6" stroke="none" d="M 25 0.5 L 38.78277638822904 0.5 L 38.78277638822904 -0.5 L 25 -0.5 Z M 100.36090138822904 0.5 L 114.14367777645808 0.5 L 114.14367777645808 3.5 L 121.14367777645808 0 L 114.14367777645808 -3.5 L 114.14367777645808 -0.5 L 100.36090138822904 -0.5 Z"/><text text-anchor="middle" pointer-events="none" font-size="8px" fill="#000000" x="69.57183888822904" y="3" transform="rotate(180 69.57183888822904 0)" font-family="Helvetica Neue, Helvetica, Arial, sans-serif">HAS_SPECIES</text></g><g class="relationship" transform="translate(12.33363178522761 -113.57258818602456) rotate(225.26576160684726)"><path class="b-outline" fill="#A5ABB6" stroke="none" d="M 25 0.5 L 38.805796785238144 0.5 L 38.805796785238144 -0.5 L 25 -0.5 Z M 100.38392178523814 0.5 L 114.18971857047629 0.5 L 114.18971857047629 3.5 L 121.18971857047629 0 L 114.18971857047629 -3.5 L 114.18971857047629 -0.5 L 100.38392178523814 -0.5 Z"/><text text-anchor="middle" pointer-events="none" font-size="8px" fill="#000000" x="69.59485928523814" y="3" transform="rotate(180 69.59485928523814 0)" font-family="Helvetica Neue, Helvetica, Arial, sans-serif">HAS_SPECIES</text></g><g class="relationship" transform="translate(12.33363178522761 -113.57258818602456) rotate(303.42086302031305)"><path class="b-outline" fill="#A5ABB6" stroke="none" d="M 25 0.5 L 41.51667557093491 0.5 L 41.51667557093491 -0.5 L 25 -0.5 Z M 103.09480057093491 0.5 L 119.61147614186982 0.5 L 119.61147614186982 3.5 L 126.61147614186982 0 L 119.61147614186982 -3.5 L 119.61147614186982 -0.5 L 103.09480057093491 -0.5 Z"/><text text-anchor="middle" pointer-events="none" font-size="8px" fill="#000000" x="72.30573807093491" y="3" font-family="Helvetica Neue, Helvetica, Arial, sans-serif">HAS_SPECIES</text></g><g class="relationship" transform="translate(162.84587611709074 -312.6345731280678) rotate(465.19115920895115)"><path class="b-outline" fill="#A5ABB6" stroke="none" d="M 25 0.5 L 45.1821115457999 0.5 L 45.1821115457999 -0.5 L 25 -0.5 Z M 125.5649240457999 0.5 L 145.7470355915998 0.5 L 145.7470355915998 3.5 L 152.7470355915998 0 L 145.7470355915998 -3.5 L 145.7470355915998 -0.5 L 125.5649240457999 -0.5 Z"/><text text-anchor="middle" pointer-events="none" font-size="8px" fill="#000000" x="85.3735177957999" y="3" transform="rotate(180 85.3735177957999 0)" font-family="Helvetica Neue, Helvetica, Arial, sans-serif">IN_COMPARTMENT</text></g><g class="relationship" transform="translate(192.50398278032597 -217.74660284141535) rotate(494.84520159566796)"><path class="b-outline" fill="#A5ABB6" stroke="none" d="M 25 0.5 L 25.327900857517335 0.5 L 25.327900857517335 -0.5 L 25 -0.5 Z M 75.77711960751733 0.5 L 76.10502046503467 0.5 L 76.10502046503467 3.5 L 83.10502046503467 0 L 76.10502046503467 -3.5 L 76.10502046503467 -0.5 L 75.77711960751733 -0.5 Z"/><text text-anchor="middle" pointer-events="none" font-size="8px" fill="#000000" x="50.552510232517335" y="3" transform="rotate(180 50.552510232517335 0)" font-family="Helvetica Neue, Helvetica, Arial, sans-serif">IN_COMP…</text></g><g class="relationship" transform="translate(-1.468191297788414 -259.06308352374185) rotate(405.0552618670355)"><path class="b-outline" fill="#A5ABB6" stroke="none" d="M 25 0.5 L 39.64176991995507 0.5 L 39.64176991995507 -0.5 L 25 -0.5 Z M 120.02458241995507 0.5 L 134.66635233991013 0.5 L 134.66635233991013 3.5 L 141.66635233991013 0 L 134.66635233991013 -3.5 L 134.66635233991013 -0.5 L 120.02458241995507 -0.5 Z"/><text text-anchor="middle" pointer-events="none" font-size="8px" fill="#000000" x="79.83317616995507" y="3" font-family="Helvetica Neue, Helvetica, Arial, sans-serif">IN_COMPARTMENT</text></g><g class="relationship" transform="translate(-90.55751821866843 -217.42269683589947) rotate(380.2553166516052)"><path class="b-outline" fill="#A5ABB6" stroke="none" d="M 25 0.5 L 66.53855762710114 0.5 L 66.53855762710114 -0.5 L 25 -0.5 Z M 146.92137012710114 0.5 L 188.45992775420228 0.5 L 188.45992775420228 3.5 L 195.45992775420228 0 L 188.45992775420228 -3.5 L 188.45992775420228 -0.5 L 146.92137012710114 -0.5 Z"/><text text-anchor="middle" pointer-events="none" font-size="8px" fill="#000000" x="106.72996387710114" y="3" font-family="Helvetica Neue, Helvetica, Arial, sans-serif">IN_COMPARTMENT</text></g><g class="relationship" transform="translate(95.83891249086311 -240.11470683507272) rotate(438.34171788331764)"><path class="b-outline" fill="#A5ABB6" stroke="none" d="M 25 0.5 L 27.82631786913219 0.5 L 27.82631786913219 -0.5 L 25 -0.5 Z M 66.2755366191322 0.5 L 69.10185448826438 0.5 L 69.10185448826438 3.5 L 76.10185448826438 0 L 69.10185448826438 -3.5 L 69.10185448826438 -0.5 L 66.2755366191322 -0.5 Z"/><text text-anchor="middle" pointer-events="none" font-size="8px" fill="#000000" x="47.05092724413219" y="3" font-family="Helvetica Neue, Helvetica, Arial, sans-serif">IN_CO…</text></g><g class="relationship" transform="translate(12.33363178522761 -113.57258818602456) rotate(283.5713037302223)"><path class="b-outline" fill="#A5ABB6" stroke="none" d="M 25 0.5 L 75.95569491704558 0.5 L 75.95569491704558 -0.5 L 25 -0.5 Z M 144.19006991704558 0.5 L 195.14576483409115 0.5 L 195.14576483409115 3.5 L 202.14576483409115 0 L 195.14576483409115 -3.5 L 195.14576483409115 -0.5 L 144.19006991704558 -0.5 Z"/><text text-anchor="middle" pointer-events="none" font-size="8px" fill="#000000" x="110.07288241704558" y="3" font-family="Helvetica Neue, Helvetica, Arial, sans-serif">HAS_REACTION</text></g><g class="relationship" transform="translate(12.33363178522761 -113.57258818602456) rotate(262.339715289137)"><path class="b-outline" fill="#A5ABB6" stroke="none" d="M 25 0.5 L 96.02799732614005 0.5 L 96.02799732614005 -0.5 L 25 -0.5 Z M 164.26237232614005 0.5 L 235.2903696522801 0.5 L 235.2903696522801 3.5 L 242.2903696522801 0 L 235.2903696522801 -3.5 L 235.2903696522801 -0.5 L 164.26237232614005 -0.5 Z"/><text text-anchor="middle" pointer-events="none" font-size="8px" fill="#000000" x="130.14518482614005" y="3" transform="rotate(180 130.14518482614005 0)" font-family="Helvetica Neue, Helvetica, Arial, sans-serif">HAS_REACTION</text></g><g class="relationship" transform="translate(65.63458538191017 -334.3761362276005) rotate(534.4750936683236)"><path class="b-outline" fill="#A5ABB6" stroke="none" d="M 25 0.5 L 41.18644476268484 0.5 L 41.18644476268484 -0.5 L 25 -0.5 Z M 119.79972601268484 0.5 L 135.9861707753697 0.5 L 135.9861707753697 3.5 L 142.9861707753697 0 L 135.9861707753697 -3.5 L 135.9861707753697 -0.5 L 119.79972601268484 -0.5 Z"/><text text-anchor="middle" pointer-events="none" font-size="8px" fill="#000000" x="80.49308538768484" y="3" transform="rotate(180 80.49308538768484 0)" font-family="Helvetica Neue, Helvetica, Arial, sans-serif">HAS_KENETICLAW</text></g><g class="relationship" transform="translate(-23.295971571760607 -378.4776147020879) rotate(195.0958340375044)"><path class="b-outline" fill="#A5ABB6" stroke="none" d="M 25 0.5 L 35.03047550573402 0.5 L 35.03047550573402 -0.5 L 25 -0.5 Z M 113.64375675573402 0.5 L 123.67423226146803 0.5 L 123.67423226146803 3.5 L 130.67423226146803 0 L 123.67423226146803 -3.5 L 123.67423226146803 -0.5 L 113.64375675573402 -0.5 Z"/><text text-anchor="middle" pointer-events="none" font-size="8px" fill="#000000" x="74.33711613073402" y="3" transform="rotate(180 74.33711613073402 0)" font-family="Helvetica Neue, Helvetica, Arial, sans-serif">HAS_KENETICLAW</text></g><g class="relationship" transform="translate(162.84587611709074 -312.6345731280678) rotate(192.6068848401925)"><path class="b-outline" fill="#A5ABB6" stroke="none" d="M 25 0.5 L 25.077936297443657 0.5 L 25.077936297443657 -0.5 L 25 -0.5 Z M 67.53496754744366 0.5 L 67.61290384488731 0.5 L 67.61290384488731 3.5 L 74.61290384488731 0 L 67.61290384488731 -3.5 L 67.61290384488731 -0.5 L 67.53496754744366 -0.5 Z"/><text text-anchor="middle" pointer-events="none" font-size="8px" fill="#000000" x="46.30645192244366" y="3" transform="rotate(180 46.30645192244366 0)" font-family="Helvetica Neue, Helvetica, Arial, sans-serif">IS_REA…</text></g><g class="relationship" transform="translate(192.50398278032597 -217.74660284141535) rotate(222.59195860253044)"><path class="b-outline" fill="#A5ABB6" stroke="none" d="M 25 0.5 L 52.40033703565018 0.5 L 52.40033703565018 -0.5 L 25 -0.5 Z M 112.93158703565018 0.5 L 140.33192407130036 0.5 L 140.33192407130036 3.5 L 147.33192407130036 0 L 140.33192407130036 -3.5 L 140.33192407130036 -0.5 L 112.93158703565018 -0.5 Z"/><text text-anchor="middle" pointer-events="none" font-size="8px" fill="#000000" x="82.66596203565018" y="3" transform="rotate(180 82.66596203565018 0)" font-family="Helvetica Neue, Helvetica, Arial, sans-serif">IS_REACTANT</text></g><g class="relationship" transform="translate(-1.468191297788414 -259.06308352374185) rotate(259.64126435170397)"><path class="b-outline" fill="#A5ABB6" stroke="none" d="M 25 0.5 L 26.930919893908488 0.5 L 26.930919893908488 -0.5 L 25 -0.5 Z M 87.46216989390848 0.5 L 89.39308978781698 0.5 L 89.39308978781698 3.5 L 96.39308978781698 0 L 89.39308978781698 -3.5 L 89.39308978781698 -0.5 L 87.46216989390848 -0.5 Z"/><text text-anchor="middle" pointer-events="none" font-size="8px" fill="#000000" x="57.19654489390849" y="3" transform="rotate(180 57.19654489390849 0)" font-family="Helvetica Neue, Helvetica, Arial, sans-serif">IS_REACTANT</text></g><g class="relationship" transform="translate(65.63458538191017 -334.3761362276005) rotate(491.70054895472305)"><path class="b-outline" fill="#A5ABB6" stroke="none" d="M 25 0.5 L 26.818014853365476 0.5 L 26.818014853365476 -0.5 L 25 -0.5 Z M 67.05238985336547 0.5 L 68.87040470673095 0.5 L 68.87040470673095 3.5 L 75.87040470673095 0 L 68.87040470673095 -3.5 L 68.87040470673095 -0.5 L 67.05238985336547 -0.5 Z"/><text text-anchor="middle" pointer-events="none" font-size="8px" fill="#000000" x="46.935202353365476" y="3" transform="rotate(180 46.935202353365476 0)" font-family="Helvetica Neue, Helvetica, Arial, sans-serif">HAS_P…</text></g><g class="relationship" transform="translate(-23.295971571760607 -378.4776147020879) rotate(379.4799646724955)"><path class="b-outline" fill="#A5ABB6" stroke="none" d="M 25 0.5 L 61.99538742089864 0.5 L 61.99538742089864 -0.5 L 25 -0.5 Z M 128.44851242089862 0.5 L 165.44389984179728 0.5 L 165.44389984179728 3.5 L 172.44389984179728 0 L 165.44389984179728 -3.5 L 165.44389984179728 -0.5 L 128.44851242089862 -0.5 Z"/><text text-anchor="middle" pointer-events="none" font-size="8px" fill="#000000" x="95.22194992089864" y="3" font-family="Helvetica Neue, Helvetica, Arial, sans-serif">HAS_PRODUCT</text></g><g class="relationship" transform="translate(-23.295971571760607 -378.4776147020879) rotate(472.66693378013093)"><path class="b-outline" fill="#A5ABB6" stroke="none" d="M 25 0.5 L 50.54141877924535 0.5 L 50.54141877924535 -0.5 L 25 -0.5 Z M 116.99454377924535 0.5 L 142.5359625584907 0.5 L 142.5359625584907 3.5 L 149.5359625584907 0 L 142.5359625584907 -3.5 L 142.5359625584907 -0.5 L 116.99454377924535 -0.5 Z"/><text text-anchor="middle" pointer-events="none" font-size="8px" fill="#000000" x="83.76798127924535" y="3" transform="rotate(180 83.76798127924535 0)" font-family="Helvetica Neue, Helvetica, Arial, sans-serif">HAS_PRODUCT</text></g><g class="relationship" transform="translate(12.33363178522761 -113.57258818602456) rotate(390.5182827735242)"><path class="b-outline" fill="#A5ABB6" stroke="none" d="M 25 0.5 L 27.06644808051999 0.5 L 27.06644808051999 -0.5 L 25 -0.5 Z M 114.85941683051999 0.5 L 116.92586491103998 0.5 L 116.92586491103998 3.5 L 123.92586491103998 0 L 116.92586491103998 -3.5 L 116.92586491103998 -0.5 L 114.85941683051999 -0.5 Z"/><text text-anchor="middle" pointer-events="none" font-size="8px" fill="#000000" x="70.96293245551999" y="3" font-family="Helvetica Neue, Helvetica, Arial, sans-serif">HAS_ASSIGNMENT…</text></g><g class="relationship" transform="translate(12.33363178522761 -113.57258818602456) rotate(441.40243392037144)"><path class="b-outline" fill="#A5ABB6" stroke="none" d="M 25 0.5 L 26.749762583975013 0.5 L 26.749762583975013 -0.5 L 25 -0.5 Z M 103.87866883397501 0.5 L 105.62843141795003 0.5 L 105.62843141795003 3.5 L 112.62843141795003 0 L 105.62843141795003 -3.5 L 105.62843141795003 -0.5 L 103.87866883397501 -0.5 Z"/><text text-anchor="middle" pointer-events="none" font-size="8px" fill="#000000" x="65.31421570897501" y="3" font-family="Helvetica Neue, Helvetica, Arial, sans-serif">HAS_ASSIGNME…</text></g><g class="relationship" transform="translate(12.33363178522761 -113.57258818602456) rotate(188.80844430614957)"><path class="b-outline" fill="#A5ABB6" stroke="none" d="M 25 0.5 L 41.47324361310544 0.5 L 41.47324361310544 -0.5 L 25 -0.5 Z M 117.56699361310544 0.5 L 134.04023722621088 0.5 L 134.04023722621088 3.5 L 141.04023722621088 0 L 134.04023722621088 -3.5 L 134.04023722621088 -0.5 L 117.56699361310544 -0.5 Z"/><text text-anchor="middle" pointer-events="none" font-size="8px" fill="#000000" x="79.52011861310544" y="3" transform="rotate(180 79.52011861310544 0)" font-family="Helvetica Neue, Helvetica, Arial, sans-serif">HAS_PARAMETER</text></g><g class="relationship" transform="translate(12.33363178522761 -113.57258818602456) rotate(515.7984823109246)"><path class="b-outline" fill="#A5ABB6" stroke="none" d="M 25 0.5 L 47.9817140264485 0.5 L 47.9817140264485 -0.5 L 25 -0.5 Z M 124.0754640264485 0.5 L 147.057178052897 0.5 L 147.057178052897 3.5 L 154.057178052897 0 L 147.057178052897 -3.5 L 147.057178052897 -0.5 L 124.0754640264485 -0.5 Z"/><text text-anchor="middle" pointer-events="none" font-size="8px" fill="#000000" x="86.0285890264485" y="3" transform="rotate(180 86.0285890264485 0)" font-family="Helvetica Neue, Helvetica, Arial, sans-serif">HAS_PARAMETER</text></g><g class="relationship" transform="translate(12.33363178522761 -113.57258818602456) rotate(482.20367744208556)"><path class="b-outline" fill="#A5ABB6" stroke="none" d="M 25 0.5 L 32.29001668076761 0.5 L 32.29001668076761 -0.5 L 25 -0.5 Z M 108.38376668076761 0.5 L 115.67378336153521 0.5 L 115.67378336153521 3.5 L 122.67378336153521 0 L 115.67378336153521 -3.5 L 115.67378336153521 -0.5 L 108.38376668076761 -0.5 Z"/><text text-anchor="middle" pointer-events="none" font-size="8px" fill="#000000" x="70.33689168076761" y="3" transform="rotate(180 70.33689168076761 0)" font-family="Helvetica Neue, Helvetica, Arial, sans-serif">HAS_PARAMETER</text></g></g><g class="layer nodes"><g class="node" aria-label="graph-node0" transform="translate(-26.812462155167932,101.74678325863482)"><circle class="b-outline" cx="0" cy="0" r="25" fill="#D9C8AE" stroke="#c0a378" stroke-width="2px"/><text class="caption" text-anchor="middle" pointer-events="none" x="0" y="5" font-size="10px" fill="#2A2C34" font-family="Helvetica Neue, Helvetica, Arial, sans-serif"> per_sec…</text></g><g class="node" aria-label="graph-node1" transform="translate(71.84700367274851,113.68380948614305)"><circle class="b-outline" cx="0" cy="0" r="25" fill="#D9C8AE" stroke="#c0a378" stroke-width="2px"/><text class="caption" text-anchor="middle" pointer-events="none" x="0" y="5" font-size="10px" fill="#2A2C34" font-family="Helvetica Neue, Helvetica, Arial, sans-serif"> mole_pe…</text></g><g class="node" aria-label="graph-node2" transform="translate(179.00544033668228,54.248770130201336)"><circle class="b-outline" cx="0" cy="0" r="25" fill="#D9C8AE" stroke="#c0a378" stroke-width="2px"/><text class="caption" text-anchor="middle" pointer-events="none" x="0" y="5" font-size="10px" fill="#2A2C34" font-family="Helvetica Neue, Helvetica, Arial, sans-serif"> litre_per…</text></g><g class="node" aria-label="graph-node3" transform="translate(116.26899445775229,-141.09856304128334)"><circle class="b-outline" cx="0" cy="0" r="25" fill="#F79767" stroke="#f36924" stroke-width="2px"/><text class="caption" text-anchor="middle" pointer-events="none" x="0" y="5" font-size="10px" fill="#FFFFFF" font-family="Helvetica Neue, Helvetica, Arial, sans-serif"> cell</text></g><g class="node" aria-label="graph-node4" transform="translate(12.33363178522761,-113.57258818602456)"><circle class="b-outline" cx="0" cy="0" r="25" fill="#57C7E3" stroke="#23b3d7" stroke-width="2px"/><text class="caption" text-anchor="middle" pointer-events="none" x="0" y="5" font-size="10px" fill="#2A2C34" font-family="Helvetica Neue, Helvetica, Arial, sans-serif"> 0b41674…</text></g><g class="node" aria-label="graph-node5" transform="translate(92.59523014352803,211.21052164265103)"><circle class="b-outline" cx="0" cy="0" r="25" fill="#F16667" stroke="#eb2728" stroke-width="2px"/><text class="caption" text-anchor="middle" pointer-events="none" x="0" y="5" font-size="10px" fill="#FFFFFF" font-family="Helvetica Neue, Helvetica, Arial, sans-serif"> f5f0cb65…</text></g><g class="node" aria-label="graph-node6" transform="translate(9.801557959342782,266.6550665640416)"><circle class="b-outline" cx="0" cy="0" r="25" fill="#F16667" stroke="#eb2728" stroke-width="2px"/><text class="caption" text-anchor="middle" pointer-events="none" x="0" y="5" font-size="10px" fill="#FFFFFF" font-family="Helvetica Neue, Helvetica, Arial, sans-serif"> de25aa5…</text></g><g class="node" aria-label="graph-node7" transform="translate(190.36113216215398,228.94623094043845)"><circle class="b-outline" cx="0" cy="0" r="25" fill="#F16667" stroke="#eb2728" stroke-width="2px"/><text class="caption" text-anchor="middle" pointer-events="none" x="0" y="5" font-size="10px" fill="#FFFFFF" font-family="Helvetica Neue, Helvetica, Arial, sans-serif"> 2a6a3ffc…</text></g><g class="node" aria-label="graph-node8" transform="translate(316.85490777746264,130.1461596634914)"><circle class="b-outline" cx="0" cy="0" r="25" fill="#F16667" stroke="#eb2728" stroke-width="2px"/><text class="caption" text-anchor="middle" pointer-events="none" x="0" y="5" font-size="10px" fill="#FFFFFF" font-family="Helvetica Neue, Helvetica, Arial, sans-serif"> 372a959…</text></g><g class="node" aria-label="graph-node9" transform="translate(332.97859109600364,26.50995238021259)"><circle class="b-outline" cx="0" cy="0" r="25" fill="#F16667" stroke="#eb2728" stroke-width="2px"/><text class="caption" text-anchor="middle" pointer-events="none" x="0" y="5" font-size="10px" fill="#FFFFFF" font-family="Helvetica Neue, Helvetica, Arial, sans-serif"> 56985b5…</text></g><g class="node" aria-label="graph-node10" transform="translate(162.84587611709074,-312.6345731280678)"><circle class="b-outline" cx="0" cy="0" r="25" fill="#ECB5C9" stroke="#da7298" stroke-width="2px"/><text class="caption" text-anchor="middle" pointer-events="none" x="0" y="5" font-size="10px" fill="#2A2C34" font-family="Helvetica Neue, Helvetica, Arial, sans-serif"> E</text></g><g class="node" aria-label="graph-node11" transform="translate(192.50398278032597,-217.74660284141535)"><circle class="b-outline" cx="0" cy="0" r="25" fill="#ECB5C9" stroke="#da7298" stroke-width="2px"/><text class="caption" text-anchor="middle" pointer-events="none" x="0" y="5" font-size="10px" fill="#2A2C34" font-family="Helvetica Neue, Helvetica, Arial, sans-serif"> S</text></g><g class="node" aria-label="graph-node12" transform="translate(-1.468191297788414,-259.06308352374185)"><circle class="b-outline" cx="0" cy="0" r="25" fill="#ECB5C9" stroke="#da7298" stroke-width="2px"/><text class="caption" text-anchor="middle" pointer-events="none" x="0" y="5" font-size="10px" fill="#2A2C34" font-family="Helvetica Neue, Helvetica, Arial, sans-serif"> ES</text></g><g class="node" aria-label="graph-node13" transform="translate(-90.55751821866843,-217.42269683589947)"><circle class="b-outline" cx="0" cy="0" r="25" fill="#ECB5C9" stroke="#da7298" stroke-width="2px"/><text class="caption" text-anchor="middle" pointer-events="none" x="0" y="5" font-size="10px" fill="#2A2C34" font-family="Helvetica Neue, Helvetica, Arial, sans-serif"> P</text></g><g class="node" aria-label="graph-node14" transform="translate(95.83891249086311,-240.11470683507272)"><circle class="b-outline" cx="0" cy="0" r="25" fill="#ECB5C9" stroke="#da7298" stroke-width="2px"/><text class="caption" text-anchor="middle" pointer-events="none" x="0" y="5" font-size="10px" fill="#2A2C34" font-family="Helvetica Neue, Helvetica, Arial, sans-serif"> E_total</text></g><g class="node" aria-label="graph-node15" transform="translate(65.63458538191017,-334.3761362276005)"><circle class="b-outline" cx="0" cy="0" r="25" fill="#4C8EDA" stroke="#2870c2" stroke-width="2px"/><text class="caption" text-anchor="middle" pointer-events="none" x="0" y="5" font-size="10px" fill="#FFFFFF" font-family="Helvetica Neue, Helvetica, Arial, sans-serif"> r1</text></g><g class="node" aria-label="graph-node16" transform="translate(-23.295971571760607,-378.4776147020879)"><circle class="b-outline" cx="0" cy="0" r="25" fill="#4C8EDA" stroke="#2870c2" stroke-width="2px"/><text class="caption" text-anchor="middle" pointer-events="none" x="0" y="5" font-size="10px" fill="#FFFFFF" font-family="Helvetica Neue, Helvetica, Arial, sans-serif"> r2</text></g><g class="node" aria-label="graph-node17" transform="translate(-101.57119562753826,-318.2026898171397)"><circle class="b-outline" cx="0" cy="0" r="25" fill="#FFC454" stroke="#d7a013" stroke-width="2px"/><text class="caption" text-anchor="middle" pointer-events="none" x="0" y="5" font-size="10px" fill="#2A2C34" font-family="Helvetica Neue, Helvetica, Arial, sans-serif"> 6c128a7…</text></g><g class="node" aria-label="graph-node18" transform="translate(-173.59813041605926,-419.02052575865497)"><circle class="b-outline" cx="0" cy="0" r="25" fill="#FFC454" stroke="#d7a013" stroke-width="2px"/><text class="caption" text-anchor="middle" pointer-events="none" x="0" y="5" font-size="10px" fill="#2A2C34" font-family="Helvetica Neue, Helvetica, Arial, sans-serif"> cae48c0…</text></g><g class="node" aria-label="graph-node19" transform="translate(-151.7482975798136,-138.99857556079536)"><circle class="b-outline" cx="0" cy="0" r="25" fill="#569480" stroke="#447666" stroke-width="2px"/><text class="caption" text-anchor="middle" pointer-events="none" x="0" y="5" font-size="10px" fill="#FFFFFF" font-family="Helvetica Neue, Helvetica, Arial, sans-serif"> k1_on</text></g><g class="node" aria-label="graph-node20" transform="translate(-150.98607794504534,-40.16860037959644)"><circle class="b-outline" cx="0" cy="0" r="25" fill="#569480" stroke="#447666" stroke-width="2px"/><text class="caption" text-anchor="middle" pointer-events="none" x="0" y="5" font-size="10px" fill="#FFFFFF" font-family="Helvetica Neue, Helvetica, Arial, sans-serif"> k1_off</text></g><g class="node" aria-label="graph-node21" transform="translate(-66.36624420543119,11.38290713676851)"><circle class="b-outline" cx="0" cy="0" r="25" fill="#569480" stroke="#447666" stroke-width="2px"/><text class="caption" text-anchor="middle" pointer-events="none" x="0" y="5" font-size="10px" fill="#FFFFFF" font-family="Helvetica Neue, Helvetica, Arial, sans-serif"> k2</text></g><g class="node" aria-label="graph-node22" transform="translate(140.62837425108285,-37.946056498254976)"><circle class="b-outline" cx="0" cy="0" r="25" fill="#A5ABB6" stroke="#9AA1AC" stroke-width="2px"/><text class="caption" text-anchor="middle" pointer-events="none" x="0" y="5" font-size="10px" fill="#FFFFFF" font-family="Helvetica Neue, Helvetica, Arial, sans-serif"> 6eaacb6…</text></g><g class="node" aria-label="graph-node23" transform="translate(32.90816581622985,22.509275719392697)"><circle class="b-outline" cx="0" cy="0" r="25" fill="#A5ABB6" stroke="#9AA1AC" stroke-width="2px"/><text class="caption" text-anchor="middle" pointer-events="none" x="0" y="5" font-size="10px" fill="#FFFFFF" font-family="Helvetica Neue, Helvetica, Arial, sans-serif"> 87dfdf7d…</text></g></g></svg>