<svg xmlns="http://www.w3.org/2000/svg" width="415.9703063964844" height="399.8114013671875" viewBox="-341.3224792480469 -204.0642547607422 415.9703063964844 399.8114013671875"><title>Neo4j Graph Visualization</title><desc>Created using Neo4j (http://www.neo4j.com/)</desc><g class="layer relationships"><g class="relationship" transform="translate(-122.15593132647902 -40.84986508412642) rotate(249.88441475738114)"><path class="b-outline" fill="#A5ABB6" stroke="none" d="M 24.018736134675446,-6.953439040707552 L 24.277555179777966,-5.987513214418485 A 176.9316960322284 176.9316960322284 0 0 1 37.92870653063723,-9.072284227860393 L 37.74704240834951,-10.055644867032726 A 177.9316960322284 177.9316960322284 0 0 0 24.018736134675446,-6.953439040707552 Z M 98.15050697260205,-10.7866993161999 L 97.99269552133421,-9.79923005295737 A 176.9316960322284 176.9316960322284 0 0 1 111.71450638484829,-7.045750066579262 L 111.00840918140453,-4.1300294456539834 L 118.63553736758124,-5.88414336203136 L 112.65596932277332,-10.933377561146301 L 111.94987211932956,-8.017656940221022 A 177.9316960322284 177.9316960322284 0 0 0 98.15050697260205,-10.7866993161999"/><text text-anchor="middle" pointer-events="none" font-size="8px" fill="#000000" x="67.92357474192427" y="-9.503320967239148" transform="rotate(180 67.92357474192427 -12.503320967239148)" font-family="Helvetica Neue, Helvetica, Arial, sans-serif">IS_REACTANT</text></g><g class="relationship" transform="translate(-34.86022929388285 -149.40667973182065) rotate(190.6491471671411)"><path class="b-outline" fill="#A5ABB6" stroke="none" d="M 25 0.5 L 31.804750324109534 0.5 L 31.804750324109534 -0.5 L 25 -0.5 Z M 100.03912532410953 0.5 L 106.84387564821907 0.5 L 106.84387564821907 3.5 L 113.84387564821907 0 L 106.84387564821907 -3.5 L 106.84387564821907 -0.5 L 100.03912532410953 -0.5 Z"/><text text-anchor="middle" pointer-events="none" font-size="8px" fill="#000000" x="65.92193782410953" y="3" transform="rotate(180 65.92193782410953 0)" font-family="Helvetica Neue, Helvetica, Arial, sans-serif">HAS_REACTION</text></g><g class="relationship" transform="translate(-193.40675735355921 -20.240826898871518) rotate(383.999357316606)"><path class="b-outline" fill="#A5ABB6" stroke="none" d="M 25 0.5 L 45.468415649779715 0.5 L 45.468415649779715 -0.5 L 25 -0.5 Z M 96.36685314977971 0.5 L 116.83526879955943 0.5 L 116.83526879955943 3.5 L 123.83526879955943 0 L 116.83526879955943 -3.5 L 116.83526879955943 -0.5 L 96.36685314977971 -0.5 Z"/><text text-anchor="middle" pointer-events="none" font-size="8px" fill="#000000" x="70.91763439977971" y="3" font-family="Helvetica Neue, Helvetica, Arial, sans-serif">HAS_UNITS</text></g><g class="relationship" transform="translate(-34.86022929388285 -149.40667973182065) rotate(425.5109777955349)"><path class="b-outline" fill="#A5ABB6" stroke="none" d="M 25 0.5 L 38.06254514786812 0.5 L 38.06254514786812 -0.5 L 25 -0.5 Z M 126.89457639786812 0.5 L 139.95712154573624 0.5 L 139.95712154573624 3.5 L 146.95712154573624 0 L 139.95712154573624 -3.5 L 139.95712154573624 -0.5 L 126.89457639786812 -0.5 Z"/><text text-anchor="middle" pointer-events="none" font-size="8px" fill="#000000" x="82.47856077286812" y="3" font-family="Helvetica Neue, Helvetica, Arial, sans-serif">HAS_COMPARTMENT</text></g><g class="relationship" transform="translate(-171.3128243331071 -175.06425389773887) rotate(458.1215070978306)"><path class="b-outline" fill="#A5ABB6" stroke="none" d="M 25 0.5 L 25.088542573278644 0.5 L 25.088542573278644 -0.5 L 25 -0.5 Z M 124.30338632327864 0.5 L 124.39192889655729 0.5 L 124.39192889655729 3.5 L 131.3919288965573 0 L 124.39192889655729 -3.5 L 124.39192889655729 -0.5 L 124.30338632327864 -0.5 Z"/><text text-anchor="middle" pointer-events="none" font-size="8px" fill="#000000" x="74.69596444827864" y="3" transform="rotate(180 74.69596444827864 0)" font-family="Helvetica Neue, Helvetica, Arial, sans-serif">HAS_LOCALPARAMET…</text></g><g class="relationship" transform="translate(-34.86022929388285 -149.40667973182065) rotate(456.78736720676784)"><path class="b-outline" fill="#A5ABB6" stroke="none" d="M 25 0.5 L 46.57272023113748 0.5 L 46.57272023113748 -0.5 L 25 -0.5 Z M 137.46725148113748 0.5 L 159.03997171227496 0.5 L 159.03997171227496 3.5 L 166.03997171227496 0 L 159.03997171227496 -3.5 L 159.03997171227496 -0.5 L 137.46725148113748 -0.5 Z"/><text text-anchor="middle" pointer-events="none" font-size="8px" fill="#000000" x="92.01998585613748" y="3" transform="rotate(180 92.01998585613748 0)" font-family="Helvetica Neue, Helvetica, Arial, sans-serif">HAS_UNITDEFINITION</text></g><g class="relationship" transform="translate(-171.3128243331071 -175.06425389773887) rotate(429.88441475738114)"><path class="b-outline" fill="#A5ABB6" stroke="none" d="M 24.018736134675446,-6.953439040707552 L 24.277555179777966,-5.987513214418485 A 176.9316960322284 176.9316960322284 0 0 1 35.029852328458524,-8.511703198928814 L 34.83180417624747,-9.491895490984689 A 177.9316960322284 177.9316960322284 0 0 0 24.018736134675446,-6.953439040707552 Z M 101.07853524344138,-10.293670154720019 L 100.90426788051681,-9.308971781501441 A 176.9316960322284 176.9316960322284 0 0 1 111.71450638484829,-7.045750066579262 L 111.00840918140453,-4.1300294456539834 L 118.63553736758124,-5.88414336203136 L 112.65596932277332,-10.933377561146301 L 111.94987211932956,-8.017656940221022 A 177.9316960322284 177.9316960322284 0 0 0 101.07853524344138,-10.293670154720019"/><text text-anchor="middle" pointer-events="none" font-size="8px" fill="#000000" x="67.92357474192427" y="-9.503320967239148" font-family="Helvetica Neue, Helvetica, Arial, sans-serif">HAS_PRODUCT</text></g><g class="relationship" transform="translate(-34.86022929388285 -149.40667973182065) rotate(488.8044178158517)"><path class="b-outline" fill="#A5ABB6" stroke="none" d="M 25 0.5 L 35.362071015215776 0.5 L 35.362071015215776 -0.5 L 25 -0.5 Z M 96.94019601521578 0.5 L 107.30226703043155 0.5 L 107.30226703043155 3.5 L 114.30226703043155 0 L 107.30226703043155 -3.5 L 107.30226703043155 -0.5 L 96.94019601521578 -0.5 Z"/><text text-anchor="middle" pointer-events="none" font-size="8px" fill="#000000" x="66.15113351521578" y="3" transform="rotate(180 66.15113351521578 0)" font-family="Helvetica Neue, Helvetica, Arial, sans-serif">HAS_SPECIES</text></g><g class="relationship" transform="translate(-122.15593132647902 -40.84986508412642) rotate(376.81804417586756)"><path class="b-outline" fill="#A5ABB6" stroke="none" d="M 25 0.5 L 39.13896767585892 0.5 L 39.13896767585892 -0.5 L 25 -0.5 Z M 119.52178017585892 0.5 L 133.66074785171784 0.5 L 133.66074785171784 3.5 L 140.66074785171784 0 L 133.66074785171784 -3.5 L 133.66074785171784 -0.5 L 119.52178017585892 -0.5 Z"/><text text-anchor="middle" pointer-events="none" font-size="8px" fill="#000000" x="79.33037392585892" y="3" font-family="Helvetica Neue, Helvetica, Arial, sans-serif">IN_COMPARTMENT</text></g><g class="relationship" transform="translate(-171.3128243331071 -175.06425389773887) rotate(538.9848906269336)"><path class="b-outline" fill="#A5ABB6" stroke="none" d="M 25 0.5 L 27.70924820977217 0.5 L 27.70924820977217 -0.5 L 25 -0.5 Z M 106.32252945977217 0.5 L 109.03177766954434 0.5 L 109.03177766954434 3.5 L 116.03177766954434 0 L 109.03177766954434 -3.5 L 109.03177766954434 -0.5 L 106.32252945977217 -0.5 Z"/><text text-anchor="middle" pointer-events="none" font-size="8px" fill="#000000" x="67.01588883477217" y="3" transform="rotate(180 67.01588883477217 0)" font-family="Helvetica Neue, Helvetica, Arial, sans-serif">HAS_KENETICLAW</text></g><g class="relationship" transform="translate(-57.438294576004964 40.29440555749192) rotate(418.84460586296893)"><path class="b-outline" fill="#A5ABB6" stroke="none" d="M 25 0.5 L 38.04279858902669 0.5 L 38.04279858902669 -0.5 L 25 -0.5 Z M 102.72248608902669 0.5 L 115.76528467805338 0.5 L 115.76528467805338 3.5 L 122.76528467805338 0 L 115.76528467805338 -3.5 L 115.76528467805338 -0.5 L 102.72248608902669 -0.5 Z"/><text text-anchor="middle" pointer-events="none" font-size="8px" fill="#000000" x="70.38264233902669" y="3" font-family="Helvetica Neue, Helvetica, Arial, sans-serif">IS_COMPOSED</text></g><g class="relationship" transform="translate(-122.15593132647902 -40.84986508412642) rotate(343.1934378099006)"><path class="b-outline" fill="#A5ABB6" stroke="none" d="M 25 0.5 L 38.09864373800869 0.5 L 38.09864373800869 -0.5 L 25 -0.5 Z M 130.1923937380087 0.5 L 143.29103747601738 0.5 L 143.29103747601738 3.5 L 150.29103747601738 0 L 143.29103747601738 -3.5 L 143.29103747601738 -0.5 L 130.1923937380087 -0.5 Z"/><text text-anchor="middle" pointer-events="none" font-size="8px" fill="#000000" x="84.14551873800869" y="3" font-family="Helvetica Neue, Helvetica, Arial, sans-serif">CONVERSIONFACTOR</text></g></g><g class="layer nodes"><g class="node" aria-label="graph-node-4" transform="translate(19.009691262123216,166.74710350134566)"><circle class="b-outline" cx="0" cy="0" r="25" fill="#F16667" stroke="#eb2728" stroke-width="2px"/><text class="caption" text-anchor="middle" pointer-events="none" x="0" y="5" font-size="10px" fill="#FFFFFF" font-family="Helvetica Neue, Helvetica, Arial, sans-serif"> unit</text></g><g class="node" aria-label="graph-node-8" transform="translate(-193.40675735355921,-20.240826898871518)"><circle class="b-outline" cx="0" cy="0" r="25" fill="#DA7194" stroke="#cc3c6c" stroke-width="2px"/><text class="caption" text-anchor="middle" pointer-events="none" x="0" y="5" font-size="10px" fill="#FFFFFF" font-family="Helvetica Neue, Helvetica, Arial, sans-serif"> localPar…</text></g><g class="node" aria-label="graph-node-2" transform="translate(36.419245456234876,7.081301051504792)"><circle class="b-outline" cx="0" cy="0" r="25" fill="#F79767" stroke="#f36924" stroke-width="2px"/><text class="caption" text-anchor="middle" pointer-events="none" x="0" y="5" font-size="10px" fill="#FFFFFF" font-family="Helvetica Neue, Helvetica, Arial, sans-serif"> compart…</text></g><g class="node" aria-label="graph-node-9" transform="translate(45.64779277273768,-91.53376783295272)"><circle class="b-outline" cx="0" cy="0" r="25" fill="#569480" stroke="#447666" stroke-width="2px"/><text class="caption" text-anchor="middle" pointer-events="none" x="0" y="5" font-size="10px" fill="#FFFFFF" font-family="Helvetica Neue, Helvetica, Arial, sans-serif"> Parameter</text></g><g class="node" aria-label="graph-node-3" transform="translate(-34.86022929388285,-149.40667973182065)"><circle class="b-outline" cx="0" cy="0" r="25" fill="#57C7E3" stroke="#23b3d7" stroke-width="2px"/><text class="caption" text-anchor="middle" pointer-events="none" x="0" y="5" font-size="10px" fill="#2A2C34" font-family="Helvetica Neue, Helvetica, Arial, sans-serif"> model</text></g><g class="node" aria-label="graph-node-6" transform="translate(-171.3128243331071,-175.06425389773887)"><circle class="b-outline" cx="0" cy="0" r="25" fill="#4C8EDA" stroke="#2870c2" stroke-width="2px"/><text class="caption" text-anchor="middle" pointer-events="none" x="0" y="5" font-size="10px" fill="#FFFFFF" font-family="Helvetica Neue, Helvetica, Arial, sans-serif"> Reaction</text></g><g class="node" aria-label="graph-node-5" transform="translate(-122.15593132647902,-40.84986508412642)"><circle class="b-outline" cx="0" cy="0" r="25" fill="#ECB5C9" stroke="#da7298" stroke-width="2px"/><text class="caption" text-anchor="middle" pointer-events="none" x="0" y="5" font-size="10px" fill="#2A2C34" font-family="Helvetica Neue, Helvetica, Arial, sans-serif"> Species</text></g><g class="node" aria-label="graph-node-7" transform="translate(-312.3224681999068,-172.5657244922473)"><circle class="b-outline" cx="0" cy="0" r="25" fill="#FFC454" stroke="#d7a013" stroke-width="2px"/><text class="caption" text-anchor="middle" pointer-events="none" x="0" y="5" font-size="10px" fill="#2A2C34" font-family="Helvetica Neue, Helvetica, Arial, sans-serif"> KineticL…</text></g><g class="node" aria-label="graph-node-1" transform="translate(-57.438294576004964,40.29440555749192)"><circle class="b-outline" cx="0" cy="0" r="25" fill="#D9C8AE" stroke="#c0a378" stroke-width="2px"/><text class="caption" text-anchor="middle" pointer-events="none" x="0" y="5" font-size="10px" fill="#2A2C34" font-family="Helvetica Neue, Helvetica, Arial, sans-serif"> UnitDefi…</text></g></g></svg>