<svg xmlns="http://www.w3.org/2000/svg" width="511.0396423339844" height="864.2584228515625" viewBox="-233.21090698242188 -426.2826232910156 511.0396423339844 864.2584228515625"><title>Neo4j Graph Visualization</title><desc>Created using Neo4j (http://www.neo4j.com/)</desc><g class="layer relationships"><g class="relationship" transform="translate(64.00540521343508 19.117959976287693) rotate(351.6075731931726)"><path class="b-outline" fill="#A5ABB6" stroke="none" d="M 25 0.5 L 45.49593774017039 0.5 L 45.49593774017039 -0.5 L 25 -0.5 Z M 134.3279689901704 0.5 L 154.82390673034078 0.5 L 154.82390673034078 3.5 L 161.82390673034078 0 L 154.82390673034078 -3.5 L 154.82390673034078 -0.5 L 134.3279689901704 -0.5 Z"/><text text-anchor="middle" pointer-events="none" font-size="8px" fill="#000000" x="89.91195336517039" y="3" font-family="Helvetica Neue, Helvetica, Arial, sans-serif">HAS_COMPARTMENT</text></g><g class="relationship" transform="translate(64.00540521343508 19.117959976287693) rotate(383.0989109640728)"><path class="b-outline" fill="#A5ABB6" stroke="none" d="M 25 0.5 L 39.99650865182312 0.5 L 39.99650865182312 -0.5 L 25 -0.5 Z M 128.82853990182312 0.5 L 143.82504855364624 0.5 L 143.82504855364624 3.5 L 150.82504855364624 0 L 143.82504855364624 -3.5 L 143.82504855364624 -0.5 L 128.82853990182312 -0.5 Z"/><text text-anchor="middle" pointer-events="none" font-size="8px" fill="#000000" x="84.41252427682312" y="3" font-family="Helvetica Neue, Helvetica, Arial, sans-serif">HAS_COMPARTMENT</text></g><g class="relationship" transform="translate(-30.733691171675307 234.9364396977095) rotate(460.00096444702433)"><path class="b-outline" fill="#A5ABB6" stroke="none" d="M 25 0.5 L 38.81302511970159 0.5 L 38.81302511970159 -0.5 L 25 -0.5 Z M 103.49271261970159 0.5 L 117.30573773940318 0.5 L 117.30573773940318 3.5 L 124.30573773940318 0 L 117.30573773940318 -3.5 L 117.30573773940318 -0.5 L 103.49271261970159 -0.5 Z"/><text text-anchor="middle" pointer-events="none" font-size="8px" fill="#000000" x="71.15286886970159" y="3" transform="rotate(180 71.15286886970159 0)" font-family="Helvetica Neue, Helvetica, Arial, sans-serif">IS_COMPOSED</text></g><g class="relationship" transform="translate(61.93209705225942 270.6321050757015) rotate(427.08660493914283)"><path class="b-outline" fill="#A5ABB6" stroke="none" d="M 25 0.5 L 39.257563870777716 0.5 L 39.257563870777716 -0.5 L 25 -0.5 Z M 103.93725137077772 0.5 L 118.19481524155543 0.5 L 118.19481524155543 3.5 L 125.19481524155543 0 L 118.19481524155543 -3.5 L 118.19481524155543 -0.5 L 103.93725137077772 -0.5 Z"/><text text-anchor="middle" pointer-events="none" font-size="8px" fill="#000000" x="71.59740762077772" y="3" font-family="Helvetica Neue, Helvetica, Arial, sans-serif">IS_COMPOSED</text></g><g class="relationship" transform="translate(61.93209705225942 270.6321050757015) rotate(381.1120803425139)"><path class="b-outline" fill="#A5ABB6" stroke="none" d="M 25 0.5 L 39.83349197173777 0.5 L 39.83349197173777 -0.5 L 25 -0.5 Z M 104.51317947173777 0.5 L 119.34667144347554 0.5 L 119.34667144347554 3.5 L 126.34667144347554 0 L 119.34667144347554 -3.5 L 119.34667144347554 -0.5 L 104.51317947173777 -0.5 Z"/><text text-anchor="middle" pointer-events="none" font-size="8px" fill="#000000" x="72.17333572173777" y="3" font-family="Helvetica Neue, Helvetica, Arial, sans-serif">IS_COMPOSED</text></g><g class="relationship" transform="translate(61.93209705225942 270.6321050757015) rotate(496.8068575415983)"><path class="b-outline" fill="#A5ABB6" stroke="none" d="M 25 0.5 L 45.495347612346094 0.5 L 45.495347612346094 -0.5 L 25 -0.5 Z M 110.1750351123461 0.5 L 130.6703827246922 0.5 L 130.6703827246922 3.5 L 137.6703827246922 0 L 130.6703827246922 -3.5 L 130.6703827246922 -0.5 L 110.1750351123461 -0.5 Z"/><text text-anchor="middle" pointer-events="none" font-size="8px" fill="#000000" x="77.8351913623461" y="3" transform="rotate(180 77.8351913623461 0)" font-family="Helvetica Neue, Helvetica, Arial, sans-serif">IS_COMPOSED</text></g><g class="relationship" transform="translate(64.00540521343508 19.117959976287693) rotate(473.70031324706696)"><path class="b-outline" fill="#A5ABB6" stroke="none" d="M 25 0.5 L 68.90127337011545 0.5 L 68.90127337011545 -0.5 L 25 -0.5 Z M 159.79580462011546 0.5 L 203.6970779902309 0.5 L 203.6970779902309 3.5 L 210.6970779902309 0 L 203.6970779902309 -3.5 L 203.6970779902309 -0.5 L 159.79580462011546 -0.5 Z"/><text text-anchor="middle" pointer-events="none" font-size="8px" fill="#000000" x="114.34853899511545" y="3" transform="rotate(180 114.34853899511545 0)" font-family="Helvetica Neue, Helvetica, Arial, sans-serif">HAS_UNITDEFINITION</text></g><g class="relationship" transform="translate(64.00540521343508 19.117959976287693) rotate(450.4722959681275)"><path class="b-outline" fill="#A5ABB6" stroke="none" d="M 25 0.5 L 76.814079580731 0.5 L 76.814079580731 -0.5 L 25 -0.5 Z M 167.708610830731 0.5 L 219.522690411462 0.5 L 219.522690411462 3.5 L 226.522690411462 0 L 219.522690411462 -3.5 L 219.522690411462 -0.5 L 167.708610830731 -0.5 Z"/><text text-anchor="middle" pointer-events="none" font-size="8px" fill="#000000" x="122.261345205731" y="3" transform="rotate(180 122.261345205731 0)" font-family="Helvetica Neue, Helvetica, Arial, sans-serif">HAS_UNITDEFINITION</text></g><g class="relationship" transform="translate(64.00540521343508 19.117959976287693) rotate(325.03942554986315)"><path class="b-outline" fill="#A5ABB6" stroke="none" d="M 25 0.5 L 75.48739465493898 0.5 L 75.48739465493898 -0.5 L 25 -0.5 Z M 137.06551965493898 0.5 L 187.55291430987796 0.5 L 187.55291430987796 3.5 L 194.55291430987796 0 L 187.55291430987796 -3.5 L 187.55291430987796 -0.5 L 137.06551965493898 -0.5 Z"/><text text-anchor="middle" pointer-events="none" font-size="8px" fill="#000000" x="106.27645715493898" y="3" font-family="Helvetica Neue, Helvetica, Arial, sans-serif">HAS_SPECIES</text></g><g class="relationship" transform="translate(64.00540521343508 19.117959976287693) rotate(324.300079310552)"><path class="b-outline" fill="#A5ABB6" stroke="none" d="M 25 0.5 L 25.346744666594525 0.5 L 25.346744666594525 -0.5 L 25 -0.5 Z M 84.25299466659453 0.5 L 84.59973933318905 0.5 L 84.59973933318905 3.5 L 91.59973933318905 0 L 84.59973933318905 -3.5 L 84.59973933318905 -0.5 L 84.25299466659453 -0.5 Z"/><text text-anchor="middle" pointer-events="none" font-size="8px" fill="#000000" x="54.799869666594525" y="3" font-family="Helvetica Neue, Helvetica, Arial, sans-serif">HAS_SPECI…</text></g><g class="relationship" transform="translate(64.00540521343508 19.117959976287693) rotate(298.2460904133756)"><path class="b-outline" fill="#A5ABB6" stroke="none" d="M 25 0.5 L 60.07892759421628 0.5 L 60.07892759421628 -0.5 L 25 -0.5 Z M 121.65705259421628 0.5 L 156.73598018843256 0.5 L 156.73598018843256 3.5 L 163.73598018843256 0 L 156.73598018843256 -3.5 L 156.73598018843256 -0.5 L 121.65705259421628 -0.5 Z"/><text text-anchor="middle" pointer-events="none" font-size="8px" fill="#000000" x="90.86799009421628" y="3" font-family="Helvetica Neue, Helvetica, Arial, sans-serif">HAS_SPECIES</text></g><g class="relationship" transform="translate(64.00540521343508 19.117959976287693) rotate(272.91243989901693)"><path class="b-outline" fill="#A5ABB6" stroke="none" d="M 25 0.5 L 25.090851081048648 0.5 L 25.090851081048648 -0.5 L 25 -0.5 Z M 81.77444483104864 0.5 L 81.8652959120973 0.5 L 81.8652959120973 3.5 L 88.8652959120973 0 L 81.8652959120973 -3.5 L 81.8652959120973 -0.5 L 81.77444483104864 -0.5 Z"/><text text-anchor="middle" pointer-events="none" font-size="8px" fill="#000000" x="53.43264795604865" y="3" font-family="Helvetica Neue, Helvetica, Arial, sans-serif">HAS_SPEC…</text></g><g class="relationship" transform="translate(243.93923462056773 -106.68863451241748) rotate(455.3393942269155)"><path class="b-outline" fill="#A5ABB6" stroke="none" d="M 25 0.5 L 54.126135224619134 0.5 L 54.126135224619134 -0.5 L 25 -0.5 Z M 134.50894772461913 0.5 L 163.63508294923827 0.5 L 163.63508294923827 3.5 L 170.63508294923827 0 L 163.63508294923827 -3.5 L 163.63508294923827 -0.5 L 134.50894772461913 -0.5 Z"/><text text-anchor="middle" pointer-events="none" font-size="8px" fill="#000000" x="94.31754147461913" y="3" transform="rotate(180 94.31754147461913 0)" font-family="Helvetica Neue, Helvetica, Arial, sans-serif">IN_COMPARTMENT</text></g><g class="relationship" transform="translate(158.69422694977544 -48.922662086941486) rotate(423.92879730706943)"><path class="b-outline" fill="#A5ABB6" stroke="none" d="M 25 0.5 L 32.57937435620738 0.5 L 32.57937435620738 -0.5 L 25 -0.5 Z M 112.96218685620738 0.5 L 120.54156121241476 0.5 L 120.54156121241476 3.5 L 127.54156121241476 0 L 120.54156121241476 -3.5 L 120.54156121241476 -0.5 L 112.96218685620738 -0.5 Z"/><text text-anchor="middle" pointer-events="none" font-size="8px" fill="#000000" x="72.77078060620738" y="3" font-family="Helvetica Neue, Helvetica, Arial, sans-serif">IN_COMPARTMENT</text></g><g class="relationship" transform="translate(153.3265118447 -147.1439121647856) rotate(415.50729429088483)"><path class="b-outline" fill="#A5ABB6" stroke="none" d="M 25 0.5 L 40.62962473060293 0.5 L 40.62962473060293 -0.5 L 25 -0.5 Z M 121.01243723060293 0.5 L 136.64206196120585 0.5 L 136.64206196120585 3.5 L 143.64206196120585 0 L 136.64206196120585 -3.5 L 136.64206196120585 -0.5 L 121.01243723060293 -0.5 Z"/><text text-anchor="middle" pointer-events="none" font-size="8px" fill="#000000" x="80.82103098060293" y="3" font-family="Helvetica Neue, Helvetica, Arial, sans-serif">IN_COMPARTMENT</text></g><g class="relationship" transform="translate(69.79087562398308 -94.60026171785486) rotate(385.77420140022616)"><path class="b-outline" fill="#A5ABB6" stroke="none" d="M 25 0.5 L 55.71722470503708 0.5 L 55.71722470503708 -0.5 L 25 -0.5 Z M 136.1000372050371 0.5 L 166.81726191007417 0.5 L 166.81726191007417 3.5 L 173.81726191007417 0 L 166.81726191007417 -3.5 L 166.81726191007417 -0.5 L 136.1000372050371 -0.5 Z"/><text text-anchor="middle" pointer-events="none" font-size="8px" fill="#000000" x="95.90863095503708" y="3" font-family="Helvetica Neue, Helvetica, Arial, sans-serif">IN_COMPARTMENT</text></g><g class="relationship" transform="translate(64.00540521343508 19.117959976287693) rotate(286.1111807907425)"><path class="b-outline" fill="#A5ABB6" stroke="none" d="M 25 0.5 L 100.12080767089185 0.5 L 100.12080767089185 -0.5 L 25 -0.5 Z M 168.35518267089185 0.5 L 243.4759903417837 0.5 L 243.4759903417837 3.5 L 250.4759903417837 0 L 243.4759903417837 -3.5 L 243.4759903417837 -0.5 L 168.35518267089185 -0.5 Z"/><text text-anchor="middle" pointer-events="none" font-size="8px" fill="#000000" x="134.23799517089185" y="3" font-family="Helvetica Neue, Helvetica, Arial, sans-serif">HAS_REACTION</text></g><g class="relationship" transform="translate(64.00540521343508 19.117959976287693) rotate(267.8684007204033)"><path class="b-outline" fill="#A5ABB6" stroke="none" d="M 25 0.5 L 68.67375384416984 0.5 L 68.67375384416984 -0.5 L 25 -0.5 Z M 136.90812884416982 0.5 L 180.58188268833968 0.5 L 180.58188268833968 3.5 L 187.58188268833968 0 L 180.58188268833968 -3.5 L 180.58188268833968 -0.5 L 136.90812884416982 -0.5 Z"/><text text-anchor="middle" pointer-events="none" font-size="8px" fill="#000000" x="102.79094134416984" y="3" transform="rotate(180 102.79094134416984 0)" font-family="Helvetica Neue, Helvetica, Arial, sans-serif">HAS_REACTION</text></g><g class="relationship" transform="translate(64.00540521343508 19.117959976287693) rotate(213.40109424943574)"><path class="b-outline" fill="#A5ABB6" stroke="none" d="M 25 0.5 L 35.854361243733464 0.5 L 35.854361243733464 -0.5 L 25 -0.5 Z M 104.08873624373346 0.5 L 114.94309748746693 0.5 L 114.94309748746693 3.5 L 121.94309748746693 0 L 114.94309748746693 -3.5 L 114.94309748746693 -0.5 L 104.08873624373346 -0.5 Z"/><text text-anchor="middle" pointer-events="none" font-size="8px" fill="#000000" x="69.97154874373346" y="3" transform="rotate(180 69.97154874373346 0)" font-family="Helvetica Neue, Helvetica, Arial, sans-serif">HAS_REACTION</text></g><g class="relationship" transform="translate(64.00540521343508 19.117959976287693) rotate(240.64407575195912)"><path class="b-outline" fill="#A5ABB6" stroke="none" d="M 25 0.5 L 64.44086812406698 0.5 L 64.44086812406698 -0.5 L 25 -0.5 Z M 132.67524312406698 0.5 L 172.11611124813396 0.5 L 172.11611124813396 3.5 L 179.11611124813396 0 L 172.11611124813396 -3.5 L 172.11611124813396 -0.5 L 132.67524312406698 -0.5 Z"/><text text-anchor="middle" pointer-events="none" font-size="8px" fill="#000000" x="98.55805562406698" y="3" transform="rotate(180 98.55805562406698 0)" font-family="Helvetica Neue, Helvetica, Arial, sans-serif">HAS_REACTION</text></g><g class="relationship" transform="translate(140.45058095370226 -245.5387164194273) rotate(262.3848429983421)"><path class="b-outline" fill="#A5ABB6" stroke="none" d="M 25 0.5 L 33.740417738601394 0.5 L 33.740417738601394 -0.5 L 25 -0.5 Z M 112.3536989886014 0.5 L 121.09411672720279 0.5 L 121.09411672720279 3.5 L 128.0941167272028 0 L 121.09411672720279 -3.5 L 121.09411672720279 -0.5 L 112.3536989886014 -0.5 Z"/><text text-anchor="middle" pointer-events="none" font-size="8px" fill="#000000" x="73.0470583636014" y="3" transform="rotate(180 73.0470583636014 0)" font-family="Helvetica Neue, Helvetica, Arial, sans-serif">HAS_KENETICLAW</text></g><g class="relationship" transform="translate(56.09845521189592 -193.3168229312959) rotate(521.4647005601153)"><path class="b-outline" fill="#A5ABB6" stroke="none" d="M 25 0.5 L 55.40932492419334 0.5 L 55.40932492419334 -0.5 L 25 -0.5 Z M 134.02260617419336 0.5 L 164.43193109838668 0.5 L 164.43193109838668 3.5 L 171.43193109838668 0 L 164.43193109838668 -3.5 L 164.43193109838668 -0.5 L 134.02260617419336 -0.5 Z"/><text text-anchor="middle" pointer-events="none" font-size="8px" fill="#000000" x="94.71596554919334" y="3" transform="rotate(180 94.71596554919334 0)" font-family="Helvetica Neue, Helvetica, Arial, sans-serif">HAS_KENETICLAW</text></g><g class="relationship" transform="translate(-58.66818087753229 -61.773727945236274) rotate(252.9726548604545)"><path class="b-outline" fill="#A5ABB6" stroke="none" d="M 25 0.5 L 43.53913591676341 0.5 L 43.53913591676341 -0.5 L 25 -0.5 Z M 122.15241716676341 0.5 L 140.69155308352683 0.5 L 140.69155308352683 3.5 L 147.69155308352683 0 L 140.69155308352683 -3.5 L 140.69155308352683 -0.5 L 122.15241716676341 -0.5 Z"/><text text-anchor="middle" pointer-events="none" font-size="8px" fill="#000000" x="82.84577654176341" y="3" transform="rotate(180 82.84577654176341 0)" font-family="Helvetica Neue, Helvetica, Arial, sans-serif">HAS_KENETICLAW</text></g><g class="relationship" transform="translate(-36.05913252994776 -158.78784419340124) rotate(193.26946659725786)"><path class="b-outline" fill="#A5ABB6" stroke="none" d="M 25 0.5 L 43.57553966649722 0.5 L 43.57553966649722 -0.5 L 25 -0.5 Z M 122.18882091649722 0.5 L 140.76436058299444 0.5 L 140.76436058299444 3.5 L 147.76436058299444 0 L 140.76436058299444 -3.5 L 140.76436058299444 -0.5 L 122.18882091649722 -0.5 Z"/><text text-anchor="middle" pointer-events="none" font-size="8px" fill="#000000" x="82.88218029149722" y="3" transform="rotate(180 82.88218029149722 0)" font-family="Helvetica Neue, Helvetica, Arial, sans-serif">HAS_KENETICLAW</text></g><g class="relationship" transform="translate(243.93923462056773 -106.68863451241748) rotate(233.30185896486785)"><path class="b-outline" fill="#A5ABB6" stroke="none" d="M 25 0.5 L 52.82139291169932 0.5 L 52.82139291169932 -0.5 L 25 -0.5 Z M 113.35264291169932 0.5 L 141.17403582339864 0.5 L 141.17403582339864 3.5 L 148.17403582339864 0 L 141.17403582339864 -3.5 L 141.17403582339864 -0.5 L 113.35264291169932 -0.5 Z"/><text text-anchor="middle" pointer-events="none" font-size="8px" fill="#000000" x="83.08701791169932" y="3" transform="rotate(180 83.08701791169932 0)" font-family="Helvetica Neue, Helvetica, Arial, sans-serif">IS_REACTANT</text></g><g class="relationship" transform="translate(158.69422694977544 -48.922662086941486) rotate(264.69880787584185)"><path class="b-outline" fill="#A5ABB6" stroke="none" d="M 24.018736134675446,6.953439040707552 L 24.277555179777966,5.987513214418485 A 283.75978165434617 283.75978165434617 0 0 0 65.06284933080585,13.770918371940638 L 64.94776205034327,14.76427375541408 A 284.75978165434617 284.75978165434617 0 0 1 24.018736134675446,6.953439040707552 Z M 125.46860004442338,15.301177491911801 L 125.37115436941562,14.30593664647671 A 283.75978165434617 283.75978165434617 0 0 0 166.28811761921938,7.24734378060025 L 165.56319325206553,4.336246966355387 L 173.20149758031638,6.041036392948746 L 167.2546834420912,11.128806199593402 L 166.52975907493735,8.217709385348538 A 284.75978165434617 284.75978165434617 0 0 1 125.46860004442338,15.301177491911801"/><text text-anchor="middle" pointer-events="none" font-size="8px" fill="#000000" x="95.1983117852375" y="19.145208131878235" transform="rotate(180 95.1983117852375 16.145208131878235)" font-family="Helvetica Neue, Helvetica, Arial, sans-serif">IS_REACTANT</text></g><g class="relationship" transform="translate(158.69422694977544 -48.922662086941486) rotate(234.6052250883024)"><path class="b-outline" fill="#A5ABB6" stroke="none" d="M 25 0.5 L 54.800121855706536 0.5 L 54.800121855706536 -0.5 L 25 -0.5 Z M 115.33137185570654 0.5 L 145.13149371141307 0.5 L 145.13149371141307 3.5 L 152.13149371141307 0 L 145.13149371141307 -3.5 L 145.13149371141307 -0.5 L 115.33137185570654 -0.5 Z"/><text text-anchor="middle" pointer-events="none" font-size="8px" fill="#000000" x="85.06574685570654" y="3" transform="rotate(180 85.06574685570654 0)" font-family="Helvetica Neue, Helvetica, Arial, sans-serif">IS_REACTANT</text></g><g class="relationship" transform="translate(153.3265118447 -147.1439121647856) rotate(518.0653722007146)"><path class="b-outline" fill="#A5ABB6" stroke="none" d="M 25 0.5 L 80.50359449509574 0.5 L 80.50359449509574 -0.5 L 25 -0.5 Z M 141.03484449509574 0.5 L 196.53843899019148 0.5 L 196.53843899019148 3.5 L 203.53843899019148 0 L 196.53843899019148 -3.5 L 196.53843899019148 -0.5 L 141.03484449509574 -0.5 Z"/><text text-anchor="middle" pointer-events="none" font-size="8px" fill="#000000" x="110.76921949509574" y="3" transform="rotate(180 110.76921949509574 0)" font-family="Helvetica Neue, Helvetica, Arial, sans-serif">IS_REACTANT</text></g><g class="relationship" transform="translate(69.79087562398308 -94.60026171785486) rotate(525.6653566332299)"><path class="b-outline" fill="#A5ABB6" stroke="none" d="M 24.018736134675446,-6.953439040707552 L 24.277555179777966,-5.987513214418485 A 156.52352184130297 156.52352184130297 0 0 1 32.811380984365954,-8.019645028202234 L 32.607082983156374,-8.998553770987655 A 157.52352184130297 157.52352184130297 0 0 0 24.018736134675446,-6.953439040707552 Z M 92.95068432559557,-9.78310856770409 L 92.77190556063665,-8.79921926844338 A 156.52352184130297 156.52352184130297 0 0 1 101.35567919474157,-6.989641204338655 L 100.65482244569036,-4.07265649109291 L 108.27878631715684,-5.840472908760118 L 102.29015486014318,-10.878954155332984 L 101.58929811109196,-7.961969442087238 A 157.52352184130297 157.52352184130297 0 0 0 92.95068432559557,-9.78310856770409"/><text text-anchor="middle" pointer-events="none" font-size="8px" fill="#000000" x="62.747461445543294" y="-8.80765310585565" transform="rotate(180 62.747461445543294 -11.80765310585565)" font-family="Helvetica Neue, Helvetica, Arial, sans-serif">IS_REACTANT</text></g><g class="relationship" transform="translate(69.79087562398308 -94.60026171785486) rotate(211.23267702895487)"><path class="b-outline" fill="#A5ABB6" stroke="none" d="M 25 0.5 L 28.129992716931895 0.5 L 28.129992716931895 -0.5 L 25 -0.5 Z M 88.6612427169319 0.5 L 91.79123543386379 0.5 L 91.79123543386379 3.5 L 98.79123543386379 0 L 91.79123543386379 -3.5 L 91.79123543386379 -0.5 L 88.6612427169319 -0.5 Z"/><text text-anchor="middle" pointer-events="none" font-size="8px" fill="#000000" x="58.395617716931895" y="3" transform="rotate(180 58.395617716931895 0)" font-family="Helvetica Neue, Helvetica, Arial, sans-serif">IS_REACTANT</text></g><g class="relationship" transform="translate(140.45058095370226 -245.5387164194273) rotate(444.69880787584185)"><path class="b-outline" fill="#A5ABB6" stroke="none" d="M 24.018736134675446,6.953439040707552 L 24.277555179777966,5.987513214418485 A 283.75978165434617 283.75978165434617 0 0 0 62.12858439208978,13.415466201869265 L 62.00315644628835,14.40756893365267 A 284.75978165434617 284.75978165434617 0 0 1 24.018736134675446,6.953439040707552 Z M 128.41907062974232,14.996770168630519 L 128.3112636931541,14.002598320093512 A 283.75978165434617 283.75978165434617 0 0 0 166.28811761921938,7.24734378060025 L 165.56319325206553,4.336246966355387 L 173.20149758031638,6.041036392948746 L 167.2546834420912,11.128806199593402 L 166.52975907493735,8.217709385348538 A 284.75978165434617 284.75978165434617 0 0 1 128.41907062974232,14.996770168630519"/><text text-anchor="middle" pointer-events="none" font-size="8px" fill="#000000" x="95.1983117852375" y="19.145208131878235" font-family="Helvetica Neue, Helvetica, Arial, sans-serif">HAS_PRODUCT</text></g><g class="relationship" transform="translate(56.09845521189592 -193.3168229312959) rotate(385.40270972046403)"><path class="b-outline" fill="#A5ABB6" stroke="none" d="M 25 0.5 L 27.31150001127024 0.5 L 27.31150001127024 -0.5 L 25 -0.5 Z M 73.32321876127024 0.5 L 75.63471877254048 0.5 L 75.63471877254048 3.5 L 82.63471877254048 0 L 75.63471877254048 -3.5 L 75.63471877254048 -0.5 L 73.32321876127024 -0.5 Z"/><text text-anchor="middle" pointer-events="none" font-size="8px" fill="#000000" x="50.31735938627024" y="3" font-family="Helvetica Neue, Helvetica, Arial, sans-serif">HAS_PR…</text></g><g class="relationship" transform="translate(-58.66818087753229 -61.773727945236274) rotate(345.66535663322986)"><path class="b-outline" fill="#A5ABB6" stroke="none" d="M 24.018736134675446,-6.953439040707552 L 24.277555179777966,-5.987513214418485 A 156.52352184130297 156.52352184130297 0 0 1 29.92797906179908,-7.389453280174109 L 29.705259535896936,-8.36433584375905 A 157.52352184130297 157.52352184130297 0 0 0 24.018736134675446,-6.953439040707552 Z M 95.86801563055283,-9.224548136417411 L 95.6707168930155,-8.244204723032993 A 156.52352184130297 156.52352184130297 0 0 1 101.35567919474157,-6.989641204338655 L 100.65482244569036,-4.07265649109291 L 108.27878631715684,-5.840472908760118 L 102.29015486014318,-10.878954155332984 L 101.58929811109196,-7.961969442087238 A 157.52352184130297 157.52352184130297 0 0 0 95.86801563055283,-9.224548136417411"/><text text-anchor="middle" pointer-events="none" font-size="8px" fill="#000000" x="62.747461445543294" y="-8.80765310585565" font-family="Helvetica Neue, Helvetica, Arial, sans-serif">HAS_PRODUCT</text></g><g class="relationship" transform="translate(64.00540521343508 19.117959976287693) rotate(461.38888753112485)"><path class="b-outline" fill="#A5ABB6" stroke="none" d="M 25 0.5 L 25.738921697835053 0.5 L 25.738921697835053 -0.5 L 25 -0.5 Z M 98.71939044783505 0.5 L 99.4583121456701 0.5 L 99.4583121456701 3.5 L 106.4583121456701 0 L 99.4583121456701 -3.5 L 99.4583121456701 -0.5 L 98.71939044783505 -0.5 Z"/><text text-anchor="middle" pointer-events="none" font-size="8px" fill="#000000" x="62.22915607283505" y="3" transform="rotate(180 62.22915607283505 0)" font-family="Helvetica Neue, Helvetica, Arial, sans-serif">HAS_PARAMET…</text></g><g class="relationship" transform="translate(64.00540521343508 19.117959976287693) rotate(495.4680521476987)"><path class="b-outline" fill="#A5ABB6" stroke="none" d="M 25 0.5 L 45.44265221982667 0.5 L 45.44265221982667 -0.5 L 25 -0.5 Z M 121.53640221982667 0.5 L 141.97905443965334 0.5 L 141.97905443965334 3.5 L 148.97905443965334 0 L 141.97905443965334 -3.5 L 141.97905443965334 -0.5 L 121.53640221982667 -0.5 Z"/><text text-anchor="middle" pointer-events="none" font-size="8px" fill="#000000" x="83.48952721982667" y="3" transform="rotate(180 83.48952721982667 0)" font-family="Helvetica Neue, Helvetica, Arial, sans-serif">HAS_PARAMETER</text></g><g class="relationship" transform="translate(64.00540521343508 19.117959976287693) rotate(425.40775068535237)"><path class="b-outline" fill="#A5ABB6" stroke="none" d="M 25 0.5 L 42.529333031414396 0.5 L 42.529333031414396 -0.5 L 25 -0.5 Z M 118.6230830314144 0.5 L 136.1524160628288 0.5 L 136.1524160628288 3.5 L 143.1524160628288 0 L 136.1524160628288 -3.5 L 136.1524160628288 -0.5 L 118.6230830314144 -0.5 Z"/><text text-anchor="middle" pointer-events="none" font-size="8px" fill="#000000" x="80.5762080314144" y="3" font-family="Helvetica Neue, Helvetica, Arial, sans-serif">HAS_PARAMETER</text></g><g class="relationship" transform="translate(64.00540521343508 19.117959976287693) rotate(527.4930126348074)"><path class="b-outline" fill="#A5ABB6" stroke="none" d="M 25 0.5 L 50.74736242052097 0.5 L 50.74736242052097 -0.5 L 25 -0.5 Z M 126.84111242052097 0.5 L 152.58847484104194 0.5 L 152.58847484104194 3.5 L 159.58847484104194 0 L 152.58847484104194 -3.5 L 152.58847484104194 -0.5 L 126.84111242052097 -0.5 Z"/><text text-anchor="middle" pointer-events="none" font-size="8px" fill="#000000" x="88.79423742052097" y="3" transform="rotate(180 88.79423742052097 0)" font-family="Helvetica Neue, Helvetica, Arial, sans-serif">HAS_PARAMETER</text></g><g class="relationship" transform="translate(38.046698572378304 147.98779113048758) rotate(438.9794025798509)"><path class="b-outline" fill="#A5ABB6" stroke="none" d="M 25 0.5 L 36.19302471294664 0.5 L 36.19302471294664 -0.5 L 25 -0.5 Z M 81.75552471294664 0.5 L 92.94854942589328 0.5 L 92.94854942589328 3.5 L 99.94854942589328 0 L 92.94854942589328 -3.5 L 92.94854942589328 -0.5 L 81.75552471294664 -0.5 Z"/><text text-anchor="middle" pointer-events="none" font-size="8px" fill="#000000" x="58.97427471294664" y="3" font-family="Helvetica Neue, Helvetica, Arial, sans-serif">HAS_UNIT</text></g><g class="relationship" transform="translate(-60.01721909293163 141.13066441266054) rotate(406.7203162536519)"><path class="b-outline" fill="#A5ABB6" stroke="none" d="M 25 0.5 L 62.66010545695667 0.5 L 62.66010545695667 -0.5 L 25 -0.5 Z M 108.22260545695667 0.5 L 145.88271091391334 0.5 L 145.88271091391334 3.5 L 152.88271091391334 0 L 145.88271091391334 -3.5 L 145.88271091391334 -0.5 L 108.22260545695667 -0.5 Z"/><text text-anchor="middle" pointer-events="none" font-size="8px" fill="#000000" x="85.44135545695667" y="3" font-family="Helvetica Neue, Helvetica, Arial, sans-serif">HAS_UNIT</text></g><g class="relationship" transform="translate(133.98334332706156 172.01767614715618) rotate(519.0940973579211)"><path class="b-outline" fill="#A5ABB6" stroke="none" d="M 25 0.5 L 61.8812026949944 0.5 L 61.8812026949944 -0.5 L 25 -0.5 Z M 107.4437026949944 0.5 L 144.3249053899888 0.5 L 144.3249053899888 3.5 L 151.3249053899888 0 L 144.3249053899888 -3.5 L 144.3249053899888 -0.5 L 107.4437026949944 -0.5 Z"/><text text-anchor="middle" pointer-events="none" font-size="8px" fill="#000000" x="84.6624526949944" y="3" transform="rotate(180 84.6624526949944 0)" font-family="Helvetica Neue, Helvetica, Arial, sans-serif">HAS_UNIT</text></g><g class="relationship" transform="translate(-116.20271211522623 59.092195341099966) rotate(424.0779502296262)"><path class="b-outline" fill="#A5ABB6" stroke="none" d="M 25 0.5 L 71.47629678590823 0.5 L 71.47629678590823 -0.5 L 25 -0.5 Z M 117.03879678590823 0.5 L 163.51509357181646 0.5 L 163.51509357181646 3.5 L 170.51509357181646 0 L 163.51509357181646 -3.5 L 163.51509357181646 -0.5 L 117.03879678590823 -0.5 Z"/><text text-anchor="middle" pointer-events="none" font-size="8px" fill="#000000" x="94.25754678590823" y="3" font-family="Helvetica Neue, Helvetica, Arial, sans-serif">HAS_UNIT</text></g></g><g class="layer nodes"><g class="node" aria-label="graph-node0" transform="translate(-30.733691171675307,234.9364396977095)"><circle class="b-outline" cx="0" cy="0" r="25" fill="#D9C8AE" stroke="#c0a378" stroke-width="2px"/><text class="caption" text-anchor="middle" pointer-events="none" x="0" y="5" font-size="10px" fill="#2A2C34" font-family="Helvetica Neue, Helvetica, Arial, sans-serif"> per_sec…</text></g><g class="node" aria-label="graph-node1" transform="translate(61.93209705225942,270.6321050757015)"><circle class="b-outline" cx="0" cy="0" r="25" fill="#D9C8AE" stroke="#c0a378" stroke-width="2px"/><text class="caption" text-anchor="middle" pointer-events="none" x="0" y="5" font-size="10px" fill="#2A2C34" font-family="Helvetica Neue, Helvetica, Arial, sans-serif"> litre_per…</text></g><g class="node" aria-label="graph-node2" transform="translate(248.82873301611156,-8.149412943219327)"><circle class="b-outline" cx="0" cy="0" r="25" fill="#F79767" stroke="#f36924" stroke-width="2px"/><text class="caption" text-anchor="middle" pointer-events="none" x="0" y="5" font-size="10px" fill="#FFFFFF" font-family="Helvetica Neue, Helvetica, Arial, sans-serif"> cytoplasm</text></g><g class="node" aria-label="graph-node3" transform="translate(225.73437578365576,88.09757853995295)"><circle class="b-outline" cx="0" cy="0" r="25" fill="#F79767" stroke="#f36924" stroke-width="2px"/><text class="caption" text-anchor="middle" pointer-events="none" x="0" y="5" font-size="10px" fill="#FFFFFF" font-family="Helvetica Neue, Helvetica, Arial, sans-serif"> nucleus</text></g><g class="node" aria-label="graph-node4" transform="translate(64.00540521343508,19.117959976287693)"><circle class="b-outline" cx="0" cy="0" r="25" fill="#57C7E3" stroke="#23b3d7" stroke-width="2px"/><text class="caption" text-anchor="middle" pointer-events="none" x="0" y="5" font-size="10px" fill="#2A2C34" font-family="Helvetica Neue, Helvetica, Arial, sans-serif"> LotkaVol…</text></g><g class="node" aria-label="graph-node5" transform="translate(-56.66283549009883,381.973451354033)"><circle class="b-outline" cx="0" cy="0" r="25" fill="#F16667" stroke="#eb2728" stroke-width="2px"/><text class="caption" text-anchor="middle" pointer-events="none" x="0" y="5" font-size="10px" fill="#FFFFFF" font-family="Helvetica Neue, Helvetica, Arial, sans-serif"> f5f0cb65…</text></g><g class="node" aria-label="graph-node6" transform="translate(120.40884151030691,408.9757094925056)"><circle class="b-outline" cx="0" cy="0" r="25" fill="#F16667" stroke="#eb2728" stroke-width="2px"/><text class="caption" text-anchor="middle" pointer-events="none" x="0" y="5" font-size="10px" fill="#FFFFFF" font-family="Helvetica Neue, Helvetica, Arial, sans-serif"> 56985b5…</text></g><g class="node" aria-label="graph-node7" transform="translate(203.12001845197176,325.1461932350753)"><circle class="b-outline" cx="0" cy="0" r="25" fill="#F16667" stroke="#eb2728" stroke-width="2px"/><text class="caption" text-anchor="middle" pointer-events="none" x="0" y="5" font-size="10px" fill="#FFFFFF" font-family="Helvetica Neue, Helvetica, Arial, sans-serif"> 372a959…</text></g><g class="node" aria-label="graph-node8" transform="translate(243.93923462056773,-106.68863451241748)"><circle class="b-outline" cx="0" cy="0" r="25" fill="#ECB5C9" stroke="#da7298" stroke-width="2px"/><text class="caption" text-anchor="middle" pointer-events="none" x="0" y="5" font-size="10px" fill="#2A2C34" font-family="Helvetica Neue, Helvetica, Arial, sans-serif"> X</text></g><g class="node" aria-label="graph-node9" transform="translate(158.69422694977544,-48.922662086941486)"><circle class="b-outline" cx="0" cy="0" r="25" fill="#ECB5C9" stroke="#da7298" stroke-width="2px"/><text class="caption" text-anchor="middle" pointer-events="none" x="0" y="5" font-size="10px" fill="#2A2C34" font-family="Helvetica Neue, Helvetica, Arial, sans-serif"> Y1n</text></g><g class="node" aria-label="graph-node10" transform="translate(153.3265118447,-147.1439121647856)"><circle class="b-outline" cx="0" cy="0" r="25" fill="#ECB5C9" stroke="#da7298" stroke-width="2px"/><text class="caption" text-anchor="middle" pointer-events="none" x="0" y="5" font-size="10px" fill="#2A2C34" font-family="Helvetica Neue, Helvetica, Arial, sans-serif"> Y1c</text></g><g class="node" aria-label="graph-node11" transform="translate(69.79087562398308,-94.60026171785486)"><circle class="b-outline" cx="0" cy="0" r="25" fill="#ECB5C9" stroke="#da7298" stroke-width="2px"/><text class="caption" text-anchor="middle" pointer-events="none" x="0" y="5" font-size="10px" fill="#2A2C34" font-family="Helvetica Neue, Helvetica, Arial, sans-serif"> Y2</text></g><g class="node" aria-label="graph-node12" transform="translate(140.45058095370226,-245.5387164194273)"><circle class="b-outline" cx="0" cy="0" r="25" fill="#4C8EDA" stroke="#2870c2" stroke-width="2px"/><text class="caption" text-anchor="middle" pointer-events="none" x="0" y="5" font-size="10px" fill="#FFFFFF" font-family="Helvetica Neue, Helvetica, Arial, sans-serif"> production</text></g><g class="node" aria-label="graph-node13" transform="translate(56.09845521189592,-193.3168229312959)"><circle class="b-outline" cx="0" cy="0" r="25" fill="#4C8EDA" stroke="#2870c2" stroke-width="2px"/><text class="caption" text-anchor="middle" pointer-events="none" x="0" y="5" font-size="10px" fill="#FFFFFF" font-family="Helvetica Neue, Helvetica, Arial, sans-serif"> transport</text></g><g class="node" aria-label="graph-node14" transform="translate(-58.66818087753229,-61.773727945236274)"><circle class="b-outline" cx="0" cy="0" r="25" fill="#4C8EDA" stroke="#2870c2" stroke-width="2px"/><text class="caption" text-anchor="middle" pointer-events="none" x="0" y="5" font-size="10px" fill="#FFFFFF" font-family="Helvetica Neue, Helvetica, Arial, sans-serif"> transfor…</text></g><g class="node" aria-label="graph-node15" transform="translate(-36.05913252994776,-158.78784419340124)"><circle class="b-outline" cx="0" cy="0" r="25" fill="#4C8EDA" stroke="#2870c2" stroke-width="2px"/><text class="caption" text-anchor="middle" pointer-events="none" x="0" y="5" font-size="10px" fill="#FFFFFF" font-family="Helvetica Neue, Helvetica, Arial, sans-serif"> degradat…</text></g><g class="node" aria-label="graph-node16" transform="translate(120.16276272662901,-397.28262241919924)"><circle class="b-outline" cx="0" cy="0" r="25" fill="#FFC454" stroke="#d7a013" stroke-width="2px"/><text class="caption" text-anchor="middle" pointer-events="none" x="0" y="5" font-size="10px" fill="#2A2C34" font-family="Helvetica Neue, Helvetica, Arial, sans-serif"> 2bea841…</text></g><g class="node" aria-label="graph-node17" transform="translate(-130.14415611566693,-130.87330220310758)"><circle class="b-outline" cx="0" cy="0" r="25" fill="#FFC454" stroke="#d7a013" stroke-width="2px"/><text class="caption" text-anchor="middle" pointer-events="none" x="0" y="5" font-size="10px" fill="#2A2C34" font-family="Helvetica Neue, Helvetica, Arial, sans-serif"> bf3b710…</text></g><g class="node" aria-label="graph-node18" transform="translate(-109.23711680191585,-226.8953656123699)"><circle class="b-outline" cx="0" cy="0" r="25" fill="#FFC454" stroke="#d7a013" stroke-width="2px"/><text class="caption" text-anchor="middle" pointer-events="none" x="0" y="5" font-size="10px" fill="#2A2C34" font-family="Helvetica Neue, Helvetica, Arial, sans-serif"> 0d73326…</text></g><g class="node" aria-label="graph-node19" transform="translate(-204.21091446606698,-198.44263607734297)"><circle class="b-outline" cx="0" cy="0" r="25" fill="#FFC454" stroke="#d7a013" stroke-width="2px"/><text class="caption" text-anchor="middle" pointer-events="none" x="0" y="5" font-size="10px" fill="#2A2C34" font-family="Helvetica Neue, Helvetica, Arial, sans-serif"> 3908d2c…</text></g><g class="node" aria-label="graph-node20" transform="translate(38.046698572378304,147.98779113048758)"><circle class="b-outline" cx="0" cy="0" r="25" fill="#569480" stroke="#447666" stroke-width="2px"/><text class="caption" text-anchor="middle" pointer-events="none" x="0" y="5" font-size="10px" fill="#FFFFFF" font-family="Helvetica Neue, Helvetica, Arial, sans-serif"> k1</text></g><g class="node" aria-label="graph-node21" transform="translate(-60.01721909293163,141.13066441266054)"><circle class="b-outline" cx="0" cy="0" r="25" fill="#569480" stroke="#447666" stroke-width="2px"/><text class="caption" text-anchor="middle" pointer-events="none" x="0" y="5" font-size="10px" fill="#FFFFFF" font-family="Helvetica Neue, Helvetica, Arial, sans-serif"> k2</text></g><g class="node" aria-label="graph-node22" transform="translate(133.98334332706156,172.01767614715618)"><circle class="b-outline" cx="0" cy="0" r="25" fill="#569480" stroke="#447666" stroke-width="2px"/><text class="caption" text-anchor="middle" pointer-events="none" x="0" y="5" font-size="10px" fill="#FFFFFF" font-family="Helvetica Neue, Helvetica, Arial, sans-serif"> KT</text></g><g class="node" aria-label="graph-node23" transform="translate(-116.20271211522623,59.092195341099966)"><circle class="b-outline" cx="0" cy="0" r="25" fill="#569480" stroke="#447666" stroke-width="2px"/><text class="caption" text-anchor="middle" pointer-events="none" x="0" y="5" font-size="10px" fill="#FFFFFF" font-family="Helvetica Neue, Helvetica, Arial, sans-serif"> k3</text></g></g></svg>