<svg xmlns="http://www.w3.org/2000/svg" width="754.4528198242188" height="554.096923828125" viewBox="-440.9770812988281 -276.9505615234375 754.4528198242188 554.096923828125"><title>Neo4j Graph Visualization</title><desc>Created using Neo4j (http://www.neo4j.com/)</desc><g class="layer relationships"><g class="relationship" transform="translate(-43.9592465594759 -72.92865525948302) rotate(242.51033873827816)"><path class="b-outline" fill="#A5ABB6" stroke="none" d="M 25 0.5 L 26.28278619818164 0.5 L 26.28278619818164 -0.5 L 25 -0.5 Z M 115.11481744818164 0.5 L 116.39760364636328 0.5 L 116.39760364636328 3.5 L 123.39760364636328 0 L 116.39760364636328 -3.5 L 116.39760364636328 -0.5 L 115.11481744818164 -0.5 Z"/><text text-anchor="middle" pointer-events="none" font-size="8px" fill="#000000" x="70.69880182318164" y="3" transform="rotate(180 70.69880182318164 0)" font-family="Helvetica Neue, Helvetica, Arial, sans-serif">HAS_COMPARTMENT</text></g><g class="relationship" transform="translate(67.0177384827694 103.09813899392717) rotate(467.80295078512984)"><path class="b-outline" fill="#A5ABB6" stroke="none" d="M 25 0.5 L 40.33186374200328 0.5 L 40.33186374200328 -0.5 L 25 -0.5 Z M 105.01155124200328 0.5 L 120.34341498400656 0.5 L 120.34341498400656 3.5 L 127.34341498400656 0 L 120.34341498400656 -3.5 L 120.34341498400656 -0.5 L 105.01155124200328 -0.5 Z"/><text text-anchor="middle" pointer-events="none" font-size="8px" fill="#000000" x="72.67170749200328" y="3" transform="rotate(180 72.67170749200328 0)" font-family="Helvetica Neue, Helvetica, Arial, sans-serif">IS_COMPOSED</text></g><g class="relationship" transform="translate(67.0177384827694 103.09813899392717) rotate(422.05785128153656)"><path class="b-outline" fill="#A5ABB6" stroke="none" d="M 25 0.5 L 39.95701418746165 0.5 L 39.95701418746165 -0.5 L 25 -0.5 Z M 104.63670168746165 0.5 L 119.5937158749233 0.5 L 119.5937158749233 3.5 L 126.5937158749233 0 L 119.5937158749233 -3.5 L 119.5937158749233 -0.5 L 104.63670168746165 -0.5 Z"/><text text-anchor="middle" pointer-events="none" font-size="8px" fill="#000000" x="72.29685793746165" y="3" font-family="Helvetica Neue, Helvetica, Arial, sans-serif">IS_COMPOSED</text></g><g class="relationship" transform="translate(67.0177384827694 103.09813899392717) rotate(357.5156078524724)"><path class="b-outline" fill="#A5ABB6" stroke="none" d="M 25 0.5 L 39.12344702853244 0.5 L 39.12344702853244 -0.5 L 25 -0.5 Z M 103.80313452853244 0.5 L 117.92658155706488 0.5 L 117.92658155706488 3.5 L 124.92658155706488 0 L 117.92658155706488 -3.5 L 117.92658155706488 -0.5 L 103.80313452853244 -0.5 Z"/><text text-anchor="middle" pointer-events="none" font-size="8px" fill="#000000" x="71.46329077853244" y="3" font-family="Helvetica Neue, Helvetica, Arial, sans-serif">IS_COMPOSED</text></g><g class="relationship" transform="translate(135.7105654527567 -40.72467407411227) rotate(368.7118398923877)"><path class="b-outline" fill="#A5ABB6" stroke="none" d="M 25 0.5 L 39.41093773811099 0.5 L 39.41093773811099 -0.5 L 25 -0.5 Z M 104.09062523811099 0.5 L 118.50156297622198 0.5 L 118.50156297622198 3.5 L 125.50156297622198 0 L 118.50156297622198 -3.5 L 118.50156297622198 -0.5 L 104.09062523811099 -0.5 Z"/><text text-anchor="middle" pointer-events="none" font-size="8px" fill="#000000" x="71.75078148811099" y="3" font-family="Helvetica Neue, Helvetica, Arial, sans-serif">IS_COMPOSED</text></g><g class="relationship" transform="translate(135.7105654527567 -40.72467407411227) rotate(285.659418466911)"><path class="b-outline" fill="#A5ABB6" stroke="none" d="M 25 0.5 L 37.825749207486496 0.5 L 37.825749207486496 -0.5 L 25 -0.5 Z M 102.5054367074865 0.5 L 115.33118591497299 0.5 L 115.33118591497299 3.5 L 122.33118591497299 0 L 115.33118591497299 -3.5 L 115.33118591497299 -0.5 L 102.5054367074865 -0.5 Z"/><text text-anchor="middle" pointer-events="none" font-size="8px" fill="#000000" x="70.1655929574865" y="3" font-family="Helvetica Neue, Helvetica, Arial, sans-serif">IS_COMPOSED</text></g><g class="relationship" transform="translate(135.7105654527567 -40.72467407411227) rotate(419.43720113942396)"><path class="b-outline" fill="#A5ABB6" stroke="none" d="M 25 0.5 L 43.900208825479936 0.5 L 43.900208825479936 -0.5 L 25 -0.5 Z M 108.57989632547994 0.5 L 127.48010515095987 0.5 L 127.48010515095987 3.5 L 134.48010515095987 0 L 127.48010515095987 -3.5 L 127.48010515095987 -0.5 L 108.57989632547994 -0.5 Z"/><text text-anchor="middle" pointer-events="none" font-size="8px" fill="#000000" x="76.24005257547994" y="3" font-family="Helvetica Neue, Helvetica, Arial, sans-serif">IS_COMPOSED</text></g><g class="relationship" transform="translate(-43.9592465594759 -72.92865525948302) rotate(417.7704107487228)"><path class="b-outline" fill="#A5ABB6" stroke="none" d="M 25 0.5 L 55.097584685093594 0.5 L 55.097584685093594 -0.5 L 25 -0.5 Z M 145.99211593509358 0.5 L 176.0897006201872 0.5 L 176.0897006201872 3.5 L 183.0897006201872 0 L 176.0897006201872 -3.5 L 176.0897006201872 -0.5 L 145.99211593509358 -0.5 Z"/><text text-anchor="middle" pointer-events="none" font-size="8px" fill="#000000" x="100.5448503100936" y="3" font-family="Helvetica Neue, Helvetica, Arial, sans-serif">HAS_UNITDEFINITION</text></g><g class="relationship" transform="translate(-43.9592465594759 -72.92865525948302) rotate(370.1617788234901)"><path class="b-outline" fill="#A5ABB6" stroke="none" d="M 25 0.5 L 42.31929143822376 0.5 L 42.31929143822376 -0.5 L 25 -0.5 Z M 133.21382268822376 0.5 L 150.53311412644751 0.5 L 150.53311412644751 3.5 L 157.53311412644751 0 L 150.53311412644751 -3.5 L 150.53311412644751 -0.5 L 133.21382268822376 -0.5 Z"/><text text-anchor="middle" pointer-events="none" font-size="8px" fill="#000000" x="87.76655706322376" y="3" font-family="Helvetica Neue, Helvetica, Arial, sans-serif">HAS_UNITDEFINITION</text></g><g class="relationship" transform="translate(-43.9592465594759 -72.92865525948302) rotate(187.10735550034002)"><path class="b-outline" fill="#A5ABB6" stroke="none" d="M 25 0.5 L 151.14471822636048 0.5 L 151.14471822636048 -0.5 L 25 -0.5 Z M 212.72284322636048 0.5 L 338.86756145272096 0.5 L 338.86756145272096 3.5 L 345.86756145272096 0 L 338.86756145272096 -3.5 L 338.86756145272096 -0.5 L 212.72284322636048 -0.5 Z"/><text text-anchor="middle" pointer-events="none" font-size="8px" fill="#000000" x="181.93378072636048" y="3" transform="rotate(180 181.93378072636048 0)" font-family="Helvetica Neue, Helvetica, Arial, sans-serif">HAS_SPECIES</text></g><g class="relationship" transform="translate(-43.9592465594759 -72.92865525948302) rotate(342.47898543713427)"><path class="b-outline" fill="#A5ABB6" stroke="none" d="M 25 0.5 L 132.825254541044 0.5 L 132.825254541044 -0.5 L 25 -0.5 Z M 194.403379541044 0.5 L 302.228634082088 0.5 L 302.228634082088 3.5 L 309.228634082088 0 L 302.228634082088 -3.5 L 302.228634082088 -0.5 L 194.403379541044 -0.5 Z"/><text text-anchor="middle" pointer-events="none" font-size="8px" fill="#000000" x="163.614317041044" y="3" font-family="Helvetica Neue, Helvetica, Arial, sans-serif">HAS_SPECIES</text></g><g class="relationship" transform="translate(-43.9592465594759 -72.92865525948302) rotate(287.6834470434143)"><path class="b-outline" fill="#A5ABB6" stroke="none" d="M 25 0.5 L 57.561908190460315 0.5 L 57.561908190460315 -0.5 L 25 -0.5 Z M 119.14003319046031 0.5 L 151.70194138092063 0.5 L 151.70194138092063 3.5 L 158.70194138092063 0 L 151.70194138092063 -3.5 L 151.70194138092063 -0.5 L 119.14003319046031 -0.5 Z"/><text text-anchor="middle" pointer-events="none" font-size="8px" fill="#000000" x="88.35097069046031" y="3" font-family="Helvetica Neue, Helvetica, Arial, sans-serif">HAS_SPECIES</text></g><g class="relationship" transform="translate(-43.9592465594759 -72.92865525948302) rotate(526.9494977961999)"><path class="b-outline" fill="#A5ABB6" stroke="none" d="M 25 0.5 L 108.93643178471046 0.5 L 108.93643178471046 -0.5 L 25 -0.5 Z M 170.51455678471046 0.5 L 254.45098856942093 0.5 L 254.45098856942093 3.5 L 261.45098856942093 0 L 254.45098856942093 -3.5 L 254.45098856942093 -0.5 L 170.51455678471046 -0.5 Z"/><text text-anchor="middle" pointer-events="none" font-size="8px" fill="#000000" x="139.72549428471046" y="3" transform="rotate(180 139.72549428471046 0)" font-family="Helvetica Neue, Helvetica, Arial, sans-serif">HAS_SPECIES</text></g><g class="relationship" transform="translate(-411.9770846768073 -118.81567919145547) rotate(344.02300411504325)"><path class="b-outline" fill="#A5ABB6" stroke="none" d="M 25 0.5 L 112.08550134166069 0.5 L 112.08550134166069 -0.5 L 25 -0.5 Z M 192.4683138416607 0.5 L 279.5538151833214 0.5 L 279.5538151833214 3.5 L 286.5538151833214 0 L 279.5538151833214 -3.5 L 279.5538151833214 -0.5 L 192.4683138416607 -0.5 Z"/><text text-anchor="middle" pointer-events="none" font-size="8px" fill="#000000" x="152.2769075916607" y="3" font-family="Helvetica Neue, Helvetica, Arial, sans-serif">IN_COMPARTMENT</text></g><g class="relationship" transform="translate(274.76338338642233 -173.55004960853927) rotate(184.5803240070881)"><path class="b-outline" fill="#A5ABB6" stroke="none" d="M 25 0.5 L 150.53952951444944 0.5 L 150.53952951444944 -0.5 L 25 -0.5 Z M 230.92234201444944 0.5 L 356.4618715288989 0.5 L 356.4618715288989 3.5 L 363.4618715288989 0 L 356.4618715288989 -3.5 L 356.4618715288989 -0.5 L 230.92234201444944 -0.5 Z"/><text text-anchor="middle" pointer-events="none" font-size="8px" fill="#000000" x="190.73093576444944" y="3" transform="rotate(180 190.73093576444944 0)" font-family="Helvetica Neue, Helvetica, Arial, sans-serif">IN_COMPARTMENT</text></g><g class="relationship" transform="translate(11.84165485243608 -247.95054722942282) rotate(520.7615429730213)"><path class="b-outline" fill="#A5ABB6" stroke="none" d="M 25 0.5 L 26.13437471066281 0.5 L 26.13437471066281 -0.5 L 25 -0.5 Z M 98.51718721066281 0.5 L 99.65156192132562 0.5 L 99.65156192132562 3.5 L 106.65156192132562 0 L 99.65156192132562 -3.5 L 99.65156192132562 -0.5 L 98.51718721066281 -0.5 Z"/><text text-anchor="middle" pointer-events="none" font-size="8px" fill="#000000" x="62.32578096066281" y="3" transform="rotate(180 62.32578096066281 0)" font-family="Helvetica Neue, Helvetica, Arial, sans-serif">IN_COMPARTM…</text></g><g class="relationship" transform="translate(-323.0116093482561 -8.245213217508379) rotate(317.00268430034237)"><path class="b-outline" fill="#A5ABB6" stroke="none" d="M 25 0.5 L 100.25025268453223 0.5 L 100.25025268453223 -0.5 L 25 -0.5 Z M 180.63306518453223 0.5 L 255.88331786906446 0.5 L 255.88331786906446 3.5 L 262.88331786906446 0 L 255.88331786906446 -3.5 L 255.88331786906446 -0.5 L 180.63306518453223 -0.5 Z"/><text text-anchor="middle" pointer-events="none" font-size="8px" fill="#000000" x="140.44165893453223" y="3" font-family="Helvetica Neue, Helvetica, Arial, sans-serif">IN_COMPARTMENT</text></g><g class="relationship" transform="translate(-43.9592465594759 -72.92865525948302) rotate(201.32436030518852)"><path class="b-outline" fill="#A5ABB6" stroke="none" d="M 25 0.5 L 25.911727581787673 0.5 L 25.911727581787673 -0.5 L 25 -0.5 Z M 66.58750883178767 0.5 L 67.49923641357535 0.5 L 67.49923641357535 3.5 L 74.49923641357535 0 L 67.49923641357535 -3.5 L 67.49923641357535 -0.5 L 66.58750883178767 -0.5 Z"/><text text-anchor="middle" pointer-events="none" font-size="8px" fill="#000000" x="46.24961820678767" y="3" transform="rotate(180 46.24961820678767 0)" font-family="Helvetica Neue, Helvetica, Arial, sans-serif">HAS_R…</text></g><g class="relationship" transform="translate(-136.64643697544278 -109.11128617099712) rotate(230.09079684293016)"><path class="b-outline" fill="#A5ABB6" stroke="none" d="M 25 0.5 L 31.883510030116284 0.5 L 31.883510030116284 -0.5 L 25 -0.5 Z M 110.49679128011628 0.5 L 117.38030131023257 0.5 L 117.38030131023257 3.5 L 124.38030131023257 0 L 117.38030131023257 -3.5 L 117.38030131023257 -0.5 L 110.49679128011628 -0.5 Z"/><text text-anchor="middle" pointer-events="none" font-size="8px" fill="#000000" x="71.19015065511628" y="3" transform="rotate(180 71.19015065511628 0)" font-family="Helvetica Neue, Helvetica, Arial, sans-serif">HAS_KENETICLAW</text></g><g class="relationship" transform="translate(-411.9770846768073 -118.81567919145547) rotate(362.0186299277223)"><path class="b-outline" fill="#A5ABB6" stroke="none" d="M 25 0.5 L 103.98518335293528 0.5 L 103.98518335293528 -0.5 L 25 -0.5 Z M 164.51643335293528 0.5 L 243.50161670587056 0.5 L 243.50161670587056 3.5 L 250.50161670587056 0 L 243.50161670587056 -3.5 L 243.50161670587056 -0.5 L 164.51643335293528 -0.5 Z"/><text text-anchor="middle" pointer-events="none" font-size="8px" fill="#000000" x="134.25080835293528" y="3" font-family="Helvetica Neue, Helvetica, Arial, sans-serif">IS_REACTANT</text></g><g class="relationship" transform="translate(274.76338338642233 -173.55004960853927) rotate(531.0981370610697)"><path class="b-outline" fill="#A5ABB6" stroke="none" d="M 25 0.5 L 174.44724355255948 0.5 L 174.44724355255948 -0.5 L 25 -0.5 Z M 234.97849355255948 0.5 L 384.42573710511897 0.5 L 384.42573710511897 3.5 L 391.42573710511897 0 L 384.42573710511897 -3.5 L 384.42573710511897 -0.5 L 234.97849355255948 -0.5 Z"/><text text-anchor="middle" pointer-events="none" font-size="8px" fill="#000000" x="204.71286855255948" y="3" transform="rotate(180 204.71286855255948 0)" font-family="Helvetica Neue, Helvetica, Arial, sans-serif">IS_REACTANT</text></g><g class="relationship" transform="translate(-136.64643697544278 -109.11128617099712) rotate(511.576501639047)"><path class="b-outline" fill="#A5ABB6" stroke="none" d="M 25 0.5 L 69.22854845106141 0.5 L 69.22854845106141 -0.5 L 25 -0.5 Z M 135.6816734510614 0.5 L 179.91022190212283 0.5 L 179.91022190212283 3.5 L 186.91022190212283 0 L 179.91022190212283 -3.5 L 179.91022190212283 -0.5 L 135.6816734510614 -0.5 Z"/><text text-anchor="middle" pointer-events="none" font-size="8px" fill="#000000" x="102.45511095106141" y="3" transform="rotate(180 102.45511095106141 0)" font-family="Helvetica Neue, Helvetica, Arial, sans-serif">HAS_PRODUCT</text></g><g class="relationship" transform="translate(-43.9592465594759 -72.92865525948302) rotate(443.6762392140103)"><path class="b-outline" fill="#A5ABB6" stroke="none" d="M 25 0.5 L 25.76905035325153 0.5 L 25.76905035325153 -0.5 L 25 -0.5 Z M 113.56201910325153 0.5 L 114.33106945650306 0.5 L 114.33106945650306 3.5 L 121.33106945650306 0 L 114.33106945650306 -3.5 L 114.33106945650306 -0.5 L 113.56201910325153 -0.5 Z"/><text text-anchor="middle" pointer-events="none" font-size="8px" fill="#000000" x="69.66553472825153" y="3" font-family="Helvetica Neue, Helvetica, Arial, sans-serif">HAS_ASSIGNMENT…</text></g><g class="relationship" transform="translate(-136.64643697544278 -109.11128617099712) rotate(316.92334493340275)"><path class="b-outline" fill="#A5ABB6" stroke="none" d="M 25 0.5 L 72.92016669625414 0.5 L 72.92016669625414 -0.5 L 25 -0.5 Z M 123.36547919625414 0.5 L 171.28564589250828 0.5 L 171.28564589250828 3.5 L 178.28564589250828 0 L 171.28564589250828 -3.5 L 171.28564589250828 -0.5 L 123.36547919625414 -0.5 Z"/><text text-anchor="middle" pointer-events="none" font-size="8px" fill="#000000" x="98.14282294625414" y="3" font-family="Helvetica Neue, Helvetica, Arial, sans-serif">MODIFIERS</text></g><g class="relationship" transform="translate(-43.9592465594759 -72.92865525948302) rotate(520.2825684877936)"><path class="b-outline" fill="#A5ABB6" stroke="none" d="M 25 0.5 L 33.91984378915765 0.5 L 33.91984378915765 -0.5 L 25 -0.5 Z M 110.01359378915765 0.5 L 118.9334375783153 0.5 L 118.9334375783153 3.5 L 125.9334375783153 0 L 118.9334375783153 -3.5 L 118.9334375783153 -0.5 L 110.01359378915765 -0.5 Z"/><text text-anchor="middle" pointer-events="none" font-size="8px" fill="#000000" x="71.96671878915765" y="3" transform="rotate(180 71.96671878915765 0)" font-family="Helvetica Neue, Helvetica, Arial, sans-serif">HAS_PARAMETER</text></g><g class="relationship" transform="translate(-43.9592465594759 -72.92865525948302) rotate(482.26462013314017)"><path class="b-outline" fill="#A5ABB6" stroke="none" d="M 25 0.5 L 35.696436134276965 0.5 L 35.696436134276965 -0.5 L 25 -0.5 Z M 111.79018613427696 0.5 L 122.48662226855393 0.5 L 122.48662226855393 3.5 L 129.48662226855393 0 L 122.48662226855393 -3.5 L 122.48662226855393 -0.5 L 111.79018613427696 -0.5 Z"/><text text-anchor="middle" pointer-events="none" font-size="8px" fill="#000000" x="73.74331113427696" y="3" transform="rotate(180 73.74331113427696 0)" font-family="Helvetica Neue, Helvetica, Arial, sans-serif">HAS_PARAMETER</text></g></g><g class="layer nodes"><g class="node" aria-label="graph-node0" transform="translate(67.0177384827694,103.09813899392717)"><circle class="b-outline" cx="0" cy="0" r="25" fill="#D9C8AE" stroke="#c0a378" stroke-width="2px"/><text class="caption" text-anchor="middle" pointer-events="none" x="0" y="5" font-size="10px" fill="#2A2C34" font-family="Helvetica Neue, Helvetica, Arial, sans-serif"> mole_pe…</text></g><g class="node" aria-label="graph-node1" transform="translate(135.7105654527567,-40.72467407411227)"><circle class="b-outline" cx="0" cy="0" r="25" fill="#D9C8AE" stroke="#c0a378" stroke-width="2px"/><text class="caption" text-anchor="middle" pointer-events="none" x="0" y="5" font-size="10px" fill="#2A2C34" font-family="Helvetica Neue, Helvetica, Arial, sans-serif"> litre_sq_…</text></g><g class="node" aria-label="graph-node2" transform="translate(-112.45788110582453,-204.5712996923145)"><circle class="b-outline" cx="0" cy="0" r="25" fill="#F79767" stroke="#f36924" stroke-width="2px"/><text class="caption" text-anchor="middle" pointer-events="none" x="0" y="5" font-size="10px" fill="#FFFFFF" font-family="Helvetica Neue, Helvetica, Arial, sans-serif"> compart…</text></g><g class="node" aria-label="graph-node3" transform="translate(-43.9592465594759,-72.92865525948302)"><circle class="b-outline" cx="0" cy="0" r="25" fill="#57C7E3" stroke="#23b3d7" stroke-width="2px"/><text class="caption" text-anchor="middle" pointer-events="none" x="0" y="5" font-size="10px" fill="#2A2C34" font-family="Helvetica Neue, Helvetica, Arial, sans-serif"> Boundar…</text></g><g class="node" aria-label="graph-node4" transform="translate(20.43960160088059,248.14638356655638)"><circle class="b-outline" cx="0" cy="0" r="25" fill="#F16667" stroke="#eb2728" stroke-width="2px"/><text class="caption" text-anchor="middle" pointer-events="none" x="0" y="5" font-size="10px" fill="#FFFFFF" font-family="Helvetica Neue, Helvetica, Arial, sans-serif"> de25aa5…</text></g><g class="node" aria-label="graph-node5" transform="translate(138.05149390726743,237.01923622307763)"><circle class="b-outline" cx="0" cy="0" r="25" fill="#F16667" stroke="#eb2728" stroke-width="2px"/><text class="caption" text-anchor="middle" pointer-events="none" x="0" y="5" font-size="10px" fill="#FFFFFF" font-family="Helvetica Neue, Helvetica, Arial, sans-serif"> 2a6a3ffc…</text></g><g class="node" aria-label="graph-node6" transform="translate(216.80339906856912,96.59923598935549)"><circle class="b-outline" cx="0" cy="0" r="25" fill="#F16667" stroke="#eb2728" stroke-width="2px"/><text class="caption" text-anchor="middle" pointer-events="none" x="0" y="5" font-size="10px" fill="#FFFFFF" font-family="Helvetica Neue, Helvetica, Arial, sans-serif"> f5f0cb65…</text></g><g class="node" aria-label="graph-node7" transform="translate(284.47573295981084,-17.9289421296487)"><circle class="b-outline" cx="0" cy="0" r="25" fill="#F16667" stroke="#eb2728" stroke-width="2px"/><text class="caption" text-anchor="middle" pointer-events="none" x="0" y="5" font-size="10px" fill="#FFFFFF" font-family="Helvetica Neue, Helvetica, Arial, sans-serif"> 57417f7…</text></g><g class="node" aria-label="graph-node8" transform="translate(175.47798133030483,-182.58739284664415)"><circle class="b-outline" cx="0" cy="0" r="25" fill="#F16667" stroke="#eb2728" stroke-width="2px"/><text class="caption" text-anchor="middle" pointer-events="none" x="0" y="5" font-size="10px" fill="#FFFFFF" font-family="Helvetica Neue, Helvetica, Arial, sans-serif"> a95dd52…</text></g><g class="node" aria-label="graph-node9" transform="translate(-411.9770846768073,-118.81567919145547)"><circle class="b-outline" cx="0" cy="0" r="25" fill="#ECB5C9" stroke="#da7298" stroke-width="2px"/><text class="caption" text-anchor="middle" pointer-events="none" x="0" y="5" font-size="10px" fill="#2A2C34" font-family="Helvetica Neue, Helvetica, Arial, sans-serif"> S1</text></g><g class="node" aria-label="graph-node10" transform="translate(274.76338338642233,-173.55004960853927)"><circle class="b-outline" cx="0" cy="0" r="25" fill="#ECB5C9" stroke="#da7298" stroke-width="2px"/><text class="caption" text-anchor="middle" pointer-events="none" x="0" y="5" font-size="10px" fill="#2A2C34" font-family="Helvetica Neue, Helvetica, Arial, sans-serif"> S2</text></g><g class="node" aria-label="graph-node11" transform="translate(11.84165485243608,-247.95054722942282)"><circle class="b-outline" cx="0" cy="0" r="25" fill="#ECB5C9" stroke="#da7298" stroke-width="2px"/><text class="caption" text-anchor="middle" pointer-events="none" x="0" y="5" font-size="10px" fill="#2A2C34" font-family="Helvetica Neue, Helvetica, Arial, sans-serif"> S3</text></g><g class="node" aria-label="graph-node12" transform="translate(-323.0116093482561,-8.245213217508379)"><circle class="b-outline" cx="0" cy="0" r="25" fill="#ECB5C9" stroke="#da7298" stroke-width="2px"/><text class="caption" text-anchor="middle" pointer-events="none" x="0" y="5" font-size="10px" fill="#2A2C34" font-family="Helvetica Neue, Helvetica, Arial, sans-serif"> S4</text></g><g class="node" aria-label="graph-node13" transform="translate(-136.64643697544278,-109.11128617099712)"><circle class="b-outline" cx="0" cy="0" r="25" fill="#4C8EDA" stroke="#2870c2" stroke-width="2px"/><text class="caption" text-anchor="middle" pointer-events="none" x="0" y="5" font-size="10px" fill="#FFFFFF" font-family="Helvetica Neue, Helvetica, Arial, sans-serif"> reaction_1</text></g><g class="node" aria-label="graph-node14" transform="translate(-232.48478254582048,-223.6952551102372)"><circle class="b-outline" cx="0" cy="0" r="25" fill="#FFC454" stroke="#d7a013" stroke-width="2px"/><text class="caption" text-anchor="middle" pointer-events="none" x="0" y="5" font-size="10px" fill="#2A2C34" font-family="Helvetica Neue, Helvetica, Arial, sans-serif"> 532fafcc…</text></g><g class="node" aria-label="graph-node15" transform="translate(-186.04314641827634,-22.006479538864276)"><circle class="b-outline" cx="0" cy="0" r="25" fill="#569480" stroke="#447666" stroke-width="2px"/><text class="caption" text-anchor="middle" pointer-events="none" x="0" y="5" font-size="10px" fill="#FFFFFF" font-family="Helvetica Neue, Helvetica, Arial, sans-serif"> k1</text></g><g class="node" aria-label="graph-node16" transform="translate(-126.42888685003273,57.70393979356273)"><circle class="b-outline" cx="0" cy="0" r="25" fill="#569480" stroke="#447666" stroke-width="2px"/><text class="caption" text-anchor="middle" pointer-events="none" x="0" y="5" font-size="10px" fill="#FFFFFF" font-family="Helvetica Neue, Helvetica, Arial, sans-serif"> k2</text></g><g class="node" aria-label="graph-node17" transform="translate(-27.841391245503267,72.51204271863371)"><circle class="b-outline" cx="0" cy="0" r="25" fill="#A5ABB6" stroke="#9AA1AC" stroke-width="2px"/><text class="caption" text-anchor="middle" pointer-events="none" x="0" y="5" font-size="10px" fill="#FFFFFF" font-family="Helvetica Neue, Helvetica, Arial, sans-serif"> S1</text></g></g></svg>