<svg xmlns="http://www.w3.org/2000/svg" width="803.1082763671875" height="746.9505004882812" viewBox="-336.79559326171875 -473.3150939941406 803.1082763671875 746.9505004882812"><title>Neo4j Graph Visualization</title><desc>Created using Neo4j (http://www.neo4j.com/)</desc><g class="layer relationships"><g class="relationship" transform="translate(104.75197788779879 -127.55738551800053) rotate(304.9822604645637)"><path class="b-outline" fill="#A5ABB6" stroke="none" d="M 25 0.5 L 31.0099087064185 0.5 L 31.0099087064185 -0.5 L 25 -0.5 Z M 119.8419399564185 0.5 L 125.851848662837 0.5 L 125.851848662837 3.5 L 132.851848662837 0 L 125.851848662837 -3.5 L 125.851848662837 -0.5 L 119.8419399564185 -0.5 Z"/><text text-anchor="middle" pointer-events="none" font-size="8px" fill="#000000" x="75.4259243314185" y="3" font-family="Helvetica Neue, Helvetica, Arial, sans-serif">HAS_COMPARTMENT</text></g><g class="relationship" transform="translate(-91.1232191147079 84.92043582160788) rotate(185.2811813910463)"><path class="b-outline" fill="#A5ABB6" stroke="none" d="M 25 0.5 L 45.508974457306095 0.5 L 45.508974457306095 -0.5 L 25 -0.5 Z M 110.1886619573061 0.5 L 130.6976364146122 0.5 L 130.6976364146122 3.5 L 137.6976364146122 0 L 130.6976364146122 -3.5 L 130.6976364146122 -0.5 L 110.1886619573061 -0.5 Z"/><text text-anchor="middle" pointer-events="none" font-size="8px" fill="#000000" x="77.8488182073061" y="3" transform="rotate(180 77.8488182073061 0)" font-family="Helvetica Neue, Helvetica, Arial, sans-serif">IS_COMPOSED</text></g><g class="relationship" transform="translate(-91.1232191147079 84.92043582160788) rotate(464.0414711404201)"><path class="b-outline" fill="#A5ABB6" stroke="none" d="M 25 0.5 L 46.47724116443733 0.5 L 46.47724116443733 -0.5 L 25 -0.5 Z M 111.15692866443733 0.5 L 132.63416982887466 0.5 L 132.63416982887466 3.5 L 139.63416982887466 0 L 132.63416982887466 -3.5 L 132.63416982887466 -0.5 L 111.15692866443733 -0.5 Z"/><text text-anchor="middle" pointer-events="none" font-size="8px" fill="#000000" x="78.81708491443733" y="3" transform="rotate(180 78.81708491443733 0)" font-family="Helvetica Neue, Helvetica, Arial, sans-serif">IS_COMPOSED</text></g><g class="relationship" transform="translate(-91.1232191147079 84.92043582160788) rotate(427.1422582657897)"><path class="b-outline" fill="#A5ABB6" stroke="none" d="M 25 0.5 L 25.464125387312407 0.5 L 25.464125387312407 -0.5 L 25 -0.5 Z M 87.03053163731241 0.5 L 87.49465702462481 0.5 L 87.49465702462481 3.5 L 94.49465702462481 0 L 87.49465702462481 -3.5 L 87.49465702462481 -0.5 L 87.03053163731241 -0.5 Z"/><text text-anchor="middle" pointer-events="none" font-size="8px" fill="#000000" x="56.24732851231241" y="3" font-family="Helvetica Neue, Helvetica, Arial, sans-serif">IS_COMPOS…</text></g><g class="relationship" transform="translate(-98.09825585678121 -13.27109772442891) rotate(511.774497027768)"><path class="b-outline" fill="#A5ABB6" stroke="none" d="M 25 0.5 L 52.13721467805152 0.5 L 52.13721467805152 -0.5 L 25 -0.5 Z M 116.81690217805152 0.5 L 143.95411685610304 0.5 L 143.95411685610304 3.5 L 150.95411685610304 0 L 143.95411685610304 -3.5 L 143.95411685610304 -0.5 L 116.81690217805152 -0.5 Z"/><text text-anchor="middle" pointer-events="none" font-size="8px" fill="#000000" x="84.47705842805152" y="3" transform="rotate(180 84.47705842805152 0)" font-family="Helvetica Neue, Helvetica, Arial, sans-serif">IS_COMPOSED</text></g><g class="relationship" transform="translate(-98.09825585678121 -13.27109772442891) rotate(478.2744961002024)"><path class="b-outline" fill="#A5ABB6" stroke="none" d="M 25 0.5 L 47.77775888567891 0.5 L 47.77775888567891 -0.5 L 25 -0.5 Z M 112.4574463856789 0.5 L 135.2352052713578 0.5 L 135.2352052713578 3.5 L 142.2352052713578 0 L 135.2352052713578 -3.5 L 135.2352052713578 -0.5 L 112.4574463856789 -0.5 Z"/><text text-anchor="middle" pointer-events="none" font-size="8px" fill="#000000" x="80.1176026356789" y="3" transform="rotate(180 80.1176026356789 0)" font-family="Helvetica Neue, Helvetica, Arial, sans-serif">IS_COMPOSED</text></g><g class="relationship" transform="translate(-98.09825585678121 -13.27109772442891) rotate(409.78596450735336)"><path class="b-outline" fill="#A5ABB6" stroke="none" d="M 25 0.5 L 44.09240286036834 0.5 L 44.09240286036834 -0.5 L 25 -0.5 Z M 108.77209036036834 0.5 L 127.86449322073668 0.5 L 127.86449322073668 3.5 L 134.86449322073668 0 L 127.86449322073668 -3.5 L 127.86449322073668 -0.5 L 108.77209036036834 -0.5 Z"/><text text-anchor="middle" pointer-events="none" font-size="8px" fill="#000000" x="76.43224661036834" y="3" font-family="Helvetica Neue, Helvetica, Arial, sans-serif">IS_COMPOSED</text></g><g class="relationship" transform="translate(-98.09825585678121 -13.27109772442891) rotate(435.6234667490591)"><path class="b-outline" fill="#A5ABB6" stroke="none" d="M 25 0.5 L 71.67836184484833 0.5 L 71.67836184484833 -0.5 L 25 -0.5 Z M 136.35804934484833 0.5 L 183.03641118969665 0.5 L 183.03641118969665 3.5 L 190.03641118969665 0 L 183.03641118969665 -3.5 L 183.03641118969665 -0.5 L 136.35804934484833 -0.5 Z"/><text text-anchor="middle" pointer-events="none" font-size="8px" fill="#000000" x="104.01820559484833" y="3" font-family="Helvetica Neue, Helvetica, Arial, sans-serif">IS_COMPOSED</text></g><g class="relationship" transform="translate(192.77657125321807 32.92003600306113) rotate(400.96825683104595)"><path class="b-outline" fill="#A5ABB6" stroke="none" d="M 25 0.5 L 46.684605726531245 0.5 L 46.684605726531245 -0.5 L 25 -0.5 Z M 111.36429322653125 0.5 L 133.0488989530625 0.5 L 133.0488989530625 3.5 L 140.0488989530625 0 L 133.0488989530625 -3.5 L 133.0488989530625 -0.5 L 111.36429322653125 -0.5 Z"/><text text-anchor="middle" pointer-events="none" font-size="8px" fill="#000000" x="79.02444947653125" y="3" font-family="Helvetica Neue, Helvetica, Arial, sans-serif">IS_COMPOSED</text></g><g class="relationship" transform="translate(300.58081907572387 -127.3803894825525) rotate(334.82034826426434)"><path class="b-outline" fill="#A5ABB6" stroke="none" d="M 25 0.5 L 39.704447798561986 0.5 L 39.704447798561986 -0.5 L 25 -0.5 Z M 104.38413529856199 0.5 L 119.08858309712397 0.5 L 119.08858309712397 3.5 L 126.08858309712397 0 L 119.08858309712397 -3.5 L 119.08858309712397 -0.5 L 104.38413529856199 -0.5 Z"/><text text-anchor="middle" pointer-events="none" font-size="8px" fill="#000000" x="72.04429154856199" y="3" font-family="Helvetica Neue, Helvetica, Arial, sans-serif">IS_COMPOSED</text></g><g class="relationship" transform="translate(300.58081907572387 -127.3803894825525) rotate(398.03033915964284)"><path class="b-outline" fill="#A5ABB6" stroke="none" d="M 25 0.5 L 46.80929628947929 0.5 L 46.80929628947929 -0.5 L 25 -0.5 Z M 111.48898378947929 0.5 L 133.29828007895858 0.5 L 133.29828007895858 3.5 L 140.29828007895858 0 L 133.29828007895858 -3.5 L 133.29828007895858 -0.5 L 111.48898378947929 -0.5 Z"/><text text-anchor="middle" pointer-events="none" font-size="8px" fill="#000000" x="79.14914003947929" y="3" font-family="Helvetica Neue, Helvetica, Arial, sans-serif">IS_COMPOSED</text></g><g class="relationship" transform="translate(278.3059233209595 -18.083176772878204) rotate(436.2042753696924)"><path class="b-outline" fill="#A5ABB6" stroke="none" d="M 25 0.5 L 46.132902395538494 0.5 L 46.132902395538494 -0.5 L 25 -0.5 Z M 110.8125898955385 0.5 L 131.945492291077 0.5 L 131.945492291077 3.5 L 138.945492291077 0 L 131.945492291077 -3.5 L 131.945492291077 -0.5 L 110.8125898955385 -0.5 Z"/><text text-anchor="middle" pointer-events="none" font-size="8px" fill="#000000" x="78.4727461455385" y="3" font-family="Helvetica Neue, Helvetica, Arial, sans-serif">IS_COMPOSED</text></g><g class="relationship" transform="translate(278.3059233209595 -18.083176772878204) rotate(357.1988523404648)"><path class="b-outline" fill="#A5ABB6" stroke="none" d="M 25 0.5 L 40.49026454634789 0.5 L 40.49026454634789 -0.5 L 25 -0.5 Z M 105.16995204634789 0.5 L 120.66021659269578 0.5 L 120.66021659269578 3.5 L 127.66021659269578 0 L 120.66021659269578 -3.5 L 120.66021659269578 -0.5 L 105.16995204634789 -0.5 Z"/><text text-anchor="middle" pointer-events="none" font-size="8px" fill="#000000" x="72.83010829634789" y="3" font-family="Helvetica Neue, Helvetica, Arial, sans-serif">IS_COMPOSED</text></g><g class="relationship" transform="translate(104.75197788779879 -127.55738551800053) rotate(492.6717775441567)"><path class="b-outline" fill="#A5ABB6" stroke="none" d="M 25 0.5 L 95.54660739562098 0.5 L 95.54660739562098 -0.5 L 25 -0.5 Z M 186.44113864562098 0.5 L 256.98774604124196 0.5 L 256.98774604124196 3.5 L 263.98774604124196 0 L 256.98774604124196 -3.5 L 256.98774604124196 -0.5 L 186.44113864562098 -0.5 Z"/><text text-anchor="middle" pointer-events="none" font-size="8px" fill="#000000" x="140.99387302062098" y="3" transform="rotate(180 140.99387302062098 0)" font-family="Helvetica Neue, Helvetica, Arial, sans-serif">HAS_UNITDEFINITION</text></g><g class="relationship" transform="translate(104.75197788779879 -127.55738551800053) rotate(510.602989638789)"><path class="b-outline" fill="#A5ABB6" stroke="none" d="M 25 0.5 L 67.46748097939913 0.5 L 67.46748097939913 -0.5 L 25 -0.5 Z M 158.3620122293991 0.5 L 200.82949320879825 0.5 L 200.82949320879825 3.5 L 207.82949320879825 0 L 200.82949320879825 -3.5 L 200.82949320879825 -0.5 L 158.3620122293991 -0.5 Z"/><text text-anchor="middle" pointer-events="none" font-size="8px" fill="#000000" x="112.91474660439913" y="3" transform="rotate(180 112.91474660439913 0)" font-family="Helvetica Neue, Helvetica, Arial, sans-serif">HAS_UNITDEFINITION</text></g><g class="relationship" transform="translate(104.75197788779879 -127.55738551800053) rotate(421.25448304000736)"><path class="b-outline" fill="#A5ABB6" stroke="none" d="M 25 0.5 L 42.569579621101994 0.5 L 42.569579621101994 -0.5 L 25 -0.5 Z M 133.46411087110198 0.5 L 151.033690492204 0.5 L 151.033690492204 3.5 L 158.033690492204 0 L 151.033690492204 -3.5 L 151.033690492204 -0.5 L 133.46411087110198 -0.5 Z"/><text text-anchor="middle" pointer-events="none" font-size="8px" fill="#000000" x="88.016845246102" y="3" font-family="Helvetica Neue, Helvetica, Arial, sans-serif">HAS_UNITDEFINITION</text></g><g class="relationship" transform="translate(104.75197788779879 -127.55738551800053) rotate(360.05178564607104)"><path class="b-outline" fill="#A5ABB6" stroke="none" d="M 25 0.5 L 48.96719496254825 0.5 L 48.96719496254825 -0.5 L 25 -0.5 Z M 139.86172621254826 0.5 L 163.8289211750965 0.5 L 163.8289211750965 3.5 L 170.8289211750965 0 L 163.8289211750965 -3.5 L 163.8289211750965 -0.5 L 139.86172621254826 -0.5 Z"/><text text-anchor="middle" pointer-events="none" font-size="8px" fill="#000000" x="94.41446058754825" y="3" font-family="Helvetica Neue, Helvetica, Arial, sans-serif">HAS_UNITDEFINITION</text></g><g class="relationship" transform="translate(104.75197788779879 -127.55738551800053) rotate(392.2428740672169)"><path class="b-outline" fill="#A5ABB6" stroke="none" d="M 25 0.5 L 53.650948730547086 0.5 L 53.650948730547086 -0.5 L 25 -0.5 Z M 144.5454799805471 0.5 L 173.19642871109417 0.5 L 173.19642871109417 3.5 L 180.19642871109417 0 L 173.19642871109417 -3.5 L 173.19642871109417 -0.5 L 144.5454799805471 -0.5 Z"/><text text-anchor="middle" pointer-events="none" font-size="8px" fill="#000000" x="99.09821435554709" y="3" font-family="Helvetica Neue, Helvetica, Arial, sans-serif">HAS_UNITDEFINITION</text></g><g class="relationship" transform="translate(104.75197788779879 -127.55738551800053) rotate(199.78476542112298)"><path class="b-outline" fill="#A5ABB6" stroke="none" d="M 25 0.5 L 26.067629435450257 0.5 L 26.067629435450257 -0.5 L 25 -0.5 Z M 66.30200443545026 0.5 L 67.36963387090051 0.5 L 67.36963387090051 3.5 L 74.36963387090051 0 L 67.36963387090051 -3.5 L 67.36963387090051 -0.5 L 66.30200443545026 -0.5 Z"/><text text-anchor="middle" pointer-events="none" font-size="8px" fill="#000000" x="46.18481693545026" y="3" transform="rotate(180 46.18481693545026 0)" font-family="Helvetica Neue, Helvetica, Arial, sans-serif">HAS_S…</text></g><g class="relationship" transform="translate(104.75197788779879 -127.55738551800053) rotate(248.6274530192124)"><path class="b-outline" fill="#A5ABB6" stroke="none" d="M 25 0.5 L 84.81183139997158 0.5 L 84.81183139997158 -0.5 L 25 -0.5 Z M 146.3899563999716 0.5 L 206.20178779994316 0.5 L 206.20178779994316 3.5 L 213.20178779994316 0 L 206.20178779994316 -3.5 L 206.20178779994316 -0.5 L 146.3899563999716 -0.5 Z"/><text text-anchor="middle" pointer-events="none" font-size="8px" fill="#000000" x="115.60089389997158" y="3" transform="rotate(180 115.60089389997158 0)" font-family="Helvetica Neue, Helvetica, Arial, sans-serif">HAS_SPECIES</text></g><g class="relationship" transform="translate(104.75197788779879 -127.55738551800053) rotate(272.6925991050499)"><path class="b-outline" fill="#A5ABB6" stroke="none" d="M 25 0.5 L 65.17365454901565 0.5 L 65.17365454901565 -0.5 L 25 -0.5 Z M 126.75177954901565 0.5 L 166.9254340980313 0.5 L 166.9254340980313 3.5 L 173.9254340980313 0 L 166.9254340980313 -3.5 L 166.9254340980313 -0.5 L 126.75177954901565 -0.5 Z"/><text text-anchor="middle" pointer-events="none" font-size="8px" fill="#000000" x="95.96271704901565" y="3" font-family="Helvetica Neue, Helvetica, Arial, sans-serif">HAS_SPECIES</text></g><g class="relationship" transform="translate(104.75197788779879 -127.55738551800053) rotate(244.98479735527513)"><path class="b-outline" fill="#A5ABB6" stroke="none" d="M 25 0.5 L 35.67385213917983 0.5 L 35.67385213917983 -0.5 L 25 -0.5 Z M 97.25197713917983 0.5 L 107.92582927835966 0.5 L 107.92582927835966 3.5 L 114.92582927835966 0 L 107.92582927835966 -3.5 L 107.92582927835966 -0.5 L 97.25197713917983 -0.5 Z"/><text text-anchor="middle" pointer-events="none" font-size="8px" fill="#000000" x="66.46291463917983" y="3" transform="rotate(180 66.46291463917983 0)" font-family="Helvetica Neue, Helvetica, Arial, sans-serif">HAS_SPECIES</text></g><g class="relationship" transform="translate(11.248053618528166 -161.19278772881592) rotate(332.52183904339813)"><path class="b-outline" fill="#A5ABB6" stroke="none" d="M 25 0.5 L 60.00941102352691 0.5 L 60.00941102352691 -0.5 L 25 -0.5 Z M 140.39222352352692 0.5 L 175.40163454705382 0.5 L 175.40163454705382 3.5 L 182.40163454705382 0 L 175.40163454705382 -3.5 L 175.40163454705382 -0.5 L 140.39222352352692 -0.5 Z"/><text text-anchor="middle" pointer-events="none" font-size="8px" fill="#000000" x="100.20081727352691" y="3" font-family="Helvetica Neue, Helvetica, Arial, sans-serif">IN_COMPARTMENT</text></g><g class="relationship" transform="translate(17.943950007785833 -349.37816454168) rotate(387.5476093018856)"><path class="b-outline" fill="#A5ABB6" stroke="none" d="M 25 0.5 L 56.29884980712204 0.5 L 56.29884980712204 -0.5 L 25 -0.5 Z M 136.68166230712205 0.5 L 167.98051211424408 0.5 L 167.98051211424408 3.5 L 174.98051211424408 0 L 167.98051211424408 -3.5 L 167.98051211424408 -0.5 L 136.68166230712205 -0.5 Z"/><text text-anchor="middle" pointer-events="none" font-size="8px" fill="#000000" x="96.49025605712204" y="3" font-family="Helvetica Neue, Helvetica, Arial, sans-serif">IN_COMPARTMENT</text></g><g class="relationship" transform="translate(114.0969822955749 -326.2631962627013) rotate(400.5245467798838)"><path class="b-outline" fill="#A5ABB6" stroke="none" d="M 25 0.5 L 27.325877950914013 0.5 L 27.325877950914013 -0.5 L 25 -0.5 Z M 72.43915920091402 0.5 L 74.76503715182803 0.5 L 74.76503715182803 3.5 L 81.76503715182803 0 L 74.76503715182803 -3.5 L 74.76503715182803 -0.5 L 72.43915920091402 -0.5 Z"/><text text-anchor="middle" pointer-events="none" font-size="8px" fill="#000000" x="49.88251857591401" y="3" font-family="Helvetica Neue, Helvetica, Arial, sans-serif">IN_COM…</text></g><g class="relationship" transform="translate(45.583120386216066 -254.35755902416753) rotate(359.0306023182461)"><path class="b-outline" fill="#A5ABB6" stroke="none" d="M 25 0.5 L 31.15376580815601 0.5 L 31.15376580815601 -0.5 L 25 -0.5 Z M 111.53657830815601 0.5 L 117.69034411631202 0.5 L 117.69034411631202 3.5 L 124.69034411631202 0 L 117.69034411631202 -3.5 L 117.69034411631202 -0.5 L 111.53657830815601 -0.5 Z"/><text text-anchor="middle" pointer-events="none" font-size="8px" fill="#000000" x="71.34517205815601" y="3" font-family="Helvetica Neue, Helvetica, Arial, sans-serif">IN_COMPARTMENT</text></g><g class="relationship" transform="translate(104.75197788779879 -127.55738551800053) rotate(227.44391852108868)"><path class="b-outline" fill="#A5ABB6" stroke="none" d="M 25 0.5 L 98.34499999681216 0.5 L 98.34499999681216 -0.5 L 25 -0.5 Z M 166.57937499681216 0.5 L 239.92437499362433 0.5 L 239.92437499362433 3.5 L 246.92437499362433 0 L 239.92437499362433 -3.5 L 239.92437499362433 -0.5 L 166.57937499681216 -0.5 Z"/><text text-anchor="middle" pointer-events="none" font-size="8px" fill="#000000" x="132.46218749681216" y="3" transform="rotate(180 132.46218749681216 0)" font-family="Helvetica Neue, Helvetica, Arial, sans-serif">HAS_REACTION</text></g><g class="relationship" transform="translate(104.75197788779879 -127.55738551800053) rotate(207.29425574676577)"><path class="b-outline" fill="#A5ABB6" stroke="none" d="M 25 0.5 L 106.96593203367493 0.5 L 106.96593203367493 -0.5 L 25 -0.5 Z M 175.20030703367493 0.5 L 257.16623906734986 0.5 L 257.16623906734986 3.5 L 264.16623906734986 0 L 257.16623906734986 -3.5 L 257.16623906734986 -0.5 L 175.20030703367493 -0.5 Z"/><text text-anchor="middle" pointer-events="none" font-size="8px" fill="#000000" x="141.08311953367493" y="3" transform="rotate(180 141.08311953367493 0)" font-family="Helvetica Neue, Helvetica, Arial, sans-serif">HAS_REACTION</text></g><g class="relationship" transform="translate(-79.15361375546405 -327.86115252704775) rotate(229.70516261878083)"><path class="b-outline" fill="#A5ABB6" stroke="none" d="M 25 0.5 L 33.533902326512006 0.5 L 33.533902326512006 -0.5 L 25 -0.5 Z M 112.147183576512 0.5 L 120.68108590302401 0.5 L 120.68108590302401 3.5 L 127.68108590302401 0 L 120.68108590302401 -3.5 L 120.68108590302401 -0.5 L 112.147183576512 -0.5 Z"/><text text-anchor="middle" pointer-events="none" font-size="8px" fill="#000000" x="72.840542951512" y="3" transform="rotate(180 72.840542951512 0)" font-family="Helvetica Neue, Helvetica, Arial, sans-serif">HAS_KENETICLAW</text></g><g class="relationship" transform="translate(-152.2194205244931 -260.1575899461495) rotate(186.70363537984457)"><path class="b-outline" fill="#A5ABB6" stroke="none" d="M 25 0.5 L 35.51692762214182 0.5 L 35.51692762214182 -0.5 L 25 -0.5 Z M 114.13020887214182 0.5 L 124.64713649428364 0.5 L 124.64713649428364 3.5 L 131.64713649428364 0 L 124.64713649428364 -3.5 L 124.64713649428364 -0.5 L 114.13020887214182 -0.5 Z"/><text text-anchor="middle" pointer-events="none" font-size="8px" fill="#000000" x="74.82356824714182" y="3" transform="rotate(180 74.82356824714182 0)" font-family="Helvetica Neue, Helvetica, Arial, sans-serif">HAS_KENETICLAW</text></g><g class="relationship" transform="translate(-79.15361375546405 -327.86115252704775) rotate(483.4177198121325)"><path class="b-outline" fill="#A5ABB6" stroke="none" d="M 25 0.5 L 41.89567271948387 0.5 L 41.89567271948387 -0.5 L 25 -0.5 Z M 144.22379771948385 0.5 L 161.11947043896774 0.5 L 161.11947043896774 3.5 L 168.11947043896774 0 L 161.11947043896774 -3.5 L 161.11947043896774 -0.5 L 144.22379771948385 -0.5 Z"/><text text-anchor="middle" pointer-events="none" font-size="8px" fill="#000000" x="93.05973521948387" y="3" transform="rotate(180 93.05973521948387 0)" font-family="Helvetica Neue, Helvetica, Arial, sans-serif">HAS_LOCALPARAMETER</text></g><g class="relationship" transform="translate(-79.15361375546405 -327.86115252704775) rotate(455.6310285020579)"><path class="b-outline" fill="#A5ABB6" stroke="none" d="M 25 0.5 L 51.90383063296943 0.5 L 51.90383063296943 -0.5 L 25 -0.5 Z M 154.23195563296943 0.5 L 181.13578626593886 0.5 L 181.13578626593886 3.5 L 188.13578626593886 0 L 181.13578626593886 -3.5 L 181.13578626593886 -0.5 L 154.23195563296943 -0.5 Z"/><text text-anchor="middle" pointer-events="none" font-size="8px" fill="#000000" x="103.06789313296943" y="3" transform="rotate(180 103.06789313296943 0)" font-family="Helvetica Neue, Helvetica, Arial, sans-serif">HAS_LOCALPARAMETER</text></g><g class="relationship" transform="translate(-152.2194205244931 -260.1575899461495) rotate(465.2491564057557)"><path class="b-outline" fill="#A5ABB6" stroke="none" d="M 25 0.5 L 45.13493493063436 0.5 L 45.13493493063436 -0.5 L 25 -0.5 Z M 147.46305993063436 0.5 L 167.59799486126872 0.5 L 167.59799486126872 3.5 L 174.59799486126872 0 L 167.59799486126872 -3.5 L 167.59799486126872 -0.5 L 147.46305993063436 -0.5 Z"/><text text-anchor="middle" pointer-events="none" font-size="8px" fill="#000000" x="96.29899743063436" y="3" transform="rotate(180 96.29899743063436 0)" font-family="Helvetica Neue, Helvetica, Arial, sans-serif">HAS_LOCALPARAMETER</text></g><g class="relationship" transform="translate(45.583120386216066 -254.35755902416753) rotate(210.50956166793446)"><path class="b-outline" fill="#A5ABB6" stroke="none" d="M 25 0.5 L 38.62572652448952 0.5 L 38.62572652448952 -0.5 L 25 -0.5 Z M 99.15697652448952 0.5 L 112.78270304897904 0.5 L 112.78270304897904 3.5 L 119.78270304897904 0 L 112.78270304897904 -3.5 L 112.78270304897904 -0.5 L 99.15697652448952 -0.5 Z"/><text text-anchor="middle" pointer-events="none" font-size="8px" fill="#000000" x="68.89135152448952" y="3" transform="rotate(180 68.89135152448952 0)" font-family="Helvetica Neue, Helvetica, Arial, sans-serif">IS_REACTANT</text></g><g class="relationship" transform="translate(114.0969822955749 -326.2631962627013) rotate(180.47375824487568)"><path class="b-outline" fill="#A5ABB6" stroke="none" d="M 25 0.5 L 62.86297627610327 0.5 L 62.86297627610327 -0.5 L 25 -0.5 Z M 123.39422627610327 0.5 L 161.25720255220654 0.5 L 161.25720255220654 3.5 L 168.25720255220654 0 L 161.25720255220654 -3.5 L 161.25720255220654 -0.5 L 123.39422627610327 -0.5 Z"/><text text-anchor="middle" pointer-events="none" font-size="8px" fill="#000000" x="93.12860127610327" y="3" transform="rotate(180 93.12860127610327 0)" font-family="Helvetica Neue, Helvetica, Arial, sans-serif">IS_REACTANT</text></g><g class="relationship" transform="translate(11.248053618528166 -161.19278772881592) rotate(211.19112129063205)"><path class="b-outline" fill="#A5ABB6" stroke="none" d="M 25 0.5 L 61.779713950436616 0.5 L 61.779713950436616 -0.5 L 25 -0.5 Z M 122.31096395043662 0.5 L 159.09067790087323 0.5 L 159.09067790087323 3.5 L 166.09067790087323 0 L 159.09067790087323 -3.5 L 159.09067790087323 -0.5 L 122.31096395043662 -0.5 Z"/><text text-anchor="middle" pointer-events="none" font-size="8px" fill="#000000" x="92.04533895043662" y="3" transform="rotate(180 92.04533895043662 0)" font-family="Helvetica Neue, Helvetica, Arial, sans-serif">IS_REACTANT</text></g><g class="relationship" transform="translate(-79.15361375546405 -327.86115252704775) rotate(421.5243975619665)"><path class="b-outline" fill="#A5ABB6" stroke="none" d="M 25 0.5 L 58.07692542174581 0.5 L 58.07692542174581 -0.5 L 25 -0.5 Z M 124.53005042174581 0.5 L 157.60697584349163 0.5 L 157.60697584349163 3.5 L 164.60697584349163 0 L 157.60697584349163 -3.5 L 157.60697584349163 -0.5 L 124.53005042174581 -0.5 Z"/><text text-anchor="middle" pointer-events="none" font-size="8px" fill="#000000" x="91.30348792174581" y="3" font-family="Helvetica Neue, Helvetica, Arial, sans-serif">HAS_PRODUCT</text></g><g class="relationship" transform="translate(-152.2194205244931 -260.1575899461495) rotate(361.6795643697709)"><path class="b-outline" fill="#A5ABB6" stroke="none" d="M 25 0.5 L 62.2172164219574 0.5 L 62.2172164219574 -0.5 L 25 -0.5 Z M 128.6703414219574 0.5 L 165.8875578439148 0.5 L 165.8875578439148 3.5 L 172.8875578439148 0 L 165.8875578439148 -3.5 L 165.8875578439148 -0.5 L 128.6703414219574 -0.5 Z"/><text text-anchor="middle" pointer-events="none" font-size="8px" fill="#000000" x="95.4437789219574" y="3" font-family="Helvetica Neue, Helvetica, Arial, sans-serif">HAS_PRODUCT</text></g><g class="relationship" transform="translate(-152.2194205244931 -260.1575899461495) rotate(332.3309421966335)"><path class="b-outline" fill="#A5ABB6" stroke="none" d="M 25 0.5 L 59.340970519827096 0.5 L 59.340970519827096 -0.5 L 25 -0.5 Z M 125.7940955198271 0.5 L 160.1350660396542 0.5 L 160.1350660396542 3.5 L 167.1350660396542 0 L 160.1350660396542 -3.5 L 160.1350660396542 -0.5 L 125.7940955198271 -0.5 Z"/><text text-anchor="middle" pointer-events="none" font-size="8px" fill="#000000" x="92.5675330198271" y="3" font-family="Helvetica Neue, Helvetica, Arial, sans-serif">HAS_PRODUCT</text></g><g class="relationship" transform="translate(-185.5120197042723 -166.6686609318874) rotate(420.3233012393867)"><path class="b-outline" fill="#A5ABB6" stroke="none" d="M 25 0.5 L 59.32872088948632 0.5 L 59.32872088948632 -0.5 L 25 -0.5 Z M 110.22715838948632 0.5 L 144.55587927897264 0.5 L 144.55587927897264 3.5 L 151.55587927897264 0 L 144.55587927897264 -3.5 L 144.55587927897264 -0.5 L 110.22715838948632 -0.5 Z"/><text text-anchor="middle" pointer-events="none" font-size="8px" fill="#000000" x="84.77793963948632" y="3" font-family="Helvetica Neue, Helvetica, Arial, sans-serif">HAS_UNITS</text></g><g class="relationship" transform="translate(-100.0668914790533 -115.753872590559) rotate(447.44812476481593)"><path class="b-outline" fill="#A5ABB6" stroke="none" d="M 25 0.5 L 71.48753663872986 0.5 L 71.48753663872986 -0.5 L 25 -0.5 Z M 122.38597413872986 0.5 L 168.87351077745973 0.5 L 168.87351077745973 3.5 L 175.87351077745973 0 L 168.87351077745973 -3.5 L 168.87351077745973 -0.5 L 122.38597413872986 -0.5 Z"/><text text-anchor="middle" pointer-events="none" font-size="8px" fill="#000000" x="96.93675538872986" y="3" font-family="Helvetica Neue, Helvetica, Arial, sans-serif">HAS_UNITS</text></g><g class="relationship" transform="translate(-204.71708821236368 -67.58720167221745) rotate(413.31976562699737)"><path class="b-outline" fill="#A5ABB6" stroke="none" d="M 25 0.5 L 66.13251791709527 0.5 L 66.13251791709527 -0.5 L 25 -0.5 Z M 117.03095541709527 0.5 L 158.16347333419054 0.5 L 158.16347333419054 3.5 L 165.16347333419054 0 L 158.16347333419054 -3.5 L 158.16347333419054 -0.5 L 117.03095541709527 -0.5 Z"/><text text-anchor="middle" pointer-events="none" font-size="8px" fill="#000000" x="91.58173666709527" y="3" font-family="Helvetica Neue, Helvetica, Arial, sans-serif">HAS_UNITS</text></g><g class="relationship" transform="translate(17.943950007785833 -349.37816454168) rotate(482.63755723261806)"><path class="b-outline" fill="#A5ABB6" stroke="none" d="M 25 0.5 L 25.09602766073739 0.5 L 25.09602766073739 -0.5 L 25 -0.5 Z M 108.44368391073739 0.5 L 108.53971157147478 0.5 L 108.53971157147478 3.5 L 115.53971157147478 0 L 108.53971157147478 -3.5 L 108.53971157147478 -0.5 L 108.44368391073739 -0.5 Z"/><text text-anchor="middle" pointer-events="none" font-size="8px" fill="#000000" x="66.76985578573739" y="3" transform="rotate(180 66.76985578573739 0)" font-family="Helvetica Neue, Helvetica, Arial, sans-serif">CONVERSIONFAC…</text></g></g><g class="layer nodes"><g class="node" aria-label="graph-node0" transform="translate(-91.1232191147079,84.92043582160788)"><circle class="b-outline" cx="0" cy="0" r="25" fill="#D9C8AE" stroke="#c0a378" stroke-width="2px"/><text class="caption" text-anchor="middle" pointer-events="none" x="0" y="5" font-size="10px" fill="#2A2C34" font-family="Helvetica Neue, Helvetica, Arial, sans-serif"> mole_pe…</text></g><g class="node" aria-label="graph-node1" transform="translate(-98.09825585678121,-13.27109772442891)"><circle class="b-outline" cx="0" cy="0" r="25" fill="#D9C8AE" stroke="#c0a378" stroke-width="2px"/><text class="caption" text-anchor="middle" pointer-events="none" x="0" y="5" font-size="10px" fill="#2A2C34" font-family="Helvetica Neue, Helvetica, Arial, sans-serif"> mole_litr…</text></g><g class="node" aria-label="graph-node2" transform="translate(192.77657125321807,32.92003600306113)"><circle class="b-outline" cx="0" cy="0" r="25" fill="#D9C8AE" stroke="#c0a378" stroke-width="2px"/><text class="caption" text-anchor="middle" pointer-events="none" x="0" y="5" font-size="10px" fill="#2A2C34" font-family="Helvetica Neue, Helvetica, Arial, sans-serif"> millimole</text></g><g class="node" aria-label="graph-node3" transform="translate(300.58081907572387,-127.3803894825525)"><circle class="b-outline" cx="0" cy="0" r="25" fill="#D9C8AE" stroke="#c0a378" stroke-width="2px"/><text class="caption" text-anchor="middle" pointer-events="none" x="0" y="5" font-size="10px" fill="#2A2C34" font-family="Helvetica Neue, Helvetica, Arial, sans-serif"> gram_pe…</text></g><g class="node" aria-label="graph-node4" transform="translate(278.3059233209595,-18.083176772878204)"><circle class="b-outline" cx="0" cy="0" r="25" fill="#D9C8AE" stroke="#c0a378" stroke-width="2px"/><text class="caption" text-anchor="middle" pointer-events="none" x="0" y="5" font-size="10px" fill="#2A2C34" font-family="Helvetica Neue, Helvetica, Arial, sans-serif"> millimole…</text></g><g class="node" aria-label="graph-node5" transform="translate(195.25203993225148,-256.89007626641654)"><circle class="b-outline" cx="0" cy="0" r="25" fill="#F79767" stroke="#f36924" stroke-width="2px"/><text class="caption" text-anchor="middle" pointer-events="none" x="0" y="5" font-size="10px" fill="#FFFFFF" font-family="Helvetica Neue, Helvetica, Arial, sans-serif"> comp</text></g><g class="node" aria-label="graph-node6" transform="translate(104.75197788779879,-127.55738551800053)"><circle class="b-outline" cx="0" cy="0" r="25" fill="#57C7E3" stroke="#23b3d7" stroke-width="2px"/><text class="caption" text-anchor="middle" pointer-events="none" x="0" y="5" font-size="10px" fill="#2A2C34" font-family="Helvetica Neue, Helvetica, Arial, sans-serif"> 9b34c49…</text></g><g class="node" aria-label="graph-node7" transform="translate(-253.13020134397155,69.94516941768705)"><circle class="b-outline" cx="0" cy="0" r="25" fill="#F16667" stroke="#eb2728" stroke-width="2px"/><text class="caption" text-anchor="middle" pointer-events="none" x="0" y="5" font-size="10px" fill="#FFFFFF" font-family="Helvetica Neue, Helvetica, Arial, sans-serif"> de25aa5…</text></g><g class="node" aria-label="graph-node8" transform="translate(-131.06744297133034,244.63539709867416)"><circle class="b-outline" cx="0" cy="0" r="25" fill="#F16667" stroke="#eb2728" stroke-width="2px"/><text class="caption" text-anchor="middle" pointer-events="none" x="0" y="5" font-size="10px" fill="#FFFFFF" font-family="Helvetica Neue, Helvetica, Arial, sans-serif"> c5bea27…</text></g><g class="node" aria-label="graph-node9" transform="translate(-44.7061854332666,195.03143455310908)"><circle class="b-outline" cx="0" cy="0" r="25" fill="#F16667" stroke="#eb2728" stroke-width="2px"/><text class="caption" text-anchor="middle" pointer-events="none" x="0" y="5" font-size="10px" fill="#FFFFFF" font-family="Helvetica Neue, Helvetica, Arial, sans-serif"> f5f0cb65…</text></g><g class="node" aria-label="graph-node10" transform="translate(-177.31694342636942,134.01099019499583)"><circle class="b-outline" cx="0" cy="0" r="25" fill="#F16667" stroke="#eb2728" stroke-width="2px"/><text class="caption" text-anchor="middle" pointer-events="none" x="0" y="5" font-size="10px" fill="#FFFFFF" font-family="Helvetica Neue, Helvetica, Arial, sans-serif"> 372a959…</text></g><g class="node" aria-label="graph-node11" transform="translate(5.1174184318797575,108.80748669503433)"><circle class="b-outline" cx="0" cy="0" r="25" fill="#F16667" stroke="#eb2728" stroke-width="2px"/><text class="caption" text-anchor="middle" pointer-events="none" x="0" y="5" font-size="10px" fill="#FFFFFF" font-family="Helvetica Neue, Helvetica, Arial, sans-serif"> 58bc566…</text></g><g class="node" aria-label="graph-node12" transform="translate(317.4005279770858,141.1328284820734)"><circle class="b-outline" cx="0" cy="0" r="25" fill="#F16667" stroke="#eb2728" stroke-width="2px"/><text class="caption" text-anchor="middle" pointer-events="none" x="0" y="5" font-size="10px" fill="#FFFFFF" font-family="Helvetica Neue, Helvetica, Arial, sans-serif"> 6d15457…</text></g><g class="node" aria-label="graph-node13" transform="translate(437.31269432429656,-191.66222387847878)"><circle class="b-outline" cx="0" cy="0" r="25" fill="#F16667" stroke="#eb2728" stroke-width="2px"/><text class="caption" text-anchor="middle" pointer-events="none" x="0" y="5" font-size="10px" fill="#FFFFFF" font-family="Helvetica Neue, Helvetica, Arial, sans-serif"> a587530…</text></g><g class="node" aria-label="graph-node14" transform="translate(430.78373517571373,-25.543647409169)"><circle class="b-outline" cx="0" cy="0" r="25" fill="#F16667" stroke="#eb2728" stroke-width="2px"/><text class="caption" text-anchor="middle" pointer-events="none" x="0" y="5" font-size="10px" fill="#FFFFFF" font-family="Helvetica Neue, Helvetica, Arial, sans-serif"> 56985b5…</text></g><g class="node" aria-label="graph-node15" transform="translate(11.248053618528166,-161.19278772881592)"><circle class="b-outline" cx="0" cy="0" r="25" fill="#ECB5C9" stroke="#da7298" stroke-width="2px"/><text class="caption" text-anchor="middle" pointer-events="none" x="0" y="5" font-size="10px" fill="#2A2C34" font-family="Helvetica Neue, Helvetica, Arial, sans-serif"> ES</text></g><g class="node" aria-label="graph-node16" transform="translate(17.943950007785833,-349.37816454168)"><circle class="b-outline" cx="0" cy="0" r="25" fill="#ECB5C9" stroke="#da7298" stroke-width="2px"/><text class="caption" text-anchor="middle" pointer-events="none" x="0" y="5" font-size="10px" fill="#2A2C34" font-family="Helvetica Neue, Helvetica, Arial, sans-serif"> P</text></g><g class="node" aria-label="graph-node17" transform="translate(114.0969822955749,-326.2631962627013)"><circle class="b-outline" cx="0" cy="0" r="25" fill="#ECB5C9" stroke="#da7298" stroke-width="2px"/><text class="caption" text-anchor="middle" pointer-events="none" x="0" y="5" font-size="10px" fill="#2A2C34" font-family="Helvetica Neue, Helvetica, Arial, sans-serif"> S</text></g><g class="node" aria-label="graph-node18" transform="translate(45.583120386216066,-254.35755902416753)"><circle class="b-outline" cx="0" cy="0" r="25" fill="#ECB5C9" stroke="#da7298" stroke-width="2px"/><text class="caption" text-anchor="middle" pointer-events="none" x="0" y="5" font-size="10px" fill="#2A2C34" font-family="Helvetica Neue, Helvetica, Arial, sans-serif"> E</text></g><g class="node" aria-label="graph-node19" transform="translate(-79.15361375546405,-327.86115252704775)"><circle class="b-outline" cx="0" cy="0" r="25" fill="#4C8EDA" stroke="#2870c2" stroke-width="2px"/><text class="caption" text-anchor="middle" pointer-events="none" x="0" y="5" font-size="10px" fill="#FFFFFF" font-family="Helvetica Neue, Helvetica, Arial, sans-serif"> veq</text></g><g class="node" aria-label="graph-node20" transform="translate(-152.2194205244931,-260.1575899461495)"><circle class="b-outline" cx="0" cy="0" r="25" fill="#4C8EDA" stroke="#2870c2" stroke-width="2px"/><text class="caption" text-anchor="middle" pointer-events="none" x="0" y="5" font-size="10px" fill="#FFFFFF" font-family="Helvetica Neue, Helvetica, Arial, sans-serif"> vcat</text></g><g class="node" aria-label="graph-node21" transform="translate(-177.89568699734548,-444.31507888602255)"><circle class="b-outline" cx="0" cy="0" r="25" fill="#FFC454" stroke="#d7a013" stroke-width="2px"/><text class="caption" text-anchor="middle" pointer-events="none" x="0" y="5" font-size="10px" fill="#2A2C34" font-family="Helvetica Neue, Helvetica, Arial, sans-serif"> 610499c…</text></g><g class="node" aria-label="graph-node22" transform="translate(-307.7955989027361,-278.44359806929776)"><circle class="b-outline" cx="0" cy="0" r="25" fill="#FFC454" stroke="#d7a013" stroke-width="2px"/><text class="caption" text-anchor="middle" pointer-events="none" x="0" y="5" font-size="10px" fill="#2A2C34" font-family="Helvetica Neue, Helvetica, Arial, sans-serif"> 9f540c2…</text></g><g class="node" aria-label="graph-node23" transform="translate(-185.5120197042723,-166.6686609318874)"><circle class="b-outline" cx="0" cy="0" r="25" fill="#DA7194" stroke="#cc3c6c" stroke-width="2px"/><text class="caption" text-anchor="middle" pointer-events="none" x="0" y="5" font-size="10px" fill="#FFFFFF" font-family="Helvetica Neue, Helvetica, Arial, sans-serif"> kon</text></g><g class="node" aria-label="graph-node24" transform="translate(-100.0668914790533,-115.753872590559)"><circle class="b-outline" cx="0" cy="0" r="25" fill="#DA7194" stroke="#cc3c6c" stroke-width="2px"/><text class="caption" text-anchor="middle" pointer-events="none" x="0" y="5" font-size="10px" fill="#FFFFFF" font-family="Helvetica Neue, Helvetica, Arial, sans-serif"> koff</text></g><g class="node" aria-label="graph-node25" transform="translate(-204.71708821236368,-67.58720167221745)"><circle class="b-outline" cx="0" cy="0" r="25" fill="#DA7194" stroke="#cc3c6c" stroke-width="2px"/><text class="caption" text-anchor="middle" pointer-events="none" x="0" y="5" font-size="10px" fill="#FFFFFF" font-family="Helvetica Neue, Helvetica, Arial, sans-serif"> kcat</text></g><g class="node" aria-label="graph-node26" transform="translate(66.11542138360076,20.97643568692888)"><circle class="b-outline" cx="0" cy="0" r="25" fill="#569480" stroke="#447666" stroke-width="2px"/><text class="caption" text-anchor="middle" pointer-events="none" x="0" y="5" font-size="10px" fill="#FFFFFF" font-family="Helvetica Neue, Helvetica, Arial, sans-serif"> convertT…</text></g><g class="node" aria-label="graph-node27" transform="translate(-57.85233403571887,-231.0298064888972)"><circle class="b-outline" cx="0" cy="0" r="25" fill="#569480" stroke="#447666" stroke-width="2px"/><text class="caption" text-anchor="middle" pointer-events="none" x="0" y="5" font-size="10px" fill="#FFFFFF" font-family="Helvetica Neue, Helvetica, Arial, sans-serif"> convertT…</text></g></g></svg>