<svg xmlns="http://www.w3.org/2000/svg" width="799.8563842773438" height="909.0507202148438" viewBox="-160.2831268310547 -621.1171875 799.8563842773438 909.0507202148438"><title>Neo4j Graph Visualization</title><desc>Created using Neo4j (http://www.neo4j.com/)</desc><g class="layer relationships"><g class="relationship" transform="translate(341.10176266282707 -156.30871210434847) rotate(454.18955246457136)"><path class="b-outline" fill="#A5ABB6" stroke="none" d="M 25 0.5 L 25.18824959800108 0.5 L 25.18824959800108 -0.5 L 25 -0.5 Z M 114.02028084800108 0.5 L 114.20853044600216 0.5 L 114.20853044600216 3.5 L 121.20853044600216 0 L 114.20853044600216 -3.5 L 114.20853044600216 -0.5 L 114.02028084800108 -0.5 Z"/><text text-anchor="middle" pointer-events="none" font-size="8px" fill="#000000" x="69.60426522300108" y="3" transform="rotate(180 69.60426522300108 0)" font-family="Helvetica Neue, Helvetica, Arial, sans-serif">HAS_COMPARTMENT</text></g><g class="relationship" transform="translate(341.10176266282707 -156.30871210434847) rotate(495.70767510675415)"><path class="b-outline" fill="#A5ABB6" stroke="none" d="M 25 0.5 L 26.16109078419872 0.5 L 26.16109078419872 -0.5 L 25 -0.5 Z M 100.32905953419872 0.5 L 101.49015031839744 0.5 L 101.49015031839744 3.5 L 108.49015031839744 0 L 101.49015031839744 -3.5 L 101.49015031839744 -0.5 L 100.32905953419872 -0.5 Z"/><text text-anchor="middle" pointer-events="none" font-size="8px" fill="#000000" x="63.24507515919872" y="3" transform="rotate(180 63.24507515919872 0)" font-family="Helvetica Neue, Helvetica, Arial, sans-serif">HAS_COMPART…</text></g><g class="relationship" transform="translate(341.10176266282707 -156.30871210434847) rotate(183.5409023316576)"><path class="b-outline" fill="#A5ABB6" stroke="none" d="M 25 0.5 L 25.602268228508244 0.5 L 25.602268228508244 -0.5 L 25 -0.5 Z M 66.27804947850825 0.5 L 66.88031770701649 0.5 L 66.88031770701649 3.5 L 73.88031770701649 0 L 66.88031770701649 -3.5 L 66.88031770701649 -0.5 L 66.27804947850825 -0.5 Z"/><text text-anchor="middle" pointer-events="none" font-size="8px" fill="#000000" x="45.940158853508244" y="3" transform="rotate(180 45.940158853508244 0)" font-family="Helvetica Neue, Helvetica, Arial, sans-serif">HAS_C…</text></g><g class="relationship" transform="translate(429.66813041693973 -3.5176984556538216) rotate(417.6608534948521)"><path class="b-outline" fill="#A5ABB6" stroke="none" d="M 25 0.5 L 44.516024792182606 0.5 L 44.516024792182606 -0.5 L 25 -0.5 Z M 109.1957122921826 0.5 L 128.7117370843652 0.5 L 128.7117370843652 3.5 L 135.7117370843652 0 L 128.7117370843652 -3.5 L 128.7117370843652 -0.5 L 109.1957122921826 -0.5 Z"/><text text-anchor="middle" pointer-events="none" font-size="8px" fill="#000000" x="76.8558685421826" y="3" font-family="Helvetica Neue, Helvetica, Arial, sans-serif">IS_COMPOSED</text></g><g class="relationship" transform="translate(255.66831950268477 54.146525847304254) rotate(476.0330936069412)"><path class="b-outline" fill="#A5ABB6" stroke="none" d="M 25 0.5 L 50.46094255388935 0.5 L 50.46094255388935 -0.5 L 25 -0.5 Z M 115.14063005388935 0.5 L 140.6015726077787 0.5 L 140.6015726077787 3.5 L 147.6015726077787 0 L 140.6015726077787 -3.5 L 140.6015726077787 -0.5 L 115.14063005388935 -0.5 Z"/><text text-anchor="middle" pointer-events="none" font-size="8px" fill="#000000" x="82.80078630388935" y="3" transform="rotate(180 82.80078630388935 0)" font-family="Helvetica Neue, Helvetica, Arial, sans-serif">IS_COMPOSED</text></g><g class="relationship" transform="translate(522.7100665243446 -153.40612265206127) rotate(425.6255835012722)"><path class="b-outline" fill="#A5ABB6" stroke="none" d="M 25 0.5 L 51.083950440464164 0.5 L 51.083950440464164 -0.5 L 25 -0.5 Z M 115.76363794046416 0.5 L 141.84758838092833 0.5 L 141.84758838092833 3.5 L 148.84758838092833 0 L 141.84758838092833 -3.5 L 141.84758838092833 -0.5 L 115.76363794046416 -0.5 Z"/><text text-anchor="middle" pointer-events="none" font-size="8px" fill="#000000" x="83.42379419046416" y="3" font-family="Helvetica Neue, Helvetica, Arial, sans-serif">IS_COMPOSED</text></g><g class="relationship" transform="translate(414.0289491182668 94.64868158998611) rotate(444.71403117790464)"><path class="b-outline" fill="#A5ABB6" stroke="none" d="M 25 0.5 L 46.6533667640426 0.5 L 46.6533667640426 -0.5 L 25 -0.5 Z M 111.3330542640426 0.5 L 132.9864210280852 0.5 L 132.9864210280852 3.5 L 139.9864210280852 0 L 132.9864210280852 -3.5 L 132.9864210280852 -0.5 L 111.3330542640426 -0.5 Z"/><text text-anchor="middle" pointer-events="none" font-size="8px" fill="#000000" x="78.9932105140426" y="3" font-family="Helvetica Neue, Helvetica, Arial, sans-serif">IS_COMPOSED</text></g><g class="relationship" transform="translate(414.0289491182668 94.64868158998611) rotate(479.52806549210226)"><path class="b-outline" fill="#A5ABB6" stroke="none" d="M 25 0.5 L 47.93289352745637 0.5 L 47.93289352745637 -0.5 L 25 -0.5 Z M 112.61258102745637 0.5 L 135.54547455491274 0.5 L 135.54547455491274 3.5 L 142.54547455491274 0 L 135.54547455491274 -3.5 L 135.54547455491274 -0.5 L 112.61258102745637 -0.5 Z"/><text text-anchor="middle" pointer-events="none" font-size="8px" fill="#000000" x="80.27273727745637" y="3" transform="rotate(180 80.27273727745637 0)" font-family="Helvetica Neue, Helvetica, Arial, sans-serif">IS_COMPOSED</text></g><g class="relationship" transform="translate(414.0289491182668 94.64868158998611) rotate(333.56496827733395)"><path class="b-outline" fill="#A5ABB6" stroke="none" d="M 25 0.5 L 64.90821312075019 0.5 L 64.90821312075019 -0.5 L 25 -0.5 Z M 129.5879006207502 0.5 L 169.49611374150038 0.5 L 169.49611374150038 3.5 L 176.49611374150038 0 L 169.49611374150038 -3.5 L 169.49611374150038 -0.5 L 129.5879006207502 -0.5 Z"/><text text-anchor="middle" pointer-events="none" font-size="8px" fill="#000000" x="97.24805687075019" y="3" font-family="Helvetica Neue, Helvetica, Arial, sans-serif">IS_COMPOSED</text></g><g class="relationship" transform="translate(514.8908353526381 -53.92266602363971) rotate(449.77019547360203)"><path class="b-outline" fill="#A5ABB6" stroke="none" d="M 25 0.5 L 57.25578474627757 0.5 L 57.25578474627757 -0.5 L 25 -0.5 Z M 121.93547224627757 0.5 L 154.19125699255514 0.5 L 154.19125699255514 3.5 L 161.19125699255514 0 L 154.19125699255514 -3.5 L 154.19125699255514 -0.5 L 121.93547224627757 -0.5 Z"/><text text-anchor="middle" pointer-events="none" font-size="8px" fill="#000000" x="89.59562849627757" y="3" font-family="Helvetica Neue, Helvetica, Arial, sans-serif">IS_COMPOSED</text></g><g class="relationship" transform="translate(514.8908353526381 -53.92266602363971) rotate(418.5471660627816)"><path class="b-outline" fill="#A5ABB6" stroke="none" d="M 25 0.5 L 55.84568612142397 0.5 L 55.84568612142397 -0.5 L 25 -0.5 Z M 120.52537362142397 0.5 L 151.37105974284793 0.5 L 151.37105974284793 3.5 L 158.37105974284793 0 L 151.37105974284793 -3.5 L 151.37105974284793 -0.5 L 120.52537362142397 -0.5 Z"/><text text-anchor="middle" pointer-events="none" font-size="8px" fill="#000000" x="88.18552987142397" y="3" font-family="Helvetica Neue, Helvetica, Arial, sans-serif">IS_COMPOSED</text></g><g class="relationship" transform="translate(341.10176266282707 -156.30871210434847) rotate(419.9009781599449)"><path class="b-outline" fill="#A5ABB6" stroke="none" d="M 25 0.5 L 39.3549078320451 0.5 L 39.3549078320451 -0.5 L 25 -0.5 Z M 130.24943908204511 0.5 L 144.6043469140902 0.5 L 144.6043469140902 3.5 L 151.6043469140902 0 L 144.6043469140902 -3.5 L 144.6043469140902 -0.5 L 130.24943908204511 -0.5 Z"/><text text-anchor="middle" pointer-events="none" font-size="8px" fill="#000000" x="84.8021734570451" y="3" font-family="Helvetica Neue, Helvetica, Arial, sans-serif">HAS_UNITDEFINITION</text></g><g class="relationship" transform="translate(341.10176266282707 -156.30871210434847) rotate(472.09449184928786)"><path class="b-outline" fill="#A5ABB6" stroke="none" d="M 25 0.5 L 64.62020373956324 0.5 L 64.62020373956324 -0.5 L 25 -0.5 Z M 155.51473498956324 0.5 L 195.13493872912647 0.5 L 195.13493872912647 3.5 L 202.13493872912647 0 L 195.13493872912647 -3.5 L 195.13493872912647 -0.5 L 155.51473498956324 -0.5 Z"/><text text-anchor="middle" pointer-events="none" font-size="8px" fill="#000000" x="110.06746936456324" y="3" transform="rotate(180 110.06746936456324 0)" font-family="Helvetica Neue, Helvetica, Arial, sans-serif">HAS_UNITDEFINITION</text></g><g class="relationship" transform="translate(341.10176266282707 -156.30871210434847) rotate(360.9156627926217)"><path class="b-outline" fill="#A5ABB6" stroke="none" d="M 25 0.5 L 41.86848336297264 0.5 L 41.86848336297264 -0.5 L 25 -0.5 Z M 132.76301461297265 0.5 L 149.63149797594528 0.5 L 149.63149797594528 3.5 L 156.63149797594528 0 L 149.63149797594528 -3.5 L 149.63149797594528 -0.5 L 132.76301461297265 -0.5 Z"/><text text-anchor="middle" pointer-events="none" font-size="8px" fill="#000000" x="87.31574898797264" y="3" font-family="Helvetica Neue, Helvetica, Arial, sans-serif">HAS_UNITDEFINITION</text></g><g class="relationship" transform="translate(341.10176266282707 -156.30871210434847) rotate(433.7963527695963)"><path class="b-outline" fill="#A5ABB6" stroke="none" d="M 25 0.5 L 81.72215311381558 0.5 L 81.72215311381558 -0.5 L 25 -0.5 Z M 172.61668436381558 0.5 L 229.33883747763116 0.5 L 229.33883747763116 3.5 L 236.33883747763116 0 L 229.33883747763116 -3.5 L 229.33883747763116 -0.5 L 172.61668436381558 -0.5 Z"/><text text-anchor="middle" pointer-events="none" font-size="8px" fill="#000000" x="127.16941873881558" y="3" font-family="Helvetica Neue, Helvetica, Arial, sans-serif">HAS_UNITDEFINITION</text></g><g class="relationship" transform="translate(341.10176266282707 -156.30871210434847) rotate(390.50402831923327)"><path class="b-outline" fill="#A5ABB6" stroke="none" d="M 25 0.5 L 51.90602413099337 0.5 L 51.90602413099337 -0.5 L 25 -0.5 Z M 142.8005553809934 0.5 L 169.70657951198675 0.5 L 169.70657951198675 3.5 L 176.70657951198675 0 L 169.70657951198675 -3.5 L 169.70657951198675 -0.5 L 142.8005553809934 -0.5 Z"/><text text-anchor="middle" pointer-events="none" font-size="8px" fill="#000000" x="97.35328975599337" y="3" font-family="Helvetica Neue, Helvetica, Arial, sans-serif">HAS_UNITDEFINITION</text></g><g class="relationship" transform="translate(341.10176266282707 -156.30871210434847) rotate(295.1266103807299)"><path class="b-outline" fill="#A5ABB6" stroke="none" d="M 25 0.5 L 42.458537980609535 0.5 L 42.458537980609535 -0.5 L 25 -0.5 Z M 104.03666298060953 0.5 L 121.49520096121907 0.5 L 121.49520096121907 3.5 L 128.49520096121907 0 L 121.49520096121907 -3.5 L 121.49520096121907 -0.5 L 104.03666298060953 -0.5 Z"/><text text-anchor="middle" pointer-events="none" font-size="8px" fill="#000000" x="73.24760048060953" y="3" font-family="Helvetica Neue, Helvetica, Arial, sans-serif">HAS_SPECIES</text></g><g class="relationship" transform="translate(341.10176266282707 -156.30871210434847) rotate(527.5060760943521)"><path class="b-outline" fill="#A5ABB6" stroke="none" d="M 25 0.5 L 60.94639970104578 0.5 L 60.94639970104578 -0.5 L 25 -0.5 Z M 122.52452470104578 0.5 L 158.47092440209155 0.5 L 158.47092440209155 3.5 L 165.47092440209155 0 L 158.47092440209155 -3.5 L 158.47092440209155 -0.5 L 122.52452470104578 -0.5 Z"/><text text-anchor="middle" pointer-events="none" font-size="8px" fill="#000000" x="91.73546220104578" y="3" transform="rotate(180 91.73546220104578 0)" font-family="Helvetica Neue, Helvetica, Arial, sans-serif">HAS_SPECIES</text></g><g class="relationship" transform="translate(341.10176266282707 -156.30871210434847) rotate(257.48276359646127)"><path class="b-outline" fill="#A5ABB6" stroke="none" d="M 25 0.5 L 61.92490037902563 0.5 L 61.92490037902563 -0.5 L 25 -0.5 Z M 123.50302537902563 0.5 L 160.42792575805126 0.5 L 160.42792575805126 3.5 L 167.42792575805126 0 L 160.42792575805126 -3.5 L 160.42792575805126 -0.5 L 123.50302537902563 -0.5 Z"/><text text-anchor="middle" pointer-events="none" font-size="8px" fill="#000000" x="92.71396287902563" y="3" transform="rotate(180 92.71396287902563 0)" font-family="Helvetica Neue, Helvetica, Arial, sans-serif">HAS_SPECIES</text></g><g class="relationship" transform="translate(341.10176266282707 -156.30871210434847) rotate(226.3649455688306)"><path class="b-outline" fill="#A5ABB6" stroke="none" d="M 25 0.5 L 110.14207600106712 0.5 L 110.14207600106712 -0.5 L 25 -0.5 Z M 171.72020100106712 0.5 L 256.86227700213425 0.5 L 256.86227700213425 3.5 L 263.86227700213425 0 L 256.86227700213425 -3.5 L 256.86227700213425 -0.5 L 171.72020100106712 -0.5 Z"/><text text-anchor="middle" pointer-events="none" font-size="8px" fill="#000000" x="140.93113850106712" y="3" transform="rotate(180 140.93113850106712 0)" font-family="Helvetica Neue, Helvetica, Arial, sans-serif">HAS_SPECIES</text></g><g class="relationship" transform="translate(341.10176266282707 -156.30871210434847) rotate(499.0934806187097)"><path class="b-outline" fill="#A5ABB6" stroke="none" d="M 25 0.5 L 81.77722580467642 0.5 L 81.77722580467642 -0.5 L 25 -0.5 Z M 143.35535080467642 0.5 L 200.13257660935284 0.5 L 200.13257660935284 3.5 L 207.13257660935284 0 L 200.13257660935284 -3.5 L 200.13257660935284 -0.5 L 143.35535080467642 -0.5 Z"/><text text-anchor="middle" pointer-events="none" font-size="8px" fill="#000000" x="112.56628830467642" y="3" transform="rotate(180 112.56628830467642 0)" font-family="Helvetica Neue, Helvetica, Arial, sans-serif">HAS_SPECIES</text></g><g class="relationship" transform="translate(341.10176266282707 -156.30871210434847) rotate(243.06281374140138)"><path class="b-outline" fill="#A5ABB6" stroke="none" d="M 25 0.5 L 25.951830068282597 0.5 L 25.951830068282597 -0.5 L 25 -0.5 Z M 66.18620506828259 0.5 L 67.1380351365652 0.5 L 67.1380351365652 3.5 L 74.1380351365652 0 L 67.1380351365652 -3.5 L 67.1380351365652 -0.5 L 66.18620506828259 -0.5 Z"/><text text-anchor="middle" pointer-events="none" font-size="8px" fill="#000000" x="46.0690175682826" y="3" transform="rotate(180 46.0690175682826 0)" font-family="Helvetica Neue, Helvetica, Arial, sans-serif">HAS_S…</text></g><g class="relationship" transform="translate(341.10176266282707 -156.30871210434847) rotate(197.4462239821479)"><path class="b-outline" fill="#A5ABB6" stroke="none" d="M 25 0.5 L 61.5483441187792 0.5 L 61.5483441187792 -0.5 L 25 -0.5 Z M 123.1264691187792 0.5 L 159.6748132375584 0.5 L 159.6748132375584 3.5 L 166.6748132375584 0 L 159.6748132375584 -3.5 L 159.6748132375584 -0.5 L 123.1264691187792 -0.5 Z"/><text text-anchor="middle" pointer-events="none" font-size="8px" fill="#000000" x="92.3374066187792" y="3" transform="rotate(180 92.3374066187792 0)" font-family="Helvetica Neue, Helvetica, Arial, sans-serif">HAS_SPECIES</text></g><g class="relationship" transform="translate(341.10176266282707 -156.30871210434847) rotate(227.82077003621635)"><path class="b-outline" fill="#A5ABB6" stroke="none" d="M 25 0.5 L 61.015059614633685 0.5 L 61.015059614633685 -0.5 L 25 -0.5 Z M 122.59318461463369 0.5 L 158.60824422926737 0.5 L 158.60824422926737 3.5 L 165.60824422926737 0 L 158.60824422926737 -3.5 L 158.60824422926737 -0.5 L 122.59318461463369 -0.5 Z"/><text text-anchor="middle" pointer-events="none" font-size="8px" fill="#000000" x="91.80412211463369" y="3" transform="rotate(180 91.80412211463369 0)" font-family="Helvetica Neue, Helvetica, Arial, sans-serif">HAS_SPECIES</text></g><g class="relationship" transform="translate(406.27888848330167 -295.278921098604) rotate(500.9651707424572)"><path class="b-outline" fill="#A5ABB6" stroke="none" d="M 25 0.5 L 61.79033127060474 0.5 L 61.79033127060474 -0.5 L 25 -0.5 Z M 142.17314377060472 0.5 L 178.96347504120948 0.5 L 178.96347504120948 3.5 L 185.96347504120948 0 L 178.96347504120948 -3.5 L 178.96347504120948 -0.5 L 142.17314377060472 -0.5 Z"/><text text-anchor="middle" pointer-events="none" font-size="8px" fill="#000000" x="101.98173752060474" y="3" transform="rotate(180 101.98173752060474 0)" font-family="Helvetica Neue, Helvetica, Arial, sans-serif">IN_COMPARTMENT</text></g><g class="relationship" transform="translate(155.14138887149565 -115.10297922680377) rotate(331.5357178689489)"><path class="b-outline" fill="#A5ABB6" stroke="none" d="M 25 0.5 L 26.909899112757522 0.5 L 26.909899112757522 -0.5 L 25 -0.5 Z M 65.35911786275753 0.5 L 67.26901697551504 0.5 L 67.26901697551504 3.5 L 74.26901697551504 0 L 67.26901697551504 -3.5 L 67.26901697551504 -0.5 L 65.35911786275753 -0.5 Z"/><text text-anchor="middle" pointer-events="none" font-size="8px" fill="#000000" x="46.13450848775752" y="3" font-family="Helvetica Neue, Helvetica, Arial, sans-serif">IN_CO…</text></g><g class="relationship" transform="translate(299.39622229794 -344.1627898200554) rotate(467.4085870053505)"><path class="b-outline" fill="#A5ABB6" stroke="none" d="M 25 0.5 L 51.544383062055346 0.5 L 51.544383062055346 -0.5 L 25 -0.5 Z M 131.92719556205535 0.5 L 158.4715786241107 0.5 L 158.4715786241107 3.5 L 165.4715786241107 0 L 158.4715786241107 -3.5 L 158.4715786241107 -0.5 L 131.92719556205535 -0.5 Z"/><text text-anchor="middle" pointer-events="none" font-size="8px" fill="#000000" x="91.73578931205535" y="3" transform="rotate(180 91.73578931205535 0)" font-family="Helvetica Neue, Helvetica, Arial, sans-serif">IN_COMPARTMENT</text></g><g class="relationship" transform="translate(141.7687451431842 -365.3727290976405) rotate(423.6243066379948)"><path class="b-outline" fill="#A5ABB6" stroke="none" d="M 25 0.5 L 69.5784859338069 0.5 L 69.5784859338069 -0.5 L 25 -0.5 Z M 149.96129843380692 0.5 L 194.5397843676138 0.5 L 194.5397843676138 3.5 L 201.5397843676138 0 L 194.5397843676138 -3.5 L 194.5397843676138 -0.5 L 149.96129843380692 -0.5 Z"/><text text-anchor="middle" pointer-events="none" font-size="8px" fill="#000000" x="109.7698921838069" y="3" font-family="Helvetica Neue, Helvetica, Arial, sans-serif">IN_COMPARTMENT</text></g><g class="relationship" transform="translate(165.66084421474508 -4.302076534086228) rotate(357.8488302204428)"><path class="b-outline" fill="#A5ABB6" stroke="none" d="M 25 0.5 L 38.746419247788836 0.5 L 38.746419247788836 -0.5 L 25 -0.5 Z M 119.12923174778884 0.5 L 132.87565099557767 0.5 L 132.87565099557767 3.5 L 139.87565099557767 0 L 132.87565099557767 -3.5 L 132.87565099557767 -0.5 L 119.12923174778884 -0.5 Z"/><text text-anchor="middle" pointer-events="none" font-size="8px" fill="#000000" x="78.93782549778884" y="3" font-family="Helvetica Neue, Helvetica, Arial, sans-serif">IN_COMPARTMENT</text></g><g class="relationship" transform="translate(296.19090322792124 -244.69063738071347) rotate(465.5811890255644)"><path class="b-outline" fill="#A5ABB6" stroke="none" d="M 25 0.5 L 50.57308181960984 0.5 L 50.57308181960984 -0.5 L 25 -0.5 Z M 130.95589431960985 0.5 L 156.52897613921968 0.5 L 156.52897613921968 3.5 L 163.52897613921968 0 L 156.52897613921968 -3.5 L 156.52897613921968 -0.5 L 130.95589431960985 -0.5 Z"/><text text-anchor="middle" pointer-events="none" font-size="8px" fill="#000000" x="90.76448806960984" y="3" transform="rotate(180 90.76448806960984 0)" font-family="Helvetica Neue, Helvetica, Arial, sans-serif">IN_COMPARTMENT</text></g><g class="relationship" transform="translate(158.24422781149858 -213.77484106522485) rotate(419.9119149456074)"><path class="b-outline" fill="#A5ABB6" stroke="none" d="M 25 0.5 L 43.38394778574437 0.5 L 43.38394778574437 -0.5 L 25 -0.5 Z M 123.76676028574437 0.5 L 142.15070807148874 0.5 L 142.15070807148874 3.5 L 149.15070807148874 0 L 142.15070807148874 -3.5 L 142.15070807148874 -0.5 L 123.76676028574437 -0.5 Z"/><text text-anchor="middle" pointer-events="none" font-size="8px" fill="#000000" x="83.57535403574437" y="3" font-family="Helvetica Neue, Helvetica, Arial, sans-serif">IN_COMPARTMENT</text></g><g class="relationship" transform="translate(213.11747596540056 -297.5585798094723) rotate(437.7701108288481)"><path class="b-outline" fill="#A5ABB6" stroke="none" d="M 25 0.5 L 25.44915949558937 0.5 L 25.44915949558937 -0.5 L 25 -0.5 Z M 105.83197199558937 0.5 L 106.28113149117874 0.5 L 106.28113149117874 3.5 L 113.28113149117874 0 L 106.28113149117874 -3.5 L 106.28113149117874 -0.5 L 105.83197199558937 -0.5 Z"/><text text-anchor="middle" pointer-events="none" font-size="8px" fill="#000000" x="65.64056574558937" y="3" font-family="Helvetica Neue, Helvetica, Arial, sans-serif">IN_COMPARTMENT</text></g><g class="relationship" transform="translate(341.10176266282707 -156.30871210434847) rotate(267.7390576461187)"><path class="b-outline" fill="#A5ABB6" stroke="none" d="M 25 0.5 L 103.86191975541345 0.5 L 103.86191975541345 -0.5 L 25 -0.5 Z M 172.09629475541345 0.5 L 250.9582145108269 0.5 L 250.9582145108269 3.5 L 257.9582145108269 0 L 250.9582145108269 -3.5 L 250.9582145108269 -0.5 L 172.09629475541345 -0.5 Z"/><text text-anchor="middle" pointer-events="none" font-size="8px" fill="#000000" x="137.97910725541345" y="3" transform="rotate(180 137.97910725541345 0)" font-family="Helvetica Neue, Helvetica, Arial, sans-serif">HAS_REACTION</text></g><g class="relationship" transform="translate(341.10176266282707 -156.30871210434847) rotate(207.55092435703023)"><path class="b-outline" fill="#A5ABB6" stroke="none" d="M 25 0.5 L 116.24260123272794 0.5 L 116.24260123272794 -0.5 L 25 -0.5 Z M 184.47697623272794 0.5 L 275.71957746545587 0.5 L 275.71957746545587 3.5 L 282.71957746545587 0 L 275.71957746545587 -3.5 L 275.71957746545587 -0.5 L 184.47697623272794 -0.5 Z"/><text text-anchor="middle" pointer-events="none" font-size="8px" fill="#000000" x="150.35978873272794" y="3" transform="rotate(180 150.35978873272794 0)" font-family="Helvetica Neue, Helvetica, Arial, sans-serif">HAS_REACTION</text></g><g class="relationship" transform="translate(341.10176266282707 -156.30871210434847) rotate(525.5919979376375)"><path class="b-outline" fill="#A5ABB6" stroke="none" d="M 25 0.5 L 106.97642042620333 0.5 L 106.97642042620333 -0.5 L 25 -0.5 Z M 175.21079542620333 0.5 L 257.18721585240667 0.5 L 257.18721585240667 3.5 L 264.18721585240667 0 L 257.18721585240667 -3.5 L 257.18721585240667 -0.5 L 175.21079542620333 -0.5 Z"/><text text-anchor="middle" pointer-events="none" font-size="8px" fill="#000000" x="141.09360792620333" y="3" transform="rotate(180 141.09360792620333 0)" font-family="Helvetica Neue, Helvetica, Arial, sans-serif">HAS_REACTION</text></g><g class="relationship" transform="translate(341.10176266282707 -156.30871210434847) rotate(185.60612221117475)"><path class="b-outline" fill="#A5ABB6" stroke="none" d="M 25 0.5 L 101.75434815266044 0.5 L 101.75434815266044 -0.5 L 25 -0.5 Z M 169.98872315266044 0.5 L 246.74307130532088 0.5 L 246.74307130532088 3.5 L 253.74307130532088 0 L 246.74307130532088 -3.5 L 246.74307130532088 -0.5 L 169.98872315266044 -0.5 Z"/><text text-anchor="middle" pointer-events="none" font-size="8px" fill="#000000" x="135.87153565266044" y="3" transform="rotate(180 135.87153565266044 0)" font-family="Helvetica Neue, Helvetica, Arial, sans-serif">HAS_REACTION</text></g><g class="relationship" transform="translate(329.93887776995155 -439.0466493537094) rotate(294.1490772676091)"><path class="b-outline" fill="#A5ABB6" stroke="none" d="M 25 0.5 L 33.7631915824916 0.5 L 33.7631915824916 -0.5 L 25 -0.5 Z M 112.3764728324916 0.5 L 121.1396644149832 0.5 L 121.1396644149832 3.5 L 128.1396644149832 0 L 121.1396644149832 -3.5 L 121.1396644149832 -0.5 L 112.3764728324916 -0.5 Z"/><text text-anchor="middle" pointer-events="none" font-size="8px" fill="#000000" x="73.0698322074916" y="3" font-family="Helvetica Neue, Helvetica, Arial, sans-serif">HAS_KENETICLAW</text></g><g class="relationship" transform="translate(68.27756011822058 -298.64034197423456) rotate(252.49745676614276)"><path class="b-outline" fill="#A5ABB6" stroke="none" d="M 25 0.5 L 39.244801889510825 0.5 L 39.244801889510825 -0.5 L 25 -0.5 Z M 117.85808313951082 0.5 L 132.10288502902165 0.5 L 132.10288502902165 3.5 L 139.10288502902165 0 L 132.10288502902165 -3.5 L 132.10288502902165 -0.5 L 117.85808313951082 -0.5 Z"/><text text-anchor="middle" pointer-events="none" font-size="8px" fill="#000000" x="78.55144251451082" y="3" transform="rotate(180 78.55144251451082 0)" font-family="Helvetica Neue, Helvetica, Arial, sans-serif">HAS_KENETICLAW</text></g><g class="relationship" transform="translate(61.00994193314952 -84.3516570450938) rotate(231.81768716130472)"><path class="b-outline" fill="#A5ABB6" stroke="none" d="M 25 0.5 L 33.735240464976954 0.5 L 33.735240464976954 -0.5 L 25 -0.5 Z M 112.34852171497695 0.5 L 121.08376217995391 0.5 L 121.08376217995391 3.5 L 128.0837621799539 0 L 121.08376217995391 -3.5 L 121.08376217995391 -0.5 L 112.34852171497695 -0.5 Z"/><text text-anchor="middle" pointer-events="none" font-size="8px" fill="#000000" x="73.04188108997695" y="3" transform="rotate(180 73.04188108997695 0)" font-family="Helvetica Neue, Helvetica, Arial, sans-serif">HAS_KENETICLAW</text></g><g class="relationship" transform="translate(63.69192858249098 -183.53891144705554) rotate(190.27170200290902)"><path class="b-outline" fill="#A5ABB6" stroke="none" d="M 25 0.5 L 56.268744795463874 0.5 L 56.268744795463874 -0.5 L 25 -0.5 Z M 134.88202604546387 0.5 L 166.15077084092775 0.5 L 166.15077084092775 3.5 L 173.15077084092775 0 L 166.15077084092775 -3.5 L 166.15077084092775 -0.5 L 134.88202604546387 -0.5 Z"/><text text-anchor="middle" pointer-events="none" font-size="8px" fill="#000000" x="95.57538542046387" y="3" transform="rotate(180 95.57538542046387 0)" font-family="Helvetica Neue, Helvetica, Arial, sans-serif">HAS_KENETICLAW</text></g><g class="relationship" transform="translate(213.11747596540056 -297.5585798094723) rotate(309.54521190956393)"><path class="b-outline" fill="#A5ABB6" stroke="none" d="M 25 0.5 L 57.97601459584442 0.5 L 57.97601459584442 -0.5 L 25 -0.5 Z M 118.50726459584442 0.5 L 151.48327919168884 0.5 L 151.48327919168884 3.5 L 158.48327919168884 0 L 151.48327919168884 -3.5 L 151.48327919168884 -0.5 L 118.50726459584442 -0.5 Z"/><text text-anchor="middle" pointer-events="none" font-size="8px" fill="#000000" x="88.24163959584442" y="3" font-family="Helvetica Neue, Helvetica, Arial, sans-serif">IS_REACTANT</text></g><g class="relationship" transform="translate(141.7687451431842 -365.3727290976405) rotate(338.6182540559149)"><path class="b-outline" fill="#A5ABB6" stroke="none" d="M 25 0.5 L 67.27377986101551 0.5 L 67.27377986101551 -0.5 L 25 -0.5 Z M 127.80502986101551 0.5 L 170.07880972203102 0.5 L 170.07880972203102 3.5 L 177.07880972203102 0 L 170.07880972203102 -3.5 L 170.07880972203102 -0.5 L 127.80502986101551 -0.5 Z"/><text text-anchor="middle" pointer-events="none" font-size="8px" fill="#000000" x="97.53940486101551" y="3" font-family="Helvetica Neue, Helvetica, Arial, sans-serif">IS_REACTANT</text></g><g class="relationship" transform="translate(141.7687451431842 -365.3727290976405) rotate(497.75952974101864)"><path class="b-outline" fill="#A5ABB6" stroke="none" d="M 25 0.5 L 27.573528535854464 0.5 L 27.573528535854464 -0.5 L 25 -0.5 Z M 64.69462228585446 0.5 L 67.26815082170893 0.5 L 67.26815082170893 3.5 L 74.26815082170893 0 L 67.26815082170893 -3.5 L 67.26815082170893 -0.5 L 64.69462228585446 -0.5 Z"/><text text-anchor="middle" pointer-events="none" font-size="8px" fill="#000000" x="46.134075410854464" y="3" transform="rotate(180 46.134075410854464 0)" font-family="Helvetica Neue, Helvetica, Arial, sans-serif">IS_RE…</text></g><g class="relationship" transform="translate(155.14138887149565 -115.10297922680377) rotate(244.67292967838125)"><path class="b-outline" fill="#A5ABB6" stroke="none" d="M 25 0.5 L 67.76181989787021 0.5 L 67.76181989787021 -0.5 L 25 -0.5 Z M 128.29306989787023 0.5 L 171.05488979574042 0.5 L 171.05488979574042 3.5 L 178.05488979574042 0 L 171.05488979574042 -3.5 L 171.05488979574042 -0.5 L 128.29306989787023 -0.5 Z"/><text text-anchor="middle" pointer-events="none" font-size="8px" fill="#000000" x="98.02744489787021" y="3" transform="rotate(180 98.02744489787021 0)" font-family="Helvetica Neue, Helvetica, Arial, sans-serif">IS_REACTANT</text></g><g class="relationship" transform="translate(141.7687451431842 -365.3727290976405) rotate(466.03339807809795)"><path class="b-outline" fill="#A5ABB6" stroke="none" d="M 25 0.5 L 112.43186748318158 0.5 L 112.43186748318158 -0.5 L 25 -0.5 Z M 172.96311748318158 0.5 L 260.39498496636315 0.5 L 260.39498496636315 3.5 L 267.39498496636315 0 L 260.39498496636315 -3.5 L 260.39498496636315 -0.5 L 172.96311748318158 -0.5 Z"/><text text-anchor="middle" pointer-events="none" font-size="8px" fill="#000000" x="142.69749248318158" y="3" transform="rotate(180 142.69749248318158 0)" font-family="Helvetica Neue, Helvetica, Arial, sans-serif">IS_REACTANT</text></g><g class="relationship" transform="translate(165.66084421474508 -4.302076534086228) rotate(240.36419134706745)"><path class="b-outline" fill="#A5ABB6" stroke="none" d="M 25 0.5 L 69.34051296573504 0.5 L 69.34051296573504 -0.5 L 25 -0.5 Z M 129.87176296573506 0.5 L 174.2122759314701 0.5 L 174.2122759314701 3.5 L 181.2122759314701 0 L 174.2122759314701 -3.5 L 174.2122759314701 -0.5 L 129.87176296573506 -0.5 Z"/><text text-anchor="middle" pointer-events="none" font-size="8px" fill="#000000" x="99.60613796573504" y="3" transform="rotate(180 99.60613796573504 0)" font-family="Helvetica Neue, Helvetica, Arial, sans-serif">IS_REACTANT</text></g><g class="relationship" transform="translate(329.93887776995155 -439.0466493537094) rotate(422.0319009172687)"><path class="b-outline" fill="#A5ABB6" stroke="none" d="M 25 0.5 L 44.662866978508234 0.5 L 44.662866978508234 -0.5 L 25 -0.5 Z M 111.11599197850823 0.5 L 130.77885895701647 0.5 L 130.77885895701647 3.5 L 137.77885895701647 0 L 130.77885895701647 -3.5 L 130.77885895701647 -0.5 L 111.11599197850823 -0.5 Z"/><text text-anchor="middle" pointer-events="none" font-size="8px" fill="#000000" x="77.88942947850823" y="3" font-family="Helvetica Neue, Helvetica, Arial, sans-serif">HAS_PRODUCT</text></g><g class="relationship" transform="translate(68.27756011822058 -298.64034197423456) rotate(348.85733089262567)"><path class="b-outline" fill="#A5ABB6" stroke="none" d="M 25 0.5 L 81.05302960493425 0.5 L 81.05302960493425 -0.5 L 25 -0.5 Z M 147.50615460493424 0.5 L 203.5591842098685 0.5 L 203.5591842098685 3.5 L 210.5591842098685 0 L 203.5591842098685 -3.5 L 203.5591842098685 -0.5 L 147.50615460493424 -0.5 Z"/><text text-anchor="middle" pointer-events="none" font-size="8px" fill="#000000" x="114.27959210493425" y="3" font-family="Helvetica Neue, Helvetica, Arial, sans-serif">HAS_PRODUCT</text></g><g class="relationship" transform="translate(61.00994193314952 -84.3516570450938) rotate(397.4131012783311)"><path class="b-outline" fill="#A5ABB6" stroke="none" d="M 25 0.5 L 29.151633225786895 0.5 L 29.151633225786895 -0.5 L 25 -0.5 Z M 95.6047582257869 0.5 L 99.75639145157379 0.5 L 99.75639145157379 3.5 L 106.75639145157379 0 L 99.75639145157379 -3.5 L 99.75639145157379 -0.5 L 95.6047582257869 -0.5 Z"/><text text-anchor="middle" pointer-events="none" font-size="8px" fill="#000000" x="62.378195725786895" y="3" font-family="Helvetica Neue, Helvetica, Arial, sans-serif">HAS_PRODUCT</text></g><g class="relationship" transform="translate(63.69192858249098 -183.53891144705554) rotate(293.2379872217189)"><path class="b-outline" fill="#A5ABB6" stroke="none" d="M 25 0.5 L 62.2172681889802 0.5 L 62.2172681889802 -0.5 L 25 -0.5 Z M 128.6703931889802 0.5 L 165.8876613779604 0.5 L 165.8876613779604 3.5 L 172.8876613779604 0 L 165.8876613779604 -3.5 L 165.8876613779604 -0.5 L 128.6703931889802 -0.5 Z"/><text text-anchor="middle" pointer-events="none" font-size="8px" fill="#000000" x="95.4438306889802" y="3" font-family="Helvetica Neue, Helvetica, Arial, sans-serif">HAS_PRODUCT</text></g><g class="relationship" transform="translate(61.00994193314952 -84.3516570450938) rotate(306.91715533333235)"><path class="b-outline" fill="#A5ABB6" stroke="none" d="M 25 0.5 L 52.216930653105095 0.5 L 52.216930653105095 -0.5 L 25 -0.5 Z M 102.6622431531051 0.5 L 129.8791738062102 0.5 L 129.8791738062102 3.5 L 136.8791738062102 0 L 129.8791738062102 -3.5 L 129.8791738062102 -0.5 L 102.6622431531051 -0.5 Z"/><text text-anchor="middle" pointer-events="none" font-size="8px" fill="#000000" x="77.4395869031051" y="3" font-family="Helvetica Neue, Helvetica, Arial, sans-serif">MODIFIERS</text></g><g class="relationship" transform="translate(63.69192858249098 -183.53891144705554) rotate(345.26386207414043)"><path class="b-outline" fill="#A5ABB6" stroke="none" d="M 25 0.5 L 91.48061616369266 0.5 L 91.48061616369266 -0.5 L 25 -0.5 Z M 141.92592866369267 0.5 L 208.40654482738532 0.5 L 208.40654482738532 3.5 L 215.40654482738532 0 L 208.40654482738532 -3.5 L 208.40654482738532 -0.5 L 141.92592866369267 -0.5 Z"/><text text-anchor="middle" pointer-events="none" font-size="8px" fill="#000000" x="116.70327241369266" y="3" font-family="Helvetica Neue, Helvetica, Arial, sans-serif">MODIFIERS</text></g><g class="relationship" transform="translate(329.93887776995155 -439.0466493537094) rotate(219.89596118949692)"><path class="b-outline" fill="#A5ABB6" stroke="none" d="M 25 0.5 L 25.796107577774492 0.5 L 25.796107577774492 -0.5 L 25 -0.5 Z M 125.01095132777449 0.5 L 125.80705890554898 0.5 L 125.80705890554898 3.5 L 132.80705890554898 0 L 125.80705890554898 -3.5 L 125.80705890554898 -0.5 L 125.01095132777449 -0.5 Z"/><text text-anchor="middle" pointer-events="none" font-size="8px" fill="#000000" x="75.40352945277449" y="3" transform="rotate(180 75.40352945277449 0)" font-family="Helvetica Neue, Helvetica, Arial, sans-serif">HAS_LOCALPARAMET…</text></g><g class="relationship" transform="translate(329.93887776995155 -439.0466493537094) rotate(256.7573460502472)"><path class="b-outline" fill="#A5ABB6" stroke="none" d="M 25 0.5 L 25.518606432651296 0.5 L 25.518606432651296 -0.5 L 25 -0.5 Z M 124.7334501826513 0.5 L 125.25205661530259 0.5 L 125.25205661530259 3.5 L 132.2520566153026 0 L 125.25205661530259 -3.5 L 125.25205661530259 -0.5 L 124.7334501826513 -0.5 Z"/><text text-anchor="middle" pointer-events="none" font-size="8px" fill="#000000" x="75.1260283076513" y="3" transform="rotate(180 75.1260283076513 0)" font-family="Helvetica Neue, Helvetica, Arial, sans-serif">HAS_LOCALPARAMET…</text></g><g class="relationship" transform="translate(68.27756011822058 -298.64034197423456) rotate(218.53385186089082)"><path class="b-outline" fill="#A5ABB6" stroke="none" d="M 25 0.5 L 32.12578426429404 0.5 L 32.12578426429404 -0.5 L 25 -0.5 Z M 134.45390926429405 0.5 L 141.57969352858808 0.5 L 141.57969352858808 3.5 L 148.57969352858808 0 L 141.57969352858808 -3.5 L 141.57969352858808 -0.5 L 134.45390926429405 -0.5 Z"/><text text-anchor="middle" pointer-events="none" font-size="8px" fill="#000000" x="83.28984676429404" y="3" transform="rotate(180 83.28984676429404 0)" font-family="Helvetica Neue, Helvetica, Arial, sans-serif">HAS_LOCALPARAMETER</text></g><g class="relationship" transform="translate(68.27756011822058 -298.64034197423456) rotate(184.63116649505287)"><path class="b-outline" fill="#A5ABB6" stroke="none" d="M 25 0.5 L 28.551160913401674 0.5 L 28.551160913401674 -0.5 L 25 -0.5 Z M 130.87928591340167 0.5 L 134.43044682680335 0.5 L 134.43044682680335 3.5 L 141.43044682680335 0 L 134.43044682680335 -3.5 L 134.43044682680335 -0.5 L 130.87928591340167 -0.5 Z"/><text text-anchor="middle" pointer-events="none" font-size="8px" fill="#000000" x="79.71522341340167" y="3" transform="rotate(180 79.71522341340167 0)" font-family="Helvetica Neue, Helvetica, Arial, sans-serif">HAS_LOCALPARAMETER</text></g><g class="relationship" transform="translate(61.00994193314952 -84.3516570450938) rotate(524.9347323358247)"><path class="b-outline" fill="#A5ABB6" stroke="none" d="M 25 0.5 L 43.849794851422374 0.5 L 43.849794851422374 -0.5 L 25 -0.5 Z M 146.17791985142236 0.5 L 165.02771470284475 0.5 L 165.02771470284475 3.5 L 172.02771470284475 0 L 165.02771470284475 -3.5 L 165.02771470284475 -0.5 L 146.17791985142236 -0.5 Z"/><text text-anchor="middle" pointer-events="none" font-size="8px" fill="#000000" x="95.01385735142237" y="3" transform="rotate(180 95.01385735142237 0)" font-family="Helvetica Neue, Helvetica, Arial, sans-serif">HAS_LOCALPARAMETER</text></g><g class="relationship" transform="translate(61.00994193314952 -84.3516570450938) rotate(494.8794726439736)"><path class="b-outline" fill="#A5ABB6" stroke="none" d="M 25 0.5 L 34.98000052835357 0.5 L 34.98000052835357 -0.5 L 25 -0.5 Z M 137.30812552835357 0.5 L 147.28812605670714 0.5 L 147.28812605670714 3.5 L 154.28812605670714 0 L 147.28812605670714 -3.5 L 147.28812605670714 -0.5 L 137.30812552835357 -0.5 Z"/><text text-anchor="middle" pointer-events="none" font-size="8px" fill="#000000" x="86.14406302835357" y="3" transform="rotate(180 86.14406302835357 0)" font-family="Helvetica Neue, Helvetica, Arial, sans-serif">HAS_LOCALPARAMETER</text></g><g class="relationship" transform="translate(61.00994193314952 -84.3516570450938) rotate(461.68106734520194)"><path class="b-outline" fill="#A5ABB6" stroke="none" d="M 25 0.5 L 27.76064102662629 0.5 L 27.76064102662629 -0.5 L 25 -0.5 Z M 130.08876602662627 0.5 L 132.84940705325258 0.5 L 132.84940705325258 3.5 L 139.84940705325258 0 L 132.84940705325258 -3.5 L 132.84940705325258 -0.5 L 130.08876602662627 -0.5 Z"/><text text-anchor="middle" pointer-events="none" font-size="8px" fill="#000000" x="78.92470352662629" y="3" transform="rotate(180 78.92470352662629 0)" font-family="Helvetica Neue, Helvetica, Arial, sans-serif">HAS_LOCALPARAMETER</text></g><g class="relationship" transform="translate(63.69192858249098 -183.53891144705554) rotate(520.5078252277702)"><path class="b-outline" fill="#A5ABB6" stroke="none" d="M 25 0.5 L 29.848523963650408 0.5 L 29.848523963650408 -0.5 L 25 -0.5 Z M 132.1766489636504 0.5 L 137.02517292730082 0.5 L 137.02517292730082 3.5 L 144.02517292730082 0 L 137.02517292730082 -3.5 L 137.02517292730082 -0.5 L 132.1766489636504 -0.5 Z"/><text text-anchor="middle" pointer-events="none" font-size="8px" fill="#000000" x="81.01258646365041" y="3" transform="rotate(180 81.01258646365041 0)" font-family="Helvetica Neue, Helvetica, Arial, sans-serif">HAS_LOCALPARAMETER</text></g><g class="relationship" transform="translate(63.69192858249098 -183.53891144705554) rotate(485.7601669963627)"><path class="b-outline" fill="#A5ABB6" stroke="none" d="M 25 0.5 L 27.09596144086251 0.5 L 27.09596144086251 -0.5 L 25 -0.5 Z M 129.4240864408625 0.5 L 131.52004788172502 0.5 L 131.52004788172502 3.5 L 138.52004788172502 0 L 131.52004788172502 -3.5 L 131.52004788172502 -0.5 L 129.4240864408625 -0.5 Z"/><text text-anchor="middle" pointer-events="none" font-size="8px" fill="#000000" x="78.26002394086251" y="3" transform="rotate(180 78.26002394086251 0)" font-family="Helvetica Neue, Helvetica, Arial, sans-serif">HAS_LOCALPARAMETER</text></g></g><g class="layer nodes"><g class="node" aria-label="graph-node0" transform="translate(429.66813041693973,-3.5176984556538216)"><circle class="b-outline" cx="0" cy="0" r="25" fill="#D9C8AE" stroke="#c0a378" stroke-width="2px"/><text class="caption" text-anchor="middle" pointer-events="none" x="0" y="5" font-size="10px" fill="#2A2C34" font-family="Helvetica Neue, Helvetica, Arial, sans-serif"> substance</text></g><g class="node" aria-label="graph-node1" transform="translate(255.66831950268477,54.146525847304254)"><circle class="b-outline" cx="0" cy="0" r="25" fill="#D9C8AE" stroke="#c0a378" stroke-width="2px"/><text class="caption" text-anchor="middle" pointer-events="none" x="0" y="5" font-size="10px" fill="#2A2C34" font-family="Helvetica Neue, Helvetica, Arial, sans-serif"> area</text></g><g class="node" aria-label="graph-node2" transform="translate(522.7100665243446,-153.40612265206127)"><circle class="b-outline" cx="0" cy="0" r="25" fill="#D9C8AE" stroke="#c0a378" stroke-width="2px"/><text class="caption" text-anchor="middle" pointer-events="none" x="0" y="5" font-size="10px" fill="#2A2C34" font-family="Helvetica Neue, Helvetica, Arial, sans-serif"> per_sec…</text></g><g class="node" aria-label="graph-node3" transform="translate(414.0289491182668,94.64868158998611)"><circle class="b-outline" cx="0" cy="0" r="25" fill="#D9C8AE" stroke="#c0a378" stroke-width="2px"/><text class="caption" text-anchor="middle" pointer-events="none" x="0" y="5" font-size="10px" fill="#2A2C34" font-family="Helvetica Neue, Helvetica, Arial, sans-serif"> litre_per…</text></g><g class="node" aria-label="graph-node4" transform="translate(514.8908353526381,-53.92266602363971)"><circle class="b-outline" cx="0" cy="0" r="25" fill="#D9C8AE" stroke="#c0a378" stroke-width="2px"/><text class="caption" text-anchor="middle" pointer-events="none" x="0" y="5" font-size="10px" fill="#2A2C34" font-family="Helvetica Neue, Helvetica, Arial, sans-serif"> subs_pe…</text></g><g class="node" aria-label="graph-node5" transform="translate(330.4203023019677,-10.490877873624386)"><circle class="b-outline" cx="0" cy="0" r="25" fill="#F79767" stroke="#f36924" stroke-width="2px"/><text class="caption" text-anchor="middle" pointer-events="none" x="0" y="5" font-size="10px" fill="#FFFFFF" font-family="Helvetica Neue, Helvetica, Arial, sans-serif"> Extracell…</text></g><g class="node" aria-label="graph-node6" transform="translate(245.5513439999789,-63.089949371823536)"><circle class="b-outline" cx="0" cy="0" r="25" fill="#F79767" stroke="#f36924" stroke-width="2px"/><text class="caption" text-anchor="middle" pointer-events="none" x="0" y="5" font-size="10px" fill="#FFFFFF" font-family="Helvetica Neue, Helvetica, Arial, sans-serif"> Plasma…</text></g><g class="node" aria-label="graph-node7" transform="translate(242.41021116709396,-162.41566659947767)"><circle class="b-outline" cx="0" cy="0" r="25" fill="#F79767" stroke="#f36924" stroke-width="2px"/><text class="caption" text-anchor="middle" pointer-events="none" x="0" y="5" font-size="10px" fill="#FFFFFF" font-family="Helvetica Neue, Helvetica, Arial, sans-serif"> Cytosol</text></g><g class="node" aria-label="graph-node8" transform="translate(341.10176266282707,-156.30871210434847)"><circle class="b-outline" cx="0" cy="0" r="25" fill="#57C7E3" stroke="#23b3d7" stroke-width="2px"/><text class="caption" text-anchor="middle" pointer-events="none" x="0" y="5" font-size="10px" fill="#2A2C34" font-family="Helvetica Neue, Helvetica, Arial, sans-serif"> facilitate…</text></g><g class="node" aria-label="graph-node9" transform="translate(515.6376177382954,132.26709335247688)"><circle class="b-outline" cx="0" cy="0" r="25" fill="#F16667" stroke="#eb2728" stroke-width="2px"/><text class="caption" text-anchor="middle" pointer-events="none" x="0" y="5" font-size="10px" fill="#FFFFFF" font-family="Helvetica Neue, Helvetica, Arial, sans-serif"> 9f41f6fe…</text></g><g class="node" aria-label="graph-node10" transform="translate(179.91517901144482,209.23606312301078)"><circle class="b-outline" cx="0" cy="0" r="25" fill="#F16667" stroke="#eb2728" stroke-width="2px"/><text class="caption" text-anchor="middle" pointer-events="none" x="0" y="5" font-size="10px" fill="#FFFFFF" font-family="Helvetica Neue, Helvetica, Arial, sans-serif"> c01ed92…</text></g><g class="node" aria-label="graph-node11" transform="translate(594.4565757055966,4.94608732989387)"><circle class="b-outline" cx="0" cy="0" r="25" fill="#F16667" stroke="#eb2728" stroke-width="2px"/><text class="caption" text-anchor="middle" pointer-events="none" x="0" y="5" font-size="10px" fill="#FFFFFF" font-family="Helvetica Neue, Helvetica, Arial, sans-serif"> f5f0cb65…</text></g><g class="node" aria-label="graph-node12" transform="translate(429.2286104639186,258.9334630477769)"><circle class="b-outline" cx="0" cy="0" r="25" fill="#F16667" stroke="#eb2728" stroke-width="2px"/><text class="caption" text-anchor="middle" pointer-events="none" x="0" y="5" font-size="10px" fill="#FFFFFF" font-family="Helvetica Neue, Helvetica, Arial, sans-serif"> 3a9ece5…</text></g><g class="node" aria-label="graph-node13" transform="translate(331.4541901474576,240.43240916183717)"><circle class="b-outline" cx="0" cy="0" r="25" fill="#F16667" stroke="#eb2728" stroke-width="2px"/><text class="caption" text-anchor="middle" pointer-events="none" x="0" y="5" font-size="10px" fill="#FFFFFF" font-family="Helvetica Neue, Helvetica, Arial, sans-serif"> 372a959…</text></g><g class="node" aria-label="graph-node14" transform="translate(610.57321101266,102.50568351463791)"><circle class="b-outline" cx="0" cy="0" r="25" fill="#F16667" stroke="#eb2728" stroke-width="2px"/><text class="caption" text-anchor="middle" pointer-events="none" x="0" y="5" font-size="10px" fill="#FFFFFF" font-family="Helvetica Neue, Helvetica, Arial, sans-serif"> 2a6a3ffc…</text></g><g class="node" aria-label="graph-node15" transform="translate(406.27888848330167,-295.278921098604)"><circle class="b-outline" cx="0" cy="0" r="25" fill="#ECB5C9" stroke="#da7298" stroke-width="2px"/><text class="caption" text-anchor="middle" pointer-events="none" x="0" y="5" font-size="10px" fill="#2A2C34" font-family="Helvetica Neue, Helvetica, Arial, sans-serif"> CaBPB_C</text></g><g class="node" aria-label="graph-node16" transform="translate(155.14138887149565,-115.10297922680377)"><circle class="b-outline" cx="0" cy="0" r="25" fill="#ECB5C9" stroke="#da7298" stroke-width="2px"/><text class="caption" text-anchor="middle" pointer-events="none" x="0" y="5" font-size="10px" fill="#2A2C34" font-family="Helvetica Neue, Helvetica, Arial, sans-serif"> B_C</text></g><g class="node" aria-label="graph-node17" transform="translate(299.39622229794,-344.1627898200554)"><circle class="b-outline" cx="0" cy="0" r="25" fill="#ECB5C9" stroke="#da7298" stroke-width="2px"/><text class="caption" text-anchor="middle" pointer-events="none" x="0" y="5" font-size="10px" fill="#2A2C34" font-family="Helvetica Neue, Helvetica, Arial, sans-serif"> CaB_C</text></g><g class="node" aria-label="graph-node18" transform="translate(141.7687451431842,-365.3727290976405)"><circle class="b-outline" cx="0" cy="0" r="25" fill="#ECB5C9" stroke="#da7298" stroke-width="2px"/><text class="caption" text-anchor="middle" pointer-events="none" x="0" y="5" font-size="10px" fill="#2A2C34" font-family="Helvetica Neue, Helvetica, Arial, sans-serif"> Ca_C</text></g><g class="node" aria-label="graph-node19" transform="translate(165.66084421474508,-4.302076534086228)"><circle class="b-outline" cx="0" cy="0" r="25" fill="#ECB5C9" stroke="#da7298" stroke-width="2px"/><text class="caption" text-anchor="middle" pointer-events="none" x="0" y="5" font-size="10px" fill="#2A2C34" font-family="Helvetica Neue, Helvetica, Arial, sans-serif"> Ca_EC</text></g><g class="node" aria-label="graph-node20" transform="translate(296.19090322792124,-244.69063738071347)"><circle class="b-outline" cx="0" cy="0" r="25" fill="#ECB5C9" stroke="#da7298" stroke-width="2px"/><text class="caption" text-anchor="middle" pointer-events="none" x="0" y="5" font-size="10px" fill="#2A2C34" font-family="Helvetica Neue, Helvetica, Arial, sans-serif"> CaCh_PM</text></g><g class="node" aria-label="graph-node21" transform="translate(158.24422781149858,-213.77484106522485)"><circle class="b-outline" cx="0" cy="0" r="25" fill="#ECB5C9" stroke="#da7298" stroke-width="2px"/><text class="caption" text-anchor="middle" pointer-events="none" x="0" y="5" font-size="10px" fill="#2A2C34" font-family="Helvetica Neue, Helvetica, Arial, sans-serif"> CaPump…</text></g><g class="node" aria-label="graph-node22" transform="translate(213.11747596540056,-297.5585798094723)"><circle class="b-outline" cx="0" cy="0" r="25" fill="#ECB5C9" stroke="#da7298" stroke-width="2px"/><text class="caption" text-anchor="middle" pointer-events="none" x="0" y="5" font-size="10px" fill="#2A2C34" font-family="Helvetica Neue, Helvetica, Arial, sans-serif"> CaBP_C</text></g><g class="node" aria-label="graph-node23" transform="translate(329.93887776995155,-439.0466493537094)"><circle class="b-outline" cx="0" cy="0" r="25" fill="#4C8EDA" stroke="#2870c2" stroke-width="2px"/><text class="caption" text-anchor="middle" pointer-events="none" x="0" y="5" font-size="10px" fill="#FFFFFF" font-family="Helvetica Neue, Helvetica, Arial, sans-serif"> Calcium…</text></g><g class="node" aria-label="graph-node24" transform="translate(68.27756011822058,-298.64034197423456)"><circle class="b-outline" cx="0" cy="0" r="25" fill="#4C8EDA" stroke="#2870c2" stroke-width="2px"/><text class="caption" text-anchor="middle" pointer-events="none" x="0" y="5" font-size="10px" fill="#FFFFFF" font-family="Helvetica Neue, Helvetica, Arial, sans-serif"> Calcium…</text></g><g class="node" aria-label="graph-node25" transform="translate(61.00994193314952,-84.3516570450938)"><circle class="b-outline" cx="0" cy="0" r="25" fill="#4C8EDA" stroke="#2870c2" stroke-width="2px"/><text class="caption" text-anchor="middle" pointer-events="none" x="0" y="5" font-size="10px" fill="#FFFFFF" font-family="Helvetica Neue, Helvetica, Arial, sans-serif"> Ca_Pump</text></g><g class="node" aria-label="graph-node26" transform="translate(63.69192858249098,-183.53891144705554)"><circle class="b-outline" cx="0" cy="0" r="25" fill="#4C8EDA" stroke="#2870c2" stroke-width="2px"/><text class="caption" text-anchor="middle" pointer-events="none" x="0" y="5" font-size="10px" fill="#FFFFFF" font-family="Helvetica Neue, Helvetica, Arial, sans-serif"> Ca_cha…</text></g><g class="node" aria-label="graph-node27" transform="translate(392.59018395744727,-578.7841555935673)"><circle class="b-outline" cx="0" cy="0" r="25" fill="#FFC454" stroke="#d7a013" stroke-width="2px"/><text class="caption" text-anchor="middle" pointer-events="none" x="0" y="5" font-size="10px" fill="#2A2C34" font-family="Helvetica Neue, Helvetica, Arial, sans-serif"> f5bc705…</text></g><g class="node" aria-label="graph-node28" transform="translate(18.923923889904312,-455.1458545477261)"><circle class="b-outline" cx="0" cy="0" r="25" fill="#FFC454" stroke="#d7a013" stroke-width="2px"/><text class="caption" text-anchor="middle" pointer-events="none" x="0" y="5" font-size="10px" fill="#2A2C34" font-family="Helvetica Neue, Helvetica, Arial, sans-serif"> 2b3752c…</text></g><g class="node" aria-label="graph-node29" transform="translate(-33.62120017224494,-204.682805078333)"><circle class="b-outline" cx="0" cy="0" r="25" fill="#FFC454" stroke="#d7a013" stroke-width="2px"/><text class="caption" text-anchor="middle" pointer-events="none" x="0" y="5" font-size="10px" fill="#2A2C34" font-family="Helvetica Neue, Helvetica, Arial, sans-serif"> 8fa276fa…</text></g><g class="node" aria-label="graph-node30" transform="translate(-131.28312486057,-218.87241565664914)"><circle class="b-outline" cx="0" cy="0" r="25" fill="#FFC454" stroke="#d7a013" stroke-width="2px"/><text class="caption" text-anchor="middle" pointer-events="none" x="0" y="5" font-size="10px" fill="#2A2C34" font-family="Helvetica Neue, Helvetica, Arial, sans-serif"> 66bba3c…</text></g><g class="node" aria-label="graph-node31" transform="translate(208.86766634318462,-540.2633950239517)"><circle class="b-outline" cx="0" cy="0" r="25" fill="#DA7194" stroke="#cc3c6c" stroke-width="2px"/><text class="caption" text-anchor="middle" pointer-events="none" x="0" y="5" font-size="10px" fill="#FFFFFF" font-family="Helvetica Neue, Helvetica, Arial, sans-serif"> Kf_Calci…</text></g><g class="node" aria-label="graph-node32" transform="translate(293.91627021739544,-592.1171594294809)"><circle class="b-outline" cx="0" cy="0" r="25" fill="#DA7194" stroke="#cc3c6c" stroke-width="2px"/><text class="caption" text-anchor="middle" pointer-events="none" x="0" y="5" font-size="10px" fill="#FFFFFF" font-family="Helvetica Neue, Helvetica, Arial, sans-serif"> Kr_Calci…</text></g><g class="node" aria-label="graph-node33" transform="translate(-67.50345791322745,-406.7764837022533)"><circle class="b-outline" cx="0" cy="0" r="25" fill="#DA7194" stroke="#cc3c6c" stroke-width="2px"/><text class="caption" text-anchor="middle" pointer-events="none" x="0" y="5" font-size="10px" fill="#FFFFFF" font-family="Helvetica Neue, Helvetica, Arial, sans-serif"> Kf_Calci…</text></g><g class="node" aria-label="graph-node34" transform="translate(-97.60950896577816,-312.078122359776)"><circle class="b-outline" cx="0" cy="0" r="25" fill="#DA7194" stroke="#cc3c6c" stroke-width="2px"/><text class="caption" text-anchor="middle" pointer-events="none" x="0" y="5" font-size="10px" fill="#FFFFFF" font-family="Helvetica Neue, Helvetica, Arial, sans-serif"> Kr_Calci…</text></g><g class="node" aria-label="graph-node35" transform="translate(-129.24600304634947,-33.14037156051107)"><circle class="b-outline" cx="0" cy="0" r="25" fill="#DA7194" stroke="#cc3c6c" stroke-width="2px"/><text class="caption" text-anchor="middle" pointer-events="none" x="0" y="5" font-size="10px" fill="#FFFFFF" font-family="Helvetica Neue, Helvetica, Arial, sans-serif"> Vmax</text></g><g class="node" aria-label="graph-node36" transform="translate(-65.49894190855603,42.69059755569467)"><circle class="b-outline" cx="0" cy="0" r="25" fill="#DA7194" stroke="#cc3c6c" stroke-width="2px"/><text class="caption" text-anchor="middle" pointer-events="none" x="0" y="5" font-size="10px" fill="#FFFFFF" font-family="Helvetica Neue, Helvetica, Arial, sans-serif"> kP</text></g><g class="node" aria-label="graph-node37" transform="translate(27.63391894731139,77.08368015050834)"><circle class="b-outline" cx="0" cy="0" r="25" fill="#DA7194" stroke="#cc3c6c" stroke-width="2px"/><text class="caption" text-anchor="middle" pointer-events="none" x="0" y="5" font-size="10px" fill="#FFFFFF" font-family="Helvetica Neue, Helvetica, Arial, sans-serif"> Ca_Rest</text></g><g class="node" aria-label="graph-node38" transform="translate(-95.64591682977482,-127.13891053853759)"><circle class="b-outline" cx="0" cy="0" r="25" fill="#DA7194" stroke="#cc3c6c" stroke-width="2px"/><text class="caption" text-anchor="middle" pointer-events="none" x="0" y="5" font-size="10px" fill="#FFFFFF" font-family="Helvetica Neue, Helvetica, Arial, sans-serif"> J0</text></g><g class="node" aria-label="graph-node39" transform="translate(-31.868152033568204,-50.84724987070059)"><circle class="b-outline" cx="0" cy="0" r="25" fill="#DA7194" stroke="#cc3c6c" stroke-width="2px"/><text class="caption" text-anchor="middle" pointer-events="none" x="0" y="5" font-size="10px" fill="#FFFFFF" font-family="Helvetica Neue, Helvetica, Arial, sans-serif"> Kc</text></g></g></svg>