<svg xmlns="http://www.w3.org/2000/svg" width="497.1495056152344" height="440.508056640625" viewBox="-283.8921813964844 -253.3693084716797 497.1495056152344 440.508056640625"><title>Neo4j Graph Visualization</title><desc>Created using Neo4j (http://www.neo4j.com/)</desc><g class="layer relationships"><g class="relationship" transform="translate(37.82273235734653 -75.74347131692193) rotate(272.4890904934239)"><path class="b-outline" fill="#A5ABB6" stroke="none" d="M 25 0.5 L 26.98661751636979 0.5 L 26.98661751636979 -0.5 L 25 -0.5 Z M 114.77958626636979 0.5 L 116.76620378273958 0.5 L 116.76620378273958 3.5 L 123.76620378273958 0 L 116.76620378273958 -3.5 L 116.76620378273958 -0.5 L 114.77958626636979 -0.5 Z"/><text text-anchor="middle" pointer-events="none" font-size="8px" fill="#000000" x="70.88310189136979" y="3" font-family="Helvetica Neue, Helvetica, Arial, sans-serif">HAS_ASSIGNMENT…</text></g><g class="relationship" transform="translate(-144.8393515927837 -79.03546236674904) rotate(302.56450497810687)"><path class="b-outline" fill="#A5ABB6" stroke="none" d="M 25 0.5 L 27.899332427110423 0.5 L 27.899332427110423 -0.5 L 25 -0.5 Z M 107.11026992711042 0.5 L 110.00960235422085 0.5 L 110.00960235422085 3.5 L 117.00960235422085 0 L 110.00960235422085 -3.5 L 110.00960235422085 -0.5 L 107.11026992711042 -0.5 Z"/><text text-anchor="middle" pointer-events="none" font-size="8px" fill="#000000" x="67.50480117711042" y="3" font-family="Helvetica Neue, Helvetica, Arial, sans-serif">HAS_EVENTASSI…</text></g><g class="relationship" transform="translate(37.82273235734653 -75.74347131692193) rotate(181.03249000605922)"><path class="b-outline" fill="#A5ABB6" stroke="none" d="M 25 0.5 L 61.060716834223896 0.5 L 61.060716834223896 -0.5 L 25 -0.5 Z M 114.6310293342239 0.5 L 150.6917461684478 0.5 L 150.6917461684478 3.5 L 157.6917461684478 0 L 150.6917461684478 -3.5 L 150.6917461684478 -0.5 L 114.6310293342239 -0.5 Z"/><text text-anchor="middle" pointer-events="none" font-size="8px" fill="#000000" x="87.8458730842239" y="3" transform="rotate(180 87.8458730842239 0)" font-family="Helvetica Neue, Helvetica, Arial, sans-serif">HAS_EVENT</text></g><g class="relationship" transform="translate(-144.8393515927837 -79.03546236674904) rotate(221.16259797392752)"><path class="b-outline" fill="#A5ABB6" stroke="none" d="M 25 0.5 L 37.919447393881356 0.5 L 37.919447393881356 -0.5 L 25 -0.5 Z M 101.26319739388136 0.5 L 114.18264478776271 0.5 L 114.18264478776271 3.5 L 121.18264478776271 0 L 114.18264478776271 -3.5 L 114.18264478776271 -0.5 L 101.26319739388136 -0.5 Z"/><text text-anchor="middle" pointer-events="none" font-size="8px" fill="#000000" x="69.59132239388136" y="3" transform="rotate(180 69.59132239388136 0)" font-family="Helvetica Neue, Helvetica, Arial, sans-serif">HAS_TRIGGER</text></g><g class="relationship" transform="translate(-144.8393515927837 -79.03546236674904) rotate(489.30223046876273)"><path class="b-outline" fill="#A5ABB6" stroke="none" d="M 25 0.5 L 44.15346371868846 0.5 L 44.15346371868846 -0.5 L 25 -0.5 Z M 96.69643246868846 0.5 L 115.84989618737691 0.5 L 115.84989618737691 3.5 L 122.84989618737691 0 L 115.84989618737691 -3.5 L 115.84989618737691 -0.5 L 96.69643246868846 -0.5 Z"/><text text-anchor="middle" pointer-events="none" font-size="8px" fill="#000000" x="70.42494809368846" y="3" transform="rotate(180 70.42494809368846 0)" font-family="Helvetica Neue, Helvetica, Arial, sans-serif">HAS_DELAY</text></g><g class="relationship" transform="translate(184.25730977418996 -130.01890519478434) rotate(454.24909440447027)"><path class="b-outline" fill="#A5ABB6" stroke="none" d="M 25 0.5 L 42.292567283248246 0.5 L 42.292567283248246 -0.5 L 25 -0.5 Z M 93.19100478324825 0.5 L 110.48357206649649 0.5 L 110.48357206649649 3.5 L 117.48357206649649 0 L 110.48357206649649 -3.5 L 110.48357206649649 -0.5 L 93.19100478324825 -0.5 Z"/><text text-anchor="middle" pointer-events="none" font-size="8px" fill="#000000" x="67.74178603324825" y="3" transform="rotate(180 67.74178603324825 0)" font-family="Helvetica Neue, Helvetica, Arial, sans-serif">HAS_UNITS</text></g><g class="relationship" transform="translate(37.82273235734653 -75.74347131692193) rotate(446.95117634125444)"><path class="b-outline" fill="#A5ABB6" stroke="none" d="M 25 0.5 L 28.42408495973055 0.5 L 28.42408495973055 -0.5 L 25 -0.5 Z M 117.25611620973055 0.5 L 120.6802011694611 0.5 L 120.6802011694611 3.5 L 127.6802011694611 0 L 120.6802011694611 -3.5 L 120.6802011694611 -0.5 L 117.25611620973055 -0.5 Z"/><text text-anchor="middle" pointer-events="none" font-size="8px" fill="#000000" x="72.84010058473055" y="3" font-family="Helvetica Neue, Helvetica, Arial, sans-serif">HAS_COMPARTMENT</text></g><g class="relationship" transform="translate(37.82273235734653 -75.74347131692193) rotate(339.66296203504)"><path class="b-outline" fill="#A5ABB6" stroke="none" d="M 25 0.5 L 36.537867725259275 0.5 L 36.537867725259275 -0.5 L 25 -0.5 Z M 112.63161772525928 0.5 L 124.16948545051855 0.5 L 124.16948545051855 3.5 L 131.16948545051855 0 L 124.16948545051855 -3.5 L 124.16948545051855 -0.5 L 112.63161772525928 -0.5 Z"/><text text-anchor="middle" pointer-events="none" font-size="8px" fill="#000000" x="74.58474272525928" y="3" font-family="Helvetica Neue, Helvetica, Arial, sans-serif">HAS_PARAMETER</text></g><g class="relationship" transform="translate(37.82273235734653 -75.74347131692193) rotate(392.8742354169345)"><path class="b-outline" fill="#A5ABB6" stroke="none" d="M 25 0.5 L 31.94534055376863 0.5 L 31.94534055376863 -0.5 L 25 -0.5 Z M 122.83987180376863 0.5 L 129.78521235753726 0.5 L 129.78521235753726 3.5 L 136.78521235753726 0 L 129.78521235753726 -3.5 L 129.78521235753726 -0.5 L 122.83987180376863 -0.5 Z"/><text text-anchor="middle" pointer-events="none" font-size="8px" fill="#000000" x="77.39260617876863" y="3" font-family="Helvetica Neue, Helvetica, Arial, sans-serif">HAS_UNITDEFINITION</text></g><g class="relationship" transform="translate(37.82273235734653 -75.74347131692193) rotate(499.5249694732855)"><path class="b-outline" fill="#A5ABB6" stroke="none" d="M 25 0.5 L 41.75516583595238 0.5 L 41.75516583595238 -0.5 L 25 -0.5 Z M 103.33329083595238 0.5 L 120.08845667190477 0.5 L 120.08845667190477 3.5 L 127.08845667190477 0 L 120.08845667190477 -3.5 L 120.08845667190477 -0.5 L 103.33329083595238 -0.5 Z"/><text text-anchor="middle" pointer-events="none" font-size="8px" fill="#000000" x="72.54422833595238" y="3" transform="rotate(180 72.54422833595238 0)" font-family="Helvetica Neue, Helvetica, Arial, sans-serif">HAS_SPECIES</text></g><g class="relationship" transform="translate(-77.86927187781394 22.979670898535677) rotate(383.463291699155)"><path class="b-outline" fill="#A5ABB6" stroke="none" d="M 25 0.5 L 25.12700813336791 0.5 L 25.12700813336791 -0.5 L 25 -0.5 Z M 102.84575813336791 0.5 L 102.97276626673582 0.5 L 102.97276626673582 3.5 L 109.97276626673582 0 L 102.97276626673582 -3.5 L 102.97276626673582 -0.5 L 102.84575813336791 -0.5 Z"/><text text-anchor="middle" pointer-events="none" font-size="8px" fill="#000000" x="63.98638313336791" y="3" font-family="Helvetica Neue, Helvetica, Arial, sans-serif">IN_COMPARTME…</text></g><g class="relationship" transform="translate(173.70031322103685 12.073030299828467) rotate(451.1655969490804)"><path class="b-outline" fill="#A5ABB6" stroke="none" d="M 25 0.5 L 37.20812012775254 0.5 L 37.20812012775254 -0.5 L 25 -0.5 Z M 101.88780762775254 0.5 L 114.09592775550507 0.5 L 114.09592775550507 3.5 L 121.09592775550507 0 L 114.09592775550507 -3.5 L 114.09592775550507 -0.5 L 101.88780762775254 -0.5 Z"/><text text-anchor="middle" pointer-events="none" font-size="8px" fill="#000000" x="69.54796387775254" y="3" transform="rotate(180 69.54796387775254 0)" font-family="Helvetica Neue, Helvetica, Arial, sans-serif">IS_COMPOSED</text></g></g><g class="layer nodes"><g class="node" aria-label="graph-node-6" transform="translate(44.28352377149919,-224.3693155104215)"><circle class="b-outline" cx="0" cy="0" r="25" fill="#A5ABB6" stroke="#9AA1AC" stroke-width="2px"/><text class="caption" text-anchor="middle" pointer-events="none" x="0" y="5" font-size="10px" fill="#FFFFFF" font-family="Helvetica Neue, Helvetica, Arial, sans-serif"> assignm…</text></g><g class="node" aria-label="graph-node-4" transform="translate(170.728415056086,158.13872760086804)"><circle class="b-outline" cx="0" cy="0" r="25" fill="#F16667" stroke="#eb2728" stroke-width="2px"/><text class="caption" text-anchor="middle" pointer-events="none" x="0" y="5" font-size="10px" fill="#FFFFFF" font-family="Helvetica Neue, Helvetica, Arial, sans-serif"> unit</text></g><g class="node" aria-label="graph-node-10" transform="translate(-238.48910174192412,35.373086700275216)"><circle class="b-outline" cx="0" cy="0" r="25" fill="#A5ABB6" stroke="#9AA1AC" stroke-width="2px"/><text class="caption" text-anchor="middle" pointer-events="none" x="0" y="5" font-size="10px" fill="#FFFFFF" font-family="Helvetica Neue, Helvetica, Arial, sans-serif"> delay</text></g><g class="node" aria-label="graph-node-9" transform="translate(-68.40285663558461,-198.71916802237288)"><circle class="b-outline" cx="0" cy="0" r="25" fill="#A5ABB6" stroke="#9AA1AC" stroke-width="2px"/><text class="caption" text-anchor="middle" pointer-events="none" x="0" y="5" font-size="10px" fill="#FFFFFF" font-family="Helvetica Neue, Helvetica, Arial, sans-serif"> eventAs…</text></g><g class="node" aria-label="graph-node-11" transform="translate(184.25730977418996,-130.01890519478434)"><circle class="b-outline" cx="0" cy="0" r="25" fill="#A5ABB6" stroke="#9AA1AC" stroke-width="2px"/><text class="caption" text-anchor="middle" pointer-events="none" x="0" y="5" font-size="10px" fill="#FFFFFF" font-family="Helvetica Neue, Helvetica, Arial, sans-serif"> parameter</text></g><g class="node" aria-label="graph-node-2" transform="translate(45.9433193943041,76.72062247345977)"><circle class="b-outline" cx="0" cy="0" r="25" fill="#F79767" stroke="#f36924" stroke-width="2px"/><text class="caption" text-anchor="middle" pointer-events="none" x="0" y="5" font-size="10px" fill="#FFFFFF" font-family="Helvetica Neue, Helvetica, Arial, sans-serif"> compart…</text></g><g class="node" aria-label="graph-node-3" transform="translate(37.82273235734653,-75.74347131692193)"><circle class="b-outline" cx="0" cy="0" r="25" fill="#57C7E3" stroke="#23b3d7" stroke-width="2px"/><text class="caption" text-anchor="middle" pointer-events="none" x="0" y="5" font-size="10px" fill="#2A2C34" font-family="Helvetica Neue, Helvetica, Arial, sans-serif"> model</text></g><g class="node" aria-label="graph-node-8" transform="translate(-254.89218584402545,-175.25260902166664)"><circle class="b-outline" cx="0" cy="0" r="25" fill="#A5ABB6" stroke="#9AA1AC" stroke-width="2px"/><text class="caption" text-anchor="middle" pointer-events="none" x="0" y="5" font-size="10px" fill="#FFFFFF" font-family="Helvetica Neue, Helvetica, Arial, sans-serif"> trigger</text></g><g class="node" aria-label="graph-node-7" transform="translate(-144.8393515927837,-79.03546236674904)"><circle class="b-outline" cx="0" cy="0" r="25" fill="#A5ABB6" stroke="#9AA1AC" stroke-width="2px"/><text class="caption" text-anchor="middle" pointer-events="none" x="0" y="5" font-size="10px" fill="#FFFFFF" font-family="Helvetica Neue, Helvetica, Arial, sans-serif"> event</text></g><g class="node" aria-label="graph-node-5" transform="translate(-77.86927187781394,22.979670898535677)"><circle class="b-outline" cx="0" cy="0" r="25" fill="#ECB5C9" stroke="#da7298" stroke-width="2px"/><text class="caption" text-anchor="middle" pointer-events="none" x="0" y="5" font-size="10px" fill="#2A2C34" font-family="Helvetica Neue, Helvetica, Arial, sans-serif"> Species</text></g><g class="node" aria-label="graph-node-1" transform="translate(173.70031322103685,12.073030299828467)"><circle class="b-outline" cx="0" cy="0" r="25" fill="#D9C8AE" stroke="#c0a378" stroke-width="2px"/><text class="caption" text-anchor="middle" pointer-events="none" x="0" y="5" font-size="10px" fill="#2A2C34" font-family="Helvetica Neue, Helvetica, Arial, sans-serif"> UnitDefi…</text></g></g></svg>