<svg xmlns="http://www.w3.org/2000/svg" width="614.831787109375" height="687.5443115234375" viewBox="-284.1842041015625 -373.3982849121094 614.831787109375 687.5443115234375"><title>Neo4j Graph Visualization</title><desc>Created using Neo4j (http://www.neo4j.com/)</desc><g class="layer relationships"><g class="relationship" transform="translate(140.55074087263495 -92.15278367480974) rotate(376.8010271456894)"><path class="b-outline" fill="#A5ABB6" stroke="none" d="M 25 0.5 L 28.708639364856282 0.5 L 28.708639364856282 -0.5 L 25 -0.5 Z M 117.54067061485628 0.5 L 121.24930997971256 0.5 L 121.24930997971256 3.5 L 128.24930997971256 0 L 121.24930997971256 -3.5 L 121.24930997971256 -0.5 L 117.54067061485628 -0.5 Z"/><text text-anchor="middle" pointer-events="none" font-size="8px" fill="#000000" x="73.12465498985628" y="3" font-family="Helvetica Neue, Helvetica, Arial, sans-serif">HAS_COMPARTMENT</text></g><g class="relationship" transform="translate(75.94306394014811 102.56129937336213) rotate(499.43917678356036)"><path class="b-outline" fill="#A5ABB6" stroke="none" d="M 25 0.5 L 52.89612727209487 0.5 L 52.89612727209487 -0.5 L 25 -0.5 Z M 117.57581477209487 0.5 L 145.47194204418975 0.5 L 145.47194204418975 3.5 L 152.47194204418975 0 L 145.47194204418975 -3.5 L 145.47194204418975 -0.5 L 117.57581477209487 -0.5 Z"/><text text-anchor="middle" pointer-events="none" font-size="8px" fill="#000000" x="85.23597102209487" y="3" transform="rotate(180 85.23597102209487 0)" font-family="Helvetica Neue, Helvetica, Arial, sans-serif">IS_COMPOSED</text></g><g class="relationship" transform="translate(160.87914490196067 53.74867542605118) rotate(491.5831451610584)"><path class="b-outline" fill="#A5ABB6" stroke="none" d="M 25 0.5 L 56.780403267803635 0.5 L 56.780403267803635 -0.5 L 25 -0.5 Z M 121.46009076780364 0.5 L 153.24049403560727 0.5 L 153.24049403560727 3.5 L 160.24049403560727 0 L 153.24049403560727 -3.5 L 153.24049403560727 -0.5 L 121.46009076780364 -0.5 Z"/><text text-anchor="middle" pointer-events="none" font-size="8px" fill="#000000" x="89.12024701780364" y="3" transform="rotate(180 89.12024701780364 0)" font-family="Helvetica Neue, Helvetica, Arial, sans-serif">IS_COMPOSED</text></g><g class="relationship" transform="translate(160.87914490196067 53.74867542605118) rotate(454.48375344726077)"><path class="b-outline" fill="#A5ABB6" stroke="none" d="M 25 0.5 L 47.10240038039008 0.5 L 47.10240038039008 -0.5 L 25 -0.5 Z M 111.78208788039008 0.5 L 133.88448826078016 0.5 L 133.88448826078016 3.5 L 140.88448826078016 0 L 133.88448826078016 -3.5 L 133.88448826078016 -0.5 L 111.78208788039008 -0.5 Z"/><text text-anchor="middle" pointer-events="none" font-size="8px" fill="#000000" x="79.44224413039008" y="3" transform="rotate(180 79.44224413039008 0)" font-family="Helvetica Neue, Helvetica, Arial, sans-serif">IS_COMPOSED</text></g><g class="relationship" transform="translate(140.55074087263495 -92.15278367480974) rotate(468.35625362907996)"><path class="b-outline" fill="#A5ABB6" stroke="none" d="M 25 0.5 L 53.629201042436634 0.5 L 53.629201042436634 -0.5 L 25 -0.5 Z M 144.52373229243665 0.5 L 173.15293333487327 0.5 L 173.15293333487327 3.5 L 180.15293333487327 0 L 173.15293333487327 -3.5 L 173.15293333487327 -0.5 L 144.52373229243665 -0.5 Z"/><text text-anchor="middle" pointer-events="none" font-size="8px" fill="#000000" x="99.07646666743663" y="3" transform="rotate(180 99.07646666743663 0)" font-family="Helvetica Neue, Helvetica, Arial, sans-serif">HAS_UNITDEFINITION</text></g><g class="relationship" transform="translate(140.55074087263495 -92.15278367480974) rotate(442.0680611153055)"><path class="b-outline" fill="#A5ABB6" stroke="none" d="M 25 0.5 L 26.7081479203391 0.5 L 26.7081479203391 -0.5 L 25 -0.5 Z M 113.6026791703391 0.5 L 115.3108270906782 0.5 L 115.3108270906782 3.5 L 122.3108270906782 0 L 115.3108270906782 -3.5 L 115.3108270906782 -0.5 L 113.6026791703391 -0.5 Z"/><text text-anchor="middle" pointer-events="none" font-size="8px" fill="#000000" x="70.1554135453391" y="3" font-family="Helvetica Neue, Helvetica, Arial, sans-serif">HAS_UNITDEFINITI…</text></g><g class="relationship" transform="translate(140.55074087263495 -92.15278367480974) rotate(335.93099820416603)"><path class="b-outline" fill="#A5ABB6" stroke="none" d="M 25 0.5 L 53.45944080087044 0.5 L 53.45944080087044 -0.5 L 25 -0.5 Z M 115.03756580087044 0.5 L 143.49700660174088 0.5 L 143.49700660174088 3.5 L 150.49700660174088 0 L 143.49700660174088 -3.5 L 143.49700660174088 -0.5 L 115.03756580087044 -0.5 Z"/><text text-anchor="middle" pointer-events="none" font-size="8px" fill="#000000" x="84.24850330087044" y="3" font-family="Helvetica Neue, Helvetica, Arial, sans-serif">HAS_SPECIES</text></g><g class="relationship" transform="translate(140.55074087263495 -92.15278367480974) rotate(301.6768251907625)"><path class="b-outline" fill="#A5ABB6" stroke="none" d="M 25 0.5 L 33.66645602841217 0.5 L 33.66645602841217 -0.5 L 25 -0.5 Z M 95.24458102841217 0.5 L 103.91103705682434 0.5 L 103.91103705682434 3.5 L 110.91103705682434 0 L 103.91103705682434 -3.5 L 103.91103705682434 -0.5 L 95.24458102841217 -0.5 Z"/><text text-anchor="middle" pointer-events="none" font-size="8px" fill="#000000" x="64.45551852841217" y="3" font-family="Helvetica Neue, Helvetica, Arial, sans-serif">HAS_SPECIES</text></g><g class="relationship" transform="translate(300.7891530170375 -163.72687535337775) rotate(456.6604799816333)"><path class="b-outline" fill="#A5ABB6" stroke="none" d="M 25 0.5 L 27.231335264772746 0.5 L 27.231335264772746 -0.5 L 25 -0.5 Z M 82.42664776477275 0.5 L 84.65798302954549 0.5 L 84.65798302954549 3.5 L 91.65798302954549 0 L 84.65798302954549 -3.5 L 84.65798302954549 -0.5 L 82.42664776477275 -0.5 Z"/><text text-anchor="middle" pointer-events="none" font-size="8px" fill="#000000" x="54.828991514772746" y="3" transform="rotate(180 54.828991514772746 0)" font-family="Helvetica Neue, Helvetica, Arial, sans-serif">IN_COMPA…</text></g><g class="relationship" transform="translate(211.9213605606593 -207.81628111116115) rotate(424.7807503295883)"><path class="b-outline" fill="#A5ABB6" stroke="none" d="M 25 0.5 L 44.71518619886332 0.5 L 44.71518619886332 -0.5 L 25 -0.5 Z M 125.09799869886332 0.5 L 144.81318489772664 0.5 L 144.81318489772664 3.5 L 151.81318489772664 0 L 144.81318489772664 -3.5 L 144.81318489772664 -0.5 L 125.09799869886332 -0.5 Z"/><text text-anchor="middle" pointer-events="none" font-size="8px" fill="#000000" x="84.90659244886332" y="3" font-family="Helvetica Neue, Helvetica, Arial, sans-serif">IN_COMPARTMENT</text></g><g class="relationship" transform="translate(140.55074087263495 -92.15278367480974) rotate(256.9645461228586)"><path class="b-outline" fill="#A5ABB6" stroke="none" d="M 25 0.5 L 36.524280462416755 0.5 L 36.524280462416755 -0.5 L 25 -0.5 Z M 105.50865546241675 0.5 L 117.03293592483351 0.5 L 117.03293592483351 3.5 L 124.03293592483351 0 L 117.03293592483351 -3.5 L 117.03293592483351 -0.5 L 105.50865546241675 -0.5 Z"/><text text-anchor="middle" pointer-events="none" font-size="8px" fill="#000000" x="71.01646796241675" y="3" transform="rotate(180 71.01646796241675 0)" font-family="Helvetica Neue, Helvetica, Arial, sans-serif">HAS_RATERULE</text></g><g class="relationship" transform="translate(140.55074087263495 -92.15278367480974) rotate(496.9787660875211)"><path class="b-outline" fill="#A5ABB6" stroke="none" d="M 25 0.5 L 44.54923560955403 0.5 L 44.54923560955403 -0.5 L 25 -0.5 Z M 113.53361060955403 0.5 L 133.08284621910806 0.5 L 133.08284621910806 3.5 L 140.08284621910806 0 L 133.08284621910806 -3.5 L 133.08284621910806 -0.5 L 113.53361060955403 -0.5 Z"/><text text-anchor="middle" pointer-events="none" font-size="8px" fill="#000000" x="79.04142310955403" y="3" transform="rotate(180 79.04142310955403 0)" font-family="Helvetica Neue, Helvetica, Arial, sans-serif">HAS_RATERULE</text></g><g class="relationship" transform="translate(140.55074087263495 -92.15278367480974) rotate(217.35753910872927)"><path class="b-outline" fill="#A5ABB6" stroke="none" d="M 25 0.5 L 70.734468378257 0.5 L 70.734468378257 -0.5 L 25 -0.5 Z M 124.304780878257 0.5 L 170.039249256514 0.5 L 170.039249256514 3.5 L 177.039249256514 0 L 170.039249256514 -3.5 L 170.039249256514 -0.5 L 124.304780878257 -0.5 Z"/><text text-anchor="middle" pointer-events="none" font-size="8px" fill="#000000" x="97.519624628257" y="3" transform="rotate(180 97.519624628257 0)" font-family="Helvetica Neue, Helvetica, Arial, sans-serif">HAS_EVENT</text></g><g class="relationship" transform="translate(140.55074087263495 -92.15278367480974) rotate(534.4358160729732)"><path class="b-outline" fill="#A5ABB6" stroke="none" d="M 25 0.5 L 89.32286973464936 0.5 L 89.32286973464936 -0.5 L 25 -0.5 Z M 142.89318223464937 0.5 L 207.21605196929872 0.5 L 207.21605196929872 3.5 L 214.21605196929872 0 L 207.21605196929872 -3.5 L 207.21605196929872 -0.5 L 142.89318223464937 -0.5 Z"/><text text-anchor="middle" pointer-events="none" font-size="8px" fill="#000000" x="116.10802598464936" y="3" transform="rotate(180 116.10802598464936 0)" font-family="Helvetica Neue, Helvetica, Arial, sans-serif">HAS_EVENT</text></g><g class="relationship" transform="translate(-20.04308957745885 -214.74756277042346) rotate(238.88189741507767)"><path class="b-outline" fill="#A5ABB6" stroke="none" d="M 25 0.5 L 40.549494482016456 0.5 L 40.549494482016456 -0.5 L 25 -0.5 Z M 103.89324448201646 0.5 L 119.44273896403291 0.5 L 119.44273896403291 3.5 L 126.44273896403291 0 L 119.44273896403291 -3.5 L 119.44273896403291 -0.5 L 103.89324448201646 -0.5 Z"/><text text-anchor="middle" pointer-events="none" font-size="8px" fill="#000000" x="72.22136948201646" y="3" transform="rotate(180 72.22136948201646 0)" font-family="Helvetica Neue, Helvetica, Arial, sans-serif">HAS_TRIGGER</text></g><g class="relationship" transform="translate(-97.53817419961108 -68.95821449366231) rotate(188.32628647975037)"><path class="b-outline" fill="#A5ABB6" stroke="none" d="M 25 0.5 L 44.49082834596804 0.5 L 44.49082834596804 -0.5 L 25 -0.5 Z M 107.83457834596804 0.5 L 127.32540669193608 0.5 L 127.32540669193608 3.5 L 134.32540669193608 0 L 127.32540669193608 -3.5 L 127.32540669193608 -0.5 L 107.83457834596804 -0.5 Z"/><text text-anchor="middle" pointer-events="none" font-size="8px" fill="#000000" x="76.16270334596804" y="3" transform="rotate(180 76.16270334596804 0)" font-family="Helvetica Neue, Helvetica, Arial, sans-serif">HAS_TRIGGER</text></g><g class="relationship" transform="translate(-20.04308957745885 -214.74756277042346) rotate(195.02902645597322)"><path class="b-outline" fill="#A5ABB6" stroke="none" d="M 25 0.5 L 28.258896651377796 0.5 L 28.258896651377796 -0.5 L 25 -0.5 Z M 119.4698341513778 0.5 L 122.72873080275559 0.5 L 122.72873080275559 3.5 L 129.7287308027556 0 L 122.72873080275559 -3.5 L 122.72873080275559 -0.5 L 119.4698341513778 -0.5 Z"/><text text-anchor="middle" pointer-events="none" font-size="8px" fill="#000000" x="73.8643654013778" y="3" transform="rotate(180 73.8643654013778 0)" font-family="Helvetica Neue, Helvetica, Arial, sans-serif">HAS_EVENTASSIGN…</text></g><g class="relationship" transform="translate(-97.53817419961108 -68.95821449366231) rotate(512.1950527447495)"><path class="b-outline" fill="#A5ABB6" stroke="none" d="M 25 0.5 L 25.798078459139887 0.5 L 25.798078459139887 -0.5 L 25 -0.5 Z M 129.0090159591399 0.5 L 129.80709441827977 0.5 L 129.80709441827977 3.5 L 136.80709441827977 0 L 129.80709441827977 -3.5 L 129.80709441827977 -0.5 L 129.0090159591399 -0.5 Z"/><text text-anchor="middle" pointer-events="none" font-size="8px" fill="#000000" x="77.40354720913989" y="3" transform="rotate(180 77.40354720913989 0)" font-family="Helvetica Neue, Helvetica, Arial, sans-serif">HAS_EVENTASSIGNME…</text></g><g class="relationship" transform="translate(73.61509460238354 285.1459669275682) rotate(270.7304862593765)"><path class="b-outline" fill="#A5ABB6" stroke="none" d="M 25 0.5 L 62.350535175075734 0.5 L 62.350535175075734 -0.5 L 25 -0.5 Z M 113.24897267507573 0.5 L 150.59950785015147 0.5 L 150.59950785015147 3.5 L 157.59950785015147 0 L 150.59950785015147 -3.5 L 150.59950785015147 -0.5 L 113.24897267507573 -0.5 Z"/><text text-anchor="middle" pointer-events="none" font-size="8px" fill="#000000" x="87.79975392507573" y="3" font-family="Helvetica Neue, Helvetica, Arial, sans-serif">HAS_UNITS</text></g><g class="relationship" transform="translate(216.89188793097827 147.95713499017842) rotate(197.8523573510048)"><path class="b-outline" fill="#A5ABB6" stroke="none" d="M 25 0.5 L 45.0902181666646 0.5 L 45.0902181666646 -0.5 L 25 -0.5 Z M 95.9886556666646 0.5 L 116.0788738333292 0.5 L 116.0788738333292 3.5 L 123.0788738333292 0 L 116.0788738333292 -3.5 L 116.0788738333292 -0.5 L 95.9886556666646 -0.5 Z"/><text text-anchor="middle" pointer-events="none" font-size="8px" fill="#000000" x="70.5394369166646" y="3" transform="rotate(180 70.5394369166646 0)" font-family="Helvetica Neue, Helvetica, Arial, sans-serif">HAS_UNITS</text></g><g class="relationship" transform="translate(301.64759422396617 94.84038525140313) rotate(196.2730497084632)"><path class="b-outline" fill="#A5ABB6" stroke="none" d="M 25 0.5 L 44.37247814268818 0.5 L 44.37247814268818 -0.5 L 25 -0.5 Z M 95.27091564268818 0.5 L 114.64339378537636 0.5 L 114.64339378537636 3.5 L 121.64339378537636 0 L 114.64339378537636 -3.5 L 114.64339378537636 -0.5 L 95.27091564268818 -0.5 Z"/><text text-anchor="middle" pointer-events="none" font-size="8px" fill="#000000" x="69.82169689268818" y="3" transform="rotate(180 69.82169689268818 0)" font-family="Helvetica Neue, Helvetica, Arial, sans-serif">HAS_UNITS</text></g><g class="relationship" transform="translate(43.57014098255254 -74.92619735079107) rotate(407.6455126850573)"><path class="b-outline" fill="#A5ABB6" stroke="none" d="M 25 0.5 L 58.11200293437027 0.5 L 58.11200293437027 -0.5 L 25 -0.5 Z M 109.01044043437027 0.5 L 142.12244336874053 0.5 L 142.12244336874053 3.5 L 149.12244336874053 0 L 142.12244336874053 -3.5 L 142.12244336874053 -0.5 L 109.01044043437027 -0.5 Z"/><text text-anchor="middle" pointer-events="none" font-size="8px" fill="#000000" x="83.56122168437027" y="3" font-family="Helvetica Neue, Helvetica, Arial, sans-serif">HAS_UNITS</text></g><g class="relationship" transform="translate(-21.84801787724731 110.98503618496305) rotate(342.60766964260677)"><path class="b-outline" fill="#A5ABB6" stroke="none" d="M 25 0.5 L 66.79159936101193 0.5 L 66.79159936101193 -0.5 L 25 -0.5 Z M 117.69003686101193 0.5 L 159.48163622202387 0.5 L 159.48163622202387 3.5 L 166.48163622202387 0 L 159.48163622202387 -3.5 L 159.48163622202387 -0.5 L 117.69003686101193 -0.5 Z"/><text text-anchor="middle" pointer-events="none" font-size="8px" fill="#000000" x="92.24081811101193" y="3" font-family="Helvetica Neue, Helvetica, Arial, sans-serif">HAS_UNITS</text></g></g><g class="layer nodes"><g class="node" aria-label="graph-node0" transform="translate(75.94306394014811,102.56129937336213)"><circle class="b-outline" cx="0" cy="0" r="25" fill="#D9C8AE" stroke="#c0a378" stroke-width="2px"/><text class="caption" text-anchor="middle" pointer-events="none" x="0" y="5" font-size="10px" fill="#2A2C34" font-family="Helvetica Neue, Helvetica, Arial, sans-serif"> per_sec…</text></g><g class="node" aria-label="graph-node1" transform="translate(160.87914490196067,53.74867542605118)"><circle class="b-outline" cx="0" cy="0" r="25" fill="#D9C8AE" stroke="#c0a378" stroke-width="2px"/><text class="caption" text-anchor="middle" pointer-events="none" x="0" y="5" font-size="10px" fill="#2A2C34" font-family="Helvetica Neue, Helvetica, Arial, sans-serif"> concentr…</text></g><g class="node" aria-label="graph-node2" transform="translate(287.25849921552367,-47.85623018288903)"><circle class="b-outline" cx="0" cy="0" r="25" fill="#F79767" stroke="#f36924" stroke-width="2px"/><text class="caption" text-anchor="middle" pointer-events="none" x="0" y="5" font-size="10px" fill="#FFFFFF" font-family="Helvetica Neue, Helvetica, Arial, sans-serif"> cell</text></g><g class="node" aria-label="graph-node3" transform="translate(140.55074087263495,-92.15278367480974)"><circle class="b-outline" cx="0" cy="0" r="25" fill="#57C7E3" stroke="#23b3d7" stroke-width="2px"/><text class="caption" text-anchor="middle" pointer-events="none" x="0" y="5" font-size="10px" fill="#2A2C34" font-family="Helvetica Neue, Helvetica, Arial, sans-serif"> 95fb1fdf…</text></g><g class="node" aria-label="graph-node4" transform="translate(-58.885228740866964,217.96329981381714)"><circle class="b-outline" cx="0" cy="0" r="25" fill="#F16667" stroke="#eb2728" stroke-width="2px"/><text class="caption" text-anchor="middle" pointer-events="none" x="0" y="5" font-size="10px" fill="#FFFFFF" font-family="Helvetica Neue, Helvetica, Arial, sans-serif"> f5f0cb65…</text></g><g class="node" aria-label="graph-node5" transform="translate(37.93388008536449,192.30733625146794)"><circle class="b-outline" cx="0" cy="0" r="25" fill="#F16667" stroke="#eb2728" stroke-width="2px"/><text class="caption" text-anchor="middle" pointer-events="none" x="0" y="5" font-size="10px" fill="#FFFFFF" font-family="Helvetica Neue, Helvetica, Arial, sans-serif"> de25aa5…</text></g><g class="node" aria-label="graph-node6" transform="translate(147.91089099436897,219.12548104319066)"><circle class="b-outline" cx="0" cy="0" r="25" fill="#F16667" stroke="#eb2728" stroke-width="2px"/><text class="caption" text-anchor="middle" pointer-events="none" x="0" y="5" font-size="10px" fill="#FFFFFF" font-family="Helvetica Neue, Helvetica, Arial, sans-serif"> 2a6a3ffc…</text></g><g class="node" aria-label="graph-node7" transform="translate(300.7891530170375,-163.72687535337775)"><circle class="b-outline" cx="0" cy="0" r="25" fill="#ECB5C9" stroke="#da7298" stroke-width="2px"/><text class="caption" text-anchor="middle" pointer-events="none" x="0" y="5" font-size="10px" fill="#2A2C34" font-family="Helvetica Neue, Helvetica, Arial, sans-serif"> P1</text></g><g class="node" aria-label="graph-node8" transform="translate(211.9213605606593,-207.81628111116115)"><circle class="b-outline" cx="0" cy="0" r="25" fill="#ECB5C9" stroke="#da7298" stroke-width="2px"/><text class="caption" text-anchor="middle" pointer-events="none" x="0" y="5" font-size="10px" fill="#2A2C34" font-family="Helvetica Neue, Helvetica, Arial, sans-serif"> P2</text></g><g class="node" aria-label="graph-node9" transform="translate(73.61509460238354,285.1459669275682)"><circle class="b-outline" cx="0" cy="0" r="25" fill="#569480" stroke="#447666" stroke-width="2px"/><text class="caption" text-anchor="middle" pointer-events="none" x="0" y="5" font-size="10px" fill="#FFFFFF" font-family="Helvetica Neue, Helvetica, Arial, sans-serif"> k1</text></g><g class="node" aria-label="graph-node10" transform="translate(216.89188793097827,147.95713499017842)"><circle class="b-outline" cx="0" cy="0" r="25" fill="#569480" stroke="#447666" stroke-width="2px"/><text class="caption" text-anchor="middle" pointer-events="none" x="0" y="5" font-size="10px" fill="#FFFFFF" font-family="Helvetica Neue, Helvetica, Arial, sans-serif"> k2</text></g><g class="node" aria-label="graph-node11" transform="translate(301.64759422396617,94.84038525140313)"><circle class="b-outline" cx="0" cy="0" r="25" fill="#569480" stroke="#447666" stroke-width="2px"/><text class="caption" text-anchor="middle" pointer-events="none" x="0" y="5" font-size="10px" fill="#FFFFFF" font-family="Helvetica Neue, Helvetica, Arial, sans-serif"> tau</text></g><g class="node" aria-label="graph-node12" transform="translate(43.57014098255254,-74.92619735079107)"><circle class="b-outline" cx="0" cy="0" r="25" fill="#569480" stroke="#447666" stroke-width="2px"/><text class="caption" text-anchor="middle" pointer-events="none" x="0" y="5" font-size="10px" fill="#FFFFFF" font-family="Helvetica Neue, Helvetica, Arial, sans-serif"> G1</text></g><g class="node" aria-label="graph-node13" transform="translate(-21.84801787724731,110.98503618496305)"><circle class="b-outline" cx="0" cy="0" r="25" fill="#569480" stroke="#447666" stroke-width="2px"/><text class="caption" text-anchor="middle" pointer-events="none" x="0" y="5" font-size="10px" fill="#FFFFFF" font-family="Helvetica Neue, Helvetica, Arial, sans-serif"> G2</text></g><g class="node" aria-label="graph-node14" transform="translate(106.93577518477466,-237.34524240521182)"><circle class="b-outline" cx="0" cy="0" r="25" fill="#A5ABB6" stroke="#9AA1AC" stroke-width="2px"/><text class="caption" text-anchor="middle" pointer-events="none" x="0" y="5" font-size="10px" fill="#FFFFFF" font-family="Helvetica Neue, Helvetica, Arial, sans-serif"> P1</text></g><g class="node" aria-label="graph-node15" transform="translate(19.858523153432632,20.47818319408625)"><circle class="b-outline" cx="0" cy="0" r="25" fill="#A5ABB6" stroke="#9AA1AC" stroke-width="2px"/><text class="caption" text-anchor="middle" pointer-events="none" x="0" y="5" font-size="10px" fill="#FFFFFF" font-family="Helvetica Neue, Helvetica, Arial, sans-serif"> P2</text></g><g class="node" aria-label="graph-node16" transform="translate(-20.04308957745885,-214.74756277042346)"><circle class="b-outline" cx="0" cy="0" r="25" fill="#A5ABB6" stroke="#9AA1AC" stroke-width="2px"/><text class="caption" text-anchor="middle" pointer-events="none" x="0" y="5" font-size="10px" fill="#FFFFFF" font-family="Helvetica Neue, Helvetica, Arial, sans-serif"> 2ad5337…</text></g><g class="node" aria-label="graph-node17" transform="translate(-97.53817419961108,-68.95821449366231)"><circle class="b-outline" cx="0" cy="0" r="25" fill="#A5ABB6" stroke="#9AA1AC" stroke-width="2px"/><text class="caption" text-anchor="middle" pointer-events="none" x="0" y="5" font-size="10px" fill="#FFFFFF" font-family="Helvetica Neue, Helvetica, Arial, sans-serif"> 035700b…</text></g><g class="node" aria-label="graph-node18" transform="translate(-98.30927867748397,-344.3982736388461)"><circle class="b-outline" cx="0" cy="0" r="25" fill="#A5ABB6" stroke="#9AA1AC" stroke-width="2px"/><text class="caption" text-anchor="middle" pointer-events="none" x="0" y="5" font-size="10px" fill="#FFFFFF" font-family="Helvetica Neue, Helvetica, Arial, sans-serif"> df25b79…</text></g><g class="node" aria-label="graph-node19" transform="translate(-255.1842044928974,-92.03015308405992)"><circle class="b-outline" cx="0" cy="0" r="25" fill="#A5ABB6" stroke="#9AA1AC" stroke-width="2px"/><text class="caption" text-anchor="middle" pointer-events="none" x="0" y="5" font-size="10px" fill="#FFFFFF" font-family="Helvetica Neue, Helvetica, Arial, sans-serif"> be026be…</text></g><g class="node" aria-label="graph-node20" transform="translate(-169.479259581477,-254.8700157158977)"><circle class="b-outline" cx="0" cy="0" r="25" fill="#A5ABB6" stroke="#9AA1AC" stroke-width="2px"/><text class="caption" text-anchor="middle" pointer-events="none" x="0" y="5" font-size="10px" fill="#FFFFFF" font-family="Helvetica Neue, Helvetica, Arial, sans-serif"> G2-e1</text></g><g class="node" aria-label="graph-node21" transform="translate(-240.66313497921453,6.518811189144534)"><circle class="b-outline" cx="0" cy="0" r="25" fill="#A5ABB6" stroke="#9AA1AC" stroke-width="2px"/><text class="caption" text-anchor="middle" pointer-events="none" x="0" y="5" font-size="10px" fill="#FFFFFF" font-family="Helvetica Neue, Helvetica, Arial, sans-serif"> G2-e2</text></g></g></svg>