<svg xmlns="http://www.w3.org/2000/svg" width="447.03985595703125" height="419.239990234375" viewBox="-165.95867919921875 -286.2469787597656 447.03985595703125 419.239990234375"><title>Neo4j Graph Visualization</title><desc>Created using Neo4j (http://www.neo4j.com/)</desc><g class="layer relationships"><g class="relationship" transform="translate(1.6521761729674098 -99.26405704337232) rotate(290.316293006934)"><path class="b-outline" fill="#A5ABB6" stroke="none" d="M 24.018736134675446,-6.953439040707552 L 24.277555179777966,-5.987513214418485 A 187.380335395591 187.380335395591 0 0 1 40.5608449851039,-9.582441973894447 L 40.38892561264285,-10.567552997775834 A 188.380335395591 188.380335395591 0 0 0 24.018736134675446,-6.953439040707552 Z M 100.81498446845865,-11.273833944094036 L 100.66613756386153,-10.284973691585208 A 187.380335395591 187.380335395591 0 0 1 117.02900490536976,-7.0716246544991455 L 116.32049111995967,-4.156490315247548 L 123.94907066119184,-5.904281545084175 L 117.97368995258323,-10.958470440167943 L 117.26517616717314,-8.043336100916346 A 188.380335395591 188.380335395591 0 0 0 100.81498446845865,-11.273833944094036"/><text text-anchor="middle" pointer-events="none" font-size="8px" fill="#000000" x="70.57929346488295" y="-9.859510753499421" font-family="Helvetica Neue, Helvetica, Arial, sans-serif">IS_REACTANT</text></g><g class="relationship" transform="translate(117.37104637651292 -99.71125965216864) rotate(477.44927668661694)"><path class="b-outline" fill="#A5ABB6" stroke="none" d="M 25 0.5 L 26.22310156686889 0.5 L 26.22310156686889 -0.5 L 25 -0.5 Z M 119.79341406686889 0.5 L 121.01651563373778 0.5 L 121.01651563373778 3.5 L 128.01651563373778 0 L 121.01651563373778 -3.5 L 121.01651563373778 -0.5 L 119.79341406686889 -0.5 Z"/><text text-anchor="middle" pointer-events="none" font-size="8px" fill="#000000" x="73.00825781686889" y="3" transform="rotate(180 73.00825781686889 0)" font-family="Helvetica Neue, Helvetica, Arial, sans-serif">HAS_ASSIGNMENTR…</text></g><g class="relationship" transform="translate(117.37104637651292 -99.71125965216864) rotate(245.12527750187917)"><path class="b-outline" fill="#A5ABB6" stroke="none" d="M 25 0.5 L 38.75408175795555 0.5 L 38.75408175795555 -0.5 L 25 -0.5 Z M 106.98845675795555 0.5 L 120.7425385159111 0.5 L 120.7425385159111 3.5 L 127.7425385159111 0 L 120.7425385159111 -3.5 L 120.7425385159111 -0.5 L 106.98845675795555 -0.5 Z"/><text text-anchor="middle" pointer-events="none" font-size="8px" fill="#000000" x="72.87126925795555" y="3" transform="rotate(180 72.87126925795555 0)" font-family="Helvetica Neue, Helvetica, Arial, sans-serif">HAS_REACTION</text></g><g class="relationship" transform="translate(117.37104637651292 -99.71125965216864) rotate(437.35131382157226)"><path class="b-outline" fill="#A5ABB6" stroke="none" d="M 25 0.5 L 26.22576471775284 0.5 L 26.22576471775284 -0.5 L 25 -0.5 Z M 95.64763971775284 0.5 L 96.87340443550568 0.5 L 96.87340443550568 3.5 L 103.87340443550568 0 L 96.87340443550568 -3.5 L 96.87340443550568 -0.5 L 95.64763971775284 -0.5 Z"/><text text-anchor="middle" pointer-events="none" font-size="8px" fill="#000000" x="60.93670221775284" y="3" font-family="Helvetica Neue, Helvetica, Arial, sans-serif">HAS_COMPAR…</text></g><g class="relationship" transform="translate(117.37104637651292 -99.71125965216864) rotate(381.7901968103496)"><path class="b-outline" fill="#A5ABB6" stroke="none" d="M 25 0.5 L 30.991076212207417 0.5 L 30.991076212207417 -0.5 L 25 -0.5 Z M 107.08482621220742 0.5 L 113.07590242441483 0.5 L 113.07590242441483 3.5 L 120.07590242441483 0 L 113.07590242441483 -3.5 L 113.07590242441483 -0.5 L 107.08482621220742 -0.5 Z"/><text text-anchor="middle" pointer-events="none" font-size="8px" fill="#000000" x="69.03795121220742" y="3" font-family="Helvetica Neue, Helvetica, Arial, sans-serif">HAS_PARAMETER</text></g><g class="relationship" transform="translate(117.37104637651292 -99.71125965216864) rotate(510.50929707127983)"><path class="b-outline" fill="#A5ABB6" stroke="none" d="M 25 0.5 L 42.417246923041276 0.5 L 42.417246923041276 -0.5 L 25 -0.5 Z M 133.31177817304126 0.5 L 150.72902509608255 0.5 L 150.72902509608255 3.5 L 157.72902509608255 0 L 150.72902509608255 -3.5 L 150.72902509608255 -0.5 L 133.31177817304126 -0.5 Z"/><text text-anchor="middle" pointer-events="none" font-size="8px" fill="#000000" x="87.86451254804128" y="3" transform="rotate(180 87.86451254804128 0)" font-family="Helvetica Neue, Helvetica, Arial, sans-serif">HAS_UNITDEFINITION</text></g><g class="relationship" transform="translate(53.12209602086491 -238.2838234968275) rotate(470.316293006934)"><path class="b-outline" fill="#A5ABB6" stroke="none" d="M 24.018736134675446,-6.953439040707552 L 24.277555179777966,-5.987513214418485 A 187.380335395591 187.380335395591 0 0 1 37.655876179457984,-9.051852457196475 L 37.46845374580584,-10.03413186315177 A 188.380335395591 188.380335395591 0 0 0 24.018736134675446,-6.953439040707552 Z M 103.74712639184611,-10.808820209927092 L 103.58271447661646,-9.822428440836063 A 187.380335395591 187.380335395591 0 0 1 117.02900490536976,-7.0716246544991455 L 116.32049111995967,-4.156490315247548 L 123.94907066119184,-5.904281545084175 L 117.97368995258323,-10.958470440167943 L 117.26517616717314,-8.043336100916346 A 188.380335395591 188.380335395591 0 0 0 103.74712639184611,-10.808820209927092"/><text text-anchor="middle" pointer-events="none" font-size="8px" fill="#000000" x="70.57929346488295" y="-9.859510753499421" transform="rotate(180 70.57929346488295 -12.859510753499421)" font-family="Helvetica Neue, Helvetica, Arial, sans-serif">HAS_PRODUCT</text></g><g class="relationship" transform="translate(117.37104637651292 -99.71125965216864) rotate(539.7785780791858)"><path class="b-outline" fill="#A5ABB6" stroke="none" d="M 25 0.5 L 26.018070285576698 0.5 L 26.018070285576698 -0.5 L 25 -0.5 Z M 82.7016640355767 0.5 L 83.7197343211534 0.5 L 83.7197343211534 3.5 L 90.7197343211534 0 L 83.7197343211534 -3.5 L 83.7197343211534 -0.5 L 82.7016640355767 -0.5 Z"/><text text-anchor="middle" pointer-events="none" font-size="8px" fill="#000000" x="54.3598671605767" y="3" transform="rotate(180 54.3598671605767 0)" font-family="Helvetica Neue, Helvetica, Arial, sans-serif">HAS_SPEC…</text></g><g class="relationship" transform="translate(1.6521761729674098 -99.26405704337232) rotate(401.0395785849889)"><path class="b-outline" fill="#A5ABB6" stroke="none" d="M 25 0.5 L 51.72616614280774 0.5 L 51.72616614280774 -0.5 L 25 -0.5 Z M 132.10897864280776 0.5 L 158.83514478561548 0.5 L 158.83514478561548 3.5 L 165.83514478561548 0 L 158.83514478561548 -3.5 L 158.83514478561548 -0.5 L 132.10897864280776 -0.5 Z"/><text text-anchor="middle" pointer-events="none" font-size="8px" fill="#000000" x="91.91757239280774" y="3" font-family="Helvetica Neue, Helvetica, Arial, sans-serif">IN_COMPARTMENT</text></g><g class="relationship" transform="translate(53.12209602086491 -238.2838234968275) rotate(187.46433807189845)"><path class="b-outline" fill="#A5ABB6" stroke="none" d="M 25 0.5 L 30.179675802428008 0.5 L 30.179675802428008 -0.5 L 25 -0.5 Z M 108.79295705242801 0.5 L 113.97263285485602 0.5 L 113.97263285485602 3.5 L 120.97263285485602 0 L 113.97263285485602 -3.5 L 113.97263285485602 -0.5 L 108.79295705242801 -0.5 Z"/><text text-anchor="middle" pointer-events="none" font-size="8px" fill="#000000" x="69.48631642742801" y="3" transform="rotate(180 69.48631642742801 0)" font-family="Helvetica Neue, Helvetica, Arial, sans-serif">HAS_KENETICLAW</text></g><g class="relationship" transform="translate(-41.68279990824224 -9.756990189345258) rotate(489.9492131769199)"><path class="b-outline" fill="#A5ABB6" stroke="none" d="M 25 0.5 L 38.350033678131126 0.5 L 38.350033678131126 -0.5 L 25 -0.5 Z M 103.02972117813113 0.5 L 116.37975485626225 0.5 L 116.37975485626225 3.5 L 123.37975485626225 0 L 116.37975485626225 -3.5 L 116.37975485626225 -0.5 L 103.02972117813113 -0.5 Z"/><text text-anchor="middle" pointer-events="none" font-size="8px" fill="#000000" x="70.68987742813113" y="3" transform="rotate(180 70.68987742813113 0)" font-family="Helvetica Neue, Helvetica, Arial, sans-serif">IS_COMPOSED</text></g></g><g class="layer nodes"><g class="node" aria-label="graph-node-4" transform="translate(-136.95867762448802,103.99299344407535)"><circle class="b-outline" cx="0" cy="0" r="25" fill="#F16667" stroke="#eb2728" stroke-width="2px"/><text class="caption" text-anchor="middle" pointer-events="none" x="0" y="5" font-size="10px" fill="#FFFFFF" font-family="Helvetica Neue, Helvetica, Arial, sans-serif"> unit</text></g><g class="node" aria-label="graph-node-2" transform="translate(145.59076920539107,26.034522043515736)"><circle class="b-outline" cx="0" cy="0" r="25" fill="#F79767" stroke="#f36924" stroke-width="2px"/><text class="caption" text-anchor="middle" pointer-events="none" x="0" y="5" font-size="10px" fill="#FFFFFF" font-family="Helvetica Neue, Helvetica, Arial, sans-serif"> compart…</text></g><g class="node" aria-label="graph-node-8" transform="translate(252.08118178991003,-45.85778361614517)"><circle class="b-outline" cx="0" cy="0" r="25" fill="#569480" stroke="#447666" stroke-width="2px"/><text class="caption" text-anchor="middle" pointer-events="none" x="0" y="5" font-size="10px" fill="#FFFFFF" font-family="Helvetica Neue, Helvetica, Arial, sans-serif"> Parameter</text></g><g class="node" aria-label="graph-node-3" transform="translate(117.37104637651292,-99.71125965216864)"><circle class="b-outline" cx="0" cy="0" r="25" fill="#57C7E3" stroke="#23b3d7" stroke-width="2px"/><text class="caption" text-anchor="middle" pointer-events="none" x="0" y="5" font-size="10px" fill="#2A2C34" font-family="Helvetica Neue, Helvetica, Arial, sans-serif"> model</text></g><g class="node" aria-label="graph-node-6" transform="translate(53.12209602086491,-238.2838234968275)"><circle class="b-outline" cx="0" cy="0" r="25" fill="#4C8EDA" stroke="#2870c2" stroke-width="2px"/><text class="caption" text-anchor="middle" pointer-events="none" x="0" y="5" font-size="10px" fill="#FFFFFF" font-family="Helvetica Neue, Helvetica, Arial, sans-serif"> Reaction</text></g><g class="node" aria-label="graph-node-5" transform="translate(1.6521761729674098,-99.26405704337232)"><circle class="b-outline" cx="0" cy="0" r="25" fill="#ECB5C9" stroke="#da7298" stroke-width="2px"/><text class="caption" text-anchor="middle" pointer-events="none" x="0" y="5" font-size="10px" fill="#2A2C34" font-family="Helvetica Neue, Helvetica, Arial, sans-serif"> Species</text></g><g class="node" aria-label="graph-node-7" transform="translate(-91.61355177837544,-257.24699302918253)"><circle class="b-outline" cx="0" cy="0" r="25" fill="#FFC454" stroke="#d7a013" stroke-width="2px"/><text class="caption" text-anchor="middle" pointer-events="none" x="0" y="5" font-size="10px" fill="#2A2C34" font-family="Helvetica Neue, Helvetica, Arial, sans-serif"> KineticL…</text></g><g class="node" aria-label="graph-node-1" transform="translate(-41.68279990824224,-9.756990189345258)"><circle class="b-outline" cx="0" cy="0" r="25" fill="#D9C8AE" stroke="#c0a378" stroke-width="2px"/><text class="caption" text-anchor="middle" pointer-events="none" x="0" y="5" font-size="10px" fill="#2A2C34" font-family="Helvetica Neue, Helvetica, Arial, sans-serif"> UnitDefi…</text></g><g class="node" aria-label="graph-node-9" transform="translate(46.83606802068647,36.07854440186562)"><circle class="b-outline" cx="0" cy="0" r="25" fill="#A5ABB6" stroke="#9AA1AC" stroke-width="2px"/><text class="caption" text-anchor="middle" pointer-events="none" x="0" y="5" font-size="10px" fill="#FFFFFF" font-family="Helvetica Neue, Helvetica, Arial, sans-serif"> algebrai…</text></g></g></svg>