<svg xmlns="http://www.w3.org/2000/svg" width="754.7063598632812" height="580.8831176757812" viewBox="-332.8594970703125 -279.263671875 754.7063598632812 580.8831176757812"><title>Neo4j Graph Visualization</title><desc>Created using Neo4j (http://www.neo4j.com/)</desc><g class="layer relationships"><g class="relationship" transform="translate(65.38282796388462 -46.87222602973475) rotate(302.2322936620319)"><path class="b-outline" fill="#A5ABB6" stroke="none" d="M 25 0.5 L 25.53887783630124 0.5 L 25.53887783630124 -0.5 L 25 -0.5 Z M 79.10137783630124 0.5 L 79.64025567260248 0.5 L 79.64025567260248 3.5 L 86.64025567260248 0 L 79.64025567260248 -3.5 L 79.64025567260248 -0.5 L 79.10137783630124 -0.5 Z"/><text text-anchor="middle" pointer-events="none" font-size="8px" fill="#000000" x="52.32012783630124" y="3" font-family="Helvetica Neue, Helvetica, Arial, sans-serif">HAS_COM…</text></g><g class="relationship" transform="translate(65.38282796388462 -46.87222602973475) rotate(301.50886651330757)"><path class="b-outline" fill="#A5ABB6" stroke="none" d="M 25 0.5 L 57.21369849767237 0.5 L 57.21369849767237 -0.5 L 25 -0.5 Z M 146.04572974767237 0.5 L 178.25942824534474 0.5 L 178.25942824534474 3.5 L 185.25942824534474 0 L 178.25942824534474 -3.5 L 178.25942824534474 -0.5 L 146.04572974767237 -0.5 Z"/><text text-anchor="middle" pointer-events="none" font-size="8px" fill="#000000" x="101.62971412267237" y="3" font-family="Helvetica Neue, Helvetica, Arial, sans-serif">HAS_COMPARTMENT</text></g><g class="relationship" transform="translate(-77.8705531306689 77.2443391783531) rotate(399.83210650971427)"><path class="b-outline" fill="#A5ABB6" stroke="none" d="M 25 0.5 L 52.2927762095228 0.5 L 52.2927762095228 -0.5 L 25 -0.5 Z M 116.9724637095228 0.5 L 144.2652399190456 0.5 L 144.2652399190456 3.5 L 151.2652399190456 0 L 144.2652399190456 -3.5 L 144.2652399190456 -0.5 L 116.9724637095228 -0.5 Z"/><text text-anchor="middle" pointer-events="none" font-size="8px" fill="#000000" x="84.6326199595228" y="3" font-family="Helvetica Neue, Helvetica, Arial, sans-serif">IS_COMPOSED</text></g><g class="relationship" transform="translate(191.49241159407435 112.53137688408061) rotate(445.59030069558406)"><path class="b-outline" fill="#A5ABB6" stroke="none" d="M 25 0.5 L 44.44182521132106 0.5 L 44.44182521132106 -0.5 L 25 -0.5 Z M 109.12151271132106 0.5 L 128.56333792264212 0.5 L 128.56333792264212 3.5 L 135.56333792264212 0 L 128.56333792264212 -3.5 L 128.56333792264212 -0.5 L 109.12151271132106 -0.5 Z"/><text text-anchor="middle" pointer-events="none" font-size="8px" fill="#000000" x="76.78166896132106" y="3" font-family="Helvetica Neue, Helvetica, Arial, sans-serif">IS_COMPOSED</text></g><g class="relationship" transform="translate(220.36467789144442 16.970534553478753) rotate(507.6697297109283)"><path class="b-outline" fill="#A5ABB6" stroke="none" d="M 25 0.5 L 39.22101587473827 0.5 L 39.22101587473827 -0.5 L 25 -0.5 Z M 103.90070337473827 0.5 L 118.12171924947654 0.5 L 118.12171924947654 3.5 L 125.12171924947654 0 L 118.12171924947654 -3.5 L 118.12171924947654 -0.5 L 103.90070337473827 -0.5 Z"/><text text-anchor="middle" pointer-events="none" font-size="8px" fill="#000000" x="71.56085962473827" y="3" transform="rotate(180 71.56085962473827 0)" font-family="Helvetica Neue, Helvetica, Arial, sans-serif">IS_COMPOSED</text></g><g class="relationship" transform="translate(-38.777890113982096 167.83180527776648) rotate(331.9207070709664)"><path class="b-outline" fill="#A5ABB6" stroke="none" d="M 25 0.5 L 39.13083008766225 0.5 L 39.13083008766225 -0.5 L 25 -0.5 Z M 103.81051758766225 0.5 L 117.9413476753245 0.5 L 117.9413476753245 3.5 L 124.9413476753245 0 L 117.9413476753245 -3.5 L 117.9413476753245 -0.5 L 103.81051758766225 -0.5 Z"/><text text-anchor="middle" pointer-events="none" font-size="8px" fill="#000000" x="71.47067383766225" y="3" font-family="Helvetica Neue, Helvetica, Arial, sans-serif">IS_COMPOSED</text></g><g class="relationship" transform="translate(-38.777890113982096 167.83180527776648) rotate(291.7269210236867)"><path class="b-outline" fill="#A5ABB6" stroke="none" d="M 25 0.5 L 33.98947348267758 0.5 L 33.98947348267758 -0.5 L 25 -0.5 Z M 98.66916098267758 0.5 L 107.65863446535516 0.5 L 107.65863446535516 3.5 L 114.65863446535516 0 L 107.65863446535516 -3.5 L 107.65863446535516 -0.5 L 98.66916098267758 -0.5 Z"/><text text-anchor="middle" pointer-events="none" font-size="8px" fill="#000000" x="66.32931723267758" y="3" font-family="Helvetica Neue, Helvetica, Arial, sans-serif">IS_COMPOSED</text></g><g class="relationship" transform="translate(241.41750295131283 -80.92836013416733) rotate(370.5759013109716)"><path class="b-outline" fill="#A5ABB6" stroke="none" d="M 25 0.5 L 41.18321745742189 0.5 L 41.18321745742189 -0.5 L 25 -0.5 Z M 105.86290495742189 0.5 L 122.04612241484378 0.5 L 122.04612241484378 3.5 L 129.04612241484378 0 L 122.04612241484378 -3.5 L 122.04612241484378 -0.5 L 105.86290495742189 -0.5 Z"/><text text-anchor="middle" pointer-events="none" font-size="8px" fill="#000000" x="73.52306120742189" y="3" font-family="Helvetica Neue, Helvetica, Arial, sans-serif">IS_COMPOSED</text></g><g class="relationship" transform="translate(65.38282796388462 -46.87222602973475) rotate(499.093923758457)"><path class="b-outline" fill="#A5ABB6" stroke="none" d="M 25 0.5 L 45.82410789316067 0.5 L 45.82410789316067 -0.5 L 25 -0.5 Z M 136.71863914316066 0.5 L 157.54274703632134 0.5 L 157.54274703632134 3.5 L 164.54274703632134 0 L 157.54274703632134 -3.5 L 157.54274703632134 -0.5 L 136.71863914316066 -0.5 Z"/><text text-anchor="middle" pointer-events="none" font-size="8px" fill="#000000" x="91.27137351816067" y="3" transform="rotate(180 91.27137351816067 0)" font-family="Helvetica Neue, Helvetica, Arial, sans-serif">HAS_UNITDEFINITION</text></g><g class="relationship" transform="translate(65.38282796388462 -46.87222602973475) rotate(411.6512865246856)"><path class="b-outline" fill="#A5ABB6" stroke="none" d="M 25 0.5 L 52.68089939986545 0.5 L 52.68089939986545 -0.5 L 25 -0.5 Z M 143.57543064986544 0.5 L 171.2563300497309 0.5 L 171.2563300497309 3.5 L 178.2563300497309 0 L 171.2563300497309 -3.5 L 171.2563300497309 -0.5 L 143.57543064986544 -0.5 Z"/><text text-anchor="middle" pointer-events="none" font-size="8px" fill="#000000" x="98.12816502486545" y="3" font-family="Helvetica Neue, Helvetica, Arial, sans-serif">HAS_UNITDEFINITION</text></g><g class="relationship" transform="translate(65.38282796388462 -46.87222602973475) rotate(382.38857587485745)"><path class="b-outline" fill="#A5ABB6" stroke="none" d="M 25 0.5 L 34.86095575848687 0.5 L 34.86095575848687 -0.5 L 25 -0.5 Z M 125.75548700848687 0.5 L 135.61644276697373 0.5 L 135.61644276697373 3.5 L 142.61644276697373 0 L 135.61644276697373 -3.5 L 135.61644276697373 -0.5 L 125.75548700848687 -0.5 Z"/><text text-anchor="middle" pointer-events="none" font-size="8px" fill="#000000" x="80.30822138348687" y="3" font-family="Helvetica Neue, Helvetica, Arial, sans-serif">HAS_UNITDEFINITION</text></g><g class="relationship" transform="translate(65.38282796388462 -46.87222602973475) rotate(475.8797068754302)"><path class="b-outline" fill="#A5ABB6" stroke="none" d="M 25 0.5 L 70.37087659380646 0.5 L 70.37087659380646 -0.5 L 25 -0.5 Z M 161.26540784380646 0.5 L 206.63628443761291 0.5 L 206.63628443761291 3.5 L 213.63628443761291 0 L 206.63628443761291 -3.5 L 206.63628443761291 -0.5 L 161.26540784380646 -0.5 Z"/><text text-anchor="middle" pointer-events="none" font-size="8px" fill="#000000" x="115.81814221880646" y="3" transform="rotate(180 115.81814221880646 0)" font-family="Helvetica Neue, Helvetica, Arial, sans-serif">HAS_UNITDEFINITION</text></g><g class="relationship" transform="translate(65.38282796388462 -46.87222602973475) rotate(349.0506726200766)"><path class="b-outline" fill="#A5ABB6" stroke="none" d="M 25 0.5 L 40.70208890149475 0.5 L 40.70208890149475 -0.5 L 25 -0.5 Z M 131.59662015149473 0.5 L 147.2987090529895 0.5 L 147.2987090529895 3.5 L 154.2987090529895 0 L 147.2987090529895 -3.5 L 147.2987090529895 -0.5 L 131.59662015149473 -0.5 Z"/><text text-anchor="middle" pointer-events="none" font-size="8px" fill="#000000" x="86.14935452649475" y="3" font-family="Helvetica Neue, Helvetica, Arial, sans-serif">HAS_UNITDEFINITION</text></g><g class="relationship" transform="translate(65.38282796388462 -46.87222602973475) rotate(240.77455801336333)"><path class="b-outline" fill="#A5ABB6" stroke="none" d="M 25 0.5 L 78.0920190434347 0.5 L 78.0920190434347 -0.5 L 25 -0.5 Z M 139.6701440434347 0.5 L 192.7621630868694 0.5 L 192.7621630868694 3.5 L 199.7621630868694 0 L 192.7621630868694 -3.5 L 192.7621630868694 -0.5 L 139.6701440434347 -0.5 Z"/><text text-anchor="middle" pointer-events="none" font-size="8px" fill="#000000" x="108.8810815434347" y="3" transform="rotate(180 108.8810815434347 0)" font-family="Helvetica Neue, Helvetica, Arial, sans-serif">HAS_SPECIES</text></g><g class="relationship" transform="translate(65.38282796388462 -46.87222602973475) rotate(220.42033127150165)"><path class="b-outline" fill="#A5ABB6" stroke="none" d="M 25 0.5 L 32.386280464563825 0.5 L 32.386280464563825 -0.5 L 25 -0.5 Z M 93.96440546456382 0.5 L 101.35068592912765 0.5 L 101.35068592912765 3.5 L 108.35068592912765 0 L 101.35068592912765 -3.5 L 101.35068592912765 -0.5 L 93.96440546456382 -0.5 Z"/><text text-anchor="middle" pointer-events="none" font-size="8px" fill="#000000" x="63.175342964563825" y="3" transform="rotate(180 63.175342964563825 0)" font-family="Helvetica Neue, Helvetica, Arial, sans-serif">HAS_SPECIES</text></g><g class="relationship" transform="translate(65.38282796388462 -46.87222602973475) rotate(260.8953373264318)"><path class="b-outline" fill="#A5ABB6" stroke="none" d="M 25 0.5 L 40.697782986173564 0.5 L 40.697782986173564 -0.5 L 25 -0.5 Z M 102.27590798617356 0.5 L 117.97369097234713 0.5 L 117.97369097234713 3.5 L 124.97369097234713 0 L 117.97369097234713 -3.5 L 117.97369097234713 -0.5 L 102.27590798617356 -0.5 Z"/><text text-anchor="middle" pointer-events="none" font-size="8px" fill="#000000" x="71.48684548617356" y="3" transform="rotate(180 71.48684548617356 0)" font-family="Helvetica Neue, Helvetica, Arial, sans-serif">HAS_SPECIES</text></g><g class="relationship" transform="translate(-44.35667533947694 -243.02337022782493) rotate(390.9999677001694)"><path class="b-outline" fill="#A5ABB6" stroke="none" d="M 25 0.5 L 55.05426792009342 0.5 L 55.05426792009342 -0.5 L 25 -0.5 Z M 135.43708042009342 0.5 L 165.49134834018685 0.5 L 165.49134834018685 3.5 L 172.49134834018685 0 L 165.49134834018685 -3.5 L 165.49134834018685 -0.5 L 135.43708042009342 -0.5 Z"/><text text-anchor="middle" pointer-events="none" font-size="8px" fill="#000000" x="95.24567417009342" y="3" font-family="Helvetica Neue, Helvetica, Arial, sans-serif">IN_COMPARTMENT</text></g><g class="relationship" transform="translate(-36.1381528157308 -133.3354893229612) rotate(357.16627421581256)"><path class="b-outline" fill="#A5ABB6" stroke="none" d="M 25 0.5 L 36.939518826524505 0.5 L 36.939518826524505 -0.5 L 25 -0.5 Z M 117.3223313265245 0.5 L 129.261850153049 0.5 L 129.261850153049 3.5 L 136.261850153049 0 L 129.261850153049 -3.5 L 129.261850153049 -0.5 L 117.3223313265245 -0.5 Z"/><text text-anchor="middle" pointer-events="none" font-size="8px" fill="#000000" x="77.1309250765245" y="3" font-family="Helvetica Neue, Helvetica, Arial, sans-serif">IN_COMPARTMENT</text></g><g class="relationship" transform="translate(41.65122784021489 -194.9563883815518) rotate(346.86737518162545)"><path class="b-outline" fill="#A5ABB6" stroke="none" d="M 25 0.5 L 26.244638373109694 0.5 L 26.244638373109694 -0.5 L 25 -0.5 Z M 103.9633883731097 0.5 L 105.20802674621939 0.5 L 105.20802674621939 3.5 L 112.20802674621939 0 L 105.20802674621939 -3.5 L 105.20802674621939 -0.5 L 103.9633883731097 -0.5 Z"/><text text-anchor="middle" pointer-events="none" font-size="8px" fill="#000000" x="65.1040133731097" y="3" font-family="Helvetica Neue, Helvetica, Arial, sans-serif">IN_COMPARTME…</text></g><g class="relationship" transform="translate(65.38282796388462 -46.87222602973475) rotate(207.14129108804116)"><path class="b-outline" fill="#A5ABB6" stroke="none" d="M 25 0.5 L 85.20311099883078 0.5 L 85.20311099883078 -0.5 L 25 -0.5 Z M 153.43748599883077 0.5 L 213.64059699766156 0.5 L 213.64059699766156 3.5 L 220.64059699766156 0 L 213.64059699766156 -3.5 L 213.64059699766156 -0.5 L 153.43748599883077 -0.5 Z"/><text text-anchor="middle" pointer-events="none" font-size="8px" fill="#000000" x="119.32029849883078" y="3" transform="rotate(180 119.32029849883078 0)" font-family="Helvetica Neue, Helvetica, Arial, sans-serif">HAS_REACTION</text></g><g class="relationship" transform="translate(-153.20887734276053 -158.93010957435814) rotate(217.6618605610546)"><path class="b-outline" fill="#A5ABB6" stroke="none" d="M 25 0.5 L 31.934396454444425 0.5 L 31.934396454444425 -0.5 L 25 -0.5 Z M 110.54767770444442 0.5 L 117.48207415888885 0.5 L 117.48207415888885 3.5 L 124.48207415888885 0 L 117.48207415888885 -3.5 L 117.48207415888885 -0.5 L 110.54767770444442 -0.5 Z"/><text text-anchor="middle" pointer-events="none" font-size="8px" fill="#000000" x="71.24103707944442" y="3" transform="rotate(180 71.24103707944442 0)" font-family="Helvetica Neue, Helvetica, Arial, sans-serif">HAS_KENETICLAW</text></g><g class="relationship" transform="translate(-44.35667533947694 -243.02337022782493) rotate(502.3122871413807)"><path class="b-outline" fill="#A5ABB6" stroke="none" d="M 25 0.5 L 35.0102398951352 0.5 L 35.0102398951352 -0.5 L 25 -0.5 Z M 95.5414898951352 0.5 L 105.5517297902704 0.5 L 105.5517297902704 3.5 L 112.5517297902704 0 L 105.5517297902704 -3.5 L 105.5517297902704 -0.5 L 95.5414898951352 -0.5 Z"/><text text-anchor="middle" pointer-events="none" font-size="8px" fill="#000000" x="65.2758648951352" y="3" transform="rotate(180 65.2758648951352 0)" font-family="Helvetica Neue, Helvetica, Arial, sans-serif">IS_REACTANT</text></g><g class="relationship" transform="translate(-153.20887734276053 -158.93010957435814) rotate(372.33226765008186)"><path class="b-outline" fill="#A5ABB6" stroke="none" d="M 25 0.5 L 27.412082693918094 0.5 L 27.412082693918094 -0.5 L 25 -0.5 Z M 85.4238014439181 0.5 L 87.83588413783619 0.5 L 87.83588413783619 3.5 L 94.83588413783619 0 L 87.83588413783619 -3.5 L 87.83588413783619 -0.5 L 85.4238014439181 -0.5 Z"/><text text-anchor="middle" pointer-events="none" font-size="8px" fill="#000000" x="56.417942068918094" y="3" font-family="Helvetica Neue, Helvetica, Arial, sans-serif">HAS_PROD…</text></g><g class="relationship" transform="translate(65.38282796388462 -46.87222602973475) rotate(530.4770923442068)"><path class="b-outline" fill="#A5ABB6" stroke="none" d="M 25 0.5 L 25.209645996091567 0.5 L 25.209645996091567 -0.5 L 25 -0.5 Z M 117.43620849609157 0.5 L 117.64585449218313 0.5 L 117.64585449218313 3.5 L 124.64585449218313 0 L 117.64585449218313 -3.5 L 117.64585449218313 -0.5 L 117.43620849609157 -0.5 Z"/><text text-anchor="middle" pointer-events="none" font-size="8px" fill="#000000" x="71.32292724609157" y="3" transform="rotate(180 71.32292724609157 0)" font-family="Helvetica Neue, Helvetica, Arial, sans-serif">HAS_FUNCTIONDEF…</text></g><g class="relationship" transform="translate(-153.20887734276053 -158.93010957435814) rotate(349.5252757060192)"><path class="b-outline" fill="#A5ABB6" stroke="none" d="M 25 0.5 L 70.35856467078536 0.5 L 70.35856467078536 -0.5 L 25 -0.5 Z M 120.80387717078536 0.5 L 166.1624418415707 0.5 L 166.1624418415707 3.5 L 173.1624418415707 0 L 166.1624418415707 -3.5 L 166.1624418415707 -0.5 L 120.80387717078536 -0.5 Z"/><text text-anchor="middle" pointer-events="none" font-size="8px" fill="#000000" x="95.58122092078536" y="3" font-family="Helvetica Neue, Helvetica, Arial, sans-serif">MODIFIERS</text></g><g class="relationship" transform="translate(-153.20887734276053 -158.93010957435814) rotate(534.0643752851668)"><path class="b-outline" fill="#A5ABB6" stroke="none" d="M 25 0.5 L 25.067264007365708 0.5 L 25.067264007365708 -0.5 L 25 -0.5 Z M 119.39538900736571 0.5 L 119.46265301473142 0.5 L 119.46265301473142 3.5 L 126.46265301473142 0 L 119.46265301473142 -3.5 L 119.46265301473142 -0.5 L 119.39538900736571 -0.5 Z"/><text text-anchor="middle" pointer-events="none" font-size="8px" fill="#000000" x="72.23132650736571" y="3" transform="rotate(180 72.23132650736571 0)" font-family="Helvetica Neue, Helvetica, Arial, sans-serif">HAS_LOCALPARAME…</text></g><g class="relationship" transform="translate(-153.20887734276053 -158.93010957435814) rotate(495.9048059988655)"><path class="b-outline" fill="#A5ABB6" stroke="none" d="M 25 0.5 L 26.09330359170167 0.5 L 26.09330359170167 -0.5 L 25 -0.5 Z M 120.42142859170167 0.5 L 121.51473218340334 0.5 L 121.51473218340334 3.5 L 128.51473218340334 0 L 121.51473218340334 -3.5 L 121.51473218340334 -0.5 L 120.42142859170167 -0.5 Z"/><text text-anchor="middle" pointer-events="none" font-size="8px" fill="#000000" x="73.25736609170167" y="3" transform="rotate(180 73.25736609170167 0)" font-family="Helvetica Neue, Helvetica, Arial, sans-serif">HAS_LOCALPARAME…</text></g></g><g class="layer nodes"><g class="node" aria-label="graph-node0" transform="translate(-77.8705531306689,77.2443391783531)"><circle class="b-outline" cx="0" cy="0" r="25" fill="#D9C8AE" stroke="#c0a378" stroke-width="2px"/><text class="caption" text-anchor="middle" pointer-events="none" x="0" y="5" font-size="10px" fill="#2A2C34" font-family="Helvetica Neue, Helvetica, Arial, sans-serif"> minute</text></g><g class="node" aria-label="graph-node1" transform="translate(191.49241159407435,112.53137688408061)"><circle class="b-outline" cx="0" cy="0" r="25" fill="#D9C8AE" stroke="#c0a378" stroke-width="2px"/><text class="caption" text-anchor="middle" pointer-events="none" x="0" y="5" font-size="10px" fill="#2A2C34" font-family="Helvetica Neue, Helvetica, Arial, sans-serif"> per_min…</text></g><g class="node" aria-label="graph-node2" transform="translate(220.36467789144442,16.970534553478753)"><circle class="b-outline" cx="0" cy="0" r="25" fill="#D9C8AE" stroke="#c0a378" stroke-width="2px"/><text class="caption" text-anchor="middle" pointer-events="none" x="0" y="5" font-size="10px" fill="#2A2C34" font-family="Helvetica Neue, Helvetica, Arial, sans-serif"> micromole</text></g><g class="node" aria-label="graph-node3" transform="translate(-38.777890113982096,167.83180527776648)"><circle class="b-outline" cx="0" cy="0" r="25" fill="#D9C8AE" stroke="#c0a378" stroke-width="2px"/><text class="caption" text-anchor="middle" pointer-events="none" x="0" y="5" font-size="10px" fill="#2A2C34" font-family="Helvetica Neue, Helvetica, Arial, sans-serif"> micromo…</text></g><g class="node" aria-label="graph-node4" transform="translate(241.41750295131283,-80.92836013416733)"><circle class="b-outline" cx="0" cy="0" r="25" fill="#D9C8AE" stroke="#c0a378" stroke-width="2px"/><text class="caption" text-anchor="middle" pointer-events="none" x="0" y="5" font-size="10px" fill="#2A2C34" font-family="Helvetica Neue, Helvetica, Arial, sans-serif"> sqrmicro…</text></g><g class="node selected" aria-label="graph-node5" transform="translate(124.9265079702431,-141.3079017987175)"><circle class="b-outline" cx="0" cy="0" r="25" fill="#F79767" stroke="#f36924" stroke-width="2px"/><text class="caption" text-anchor="middle" pointer-events="none" x="0" y="5" font-size="10px" fill="#FFFFFF" font-family="Helvetica Neue, Helvetica, Arial, sans-serif"> Cytosol</text></g><g class="node" aria-label="graph-node6" transform="translate(175.27081900197834,-226.13085648213752)"><circle class="b-outline" cx="0" cy="0" r="25" fill="#F79767" stroke="#f36924" stroke-width="2px"/><text class="caption" text-anchor="middle" pointer-events="none" x="0" y="5" font-size="10px" fill="#FFFFFF" font-family="Helvetica Neue, Helvetica, Arial, sans-serif"> Membra…</text></g><g class="node" aria-label="graph-node7" transform="translate(65.38282796388462,-46.87222602973475)"><circle class="b-outline" cx="0" cy="0" r="25" fill="#57C7E3" stroke="#23b3d7" stroke-width="2px"/><text class="caption" text-anchor="middle" pointer-events="none" x="0" y="-5" font-size="10px" fill="#2A2C34" font-family="Helvetica Neue, Helvetica, Arial, sans-serif"> Reaction</text><text class="caption" text-anchor="middle" pointer-events="none" x="0" y="5" font-size="10px" fill="#2A2C34" font-family="Helvetica Neue, Helvetica, Arial, sans-serif"> on</text><text class="caption" text-anchor="middle" pointer-events="none" x="0" y="15" font-size="10px" fill="#2A2C34" font-family="Helvetica Neue, Helvetica, Arial, sans-serif"> me…</text></g><g class="node" aria-label="graph-node8" transform="translate(57.487879828388344,190.14929668946996)"><circle class="b-outline" cx="0" cy="0" r="25" fill="#F16667" stroke="#eb2728" stroke-width="2px"/><text class="caption" text-anchor="middle" pointer-events="none" x="0" y="5" font-size="10px" fill="#FFFFFF" font-family="Helvetica Neue, Helvetica, Arial, sans-serif"> da9f665…</text></g><g class="node" aria-label="graph-node9" transform="translate(203.8377754788218,272.619407278029)"><circle class="b-outline" cx="0" cy="0" r="25" fill="#F16667" stroke="#eb2728" stroke-width="2px"/><text class="caption" text-anchor="middle" pointer-events="none" x="0" y="5" font-size="10px" fill="#FFFFFF" font-family="Helvetica Neue, Helvetica, Arial, sans-serif"> a434fa0…</text></g><g class="node" aria-label="graph-node10" transform="translate(93.5149163925759,97.25545591545574)"><circle class="b-outline" cx="0" cy="0" r="25" fill="#F16667" stroke="#eb2728" stroke-width="2px"/><text class="caption" text-anchor="middle" pointer-events="none" x="0" y="5" font-size="10px" fill="#FFFFFF" font-family="Helvetica Neue, Helvetica, Arial, sans-serif"> 9f41f6fe…</text></g><g class="node" aria-label="graph-node11" transform="translate(12.921401152526752,38.094696233097324)"><circle class="b-outline" cx="0" cy="0" r="25" fill="#F16667" stroke="#eb2728" stroke-width="2px"/><text class="caption" text-anchor="middle" pointer-events="none" x="0" y="5" font-size="10px" fill="#FFFFFF" font-family="Helvetica Neue, Helvetica, Arial, sans-serif"> 2a6a3ffc…</text></g><g class="node" aria-label="graph-node12" transform="translate(392.84678725921697,-52.65505673599733)"><circle class="b-outline" cx="0" cy="0" r="25" fill="#F16667" stroke="#eb2728" stroke-width="2px"/><text class="caption" text-anchor="middle" pointer-events="none" x="0" y="5" font-size="10px" fill="#FFFFFF" font-family="Helvetica Neue, Helvetica, Arial, sans-serif"> c01ed92…</text></g><g class="node" aria-label="graph-node13" transform="translate(-44.35667533947694,-243.02337022782493)"><circle class="b-outline" cx="0" cy="0" r="25" fill="#ECB5C9" stroke="#da7298" stroke-width="2px"/><text class="caption" text-anchor="middle" pointer-events="none" x="0" y="5" font-size="10px" fill="#2A2C34" font-family="Helvetica Neue, Helvetica, Arial, sans-serif"> species_1</text></g><g class="node" aria-label="graph-node14" transform="translate(-36.1381528157308,-133.3354893229612)"><circle class="b-outline" cx="0" cy="0" r="25" fill="#ECB5C9" stroke="#da7298" stroke-width="2px"/><text class="caption" text-anchor="middle" pointer-events="none" x="0" y="5" font-size="10px" fill="#2A2C34" font-family="Helvetica Neue, Helvetica, Arial, sans-serif"> species_2</text></g><g class="node" aria-label="graph-node15" transform="translate(41.65122784021489,-194.9563883815518)"><circle class="b-outline" cx="0" cy="0" r="25" fill="#ECB5C9" stroke="#da7298" stroke-width="2px"/><text class="caption" text-anchor="middle" pointer-events="none" x="0" y="5" font-size="10px" fill="#2A2C34" font-family="Helvetica Neue, Helvetica, Arial, sans-serif"> species_3</text></g><g class="node" aria-label="graph-node16" transform="translate(-153.20887734276053,-158.93010957435814)"><circle class="b-outline" cx="0" cy="0" r="25" fill="#4C8EDA" stroke="#2870c2" stroke-width="2px"/><text class="caption" text-anchor="middle" pointer-events="none" x="0" y="5" font-size="10px" fill="#FFFFFF" font-family="Helvetica Neue, Helvetica, Arial, sans-serif"> reaction_1</text></g><g class="node" aria-label="graph-node17" transform="translate(-271.5434353866502,-250.26368974836018)"><circle class="b-outline" cx="0" cy="0" r="25" fill="#FFC454" stroke="#d7a013" stroke-width="2px"/><text class="caption" text-anchor="middle" pointer-events="none" x="0" y="5" font-size="10px" fill="#2A2C34" font-family="Helvetica Neue, Helvetica, Arial, sans-serif"> 8624929…</text></g><g class="node" aria-label="graph-node18" transform="translate(-82.2008369727673,-22.11452802362556)"><circle class="b-outline" cx="0" cy="0" r="25" fill="#A5ABB6" stroke="#9AA1AC" stroke-width="2px"/><text class="caption" text-anchor="middle" pointer-events="none" x="0" y="5" font-size="10px" fill="#FFFFFF" font-family="Helvetica Neue, Helvetica, Arial, sans-serif"> MM_enz…</text></g><g class="node" aria-label="graph-node19" transform="translate(-303.8594954047653,-143.26720640167383)"><circle class="b-outline" cx="0" cy="0" r="25" fill="#DA7194" stroke="#cc3c6c" stroke-width="2px"/><text class="caption" text-anchor="middle" pointer-events="none" x="0" y="5" font-size="10px" fill="#FFFFFF" font-family="Helvetica Neue, Helvetica, Arial, sans-serif"> k</text></g><g class="node" aria-label="graph-node20" transform="translate(-263.4608044245924,-52.10649059388887)"><circle class="b-outline" cx="0" cy="0" r="25" fill="#DA7194" stroke="#cc3c6c" stroke-width="2px"/><text class="caption" text-anchor="middle" pointer-events="none" x="0" y="5" font-size="10px" fill="#FFFFFF" font-family="Helvetica Neue, Helvetica, Arial, sans-serif"> Km</text></g></g></svg>