<svg xmlns="http://www.w3.org/2000/svg" width="515.581298828125" height="611.071533203125" viewBox="-214.94647216796875 -259.85357666015625 515.581298828125 611.071533203125"><title>Neo4j Graph Visualization</title><desc>Created using Neo4j (http://www.neo4j.com/)</desc><g class="layer relationships"><g class="relationship" transform="translate(174.86397276947739 -17.04436965677599) rotate(340.9710467368325)"><path class="b-outline" fill="#A5ABB6" stroke="none" d="M 25 0.5 L 25.855477299860098 0.5 L 25.855477299860098 -0.5 L 25 -0.5 Z M 66.5312585498601 0.5 L 67.3867358497202 0.5 L 67.3867358497202 3.5 L 74.3867358497202 0 L 67.3867358497202 -3.5 L 67.3867358497202 -0.5 L 66.5312585498601 -0.5 Z"/><text text-anchor="middle" pointer-events="none" font-size="8px" fill="#000000" x="46.1933679248601" y="3" font-family="Helvetica Neue, Helvetica, Arial, sans-serif">HAS_C…</text></g><g class="relationship" transform="translate(175.38979059581956 177.2986388427579) rotate(468.43365773518474)"><path class="b-outline" fill="#A5ABB6" stroke="none" d="M 25 0.5 L 40.538762515969054 0.5 L 40.538762515969054 -0.5 L 25 -0.5 Z M 105.21845001596905 0.5 L 120.75721253193811 0.5 L 120.75721253193811 3.5 L 127.75721253193811 0 L 120.75721253193811 -3.5 L 120.75721253193811 -0.5 L 105.21845001596905 -0.5 Z"/><text text-anchor="middle" pointer-events="none" font-size="8px" fill="#000000" x="72.87860626596905" y="3" transform="rotate(180 72.87860626596905 0)" font-family="Helvetica Neue, Helvetica, Arial, sans-serif">IS_COMPOSED</text></g><g class="relationship" transform="translate(174.86397276947739 -17.04436965677599) rotate(449.8449799199818)"><path class="b-outline" fill="#A5ABB6" stroke="none" d="M 25 0.5 L 48.224594289581745 0.5 L 48.224594289581745 -0.5 L 25 -0.5 Z M 139.11912553958174 0.5 L 162.3437198291635 0.5 L 162.3437198291635 3.5 L 169.3437198291635 0 L 162.3437198291635 -3.5 L 162.3437198291635 -0.5 L 139.11912553958174 -0.5 Z"/><text text-anchor="middle" pointer-events="none" font-size="8px" fill="#000000" x="93.67185991458174" y="3" font-family="Helvetica Neue, Helvetica, Arial, sans-serif">HAS_UNITDEFINITION</text></g><g class="relationship" transform="translate(174.86397276947739 -17.04436965677599) rotate(306.29352022134015)"><path class="b-outline" fill="#A5ABB6" stroke="none" d="M 25 0.5 L 47.453849375956736 0.5 L 47.453849375956736 -0.5 L 25 -0.5 Z M 109.03197437595674 0.5 L 131.48582375191347 0.5 L 131.48582375191347 3.5 L 138.48582375191347 0 L 131.48582375191347 -3.5 L 131.48582375191347 -0.5 L 109.03197437595674 -0.5 Z"/><text text-anchor="middle" pointer-events="none" font-size="8px" fill="#000000" x="78.24291187595674" y="3" font-family="Helvetica Neue, Helvetica, Arial, sans-serif">HAS_SPECIES</text></g><g class="relationship" transform="translate(174.86397276947739 -17.04436965677599) rotate(273.9117827493866)"><path class="b-outline" fill="#A5ABB6" stroke="none" d="M 25 0.5 L 57.26377509104971 0.5 L 57.26377509104971 -0.5 L 25 -0.5 Z M 118.84190009104971 0.5 L 151.10567518209942 0.5 L 151.10567518209942 3.5 L 158.10567518209942 0 L 151.10567518209942 -3.5 L 151.10567518209942 -0.5 L 118.84190009104971 -0.5 Z"/><text text-anchor="middle" pointer-events="none" font-size="8px" fill="#000000" x="88.05283759104971" y="3" font-family="Helvetica Neue, Helvetica, Arial, sans-serif">HAS_SPECIES</text></g><g class="relationship" transform="translate(174.86397276947739 -17.04436965677599) rotate(246.2847141776216)"><path class="b-outline" fill="#A5ABB6" stroke="none" d="M 25 0.5 L 72.26343803715949 0.5 L 72.26343803715949 -0.5 L 25 -0.5 Z M 133.8415630371595 0.5 L 181.10500107431898 0.5 L 181.10500107431898 3.5 L 188.10500107431898 0 L 181.10500107431898 -3.5 L 181.10500107431898 -0.5 L 133.8415630371595 -0.5 Z"/><text text-anchor="middle" pointer-events="none" font-size="8px" fill="#000000" x="103.05250053715949" y="3" transform="rotate(180 103.05250053715949 0)" font-family="Helvetica Neue, Helvetica, Arial, sans-serif">HAS_SPECIES</text></g><g class="relationship" transform="translate(174.86397276947739 -17.04436965677599) rotate(245.82122712168774)"><path class="b-outline" fill="#A5ABB6" stroke="none" d="M 25 0.5 L 25.401822602916404 0.5 L 25.401822602916404 -0.5 L 25 -0.5 Z M 82.08541635291641 0.5 L 82.48723895583281 0.5 L 82.48723895583281 3.5 L 89.48723895583281 0 L 82.48723895583281 -3.5 L 82.48723895583281 -0.5 L 82.08541635291641 -0.5 Z"/><text text-anchor="middle" pointer-events="none" font-size="8px" fill="#000000" x="53.743619477916404" y="3" transform="rotate(180 53.743619477916404 0)" font-family="Helvetica Neue, Helvetica, Arial, sans-serif">HAS_SPEC…</text></g><g class="relationship" transform="translate(174.86397276947739 -17.04436965677599) rotate(193.26753970068307)"><path class="b-outline" fill="#A5ABB6" stroke="none" d="M 25 0.5 L 26.13564102595813 0.5 L 26.13564102595813 -0.5 L 25 -0.5 Z M 77.04189102595814 0.5 L 78.17753205191626 0.5 L 78.17753205191626 3.5 L 85.17753205191626 0 L 78.17753205191626 -3.5 L 78.17753205191626 -0.5 L 77.04189102595814 -0.5 Z"/><text text-anchor="middle" pointer-events="none" font-size="8px" fill="#000000" x="51.58876602595813" y="3" transform="rotate(180 51.58876602595813 0)" font-family="Helvetica Neue, Helvetica, Arial, sans-serif">HAS_SPE…</text></g><g class="relationship" transform="translate(271.6348334058634 -148.81316376044407) rotate(451.62288919734317)"><path class="b-outline" fill="#A5ABB6" stroke="none" d="M 25 0.5 L 26.977404665302302 0.5 L 26.977404665302302 -0.5 L 25 -0.5 Z M 65.4266234153023 0.5 L 67.4040280806046 0.5 L 67.4040280806046 3.5 L 74.4040280806046 0 L 67.4040280806046 -3.5 L 67.4040280806046 -0.5 L 65.4266234153023 -0.5 Z"/><text text-anchor="middle" pointer-events="none" font-size="8px" fill="#000000" x="46.2020140403023" y="3" transform="rotate(180 46.2020140403023 0)" font-family="Helvetica Neue, Helvetica, Arial, sans-serif">IN_CO…</text></g><g class="relationship" transform="translate(187.35552630081148 -199.72345815424555) rotate(421.53778773158393)"><path class="b-outline" fill="#A5ABB6" stroke="none" d="M 25 0.5 L 41.77614299634895 0.5 L 41.77614299634895 -0.5 L 25 -0.5 Z M 122.15895549634895 0.5 L 138.9350984926979 0.5 L 138.9350984926979 3.5 L 145.9350984926979 0 L 138.9350984926979 -3.5 L 138.9350984926979 -0.5 L 122.15895549634895 -0.5 Z"/><text text-anchor="middle" pointer-events="none" font-size="8px" fill="#000000" x="81.96754924634895" y="3" font-family="Helvetica Neue, Helvetica, Arial, sans-serif">IN_COMPARTMENT</text></g><g class="relationship" transform="translate(89.15483550597637 -212.15378837466318) rotate(402.16405075208246)"><path class="b-outline" fill="#A5ABB6" stroke="none" d="M 25 0.5 L 77.50293999338223 0.5 L 77.50293999338223 -0.5 L 25 -0.5 Z M 157.88575249338223 0.5 L 210.38869248676446 0.5 L 210.38869248676446 3.5 L 217.38869248676446 0 L 210.38869248676446 -3.5 L 210.38869248676446 -0.5 L 157.88575249338223 -0.5 Z"/><text text-anchor="middle" pointer-events="none" font-size="8px" fill="#000000" x="117.69434624338223" y="3" font-family="Helvetica Neue, Helvetica, Arial, sans-serif">IN_COMPARTMENT</text></g><g class="relationship" transform="translate(127.9717077775161 -121.48786331556569) rotate(387.08818033545384)"><path class="b-outline" fill="#A5ABB6" stroke="none" d="M 25 0.5 L 35.40936724136749 0.5 L 35.40936724136749 -0.5 L 25 -0.5 Z M 115.79217974136749 0.5 L 126.20154698273498 0.5 L 126.20154698273498 3.5 L 133.20154698273498 0 L 126.20154698273498 -3.5 L 126.20154698273498 -0.5 L 115.79217974136749 -0.5 Z"/><text text-anchor="middle" pointer-events="none" font-size="8px" fill="#000000" x="75.60077349136749" y="3" font-family="Helvetica Neue, Helvetica, Arial, sans-serif">IN_COMPARTMENT</text></g><g class="relationship" transform="translate(67.62718385307325 -42.32993217671251) rotate(357.9734678838978)"><path class="b-outline" fill="#A5ABB6" stroke="none" d="M 25 0.5 L 56.96776553648377 0.5 L 56.96776553648377 -0.5 L 25 -0.5 Z M 137.35057803648377 0.5 L 169.31834357296754 0.5 L 169.31834357296754 3.5 L 176.31834357296754 0 L 169.31834357296754 -3.5 L 169.31834357296754 -0.5 L 137.35057803648377 -0.5 Z"/><text text-anchor="middle" pointer-events="none" font-size="8px" fill="#000000" x="97.15917178648377" y="3" font-family="Helvetica Neue, Helvetica, Arial, sans-serif">IN_COMPARTMENT</text></g><g class="relationship" transform="translate(174.86397276947739 -17.04436965677599) rotate(218.52864374569327)"><path class="b-outline" fill="#A5ABB6" stroke="none" d="M 25 0.5 L 55.73141654636001 0.5 L 55.73141654636001 -0.5 L 25 -0.5 Z M 123.96579154636001 0.5 L 154.69720809272002 0.5 L 154.69720809272002 3.5 L 161.69720809272002 0 L 154.69720809272002 -3.5 L 154.69720809272002 -0.5 L 123.96579154636001 -0.5 Z"/><text text-anchor="middle" pointer-events="none" font-size="8px" fill="#000000" x="89.84860404636001" y="3" transform="rotate(180 89.84860404636001 0)" font-family="Helvetica Neue, Helvetica, Arial, sans-serif">HAS_REACTION</text></g><g class="relationship" transform="translate(174.86397276947739 -17.04436965677599) rotate(190.3330089712593)"><path class="b-outline" fill="#A5ABB6" stroke="none" d="M 25 0.5 L 67.04590586371293 0.5 L 67.04590586371293 -0.5 L 25 -0.5 Z M 135.28028086371293 0.5 L 177.32618672742586 0.5 L 177.32618672742586 3.5 L 184.32618672742586 0 L 177.32618672742586 -3.5 L 177.32618672742586 -0.5 L 135.28028086371293 -0.5 Z"/><text text-anchor="middle" pointer-events="none" font-size="8px" fill="#000000" x="101.16309336371293" y="3" transform="rotate(180 101.16309336371293 0)" font-family="Helvetica Neue, Helvetica, Arial, sans-serif">HAS_REACTION</text></g><g class="relationship" transform="translate(28.81133557697748 -133.33914459844047) rotate(219.39406054640983)"><path class="b-outline" fill="#A5ABB6" stroke="none" d="M 25 0.5 L 34.01867395090186 0.5 L 34.01867395090186 -0.5 L 25 -0.5 Z M 112.63195520090186 0.5 L 121.65062915180371 0.5 L 121.65062915180371 3.5 L 128.6506291518037 0 L 121.65062915180371 -3.5 L 121.65062915180371 -0.5 L 112.63195520090186 -0.5 Z"/><text text-anchor="middle" pointer-events="none" font-size="8px" fill="#000000" x="73.32531457590186" y="3" transform="rotate(180 73.32531457590186 0)" font-family="Helvetica Neue, Helvetica, Arial, sans-serif">HAS_KENETICLAW</text></g><g class="relationship" transform="translate(-31.06733338899606 -54.59100191201616) rotate(537.6170856039058)"><path class="b-outline" fill="#A5ABB6" stroke="none" d="M 25 0.5 L 34.699947953323715 0.5 L 34.699947953323715 -0.5 L 25 -0.5 Z M 113.31322920332371 0.5 L 123.01317715664743 0.5 L 123.01317715664743 3.5 L 130.01317715664743 0 L 123.01317715664743 -3.5 L 123.01317715664743 -0.5 L 113.31322920332371 -0.5 Z"/><text text-anchor="middle" pointer-events="none" font-size="8px" fill="#000000" x="74.00658857832371" y="3" transform="rotate(180 74.00658857832371 0)" font-family="Helvetica Neue, Helvetica, Arial, sans-serif">HAS_KENETICLAW</text></g><g class="relationship" transform="translate(28.81133557697748 -133.33914459844047) rotate(456.98507715537056)"><path class="b-outline" fill="#A5ABB6" stroke="none" d="M 25 0.5 L 46.54045222019772 0.5 L 46.54045222019772 -0.5 L 25 -0.5 Z M 148.86857722019772 0.5 L 170.40902944039544 0.5 L 170.40902944039544 3.5 L 177.40902944039544 0 L 170.40902944039544 -3.5 L 170.40902944039544 -0.5 L 148.86857722019772 -0.5 Z"/><text text-anchor="middle" pointer-events="none" font-size="8px" fill="#000000" x="97.70451472019772" y="3" transform="rotate(180 97.70451472019772 0)" font-family="Helvetica Neue, Helvetica, Arial, sans-serif">HAS_LOCALPARAMETER</text></g><g class="relationship" transform="translate(-31.06733338899606 -54.59100191201616) rotate(398.1578540902114)"><path class="b-outline" fill="#A5ABB6" stroke="none" d="M 25 0.5 L 29.915282321551757 0.5 L 29.915282321551757 -0.5 L 25 -0.5 Z M 132.24340732155176 0.5 L 137.15868964310351 0.5 L 137.15868964310351 3.5 L 144.15868964310351 0 L 137.15868964310351 -3.5 L 137.15868964310351 -0.5 L 132.24340732155176 -0.5 Z"/><text text-anchor="middle" pointer-events="none" font-size="8px" fill="#000000" x="81.07934482155176" y="3" font-family="Helvetica Neue, Helvetica, Arial, sans-serif">HAS_LOCALPARAMETER</text></g><g class="relationship" transform="translate(271.6348334058634 -148.81316376044407) rotate(536.3537351993452)"><path class="b-outline" fill="#A5ABB6" stroke="none" d="M 25 0.5 L 87.8923960743223 0.5 L 87.8923960743223 -0.5 L 25 -0.5 Z M 148.4236460743223 0.5 L 211.3160421486446 0.5 L 211.3160421486446 3.5 L 218.3160421486446 0 L 211.3160421486446 -3.5 L 211.3160421486446 -0.5 L 148.4236460743223 -0.5 Z"/><text text-anchor="middle" pointer-events="none" font-size="8px" fill="#000000" x="118.1580210743223" y="3" transform="rotate(180 118.1580210743223 0)" font-family="Helvetica Neue, Helvetica, Arial, sans-serif">IS_REACTANT</text></g><g class="relationship" transform="translate(89.15483550597637 -212.15378837466318) rotate(487.3440367251083)"><path class="b-outline" fill="#A5ABB6" stroke="none" d="M 25 0.5 L 65.32953327184113 0.5 L 65.32953327184113 -0.5 L 25 -0.5 Z M 125.86078327184113 0.5 L 166.19031654368226 0.5 L 166.19031654368226 3.5 L 173.19031654368226 0 L 166.19031654368226 -3.5 L 166.19031654368226 -0.5 L 125.86078327184113 -0.5 Z"/><text text-anchor="middle" pointer-events="none" font-size="8px" fill="#000000" x="95.59515827184113" y="3" transform="rotate(180 95.59515827184113 0)" font-family="Helvetica Neue, Helvetica, Arial, sans-serif">IS_REACTANT</text></g><g class="relationship" transform="translate(28.81133557697748 -133.33914459844047) rotate(307.4390474307965)"><path class="b-outline" fill="#A5ABB6" stroke="none" d="M 25 0.5 L 26.014168660329652 0.5 L 26.014168660329652 -0.5 L 25 -0.5 Z M 66.24854366032966 0.5 L 67.2627123206593 0.5 L 67.2627123206593 3.5 L 74.2627123206593 0 L 67.2627123206593 -3.5 L 67.2627123206593 -0.5 L 66.24854366032966 -0.5 Z"/><text text-anchor="middle" pointer-events="none" font-size="8px" fill="#000000" x="46.13135616032965" y="3" font-family="Helvetica Neue, Helvetica, Arial, sans-serif">HAS_P…</text></g><g class="relationship" transform="translate(-31.06733338899606 -54.59100191201616) rotate(326.3976970170063)"><path class="b-outline" fill="#A5ABB6" stroke="none" d="M 25 0.5 L 94.39549465475179 0.5 L 94.39549465475179 -0.5 L 25 -0.5 Z M 160.8486196547518 0.5 L 230.24411430950357 0.5 L 230.24411430950357 3.5 L 237.24411430950357 0 L 230.24411430950357 -3.5 L 230.24411430950357 -0.5 L 160.8486196547518 -0.5 Z"/><text text-anchor="middle" pointer-events="none" font-size="8px" fill="#000000" x="127.62205715475179" y="3" font-family="Helvetica Neue, Helvetica, Arial, sans-serif">HAS_PRODUCT</text></g><g class="relationship" transform="translate(4.19620593685962 67.5675765230866) rotate(392.658916541239)"><path class="b-outline" fill="#A5ABB6" stroke="none" d="M 25 0.5 L 72.7220031692187 0.5 L 72.7220031692187 -0.5 L 25 -0.5 Z M 123.6204406692187 0.5 L 171.3424438384374 0.5 L 171.3424438384374 3.5 L 178.3424438384374 0 L 171.3424438384374 -3.5 L 171.3424438384374 -0.5 L 123.6204406692187 -0.5 Z"/><text text-anchor="middle" pointer-events="none" font-size="8px" fill="#000000" x="98.1712219192187" y="3" font-family="Helvetica Neue, Helvetica, Arial, sans-serif">HAS_UNITS</text></g><g class="relationship" transform="translate(101.94410184929401 49.92033899231815) rotate(420.03246661090816)"><path class="b-outline" fill="#A5ABB6" stroke="none" d="M 25 0.5 L 44.56863702028217 0.5 L 44.56863702028217 -0.5 L 25 -0.5 Z M 95.46707452028217 0.5 L 115.03571154056434 0.5 L 115.03571154056434 3.5 L 122.03571154056434 0 L 115.03571154056434 -3.5 L 115.03571154056434 -0.5 L 95.46707452028217 -0.5 Z"/><text text-anchor="middle" pointer-events="none" font-size="8px" fill="#000000" x="70.01785577028217" y="3" font-family="Helvetica Neue, Helvetica, Arial, sans-serif">HAS_UNITS</text></g><g class="relationship" transform="translate(174.86397276947739 -17.04436965677599) rotate(479.7862004217757)"><path class="b-outline" fill="#A5ABB6" stroke="none" d="M 25 0.5 L 52.4966328142866 0.5 L 52.4966328142866 -0.5 L 25 -0.5 Z M 128.5903828142866 0.5 L 156.0870156285732 0.5 L 156.0870156285732 3.5 L 163.0870156285732 0 L 156.0870156285732 -3.5 L 156.0870156285732 -0.5 L 128.5903828142866 -0.5 Z"/><text text-anchor="middle" pointer-events="none" font-size="8px" fill="#000000" x="90.5435078142866" y="3" transform="rotate(180 90.5435078142866 0)" font-family="Helvetica Neue, Helvetica, Arial, sans-serif">HAS_PARAMETER</text></g></g><g class="layer nodes"><g class="node" aria-label="graph-node0" transform="translate(175.38979059581956,177.2986388427579)"><circle class="b-outline" cx="0" cy="0" r="25" fill="#D9C8AE" stroke="#c0a378" stroke-width="2px"/><text class="caption" text-anchor="middle" pointer-events="none" x="0" y="5" font-size="10px" fill="#2A2C34" font-family="Helvetica Neue, Helvetica, Arial, sans-serif"> per_sec…</text></g><g class="node" aria-label="graph-node1" transform="translate(268.81961465167467,-49.44900854330506)"><circle class="b-outline" cx="0" cy="0" r="25" fill="#F79767" stroke="#f36924" stroke-width="2px"/><text class="caption" text-anchor="middle" pointer-events="none" x="0" y="5" font-size="10px" fill="#FFFFFF" font-family="Helvetica Neue, Helvetica, Arial, sans-serif"> cell</text></g><g class="node" aria-label="graph-node2" transform="translate(174.86397276947739,-17.04436965677599)"><circle class="b-outline" cx="0" cy="0" r="25" fill="#57C7E3" stroke="#23b3d7" stroke-width="2px"/><text class="caption" text-anchor="middle" pointer-events="none" x="0" y="5" font-size="10px" fill="#2A2C34" font-family="Helvetica Neue, Helvetica, Arial, sans-serif"> 144d35a…</text></g><g class="node" aria-label="graph-node3" transform="translate(127.08698409438715,322.2179435078469)"><circle class="b-outline" cx="0" cy="0" r="25" fill="#F16667" stroke="#eb2728" stroke-width="2px"/><text class="caption" text-anchor="middle" pointer-events="none" x="0" y="5" font-size="10px" fill="#FFFFFF" font-family="Helvetica Neue, Helvetica, Arial, sans-serif"> f5f0cb65…</text></g><g class="node" aria-label="graph-node4" transform="translate(271.6348334058634,-148.81316376044407)"><circle class="b-outline" cx="0" cy="0" r="25" fill="#ECB5C9" stroke="#da7298" stroke-width="2px"/><text class="caption" text-anchor="middle" pointer-events="none" x="0" y="5" font-size="10px" fill="#2A2C34" font-family="Helvetica Neue, Helvetica, Arial, sans-serif"> X0</text></g><g class="node" aria-label="graph-node5" transform="translate(187.35552630081148,-199.72345815424555)"><circle class="b-outline" cx="0" cy="0" r="25" fill="#ECB5C9" stroke="#da7298" stroke-width="2px"/><text class="caption" text-anchor="middle" pointer-events="none" x="0" y="5" font-size="10px" fill="#2A2C34" font-family="Helvetica Neue, Helvetica, Arial, sans-serif"> X1</text></g><g class="node" aria-label="graph-node6" transform="translate(89.15483550597637,-212.15378837466318)"><circle class="b-outline" cx="0" cy="0" r="25" fill="#ECB5C9" stroke="#da7298" stroke-width="2px"/><text class="caption" text-anchor="middle" pointer-events="none" x="0" y="5" font-size="10px" fill="#2A2C34" font-family="Helvetica Neue, Helvetica, Arial, sans-serif"> T</text></g><g class="node" aria-label="graph-node7" transform="translate(127.9717077775161,-121.48786331556569)"><circle class="b-outline" cx="0" cy="0" r="25" fill="#ECB5C9" stroke="#da7298" stroke-width="2px"/><text class="caption" text-anchor="middle" pointer-events="none" x="0" y="5" font-size="10px" fill="#2A2C34" font-family="Helvetica Neue, Helvetica, Arial, sans-serif"> S1</text></g><g class="node" aria-label="graph-node8" transform="translate(67.62718385307325,-42.32993217671251)"><circle class="b-outline" cx="0" cy="0" r="25" fill="#ECB5C9" stroke="#da7298" stroke-width="2px"/><text class="caption" text-anchor="middle" pointer-events="none" x="0" y="5" font-size="10px" fill="#2A2C34" font-family="Helvetica Neue, Helvetica, Arial, sans-serif"> S2</text></g><g class="node" aria-label="graph-node9" transform="translate(28.81133557697748,-133.33914459844047)"><circle class="b-outline" cx="0" cy="0" r="25" fill="#4C8EDA" stroke="#2870c2" stroke-width="2px"/><text class="caption" text-anchor="middle" pointer-events="none" x="0" y="5" font-size="10px" fill="#FFFFFF" font-family="Helvetica Neue, Helvetica, Arial, sans-serif"> in</text></g><g class="node" aria-label="graph-node10" transform="translate(-31.06733338899606,-54.59100191201616)"><circle class="b-outline" cx="0" cy="0" r="25" fill="#4C8EDA" stroke="#2870c2" stroke-width="2px"/><text class="caption" text-anchor="middle" pointer-events="none" x="0" y="5" font-size="10px" fill="#FFFFFF" font-family="Helvetica Neue, Helvetica, Arial, sans-serif"> out</text></g><g class="node" aria-label="graph-node11" transform="translate(-89.92977343641898,-230.85357875571694)"><circle class="b-outline" cx="0" cy="0" r="25" fill="#FFC454" stroke="#d7a013" stroke-width="2px"/><text class="caption" text-anchor="middle" pointer-events="none" x="0" y="5" font-size="10px" fill="#2A2C34" font-family="Helvetica Neue, Helvetica, Arial, sans-serif"> b0f7246…</text></g><g class="node" aria-label="graph-node12" transform="translate(-185.94646646565585,-48.14590845881723)"><circle class="b-outline" cx="0" cy="0" r="25" fill="#FFC454" stroke="#d7a013" stroke-width="2px"/><text class="caption" text-anchor="middle" pointer-events="none" x="0" y="5" font-size="10px" fill="#2A2C34" font-family="Helvetica Neue, Helvetica, Arial, sans-serif"> d6d8ce4…</text></g><g class="node" aria-label="graph-node13" transform="translate(4.19620593685962,67.5675765230866)"><circle class="b-outline" cx="0" cy="0" r="25" fill="#DA7194" stroke="#cc3c6c" stroke-width="2px"/><text class="caption" text-anchor="middle" pointer-events="none" x="0" y="5" font-size="10px" fill="#FFFFFF" font-family="Helvetica Neue, Helvetica, Arial, sans-serif"> k1</text></g><g class="node" aria-label="graph-node14" transform="translate(101.94410184929401,49.92033899231815)"><circle class="b-outline" cx="0" cy="0" r="25" fill="#DA7194" stroke="#cc3c6c" stroke-width="2px"/><text class="caption" text-anchor="middle" pointer-events="none" x="0" y="5" font-size="10px" fill="#FFFFFF" font-family="Helvetica Neue, Helvetica, Arial, sans-serif"> k2</text></g><g class="node" aria-label="graph-node15" transform="translate(81.42893642386555,146.19355311595882)"><circle class="b-outline" cx="0" cy="0" r="25" fill="#569480" stroke="#447666" stroke-width="2px"/><text class="caption" text-anchor="middle" pointer-events="none" x="0" y="5" font-size="10px" fill="#FFFFFF" font-family="Helvetica Neue, Helvetica, Arial, sans-serif"> Keq</text></g></g></svg>