<svg xmlns="http://www.w3.org/2000/svg" width="562.095458984375" height="599.9800415039062" viewBox="-258.08538818359375 -284.51593017578125 562.095458984375 599.9800415039062"><title>Neo4j Graph Visualization</title><desc>Created using Neo4j (http://www.neo4j.com/)</desc><g class="layer relationships"><g class="relationship" transform="translate(125.92312554479646 -51.43489309121783) rotate(202.74991459704927)"><path class="b-outline" fill="#A5ABB6" stroke="none" d="M 25 0.5 L 26.269599961504525 0.5 L 26.269599961504525 -0.5 L 25 -0.5 Z M 89.91413121150453 0.5 L 91.18373117300905 0.5 L 91.18373117300905 3.5 L 98.18373117300905 0 L 91.18373117300905 -3.5 L 91.18373117300905 -0.5 L 89.91413121150453 -0.5 Z"/><text text-anchor="middle" pointer-events="none" font-size="8px" fill="#000000" x="58.091865586504525" y="3" transform="rotate(180 58.091865586504525 0)" font-family="Helvetica Neue, Helvetica, Arial, sans-serif">HAS_COMPA…</text></g><g class="relationship" transform="translate(25.806602091181777 139.58886564128102) rotate(435.20633504334774)"><path class="b-outline" fill="#A5ABB6" stroke="none" d="M 25 0.5 L 40.11554830668132 0.5 L 40.11554830668132 -0.5 L 25 -0.5 Z M 104.79523580668132 0.5 L 119.91078411336264 0.5 L 119.91078411336264 3.5 L 126.91078411336264 0 L 119.91078411336264 -3.5 L 119.91078411336264 -0.5 L 104.79523580668132 -0.5 Z"/><text text-anchor="middle" pointer-events="none" font-size="8px" fill="#000000" x="72.45539205668132" y="3" font-family="Helvetica Neue, Helvetica, Arial, sans-serif">IS_COMPOSED</text></g><g class="relationship" transform="translate(125.41108552874944 137.24005228363524) rotate(410.32682431369125)"><path class="b-outline" fill="#A5ABB6" stroke="none" d="M 25 0.5 L 39.11728200442532 0.5 L 39.11728200442532 -0.5 L 25 -0.5 Z M 103.79696950442532 0.5 L 117.91425150885064 0.5 L 117.91425150885064 3.5 L 124.91425150885064 0 L 117.91425150885064 -3.5 L 117.91425150885064 -0.5 L 103.79696950442532 -0.5 Z"/><text text-anchor="middle" pointer-events="none" font-size="8px" fill="#000000" x="71.45712575442532" y="3" font-family="Helvetica Neue, Helvetica, Arial, sans-serif">IS_COMPOSED</text></g><g class="relationship" transform="translate(125.41108552874944 137.24005228363524) rotate(359.841033021149)"><path class="b-outline" fill="#A5ABB6" stroke="none" d="M 25 0.5 L 38.95991417325483 0.5 L 38.95991417325483 -0.5 L 25 -0.5 Z M 103.63960167325483 0.5 L 117.59951584650966 0.5 L 117.59951584650966 3.5 L 124.59951584650966 0 L 117.59951584650966 -3.5 L 117.59951584650966 -0.5 L 103.63960167325483 -0.5 Z"/><text text-anchor="middle" pointer-events="none" font-size="8px" fill="#000000" x="71.29975792325483" y="3" font-family="Helvetica Neue, Helvetica, Arial, sans-serif">IS_COMPOSED</text></g><g class="relationship" transform="translate(125.41108552874944 137.24005228363524) rotate(472.17319283550296)"><path class="b-outline" fill="#A5ABB6" stroke="none" d="M 25 0.5 L 44.73055892417477 0.5 L 44.73055892417477 -0.5 L 25 -0.5 Z M 109.41024642417477 0.5 L 129.14080534834955 0.5 L 129.14080534834955 3.5 L 136.14080534834955 0 L 129.14080534834955 -3.5 L 129.14080534834955 -0.5 L 109.41024642417477 -0.5 Z"/><text text-anchor="middle" pointer-events="none" font-size="8px" fill="#000000" x="77.07040267417477" y="3" transform="rotate(180 77.07040267417477 0)" font-family="Helvetica Neue, Helvetica, Arial, sans-serif">IS_COMPOSED</text></g><g class="relationship" transform="translate(125.92312554479646 -51.43489309121783) rotate(477.65926217213473)"><path class="b-outline" fill="#A5ABB6" stroke="none" d="M 25 0.5 L 58.88755559329908 0.5 L 58.88755559329908 -0.5 L 25 -0.5 Z M 149.78208684329908 0.5 L 183.66964243659817 0.5 L 183.66964243659817 3.5 L 190.66964243659817 0 L 183.66964243659817 -3.5 L 183.66964243659817 -0.5 L 149.78208684329908 -0.5 Z"/><text text-anchor="middle" pointer-events="none" font-size="8px" fill="#000000" x="104.33482121829908" y="3" transform="rotate(180 104.33482121829908 0)" font-family="Helvetica Neue, Helvetica, Arial, sans-serif">HAS_UNITDEFINITION</text></g><g class="relationship" transform="translate(125.92312554479646 -51.43489309121783) rotate(450.15549314074593)"><path class="b-outline" fill="#A5ABB6" stroke="none" d="M 25 0.5 L 45.390554464799905 0.5 L 45.390554464799905 -0.5 L 25 -0.5 Z M 136.2850857147999 0.5 L 156.6756401795998 0.5 L 156.6756401795998 3.5 L 163.6756401795998 0 L 156.6756401795998 -3.5 L 156.6756401795998 -0.5 L 136.2850857147999 -0.5 Z"/><text text-anchor="middle" pointer-events="none" font-size="8px" fill="#000000" x="90.8378200897999" y="3" transform="rotate(180 90.8378200897999 0)" font-family="Helvetica Neue, Helvetica, Arial, sans-serif">HAS_UNITDEFINITION</text></g><g class="relationship" transform="translate(125.92312554479646 -51.43489309121783) rotate(268.18723059288664)"><path class="b-outline" fill="#A5ABB6" stroke="none" d="M 25 0.5 L 26.03628728033673 0.5 L 26.03628728033673 -0.5 L 25 -0.5 Z M 66.27066228033672 0.5 L 67.30694956067346 0.5 L 67.30694956067346 3.5 L 74.30694956067346 0 L 67.30694956067346 -3.5 L 67.30694956067346 -0.5 L 66.27066228033672 -0.5 Z"/><text text-anchor="middle" pointer-events="none" font-size="8px" fill="#000000" x="46.15347478033673" y="3" transform="rotate(180 46.15347478033673 0)" font-family="Helvetica Neue, Helvetica, Arial, sans-serif">HAS_S…</text></g><g class="relationship" transform="translate(125.92312554479646 -51.43489309121783) rotate(267.405158303606)"><path class="b-outline" fill="#A5ABB6" stroke="none" d="M 25 0.5 L 64.8946398306412 0.5 L 64.8946398306412 -0.5 L 25 -0.5 Z M 126.4727648306412 0.5 L 166.3674046612824 0.5 L 166.3674046612824 3.5 L 173.3674046612824 0 L 166.3674046612824 -3.5 L 166.3674046612824 -0.5 L 126.4727648306412 -0.5 Z"/><text text-anchor="middle" pointer-events="none" font-size="8px" fill="#000000" x="95.6837023306412" y="3" transform="rotate(180 95.6837023306412 0)" font-family="Helvetica Neue, Helvetica, Arial, sans-serif">HAS_SPECIES</text></g><g class="relationship" transform="translate(125.92312554479646 -51.43489309121783) rotate(237.57378739188516)"><path class="b-outline" fill="#A5ABB6" stroke="none" d="M 25 0.5 L 51.106309522132534 0.5 L 51.106309522132534 -0.5 L 25 -0.5 Z M 112.68443452213253 0.5 L 138.79074404426507 0.5 L 138.79074404426507 3.5 L 145.79074404426507 0 L 138.79074404426507 -3.5 L 138.79074404426507 -0.5 L 112.68443452213253 -0.5 Z"/><text text-anchor="middle" pointer-events="none" font-size="8px" fill="#000000" x="81.89537202213253" y="3" transform="rotate(180 81.89537202213253 0)" font-family="Helvetica Neue, Helvetica, Arial, sans-serif">HAS_SPECIES</text></g><g class="relationship" transform="translate(125.92312554479646 -51.43489309121783) rotate(230.10952798487017)"><path class="b-outline" fill="#A5ABB6" stroke="none" d="M 25 0.5 L 98.702282346114 0.5 L 98.702282346114 -0.5 L 25 -0.5 Z M 160.280407346114 0.5 L 233.982689692228 0.5 L 233.982689692228 3.5 L 240.982689692228 0 L 233.982689692228 -3.5 L 233.982689692228 -0.5 L 160.280407346114 -0.5 Z"/><text text-anchor="middle" pointer-events="none" font-size="8px" fill="#000000" x="129.491344846114" y="3" transform="rotate(180 129.491344846114 0)" font-family="Helvetica Neue, Helvetica, Arial, sans-serif">HAS_SPECIES</text></g><g class="relationship" transform="translate(122.78169751513455 -150.6921430076879) rotate(514.9518158768576)"><path class="b-outline" fill="#A5ABB6" stroke="none" d="M 25 0.5 L 26.976500287208722 0.5 L 26.976500287208722 -0.5 L 25 -0.5 Z M 87.94915653720872 0.5 L 89.92565682441744 0.5 L 89.92565682441744 3.5 L 96.92565682441744 0 L 89.92565682441744 -3.5 L 89.92565682441744 -0.5 L 87.94915653720872 -0.5 Z"/><text text-anchor="middle" pointer-events="none" font-size="8px" fill="#000000" x="57.46282841220872" y="3" transform="rotate(180 57.46282841220872 0)" font-family="Helvetica Neue, Helvetica, Arial, sans-serif">IN_COMPAR…</text></g><g class="relationship" transform="translate(116.94242786867333 -249.59890168335104) rotate(484.80001739502944)"><path class="b-outline" fill="#A5ABB6" stroke="none" d="M 25 0.5 L 47.96532852403479 0.5 L 47.96532852403479 -0.5 L 25 -0.5 Z M 128.3481410240348 0.5 L 151.31346954806958 0.5 L 151.31346954806958 3.5 L 158.31346954806958 0 L 151.31346954806958 -3.5 L 151.31346954806958 -0.5 L 128.3481410240348 -0.5 Z"/><text text-anchor="middle" pointer-events="none" font-size="8px" fill="#000000" x="88.15673477403479" y="3" transform="rotate(180 88.15673477403479 0)" font-family="Helvetica Neue, Helvetica, Arial, sans-serif">IN_COMPARTMENT</text></g><g class="relationship" transform="translate(34.342905608925015 -195.59640517988552) rotate(462.8508038192364)"><path class="b-outline" fill="#A5ABB6" stroke="none" d="M 25 0.5 L 26.77789447719219 0.5 L 26.77789447719219 -0.5 L 25 -0.5 Z M 65.22711322719219 0.5 L 67.00500770438438 0.5 L 67.00500770438438 3.5 L 74.00500770438438 0 L 67.00500770438438 -3.5 L 67.00500770438438 -0.5 L 65.22711322719219 -0.5 Z"/><text text-anchor="middle" pointer-events="none" font-size="8px" fill="#000000" x="46.00250385219219" y="3" transform="rotate(180 46.00250385219219 0)" font-family="Helvetica Neue, Helvetica, Arial, sans-serif">IN_CO…</text></g><g class="relationship" transform="translate(-44.6574375273889 -255.51591307565496) rotate(429.9873481987896)"><path class="b-outline" fill="#A5ABB6" stroke="none" d="M 25 0.5 L 39.557767492543164 0.5 L 39.557767492543164 -0.5 L 25 -0.5 Z M 119.94057999254316 0.5 L 134.49834748508633 0.5 L 134.49834748508633 3.5 L 141.49834748508633 0 L 134.49834748508633 -3.5 L 134.49834748508633 -0.5 L 119.94057999254316 -0.5 Z"/><text text-anchor="middle" pointer-events="none" font-size="8px" fill="#000000" x="79.74917374254316" y="3" font-family="Helvetica Neue, Helvetica, Arial, sans-serif">IN_COMPARTMENT</text></g><g class="relationship" transform="translate(125.92312554479646 -51.43489309121783) rotate(209.06814153335552)"><path class="b-outline" fill="#A5ABB6" stroke="none" d="M 25 0.5 L 72.57372716030534 0.5 L 72.57372716030534 -0.5 L 25 -0.5 Z M 140.80810216030534 0.5 L 188.38182932061068 0.5 L 188.38182932061068 3.5 L 195.38182932061068 0 L 188.38182932061068 -3.5 L 188.38182932061068 -0.5 L 140.80810216030534 -0.5 Z"/><text text-anchor="middle" pointer-events="none" font-size="8px" fill="#000000" x="106.69091466030534" y="3" transform="rotate(180 106.69091466030534 0)" font-family="Helvetica Neue, Helvetica, Arial, sans-serif">HAS_REACTION</text></g><g class="relationship" transform="translate(125.92312554479646 -51.43489309121783) rotate(182.42638041640566)"><path class="b-outline" fill="#A5ABB6" stroke="none" d="M 25 0.5 L 65.03100748605524 0.5 L 65.03100748605524 -0.5 L 25 -0.5 Z M 133.26538248605524 0.5 L 173.2963899721105 0.5 L 173.2963899721105 3.5 L 180.2963899721105 0 L 173.2963899721105 -3.5 L 173.2963899721105 -0.5 L 133.26538248605524 -0.5 Z"/><text text-anchor="middle" pointer-events="none" font-size="8px" fill="#000000" x="99.14819498605524" y="3" transform="rotate(180 99.14819498605524 0)" font-family="Helvetica Neue, Helvetica, Arial, sans-serif">HAS_REACTION</text></g><g class="relationship" transform="translate(-66.69996116365876 -158.50728524533812) rotate(201.41043646104703)"><path class="b-outline" fill="#A5ABB6" stroke="none" d="M 25 0.5 L 34.33814552724286 0.5 L 34.33814552724286 -0.5 L 25 -0.5 Z M 112.95142677724286 0.5 L 122.28957230448572 0.5 L 122.28957230448572 3.5 L 129.28957230448572 0 L 122.28957230448572 -3.5 L 122.28957230448572 -0.5 L 112.95142677724286 -0.5 Z"/><text text-anchor="middle" pointer-events="none" font-size="8px" fill="#000000" x="73.64478615224286" y="3" transform="rotate(180 73.64478615224286 0)" font-family="Helvetica Neue, Helvetica, Arial, sans-serif">HAS_KENETICLAW</text></g><g class="relationship" transform="translate(-79.18920463371389 -60.126253417577544) rotate(524.0576856309443)"><path class="b-outline" fill="#A5ABB6" stroke="none" d="M 25 0.5 L 35.13936476625322 0.5 L 35.13936476625322 -0.5 L 25 -0.5 Z M 113.75264601625322 0.5 L 123.89201078250645 0.5 L 123.89201078250645 3.5 L 130.89201078250645 0 L 123.89201078250645 -3.5 L 123.89201078250645 -0.5 L 113.75264601625322 -0.5 Z"/><text text-anchor="middle" pointer-events="none" font-size="8px" fill="#000000" x="74.44600539125322" y="3" transform="rotate(180 74.44600539125322 0)" font-family="Helvetica Neue, Helvetica, Arial, sans-serif">HAS_KENETICLAW</text></g><g class="relationship" transform="translate(-66.69996116365876 -158.50728524533812) rotate(444.89712692097993)"><path class="b-outline" fill="#A5ABB6" stroke="none" d="M 25 0.5 L 45.898675467737974 0.5 L 45.898675467737974 -0.5 L 25 -0.5 Z M 148.22680046773797 0.5 L 169.12547593547595 0.5 L 169.12547593547595 3.5 L 176.12547593547595 0 L 169.12547593547595 -3.5 L 169.12547593547595 -0.5 L 148.22680046773797 -0.5 Z"/><text text-anchor="middle" pointer-events="none" font-size="8px" fill="#000000" x="97.06273796773797" y="3" font-family="Helvetica Neue, Helvetica, Arial, sans-serif">HAS_LOCALPARAMETER</text></g><g class="relationship" transform="translate(-66.69996116365876 -158.50728524533812) rotate(415.6237449024438)"><path class="b-outline" fill="#A5ABB6" stroke="none" d="M 25 0.5 L 39.0180964716527 0.5 L 39.0180964716527 -0.5 L 25 -0.5 Z M 141.3462214716527 0.5 L 155.3643179433054 0.5 L 155.3643179433054 3.5 L 162.3643179433054 0 L 155.3643179433054 -3.5 L 155.3643179433054 -0.5 L 141.3462214716527 -0.5 Z"/><text text-anchor="middle" pointer-events="none" font-size="8px" fill="#000000" x="90.1821589716527" y="3" font-family="Helvetica Neue, Helvetica, Arial, sans-serif">HAS_LOCALPARAMETER</text></g><g class="relationship" transform="translate(-79.18920463371389 -60.126253417577544) rotate(467.09909148556085)"><path class="b-outline" fill="#A5ABB6" stroke="none" d="M 25 0.5 L 32.74960322738552 0.5 L 32.74960322738552 -0.5 L 25 -0.5 Z M 135.07772822738553 0.5 L 142.82733145477104 0.5 L 142.82733145477104 3.5 L 149.82733145477104 0 L 142.82733145477104 -3.5 L 142.82733145477104 -0.5 L 135.07772822738553 -0.5 Z"/><text text-anchor="middle" pointer-events="none" font-size="8px" fill="#000000" x="83.91366572738552" y="3" transform="rotate(180 83.91366572738552 0)" font-family="Helvetica Neue, Helvetica, Arial, sans-serif">HAS_LOCALPARAMETER</text></g><g class="relationship" transform="translate(122.78169751513455 -150.6921430076879) rotate(182.36181707358554)"><path class="b-outline" fill="#A5ABB6" stroke="none" d="M 25 0.5 L 61.0557536862718 0.5 L 61.0557536862718 -0.5 L 25 -0.5 Z M 121.5870036862718 0.5 L 157.6427573725436 0.5 L 157.6427573725436 3.5 L 164.6427573725436 0 L 157.6427573725436 -3.5 L 157.6427573725436 -0.5 L 121.5870036862718 -0.5 Z"/><text text-anchor="middle" pointer-events="none" font-size="8px" fill="#000000" x="91.3213786862718" y="3" transform="rotate(180 91.3213786862718 0)" font-family="Helvetica Neue, Helvetica, Arial, sans-serif">IS_REACTANT</text></g><g class="relationship" transform="translate(116.94242786867333 -249.59890168335104) rotate(513.6173386842082)"><path class="b-outline" fill="#A5ABB6" stroke="none" d="M 25 0.5 L 68.73097205911274 0.5 L 68.73097205911274 -0.5 L 25 -0.5 Z M 129.26222205911273 0.5 L 172.9931941182255 0.5 L 172.9931941182255 3.5 L 179.9931941182255 0 L 172.9931941182255 -3.5 L 172.9931941182255 -0.5 L 129.26222205911273 -0.5 Z"/><text text-anchor="middle" pointer-events="none" font-size="8px" fill="#000000" x="98.99659705911274" y="3" transform="rotate(180 98.99659705911274 0)" font-family="Helvetica Neue, Helvetica, Arial, sans-serif">IS_REACTANT</text></g><g class="relationship" transform="translate(-44.6574375273889 -255.51591307565496) rotate(460.0225505947703)"><path class="b-outline" fill="#A5ABB6" stroke="none" d="M 25 0.5 L 65.44319774372677 0.5 L 65.44319774372677 -0.5 L 25 -0.5 Z M 125.97444774372677 0.5 L 166.41764548745354 0.5 L 166.41764548745354 3.5 L 173.41764548745354 0 L 166.41764548745354 -3.5 L 166.41764548745354 -0.5 L 125.97444774372677 -0.5 Z"/><text text-anchor="middle" pointer-events="none" font-size="8px" fill="#000000" x="95.70882274372677" y="3" transform="rotate(180 95.70882274372677 0)" font-family="Helvetica Neue, Helvetica, Arial, sans-serif">IS_REACTANT</text></g><g class="relationship" transform="translate(-66.69996116365876 -158.50728524533812) rotate(282.8015187312034)"><path class="b-outline" fill="#A5ABB6" stroke="none" d="M 25 0.5 L 26.123506910553914 0.5 L 26.123506910553914 -0.5 L 25 -0.5 Z M 66.35788191055391 0.5 L 67.48138882110783 0.5 L 67.48138882110783 3.5 L 74.48138882110783 0 L 67.48138882110783 -3.5 L 67.48138882110783 -0.5 L 66.35788191055391 -0.5 Z"/><text text-anchor="middle" pointer-events="none" font-size="8px" fill="#000000" x="46.240694410553914" y="3" font-family="Helvetica Neue, Helvetica, Arial, sans-serif">HAS_P…</text></g><g class="relationship" transform="translate(-79.18920463371389 -60.126253417577544) rotate(335.8480310996447)"><path class="b-outline" fill="#A5ABB6" stroke="none" d="M 25 0.5 L 73.9468598651593 0.5 L 73.9468598651593 -0.5 L 25 -0.5 Z M 140.3999848651593 0.5 L 189.3468447303186 0.5 L 189.3468447303186 3.5 L 196.3468447303186 0 L 189.3468447303186 -3.5 L 189.3468447303186 -0.5 L 140.3999848651593 -0.5 Z"/><text text-anchor="middle" pointer-events="none" font-size="8px" fill="#000000" x="107.1734223651593" y="3" font-family="Helvetica Neue, Helvetica, Arial, sans-serif">HAS_PRODUCT</text></g><g class="relationship" transform="translate(-79.18920463371389 -60.126253417577544) rotate(309.9650257786278)"><path class="b-outline" fill="#A5ABB6" stroke="none" d="M 25 0.5 L 51.650049330632925 0.5 L 51.650049330632925 -0.5 L 25 -0.5 Z M 118.10317433063292 0.5 L 144.75322366126585 0.5 L 144.75322366126585 3.5 L 151.75322366126585 0 L 144.75322366126585 -3.5 L 144.75322366126585 -0.5 L 118.10317433063292 -0.5 Z"/><text text-anchor="middle" pointer-events="none" font-size="8px" fill="#000000" x="84.87661183063292" y="3" font-family="Helvetica Neue, Helvetica, Arial, sans-serif">HAS_PRODUCT</text></g><g class="relationship" transform="translate(-48.81100797391169 41.821051302557024) rotate(388.70890342331415)"><path class="b-outline" fill="#A5ABB6" stroke="none" d="M 25 0.5 L 70.37112611030166 0.5 L 70.37112611030166 -0.5 L 25 -0.5 Z M 121.26956361030166 0.5 L 166.64068972060332 0.5 L 166.64068972060332 3.5 L 173.64068972060332 0 L 166.64068972060332 -3.5 L 166.64068972060332 -0.5 L 121.26956361030166 -0.5 Z"/><text text-anchor="middle" pointer-events="none" font-size="8px" fill="#000000" x="95.82034486030166" y="3" font-family="Helvetica Neue, Helvetica, Arial, sans-serif">HAS_UNITS</text></g><g class="relationship" transform="translate(39.09061794756974 -3.866601692558436) rotate(455.29051768480355)"><path class="b-outline" fill="#A5ABB6" stroke="none" d="M 25 0.5 L 43.08538436760426 0.5 L 43.08538436760426 -0.5 L 25 -0.5 Z M 93.98382186760426 0.5 L 112.06920623520853 0.5 L 112.06920623520853 3.5 L 119.06920623520853 0 L 112.06920623520853 -3.5 L 112.06920623520853 -0.5 L 93.98382186760426 -0.5 Z"/><text text-anchor="middle" pointer-events="none" font-size="8px" fill="#000000" x="68.53460311760426" y="3" transform="rotate(180 68.53460311760426 0)" font-family="Helvetica Neue, Helvetica, Arial, sans-serif">HAS_UNITS</text></g><g class="relationship" transform="translate(-130.59284041509534 106.97330388899182) rotate(371.77964475984027)"><path class="b-outline" fill="#A5ABB6" stroke="none" d="M 25 0.5 L 50.9328200395359 0.5 L 50.9328200395359 -0.5 L 25 -0.5 Z M 101.8312575395359 0.5 L 127.7640775790718 0.5 L 127.7640775790718 3.5 L 134.7640775790718 0 L 127.7640775790718 -3.5 L 127.7640775790718 -0.5 L 101.8312575395359 -0.5 Z"/><text text-anchor="middle" pointer-events="none" font-size="8px" fill="#000000" x="76.3820387895359" y="3" font-family="Helvetica Neue, Helvetica, Arial, sans-serif">HAS_UNITS</text></g></g><g class="layer nodes"><g class="node" aria-label="graph-node0" transform="translate(25.806602091181777,139.58886564128102)"><circle class="b-outline" cx="0" cy="0" r="25" fill="#D9C8AE" stroke="#c0a378" stroke-width="2px"/><text class="caption" text-anchor="middle" pointer-events="none" x="0" y="5" font-size="10px" fill="#2A2C34" font-family="Helvetica Neue, Helvetica, Arial, sans-serif"> per_sec…</text></g><g class="node" aria-label="graph-node1" transform="translate(125.41108552874944,137.24005228363524)"><circle class="b-outline" cx="0" cy="0" r="25" fill="#D9C8AE" stroke="#c0a378" stroke-width="2px"/><text class="caption" text-anchor="middle" pointer-events="none" x="0" y="5" font-size="10px" fill="#2A2C34" font-family="Helvetica Neue, Helvetica, Arial, sans-serif"> litre_per…</text></g><g class="node" aria-label="graph-node2" transform="translate(12.322897957994137,-99.0712229029369)"><circle class="b-outline" cx="0" cy="0" r="25" fill="#F79767" stroke="#f36924" stroke-width="2px"/><text class="caption" text-anchor="middle" pointer-events="none" x="0" y="5" font-size="10px" fill="#FFFFFF" font-family="Helvetica Neue, Helvetica, Arial, sans-serif"> comp</text></g><g class="node" aria-label="graph-node3" transform="translate(125.92312554479646,-51.43489309121783)"><circle class="b-outline" cx="0" cy="0" r="25" fill="#57C7E3" stroke="#23b3d7" stroke-width="2px"/><text class="caption" text-anchor="middle" pointer-events="none" x="0" y="5" font-size="10px" fill="#2A2C34" font-family="Helvetica Neue, Helvetica, Arial, sans-serif"> b3a773d…</text></g><g class="node" aria-label="graph-node4" transform="translate(64.59532811221818,286.4640543683143)"><circle class="b-outline" cx="0" cy="0" r="25" fill="#F16667" stroke="#eb2728" stroke-width="2px"/><text class="caption" text-anchor="middle" pointer-events="none" x="0" y="5" font-size="10px" fill="#FFFFFF" font-family="Helvetica Neue, Helvetica, Arial, sans-serif"> f5f0cb65…</text></g><g class="node" aria-label="graph-node5" transform="translate(221.11747340671448,252.6288304417015)"><circle class="b-outline" cx="0" cy="0" r="25" fill="#F16667" stroke="#eb2728" stroke-width="2px"/><text class="caption" text-anchor="middle" pointer-events="none" x="0" y="5" font-size="10px" fill="#FFFFFF" font-family="Helvetica Neue, Helvetica, Arial, sans-serif"> 56985b5…</text></g><g class="node" aria-label="graph-node6" transform="translate(275.0100255794625,136.82498938087087)"><circle class="b-outline" cx="0" cy="0" r="25" fill="#F16667" stroke="#eb2728" stroke-width="2px"/><text class="caption" text-anchor="middle" pointer-events="none" x="0" y="5" font-size="10px" fill="#FFFFFF" font-family="Helvetica Neue, Helvetica, Arial, sans-serif"> 372a959…</text></g><g class="node" aria-label="graph-node7" transform="translate(122.78169751513455,-150.6921430076879)"><circle class="b-outline" cx="0" cy="0" r="25" fill="#ECB5C9" stroke="#da7298" stroke-width="2px"/><text class="caption" text-anchor="middle" pointer-events="none" x="0" y="5" font-size="10px" fill="#2A2C34" font-family="Helvetica Neue, Helvetica, Arial, sans-serif"> E</text></g><g class="node" aria-label="graph-node8" transform="translate(116.94242786867333,-249.59890168335104)"><circle class="b-outline" cx="0" cy="0" r="25" fill="#ECB5C9" stroke="#da7298" stroke-width="2px"/><text class="caption" text-anchor="middle" pointer-events="none" x="0" y="5" font-size="10px" fill="#2A2C34" font-family="Helvetica Neue, Helvetica, Arial, sans-serif"> S</text></g><g class="node" aria-label="graph-node9" transform="translate(34.342905608925015,-195.59640517988552)"><circle class="b-outline" cx="0" cy="0" r="25" fill="#ECB5C9" stroke="#da7298" stroke-width="2px"/><text class="caption" text-anchor="middle" pointer-events="none" x="0" y="5" font-size="10px" fill="#2A2C34" font-family="Helvetica Neue, Helvetica, Arial, sans-serif"> P</text></g><g class="node" aria-label="graph-node10" transform="translate(-44.6574375273889,-255.51591307565496)"><circle class="b-outline" cx="0" cy="0" r="25" fill="#ECB5C9" stroke="#da7298" stroke-width="2px"/><text class="caption" text-anchor="middle" pointer-events="none" x="0" y="5" font-size="10px" fill="#2A2C34" font-family="Helvetica Neue, Helvetica, Arial, sans-serif"> ES</text></g><g class="node" aria-label="graph-node11" transform="translate(-66.69996116365876,-158.50728524533812)"><circle class="b-outline" cx="0" cy="0" r="25" fill="#4C8EDA" stroke="#2870c2" stroke-width="2px"/><text class="caption" text-anchor="middle" pointer-events="none" x="0" y="5" font-size="10px" fill="#FFFFFF" font-family="Helvetica Neue, Helvetica, Arial, sans-serif"> veq</text></g><g class="node" aria-label="graph-node12" transform="translate(-79.18920463371389,-60.126253417577544)"><circle class="b-outline" cx="0" cy="0" r="25" fill="#4C8EDA" stroke="#2870c2" stroke-width="2px"/><text class="caption" text-anchor="middle" pointer-events="none" x="0" y="5" font-size="10px" fill="#FFFFFF" font-family="Helvetica Neue, Helvetica, Arial, sans-serif"> vcat</text></g><g class="node" aria-label="graph-node13" transform="translate(-210.34190792663188,-214.8301336467136)"><circle class="b-outline" cx="0" cy="0" r="25" fill="#FFC454" stroke="#d7a013" stroke-width="2px"/><text class="caption" text-anchor="middle" pointer-events="none" x="0" y="5" font-size="10px" fill="#2A2C34" font-family="Helvetica Neue, Helvetica, Arial, sans-serif"> 0114e0e…</text></g><g class="node" aria-label="graph-node14" transform="translate(-229.08540938026465,-17.307486172440328)"><circle class="b-outline" cx="0" cy="0" r="25" fill="#FFC454" stroke="#d7a013" stroke-width="2px"/><text class="caption" text-anchor="middle" pointer-events="none" x="0" y="5" font-size="10px" fill="#2A2C34" font-family="Helvetica Neue, Helvetica, Arial, sans-serif"> af0a419…</text></g><g class="node" aria-label="graph-node15" transform="translate(-48.81100797391169,41.821051302557024)"><circle class="b-outline" cx="0" cy="0" r="25" fill="#DA7194" stroke="#cc3c6c" stroke-width="2px"/><text class="caption" text-anchor="middle" pointer-events="none" x="0" y="5" font-size="10px" fill="#FFFFFF" font-family="Helvetica Neue, Helvetica, Arial, sans-serif"> kon</text></g><g class="node" aria-label="graph-node16" transform="translate(39.09061794756974,-3.866601692558436)"><circle class="b-outline" cx="0" cy="0" r="25" fill="#DA7194" stroke="#cc3c6c" stroke-width="2px"/><text class="caption" text-anchor="middle" pointer-events="none" x="0" y="5" font-size="10px" fill="#FFFFFF" font-family="Helvetica Neue, Helvetica, Arial, sans-serif"> koff</text></g><g class="node" aria-label="graph-node17" transform="translate(-130.59284041509534,106.97330388899182)"><circle class="b-outline" cx="0" cy="0" r="25" fill="#DA7194" stroke="#cc3c6c" stroke-width="2px"/><text class="caption" text-anchor="middle" pointer-events="none" x="0" y="5" font-size="10px" fill="#FFFFFF" font-family="Helvetica Neue, Helvetica, Arial, sans-serif"> kcat</text></g></g></svg>