<svg xmlns="http://www.w3.org/2000/svg" width="550.056396484375" height="615.5107421875" viewBox="-237.46798706054688 -282.9139709472656 550.056396484375 615.5107421875"><title>Neo4j Graph Visualization</title><desc>Created using Neo4j (http://www.neo4j.com/)</desc><g class="layer relationships"><g class="relationship" transform="translate(110.74944284619107 7.782885524810919) rotate(228.8754165009343)"><path class="b-outline" fill="#A5ABB6" stroke="none" d="M 25 0.5 L 25.714543478946176 0.5 L 25.714543478946176 -0.5 L 25 -0.5 Z M 79.27704347894618 0.5 L 79.99158695789235 0.5 L 79.99158695789235 3.5 L 86.99158695789235 0 L 79.99158695789235 -3.5 L 79.99158695789235 -0.5 L 79.27704347894618 -0.5 Z"/><text text-anchor="middle" pointer-events="none" font-size="8px" fill="#000000" x="52.495793478946176" y="3" transform="rotate(180 52.495793478946176 0)" font-family="Helvetica Neue, Helvetica, Arial, sans-serif">HAS_COM…</text></g><g class="relationship" transform="translate(22.56059323580324 173.769887689859) rotate(417.3430842858452)"><path class="b-outline" fill="#A5ABB6" stroke="none" d="M 25 0.5 L 41.2620971266676 0.5 L 41.2620971266676 -0.5 L 25 -0.5 Z M 105.9417846266676 0.5 L 122.2038817533352 0.5 L 122.2038817533352 3.5 L 129.2038817533352 0 L 122.2038817533352 -3.5 L 122.2038817533352 -0.5 L 105.9417846266676 -0.5 Z"/><text text-anchor="middle" pointer-events="none" font-size="8px" fill="#000000" x="73.6019408766676" y="3" font-family="Helvetica Neue, Helvetica, Arial, sans-serif">IS_COMPOSED</text></g><g class="relationship" transform="translate(137.93227285943433 156.87097929057097) rotate(359.3999046196732)"><path class="b-outline" fill="#A5ABB6" stroke="none" d="M 25 0.5 L 36.992192553985916 0.5 L 36.992192553985916 -0.5 L 25 -0.5 Z M 101.67188005398592 0.5 L 113.66407260797183 0.5 L 113.66407260797183 3.5 L 120.66407260797183 0 L 113.66407260797183 -3.5 L 113.66407260797183 -0.5 L 101.67188005398592 -0.5 Z"/><text text-anchor="middle" pointer-events="none" font-size="8px" fill="#000000" x="69.33203630398592" y="3" font-family="Helvetica Neue, Helvetica, Arial, sans-serif">IS_COMPOSED</text></g><g class="relationship" transform="translate(137.93227285943433 156.87097929057097) rotate(462.3636322559772)"><path class="b-outline" fill="#A5ABB6" stroke="none" d="M 25 0.5 L 39.26482743715805 0.5 L 39.26482743715805 -0.5 L 25 -0.5 Z M 103.94451493715805 0.5 L 118.2093423743161 0.5 L 118.2093423743161 3.5 L 125.2093423743161 0 L 118.2093423743161 -3.5 L 118.2093423743161 -0.5 L 103.94451493715805 -0.5 Z"/><text text-anchor="middle" pointer-events="none" font-size="8px" fill="#000000" x="71.60467118715805" y="3" transform="rotate(180 71.60467118715805 0)" font-family="Helvetica Neue, Helvetica, Arial, sans-serif">IS_COMPOSED</text></g><g class="relationship" transform="translate(110.74944284619107 7.782885524810919) rotate(477.98169655532917)"><path class="b-outline" fill="#A5ABB6" stroke="none" d="M 25 0.5 L 45.03272969759948 0.5 L 45.03272969759948 -0.5 L 25 -0.5 Z M 135.92726094759948 0.5 L 155.95999064519896 0.5 L 155.95999064519896 3.5 L 162.95999064519896 0 L 155.95999064519896 -3.5 L 155.95999064519896 -0.5 L 135.92726094759948 -0.5 Z"/><text text-anchor="middle" pointer-events="none" font-size="8px" fill="#000000" x="90.47999532259948" y="3" transform="rotate(180 90.47999532259948 0)" font-family="Helvetica Neue, Helvetica, Arial, sans-serif">HAS_UNITDEFINITION</text></g><g class="relationship" transform="translate(110.74944284619107 7.782885524810919) rotate(439.66691903642266)"><path class="b-outline" fill="#A5ABB6" stroke="none" d="M 25 0.5 L 26.825694509597056 0.5 L 26.825694509597056 -0.5 L 25 -0.5 Z M 117.72022575959706 0.5 L 119.54592026919411 0.5 L 119.54592026919411 3.5 L 126.54592026919411 0 L 119.54592026919411 -3.5 L 119.54592026919411 -0.5 L 117.72022575959706 -0.5 Z"/><text text-anchor="middle" pointer-events="none" font-size="8px" fill="#000000" x="72.27296013459706" y="3" font-family="Helvetica Neue, Helvetica, Arial, sans-serif">HAS_UNITDEFINITION</text></g><g class="relationship" transform="translate(110.74944284619107 7.782885524810919) rotate(285.7636853197565)"><path class="b-outline" fill="#A5ABB6" stroke="none" d="M 25 0.5 L 31.02472188427953 0.5 L 31.02472188427953 -0.5 L 25 -0.5 Z M 92.60284688427953 0.5 L 98.62756876855906 0.5 L 98.62756876855906 3.5 L 105.62756876855906 0 L 98.62756876855906 -3.5 L 98.62756876855906 -0.5 L 92.60284688427953 -0.5 Z"/><text text-anchor="middle" pointer-events="none" font-size="8px" fill="#000000" x="61.81378438427953" y="3" font-family="Helvetica Neue, Helvetica, Arial, sans-serif">HAS_SPECIES</text></g><g class="relationship" transform="translate(110.74944284619107 7.782885524810919) rotate(260.88197937872707)"><path class="b-outline" fill="#A5ABB6" stroke="none" d="M 25 0.5 L 66.34148439166499 0.5 L 66.34148439166499 -0.5 L 25 -0.5 Z M 127.91960939166499 0.5 L 169.26109378332998 0.5 L 169.26109378332998 3.5 L 176.26109378332998 0 L 169.26109378332998 -3.5 L 169.26109378332998 -0.5 L 127.91960939166499 -0.5 Z"/><text text-anchor="middle" pointer-events="none" font-size="8px" fill="#000000" x="97.13054689166499" y="3" transform="rotate(180 97.13054689166499 0)" font-family="Helvetica Neue, Helvetica, Arial, sans-serif">HAS_SPECIES</text></g><g class="relationship" transform="translate(146.2370773380599 -117.93182928835702) rotate(519.2488702938776)"><path class="b-outline" fill="#A5ABB6" stroke="none" d="M 25 0.5 L 27.260294957687066 0.5 L 27.260294957687066 -0.5 L 25 -0.5 Z M 82.45560745768707 0.5 L 84.71590241537413 0.5 L 84.71590241537413 3.5 L 91.71590241537413 0 L 84.71590241537413 -3.5 L 84.71590241537413 -0.5 L 82.45560745768707 -0.5 Z"/><text text-anchor="middle" pointer-events="none" font-size="8px" fill="#000000" x="54.857951207687066" y="3" transform="rotate(180 54.857951207687066 0)" font-family="Helvetica Neue, Helvetica, Arial, sans-serif">IN_COMPA…</text></g><g class="relationship" transform="translate(78.85587505424562 -190.93507592901167) rotate(470.0622067545617)"><path class="b-outline" fill="#A5ABB6" stroke="none" d="M 25 0.5 L 26.885743070272255 0.5 L 26.885743070272255 -0.5 L 25 -0.5 Z M 87.85839932027226 0.5 L 89.74414239054451 0.5 L 89.74414239054451 3.5 L 96.74414239054451 0 L 89.74414239054451 -3.5 L 89.74414239054451 -0.5 L 87.85839932027226 -0.5 Z"/><text text-anchor="middle" pointer-events="none" font-size="8px" fill="#000000" x="57.372071195272255" y="3" transform="rotate(180 57.372071195272255 0)" font-family="Helvetica Neue, Helvetica, Arial, sans-serif">IN_COMPAR…</text></g><g class="relationship" transform="translate(110.74944284619107 7.782885524810919) rotate(225.79897312581505)"><path class="b-outline" fill="#A5ABB6" stroke="none" d="M 25 0.5 L 67.80712899958611 0.5 L 67.80712899958611 -0.5 L 25 -0.5 Z M 136.0415039995861 0.5 L 178.84863299917222 0.5 L 178.84863299917222 3.5 L 185.84863299917222 0 L 178.84863299917222 -3.5 L 178.84863299917222 -0.5 L 136.0415039995861 -0.5 Z"/><text text-anchor="middle" pointer-events="none" font-size="8px" fill="#000000" x="101.92431649958611" y="3" transform="rotate(180 101.92431649958611 0)" font-family="Helvetica Neue, Helvetica, Arial, sans-serif">HAS_REACTION</text></g><g class="relationship" transform="translate(110.74944284619107 7.782885524810919) rotate(197.81240918256668)"><path class="b-outline" fill="#A5ABB6" stroke="none" d="M 25 0.5 L 50.693580983581526 0.5 L 50.693580983581526 -0.5 L 25 -0.5 Z M 118.92795598358153 0.5 L 144.62153696716305 0.5 L 144.62153696716305 3.5 L 151.62153696716305 0 L 144.62153696716305 -3.5 L 144.62153696716305 -0.5 L 118.92795598358153 -0.5 Z"/><text text-anchor="middle" pointer-events="none" font-size="8px" fill="#000000" x="84.81076848358153" y="3" transform="rotate(180 84.81076848358153 0)" font-family="Helvetica Neue, Helvetica, Arial, sans-serif">HAS_REACTION</text></g><g class="relationship" transform="translate(-36.24957517526979 -143.3741015394523) rotate(228.2267394649191)"><path class="b-outline" fill="#A5ABB6" stroke="none" d="M 25 0.5 L 31.302906721173542 0.5 L 31.302906721173542 -0.5 L 25 -0.5 Z M 109.91618797117354 0.5 L 116.21909469234708 0.5 L 116.21909469234708 3.5 L 123.21909469234708 0 L 116.21909469234708 -3.5 L 116.21909469234708 -0.5 L 109.91618797117354 -0.5 Z"/><text text-anchor="middle" pointer-events="none" font-size="8px" fill="#000000" x="70.60954734617354" y="3" transform="rotate(180 70.60954734617354 0)" font-family="Helvetica Neue, Helvetica, Arial, sans-serif">HAS_KENETICLAW</text></g><g class="relationship" transform="translate(-57.40541621998263 -46.24590951152322) rotate(536.8920929163235)"><path class="b-outline" fill="#A5ABB6" stroke="none" d="M 25 0.5 L 32.835898129945164 0.5 L 32.835898129945164 -0.5 L 25 -0.5 Z M 111.44917937994516 0.5 L 119.28507750989033 0.5 L 119.28507750989033 3.5 L 126.28507750989033 0 L 119.28507750989033 -3.5 L 119.28507750989033 -0.5 L 111.44917937994516 -0.5 Z"/><text text-anchor="middle" pointer-events="none" font-size="8px" fill="#000000" x="72.14253875494516" y="3" transform="rotate(180 72.14253875494516 0)" font-family="Helvetica Neue, Helvetica, Arial, sans-serif">HAS_KENETICLAW</text></g><g class="relationship" transform="translate(-36.24957517526979 -143.3741015394523) rotate(433.9428810508339)"><path class="b-outline" fill="#A5ABB6" stroke="none" d="M 25 0.5 L 36.95667832341027 0.5 L 36.95667832341027 -0.5 L 25 -0.5 Z M 139.28480332341027 0.5 L 151.24148164682055 0.5 L 151.24148164682055 3.5 L 158.24148164682055 0 L 151.24148164682055 -3.5 L 151.24148164682055 -0.5 L 139.28480332341027 -0.5 Z"/><text text-anchor="middle" pointer-events="none" font-size="8px" fill="#000000" x="88.12074082341027" y="3" font-family="Helvetica Neue, Helvetica, Arial, sans-serif">HAS_LOCALPARAMETER</text></g><g class="relationship" transform="translate(-57.40541621998263 -46.24590951152322) rotate(472.15327091884734)"><path class="b-outline" fill="#A5ABB6" stroke="none" d="M 25 0.5 L 28.703296114843283 0.5 L 28.703296114843283 -0.5 L 25 -0.5 Z M 131.03142111484328 0.5 L 134.73471722968657 0.5 L 134.73471722968657 3.5 L 141.73471722968657 0 L 134.73471722968657 -3.5 L 134.73471722968657 -0.5 L 131.03142111484328 -0.5 Z"/><text text-anchor="middle" pointer-events="none" font-size="8px" fill="#000000" x="79.86735861484328" y="3" transform="rotate(180 79.86735861484328 0)" font-family="Helvetica Neue, Helvetica, Arial, sans-serif">HAS_LOCALPARAMETER</text></g><g class="relationship" transform="translate(146.2370773380599 -117.93182928835702) rotate(187.93700988026097)"><path class="b-outline" fill="#A5ABB6" stroke="none" d="M 25 0.5 L 58.36022311389743 0.5 L 58.36022311389743 -0.5 L 25 -0.5 Z M 118.89147311389743 0.5 L 152.25169622779487 0.5 L 152.25169622779487 3.5 L 159.25169622779487 0 L 152.25169622779487 -3.5 L 152.25169622779487 -0.5 L 118.89147311389743 -0.5 Z"/><text text-anchor="middle" pointer-events="none" font-size="8px" fill="#000000" x="88.62584811389743" y="3" transform="rotate(180 88.62584811389743 0)" font-family="Helvetica Neue, Helvetica, Arial, sans-serif">IS_REACTANT</text></g><g class="relationship" transform="translate(78.85587505424562 -190.93507592901167) rotate(493.28177211192747)"><path class="b-outline" fill="#A5ABB6" stroke="none" d="M 25 0.5 L 65.61004402706585 0.5 L 65.61004402706585 -0.5 L 25 -0.5 Z M 126.14129402706585 0.5 L 166.7513380541317 0.5 L 166.7513380541317 3.5 L 173.7513380541317 0 L 166.7513380541317 -3.5 L 166.7513380541317 -0.5 L 126.14129402706585 -0.5 Z"/><text text-anchor="middle" pointer-events="none" font-size="8px" fill="#000000" x="95.87566902706585" y="3" transform="rotate(180 95.87566902706585 0)" font-family="Helvetica Neue, Helvetica, Arial, sans-serif">IS_REACTANT</text></g><g class="relationship" transform="translate(-36.24957517526979 -143.3741015394523) rotate(337.5498401362279)"><path class="b-outline" fill="#A5ABB6" stroke="none" d="M 25 0.5 L 25.54564429690052 0.5 L 25.54564429690052 -0.5 L 25 -0.5 Z M 91.99876929690052 0.5 L 92.54441359380104 0.5 L 92.54441359380104 3.5 L 99.54441359380104 0 L 92.54441359380104 -3.5 L 92.54441359380104 -0.5 L 91.99876929690052 -0.5 Z"/><text text-anchor="middle" pointer-events="none" font-size="8px" fill="#000000" x="58.77220679690052" y="3" font-family="Helvetica Neue, Helvetica, Arial, sans-serif">HAS_PRODUCT</text></g><g class="relationship" transform="translate(-57.40541621998263 -46.24590951152322) rotate(340.6069897158318)"><path class="b-outline" fill="#A5ABB6" stroke="none" d="M 25 0.5 L 71.21918345229314 0.5 L 71.21918345229314 -0.5 L 25 -0.5 Z M 137.67230845229312 0.5 L 183.89149190458627 0.5 L 183.89149190458627 3.5 L 190.89149190458627 0 L 183.89149190458627 -3.5 L 183.89149190458627 -0.5 L 137.67230845229312 -0.5 Z"/><text text-anchor="middle" pointer-events="none" font-size="8px" fill="#000000" x="104.44574595229314" y="3" font-family="Helvetica Neue, Helvetica, Arial, sans-serif">HAS_PRODUCT</text></g><g class="relationship" transform="translate(14.434196566499217 32.718476038792936) rotate(405.1514061284746)"><path class="b-outline" fill="#A5ABB6" stroke="none" d="M 25 0.5 L 58.608789038748796 0.5 L 58.608789038748796 -0.5 L 25 -0.5 Z M 109.5072265387488 0.5 L 143.1160155774976 0.5 L 143.1160155774976 3.5 L 150.1160155774976 0 L 143.1160155774976 -3.5 L 143.1160155774976 -0.5 L 109.5072265387488 -0.5 Z"/><text text-anchor="middle" pointer-events="none" font-size="8px" fill="#000000" x="84.0580077887488" y="3" font-family="Helvetica Neue, Helvetica, Arial, sans-serif">HAS_UNITS</text></g><g class="relationship" transform="translate(-120.27866762221319 108.18018992693132) rotate(384.66389463063655)"><path class="b-outline" fill="#A5ABB6" stroke="none" d="M 25 0.5 L 49.64000267236915 0.5 L 49.64000267236915 -0.5 L 25 -0.5 Z M 100.53844017236915 0.5 L 125.1784428447383 0.5 L 125.1784428447383 3.5 L 132.1784428447383 0 L 125.1784428447383 -3.5 L 125.1784428447383 -0.5 L 100.53844017236915 -0.5 Z"/><text text-anchor="middle" pointer-events="none" font-size="8px" fill="#000000" x="75.08922142236915" y="3" font-family="Helvetica Neue, Helvetica, Arial, sans-serif">HAS_UNITS</text></g></g><g class="layer nodes"><g class="node" aria-label="graph-node0" transform="translate(22.56059323580324,173.769887689859)"><circle class="b-outline" cx="0" cy="0" r="25" fill="#D9C8AE" stroke="#c0a378" stroke-width="2px"/><text class="caption" text-anchor="middle" pointer-events="none" x="0" y="5" font-size="10px" fill="#2A2C34" font-family="Helvetica Neue, Helvetica, Arial, sans-serif"> per_sec…</text></g><g class="node" aria-label="graph-node1" transform="translate(137.93227285943433,156.87097929057097)"><circle class="b-outline" cx="0" cy="0" r="25" fill="#D9C8AE" stroke="#c0a378" stroke-width="2px"/><text class="caption" text-anchor="middle" pointer-events="none" x="0" y="5" font-size="10px" fill="#2A2C34" font-family="Helvetica Neue, Helvetica, Arial, sans-serif"> per_item…</text></g><g class="node" aria-label="graph-node2" transform="translate(37.09274280968145,-76.57827905391457)"><circle class="b-outline" cx="0" cy="0" r="25" fill="#F79767" stroke="#f36924" stroke-width="2px"/><text class="caption" text-anchor="middle" pointer-events="none" x="0" y="5" font-size="10px" fill="#FFFFFF" font-family="Helvetica Neue, Helvetica, Arial, sans-serif"> Cell</text></g><g class="node" aria-label="graph-node3" transform="translate(110.74944284619107,7.782885524810919)"><circle class="b-outline" cx="0" cy="0" r="25" fill="#57C7E3" stroke="#23b3d7" stroke-width="2px"/><text class="caption" text-anchor="middle" pointer-events="none" x="0" y="5" font-size="10px" fill="#2A2C34" font-family="Helvetica Neue, Helvetica, Arial, sans-serif"> dimeriza…</text></g><g class="node" aria-label="graph-node4" transform="translate(105.77014633659242,303.59672397790666)"><circle class="b-outline" cx="0" cy="0" r="25" fill="#F16667" stroke="#eb2728" stroke-width="2px"/><text class="caption" text-anchor="middle" pointer-events="none" x="0" y="5" font-size="10px" fill="#FFFFFF" font-family="Helvetica Neue, Helvetica, Arial, sans-serif"> f5f0cb65…</text></g><g class="node" aria-label="graph-node5" transform="translate(283.5883560744087,155.3453740949346)"><circle class="b-outline" cx="0" cy="0" r="25" fill="#F16667" stroke="#eb2728" stroke-width="2px"/><text class="caption" text-anchor="middle" pointer-events="none" x="0" y="5" font-size="10px" fill="#FFFFFF" font-family="Helvetica Neue, Helvetica, Arial, sans-serif"> 29c4c3d…</text></g><g class="node" aria-label="graph-node6" transform="translate(146.2370773380599,-117.93182928835702)"><circle class="b-outline" cx="0" cy="0" r="25" fill="#ECB5C9" stroke="#da7298" stroke-width="2px"/><text class="caption" text-anchor="middle" pointer-events="none" x="0" y="5" font-size="10px" fill="#2A2C34" font-family="Helvetica Neue, Helvetica, Arial, sans-serif"> P</text></g><g class="node" aria-label="graph-node7" transform="translate(78.85587505424562,-190.93507592901167)"><circle class="b-outline" cx="0" cy="0" r="25" fill="#ECB5C9" stroke="#da7298" stroke-width="2px"/><text class="caption" text-anchor="middle" pointer-events="none" x="0" y="5" font-size="10px" fill="#2A2C34" font-family="Helvetica Neue, Helvetica, Arial, sans-serif"> P2</text></g><g class="node" aria-label="graph-node8" transform="translate(-36.24957517526979,-143.3741015394523)"><circle class="b-outline" cx="0" cy="0" r="25" fill="#4C8EDA" stroke="#2870c2" stroke-width="2px"/><text class="caption" text-anchor="middle" pointer-events="none" x="0" y="5" font-size="10px" fill="#FFFFFF" font-family="Helvetica Neue, Helvetica, Arial, sans-serif"> Dimeriza…</text></g><g class="node" aria-label="graph-node9" transform="translate(-57.40541621998263,-46.24590951152322)"><circle class="b-outline" cx="0" cy="0" r="25" fill="#4C8EDA" stroke="#2870c2" stroke-width="2px"/><text class="caption" text-anchor="middle" pointer-events="none" x="0" y="5" font-size="10px" fill="#FFFFFF" font-family="Helvetica Neue, Helvetica, Arial, sans-serif"> Dissocia…</text></g><g class="node" aria-label="graph-node10" transform="translate(-134.99083721263932,-253.91397309124343)"><circle class="b-outline" cx="0" cy="0" r="25" fill="#FFC454" stroke="#d7a013" stroke-width="2px"/><text class="caption" text-anchor="middle" pointer-events="none" x="0" y="5" font-size="10px" fill="#2A2C34" font-family="Helvetica Neue, Helvetica, Arial, sans-serif"> 531b27c…</text></g><g class="node" aria-label="graph-node11" transform="translate(-208.46798328842928,-38.04374468359007)"><circle class="b-outline" cx="0" cy="0" r="25" fill="#FFC454" stroke="#d7a013" stroke-width="2px"/><text class="caption" text-anchor="middle" pointer-events="none" x="0" y="5" font-size="10px" fill="#2A2C34" font-family="Helvetica Neue, Helvetica, Arial, sans-serif"> c641bc0…</text></g><g class="node" aria-label="graph-node12" transform="translate(14.434196566499217,32.718476038792936)"><circle class="b-outline" cx="0" cy="0" r="25" fill="#DA7194" stroke="#cc3c6c" stroke-width="2px"/><text class="caption" text-anchor="middle" pointer-events="none" x="0" y="5" font-size="10px" fill="#FFFFFF" font-family="Helvetica Neue, Helvetica, Arial, sans-serif"> c1</text></g><g class="node" aria-label="graph-node13" transform="translate(-120.27866762221319,108.18018992693132)"><circle class="b-outline" cx="0" cy="0" r="25" fill="#DA7194" stroke="#cc3c6c" stroke-width="2px"/><text class="caption" text-anchor="middle" pointer-events="none" x="0" y="5" font-size="10px" fill="#FFFFFF" font-family="Helvetica Neue, Helvetica, Arial, sans-serif"> c2</text></g></g></svg>