<svg xmlns="http://www.w3.org/2000/svg" width="394.9925842285156" height="522.4511108398438" viewBox="-258.3145751953125 -241.4405975341797 394.9925842285156 522.4511108398438"><title>Neo4j Graph Visualization</title><desc>Created using Neo4j (http://www.neo4j.com/)</desc><g class="layer relationships"><g class="relationship" transform="translate(-46.47131588551703 -62.21852961101507) rotate(370.7352696342906)"><path class="b-outline" fill="#A5ABB6" stroke="none" d="M 25 0.5 L 30.531611905609154 0.5 L 30.531611905609154 -0.5 L 25 -0.5 Z M 119.36364315560915 0.5 L 124.89525506121831 0.5 L 124.89525506121831 3.5 L 131.8952550612183 0 L 124.89525506121831 -3.5 L 124.89525506121831 -0.5 L 119.36364315560915 -0.5 Z"/><text text-anchor="middle" pointer-events="none" font-size="8px" fill="#000000" x="74.94762753060915" y="3" font-family="Helvetica Neue, Helvetica, Arial, sans-serif">HAS_COMPARTMENT</text></g><g class="relationship" transform="translate(-95.35260499977966 105.22326353419948) rotate(443.31336994547945)"><path class="b-outline" fill="#A5ABB6" stroke="none" d="M 25 0.5 L 38.05642684714249 0.5 L 38.05642684714249 -0.5 L 25 -0.5 Z M 102.73611434714249 0.5 L 115.79254119428498 0.5 L 115.79254119428498 3.5 L 122.79254119428498 0 L 115.79254119428498 -3.5 L 115.79254119428498 -0.5 L 102.73611434714249 -0.5 Z"/><text text-anchor="middle" pointer-events="none" font-size="8px" fill="#000000" x="70.39627059714249" y="3" font-family="Helvetica Neue, Helvetica, Arial, sans-serif">IS_COMPOSED</text></g><g class="relationship" transform="translate(-95.35260499977966 105.22326353419948) rotate(393.11286854780883)"><path class="b-outline" fill="#A5ABB6" stroke="none" d="M 25 0.5 L 38.9491939088563 0.5 L 38.9491939088563 -0.5 L 25 -0.5 Z M 103.6288814088563 0.5 L 117.5780753177126 0.5 L 117.5780753177126 3.5 L 124.5780753177126 0 L 117.5780753177126 -3.5 L 117.5780753177126 -0.5 L 103.6288814088563 -0.5 Z"/><text text-anchor="middle" pointer-events="none" font-size="8px" fill="#000000" x="71.2890376588563" y="3" font-family="Helvetica Neue, Helvetica, Arial, sans-serif">IS_COMPOSED</text></g><g class="relationship" transform="translate(-46.47131588551703 -62.21852961101507) rotate(466.2741107530366)"><path class="b-outline" fill="#A5ABB6" stroke="none" d="M 25 0.5 L 38.26817812947067 0.5 L 38.26817812947067 -0.5 L 25 -0.5 Z M 129.16270937947067 0.5 L 142.43088750894134 0.5 L 142.43088750894134 3.5 L 149.43088750894134 0 L 142.43088750894134 -3.5 L 142.43088750894134 -0.5 L 129.16270937947067 -0.5 Z"/><text text-anchor="middle" pointer-events="none" font-size="8px" fill="#000000" x="83.71544375447067" y="3" transform="rotate(180 83.71544375447067 0)" font-family="Helvetica Neue, Helvetica, Arial, sans-serif">HAS_UNITDEFINITION</text></g><g class="relationship" transform="translate(-46.47131588551703 -62.21852961101507) rotate(332.27111184089676)"><path class="b-outline" fill="#A5ABB6" stroke="none" d="M 25 0.5 L 44.89234574130937 0.5 L 44.89234574130937 -0.5 L 25 -0.5 Z M 106.47047074130937 0.5 L 126.36281648261874 0.5 L 126.36281648261874 3.5 L 133.36281648261874 0 L 126.36281648261874 -3.5 L 126.36281648261874 -0.5 L 106.47047074130937 -0.5 Z"/><text text-anchor="middle" pointer-events="none" font-size="8px" fill="#000000" x="75.68140824130937" y="3" font-family="Helvetica Neue, Helvetica, Arial, sans-serif">HAS_SPECIES</text></g><g class="relationship" transform="translate(-46.47131588551703 -62.21852961101507) rotate(297.31755723482087)"><path class="b-outline" fill="#A5ABB6" stroke="none" d="M 25 0.5 L 50.25005701284155 0.5 L 50.25005701284155 -0.5 L 25 -0.5 Z M 111.82818201284155 0.5 L 137.0782390256831 0.5 L 137.0782390256831 3.5 L 144.0782390256831 0 L 137.0782390256831 -3.5 L 137.0782390256831 -0.5 L 111.82818201284155 -0.5 Z"/><text text-anchor="middle" pointer-events="none" font-size="8px" fill="#000000" x="81.03911951284155" y="3" font-family="Helvetica Neue, Helvetica, Arial, sans-serif">HAS_SPECIES</text></g><g class="relationship" transform="translate(93.70497901820542 -135.902910529716) rotate(442.26767728428)"><path class="b-outline" fill="#A5ABB6" stroke="none" d="M 25 0.5 L 25.87025061113797 0.5 L 25.87025061113797 -0.5 L 25 -0.5 Z M 70.98353186113798 0.5 L 71.85378247227594 0.5 L 71.85378247227594 3.5 L 78.85378247227594 0 L 71.85378247227594 -3.5 L 71.85378247227594 -0.5 L 70.98353186113798 -0.5 Z"/><text text-anchor="middle" pointer-events="none" font-size="8px" fill="#000000" x="48.42689123613797" y="3" font-family="Helvetica Neue, Helvetica, Arial, sans-serif">IN_COM…</text></g><g class="relationship" transform="translate(31.122379540458784 -212.4405963727493) rotate(426.8959686987932)"><path class="b-outline" fill="#A5ABB6" stroke="none" d="M 25 0.5 L 53.85608511331682 0.5 L 53.85608511331682 -0.5 L 25 -0.5 Z M 134.23889761331682 0.5 L 163.09498272663365 0.5 L 163.09498272663365 3.5 L 170.09498272663365 0 L 163.09498272663365 -3.5 L 163.09498272663365 -0.5 L 134.23889761331682 -0.5 Z"/><text text-anchor="middle" pointer-events="none" font-size="8px" fill="#000000" x="94.04749136331682" y="3" font-family="Helvetica Neue, Helvetica, Arial, sans-serif">IN_COMPARTMENT</text></g><g class="relationship" transform="translate(-46.47131588551703 -62.21852961101507) rotate(255.51709418154672)"><path class="b-outline" fill="#A5ABB6" stroke="none" d="M 25 0.5 L 37.45091890285694 0.5 L 37.45091890285694 -0.5 L 25 -0.5 Z M 105.68529390285694 0.5 L 118.13621280571388 0.5 L 118.13621280571388 3.5 L 125.13621280571388 0 L 118.13621280571388 -3.5 L 118.13621280571388 -0.5 L 105.68529390285694 -0.5 Z"/><text text-anchor="middle" pointer-events="none" font-size="8px" fill="#000000" x="71.56810640285694" y="3" transform="rotate(180 71.56810640285694 0)" font-family="Helvetica Neue, Helvetica, Arial, sans-serif">HAS_REACTION</text></g><g class="relationship" transform="translate(-84.01905344842153 -207.5837586018224) rotate(180.07380410931734)"><path class="b-outline" fill="#A5ABB6" stroke="none" d="M 25 0.5 L 29.841188236160548 0.5 L 29.841188236160548 -0.5 L 25 -0.5 Z M 108.45446948616055 0.5 L 113.2956577223211 0.5 L 113.2956577223211 3.5 L 120.2956577223211 0 L 113.2956577223211 -3.5 L 113.2956577223211 -0.5 L 108.45446948616055 -0.5 Z"/><text text-anchor="middle" pointer-events="none" font-size="8px" fill="#000000" x="69.14782886116055" y="3" transform="rotate(180 69.14782886116055 0)" font-family="Helvetica Neue, Helvetica, Arial, sans-serif">HAS_KENETICLAW</text></g><g class="relationship" transform="translate(93.70497901820542 -135.902910529716) rotate(201.96553631746775)"><path class="b-outline" fill="#A5ABB6" stroke="none" d="M 25 0.5 L 62.05187822427405 0.5 L 62.05187822427405 -0.5 L 25 -0.5 Z M 122.58312822427405 0.5 L 159.6350064485481 0.5 L 159.6350064485481 3.5 L 166.6350064485481 0 L 159.6350064485481 -3.5 L 159.6350064485481 -0.5 L 122.58312822427405 -0.5 Z"/><text text-anchor="middle" pointer-events="none" font-size="8px" fill="#000000" x="92.31750322427405" y="3" transform="rotate(180 92.31750322427405 0)" font-family="Helvetica Neue, Helvetica, Arial, sans-serif">IS_REACTANT</text></g><g class="relationship" transform="translate(-84.01905344842153 -207.5837586018224) rotate(357.58461023871223)"><path class="b-outline" fill="#A5ABB6" stroke="none" d="M 25 0.5 L 25.116051526726253 0.5 L 25.116051526726253 -0.5 L 25 -0.5 Z M 83.12777027672625 0.5 L 83.2438218034525 0.5 L 83.2438218034525 3.5 L 90.2438218034525 0 L 83.2438218034525 -3.5 L 83.2438218034525 -0.5 L 83.12777027672625 -0.5 Z"/><text text-anchor="middle" pointer-events="none" font-size="8px" fill="#000000" x="54.12191090172625" y="3" font-family="Helvetica Neue, Helvetica, Arial, sans-serif">HAS_PROD…</text></g><g class="relationship" transform="translate(-46.47131588551703 -62.21852961101507) rotate(420.74581208956056)"><path class="b-outline" fill="#A5ABB6" stroke="none" d="M 25 0.5 L 27.654802872465126 0.5 L 27.654802872465126 -0.5 L 25 -0.5 Z M 109.65870912246513 0.5 L 112.31351199493025 0.5 L 112.31351199493025 3.5 L 119.31351199493025 0 L 112.31351199493025 -3.5 L 112.31351199493025 -0.5 L 109.65870912246513 -0.5 Z"/><text text-anchor="middle" pointer-events="none" font-size="8px" fill="#000000" x="68.65675599746513" y="3" font-family="Helvetica Neue, Helvetica, Arial, sans-serif">HAS_FUNCTIOND…</text></g><g class="relationship" transform="translate(-46.47131588551703 -62.21852961101507) rotate(519.9218194346855)"><path class="b-outline" fill="#A5ABB6" stroke="none" d="M 25 0.5 L 33.036471554632826 0.5 L 33.036471554632826 -0.5 L 25 -0.5 Z M 109.13022155463283 0.5 L 117.16669310926565 0.5 L 117.16669310926565 3.5 L 124.16669310926565 0 L 117.16669310926565 -3.5 L 117.16669310926565 -0.5 L 109.13022155463283 -0.5 Z"/><text text-anchor="middle" pointer-events="none" font-size="8px" fill="#000000" x="71.08334655463283" y="3" transform="rotate(180 71.08334655463283 0)" font-family="Helvetica Neue, Helvetica, Arial, sans-serif">HAS_PARAMETER</text></g></g><g class="layer nodes"><g class="node" aria-label="graph-node0" transform="translate(-95.35260499977966,105.22326353419948)"><circle class="b-outline" cx="0" cy="0" r="25" fill="#D9C8AE" stroke="#c0a378" stroke-width="2px"/><text class="caption" text-anchor="middle" pointer-events="none" x="0" y="5" font-size="10px" fill="#2A2C34" font-family="Helvetica Neue, Helvetica, Arial, sans-serif"> conc</text></g><g class="node" aria-label="graph-node1" transform="translate(107.67800852637733,-32.993423211186574)"><circle class="b-outline" cx="0" cy="0" r="25" fill="#F79767" stroke="#f36924" stroke-width="2px"/><text class="caption" text-anchor="middle" pointer-events="none" x="0" y="5" font-size="10px" fill="#FFFFFF" font-family="Helvetica Neue, Helvetica, Arial, sans-serif"> compart…</text></g><g class="node" aria-label="graph-node2" transform="translate(-46.47131588551703,-62.21852961101507)"><circle class="b-outline" cx="0" cy="0" r="25" fill="#57C7E3" stroke="#23b3d7" stroke-width="2px"/><text class="caption" text-anchor="middle" pointer-events="none" x="0" y="5" font-size="10px" fill="#2A2C34" font-family="Helvetica Neue, Helvetica, Arial, sans-serif"> Example</text></g><g class="node" aria-label="graph-node3" transform="translate(-78.14379254982562,252.01049733444088)"><circle class="b-outline" cx="0" cy="0" r="25" fill="#F16667" stroke="#eb2728" stroke-width="2px"/><text class="caption" text-anchor="middle" pointer-events="none" x="0" y="5" font-size="10px" fill="#FFFFFF" font-family="Helvetica Neue, Helvetica, Arial, sans-serif"> de25aa5…</text></g><g class="node" aria-label="graph-node4" transform="translate(29.933398825661893,186.93628490290635)"><circle class="b-outline" cx="0" cy="0" r="25" fill="#F16667" stroke="#eb2728" stroke-width="2px"/><text class="caption" text-anchor="middle" pointer-events="none" x="0" y="5" font-size="10px" fill="#FFFFFF" font-family="Helvetica Neue, Helvetica, Arial, sans-serif"> 2a6a3ffc…</text></g><g class="node" aria-label="graph-node5" transform="translate(93.70497901820542,-135.902910529716)"><circle class="b-outline" cx="0" cy="0" r="25" fill="#ECB5C9" stroke="#da7298" stroke-width="2px"/><text class="caption" text-anchor="middle" pointer-events="none" x="0" y="5" font-size="10px" fill="#2A2C34" font-family="Helvetica Neue, Helvetica, Arial, sans-serif"> S1</text></g><g class="node" aria-label="graph-node6" transform="translate(31.122379540458784,-212.4405963727493)"><circle class="b-outline" cx="0" cy="0" r="25" fill="#ECB5C9" stroke="#da7298" stroke-width="2px"/><text class="caption" text-anchor="middle" pointer-events="none" x="0" y="5" font-size="10px" fill="#2A2C34" font-family="Helvetica Neue, Helvetica, Arial, sans-serif"> S2</text></g><g class="node" aria-label="graph-node7" transform="translate(-84.01905344842153,-207.5837586018224)"><circle class="b-outline" cx="0" cy="0" r="25" fill="#4C8EDA" stroke="#2870c2" stroke-width="2px"/><text class="caption" text-anchor="middle" pointer-events="none" x="0" y="5" font-size="10px" fill="#FFFFFF" font-family="Helvetica Neue, Helvetica, Arial, sans-serif"> reaction_1</text></g><g class="node" aria-label="graph-node8" transform="translate(-229.3145906287402,-207.77091747690022)"><circle class="b-outline" cx="0" cy="0" r="25" fill="#FFC454" stroke="#d7a013" stroke-width="2px"/><text class="caption" text-anchor="middle" pointer-events="none" x="0" y="5" font-size="10px" fill="#2A2C34" font-family="Helvetica Neue, Helvetica, Arial, sans-serif"> b827af6…</text></g><g class="node" aria-label="graph-node9" transform="translate(-186.57241169612533,-11.009299136220761)"><circle class="b-outline" cx="0" cy="0" r="25" fill="#569480" stroke="#447666" stroke-width="2px"/><text class="caption" text-anchor="middle" pointer-events="none" x="0" y="5" font-size="10px" fill="#FFFFFF" font-family="Helvetica Neue, Helvetica, Arial, sans-serif"> t</text></g><g class="node" aria-label="graph-node10" transform="translate(24.052534656146555,63.689278920020755)"><circle class="b-outline" cx="0" cy="0" r="25" fill="#A5ABB6" stroke="#9AA1AC" stroke-width="2px"/><text class="caption" text-anchor="middle" pointer-events="none" x="0" y="5" font-size="10px" fill="#FFFFFF" font-family="Helvetica Neue, Helvetica, Arial, sans-serif"> f</text></g></g></svg>