<svg xmlns="http://www.w3.org/2000/svg" width="685.0447998046875" height="569.3718872070312" viewBox="-308.7033996582031 -379.23748779296875 685.0447998046875 569.3718872070312"><title>Neo4j Graph Visualization</title><desc>Created using Neo4j (http://www.neo4j.com/)</desc><g class="layer relationships"><g class="relationship" transform="translate(79.24870795646207 -246.43440244779921) rotate(447.1417374043085)"><path class="b-outline" fill="#A5ABB6" stroke="none" d="M 25 0.5 L 25.289190378837866 0.5 L 25.289190378837866 -0.5 L 25 -0.5 Z M 65.96497162883787 0.5 L 66.25416200767573 0.5 L 66.25416200767573 3.5 L 73.25416200767573 0 L 66.25416200767573 -3.5 L 66.25416200767573 -0.5 L 65.96497162883787 -0.5 Z"/><text text-anchor="middle" pointer-events="none" font-size="8px" fill="#000000" x="45.627081003837866" y="3" font-family="Helvetica Neue, Helvetica, Arial, sans-serif">HAS_C…</text></g><g class="relationship" transform="translate(126.55539063710546 0.8039486993068963) rotate(477.4543921080734)"><path class="b-outline" fill="#A5ABB6" stroke="none" d="M 25 0.5 L 45.34067108273602 0.5 L 45.34067108273602 -0.5 L 25 -0.5 Z M 110.02035858273602 0.5 L 130.36102966547205 0.5 L 130.36102966547205 3.5 L 137.36102966547205 0 L 130.36102966547205 -3.5 L 130.36102966547205 -0.5 L 110.02035858273602 -0.5 Z"/><text text-anchor="middle" pointer-events="none" font-size="8px" fill="#000000" x="77.68051483273602" y="3" transform="rotate(180 77.68051483273602 0)" font-family="Helvetica Neue, Helvetica, Arial, sans-serif">IS_COMPOSED</text></g><g class="relationship" transform="translate(126.55539063710546 0.8039486993068963) rotate(441.69148434453024)"><path class="b-outline" fill="#A5ABB6" stroke="none" d="M 25 0.5 L 45.175688254384184 0.5 L 45.175688254384184 -0.5 L 25 -0.5 Z M 109.85537575438418 0.5 L 130.03106400876837 0.5 L 130.03106400876837 3.5 L 137.03106400876837 0 L 130.03106400876837 -3.5 L 130.03106400876837 -0.5 L 109.85537575438418 -0.5 Z"/><text text-anchor="middle" pointer-events="none" font-size="8px" fill="#000000" x="77.51553200438418" y="3" font-family="Helvetica Neue, Helvetica, Arial, sans-serif">IS_COMPOSED</text></g><g class="relationship" transform="translate(203.75174266130483 -64.32466562087052) rotate(422.7026918004138)"><path class="b-outline" fill="#A5ABB6" stroke="none" d="M 25 0.5 L 43.34604337204995 0.5 L 43.34604337204995 -0.5 L 25 -0.5 Z M 108.02573087204995 0.5 L 126.3717742440999 0.5 L 126.3717742440999 3.5 L 133.3717742440999 0 L 126.3717742440999 -3.5 L 126.3717742440999 -0.5 L 108.02573087204995 -0.5 Z"/><text text-anchor="middle" pointer-events="none" font-size="8px" fill="#000000" x="75.68588712204995" y="3" font-family="Helvetica Neue, Helvetica, Arial, sans-serif">IS_COMPOSED</text></g><g class="relationship" transform="translate(203.75174266130483 -64.32466562087052) rotate(380.61066157750133)"><path class="b-outline" fill="#A5ABB6" stroke="none" d="M 25 0.5 L 40.86449032892449 0.5 L 40.86449032892449 -0.5 L 25 -0.5 Z M 105.54417782892449 0.5 L 121.40866815784898 0.5 L 121.40866815784898 3.5 L 128.40866815784898 0 L 121.40866815784898 -3.5 L 121.40866815784898 -0.5 L 105.54417782892449 -0.5 Z"/><text text-anchor="middle" pointer-events="none" font-size="8px" fill="#000000" x="73.20433407892449" y="3" font-family="Helvetica Neue, Helvetica, Arial, sans-serif">IS_COMPOSED</text></g><g class="relationship" transform="translate(79.24870795646207 -246.43440244779921) rotate(439.16792827970636)"><path class="b-outline" fill="#A5ABB6" stroke="none" d="M 25 0.5 L 76.91448839919397 0.5 L 76.91448839919397 -0.5 L 25 -0.5 Z M 167.80901964919397 0.5 L 219.72350804838794 0.5 L 219.72350804838794 3.5 L 226.72350804838794 0 L 219.72350804838794 -3.5 L 219.72350804838794 -0.5 L 167.80901964919397 -0.5 Z"/><text text-anchor="middle" pointer-events="none" font-size="8px" fill="#000000" x="122.36175402419397" y="3" font-family="Helvetica Neue, Helvetica, Arial, sans-serif">HAS_UNITDEFINITION</text></g><g class="relationship" transform="translate(79.24870795646207 -246.43440244779921) rotate(415.64073995915726)"><path class="b-outline" fill="#A5ABB6" stroke="none" d="M 25 0.5 L 61.353416487451724 0.5 L 61.353416487451724 -0.5 L 25 -0.5 Z M 152.24794773745174 0.5 L 188.60136422490345 0.5 L 188.60136422490345 3.5 L 195.60136422490345 0 L 188.60136422490345 -3.5 L 188.60136422490345 -0.5 L 152.24794773745174 -0.5 Z"/><text text-anchor="middle" pointer-events="none" font-size="8px" fill="#000000" x="106.80068211245172" y="3" font-family="Helvetica Neue, Helvetica, Arial, sans-serif">HAS_UNITDEFINITION</text></g><g class="relationship" transform="translate(79.24870795646207 -246.43440244779921) rotate(390.3749700214015)"><path class="b-outline" fill="#A5ABB6" stroke="none" d="M 25 0.5 L 48.997583916962625 0.5 L 48.997583916962625 -0.5 L 25 -0.5 Z M 110.57570891696263 0.5 L 134.57329283392525 0.5 L 134.57329283392525 3.5 L 141.57329283392525 0 L 134.57329283392525 -3.5 L 134.57329283392525 -0.5 L 110.57570891696263 -0.5 Z"/><text text-anchor="middle" pointer-events="none" font-size="8px" fill="#000000" x="79.78664641696263" y="3" font-family="Helvetica Neue, Helvetica, Arial, sans-serif">HAS_SPECIES</text></g><g class="relationship" transform="translate(79.24870795646207 -246.43440244779921) rotate(353.7348091290364)"><path class="b-outline" fill="#A5ABB6" stroke="none" d="M 25 0.5 L 34.067026398773876 0.5 L 34.067026398773876 -0.5 L 25 -0.5 Z M 95.64515139877388 0.5 L 104.71217779754775 0.5 L 104.71217779754775 3.5 L 111.71217779754775 0 L 104.71217779754775 -3.5 L 104.71217779754775 -0.5 L 95.64515139877388 -0.5 Z"/><text text-anchor="middle" pointer-events="none" font-size="8px" fill="#000000" x="64.85608889877388" y="3" font-family="Helvetica Neue, Helvetica, Arial, sans-serif">HAS_SPECIES</text></g><g class="relationship" transform="translate(79.24870795646207 -246.43440244779921) rotate(263.9210332276818)"><path class="b-outline" fill="#A5ABB6" stroke="none" d="M 25 0.5 L 25.90988475867246 0.5 L 25.90988475867246 -0.5 L 25 -0.5 Z M 71.48019725867246 0.5 L 72.39008201734492 0.5 L 72.39008201734492 3.5 L 79.39008201734492 0 L 72.39008201734492 -3.5 L 72.39008201734492 -0.5 L 71.48019725867246 -0.5 Z"/><text text-anchor="middle" pointer-events="none" font-size="8px" fill="#000000" x="48.69504100867246" y="3" transform="rotate(180 48.69504100867246 0)" font-family="Helvetica Neue, Helvetica, Arial, sans-serif">HAS_SP…</text></g><g class="relationship" transform="translate(79.24870795646207 -246.43440244779921) rotate(207.43477982418358)"><path class="b-outline" fill="#A5ABB6" stroke="none" d="M 25 0.5 L 26.905127060758872 0.5 L 26.905127060758872 -0.5 L 25 -0.5 Z M 88.48325206075887 0.5 L 90.38837912151774 0.5 L 90.38837912151774 3.5 L 97.38837912151774 0 L 90.38837912151774 -3.5 L 90.38837912151774 -0.5 L 88.48325206075887 -0.5 Z"/><text text-anchor="middle" pointer-events="none" font-size="8px" fill="#000000" x="57.69418956075887" y="3" transform="rotate(180 57.69418956075887 0)" font-family="Helvetica Neue, Helvetica, Arial, sans-serif">HAS_SPECIES</text></g><g class="relationship" transform="translate(79.24870795646207 -246.43440244779921) rotate(528.2901052276277)"><path class="b-outline" fill="#A5ABB6" stroke="none" d="M 25 0.5 L 44.33633232140819 0.5 L 44.33633232140819 -0.5 L 25 -0.5 Z M 105.9144573214082 0.5 L 125.25078964281639 0.5 L 125.25078964281639 3.5 L 132.2507896428164 0 L 125.25078964281639 -3.5 L 125.25078964281639 -0.5 L 105.9144573214082 -0.5 Z"/><text text-anchor="middle" pointer-events="none" font-size="8px" fill="#000000" x="75.1253948214082" y="3" transform="rotate(180 75.1253948214082 0)" font-family="Helvetica Neue, Helvetica, Arial, sans-serif">HAS_SPECIES</text></g><g class="relationship" transform="translate(222.95725954056454 -162.20546391040588) rotate(534.2803820138199)"><path class="b-outline" fill="#A5ABB6" stroke="none" d="M 25 0.5 L 26.06038675005439 0.5 L 26.06038675005439 -0.5 L 25 -0.5 Z M 106.44319925005439 0.5 L 107.50358600010878 0.5 L 107.50358600010878 3.5 L 114.50358600010878 0 L 107.50358600010878 -3.5 L 107.50358600010878 -0.5 L 106.44319925005439 -0.5 Z"/><text text-anchor="middle" pointer-events="none" font-size="8px" fill="#000000" x="66.25179300005439" y="3" transform="rotate(180 66.25179300005439 0)" font-family="Helvetica Neue, Helvetica, Arial, sans-serif">IN_COMPARTMENT</text></g><g class="relationship" transform="translate(215.14436397807202 -261.3538606351654) rotate(499.20538320515016)"><path class="b-outline" fill="#A5ABB6" stroke="none" d="M 25 0.5 L 42.82537429631813 0.5 L 42.82537429631813 -0.5 L 25 -0.5 Z M 123.20818679631813 0.5 L 141.03356109263626 0.5 L 141.03356109263626 3.5 L 148.03356109263626 0 L 141.03356109263626 -3.5 L 141.03356109263626 -0.5 L 123.20818679631813 -0.5 Z"/><text text-anchor="middle" pointer-events="none" font-size="8px" fill="#000000" x="83.01678054631813" y="3" transform="rotate(180 83.01678054631813 0)" font-family="Helvetica Neue, Helvetica, Arial, sans-serif">IN_COMPARTMENT</text></g><g class="relationship" transform="translate(68.19389810486781 -350.23748719354796) rotate(445.48261219690363)"><path class="b-outline" fill="#A5ABB6" stroke="none" d="M 25 0.5 L 57.59073568136027 0.5 L 57.59073568136027 -0.5 L 25 -0.5 Z M 137.9735481813603 0.5 L 170.56428386272054 0.5 L 170.56428386272054 3.5 L 177.56428386272054 0 L 170.56428386272054 -3.5 L 170.56428386272054 -0.5 L 137.9735481813603 -0.5 Z"/><text text-anchor="middle" pointer-events="none" font-size="8px" fill="#000000" x="97.78214193136027" y="3" font-family="Helvetica Neue, Helvetica, Arial, sans-serif">IN_COMPARTMENT</text></g><g class="relationship" transform="translate(-29.375368583263207 -302.8234558170859) rotate(413.69599879504926)"><path class="b-outline" fill="#A5ABB6" stroke="none" d="M 25 0.5 L 52.178730606140235 0.5 L 52.178730606140235 -0.5 L 25 -0.5 Z M 132.56154310614022 0.5 L 159.74027371228047 0.5 L 159.74027371228047 3.5 L 166.74027371228047 0 L 159.74027371228047 -3.5 L 159.74027371228047 -0.5 L 132.56154310614022 -0.5 Z"/><text text-anchor="middle" pointer-events="none" font-size="8px" fill="#000000" x="92.37013685614023" y="3" font-family="Helvetica Neue, Helvetica, Arial, sans-serif">IN_COMPARTMENT</text></g><g class="relationship" transform="translate(-74.72934293262874 -214.51934819928113) rotate(382.62536557933333)"><path class="b-outline" fill="#A5ABB6" stroke="none" d="M 25 0.5 L 42.37070125619947 0.5 L 42.37070125619947 -0.5 L 25 -0.5 Z M 122.75351375619947 0.5 L 140.12421501239893 0.5 L 140.12421501239893 3.5 L 147.12421501239893 0 L 140.12421501239893 -3.5 L 140.12421501239893 -0.5 L 122.75351375619947 -0.5 Z"/><text text-anchor="middle" pointer-events="none" font-size="8px" fill="#000000" x="82.56210750619947" y="3" font-family="Helvetica Neue, Helvetica, Arial, sans-serif">IN_COMPARTMENT</text></g><g class="relationship" transform="translate(79.24870795646207 -246.43440244779921) rotate(490.7926321467214)"><path class="b-outline" fill="#A5ABB6" stroke="none" d="M 25 0.5 L 27.798574271489414 0.5 L 27.798574271489414 -0.5 L 25 -0.5 Z M 115.59154302148941 0.5 L 118.39011729297883 0.5 L 118.39011729297883 3.5 L 125.39011729297883 0 L 118.39011729297883 -3.5 L 118.39011729297883 -0.5 L 115.59154302148941 -0.5 Z"/><text text-anchor="middle" pointer-events="none" font-size="8px" fill="#000000" x="71.69505864648941" y="3" transform="rotate(180 71.69505864648941 0)" font-family="Helvetica Neue, Helvetica, Arial, sans-serif">HAS_ASSIGNMENT…</text></g><g class="relationship" transform="translate(79.24870795646207 -246.43440244779921) rotate(507.17295846956506)"><path class="b-outline" fill="#A5ABB6" stroke="none" d="M 25 0.5 L 92.87421378749531 0.5 L 92.87421378749531 -0.5 L 25 -0.5 Z M 146.4445262874953 0.5 L 214.31874007499061 0.5 L 214.31874007499061 3.5 L 221.31874007499061 0 L 214.31874007499061 -3.5 L 214.31874007499061 -0.5 L 146.4445262874953 -0.5 Z"/><text text-anchor="middle" pointer-events="none" font-size="8px" fill="#000000" x="119.65937003749531" y="3" transform="rotate(180 119.65937003749531 0)" font-family="Helvetica Neue, Helvetica, Arial, sans-serif">HAS_EVENT</text></g><g class="relationship" transform="translate(-127.73560022516295 -112.90381464595932) rotate(183.9181088433699)"><path class="b-outline" fill="#A5ABB6" stroke="none" d="M 25 0.5 L 40.9900336512745 0.5 L 40.9900336512745 -0.5 L 25 -0.5 Z M 104.3337836512745 0.5 L 120.323817302549 0.5 L 120.323817302549 3.5 L 127.323817302549 0 L 120.323817302549 -3.5 L 120.323817302549 -0.5 L 104.3337836512745 -0.5 Z"/><text text-anchor="middle" pointer-events="none" font-size="8px" fill="#000000" x="72.6619086512745" y="3" transform="rotate(180 72.6619086512745 0)" font-family="Helvetica Neue, Helvetica, Arial, sans-serif">HAS_TRIGGER</text></g><g class="relationship" transform="translate(-127.73560022516295 -112.90381464595932) rotate(506.280447156581)"><path class="b-outline" fill="#A5ABB6" stroke="none" d="M 25 0.5 L 25.744967333111248 0.5 L 25.744967333111248 -0.5 L 25 -0.5 Z M 123.61996733311125 0.5 L 124.3649346662225 0.5 L 124.3649346662225 3.5 L 131.3649346662225 0 L 124.3649346662225 -3.5 L 124.3649346662225 -0.5 L 123.61996733311125 -0.5 Z"/><text text-anchor="middle" pointer-events="none" font-size="8px" fill="#000000" x="74.68246733311125" y="3" transform="rotate(180 74.68246733311125 0)" font-family="Helvetica Neue, Helvetica, Arial, sans-serif">HAS_EVENTASSIGNM…</text></g><g class="relationship" transform="translate(-127.73560022516295 -112.90381464595932) rotate(469.301691665565)"><path class="b-outline" fill="#A5ABB6" stroke="none" d="M 25 0.5 L 49.14366313545487 0.5 L 49.14366313545487 -0.5 L 25 -0.5 Z M 101.68663188545487 0.5 L 125.83029502090974 0.5 L 125.83029502090974 3.5 L 132.83029502090974 0 L 125.83029502090974 -3.5 L 125.83029502090974 -0.5 L 101.68663188545487 -0.5 Z"/><text text-anchor="middle" pointer-events="none" font-size="8px" fill="#000000" x="75.41514751045487" y="3" transform="rotate(180 75.41514751045487 0)" font-family="Helvetica Neue, Helvetica, Arial, sans-serif">HAS_DELAY</text></g><g class="relationship" transform="translate(79.24870795646207 -246.43440244779921) rotate(459.9534482155177)"><path class="b-outline" fill="#A5ABB6" stroke="none" d="M 25 0.5 L 54.5867048327289 0.5 L 54.5867048327289 -0.5 L 25 -0.5 Z M 130.6804548327289 0.5 L 160.2671596654578 0.5 L 160.2671596654578 3.5 L 167.2671596654578 0 L 160.2671596654578 -3.5 L 160.2671596654578 -0.5 L 130.6804548327289 -0.5 Z"/><text text-anchor="middle" pointer-events="none" font-size="8px" fill="#000000" x="92.6335798327289" y="3" transform="rotate(180 92.6335798327289 0)" font-family="Helvetica Neue, Helvetica, Arial, sans-serif">HAS_PARAMETER</text></g><g class="relationship" transform="translate(46.01571741225315 -57.06114925371387) rotate(357.3634745296524)"><path class="b-outline" fill="#A5ABB6" stroke="none" d="M 25 0.5 L 50.002368205845016 0.5 L 50.002368205845016 -0.5 L 25 -0.5 Z M 100.90080570584502 0.5 L 125.90317391169003 0.5 L 125.90317391169003 3.5 L 132.90317391169003 0 L 125.90317391169003 -3.5 L 125.90317391169003 -0.5 L 100.90080570584502 -0.5 Z"/><text text-anchor="middle" pointer-events="none" font-size="8px" fill="#000000" x="75.45158695584502" y="3" font-family="Helvetica Neue, Helvetica, Arial, sans-serif">HAS_UNITS</text></g></g><g class="layer nodes"><g class="node" aria-label="graph-node0" transform="translate(126.55539063710546,0.8039486993068963)"><circle class="b-outline" cx="0" cy="0" r="25" fill="#D9C8AE" stroke="#c0a378" stroke-width="2px"/><text class="caption" text-anchor="middle" pointer-events="none" x="0" y="5" font-size="10px" fill="#2A2C34" font-family="Helvetica Neue, Helvetica, Arial, sans-serif"> mol_per_l</text></g><g class="node" aria-label="graph-node1" transform="translate(203.75174266130483,-64.32466562087052)"><circle class="b-outline" cx="0" cy="0" r="25" fill="#D9C8AE" stroke="#c0a378" stroke-width="2px"/><text class="caption" text-anchor="middle" pointer-events="none" x="0" y="5" font-size="10px" fill="#2A2C34" font-family="Helvetica Neue, Helvetica, Arial, sans-serif"> l_per_s</text></g><g class="node" aria-label="graph-node2" transform="translate(84.14819148701176,-148.30247383654415)"><circle class="b-outline" cx="0" cy="0" r="25" fill="#F79767" stroke="#f36924" stroke-width="2px"/><text class="caption" text-anchor="middle" pointer-events="none" x="0" y="5" font-size="10px" fill="#FFFFFF" font-family="Helvetica Neue, Helvetica, Arial, sans-serif"> compart…</text></g><g class="node" aria-label="graph-node3" transform="translate(79.24870795646207,-246.43440244779921)"><circle class="b-outline" cx="0" cy="0" r="25" fill="#57C7E3" stroke="#23b3d7" stroke-width="2px"/><text class="caption" text-anchor="middle" pointer-events="none" x="0" y="5" font-size="10px" fill="#2A2C34" font-family="Helvetica Neue, Helvetica, Arial, sans-serif"> Persiste…</text></g><g class="node" aria-label="graph-node4" transform="translate(51.70007194960811,144.87957196093123)"><circle class="b-outline" cx="0" cy="0" r="25" fill="#F16667" stroke="#eb2728" stroke-width="2px"/><text class="caption" text-anchor="middle" pointer-events="none" x="0" y="5" font-size="10px" fill="#FFFFFF" font-family="Helvetica Neue, Helvetica, Arial, sans-serif"> de25aa5…</text></g><g class="node" aria-label="graph-node5" transform="translate(149.96940904801755,161.1343869999211)"><circle class="b-outline" cx="0" cy="0" r="25" fill="#F16667" stroke="#eb2728" stroke-width="2px"/><text class="caption" text-anchor="middle" pointer-events="none" x="0" y="5" font-size="10px" fill="#FFFFFF" font-family="Helvetica Neue, Helvetica, Arial, sans-serif"> 2a6a3ffc…</text></g><g class="node" aria-label="graph-node6" transform="translate(276.3822745872304,76.41063453293326)"><circle class="b-outline" cx="0" cy="0" r="25" fill="#F16667" stroke="#eb2728" stroke-width="2px"/><text class="caption" text-anchor="middle" pointer-events="none" x="0" y="5" font-size="10px" fill="#FFFFFF" font-family="Helvetica Neue, Helvetica, Arial, sans-serif"> 372a959…</text></g><g class="node" aria-label="graph-node7" transform="translate(347.34134311738393,-10.322386902018321)"><circle class="b-outline" cx="0" cy="0" r="25" fill="#F16667" stroke="#eb2728" stroke-width="2px"/><text class="caption" text-anchor="middle" pointer-events="none" x="0" y="5" font-size="10px" fill="#FFFFFF" font-family="Helvetica Neue, Helvetica, Arial, sans-serif"> f5f0cb65…</text></g><g class="node" aria-label="graph-node8" transform="translate(222.95725954056454,-162.20546391040588)"><circle class="b-outline" cx="0" cy="0" r="25" fill="#ECB5C9" stroke="#da7298" stroke-width="2px"/><text class="caption" text-anchor="middle" pointer-events="none" x="0" y="5" font-size="10px" fill="#2A2C34" font-family="Helvetica Neue, Helvetica, Arial, sans-serif"> d</text></g><g class="node" aria-label="graph-node9" transform="translate(215.14436397807202,-261.3538606351654)"><circle class="b-outline" cx="0" cy="0" r="25" fill="#ECB5C9" stroke="#da7298" stroke-width="2px"/><text class="caption" text-anchor="middle" pointer-events="none" x="0" y="5" font-size="10px" fill="#2A2C34" font-family="Helvetica Neue, Helvetica, Arial, sans-serif"> a</text></g><g class="node" aria-label="graph-node10" transform="translate(68.19389810486781,-350.23748719354796)"><circle class="b-outline" cx="0" cy="0" r="25" fill="#ECB5C9" stroke="#da7298" stroke-width="2px"/><text class="caption" text-anchor="middle" pointer-events="none" x="0" y="5" font-size="10px" fill="#2A2C34" font-family="Helvetica Neue, Helvetica, Arial, sans-serif"> b</text></g><g class="node" aria-label="graph-node11" transform="translate(-29.375368583263207,-302.8234558170859)"><circle class="b-outline" cx="0" cy="0" r="25" fill="#ECB5C9" stroke="#da7298" stroke-width="2px"/><text class="caption" text-anchor="middle" pointer-events="none" x="0" y="5" font-size="10px" fill="#2A2C34" font-family="Helvetica Neue, Helvetica, Arial, sans-serif"> c</text></g><g class="node" aria-label="graph-node12" transform="translate(-74.72934293262874,-214.51934819928113)"><circle class="b-outline" cx="0" cy="0" r="25" fill="#ECB5C9" stroke="#da7298" stroke-width="2px"/><text class="caption" text-anchor="middle" pointer-events="none" x="0" y="5" font-size="10px" fill="#2A2C34" font-family="Helvetica Neue, Helvetica, Arial, sans-serif"> e</text></g><g class="node" aria-label="graph-node13" transform="translate(-19.004652857363517,-132.57719157301918)"><circle class="b-outline" cx="0" cy="0" r="25" fill="#A5ABB6" stroke="#9AA1AC" stroke-width="2px"/><text class="caption" text-anchor="middle" pointer-events="none" x="0" y="5" font-size="10px" fill="#FFFFFF" font-family="Helvetica Neue, Helvetica, Arial, sans-serif"> e</text></g><g class="node" aria-label="graph-node14" transform="translate(-127.73560022516295,-112.90381464595932)"><circle class="b-outline" cx="0" cy="0" r="25" fill="#A5ABB6" stroke="#9AA1AC" stroke-width="2px"/><text class="caption" text-anchor="middle" pointer-events="none" x="0" y="5" font-size="10px" fill="#FFFFFF" font-family="Helvetica Neue, Helvetica, Arial, sans-serif"> a8f85e6…</text></g><g class="node" aria-label="graph-node15" transform="translate(-279.70339596891836,-123.31219465461402)"><circle class="b-outline" cx="0" cy="0" r="25" fill="#A5ABB6" stroke="#9AA1AC" stroke-width="2px"/><text class="caption" text-anchor="middle" pointer-events="none" x="0" y="5" font-size="10px" fill="#FFFFFF" font-family="Helvetica Neue, Helvetica, Arial, sans-serif"> 536da55…</text></g><g class="node" aria-label="graph-node16" transform="translate(-257.7944373655328,-26.101212871203888)"><circle class="b-outline" cx="0" cy="0" r="25" fill="#A5ABB6" stroke="#9AA1AC" stroke-width="2px"/><text class="caption" text-anchor="middle" pointer-events="none" x="0" y="5" font-size="10px" fill="#FFFFFF" font-family="Helvetica Neue, Helvetica, Arial, sans-serif"> c</text></g><g class="node" aria-label="graph-node17" transform="translate(-179.90518238826064,36.055027734462016)"><circle class="b-outline" cx="0" cy="0" r="25" fill="#A5ABB6" stroke="#9AA1AC" stroke-width="2px"/><text class="caption" text-anchor="middle" pointer-events="none" x="0" y="5" font-size="10px" fill="#FFFFFF" font-family="Helvetica Neue, Helvetica, Arial, sans-serif"> 3e96a72…</text></g><g class="node" aria-label="graph-node18" transform="translate(46.01571741225315,-57.06114925371387)"><circle class="b-outline" cx="0" cy="0" r="25" fill="#A5ABB6" stroke="#9AA1AC" stroke-width="2px"/><text class="caption" text-anchor="middle" pointer-events="none" x="0" y="5" font-size="10px" fill="#FFFFFF" font-family="Helvetica Neue, Helvetica, Arial, sans-serif"> k1</text></g></g></svg>