<svg xmlns="http://www.w3.org/2000/svg" width="464.70306396484375" height="435.71368408203125" viewBox="-265.9329833984375 -240.70965576171875 464.70306396484375 435.71368408203125"><title>Neo4j Graph Visualization</title><desc>Created using Neo4j (http://www.neo4j.com/)</desc><g class="layer relationships"><g class="relationship" transform="translate(-53.14002650837014 -78.71780801643555) rotate(244.31362743376843)"><path class="b-outline" fill="#A5ABB6" stroke="none" d="M 24.018736134675446,-6.953439040707552 L 24.277555179777966,-5.987513214418485 A 186.06899787300915 186.06899787300915 0 0 1 40.2301194310986,-9.51932124877203 L 40.05703505664878,-10.50422824911334 A 187.06899787300915 187.06899787300915 0 0 0 24.018736134675446,-6.953439040707552 Z M 100.4804923703281,-11.213529356309408 L 100.33057583067296,-10.224830700935684 A 186.06899787300915 186.06899787300915 0 0 1 116.36165136372598,-7.068473395815412 L 115.65343189137866,-4.153267540478936 L 123.28183493823565,-5.901828936227727 L 117.30594399352242,-10.955414536264046 L 116.5977245211751,-8.04020868092757 A 187.06899787300915 187.06899787300915 0 0 0 100.4804923703281,-11.213529356309408"/><text text-anchor="middle" pointer-events="none" font-size="8px" fill="#000000" x="70.24580338835418" y="-9.81480726748211" transform="rotate(180 70.24580338835418 -12.81480726748211)" font-family="Helvetica Neue, Helvetica, Arial, sans-serif">IS_REACTANT</text></g><g class="relationship" transform="translate(26.459932484816818 -161.23333476915948) rotate(199.37119146256907)"><path class="b-outline" fill="#A5ABB6" stroke="none" d="M 25 0.5 L 38.47315237712138 0.5 L 38.47315237712138 -0.5 L 25 -0.5 Z M 106.70752737712138 0.5 L 120.18067975424276 0.5 L 120.18067975424276 3.5 L 127.18067975424276 0 L 120.18067975424276 -3.5 L 120.18067975424276 -0.5 L 106.70752737712138 -0.5 Z"/><text text-anchor="middle" pointer-events="none" font-size="8px" fill="#000000" x="72.59033987712138" y="3" transform="rotate(180 72.59033987712138 0)" font-family="Helvetica Neue, Helvetica, Arial, sans-serif">HAS_REACTION</text></g><g class="relationship" transform="translate(26.459932484816818 -161.23333476915948) rotate(435.9044956342201)"><path class="b-outline" fill="#A5ABB6" stroke="none" d="M 25 0.5 L 25.79386375335379 0.5 L 25.79386375335379 -0.5 L 25 -0.5 Z M 120.24308250335379 0.5 L 121.03694625670758 0.5 L 121.03694625670758 3.5 L 128.03694625670758 0 L 121.03694625670758 -3.5 L 121.03694625670758 -0.5 L 120.24308250335379 -0.5 Z"/><text text-anchor="middle" pointer-events="none" font-size="8px" fill="#000000" x="73.01847312835379" y="3" font-family="Helvetica Neue, Helvetica, Arial, sans-serif">HAS_FUNCTIONDEFI…</text></g><g class="relationship" transform="translate(26.459932484816818 -161.23333476915948) rotate(396.0968689742523)"><path class="b-outline" fill="#A5ABB6" stroke="none" d="M 25 0.5 L 26.07683623946373 0.5 L 26.07683623946373 -0.5 L 25 -0.5 Z M 100.24480498946373 0.5 L 101.32164122892746 0.5 L 101.32164122892746 3.5 L 108.32164122892746 0 L 101.32164122892746 -3.5 L 101.32164122892746 -0.5 L 100.24480498946373 -0.5 Z"/><text text-anchor="middle" pointer-events="none" font-size="8px" fill="#000000" x="63.16082061446373" y="3" font-family="Helvetica Neue, Helvetica, Arial, sans-serif">HAS_COMPART…</text></g><g class="relationship" transform="translate(26.459932484816818 -161.23333476915948) rotate(347.8934972626279)"><path class="b-outline" fill="#A5ABB6" stroke="none" d="M 25 0.5 L 31.738072672939964 0.5 L 31.738072672939964 -0.5 L 25 -0.5 Z M 107.83182267293996 0.5 L 114.56989534587993 0.5 L 114.56989534587993 3.5 L 121.56989534587993 0 L 114.56989534587993 -3.5 L 114.56989534587993 -0.5 L 107.83182267293996 -0.5 Z"/><text text-anchor="middle" pointer-events="none" font-size="8px" fill="#000000" x="69.78494767293996" y="3" font-family="Helvetica Neue, Helvetica, Arial, sans-serif">HAS_PARAMETER</text></g><g class="relationship" transform="translate(26.459932484816818 -161.23333476915948) rotate(467.6994440784315)"><path class="b-outline" fill="#A5ABB6" stroke="none" d="M 25 0.5 L 45.1617368065197 0.5 L 45.1617368065197 -0.5 L 25 -0.5 Z M 136.05626805651968 0.5 L 156.2180048630394 0.5 L 156.2180048630394 3.5 L 163.2180048630394 0 L 156.2180048630394 -3.5 L 156.2180048630394 -0.5 L 136.05626805651968 -0.5 Z"/><text text-anchor="middle" pointer-events="none" font-size="8px" fill="#000000" x="90.6090024315197" y="3" transform="rotate(180 90.6090024315197 0)" font-family="Helvetica Neue, Helvetica, Arial, sans-serif">HAS_UNITDEFINITION</text></g><g class="relationship" transform="translate(-117.1057305987356 -211.70966262532698) rotate(424.31362743376843)"><path class="b-outline" fill="#A5ABB6" stroke="none" d="M 24.018736134675446,-6.953439040707552 L 24.277555179777966,-5.987513214418485 A 186.06899787300915 186.06899787300915 0 0 1 37.32586467869919,-8.985145544340355 L 37.137171821452135,-9.967181697251192 A 187.06899787300915 187.06899787300915 0 0 0 24.018736134675446,-6.953439040707552 Z M 103.41215786686955,-10.74517294554039 L 103.24656975399878,-9.758977946122997 A 186.06899787300915 186.06899787300915 0 0 1 116.36165136372598,-7.068473395815412 L 115.65343189137866,-4.153267540478936 L 123.28183493823565,-5.901828936227727 L 117.30594399352242,-10.955414536264046 L 116.5977245211751,-8.04020868092757 A 187.06899787300915 187.06899787300915 0 0 0 103.41215786686955,-10.74517294554039"/><text text-anchor="middle" pointer-events="none" font-size="8px" fill="#000000" x="70.24580338835418" y="-9.81480726748211" font-family="Helvetica Neue, Helvetica, Arial, sans-serif">HAS_PRODUCT</text></g><g class="relationship" transform="translate(26.459932484816818 -161.23333476915948) rotate(493.9696744891661)"><path class="b-outline" fill="#A5ABB6" stroke="none" d="M 25 0.5 L 25.483951325517502 0.5 L 25.483951325517502 -0.5 L 25 -0.5 Z M 82.1675450755175 0.5 L 82.651496401035 0.5 L 82.651496401035 3.5 L 89.651496401035 0 L 82.651496401035 -3.5 L 82.651496401035 -0.5 L 82.1675450755175 -0.5 Z"/><text text-anchor="middle" pointer-events="none" font-size="8px" fill="#000000" x="53.8257482005175" y="3" transform="rotate(180 53.8257482005175 0)" font-family="Helvetica Neue, Helvetica, Arial, sans-serif">HAS_SPEC…</text></g><g class="relationship" transform="translate(-53.14002650837014 -78.71780801643555) rotate(358.7862878556135)"><path class="b-outline" fill="#A5ABB6" stroke="none" d="M 25 0.5 L 49.993006963169876 0.5 L 49.993006963169876 -0.5 L 25 -0.5 Z M 130.37581946316988 0.5 L 155.36882642633975 0.5 L 155.36882642633975 3.5 L 162.36882642633975 0 L 155.36882642633975 -3.5 L 155.36882642633975 -0.5 L 130.37581946316988 -0.5 Z"/><text text-anchor="middle" pointer-events="none" font-size="8px" fill="#000000" x="90.18441321316988" y="3" font-family="Helvetica Neue, Helvetica, Arial, sans-serif">IN_COMPARTMENT</text></g><g class="relationship" transform="translate(-117.1057305987356 -211.70966262532698) rotate(505.46176572501565)"><path class="b-outline" fill="#A5ABB6" stroke="none" d="M 25 0.5 L 29.926302238340156 0.5 L 29.926302238340156 -0.5 L 25 -0.5 Z M 108.53958348834016 0.5 L 113.46588572668031 0.5 L 113.46588572668031 3.5 L 120.46588572668031 0 L 113.46588572668031 -3.5 L 113.46588572668031 -0.5 L 108.53958348834016 -0.5 Z"/><text text-anchor="middle" pointer-events="none" font-size="8px" fill="#000000" x="69.23294286334016" y="3" transform="rotate(180 69.23294286334016 0)" font-family="Helvetica Neue, Helvetica, Arial, sans-serif">HAS_KENETICLAW</text></g><g class="relationship" transform="translate(-30.76282388699451 18.075263763748165) rotate(450.82365842807206)"><path class="b-outline" fill="#A5ABB6" stroke="none" d="M 25 0.5 L 38.132175176725156 0.5 L 38.132175176725156 -0.5 L 25 -0.5 Z M 102.81186267672516 0.5 L 115.94403785345031 0.5 L 115.94403785345031 3.5 L 122.94403785345031 0 L 115.94403785345031 -3.5 L 115.94403785345031 -0.5 L 102.81186267672516 -0.5 Z"/><text text-anchor="middle" pointer-events="none" font-size="8px" fill="#000000" x="70.47201892672516" y="3" transform="rotate(180 70.47201892672516 0)" font-family="Helvetica Neue, Helvetica, Arial, sans-serif">IS_COMPOSED</text></g></g><g class="layer nodes"><g class="node" aria-label="graph-node-4" transform="translate(-32.88952776827198,166.0040150833767)"><circle class="b-outline" cx="0" cy="0" r="25" fill="#F16667" stroke="#eb2728" stroke-width="2px"/><text class="caption" text-anchor="middle" pointer-events="none" x="0" y="5" font-size="10px" fill="#FFFFFF" font-family="Helvetica Neue, Helvetica, Arial, sans-serif"> unit</text></g><g class="node" aria-label="graph-node-9" transform="translate(63.730383775227814,-12.804158458747017)"><circle class="b-outline" cx="0" cy="0" r="25" fill="#A5ABB6" stroke="#9AA1AC" stroke-width="2px"/><text class="caption" text-anchor="middle" pointer-events="none" x="0" y="5" font-size="10px" fill="#FFFFFF" font-family="Helvetica Neue, Helvetica, Arial, sans-serif"> function…</text></g><g class="node" aria-label="graph-node-2" transform="translate(134.1867623840285,-82.68659620006827)"><circle class="b-outline" cx="0" cy="0" r="25" fill="#F79767" stroke="#f36924" stroke-width="2px"/><text class="caption" text-anchor="middle" pointer-events="none" x="0" y="5" font-size="10px" fill="#FFFFFF" font-family="Helvetica Neue, Helvetica, Arial, sans-serif"> compart…</text></g><g class="node" aria-label="graph-node-8" transform="translate(169.77003127538205,-191.97337065626644)"><circle class="b-outline" cx="0" cy="0" r="25" fill="#569480" stroke="#447666" stroke-width="2px"/><text class="caption" text-anchor="middle" pointer-events="none" x="0" y="5" font-size="10px" fill="#FFFFFF" font-family="Helvetica Neue, Helvetica, Arial, sans-serif"> Parameter</text></g><g class="node" aria-label="graph-node-3" transform="translate(26.459932484816818,-161.23333476915948)"><circle class="b-outline" cx="0" cy="0" r="25" fill="#57C7E3" stroke="#23b3d7" stroke-width="2px"/><text class="caption" text-anchor="middle" pointer-events="none" x="0" y="5" font-size="10px" fill="#2A2C34" font-family="Helvetica Neue, Helvetica, Arial, sans-serif"> model</text></g><g class="node" aria-label="graph-node-6" transform="translate(-117.1057305987356,-211.70966262532698)"><circle class="b-outline" cx="0" cy="0" r="25" fill="#4C8EDA" stroke="#2870c2" stroke-width="2px"/><text class="caption" text-anchor="middle" pointer-events="none" x="0" y="5" font-size="10px" fill="#FFFFFF" font-family="Helvetica Neue, Helvetica, Arial, sans-serif"> Reaction</text></g><g class="node" aria-label="graph-node-5" transform="translate(-53.14002650837014,-78.71780801643555)"><circle class="b-outline" cx="0" cy="0" r="25" fill="#ECB5C9" stroke="#da7298" stroke-width="2px"/><text class="caption" text-anchor="middle" pointer-events="none" x="0" y="5" font-size="10px" fill="#2A2C34" font-family="Helvetica Neue, Helvetica, Arial, sans-serif"> Species</text></g><g class="node" aria-label="graph-node-7" transform="translate(-236.93296803131398,-129.23689694159293)"><circle class="b-outline" cx="0" cy="0" r="25" fill="#FFC454" stroke="#d7a013" stroke-width="2px"/><text class="caption" text-anchor="middle" pointer-events="none" x="0" y="5" font-size="10px" fill="#2A2C34" font-family="Helvetica Neue, Helvetica, Arial, sans-serif"> KineticL…</text></g><g class="node" aria-label="graph-node-1" transform="translate(-30.76282388699451,18.075263763748165)"><circle class="b-outline" cx="0" cy="0" r="25" fill="#D9C8AE" stroke="#c0a378" stroke-width="2px"/><text class="caption" text-anchor="middle" pointer-events="none" x="0" y="5" font-size="10px" fill="#2A2C34" font-family="Helvetica Neue, Helvetica, Arial, sans-serif"> UnitDefi…</text></g></g></svg>