<svg xmlns="http://www.w3.org/2000/svg" width="468.462890625" height="415.01312255859375" viewBox="-247.0072784423828 -257.1009521484375 468.462890625 415.01312255859375"><title>Neo4j Graph Visualization</title><desc>Created using Neo4j (http://www.neo4j.com/)</desc><g class="layer relationships"><g class="relationship" transform="translate(-9.0348701649404 -92.57324575555486) rotate(231.31273736402102)"><path class="b-outline" fill="#A5ABB6" stroke="none" d="M 21.40063509461097,-12.933012701892217 L 21.90063509461097,-12.06698729810778 A 112.15420091337963 112.15420091337963 0 0 1 45.91469368042474,-22.41197421045929 L 45.62881012359178,-23.370238574782903 A 113.15420091337963 113.15420091337963 0 0 0 21.40063509461097,-12.933012701892217 Z M 105.68636615206259,-24.64778380424876 L 105.44149119048717,-23.678229136788772 A 112.15420091337963 112.15420091337963 0 0 1 129.8737453190942,-14.363792912583582 L 128.4855848397233,-11.704279708346256 L 136.31063620887645,-11.568003994757644 L 131.72462595825544,-17.90981051823335 L 130.33646547888452,-15.250297313996024 A 113.15420091337963 113.15420091337963 0 0 0 105.68636615206259,-24.64778380424876"/><text text-anchor="middle" pointer-events="none" font-size="8px" fill="#000000" x="75.58189570153326" y="-24.56732179082009" transform="rotate(180 75.58189570153326 -27.56732179082009)" font-family="Helvetica Neue, Helvetica, Arial, sans-serif">IS_REACTANT</text></g><g class="relationship" transform="translate(99.46440189467471 -228.1009470692923) rotate(536.7383187560397)"><path class="b-outline" fill="#A5ABB6" stroke="none" d="M 25 0.5 L 66.329200373707 0.5 L 66.329200373707 -0.5 L 25 -0.5 Z M 134.563575373707 0.5 L 175.892775747414 0.5 L 175.892775747414 3.5 L 182.892775747414 0 L 175.892775747414 -3.5 L 175.892775747414 -0.5 L 134.563575373707 -0.5 Z"/><text text-anchor="middle" pointer-events="none" font-size="8px" fill="#000000" x="100.446387873707" y="3" transform="rotate(180 100.446387873707 0)" font-family="Helvetica Neue, Helvetica, Arial, sans-serif">HAS_REACTION</text></g><g class="relationship" transform="translate(99.46440189467471 -228.1009470692923) rotate(437.3038117280265)"><path class="b-outline" fill="#A5ABB6" stroke="none" d="M 25 0.5 L 25.022758291442415 0.5 L 25.022758291442415 -0.5 L 25 -0.5 Z M 117.69463329144241 0.5 L 117.71739158288483 0.5 L 117.71739158288483 3.5 L 124.71739158288483 0 L 117.71739158288483 -3.5 L 117.71739158288483 -0.5 L 117.69463329144241 -0.5 Z"/><text text-anchor="middle" pointer-events="none" font-size="8px" fill="#000000" x="71.35869579144241" y="3" font-family="Helvetica Neue, Helvetica, Arial, sans-serif">HAS_FONCTIONDEF…</text></g><g class="relationship" transform="translate(-108.0916065781834 -216.2726101287324) rotate(411.312737364021)"><path class="b-outline" fill="#A5ABB6" stroke="none" d="M 25 0.5 L 50.51396687209369 0.5 L 50.51396687209369 -0.5 L 25 -0.5 Z M 100.95927937209369 0.5 L 126.47324624418738 0.5 L 126.47324624418738 3.5 L 133.47324624418738 0 L 126.47324624418738 -3.5 L 126.47324624418738 -0.5 L 100.95927937209369 -0.5 Z"/><text text-anchor="middle" pointer-events="none" font-size="8px" fill="#000000" x="75.73662312209369" y="3" font-family="Helvetica Neue, Helvetica, Arial, sans-serif">MODIFIERS</text></g><g class="relationship" transform="translate(99.46440189467471 -228.1009470692923) rotate(396.10982587069896)"><path class="b-outline" fill="#A5ABB6" stroke="none" d="M 25 0.5 L 27.27071516026622 0.5 L 27.27071516026622 -0.5 L 25 -0.5 Z M 80.83321516026622 0.5 L 83.10393032053244 0.5 L 83.10393032053244 3.5 L 90.10393032053244 0 L 83.10393032053244 -3.5 L 83.10393032053244 -0.5 L 80.83321516026622 -0.5 Z"/><text text-anchor="middle" pointer-events="none" font-size="8px" fill="#000000" x="54.05196516026622" y="3" font-family="Helvetica Neue, Helvetica, Arial, sans-serif">HAS_COM…</text></g><g class="relationship" transform="translate(-108.0916065781834 -216.2726101287324) rotate(372.7764509405032)"><path class="b-outline" fill="#A5ABB6" stroke="none" d="M 25 0.5 L 25.825438455837656 0.5 L 25.825438455837656 -0.5 L 25 -0.5 Z M 86.95825095583766 0.5 L 87.78368941167531 0.5 L 87.78368941167531 3.5 L 94.78368941167531 0 L 87.78368941167531 -3.5 L 87.78368941167531 -0.5 L 86.95825095583766 -0.5 Z"/><text text-anchor="middle" pointer-events="none" font-size="8px" fill="#000000" x="56.391844705837656" y="3" font-family="Helvetica Neue, Helvetica, Arial, sans-serif">HAS_LOCAL…</text></g><g class="relationship" transform="translate(99.46440189467471 -228.1009470692923) rotate(461.4588732465374)"><path class="b-outline" fill="#A5ABB6" stroke="none" d="M 25 0.5 L 58.14311613300059 0.5 L 58.14311613300059 -0.5 L 25 -0.5 Z M 149.0376473830006 0.5 L 182.18076351600118 0.5 L 182.18076351600118 3.5 L 189.18076351600118 0 L 182.18076351600118 -3.5 L 182.18076351600118 -0.5 L 149.0376473830006 -0.5 Z"/><text text-anchor="middle" pointer-events="none" font-size="8px" fill="#000000" x="103.59038175800059" y="3" transform="rotate(180 103.59038175800059 0)" font-family="Helvetica Neue, Helvetica, Arial, sans-serif">HAS_UNITDEFINITION</text></g><g class="relationship" transform="translate(-108.0916065781834 -216.2726101287324) rotate(411.312737364021)"><path class="b-outline" fill="#A5ABB6" stroke="none" d="M 21.40063509461097,-12.933012701892217 L 21.90063509461097,-12.06698729810778 A 112.15420091337963 112.15420091337963 0 0 1 43.101325470040265,-21.532224751889743 L 42.7903570908157,-22.482645010050547 A 113.15420091337963 113.15420091337963 0 0 0 21.40063509461097,-12.933012701892217 Z M 108.55999628224102,-23.8816977579323 L 108.2897256207536,-22.918913374210206 A 112.15420091337963 112.15420091337963 0 0 1 129.8737453190942,-14.363792912583582 L 128.4855848397233,-11.704279708346256 L 136.31063620887645,-11.568003994757644 L 131.72462595825544,-17.90981051823335 L 130.33646547888452,-15.250297313996024 A 113.15420091337963 113.15420091337963 0 0 0 108.55999628224102,-23.8816977579323"/><text text-anchor="middle" pointer-events="none" font-size="8px" fill="#000000" x="75.58189570153326" y="-24.56732179082009" font-family="Helvetica Neue, Helvetica, Arial, sans-serif">HAS_PRODUCT</text></g><g class="relationship" transform="translate(99.46440189467471 -228.1009470692923) rotate(488.6796804819663)"><path class="b-outline" fill="#A5ABB6" stroke="none" d="M 25 0.5 L 52.51509906621179 0.5 L 52.51509906621179 -0.5 L 25 -0.5 Z M 114.09322406621179 0.5 L 141.60832313242358 0.5 L 141.60832313242358 3.5 L 148.60832313242358 0 L 141.60832313242358 -3.5 L 141.60832313242358 -0.5 L 114.09322406621179 -0.5 Z"/><text text-anchor="middle" pointer-events="none" font-size="8px" fill="#000000" x="83.30416156621179" y="3" transform="rotate(180 83.30416156621179 0)" font-family="Helvetica Neue, Helvetica, Arial, sans-serif">HAS_SPECIES</text></g><g class="relationship" transform="translate(-9.0348701649404 -92.57324575555486) rotate(341.42965863535505)"><path class="b-outline" fill="#A5ABB6" stroke="none" d="M 25 0.5 L 62.587396531556934 0.5 L 62.587396531556934 -0.5 L 25 -0.5 Z M 142.97020903155692 0.5 L 180.55760556311387 0.5 L 180.55760556311387 3.5 L 187.55760556311387 0 L 180.55760556311387 -3.5 L 180.55760556311387 -0.5 L 142.97020903155692 -0.5 Z"/><text text-anchor="middle" pointer-events="none" font-size="8px" fill="#000000" x="102.77880278155693" y="3" font-family="Helvetica Neue, Helvetica, Arial, sans-serif">IN_COMPARTMENT</text></g><g class="relationship" transform="translate(-108.0916065781834 -216.2726101287324) rotate(498.04798251820523)"><path class="b-outline" fill="#A5ABB6" stroke="none" d="M 25 0.5 L 31.090730000967014 0.5 L 31.090730000967014 -0.5 L 25 -0.5 Z M 109.70401125096701 0.5 L 115.79474125193403 0.5 L 115.79474125193403 3.5 L 122.79474125193403 0 L 115.79474125193403 -3.5 L 115.79474125193403 -0.5 L 109.70401125096701 -0.5 Z"/><text text-anchor="middle" pointer-events="none" font-size="8px" fill="#000000" x="70.39737062596701" y="3" transform="rotate(180 70.39737062596701 0)" font-family="Helvetica Neue, Helvetica, Arial, sans-serif">HAS_KENETICLAW</text></g><g class="relationship" transform="translate(56.91428848988231 -18.189329216595734) rotate(459.462570647766)"><path class="b-outline" fill="#A5ABB6" stroke="none" d="M 25 0.5 L 38.72547775169161 0.5 L 38.72547775169161 -0.5 L 25 -0.5 Z M 103.40516525169161 0.5 L 117.13064300338323 0.5 L 117.13064300338323 3.5 L 124.13064300338323 0 L 117.13064300338323 -3.5 L 117.13064300338323 -0.5 L 103.40516525169161 -0.5 Z"/><text text-anchor="middle" pointer-events="none" font-size="8px" fill="#000000" x="71.06532150169161" y="3" transform="rotate(180 71.06532150169161 0)" font-family="Helvetica Neue, Helvetica, Arial, sans-serif">IS_COMPOSED</text></g></g><g class="layer nodes"><g class="node" aria-label="graph-node-4" transform="translate(32.39672395834097,128.91212459010274)"><circle class="b-outline" cx="0" cy="0" r="25" fill="#F16667" stroke="#eb2728" stroke-width="2px"/><text class="caption" text-anchor="middle" pointer-events="none" x="0" y="5" font-size="10px" fill="#FFFFFF" font-family="Helvetica Neue, Helvetica, Arial, sans-serif"> unit</text></g><g class="node" aria-label="graph-node-8" transform="translate(132.36948549023825,-82.04427034428994)"><circle class="b-outline" cx="0" cy="0" r="25" fill="#A5ABB6" stroke="#9AA1AC" stroke-width="2px"/><text class="caption" text-anchor="middle" pointer-events="none" x="0" y="5" font-size="10px" fill="#FFFFFF" font-family="Helvetica Neue, Helvetica, Arial, sans-serif"> function…</text></g><g class="node" aria-label="graph-node-9" transform="translate(8.726278245946414,-189.78272461956047)"><circle class="b-outline" cx="0" cy="0" r="25" fill="#DA7194" stroke="#cc3c6c" stroke-width="2px"/><text class="caption" text-anchor="middle" pointer-events="none" x="0" y="5" font-size="10px" fill="#FFFFFF" font-family="Helvetica Neue, Helvetica, Arial, sans-serif"> localPar…</text></g><g class="node" aria-label="graph-node-2" transform="translate(192.45558131676745,-160.26618219963166)"><circle class="b-outline" cx="0" cy="0" r="25" fill="#F79767" stroke="#f36924" stroke-width="2px"/><text class="caption" text-anchor="middle" pointer-events="none" x="0" y="5" font-size="10px" fill="#FFFFFF" font-family="Helvetica Neue, Helvetica, Arial, sans-serif"> compart…</text></g><g class="node" aria-label="graph-node-3" transform="translate(99.46440189467471,-228.1009470692923)"><circle class="b-outline" cx="0" cy="0" r="25" fill="#57C7E3" stroke="#23b3d7" stroke-width="2px"/><text class="caption" text-anchor="middle" pointer-events="none" x="0" y="5" font-size="10px" fill="#2A2C34" font-family="Helvetica Neue, Helvetica, Arial, sans-serif"> model</text></g><g class="node" aria-label="graph-node-6" transform="translate(-108.0916065781834,-216.2726101287324)"><circle class="b-outline" cx="0" cy="0" r="25" fill="#4C8EDA" stroke="#2870c2" stroke-width="2px"/><text class="caption" text-anchor="middle" pointer-events="none" x="0" y="5" font-size="10px" fill="#FFFFFF" font-family="Helvetica Neue, Helvetica, Arial, sans-serif"> Reaction</text></g><g class="node" aria-label="graph-node-5" transform="translate(-9.0348701649404,-92.57324575555486)"><circle class="b-outline" cx="0" cy="0" r="25" fill="#ECB5C9" stroke="#da7298" stroke-width="2px"/><text class="caption" text-anchor="middle" pointer-events="none" x="0" y="5" font-size="10px" fill="#2A2C34" font-family="Helvetica Neue, Helvetica, Arial, sans-serif"> Species</text></g><g class="node" aria-label="graph-node-7" transform="translate(-218.007284305208,-117.47063984708774)"><circle class="b-outline" cx="0" cy="0" r="25" fill="#FFC454" stroke="#d7a013" stroke-width="2px"/><text class="caption" text-anchor="middle" pointer-events="none" x="0" y="5" font-size="10px" fill="#2A2C34" font-family="Helvetica Neue, Helvetica, Arial, sans-serif"> KineticL…</text></g><g class="node" aria-label="graph-node-1" transform="translate(56.91428848988231,-18.189329216595734)"><circle class="b-outline" cx="0" cy="0" r="25" fill="#D9C8AE" stroke="#c0a378" stroke-width="2px"/><text class="caption" text-anchor="middle" pointer-events="none" x="0" y="5" font-size="10px" fill="#2A2C34" font-family="Helvetica Neue, Helvetica, Arial, sans-serif"> UnitDefi…</text></g></g></svg>