<svg xmlns="http://www.w3.org/2000/svg" width="465.1181640625" height="436.5962219238281" viewBox="-264.72869873046875 -241.81837463378906 465.1181640625 436.5962219238281"><title>Neo4j Graph Visualization</title><desc>Created using Neo4j (http://www.neo4j.com/)</desc><g class="layer relationships"><g class="relationship" transform="translate(-52.58558458405857 -79.06708544753589) rotate(244.9541945451441)"><path class="b-outline" fill="#A5ABB6" stroke="none" d="M 21.40063509461097,-12.933012701892217 L 21.90063509461097,-12.06698729810778 A 101.12938782417088 101.12938782417088 0 0 1 40.59847820032074,-20.463745402253664 L 40.28336850281342,-21.412800658040624 A 102.12938782417088 102.12938782417088 0 0 0 21.40063509461097,-12.933012701892217 Z M 100.20174100125982,-22.77727999278534 L 99.93015989629603,-21.814864436267953 A 101.12938782417088 101.12938782417088 0 0 1 118.99084930565786,-14.277955075985021 L 117.61067125949427,-11.61429057742518 L 125.43609614332475,-11.501483718029945 L 120.83108670054264,-17.829507740731476 L 119.45090865437905,-15.165843242171634 A 102.12938782417088 102.12938782417088 0 0 0 100.20174100125982,-22.77727999278534"/><text text-anchor="middle" pointer-events="none" font-size="8px" fill="#000000" x="70.15159363998349" y="-23.08941507048165" transform="rotate(180 70.15159363998349 -26.08941507048165)" font-family="Helvetica Neue, Helvetica, Arial, sans-serif">IS_REACTANT</text></g><g class="relationship" transform="translate(27.82439638677234 -160.879981885686) rotate(436.3587986596139)"><path class="b-outline" fill="#A5ABB6" stroke="none" d="M 25 0.5 L 26.27090625658228 0.5 L 26.27090625658228 -0.5 L 25 -0.5 Z M 119.84121875658228 0.5 L 121.11212501316456 0.5 L 121.11212501316456 3.5 L 128.11212501316456 0 L 121.11212501316456 -3.5 L 121.11212501316456 -0.5 L 119.84121875658228 -0.5 Z"/><text text-anchor="middle" pointer-events="none" font-size="8px" fill="#000000" x="73.05606250658228" y="3" font-family="Helvetica Neue, Helvetica, Arial, sans-serif">HAS_ASSIGNMENTR…</text></g><g class="relationship" transform="translate(27.82439638677234 -160.879981885686) rotate(199.97294842380364)"><path class="b-outline" fill="#A5ABB6" stroke="none" d="M 25 0.5 L 38.41029037769843 0.5 L 38.41029037769843 -0.5 L 25 -0.5 Z M 106.64466537769843 0.5 L 120.05495575539686 0.5 L 120.05495575539686 3.5 L 127.05495575539686 0 L 120.05495575539686 -3.5 L 120.05495575539686 -0.5 L 106.64466537769843 -0.5 Z"/><text text-anchor="middle" pointer-events="none" font-size="8px" fill="#000000" x="72.52747787769843" y="3" transform="rotate(180 72.52747787769843 0)" font-family="Helvetica Neue, Helvetica, Arial, sans-serif">HAS_REACTION</text></g><g class="relationship" transform="translate(-115.08506156141904 -212.81837229903843) rotate(424.9541945451441)"><path class="b-outline" fill="#A5ABB6" stroke="none" d="M 25 0.5 L 45.09399389899505 0.5 L 45.09399389899505 -0.5 L 25 -0.5 Z M 95.53930639899505 0.5 L 115.6333002979901 0.5 L 115.6333002979901 3.5 L 122.6333002979901 0 L 115.6333002979901 -3.5 L 115.6333002979901 -0.5 L 95.53930639899505 -0.5 Z"/><text text-anchor="middle" pointer-events="none" font-size="8px" fill="#000000" x="70.31665014899505" y="3" font-family="Helvetica Neue, Helvetica, Arial, sans-serif">MODIFIERS</text></g><g class="relationship" transform="translate(27.82439638677234 -160.879981885686) rotate(396.56119298148866)"><path class="b-outline" fill="#A5ABB6" stroke="none" d="M 25 0.5 L 26.025187230042846 0.5 L 26.025187230042846 -0.5 L 25 -0.5 Z M 100.19315598004285 0.5 L 101.21834321008569 0.5 L 101.21834321008569 3.5 L 108.21834321008569 0 L 101.21834321008569 -3.5 L 101.21834321008569 -0.5 L 100.19315598004285 -0.5 Z"/><text text-anchor="middle" pointer-events="none" font-size="8px" fill="#000000" x="63.109171605042846" y="3" font-family="Helvetica Neue, Helvetica, Arial, sans-serif">HAS_COMPART…</text></g><g class="relationship" transform="translate(27.82439638677234 -160.879981885686) rotate(348.3762724346177)"><path class="b-outline" fill="#A5ABB6" stroke="none" d="M 25 0.5 L 31.738594459143314 0.5 L 31.738594459143314 -0.5 L 25 -0.5 Z M 107.83234445914331 0.5 L 114.57093891828663 0.5 L 114.57093891828663 3.5 L 121.57093891828663 0 L 114.57093891828663 -3.5 L 114.57093891828663 -0.5 L 107.83234445914331 -0.5 Z"/><text text-anchor="middle" pointer-events="none" font-size="8px" fill="#000000" x="69.78546945914331" y="3" font-family="Helvetica Neue, Helvetica, Arial, sans-serif">HAS_PARAMETER</text></g><g class="relationship" transform="translate(27.82439638677234 -160.879981885686) rotate(468.17297995639956)"><path class="b-outline" fill="#A5ABB6" stroke="none" d="M 25 0.5 L 45.1225417833559 0.5 L 45.1225417833559 -0.5 L 25 -0.5 Z M 136.0170730333559 0.5 L 156.1396148167118 0.5 L 156.1396148167118 3.5 L 163.1396148167118 0 L 156.1396148167118 -3.5 L 156.1396148167118 -0.5 L 136.0170730333559 -0.5 Z"/><text text-anchor="middle" pointer-events="none" font-size="8px" fill="#000000" x="90.5698074083559" y="3" transform="rotate(180 90.5698074083559 0)" font-family="Helvetica Neue, Helvetica, Arial, sans-serif">HAS_UNITDEFINITION</text></g><g class="relationship" transform="translate(-115.08506156141904 -212.81837229903843) rotate(424.9541945451441)"><path class="b-outline" fill="#A5ABB6" stroke="none" d="M 21.40063509461097,-12.933012701892217 L 21.90063509461097,-12.06698729810778 A 101.12938782417088 101.12938782417088 0 0 1 37.81612946546119,-19.49471565302892 L 37.47350700638452,-20.434188830153346 A 102.12938782417088 102.12938782417088 0 0 0 21.40063509461097,-12.933012701892217 Z M 103.05323713355043,-21.927590316299742 L 102.75373560143986,-20.973494497074327 A 101.12938782417088 101.12938782417088 0 0 1 118.99084930565786,-14.277955075985021 L 117.61067125949427,-11.61429057742518 L 125.43609614332475,-11.501483718029945 L 120.83108670054264,-17.829507740731476 L 119.45090865437905,-15.165843242171634 A 102.12938782417088 102.12938782417088 0 0 0 103.05323713355043,-21.927590316299742"/><text text-anchor="middle" pointer-events="none" font-size="8px" fill="#000000" x="70.15159363998349" y="-23.08941507048165" font-family="Helvetica Neue, Helvetica, Arial, sans-serif">HAS_PRODUCT</text></g><g class="relationship" transform="translate(27.82439638677234 -160.879981885686) rotate(494.504514204255)"><path class="b-outline" fill="#A5ABB6" stroke="none" d="M 25 0.5 L 25.514796170893305 0.5 L 25.514796170893305 -0.5 L 25 -0.5 Z M 82.1983899208933 0.5 L 82.71318609178661 0.5 L 82.71318609178661 3.5 L 89.71318609178661 0 L 82.71318609178661 -3.5 L 82.71318609178661 -0.5 L 82.1983899208933 -0.5 Z"/><text text-anchor="middle" pointer-events="none" font-size="8px" fill="#000000" x="53.856593045893305" y="3" transform="rotate(180 53.856593045893305 0)" font-family="Helvetica Neue, Helvetica, Arial, sans-serif">HAS_SPEC…</text></g><g class="relationship" transform="translate(-52.58558458405857 -79.06708544753589) rotate(359.2488132973699)"><path class="b-outline" fill="#A5ABB6" stroke="none" d="M 25 0.5 L 50.02353188293243 0.5 L 50.02353188293243 -0.5 L 25 -0.5 Z M 130.40634438293245 0.5 L 155.42987626586486 0.5 L 155.42987626586486 3.5 L 162.42987626586486 0 L 155.42987626586486 -3.5 L 155.42987626586486 -0.5 L 130.40634438293245 -0.5 Z"/><text text-anchor="middle" pointer-events="none" font-size="8px" fill="#000000" x="90.21493813293243" y="3" font-family="Helvetica Neue, Helvetica, Arial, sans-serif">IN_COMPARTMENT</text></g><g class="relationship" transform="translate(-115.08506156141904 -212.81837229903843) rotate(506.04363970718856)"><path class="b-outline" fill="#A5ABB6" stroke="none" d="M 25 0.5 L 29.917270645562084 0.5 L 29.917270645562084 -0.5 L 25 -0.5 Z M 108.53055189556208 0.5 L 113.44782254112417 0.5 L 113.44782254112417 3.5 L 120.44782254112417 0 L 113.44782254112417 -3.5 L 113.44782254112417 -0.5 L 108.53055189556208 -0.5 Z"/><text text-anchor="middle" pointer-events="none" font-size="8px" fill="#000000" x="69.22391127056208" y="3" transform="rotate(180 69.22391127056208 0)" font-family="Helvetica Neue, Helvetica, Arial, sans-serif">HAS_KENETICLAW</text></g><g class="relationship" transform="translate(-30.85388252949466 17.875085865708005) rotate(451.32015291084497)"><path class="b-outline" fill="#A5ABB6" stroke="none" d="M 25 0.5 L 38.13116626246526 0.5 L 38.13116626246526 -0.5 L 25 -0.5 Z M 102.81085376246526 0.5 L 115.94202002493051 0.5 L 115.94202002493051 3.5 L 122.94202002493051 0 L 115.94202002493051 -3.5 L 115.94202002493051 -0.5 L 102.81085376246526 -0.5 Z"/><text text-anchor="middle" pointer-events="none" font-size="8px" fill="#000000" x="70.47101001246526" y="3" transform="rotate(180 70.47101001246526 0)" font-family="Helvetica Neue, Helvetica, Arial, sans-serif">IS_COMPOSED</text></g></g><g class="layer nodes"><g class="node" aria-label="graph-node-4" transform="translate(-34.2623152192219,165.7778372791166)"><circle class="b-outline" cx="0" cy="0" r="25" fill="#F16667" stroke="#eb2728" stroke-width="2px"/><text class="caption" text-anchor="middle" pointer-events="none" x="0" y="5" font-size="10px" fill="#FFFFFF" font-family="Helvetica Neue, Helvetica, Arial, sans-serif"> unit</text></g><g class="node" aria-label="graph-node-9" transform="translate(63.93451129726174,-12.086895933420772)"><circle class="b-outline" cx="0" cy="0" r="25" fill="#A5ABB6" stroke="#9AA1AC" stroke-width="2px"/><text class="caption" text-anchor="middle" pointer-events="none" x="0" y="5" font-size="10px" fill="#FFFFFF" font-family="Helvetica Neue, Helvetica, Arial, sans-serif"> rateRule</text></g><g class="node" aria-label="graph-node-2" transform="translate(134.82818325529496,-81.52434841561679)"><circle class="b-outline" cx="0" cy="0" r="25" fill="#F79767" stroke="#f36924" stroke-width="2px"/><text class="caption" text-anchor="middle" pointer-events="none" x="0" y="5" font-size="10px" fill="#FFFFFF" font-family="Helvetica Neue, Helvetica, Arial, sans-serif"> compart…</text></g><g class="node" aria-label="graph-node-8" transform="translate(171.38944300929396,-190.41161786578886)"><circle class="b-outline" cx="0" cy="0" r="25" fill="#569480" stroke="#447666" stroke-width="2px"/><text class="caption" text-anchor="middle" pointer-events="none" x="0" y="5" font-size="10px" fill="#FFFFFF" font-family="Helvetica Neue, Helvetica, Arial, sans-serif"> Parameter</text></g><g class="node" aria-label="graph-node-3" transform="translate(27.82439638677234,-160.879981885686)"><circle class="b-outline" cx="0" cy="0" r="25" fill="#57C7E3" stroke="#23b3d7" stroke-width="2px"/><text class="caption" text-anchor="middle" pointer-events="none" x="0" y="5" font-size="10px" fill="#2A2C34" font-family="Helvetica Neue, Helvetica, Arial, sans-serif"> model</text></g><g class="node" aria-label="graph-node-6" transform="translate(-115.08506156141904,-212.81837229903843)"><circle class="b-outline" cx="0" cy="0" r="25" fill="#4C8EDA" stroke="#2870c2" stroke-width="2px"/><text class="caption" text-anchor="middle" pointer-events="none" x="0" y="5" font-size="10px" fill="#FFFFFF" font-family="Helvetica Neue, Helvetica, Arial, sans-serif"> Reaction</text></g><g class="node" aria-label="graph-node-5" transform="translate(-52.58558458405857,-79.06708544753589)"><circle class="b-outline" cx="0" cy="0" r="25" fill="#ECB5C9" stroke="#da7298" stroke-width="2px"/><text class="caption" text-anchor="middle" pointer-events="none" x="0" y="5" font-size="10px" fill="#2A2C34" font-family="Helvetica Neue, Helvetica, Arial, sans-serif"> Species</text></g><g class="node" aria-label="graph-node-7" transform="translate(-235.72868442377526,-131.57684754352988)"><circle class="b-outline" cx="0" cy="0" r="25" fill="#FFC454" stroke="#d7a013" stroke-width="2px"/><text class="caption" text-anchor="middle" pointer-events="none" x="0" y="5" font-size="10px" fill="#2A2C34" font-family="Helvetica Neue, Helvetica, Arial, sans-serif"> KineticL…</text></g><g class="node" aria-label="graph-node-1" transform="translate(-30.85388252949466,17.875085865708005)"><circle class="b-outline" cx="0" cy="0" r="25" fill="#D9C8AE" stroke="#c0a378" stroke-width="2px"/><text class="caption" text-anchor="middle" pointer-events="none" x="0" y="5" font-size="10px" fill="#2A2C34" font-family="Helvetica Neue, Helvetica, Arial, sans-serif"> UnitDefi…</text></g></g></svg>