<svg xmlns="http://www.w3.org/2000/svg" width="478.6622314453125" height="598.9844360351562" viewBox="-201.814208984375 -288.53948974609375 478.6622314453125 598.9844360351562"><title>Neo4j Graph Visualization</title><desc>Created using Neo4j (http://www.neo4j.com/)</desc><g class="layer relationships"><g class="relationship" transform="translate(-23.694341803739746 53.58171459522891) rotate(325.14625243070356)"><path class="b-outline" fill="#A5ABB6" stroke="none" d="M 25 0.5 L 26.74085057486645 0.5 L 26.74085057486645 -0.5 L 25 -0.5 Z M 90.38538182486644 0.5 L 92.1262323997329 0.5 L 92.1262323997329 3.5 L 99.1262323997329 0 L 92.1262323997329 -3.5 L 92.1262323997329 -0.5 L 90.38538182486644 -0.5 Z"/><text text-anchor="middle" pointer-events="none" font-size="8px" fill="#000000" x="58.56311619986645" y="3" font-family="Helvetica Neue, Helvetica, Arial, sans-serif">HAS_COMPA…</text></g><g class="relationship" transform="translate(102.2098754078862 165.1627643521762) rotate(412.39984062619266)"><path class="b-outline" fill="#A5ABB6" stroke="none" d="M 25 0.5 L 37.543923046189505 0.5 L 37.543923046189505 -0.5 L 25 -0.5 Z M 102.2236105461895 0.5 L 114.76753359237901 0.5 L 114.76753359237901 3.5 L 121.76753359237901 0 L 114.76753359237901 -3.5 L 114.76753359237901 -0.5 L 102.2236105461895 -0.5 Z"/><text text-anchor="middle" pointer-events="none" font-size="8px" fill="#000000" x="69.8837667961895" y="3" font-family="Helvetica Neue, Helvetica, Arial, sans-serif">IS_COMPOSED</text></g><g class="relationship" transform="translate(102.2098754078862 165.1627643521762) rotate(351.2370218738755)"><path class="b-outline" fill="#A5ABB6" stroke="none" d="M 25 0.5 L 37.839289593749356 0.5 L 37.839289593749356 -0.5 L 25 -0.5 Z M 102.51897709374936 0.5 L 115.35826668749871 0.5 L 115.35826668749871 3.5 L 122.35826668749871 0 L 115.35826668749871 -3.5 L 115.35826668749871 -0.5 L 102.51897709374936 -0.5 Z"/><text text-anchor="middle" pointer-events="none" font-size="8px" fill="#000000" x="70.17913334374936" y="3" font-family="Helvetica Neue, Helvetica, Arial, sans-serif">IS_COMPOSED</text></g><g class="relationship" transform="translate(105.82940180825399 -112.72956421426548) rotate(329.8445532596307)"><path class="b-outline" fill="#A5ABB6" stroke="none" d="M 25 0.5 L 38.220202314029635 0.5 L 38.220202314029635 -0.5 L 25 -0.5 Z M 102.89988981402963 0.5 L 116.12009212805927 0.5 L 116.12009212805927 3.5 L 123.12009212805927 0 L 116.12009212805927 -3.5 L 116.12009212805927 -0.5 L 102.89988981402963 -0.5 Z"/><text text-anchor="middle" pointer-events="none" font-size="8px" fill="#000000" x="70.56004606402963" y="3" font-family="Helvetica Neue, Helvetica, Arial, sans-serif">IS_COMPOSED</text></g><g class="relationship" transform="translate(105.82940180825399 -112.72956421426548) rotate(259.7273989117346)"><path class="b-outline" fill="#A5ABB6" stroke="none" d="M 25 0.5 L 38.76093156815645 0.5 L 38.76093156815645 -0.5 L 25 -0.5 Z M 103.44061906815645 0.5 L 117.2015506363129 0.5 L 117.2015506363129 3.5 L 124.2015506363129 0 L 117.2015506363129 -3.5 L 117.2015506363129 -0.5 L 103.44061906815645 -0.5 Z"/><text text-anchor="middle" pointer-events="none" font-size="8px" fill="#000000" x="71.10077531815645" y="3" transform="rotate(180 71.10077531815645 0)" font-family="Helvetica Neue, Helvetica, Arial, sans-serif">IS_COMPOSED</text></g><g class="relationship" transform="translate(-23.694341803739746 53.58171459522891) rotate(401.54856837991434)"><path class="b-outline" fill="#A5ABB6" stroke="none" d="M 25 0.5 L 35.16902675723507 0.5 L 35.16902675723507 -0.5 L 25 -0.5 Z M 126.06355800723507 0.5 L 136.23258476447015 0.5 L 136.23258476447015 3.5 L 143.23258476447015 0 L 136.23258476447015 -3.5 L 136.23258476447015 -0.5 L 126.06355800723507 -0.5 Z"/><text text-anchor="middle" pointer-events="none" font-size="8px" fill="#000000" x="80.61629238223507" y="3" font-family="Helvetica Neue, Helvetica, Arial, sans-serif">HAS_UNITDEFINITION</text></g><g class="relationship" transform="translate(-23.694341803739746 53.58171459522891) rotate(307.91157002185685)"><path class="b-outline" fill="#A5ABB6" stroke="none" d="M 25 0.5 L 56.451787523634664 0.5 L 56.451787523634664 -0.5 L 25 -0.5 Z M 147.34631877363466 0.5 L 178.79810629726933 0.5 L 178.79810629726933 3.5 L 185.79810629726933 0 L 178.79810629726933 -3.5 L 178.79810629726933 -0.5 L 147.34631877363466 -0.5 Z"/><text text-anchor="middle" pointer-events="none" font-size="8px" fill="#000000" x="101.89905314863466" y="3" font-family="Helvetica Neue, Helvetica, Arial, sans-serif">HAS_UNITDEFINITION</text></g><g class="relationship" transform="translate(-23.694341803739746 53.58171459522891) rotate(244.06515397768038)"><path class="b-outline" fill="#A5ABB6" stroke="none" d="M 25 0.5 L 41.820528002490235 0.5 L 41.820528002490235 -0.5 L 25 -0.5 Z M 103.39865300249024 0.5 L 120.21918100498047 0.5 L 120.21918100498047 3.5 L 127.21918100498047 0 L 120.21918100498047 -3.5 L 120.21918100498047 -0.5 L 103.39865300249024 -0.5 Z"/><text text-anchor="middle" pointer-events="none" font-size="8px" fill="#000000" x="72.60959050249024" y="3" transform="rotate(180 72.60959050249024 0)" font-family="Helvetica Neue, Helvetica, Arial, sans-serif">HAS_SPECIES</text></g><g class="relationship" transform="translate(-90.26721774644543 -83.30777095623382) rotate(381.38389442725355)"><path class="b-outline" fill="#A5ABB6" stroke="none" d="M 25 0.5 L 46.75107123167858 0.5 L 46.75107123167858 -0.5 L 25 -0.5 Z M 127.13388373167858 0.5 L 148.88495496335716 0.5 L 148.88495496335716 3.5 L 155.88495496335716 0 L 148.88495496335716 -3.5 L 148.88495496335716 -0.5 L 127.13388373167858 -0.5 Z"/><text text-anchor="middle" pointer-events="none" font-size="8px" fill="#000000" x="86.94247748167858" y="3" font-family="Helvetica Neue, Helvetica, Arial, sans-serif">IN_COMPARTMENT</text></g><g class="relationship" transform="translate(-23.694341803739746 53.58171459522891) rotate(282.80808886466775)"><path class="b-outline" fill="#A5ABB6" stroke="none" d="M 25 0.5 L 35.62727688879568 0.5 L 35.62727688879568 -0.5 L 25 -0.5 Z M 104.61165188879568 0.5 L 115.23892877759135 0.5 L 115.23892877759135 3.5 L 122.23892877759135 0 L 115.23892877759135 -3.5 L 115.23892877759135 -0.5 L 104.61165188879568 -0.5 Z"/><text text-anchor="middle" pointer-events="none" font-size="8px" fill="#000000" x="70.11946438879568" y="3" font-family="Helvetica Neue, Helvetica, Arial, sans-serif">HAS_RATERULE</text></g><g class="relationship" transform="translate(-23.694341803739746 53.58171459522891) rotate(205.93338167709987)"><path class="b-outline" fill="#A5ABB6" stroke="none" d="M 25 0.5 L 34.928724863455855 0.5 L 34.928724863455855 -0.5 L 25 -0.5 Z M 111.02247486345586 0.5 L 120.95119972691171 0.5 L 120.95119972691171 3.5 L 127.95119972691171 0 L 120.95119972691171 -3.5 L 120.95119972691171 -0.5 L 111.02247486345586 -0.5 Z"/><text text-anchor="middle" pointer-events="none" font-size="8px" fill="#000000" x="72.97559986345586" y="3" transform="rotate(180 72.97559986345586 0)" font-family="Helvetica Neue, Helvetica, Arial, sans-serif">HAS_PARAMETER</text></g><g class="relationship" transform="translate(-23.694341803739746 53.58171459522891) rotate(527.8605431767033)"><path class="b-outline" fill="#A5ABB6" stroke="none" d="M 25 0.5 L 34.7184564675223 0.5 L 34.7184564675223 -0.5 L 25 -0.5 Z M 110.8122064675223 0.5 L 120.5306629350446 0.5 L 120.5306629350446 3.5 L 127.5306629350446 0 L 120.5306629350446 -3.5 L 120.5306629350446 -0.5 L 110.8122064675223 -0.5 Z"/><text text-anchor="middle" pointer-events="none" font-size="8px" fill="#000000" x="72.7653314675223" y="3" transform="rotate(180 72.7653314675223 0)" font-family="Helvetica Neue, Helvetica, Arial, sans-serif">HAS_PARAMETER</text></g><g class="relationship" transform="translate(-23.694341803739746 53.58171459522891) rotate(489.57937039536887)"><path class="b-outline" fill="#A5ABB6" stroke="none" d="M 25 0.5 L 34.18738707856244 0.5 L 34.18738707856244 -0.5 L 25 -0.5 Z M 110.28113707856244 0.5 L 119.46852415712488 0.5 L 119.46852415712488 3.5 L 126.46852415712488 0 L 119.46852415712488 -3.5 L 119.46852415712488 -0.5 L 110.28113707856244 -0.5 Z"/><text text-anchor="middle" pointer-events="none" font-size="8px" fill="#000000" x="72.23426207856244" y="3" transform="rotate(180 72.23426207856244 0)" font-family="Helvetica Neue, Helvetica, Arial, sans-serif">HAS_PARAMETER</text></g><g class="relationship" transform="translate(-23.694341803739746 53.58171459522891) rotate(450.884656344849)"><path class="b-outline" fill="#A5ABB6" stroke="none" d="M 25 0.5 L 33.23520999652155 0.5 L 33.23520999652155 -0.5 L 25 -0.5 Z M 109.32895999652155 0.5 L 117.5641699930431 0.5 L 117.5641699930431 3.5 L 124.5641699930431 0 L 117.5641699930431 -3.5 L 117.5641699930431 -0.5 L 109.32895999652155 -0.5 Z"/><text text-anchor="middle" pointer-events="none" font-size="8px" fill="#000000" x="71.28208499652155" y="3" transform="rotate(180 71.28208499652155 0)" font-family="Helvetica Neue, Helvetica, Arial, sans-serif">HAS_PARAMETER</text></g></g><g class="layer nodes"><g class="node" aria-label="graph-node0" transform="translate(102.2098754078862,165.1627643521762)"><circle class="b-outline" cx="0" cy="0" r="25" fill="#D9C8AE" stroke="#c0a378" stroke-width="2px"/><text class="caption" text-anchor="middle" pointer-events="none" x="0" y="5" font-size="10px" fill="#2A2C34" font-family="Helvetica Neue, Helvetica, Arial, sans-serif"> conc</text></g><g class="node" aria-label="graph-node1" transform="translate(105.82940180825399,-112.72956421426548)"><circle class="b-outline" cx="0" cy="0" r="25" fill="#D9C8AE" stroke="#c0a378" stroke-width="2px"/><text class="caption" text-anchor="middle" pointer-events="none" x="0" y="5" font-size="10px" fill="#2A2C34" font-family="Helvetica Neue, Helvetica, Arial, sans-serif"> conc_sq</text></g><g class="node" aria-label="graph-node2" transform="translate(78.16531741095825,-17.35439323722895)"><circle class="b-outline" cx="0" cy="0" r="25" fill="#F79767" stroke="#f36924" stroke-width="2px"/><text class="caption" text-anchor="middle" pointer-events="none" x="0" y="5" font-size="10px" fill="#FFFFFF" font-family="Helvetica Neue, Helvetica, Arial, sans-serif"> cell</text></g><g class="node" aria-label="graph-node3" transform="translate(-23.694341803739746,53.58171459522891)"><circle class="b-outline" cx="0" cy="0" r="25" fill="#57C7E3" stroke="#23b3d7" stroke-width="2px"/><text class="caption" text-anchor="middle" pointer-events="none" x="0" y="5" font-size="10px" fill="#2A2C34" font-family="Helvetica Neue, Helvetica, Arial, sans-serif"> c39e140…</text></g><g class="node" aria-label="graph-node4" transform="translate(191.75969969749187,281.44491210706957)"><circle class="b-outline" cx="0" cy="0" r="25" fill="#F16667" stroke="#eb2728" stroke-width="2px"/><text class="caption" text-anchor="middle" pointer-events="none" x="0" y="5" font-size="10px" fill="#FFFFFF" font-family="Helvetica Neue, Helvetica, Arial, sans-serif"> de25aa5…</text></g><g class="node" aria-label="graph-node5" transform="translate(247.84803309890557,142.71313661562425)"><circle class="b-outline" cx="0" cy="0" r="25" fill="#F16667" stroke="#eb2728" stroke-width="2px"/><text class="caption" text-anchor="middle" pointer-events="none" x="0" y="5" font-size="10px" fill="#FFFFFF" font-family="Helvetica Neue, Helvetica, Arial, sans-serif"> 2a6a3ffc…</text></g><g class="node" aria-label="graph-node6" transform="translate(233.90376339206045,-187.13735679626026)"><circle class="b-outline" cx="0" cy="0" r="25" fill="#F16667" stroke="#eb2728" stroke-width="2px"/><text class="caption" text-anchor="middle" pointer-events="none" x="0" y="5" font-size="10px" fill="#FFFFFF" font-family="Helvetica Neue, Helvetica, Arial, sans-serif"> aa68db8…</text></g><g class="node" aria-label="graph-node7" transform="translate(79.22203569082578,-259.5394779822852)"><circle class="b-outline" cx="0" cy="0" r="25" fill="#F16667" stroke="#eb2728" stroke-width="2px"/><text class="caption" text-anchor="middle" pointer-events="none" x="0" y="5" font-size="10px" fill="#FFFFFF" font-family="Helvetica Neue, Helvetica, Arial, sans-serif"> 2c58432…</text></g><g class="node" aria-label="graph-node8" transform="translate(-90.26721774644543,-83.30777095623382)"><circle class="b-outline" cx="0" cy="0" r="25" fill="#ECB5C9" stroke="#da7298" stroke-width="2px"/><text class="caption" text-anchor="middle" pointer-events="none" x="0" y="5" font-size="10px" fill="#2A2C34" font-family="Helvetica Neue, Helvetica, Arial, sans-serif"> P</text></g><g class="node" aria-label="graph-node9" transform="translate(8.94649156508756,-89.9936250162833)"><circle class="b-outline" cx="0" cy="0" r="25" fill="#A5ABB6" stroke="#9AA1AC" stroke-width="2px"/><text class="caption" text-anchor="middle" pointer-events="none" x="0" y="5" font-size="10px" fill="#FFFFFF" font-family="Helvetica Neue, Helvetica, Arial, sans-serif"> P</text></g><g class="node" aria-label="graph-node10" transform="translate(-161.2438354892553,-13.307793436748389)"><circle class="b-outline" cx="0" cy="0" r="25" fill="#569480" stroke="#447666" stroke-width="2px"/><text class="caption" text-anchor="middle" pointer-events="none" x="0" y="5" font-size="10px" fill="#FFFFFF" font-family="Helvetica Neue, Helvetica, Arial, sans-serif"> tau</text></g><g class="node" aria-label="graph-node11" transform="translate(-172.81421331879073,85.65767217624081)"><circle class="b-outline" cx="0" cy="0" r="25" fill="#569480" stroke="#447666" stroke-width="2px"/><text class="caption" text-anchor="middle" pointer-events="none" x="0" y="5" font-size="10px" fill="#FFFFFF" font-family="Helvetica Neue, Helvetica, Arial, sans-serif"> m</text></g><g class="node" aria-label="graph-node12" transform="translate(-120.2019851111349,170.32497390209468)"><circle class="b-outline" cx="0" cy="0" r="25" fill="#569480" stroke="#447666" stroke-width="2px"/><text class="caption" text-anchor="middle" pointer-events="none" x="0" y="5" font-size="10px" fill="#FFFFFF" font-family="Helvetica Neue, Helvetica, Arial, sans-serif"> q</text></g><g class="node" aria-label="graph-node13" transform="translate(-26.003545656612612,203.12805698872836)"><circle class="b-outline" cx="0" cy="0" r="25" fill="#569480" stroke="#447666" stroke-width="2px"/><text class="caption" text-anchor="middle" pointer-events="none" x="0" y="5" font-size="10px" fill="#FFFFFF" font-family="Helvetica Neue, Helvetica, Arial, sans-serif"> delta_t</text></g></g></svg>