<svg xmlns="http://www.w3.org/2000/svg" width="322.94287109375" height="546.2476806640625" viewBox="-99.27809143066406 -276.2952880859375 322.94287109375 546.2476806640625"><title>Neo4j Graph Visualization</title><desc>Created using Neo4j (http://www.neo4j.com/)</desc><g class="layer relationships"><g class="relationship" transform="translate(-68.66281895706376 -105.38946458885475) rotate(327.77499846335945)"><path class="b-outline" fill="#A5ABB6" stroke="none" d="M 24.018736134675446,-6.953439040707552 L 24.277555179777966,-5.987513214418485 A 196.52822933000414 196.52822933000414 0 0 1 42.87076587831448,-10.016235873641904 L 42.706555179106715,-11.002661160354336 A 197.52822933000414 197.52822933000414 0 0 0 24.018736134675446,-6.953439040707552 Z M 103.14915020050714,-11.688544373731531 L 103.00736618075035,-10.698646756933897 A 196.52822933000414 196.52822933000414 0 0 1 121.68721054340375,-7.092886790968462 L 120.9767109850743,-4.178235803695086 L 128.60647944009654,-5.920829652745333 L 122.634543287843,-10.979088107332965 L 121.92404372951356,-8.064437120059589 A 197.52822933000414 197.52822933000414 0 0 0 103.14915020050714,-11.688544373731531"/><text text-anchor="middle" pointer-events="none" font-size="8px" fill="#000000" x="72.90713451534705" y="-10.17136581829834" font-family="Helvetica Neue, Helvetica, Arial, sans-serif">IS_REACTANT</text></g><g class="relationship" transform="translate(67.31687096099898 -36.46542326398533) rotate(267.4743999334055)"><path class="b-outline" fill="#A5ABB6" stroke="none" d="M 25 0.5 L 37.68332402631218 0.5 L 37.68332402631218 -0.5 L 25 -0.5 Z M 105.91769902631218 0.5 L 118.60102305262436 0.5 L 118.60102305262436 3.5 L 125.60102305262436 0 L 118.60102305262436 -3.5 L 118.60102305262436 -0.5 L 105.91769902631218 -0.5 Z"/><text text-anchor="middle" pointer-events="none" font-size="8px" fill="#000000" x="71.80051152631218" y="3" transform="rotate(180 71.80051152631218 0)" font-family="Helvetica Neue, Helvetica, Arial, sans-serif">HAS_REACTION</text></g><g class="relationship" transform="translate(67.31687096099898 -36.46542326398533) rotate(512.4363158918095)"><path class="b-outline" fill="#A5ABB6" stroke="none" d="M 25 0.5 L 29.000107293963353 0.5 L 29.000107293963353 -0.5 L 25 -0.5 Z M 117.83213854396335 0.5 L 121.8322458379267 0.5 L 121.8322458379267 3.5 L 128.8322458379267 0 L 121.8322458379267 -3.5 L 121.8322458379267 -0.5 L 117.83213854396335 -0.5 Z"/><text text-anchor="middle" pointer-events="none" font-size="8px" fill="#000000" x="73.41612291896335" y="3" transform="rotate(180 73.41612291896335 0)" font-family="Helvetica Neue, Helvetica, Arial, sans-serif">HAS_COMPARTMENT</text></g><g class="relationship" transform="translate(67.31687096099898 -36.46542326398533) rotate(390.89356798949746)"><path class="b-outline" fill="#A5ABB6" stroke="none" d="M 25 0.5 L 32.65458159555955 0.5 L 32.65458159555955 -0.5 L 25 -0.5 Z M 108.74833159555955 0.5 L 116.4029131911191 0.5 L 116.4029131911191 3.5 L 123.4029131911191 0 L 116.4029131911191 -3.5 L 116.4029131911191 -0.5 L 108.74833159555955 -0.5 Z"/><text text-anchor="middle" pointer-events="none" font-size="8px" fill="#000000" x="70.70145659555955" y="3" font-family="Helvetica Neue, Helvetica, Arial, sans-serif">HAS_PARAMETER</text></g><g class="relationship" transform="translate(194.66475730568504 39.731299022158666) rotate(508.51756022996534)"><path class="b-outline" fill="#A5ABB6" stroke="none" d="M 25 0.5 L 46.10773632788964 0.5 L 46.10773632788964 -0.5 L 25 -0.5 Z M 91.67023632788964 0.5 L 112.77797265577928 0.5 L 112.77797265577928 3.5 L 119.77797265577928 0 L 112.77797265577928 -3.5 L 112.77797265577928 -0.5 L 91.67023632788964 -0.5 Z"/><text text-anchor="middle" pointer-events="none" font-size="8px" fill="#000000" x="68.88898632788964" y="3" transform="rotate(180 68.88898632788964 0)" font-family="Helvetica Neue, Helvetica, Arial, sans-serif">HAS_UNIT</text></g><g class="relationship" transform="translate(67.31687096099898 -36.46542326398533) rotate(448.5354413924775)"><path class="b-outline" fill="#A5ABB6" stroke="none" d="M 25 0.5 L 26.980121984300496 0.5 L 26.980121984300496 -0.5 L 25 -0.5 Z M 117.8746532343005 0.5 L 119.85477521860099 0.5 L 119.85477521860099 3.5 L 126.85477521860099 0 L 119.85477521860099 -3.5 L 119.85477521860099 -0.5 L 117.8746532343005 -0.5 Z"/><text text-anchor="middle" pointer-events="none" font-size="8px" fill="#000000" x="72.4273876093005" y="3" font-family="Helvetica Neue, Helvetica, Arial, sans-serif">HAS_UNITDEFINITION</text></g><g class="relationship" transform="translate(60.68052194336351 -186.92015737432573) rotate(507.77499846335945)"><path class="b-outline" fill="#A5ABB6" stroke="none" d="M 24.018736134675446,-6.953439040707552 L 24.277555179777966,-5.987513214418485 A 196.52822933000414 196.52822933000414 0 0 1 39.96118800132431,-9.509380047426816 L 39.78217241690026,-10.493226285684244 A 197.52822933000414 197.52822933000414 0 0 0 24.018736134675446,-6.953439040707552 Z M 106.08434023413643,-11.245602054796365 L 105.92769661662197,-10.257946863400122 A 196.52822933000414 196.52822933000414 0 0 1 121.68721054340375,-7.092886790968462 L 120.9767109850743,-4.178235803695086 L 128.60647944009654,-5.920829652745333 L 122.634543287843,-10.979088107332965 L 121.92404372951356,-8.064437120059589 A 197.52822933000414 197.52822933000414 0 0 0 106.08434023413643,-11.245602054796365"/><text text-anchor="middle" pointer-events="none" font-size="8px" fill="#000000" x="72.90713451534705" y="-10.17136581829834" transform="rotate(180 72.90713451534705 -13.17136581829834)" font-family="Helvetica Neue, Helvetica, Arial, sans-serif">HAS_PRODUCT</text></g><g class="relationship" transform="translate(67.31687096099898 -36.46542326398533) rotate(206.87908799838868)"><path class="b-outline" fill="#A5ABB6" stroke="none" d="M 25 0.5 L 41.93593265048328 0.5 L 41.93593265048328 -0.5 L 25 -0.5 Z M 103.51405765048328 0.5 L 120.44999030096656 0.5 L 120.44999030096656 3.5 L 127.44999030096656 0 L 120.44999030096656 -3.5 L 120.44999030096656 -0.5 L 103.51405765048328 -0.5 Z"/><text text-anchor="middle" pointer-events="none" font-size="8px" fill="#000000" x="72.72499515048328" y="3" transform="rotate(180 72.72499515048328 0)" font-family="Helvetica Neue, Helvetica, Arial, sans-serif">HAS_SPECIES</text></g><g class="relationship" transform="translate(-68.66281895706376 -105.38946458885475) rotate(450.1603630307581)"><path class="b-outline" fill="#A5ABB6" stroke="none" d="M 25 0.5 L 26.36261233069763 0.5 L 26.36261233069763 -0.5 L 25 -0.5 Z M 106.74542483069763 0.5 L 108.10803716139526 0.5 L 108.10803716139526 3.5 L 115.10803716139526 0 L 108.10803716139526 -3.5 L 108.10803716139526 -0.5 L 106.74542483069763 -0.5 Z"/><text text-anchor="middle" pointer-events="none" font-size="8px" fill="#000000" x="66.55401858069763" y="3" transform="rotate(180 66.55401858069763 0)" font-family="Helvetica Neue, Helvetica, Arial, sans-serif">IN_COMPARTMENT</text></g><g class="relationship" transform="translate(60.68052194336351 -186.92015737432573) rotate(204.7508673820575)"><path class="b-outline" fill="#A5ABB6" stroke="none" d="M 25 0.5 L 29.296266080351344 0.5 L 29.296266080351344 -0.5 L 25 -0.5 Z M 107.90954733035134 0.5 L 112.20581341070269 0.5 L 112.20581341070269 3.5 L 119.20581341070269 0 L 112.20581341070269 -3.5 L 112.20581341070269 -0.5 L 107.90954733035134 -0.5 Z"/><text text-anchor="middle" pointer-events="none" font-size="8px" fill="#000000" x="68.60290670535134" y="3" transform="rotate(180 68.60290670535134 0)" font-family="Helvetica Neue, Helvetica, Arial, sans-serif">HAS_KENETICLAW</text></g><g class="relationship" transform="translate(71.19806434110504 115.3397449439451) rotate(478.60807301553956)"><path class="b-outline" fill="#A5ABB6" stroke="none" d="M 25 0.5 L 35.700430712385824 0.5 L 35.700430712385824 -0.5 L 25 -0.5 Z M 100.38011821238582 0.5 L 111.08054892477165 0.5 L 111.08054892477165 3.5 L 118.08054892477165 0 L 111.08054892477165 -3.5 L 111.08054892477165 -0.5 L 100.38011821238582 -0.5 Z"/><text text-anchor="middle" pointer-events="none" font-size="8px" fill="#000000" x="68.04027446238582" y="3" transform="rotate(180 68.04027446238582 0)" font-family="Helvetica Neue, Helvetica, Arial, sans-serif">IS_COMPOSED</text></g></g><g class="layer nodes"><g class="node" aria-label="graph-node-4" transform="translate(2.6888709528235823,240.95237926828776)"><circle class="b-outline" cx="0" cy="0" r="25" fill="#F16667" stroke="#eb2728" stroke-width="2px"/><text class="caption" text-anchor="middle" pointer-events="none" x="0" y="5" font-size="10px" fill="#FFFFFF" font-family="Helvetica Neue, Helvetica, Arial, sans-serif"> unit</text></g><g class="node" aria-label="graph-node-2" transform="translate(-69.0549616302097,34.718023795395474)"><circle class="b-outline" cx="0" cy="0" r="25" fill="#F79767" stroke="#f36924" stroke-width="2px"/><text class="caption" text-anchor="middle" pointer-events="none" x="0" y="5" font-size="10px" fill="#FFFFFF" font-family="Helvetica Neue, Helvetica, Arial, sans-serif"> compart…</text></g><g class="node" aria-label="graph-node-8" transform="translate(194.66475730568504,39.731299022158666)"><circle class="b-outline" cx="0" cy="0" r="25" fill="#569480" stroke="#447666" stroke-width="2px"/><text class="caption" text-anchor="middle" pointer-events="none" x="0" y="5" font-size="10px" fill="#FFFFFF" font-family="Helvetica Neue, Helvetica, Arial, sans-serif"> Parameter</text></g><g class="node" aria-label="graph-node-3" transform="translate(67.31687096099898,-36.46542326398533)"><circle class="b-outline" cx="0" cy="0" r="25" fill="#57C7E3" stroke="#23b3d7" stroke-width="2px"/><text class="caption" text-anchor="middle" pointer-events="none" x="0" y="5" font-size="10px" fill="#2A2C34" font-family="Helvetica Neue, Helvetica, Arial, sans-serif"> model</text></g><g class="node" aria-label="graph-node-6" transform="translate(60.68052194336351,-186.92015737432573)"><circle class="b-outline" cx="0" cy="0" r="25" fill="#4C8EDA" stroke="#2870c2" stroke-width="2px"/><text class="caption" text-anchor="middle" pointer-events="none" x="0" y="5" font-size="10px" fill="#FFFFFF" font-family="Helvetica Neue, Helvetica, Arial, sans-serif"> Reaction</text></g><g class="node" aria-label="graph-node-5" transform="translate(-68.66281895706376,-105.38946458885475)"><circle class="b-outline" cx="0" cy="0" r="25" fill="#ECB5C9" stroke="#da7298" stroke-width="2px"/><text class="caption" text-anchor="middle" pointer-events="none" x="0" y="5" font-size="10px" fill="#2A2C34" font-family="Helvetica Neue, Helvetica, Arial, sans-serif"> Species</text></g><g class="node" aria-label="graph-node-7" transform="translate(-70.2780891468182,-247.29530791470063)"><circle class="b-outline" cx="0" cy="0" r="25" fill="#FFC454" stroke="#d7a013" stroke-width="2px"/><text class="caption" text-anchor="middle" pointer-events="none" x="0" y="5" font-size="10px" fill="#2A2C34" font-family="Helvetica Neue, Helvetica, Arial, sans-serif"> KineticL…</text></g><g class="node" aria-label="graph-node-1" transform="translate(71.19806434110504,115.3397449439451)"><circle class="b-outline" cx="0" cy="0" r="25" fill="#D9C8AE" stroke="#c0a378" stroke-width="2px"/><text class="caption" text-anchor="middle" pointer-events="none" x="0" y="5" font-size="10px" fill="#2A2C34" font-family="Helvetica Neue, Helvetica, Arial, sans-serif"> UnitDefi…</text></g></g></svg>