<svg xmlns="http://www.w3.org/2000/svg" width="502.368408203125" height="452.3010559082031" viewBox="-219.30364990234375 -230.2859344482422 502.368408203125 452.3010559082031"><title>Neo4j Graph Visualization</title><desc>Created using Neo4j (http://www.neo4j.com/)</desc><g class="layer relationships"><g class="relationship" transform="translate(-64.59116294217468 -31.4901204632989) rotate(276.49548299404705)"><path class="b-outline" fill="#A5ABB6" stroke="none" d="M 24.018736134675446,-6.953439040707552 L 24.277555179777966,-5.987513214418485 A 231.82782106752032 231.82782106752032 0 0 1 51.821389542128465,-11.603455144630544 L 51.681382097098435,-12.593605595489493 A 232.82782106752032 232.82782106752032 0 0 0 24.018736134675446,-6.953439040707552 Z M 112.16832663051042,-13.21045648802675 L 112.04854147749063,-12.217656650639555 A 231.82782106752032 231.82782106752032 0 0 1 139.70117904307762,-7.164612933195484 L 138.98398080089257,-4.2516030325245895 L 146.61773518500723,-5.976652018208828 L 140.65744336599104,-11.04862613409001 L 139.940245123806,-8.135616233419116 A 232.82782106752032 232.82782106752032 0 0 0 112.16832663051042,-13.21045648802675"/><text text-anchor="middle" pointer-events="none" font-size="8px" fill="#000000" x="81.9098352039885" y="-11.374774451415249" font-family="Helvetica Neue, Helvetica, Arial, sans-serif">IS_REACTANT</text></g><g class="relationship" transform="translate(110.46459134643769 -103.05866679348075) rotate(212.2429060063833)"><path class="b-outline" fill="#A5ABB6" stroke="none" d="M 25 0.5 L 54.44042082805983 0.5 L 54.44042082805983 -0.5 L 25 -0.5 Z M 122.67479582805983 0.5 L 152.11521665611966 0.5 L 152.11521665611966 3.5 L 159.11521665611966 0 L 152.11521665611966 -3.5 L 152.11521665611966 -0.5 L 122.67479582805983 -0.5 Z"/><text text-anchor="middle" pointer-events="none" font-size="8px" fill="#000000" x="88.55760832805983" y="3" transform="rotate(180 88.55760832805983 0)" font-family="Helvetica Neue, Helvetica, Arial, sans-serif">HAS_REACTION</text></g><g class="relationship" transform="translate(11.74057073055395 -94.47382989994465) rotate(456.4298519586709)"><path class="b-outline" fill="#A5ABB6" stroke="none" d="M 25 0.5 L 42.73492084161198 0.5 L 42.73492084161198 -0.5 L 25 -0.5 Z M 93.63335834161198 0.5 L 111.36827918322396 0.5 L 111.36827918322396 3.5 L 118.36827918322396 0 L 111.36827918322396 -3.5 L 111.36827918322396 -0.5 L 93.63335834161198 -0.5 Z"/><text text-anchor="middle" pointer-events="none" font-size="8px" fill="#000000" x="68.18413959161198" y="3" transform="rotate(180 68.18413959161198 0)" font-family="Helvetica Neue, Helvetica, Arial, sans-serif">HAS_UNITS</text></g><g class="relationship" transform="translate(110.46459134643769 -103.05866679348075) rotate(456.7483273022575)"><path class="b-outline" fill="#A5ABB6" stroke="none" d="M 25 0.5 L 25.46141607933204 0.5 L 25.46141607933204 -0.5 L 25 -0.5 Z M 106.29344732933204 0.5 L 106.75486340866408 0.5 L 106.75486340866408 3.5 L 113.75486340866408 0 L 106.75486340866408 -3.5 L 106.75486340866408 -0.5 L 106.29344732933204 -0.5 Z"/><text text-anchor="middle" pointer-events="none" font-size="8px" fill="#000000" x="65.87743170433204" y="3" transform="rotate(180 65.87743170433204 0)" font-family="Helvetica Neue, Helvetica, Arial, sans-serif">HAS_COMPARTM…</text></g><g class="relationship" transform="translate(110.46459134643769 -103.05866679348075) rotate(363.3244231372779)"><path class="b-outline" fill="#A5ABB6" stroke="none" d="M 25 0.5 L 30.374249285751418 0.5 L 30.374249285751418 -0.5 L 25 -0.5 Z M 106.46799928575142 0.5 L 111.84224857150284 0.5 L 111.84224857150284 3.5 L 118.84224857150284 0 L 111.84224857150284 -3.5 L 111.84224857150284 -0.5 L 106.46799928575142 -0.5 Z"/><text text-anchor="middle" pointer-events="none" font-size="8px" fill="#000000" x="68.42112428575142" y="3" font-family="Helvetica Neue, Helvetica, Arial, sans-serif">HAS_PARAMETER</text></g><g class="relationship" transform="translate(-45.25893283913924 -201.28593907340266) rotate(421.913714264877)"><path class="b-outline" fill="#A5ABB6" stroke="none" d="M 25 0.5 L 26.46823274552507 0.5 L 26.46823274552507 -0.5 L 25 -0.5 Z M 87.60104524552507 0.5 L 89.06927799105014 0.5 L 89.06927799105014 3.5 L 96.06927799105014 0 L 89.06927799105014 -3.5 L 89.06927799105014 -0.5 L 87.60104524552507 -0.5 Z"/><text text-anchor="middle" pointer-events="none" font-size="8px" fill="#000000" x="57.03463899552507" y="3" font-family="Helvetica Neue, Helvetica, Arial, sans-serif">HAS_LOCAL…</text></g><g class="relationship" transform="translate(110.46459134643769 -103.05866679348075) rotate(487.23011639268304)"><path class="b-outline" fill="#A5ABB6" stroke="none" d="M 25 0.5 L 45.90893176717887 0.5 L 45.90893176717887 -0.5 L 25 -0.5 Z M 136.80346301717887 0.5 L 157.71239478435774 0.5 L 157.71239478435774 3.5 L 164.71239478435774 0 L 157.71239478435774 -3.5 L 157.71239478435774 -0.5 L 136.80346301717887 -0.5 Z"/><text text-anchor="middle" pointer-events="none" font-size="8px" fill="#000000" x="91.35619739217887" y="3" transform="rotate(180 91.35619739217887 0)" font-family="Helvetica Neue, Helvetica, Arial, sans-serif">HAS_UNITDEFINITION</text></g><g class="relationship" transform="translate(-45.25893283913924 -201.28593907340266) rotate(456.49548299404705)"><path class="b-outline" fill="#A5ABB6" stroke="none" d="M 24.018736134675446,-6.953439040707552 L 24.277555179777966,-5.987513214418485 A 231.82782106752032 231.82782106752032 0 0 1 48.89864064633939,-11.171163461737024 L 48.7460257891259,-12.159449202480914 A 232.82782106752032 232.82782106752032 0 0 0 24.018736134675446,-6.953439040707552 Z M 115.11192664775984,-12.836254180720033 L 114.97949867566561,-11.845061549488832 A 231.82782106752032 231.82782106752032 0 0 1 139.70117904307762,-7.164612933195484 L 138.98398080089257,-4.2516030325245895 L 146.61773518500723,-5.976652018208828 L 140.65744336599104,-11.04862613409001 L 139.940245123806,-8.135616233419116 A 232.82782106752032 232.82782106752032 0 0 0 115.11192664775984,-12.836254180720033"/><text text-anchor="middle" pointer-events="none" font-size="8px" fill="#000000" x="81.9098352039885" y="-11.374774451415249" transform="rotate(180 81.9098352039885 -14.374774451415249)" font-family="Helvetica Neue, Helvetica, Arial, sans-serif">HAS_PRODUCT</text></g><g class="relationship" transform="translate(110.46459134643769 -103.05866679348075) rotate(517.7636425133592)"><path class="b-outline" fill="#A5ABB6" stroke="none" d="M 25 0.5 L 60.27120126519158 0.5 L 60.27120126519158 -0.5 L 25 -0.5 Z M 121.84932626519158 0.5 L 157.12052753038316 0.5 L 157.12052753038316 3.5 L 164.12052753038316 0 L 157.12052753038316 -3.5 L 157.12052753038316 -0.5 L 121.84932626519158 -0.5 Z"/><text text-anchor="middle" pointer-events="none" font-size="8px" fill="#000000" x="91.06026376519158" y="3" transform="rotate(180 91.06026376519158 0)" font-family="Helvetica Neue, Helvetica, Arial, sans-serif">HAS_SPECIES</text></g><g class="relationship" transform="translate(-64.59116294217468 -31.4901204632989) rotate(382.6440946826257)"><path class="b-outline" fill="#A5ABB6" stroke="none" d="M 25 0.5 L 42.313822104703476 0.5 L 42.313822104703476 -0.5 L 25 -0.5 Z M 122.69663460470348 0.5 L 140.01045670940695 0.5 L 140.01045670940695 3.5 L 147.01045670940695 0 L 140.01045670940695 -3.5 L 140.01045670940695 -0.5 L 122.69663460470348 -0.5 Z"/><text text-anchor="middle" pointer-events="none" font-size="8px" fill="#000000" x="82.50522835470348" y="3" font-family="Helvetica Neue, Helvetica, Arial, sans-serif">IN_COMPARTMENT</text></g><g class="relationship" transform="translate(-45.25893283913924 -201.28593907340266) rotate(534.4210241858289)"><path class="b-outline" fill="#A5ABB6" stroke="none" d="M 25 0.5 L 30.060881000985802 0.5 L 30.060881000985802 -0.5 L 25 -0.5 Z M 108.6741622509858 0.5 L 113.7350432519716 0.5 L 113.7350432519716 3.5 L 120.7350432519716 0 L 113.7350432519716 -3.5 L 113.7350432519716 -0.5 L 108.6741622509858 -0.5 Z"/><text text-anchor="middle" pointer-events="none" font-size="8px" fill="#000000" x="69.3675216259858" y="3" transform="rotate(180 69.3675216259858 0)" font-family="Helvetica Neue, Helvetica, Arial, sans-serif">HAS_KENETICLAW</text></g><g class="relationship" transform="translate(-4.314767591192929 47.99262084314468) rotate(450.3554668857322)"><path class="b-outline" fill="#A5ABB6" stroke="none" d="M 25 0.5 L 36.67277863228492 0.5 L 36.67277863228492 -0.5 L 25 -0.5 Z M 101.35246613228492 0.5 L 113.02524476456983 0.5 L 113.02524476456983 3.5 L 120.02524476456983 0 L 113.02524476456983 -3.5 L 113.02524476456983 -0.5 L 101.35246613228492 -0.5 Z"/><text text-anchor="middle" pointer-events="none" font-size="8px" fill="#000000" x="69.01262238228492" y="3" transform="rotate(180 69.01262238228492 0)" font-family="Helvetica Neue, Helvetica, Arial, sans-serif">IS_COMPOSED</text></g></g><g class="layer nodes"><g class="node" aria-label="graph-node-4" transform="translate(-5.2145082324734995,193.01507457290964)"><circle class="b-outline" cx="0" cy="0" r="25" fill="#F16667" stroke="#eb2728" stroke-width="2px"/><text class="caption" text-anchor="middle" pointer-events="none" x="0" y="5" font-size="10px" fill="#FFFFFF" font-family="Helvetica Neue, Helvetica, Arial, sans-serif"> unit</text></g><g class="node" aria-label="graph-node-8" transform="translate(11.74057073055395,-94.47382989994465)"><circle class="b-outline" cx="0" cy="0" r="25" fill="#DA7194" stroke="#cc3c6c" stroke-width="2px"/><text class="caption" text-anchor="middle" pointer-events="none" x="0" y="5" font-size="10px" fill="#FFFFFF" font-family="Helvetica Neue, Helvetica, Arial, sans-serif"> localPar…</text></g><g class="node" aria-label="graph-node-2" transform="translate(94.1597285662735,34.73488737099039)"><circle class="b-outline" cx="0" cy="0" r="25" fill="#F79767" stroke="#f36924" stroke-width="2px"/><text class="caption" text-anchor="middle" pointer-events="none" x="0" y="5" font-size="10px" fill="#FFFFFF" font-family="Helvetica Neue, Helvetica, Arial, sans-serif"> compart…</text></g><g class="node" aria-label="graph-node-9" transform="translate(254.06478051826468,-94.71731534892966)"><circle class="b-outline" cx="0" cy="0" r="25" fill="#569480" stroke="#447666" stroke-width="2px"/><text class="caption" text-anchor="middle" pointer-events="none" x="0" y="5" font-size="10px" fill="#FFFFFF" font-family="Helvetica Neue, Helvetica, Arial, sans-serif"> Parameter</text></g><g class="node" aria-label="graph-node-3" transform="translate(110.46459134643769,-103.05866679348075)"><circle class="b-outline" cx="0" cy="0" r="25" fill="#57C7E3" stroke="#23b3d7" stroke-width="2px"/><text class="caption" text-anchor="middle" pointer-events="none" x="0" y="5" font-size="10px" fill="#2A2C34" font-family="Helvetica Neue, Helvetica, Arial, sans-serif"> model</text></g><g class="node" aria-label="graph-node-6" transform="translate(-45.25893283913924,-201.28593907340266)"><circle class="b-outline" cx="0" cy="0" r="25" fill="#4C8EDA" stroke="#2870c2" stroke-width="2px"/><text class="caption" text-anchor="middle" pointer-events="none" x="0" y="5" font-size="10px" fill="#FFFFFF" font-family="Helvetica Neue, Helvetica, Arial, sans-serif"> Reaction</text></g><g class="node" aria-label="graph-node-5" transform="translate(-64.59116294217468,-31.4901204632989)"><circle class="b-outline" cx="0" cy="0" r="25" fill="#ECB5C9" stroke="#da7298" stroke-width="2px"/><text class="caption" text-anchor="middle" pointer-events="none" x="0" y="5" font-size="10px" fill="#2A2C34" font-family="Helvetica Neue, Helvetica, Arial, sans-serif"> Species</text></g><g class="node" aria-label="graph-node-7" transform="translate(-190.30364961921236,-187.11791289321778)"><circle class="b-outline" cx="0" cy="0" r="25" fill="#FFC454" stroke="#d7a013" stroke-width="2px"/><text class="caption" text-anchor="middle" pointer-events="none" x="0" y="5" font-size="10px" fill="#2A2C34" font-family="Helvetica Neue, Helvetica, Arial, sans-serif"> KineticL…</text></g><g class="node" aria-label="graph-node-1" transform="translate(-4.314767591192929,47.99262084314468)"><circle class="b-outline" cx="0" cy="0" r="25" fill="#D9C8AE" stroke="#c0a378" stroke-width="2px"/><text class="caption" text-anchor="middle" pointer-events="none" x="0" y="5" font-size="10px" fill="#2A2C34" font-family="Helvetica Neue, Helvetica, Arial, sans-serif"> UnitDefi…</text></g></g></svg>