<svg xmlns="http://www.w3.org/2000/svg" width="792.5396728515625" height="781.1870727539062" viewBox="-242.30531311035156 -396.6702880859375 792.5396728515625 781.1870727539062"><title>Neo4j Graph Visualization</title><desc>Created using Neo4j (http://www.neo4j.com/)</desc><g class="layer relationships"><g class="relationship" transform="translate(213.10194402558832 10.730232931509411) rotate(284.22746431597676)"><path class="b-outline" fill="#A5ABB6" stroke="none" d="M 25 0.5 L 27.49914823570873 0.5 L 27.49914823570873 -0.5 L 25 -0.5 Z M 108.33117948570873 0.5 L 110.83032772141746 0.5 L 110.83032772141746 3.5 L 117.83032772141746 0 L 110.83032772141746 -3.5 L 110.83032772141746 -0.5 L 108.33117948570873 -0.5 Z"/><text text-anchor="middle" pointer-events="none" font-size="8px" fill="#000000" x="67.91516386070873" y="3" font-family="Helvetica Neue, Helvetica, Arial, sans-serif">HAS_COMPARTM…</text></g><g class="relationship" transform="translate(-63.92492249740084 119.96406670445727) rotate(473.03821201936)"><path class="b-outline" fill="#A5ABB6" stroke="none" d="M 25 0.5 L 50.816610240449364 0.5 L 50.816610240449364 -0.5 L 25 -0.5 Z M 115.49629774044936 0.5 L 141.31290798089873 0.5 L 141.31290798089873 3.5 L 148.31290798089873 0 L 141.31290798089873 -3.5 L 141.31290798089873 -0.5 L 115.49629774044936 -0.5 Z"/><text text-anchor="middle" pointer-events="none" font-size="8px" fill="#000000" x="83.15645399044936" y="3" transform="rotate(180 83.15645399044936 0)" font-family="Helvetica Neue, Helvetica, Arial, sans-serif">IS_COMPOSED</text></g><g class="relationship" transform="translate(15.261873300448565 185.86257942111064) rotate(341.56324917217205)"><path class="b-outline" fill="#A5ABB6" stroke="none" d="M 25 0.5 L 99.62174454887096 0.5 L 99.62174454887096 -0.5 L 25 -0.5 Z M 164.30143204887096 0.5 L 238.92317659774193 0.5 L 238.92317659774193 3.5 L 245.92317659774193 0 L 238.92317659774193 -3.5 L 238.92317659774193 -0.5 L 164.30143204887096 -0.5 Z"/><text text-anchor="middle" pointer-events="none" font-size="8px" fill="#000000" x="131.96158829887096" y="3" font-family="Helvetica Neue, Helvetica, Arial, sans-serif">IS_COMPOSED</text></g><g class="relationship" transform="translate(15.261873300448565 185.86257942111064) rotate(327.56749375529006)"><path class="b-outline" fill="#A5ABB6" stroke="none" d="M 25 0.5 L 49.594439338485245 0.5 L 49.594439338485245 -0.5 L 25 -0.5 Z M 114.27412683848524 0.5 L 138.8685661769705 0.5 L 138.8685661769705 3.5 L 145.8685661769705 0 L 138.8685661769705 -3.5 L 138.8685661769705 -0.5 L 114.27412683848524 -0.5 Z"/><text text-anchor="middle" pointer-events="none" font-size="8px" fill="#000000" x="81.93428308848524" y="3" font-family="Helvetica Neue, Helvetica, Arial, sans-serif">IS_COMPOSED</text></g><g class="relationship" transform="translate(15.261873300448565 185.86257942111064) rotate(507.5180966512441)"><path class="b-outline" fill="#A5ABB6" stroke="none" d="M 25 0.5 L 51.29784296417968 0.5 L 51.29784296417968 -0.5 L 25 -0.5 Z M 115.97753046417968 0.5 L 142.27537342835936 0.5 L 142.27537342835936 3.5 L 149.27537342835936 0 L 142.27537342835936 -3.5 L 142.27537342835936 -0.5 L 115.97753046417968 -0.5 Z"/><text text-anchor="middle" pointer-events="none" font-size="8px" fill="#000000" x="83.63768671417968" y="3" transform="rotate(180 83.63768671417968 0)" font-family="Helvetica Neue, Helvetica, Arial, sans-serif">IS_COMPOSED</text></g><g class="relationship" transform="translate(371.5528881194547 75.20931399104325) rotate(349.67364989792395)"><path class="b-outline" fill="#A5ABB6" stroke="none" d="M 25 0.5 L 40.233079809050636 0.5 L 40.233079809050636 -0.5 L 25 -0.5 Z M 104.91276730905064 0.5 L 120.14584711810127 0.5 L 120.14584711810127 3.5 L 127.14584711810127 0 L 120.14584711810127 -3.5 L 120.14584711810127 -0.5 L 104.91276730905064 -0.5 Z"/><text text-anchor="middle" pointer-events="none" font-size="8px" fill="#000000" x="72.57292355905064" y="3" font-family="Helvetica Neue, Helvetica, Arial, sans-serif">IS_COMPOSED</text></g><g class="relationship" transform="translate(295.3467768502933 233.34898252767596) rotate(415.19023462024586)"><path class="b-outline" fill="#A5ABB6" stroke="none" d="M 25 0.5 L 38.55722954009677 0.5 L 38.55722954009677 -0.5 L 25 -0.5 Z M 103.23691704009677 0.5 L 116.79414658019354 0.5 L 116.79414658019354 3.5 L 123.79414658019354 0 L 116.79414658019354 -3.5 L 116.79414658019354 -0.5 L 103.23691704009677 -0.5 Z"/><text text-anchor="middle" pointer-events="none" font-size="8px" fill="#000000" x="70.89707329009677" y="3" font-family="Helvetica Neue, Helvetica, Arial, sans-serif">IS_COMPOSED</text></g><g class="relationship" transform="translate(295.3467768502933 233.34898252767596) rotate(260.17275747349294)"><path class="b-outline" fill="#A5ABB6" stroke="none" d="M 25 0.5 L 31.735660003725286 0.5 L 31.735660003725286 -0.5 L 25 -0.5 Z M 96.41534750372529 0.5 L 103.15100750745057 0.5 L 103.15100750745057 3.5 L 110.15100750745057 0 L 103.15100750745057 -3.5 L 103.15100750745057 -0.5 L 96.41534750372529 -0.5 Z"/><text text-anchor="middle" pointer-events="none" font-size="8px" fill="#000000" x="64.07550375372529" y="3" transform="rotate(180 64.07550375372529 0)" font-family="Helvetica Neue, Helvetica, Arial, sans-serif">IS_COMPOSED</text></g><g class="relationship" transform="translate(303.5088884663222 -210.1477608061513) rotate(304.1139982703139)"><path class="b-outline" fill="#A5ABB6" stroke="none" d="M 25 0.5 L 40.56904145836788 0.5 L 40.56904145836788 -0.5 L 25 -0.5 Z M 105.24872895836788 0.5 L 120.81777041673575 0.5 L 120.81777041673575 3.5 L 127.81777041673575 0 L 120.81777041673575 -3.5 L 120.81777041673575 -0.5 L 105.24872895836788 -0.5 Z"/><text text-anchor="middle" pointer-events="none" font-size="8px" fill="#000000" x="72.90888520836788" y="3" font-family="Helvetica Neue, Helvetica, Arial, sans-serif">IS_COMPOSED</text></g><g class="relationship" transform="translate(303.5088884663222 -210.1477608061513) rotate(258.78319885275914)"><path class="b-outline" fill="#A5ABB6" stroke="none" d="M 25 0.5 L 44.455208736643826 0.5 L 44.455208736643826 -0.5 L 25 -0.5 Z M 109.13489623664383 0.5 L 128.59010497328765 0.5 L 128.59010497328765 3.5 L 135.59010497328765 0 L 128.59010497328765 -3.5 L 128.59010497328765 -0.5 L 109.13489623664383 -0.5 Z"/><text text-anchor="middle" pointer-events="none" font-size="8px" fill="#000000" x="76.79505248664383" y="3" transform="rotate(180 76.79505248664383 0)" font-family="Helvetica Neue, Helvetica, Arial, sans-serif">IS_COMPOSED</text></g><g class="relationship" transform="translate(382.18001948589574 -23.7481508070844) rotate(387.2717839702624)"><path class="b-outline" fill="#A5ABB6" stroke="none" d="M 25 0.5 L 42.38227505921634 0.5 L 42.38227505921634 -0.5 L 25 -0.5 Z M 107.06196255921634 0.5 L 124.44423761843268 0.5 L 124.44423761843268 3.5 L 131.44423761843268 0 L 124.44423761843268 -3.5 L 124.44423761843268 -0.5 L 107.06196255921634 -0.5 Z"/><text text-anchor="middle" pointer-events="none" font-size="8px" fill="#000000" x="74.72211880921634" y="3" font-family="Helvetica Neue, Helvetica, Arial, sans-serif">IS_COMPOSED</text></g><g class="relationship" transform="translate(382.18001948589574 -23.7481508070844) rotate(491.5666426294816)"><path class="b-outline" fill="#A5ABB6" stroke="none" d="M 25 0.5 L 46.98011311364287 0.5 L 46.98011311364287 -0.5 L 25 -0.5 Z M 111.65980061364287 0.5 L 133.63991372728574 0.5 L 133.63991372728574 3.5 L 140.63991372728574 0 L 133.63991372728574 -3.5 L 133.63991372728574 -0.5 L 111.65980061364287 -0.5 Z"/><text text-anchor="middle" pointer-events="none" font-size="8px" fill="#000000" x="79.31995686364287" y="3" transform="rotate(180 79.31995686364287 0)" font-family="Helvetica Neue, Helvetica, Arial, sans-serif">IS_COMPOSED</text></g><g class="relationship" transform="translate(213.10194402558832 10.730232931509411) rotate(518.48029919857)"><path class="b-outline" fill="#A5ABB6" stroke="none" d="M 25 0.5 L 99.94524192346773 0.5 L 99.94524192346773 -0.5 L 25 -0.5 Z M 190.83977317346773 0.5 L 265.78501509693547 0.5 L 265.78501509693547 3.5 L 272.78501509693547 0 L 265.78501509693547 -3.5 L 265.78501509693547 -0.5 L 190.83977317346773 -0.5 Z"/><text text-anchor="middle" pointer-events="none" font-size="8px" fill="#000000" x="145.39250754846773" y="3" transform="rotate(180 145.39250754846773 0)" font-family="Helvetica Neue, Helvetica, Arial, sans-serif">HAS_UNITDEFINITION</text></g><g class="relationship" transform="translate(213.10194402558832 10.730232931509411) rotate(498.48404520294656)"><path class="b-outline" fill="#A5ABB6" stroke="none" d="M 25 0.5 L 83.16256782001844 0.5 L 83.16256782001844 -0.5 L 25 -0.5 Z M 174.05709907001844 0.5 L 232.21966689003688 0.5 L 232.21966689003688 3.5 L 239.21966689003688 0 L 232.21966689003688 -3.5 L 232.21966689003688 -0.5 L 174.05709907001844 -0.5 Z"/><text text-anchor="middle" pointer-events="none" font-size="8px" fill="#000000" x="128.60983344501844" y="3" transform="rotate(180 128.60983344501844 0)" font-family="Helvetica Neue, Helvetica, Arial, sans-serif">HAS_UNITDEFINITION</text></g><g class="relationship" transform="translate(213.10194402558832 10.730232931509411) rotate(382.14308036400223)"><path class="b-outline" fill="#A5ABB6" stroke="none" d="M 25 0.5 L 36.58672407868373 0.5 L 36.58672407868373 -0.5 L 25 -0.5 Z M 127.48125532868373 0.5 L 139.06797940736746 0.5 L 139.06797940736746 3.5 L 146.06797940736746 0 L 139.06797940736746 -3.5 L 139.06797940736746 -0.5 L 127.48125532868373 -0.5 Z"/><text text-anchor="middle" pointer-events="none" font-size="8px" fill="#000000" x="82.03398970368373" y="3" font-family="Helvetica Neue, Helvetica, Arial, sans-serif">HAS_UNITDEFINITION</text></g><g class="relationship" transform="translate(213.10194402558832 10.730232931509411) rotate(429.7236262054338)"><path class="b-outline" fill="#A5ABB6" stroke="none" d="M 25 0.5 L 69.71540773748198 0.5 L 69.71540773748198 -0.5 L 25 -0.5 Z M 160.609938987482 0.5 L 205.32534672496396 0.5 L 205.32534672496396 3.5 L 212.32534672496396 0 L 205.32534672496396 -3.5 L 205.32534672496396 -0.5 L 160.609938987482 -0.5 Z"/><text text-anchor="middle" pointer-events="none" font-size="8px" fill="#000000" x="115.16267336248198" y="3" font-family="Helvetica Neue, Helvetica, Arial, sans-serif">HAS_UNITDEFINITION</text></g><g class="relationship" transform="translate(213.10194402558832 10.730232931509411) rotate(292.2596368399029)"><path class="b-outline" fill="#A5ABB6" stroke="none" d="M 25 0.5 L 70.38473314385918 0.5 L 70.38473314385918 -0.5 L 25 -0.5 Z M 161.2792643938592 0.5 L 206.66399753771836 0.5 L 206.66399753771836 3.5 L 213.66399753771836 0 L 206.66399753771836 -3.5 L 206.66399753771836 -0.5 L 161.2792643938592 -0.5 Z"/><text text-anchor="middle" pointer-events="none" font-size="8px" fill="#000000" x="115.83199876885918" y="3" font-family="Helvetica Neue, Helvetica, Arial, sans-serif">HAS_UNITDEFINITION</text></g><g class="relationship" transform="translate(213.10194402558832 10.730232931509411) rotate(348.4742758740291)"><path class="b-outline" fill="#A5ABB6" stroke="none" d="M 25 0.5 L 37.33157672146861 0.5 L 37.33157672146861 -0.5 L 25 -0.5 Z M 128.2261079714686 0.5 L 140.55768469293722 0.5 L 140.55768469293722 3.5 L 147.55768469293722 0 L 140.55768469293722 -3.5 L 140.55768469293722 -0.5 L 128.2261079714686 -0.5 Z"/><text text-anchor="middle" pointer-events="none" font-size="8px" fill="#000000" x="82.77884234646861" y="3" font-family="Helvetica Neue, Helvetica, Arial, sans-serif">HAS_UNITDEFINITION</text></g><g class="relationship" transform="translate(213.10194402558832 10.730232931509411) rotate(242.59989451924378)"><path class="b-outline" fill="#A5ABB6" stroke="none" d="M 25 0.5 L 42.983726042811 0.5 L 42.983726042811 -0.5 L 25 -0.5 Z M 104.561851042811 0.5 L 122.545577085622 0.5 L 122.545577085622 3.5 L 129.545577085622 0 L 122.545577085622 -3.5 L 122.545577085622 -0.5 L 104.561851042811 -0.5 Z"/><text text-anchor="middle" pointer-events="none" font-size="8px" fill="#000000" x="73.772788542811" y="3" transform="rotate(180 73.772788542811 0)" font-family="Helvetica Neue, Helvetica, Arial, sans-serif">HAS_SPECIES</text></g><g class="relationship" transform="translate(213.10194402558832 10.730232931509411) rotate(256.8635971303374)"><path class="b-outline" fill="#A5ABB6" stroke="none" d="M 25 0.5 L 85.91059907228217 0.5 L 85.91059907228217 -0.5 L 25 -0.5 Z M 147.48872407228217 0.5 L 208.39932314456433 0.5 L 208.39932314456433 3.5 L 215.39932314456433 0 L 208.39932314456433 -3.5 L 208.39932314456433 -0.5 L 147.48872407228217 -0.5 Z"/><text text-anchor="middle" pointer-events="none" font-size="8px" fill="#000000" x="116.69966157228217" y="3" transform="rotate(180 116.69966157228217 0)" font-family="Helvetica Neue, Helvetica, Arial, sans-serif">HAS_SPECIES</text></g><g class="relationship" transform="translate(213.10194402558832 10.730232931509411) rotate(233.8543987994837)"><path class="b-outline" fill="#A5ABB6" stroke="none" d="M 25 0.5 L 89.99768343392907 0.5 L 89.99768343392907 -0.5 L 25 -0.5 Z M 151.57580843392907 0.5 L 216.57349186785814 0.5 L 216.57349186785814 3.5 L 223.57349186785814 0 L 216.57349186785814 -3.5 L 216.57349186785814 -0.5 L 151.57580843392907 -0.5 Z"/><text text-anchor="middle" pointer-events="none" font-size="8px" fill="#000000" x="120.78674593392907" y="3" transform="rotate(180 120.78674593392907 0)" font-family="Helvetica Neue, Helvetica, Arial, sans-serif">HAS_SPECIES</text></g><g class="relationship" transform="translate(213.10194402558832 10.730232931509411) rotate(204.08353911952764)"><path class="b-outline" fill="#A5ABB6" stroke="none" d="M 25 0.5 L 25.37692294969122 0.5 L 25.37692294969122 -0.5 L 25 -0.5 Z M 65.61129794969122 0.5 L 65.98822089938244 0.5 L 65.98822089938244 3.5 L 72.98822089938244 0 L 65.98822089938244 -3.5 L 65.98822089938244 -0.5 L 65.61129794969122 -0.5 Z"/><text text-anchor="middle" pointer-events="none" font-size="8px" fill="#000000" x="45.49411044969122" y="3" transform="rotate(180 45.49411044969122 0)" font-family="Helvetica Neue, Helvetica, Arial, sans-serif">HAS_S…</text></g><g class="relationship" transform="translate(141.97985011364318 -126.47757717530773) rotate(359.33035256040444)"><path class="b-outline" fill="#A5ABB6" stroke="none" d="M 25 0.5 L 27.05988564692099 0.5 L 27.05988564692099 -0.5 L 25 -0.5 Z M 72.17316689692099 0.5 L 74.23305254384198 0.5 L 74.23305254384198 3.5 L 81.23305254384198 0 L 74.23305254384198 -3.5 L 74.23305254384198 -0.5 L 72.17316689692099 -0.5 Z"/><text text-anchor="middle" pointer-events="none" font-size="8px" fill="#000000" x="49.61652627192099" y="3" font-family="Helvetica Neue, Helvetica, Arial, sans-serif">IN_COM…</text></g><g class="relationship" transform="translate(158.46637129222015 -223.3782649075513) rotate(406.8288530567006)"><path class="b-outline" fill="#A5ABB6" stroke="none" d="M 25 0.5 L 25.89022847376451 0.5 L 25.89022847376451 -0.5 L 25 -0.5 Z M 98.27304097376451 0.5 L 99.16326944752902 0.5 L 99.16326944752902 3.5 L 106.16326944752902 0 L 99.16326944752902 -3.5 L 99.16326944752902 -0.5 L 98.27304097376451 -0.5 Z"/><text text-anchor="middle" pointer-events="none" font-size="8px" fill="#000000" x="62.08163472376451" y="3" font-family="Helvetica Neue, Helvetica, Arial, sans-serif">IN_COMPARTM…</text></g><g class="relationship" transform="translate(66.48354384551668 -189.99800521154933) rotate(378.9173456490217)"><path class="b-outline" fill="#A5ABB6" stroke="none" d="M 25 0.5 L 52.35751123428818 0.5 L 52.35751123428818 -0.5 L 25 -0.5 Z M 132.74032373428818 0.5 L 160.09783496857636 0.5 L 160.09783496857636 3.5 L 167.09783496857636 0 L 160.09783496857636 -3.5 L 160.09783496857636 -0.5 L 132.74032373428818 -0.5 Z"/><text text-anchor="middle" pointer-events="none" font-size="8px" fill="#000000" x="92.54891748428818" y="3" font-family="Helvetica Neue, Helvetica, Arial, sans-serif">IN_COMPARTMENT</text></g><g class="relationship" transform="translate(123.64345552593636 -29.255642954655762) rotate(321.6744510171727)"><path class="b-outline" fill="#A5ABB6" stroke="none" d="M 25 0.5 L 35.6981434957421 0.5 L 35.6981434957421 -0.5 L 25 -0.5 Z M 116.0809559957421 0.5 L 126.7790994914842 0.5 L 126.7790994914842 3.5 L 133.7790994914842 0 L 126.7790994914842 -3.5 L 126.7790994914842 -0.5 L 116.0809559957421 -0.5 Z"/><text text-anchor="middle" pointer-events="none" font-size="8px" fill="#000000" x="75.8895497457421" y="3" font-family="Helvetica Neue, Helvetica, Arial, sans-serif">IN_COMPARTMENT</text></g><g class="relationship" transform="translate(213.10194402558832 10.730232931509411) rotate(213.48659781921884)"><path class="b-outline" fill="#A5ABB6" stroke="none" d="M 25 0.5 L 119.9693842925393 0.5 L 119.9693842925393 -0.5 L 25 -0.5 Z M 188.2037592925393 0.5 L 283.1731435850786 0.5 L 283.1731435850786 3.5 L 290.1731435850786 0 L 283.1731435850786 -3.5 L 283.1731435850786 -0.5 L 188.2037592925393 -0.5 Z"/><text text-anchor="middle" pointer-events="none" font-size="8px" fill="#000000" x="154.0865717925393" y="3" transform="rotate(180 154.0865717925393 0)" font-family="Helvetica Neue, Helvetica, Arial, sans-serif">HAS_REACTION</text></g><g class="relationship" transform="translate(213.10194402558832 10.730232931509411) rotate(196.06146058841944)"><path class="b-outline" fill="#A5ABB6" stroke="none" d="M 25 0.5 L 97.62708187629974 0.5 L 97.62708187629974 -0.5 L 25 -0.5 Z M 165.86145687629974 0.5 L 238.48853875259948 0.5 L 238.48853875259948 3.5 L 245.48853875259948 0 L 238.48853875259948 -3.5 L 238.48853875259948 -0.5 L 165.86145687629974 -0.5 Z"/><text text-anchor="middle" pointer-events="none" font-size="8px" fill="#000000" x="131.74426937629974" y="3" transform="rotate(180 131.74426937629974 0)" font-family="Helvetica Neue, Helvetica, Arial, sans-serif">HAS_REACTION</text></g><g class="relationship" transform="translate(-49.75715507666338 -163.16400060270874) rotate(224.26951260940058)"><path class="b-outline" fill="#A5ABB6" stroke="none" d="M 25 0.5 L 38.834910461902695 0.5 L 38.834910461902695 -0.5 L 25 -0.5 Z M 117.4481917119027 0.5 L 131.2831021738054 0.5 L 131.2831021738054 3.5 L 138.2831021738054 0 L 131.2831021738054 -3.5 L 131.2831021738054 -0.5 L 117.4481917119027 -0.5 Z"/><text text-anchor="middle" pointer-events="none" font-size="8px" fill="#000000" x="78.1415510869027" y="3" transform="rotate(180 78.1415510869027 0)" font-family="Helvetica Neue, Helvetica, Arial, sans-serif">HAS_KENETICLAW</text></g><g class="relationship" transform="translate(-46.828201643147544 -64.10538004216961) rotate(204.4866923786857)"><path class="b-outline" fill="#A5ABB6" stroke="none" d="M 25 0.5 L 42.24800822143497 0.5 L 42.24800822143497 -0.5 L 25 -0.5 Z M 120.86128947143497 0.5 L 138.10929769286994 0.5 L 138.10929769286994 3.5 L 145.10929769286994 0 L 138.10929769286994 -3.5 L 138.10929769286994 -0.5 L 120.86128947143497 -0.5 Z"/><text text-anchor="middle" pointer-events="none" font-size="8px" fill="#000000" x="81.55464884643497" y="3" transform="rotate(180 81.55464884643497 0)" font-family="Helvetica Neue, Helvetica, Arial, sans-serif">HAS_KENETICLAW</text></g><g class="relationship" transform="translate(-49.75715507666338 -163.16400060270874) rotate(465.18978153967424)"><path class="b-outline" fill="#A5ABB6" stroke="none" d="M 25 0.5 L 44.25304564187971 0.5 L 44.25304564187971 -0.5 L 25 -0.5 Z M 146.5811706418797 0.5 L 165.83421628375942 0.5 L 165.83421628375942 3.5 L 172.83421628375942 0 L 165.83421628375942 -3.5 L 165.83421628375942 -0.5 L 146.5811706418797 -0.5 Z"/><text text-anchor="middle" pointer-events="none" font-size="8px" fill="#000000" x="95.41710814187971" y="3" transform="rotate(180 95.41710814187971 0)" font-family="Helvetica Neue, Helvetica, Arial, sans-serif">HAS_LOCALPARAMETER</text></g><g class="relationship" transform="translate(-49.75715507666338 -163.16400060270874) rotate(495.3774409009301)"><path class="b-outline" fill="#A5ABB6" stroke="none" d="M 25 0.5 L 34.20175665543735 0.5 L 34.20175665543735 -0.5 L 25 -0.5 Z M 136.52988165543735 0.5 L 145.7316383108747 0.5 L 145.7316383108747 3.5 L 152.7316383108747 0 L 145.7316383108747 -3.5 L 145.7316383108747 -0.5 L 136.52988165543735 -0.5 Z"/><text text-anchor="middle" pointer-events="none" font-size="8px" fill="#000000" x="85.36581915543735" y="3" transform="rotate(180 85.36581915543735 0)" font-family="Helvetica Neue, Helvetica, Arial, sans-serif">HAS_LOCALPARAMETER</text></g><g class="relationship" transform="translate(-46.828201643147544 -64.10538004216961) rotate(504.6736525136634)"><path class="b-outline" fill="#A5ABB6" stroke="none" d="M 25 0.5 L 47.36000509765161 0.5 L 47.36000509765161 -0.5 L 25 -0.5 Z M 149.6881300976516 0.5 L 172.04813519530322 0.5 L 172.04813519530322 3.5 L 179.04813519530322 0 L 172.04813519530322 -3.5 L 172.04813519530322 -0.5 L 149.6881300976516 -0.5 Z"/><text text-anchor="middle" pointer-events="none" font-size="8px" fill="#000000" x="98.52406759765161" y="3" transform="rotate(180 98.52406759765161 0)" font-family="Helvetica Neue, Helvetica, Arial, sans-serif">HAS_LOCALPARAMETER</text></g><g class="relationship" transform="translate(123.64345552593636 -29.255642954655762) rotate(217.67705986661053)"><path class="b-outline" fill="#A5ABB6" stroke="none" d="M 25 0.5 L 75.77799645437005 0.5 L 75.77799645437005 -0.5 L 25 -0.5 Z M 136.30924645437005 0.5 L 187.0872429087401 0.5 L 187.0872429087401 3.5 L 194.0872429087401 0 L 187.0872429087401 -3.5 L 187.0872429087401 -0.5 L 136.30924645437005 -0.5 Z"/><text text-anchor="middle" pointer-events="none" font-size="8px" fill="#000000" x="106.04362145437005" y="3" transform="rotate(180 106.04362145437005 0)" font-family="Helvetica Neue, Helvetica, Arial, sans-serif">IS_REACTANT</text></g><g class="relationship" transform="translate(66.48354384551668 -189.99800521154933) rotate(527.0010647563471)"><path class="b-outline" fill="#A5ABB6" stroke="none" d="M 25 0.5 L 25.883272494555982 0.5 L 25.883272494555982 -0.5 L 25 -0.5 Z M 86.41452249455598 0.5 L 87.29779498911196 0.5 L 87.29779498911196 3.5 L 94.29779498911196 0 L 87.29779498911196 -3.5 L 87.29779498911196 -0.5 L 86.41452249455598 -0.5 Z"/><text text-anchor="middle" pointer-events="none" font-size="8px" fill="#000000" x="56.14889749455598" y="3" transform="rotate(180 56.14889749455598 0)" font-family="Helvetica Neue, Helvetica, Arial, sans-serif">IS_REACTANT</text></g><g class="relationship" transform="translate(141.97985011364318 -126.47757717530773) rotate(521.719176285412)"><path class="b-outline" fill="#A5ABB6" stroke="none" d="M 25 0.5 L 65.65616761033519 0.5 L 65.65616761033519 -0.5 L 25 -0.5 Z M 126.18741761033519 0.5 L 166.84358522067038 0.5 L 166.84358522067038 3.5 L 173.84358522067038 0 L 166.84358522067038 -3.5 L 166.84358522067038 -0.5 L 126.18741761033519 -0.5 Z"/><text text-anchor="middle" pointer-events="none" font-size="8px" fill="#000000" x="95.92179261033519" y="3" transform="rotate(180 95.92179261033519 0)" font-family="Helvetica Neue, Helvetica, Arial, sans-serif">IS_REACTANT</text></g><g class="relationship" transform="translate(-49.75715507666338 -163.16400060270874) rotate(370.8318958637359)"><path class="b-outline" fill="#A5ABB6" stroke="none" d="M 25 0.5 L 60.88103559466961 0.5 L 60.88103559466961 -0.5 L 25 -0.5 Z M 127.33416059466961 0.5 L 163.21519618933922 0.5 L 163.21519618933922 3.5 L 170.21519618933922 0 L 163.21519618933922 -3.5 L 163.21519618933922 -0.5 L 127.33416059466961 -0.5 Z"/><text text-anchor="middle" pointer-events="none" font-size="8px" fill="#000000" x="94.10759809466961" y="3" font-family="Helvetica Neue, Helvetica, Arial, sans-serif">HAS_PRODUCT</text></g><g class="relationship" transform="translate(-46.828201643147544 -64.10538004216961) rotate(371.5538509981186)"><path class="b-outline" fill="#A5ABB6" stroke="none" d="M 25 0.5 L 50.2721301238586 0.5 L 50.2721301238586 -0.5 L 25 -0.5 Z M 116.7252551238586 0.5 L 141.9973852477172 0.5 L 141.9973852477172 3.5 L 148.9973852477172 0 L 141.9973852477172 -3.5 L 141.9973852477172 -0.5 L 116.7252551238586 -0.5 Z"/><text text-anchor="middle" pointer-events="none" font-size="8px" fill="#000000" x="83.4986926238586" y="3" font-family="Helvetica Neue, Helvetica, Arial, sans-serif">HAS_PRODUCT</text></g><g class="relationship" transform="translate(-46.828201643147544 -64.10538004216961) rotate(322.1947570676736)"><path class="b-outline" fill="#A5ABB6" stroke="none" d="M 25 0.5 L 93.19044324795448 0.5 L 93.19044324795448 -0.5 L 25 -0.5 Z M 159.64356824795448 0.5 L 227.83401149590895 0.5 L 227.83401149590895 3.5 L 234.83401149590895 0 L 227.83401149590895 -3.5 L 227.83401149590895 -0.5 L 159.64356824795448 -0.5 Z"/><text text-anchor="middle" pointer-events="none" font-size="8px" fill="#000000" x="126.41700574795448" y="3" font-family="Helvetica Neue, Helvetica, Arial, sans-serif">HAS_PRODUCT</text></g><g class="relationship" transform="translate(-101.59309634879233 27.758529039661358) rotate(413.5318309863755)"><path class="b-outline" fill="#A5ABB6" stroke="none" d="M 25 0.5 L 69.35130856133345 0.5 L 69.35130856133345 -0.5 L 25 -0.5 Z M 120.24974606133345 0.5 L 164.6010546226669 0.5 L 164.6010546226669 3.5 L 171.6010546226669 0 L 164.6010546226669 -3.5 L 164.6010546226669 -0.5 L 120.24974606133345 -0.5 Z"/><text text-anchor="middle" pointer-events="none" font-size="8px" fill="#000000" x="94.80052731133345" y="3" font-family="Helvetica Neue, Helvetica, Arial, sans-serif">HAS_UNITS</text></g><g class="relationship" transform="translate(-176.2575654120584 -38.31937139646586) rotate(414.63694565491426)"><path class="b-outline" fill="#A5ABB6" stroke="none" d="M 25 0.5 L 68.09750896562255 0.5 L 68.09750896562255 -0.5 L 25 -0.5 Z M 118.99594646562255 0.5 L 162.0934554312451 0.5 L 162.0934554312451 3.5 L 169.0934554312451 0 L 162.0934554312451 -3.5 L 162.0934554312451 -0.5 L 118.99594646562255 -0.5 Z"/><text text-anchor="middle" pointer-events="none" font-size="8px" fill="#000000" x="93.54672771562255" y="3" font-family="Helvetica Neue, Helvetica, Arial, sans-serif">HAS_UNITS</text></g><g class="relationship" transform="translate(-213.30531604271962 53.88195765926564) rotate(383.86338689715035)"><path class="b-outline" fill="#A5ABB6" stroke="none" d="M 25 0.5 L 52.72291100001772 0.5 L 52.72291100001772 -0.5 L 25 -0.5 Z M 103.62134850001772 0.5 L 131.34425950003543 0.5 L 131.34425950003543 3.5 L 138.34425950003543 0 L 131.34425950003543 -3.5 L 131.34425950003543 -0.5 L 103.62134850001772 -0.5 Z"/><text text-anchor="middle" pointer-events="none" font-size="8px" fill="#000000" x="78.17212975001772" y="3" font-family="Helvetica Neue, Helvetica, Arial, sans-serif">HAS_UNITS</text></g><g class="relationship" transform="translate(213.10194402558832 10.730232931509411) rotate(212.2811183693808)"><path class="b-outline" fill="#A5ABB6" stroke="none" d="M 25 0.5 L 55.16892212469983 0.5 L 55.16892212469983 -0.5 L 25 -0.5 Z M 131.26267212469983 0.5 L 161.43159424939967 0.5 L 161.43159424939967 3.5 L 168.43159424939967 0 L 161.43159424939967 -3.5 L 161.43159424939967 -0.5 L 131.26267212469983 -0.5 Z"/><text text-anchor="middle" pointer-events="none" font-size="8px" fill="#000000" x="93.21579712469983" y="3" transform="rotate(180 93.21579712469983 0)" font-family="Helvetica Neue, Helvetica, Arial, sans-serif">HAS_PARAMETER</text></g><g class="relationship" transform="translate(213.10194402558832 10.730232931509411) rotate(182.1286240358121)"><path class="b-outline" fill="#A5ABB6" stroke="none" d="M 25 0.5 L 49.70632897166803 0.5 L 49.70632897166803 -0.5 L 25 -0.5 Z M 125.80007897166803 0.5 L 150.50640794333606 0.5 L 150.50640794333606 3.5 L 157.50640794333606 0 L 150.50640794333606 -3.5 L 150.50640794333606 -0.5 L 125.80007897166803 -0.5 Z"/><text text-anchor="middle" pointer-events="none" font-size="8px" fill="#000000" x="87.75320397166803" y="3" transform="rotate(180 87.75320397166803 0)" font-family="Helvetica Neue, Helvetica, Arial, sans-serif">HAS_PARAMETER</text></g><g class="relationship" transform="translate(213.10194402558832 10.730232931509411) rotate(510.11594546070137)"><path class="b-outline" fill="#A5ABB6" stroke="none" d="M 25 0.5 L 46.00378643641582 0.5 L 46.00378643641582 -0.5 L 25 -0.5 Z M 122.09753643641582 0.5 L 143.10132287283164 0.5 L 143.10132287283164 3.5 L 150.10132287283164 0 L 143.10132287283164 -3.5 L 143.10132287283164 -0.5 L 122.09753643641582 -0.5 Z"/><text text-anchor="middle" pointer-events="none" font-size="8px" fill="#000000" x="84.05066143641582" y="3" transform="rotate(180 84.05066143641582 0)" font-family="Helvetica Neue, Helvetica, Arial, sans-serif">HAS_PARAMETER</text></g><g class="relationship" transform="translate(213.10194402558832 10.730232931509411) rotate(480.14022760427696)"><path class="b-outline" fill="#A5ABB6" stroke="none" d="M 25 0.5 L 56.939680477620044 0.5 L 56.939680477620044 -0.5 L 25 -0.5 Z M 133.03343047762004 0.5 L 164.9731109552401 0.5 L 164.9731109552401 3.5 L 171.9731109552401 0 L 164.9731109552401 -3.5 L 164.9731109552401 -0.5 L 133.03343047762004 -0.5 Z"/><text text-anchor="middle" pointer-events="none" font-size="8px" fill="#000000" x="94.98655547762004" y="3" transform="rotate(180 94.98655547762004 0)" font-family="Helvetica Neue, Helvetica, Arial, sans-serif">HAS_PARAMETER</text></g><g class="relationship" transform="translate(213.10194402558832 10.730232931509411) rotate(450.0208440558554)"><path class="b-outline" fill="#A5ABB6" stroke="none" d="M 25 0.5 L 42.19341766252357 0.5 L 42.19341766252357 -0.5 L 25 -0.5 Z M 118.28716766252357 0.5 L 135.48058532504714 0.5 L 135.48058532504714 3.5 L 142.48058532504714 0 L 135.48058532504714 -3.5 L 135.48058532504714 -0.5 L 118.28716766252357 -0.5 Z"/><text text-anchor="middle" pointer-events="none" font-size="8px" fill="#000000" x="80.24029266252357" y="3" transform="rotate(180 80.24029266252357 0)" font-family="Helvetica Neue, Helvetica, Arial, sans-serif">HAS_PARAMETER</text></g></g><g class="layer nodes"><g class="node" aria-label="graph-node0" transform="translate(-63.92492249740084,119.96406670445727)"><circle class="b-outline" cx="0" cy="0" r="25" fill="#D9C8AE" stroke="#c0a378" stroke-width="2px"/><text class="caption" text-anchor="middle" pointer-events="none" x="0" y="5" font-size="10px" fill="#2A2C34" font-family="Helvetica Neue, Helvetica, Arial, sans-serif"> per_sec…</text></g><g class="node" aria-label="graph-node1" transform="translate(15.261873300448565,185.86257942111064)"><circle class="b-outline" cx="0" cy="0" r="25" fill="#D9C8AE" stroke="#c0a378" stroke-width="2px"/><text class="caption" text-anchor="middle" pointer-events="none" x="0" y="5" font-size="10px" fill="#2A2C34" font-family="Helvetica Neue, Helvetica, Arial, sans-serif"> litre_per…</text></g><g class="node" aria-label="graph-node2" transform="translate(371.5528881194547,75.20931399104325)"><circle class="b-outline" cx="0" cy="0" r="25" fill="#D9C8AE" stroke="#c0a378" stroke-width="2px"/><text class="caption" text-anchor="middle" pointer-events="none" x="0" y="5" font-size="10px" fill="#2A2C34" font-family="Helvetica Neue, Helvetica, Arial, sans-serif"> millimole</text></g><g class="node" aria-label="graph-node3" transform="translate(295.3467768502933,233.34898252767596)"><circle class="b-outline" cx="0" cy="0" r="25" fill="#D9C8AE" stroke="#c0a378" stroke-width="2px"/><text class="caption" text-anchor="middle" pointer-events="none" x="0" y="5" font-size="10px" fill="#2A2C34" font-family="Helvetica Neue, Helvetica, Arial, sans-serif"> gram_pe…</text></g><g class="node" aria-label="graph-node4" transform="translate(303.5088884663222,-210.1477608061513)"><circle class="b-outline" cx="0" cy="0" r="25" fill="#D9C8AE" stroke="#c0a378" stroke-width="2px"/><text class="caption" text-anchor="middle" pointer-events="none" x="0" y="5" font-size="10px" fill="#2A2C34" font-family="Helvetica Neue, Helvetica, Arial, sans-serif"> mole_pe…</text></g><g class="node" aria-label="graph-node5" transform="translate(382.18001948589574,-23.7481508070844)"><circle class="b-outline" cx="0" cy="0" r="25" fill="#D9C8AE" stroke="#c0a378" stroke-width="2px"/><text class="caption" text-anchor="middle" pointer-events="none" x="0" y="5" font-size="10px" fill="#2A2C34" font-family="Helvetica Neue, Helvetica, Arial, sans-serif"> millimole…</text></g><g class="node" aria-label="graph-node6" transform="translate(248.20564708171236,-127.7191533031539)"><circle class="b-outline" cx="0" cy="0" r="25" fill="#F79767" stroke="#f36924" stroke-width="2px"/><text class="caption" text-anchor="middle" pointer-events="none" x="0" y="5" font-size="10px" fill="#FFFFFF" font-family="Helvetica Neue, Helvetica, Arial, sans-serif"> comp</text></g><g class="node" aria-label="graph-node7" transform="translate(213.10194402558832,10.730232931509411)"><circle class="b-outline" cx="0" cy="0" r="25" fill="#57C7E3" stroke="#23b3d7" stroke-width="2px"/><text class="caption" text-anchor="middle" pointer-events="none" x="0" y="5" font-size="10px" fill="#2A2C34" font-family="Helvetica Neue, Helvetica, Arial, sans-serif"> fa9af6f1…</text></g><g class="node" aria-label="graph-node8" transform="translate(-131.75005376297105,279.45424082688913)"><circle class="b-outline" cx="0" cy="0" r="25" fill="#F16667" stroke="#eb2728" stroke-width="2px"/><text class="caption" text-anchor="middle" pointer-events="none" x="0" y="5" font-size="10px" fill="#FFFFFF" font-family="Helvetica Neue, Helvetica, Arial, sans-serif"> f5f0cb65…</text></g><g class="node" aria-label="graph-node9" transform="translate(272.27947135828555,100.1810650414535)"><circle class="b-outline" cx="0" cy="0" r="25" fill="#F16667" stroke="#eb2728" stroke-width="2px"/><text class="caption" text-anchor="middle" pointer-events="none" x="0" y="5" font-size="10px" fill="#FFFFFF" font-family="Helvetica Neue, Helvetica, Arial, sans-serif"> 56985b5…</text></g><g class="node" aria-label="graph-node10" transform="translate(159.47900865105595,94.22478820679592)"><circle class="b-outline" cx="0" cy="0" r="25" fill="#F16667" stroke="#eb2728" stroke-width="2px"/><text class="caption" text-anchor="middle" pointer-events="none" x="0" y="5" font-size="10px" fill="#FFFFFF" font-family="Helvetica Neue, Helvetica, Arial, sans-serif"> 372a959…</text></g><g class="node" aria-label="graph-node11" transform="translate(521.2343838341308,47.93645869677584)"><circle class="b-outline" cx="0" cy="0" r="25" fill="#F16667" stroke="#eb2728" stroke-width="2px"/><text class="caption" text-anchor="middle" pointer-events="none" x="0" y="5" font-size="10px" fill="#FFFFFF" font-family="Helvetica Neue, Helvetica, Arial, sans-serif"> 6d15457…</text></g><g class="node" aria-label="graph-node12" transform="translate(380.2864383548061,355.51670314170275)"><circle class="b-outline" cx="0" cy="0" r="25" fill="#F16667" stroke="#eb2728" stroke-width="2px"/><text class="caption" text-anchor="middle" pointer-events="none" x="0" y="5" font-size="10px" fill="#FFFFFF" font-family="Helvetica Neue, Helvetica, Arial, sans-serif"> a587530…</text></g><g class="node" aria-label="graph-node13" transform="translate(389.2154033719261,-336.66915922506564)"><circle class="b-outline" cx="0" cy="0" r="25" fill="#F16667" stroke="#eb2728" stroke-width="2px"/><text class="caption" text-anchor="middle" pointer-events="none" x="0" y="5" font-size="10px" fill="#FFFFFF" font-family="Helvetica Neue, Helvetica, Arial, sans-serif"> de25aa5…</text></g><g class="node" aria-label="graph-node14" transform="translate(272.2705810975272,-367.67029877473607)"><circle class="b-outline" cx="0" cy="0" r="25" fill="#F16667" stroke="#eb2728" stroke-width="2px"/><text class="caption" text-anchor="middle" pointer-events="none" x="0" y="5" font-size="10px" fill="#FFFFFF" font-family="Helvetica Neue, Helvetica, Arial, sans-serif"> c5bea27…</text></g><g class="node" aria-label="graph-node15" transform="translate(141.97985011364318,-126.47757717530773)"><circle class="b-outline" cx="0" cy="0" r="25" fill="#ECB5C9" stroke="#da7298" stroke-width="2px"/><text class="caption" text-anchor="middle" pointer-events="none" x="0" y="5" font-size="10px" fill="#2A2C34" font-family="Helvetica Neue, Helvetica, Arial, sans-serif"> ES</text></g><g class="node" aria-label="graph-node16" transform="translate(158.46637129222015,-223.3782649075513)"><circle class="b-outline" cx="0" cy="0" r="25" fill="#ECB5C9" stroke="#da7298" stroke-width="2px"/><text class="caption" text-anchor="middle" pointer-events="none" x="0" y="5" font-size="10px" fill="#2A2C34" font-family="Helvetica Neue, Helvetica, Arial, sans-serif"> P</text></g><g class="node" aria-label="graph-node17" transform="translate(66.48354384551668,-189.99800521154933)"><circle class="b-outline" cx="0" cy="0" r="25" fill="#ECB5C9" stroke="#da7298" stroke-width="2px"/><text class="caption" text-anchor="middle" pointer-events="none" x="0" y="5" font-size="10px" fill="#2A2C34" font-family="Helvetica Neue, Helvetica, Arial, sans-serif"> S</text></g><g class="node" aria-label="graph-node18" transform="translate(123.64345552593636,-29.255642954655762)"><circle class="b-outline" cx="0" cy="0" r="25" fill="#ECB5C9" stroke="#da7298" stroke-width="2px"/><text class="caption" text-anchor="middle" pointer-events="none" x="0" y="5" font-size="10px" fill="#2A2C34" font-family="Helvetica Neue, Helvetica, Arial, sans-serif"> E</text></g><g class="node" aria-label="graph-node19" transform="translate(-49.75715507666338,-163.16400060270874)"><circle class="b-outline" cx="0" cy="0" r="25" fill="#4C8EDA" stroke="#2870c2" stroke-width="2px"/><text class="caption" text-anchor="middle" pointer-events="none" x="0" y="5" font-size="10px" fill="#FFFFFF" font-family="Helvetica Neue, Helvetica, Arial, sans-serif"> veq</text></g><g class="node" aria-label="graph-node20" transform="translate(-46.828201643147544,-64.10538004216961)"><circle class="b-outline" cx="0" cy="0" r="25" fill="#4C8EDA" stroke="#2870c2" stroke-width="2px"/><text class="caption" text-anchor="middle" pointer-events="none" x="0" y="5" font-size="10px" fill="#FFFFFF" font-family="Helvetica Neue, Helvetica, Arial, sans-serif"> vcat</text></g><g class="node" aria-label="graph-node21" transform="translate(-166.67834927457727,-277.14121675942613)"><circle class="b-outline" cx="0" cy="0" r="25" fill="#FFC454" stroke="#d7a013" stroke-width="2px"/><text class="caption" text-anchor="middle" pointer-events="none" x="0" y="5" font-size="10px" fill="#2A2C34" font-family="Helvetica Neue, Helvetica, Arial, sans-serif"> 7ef0f53e…</text></g><g class="node" aria-label="graph-node22" transform="translate(-201.63745466995672,-134.61260193356753)"><circle class="b-outline" cx="0" cy="0" r="25" fill="#FFC454" stroke="#d7a013" stroke-width="2px"/><text class="caption" text-anchor="middle" pointer-events="none" x="0" y="5" font-size="10px" fill="#2A2C34" font-family="Helvetica Neue, Helvetica, Arial, sans-serif"> e936c67…</text></g><g class="node" aria-label="graph-node23" transform="translate(-101.59309634879233,27.758529039661358)"><circle class="b-outline" cx="0" cy="0" r="25" fill="#DA7194" stroke="#cc3c6c" stroke-width="2px"/><text class="caption" text-anchor="middle" pointer-events="none" x="0" y="5" font-size="10px" fill="#FFFFFF" font-family="Helvetica Neue, Helvetica, Arial, sans-serif"> kon</text></g><g class="node" aria-label="graph-node24" transform="translate(-176.2575654120584,-38.31937139646586)"><circle class="b-outline" cx="0" cy="0" r="25" fill="#DA7194" stroke="#cc3c6c" stroke-width="2px"/><text class="caption" text-anchor="middle" pointer-events="none" x="0" y="5" font-size="10px" fill="#FFFFFF" font-family="Helvetica Neue, Helvetica, Arial, sans-serif"> koff</text></g><g class="node" aria-label="graph-node25" transform="translate(-213.30531604271962,53.88195765926564)"><circle class="b-outline" cx="0" cy="0" r="25" fill="#DA7194" stroke="#cc3c6c" stroke-width="2px"/><text class="caption" text-anchor="middle" pointer-events="none" x="0" y="5" font-size="10px" fill="#FFFFFF" font-family="Helvetica Neue, Helvetica, Arial, sans-serif"> kcat</text></g><g class="node" aria-label="graph-node26" transform="translate(49.56754680061221,-92.57650730419886)"><circle class="b-outline" cx="0" cy="0" r="25" fill="#569480" stroke="#447666" stroke-width="2px"/><text class="caption" text-anchor="middle" pointer-events="none" x="0" y="5" font-size="10px" fill="#FFFFFF" font-family="Helvetica Neue, Helvetica, Arial, sans-serif"> convertT…</text></g><g class="node" aria-label="graph-node27" transform="translate(30.721472352682753,3.951406134202666)"><circle class="b-outline" cx="0" cy="0" r="25" fill="#569480" stroke="#447666" stroke-width="2px"/><text class="caption" text-anchor="middle" pointer-events="none" x="0" y="5" font-size="10px" fill="#FFFFFF" font-family="Helvetica Neue, Helvetica, Arial, sans-serif"> convertT…</text></g><g class="node" aria-label="graph-node28" transform="translate(61.28289064693923,97.97384761491494)"><circle class="b-outline" cx="0" cy="0" r="25" fill="#569480" stroke="#447666" stroke-width="2px"/><text class="caption" text-anchor="middle" pointer-events="none" x="0" y="5" font-size="10px" fill="#FFFFFF" font-family="Helvetica Neue, Helvetica, Arial, sans-serif"> c_e</text></g><g class="node" aria-label="graph-node29" transform="translate(114.19819164014736,181.07240094478996)"><circle class="b-outline" cx="0" cy="0" r="25" fill="#569480" stroke="#447666" stroke-width="2px"/><text class="caption" text-anchor="middle" pointer-events="none" x="0" y="5" font-size="10px" fill="#FFFFFF" font-family="Helvetica Neue, Helvetica, Arial, sans-serif"> c_s</text></g><g class="node" aria-label="graph-node30" transform="translate(213.04101502474614,178.21080717365027)"><circle class="b-outline" cx="0" cy="0" r="25" fill="#569480" stroke="#447666" stroke-width="2px"/><text class="caption" text-anchor="middle" pointer-events="none" x="0" y="5" font-size="10px" fill="#FFFFFF" font-family="Helvetica Neue, Helvetica, Arial, sans-serif"> c_es</text></g></g></svg>