<svg xmlns="http://www.w3.org/2000/svg" width="332.4755859375" height="466.4128723144531" viewBox="-145.22976684570312 -236.43324279785156 332.4755859375 466.4128723144531"><title>Neo4j Graph Visualization</title><desc>Created using Neo4j (http://www.neo4j.com/)</desc><g class="layer relationships"><g class="relationship" transform="translate(-30.180336489803068 -35.79298557908265) rotate(290.38896182054054)"><path class="b-outline" fill="#A5ABB6" stroke="none" d="M 24.018736134675446,-6.953439040707552 L 24.277555179777966,-5.987513214418485 A 230.870808002984 230.870808002984 0 0 1 51.57808415847871,-11.56190876450242 L 51.437515355643065,-12.55197967694727 A 231.870808002984 231.870808002984 0 0 0 24.018736134675446,-6.953439040707552 Z M 111.92355997132925,-13.170522877771816 L 111.80326780103668,-12.177784345344321 A 230.870808002984 230.870808002984 0 0 1 139.21208544280037,-7.162858249556046 L 138.49505107187727,-4.24980800781374 L 146.1287084020196,-5.975286424359192 L 140.16813127069784,-11.04692523854579 L 139.45109689977474,-8.133874996803481 A 231.870808002984 231.870808002984 0 0 0 111.92355997132925,-13.170522877771816"/><text text-anchor="middle" pointer-events="none" font-size="8px" fill="#000000" x="81.66539369420433" y="-11.342148327749413" font-family="Helvetica Neue, Helvetica, Arial, sans-serif">IS_REACTANT</text></g><g class="relationship" transform="translate(158.24580549736262 -64.566169695878) rotate(225.41782811483404)"><path class="b-outline" fill="#A5ABB6" stroke="none" d="M 25 0.5 L 54.31400794008776 0.5 L 54.31400794008776 -0.5 L 25 -0.5 Z M 122.54838294008776 0.5 L 151.86239088017552 0.5 L 151.86239088017552 3.5 L 158.86239088017552 0 L 151.86239088017552 -3.5 L 151.86239088017552 -0.5 L 122.54838294008776 -0.5 Z"/><text text-anchor="middle" pointer-events="none" font-size="8px" fill="#000000" x="88.43119544008776" y="3" transform="rotate(180 88.43119544008776 0)" font-family="Helvetica Neue, Helvetica, Arial, sans-serif">HAS_REACTION</text></g><g class="relationship" transform="translate(59.98192791661099 -76.60562243087516) rotate(469.93119059726877)"><path class="b-outline" fill="#A5ABB6" stroke="none" d="M 25 0.5 L 42.517094031841 0.5 L 42.517094031841 -0.5 L 25 -0.5 Z M 93.415531531841 0.5 L 110.932625563682 0.5 L 110.932625563682 3.5 L 117.932625563682 0 L 110.932625563682 -3.5 L 110.932625563682 -0.5 L 93.415531531841 -0.5 Z"/><text text-anchor="middle" pointer-events="none" font-size="8px" fill="#000000" x="67.966312781841" y="3" transform="rotate(180 67.966312781841 0)" font-family="Helvetica Neue, Helvetica, Arial, sans-serif">HAS_UNITS</text></g><g class="relationship" transform="translate(158.24580549736262 -64.566169695878) rotate(470.6385671742968)"><path class="b-outline" fill="#A5ABB6" stroke="none" d="M 25 0.5 L 27.075577571475023 0.5 L 27.075577571475023 -0.5 L 25 -0.5 Z M 101.24354632147502 0.5 L 103.31912389295005 0.5 L 103.31912389295005 3.5 L 110.31912389295005 0 L 103.31912389295005 -3.5 L 103.31912389295005 -0.5 L 101.24354632147502 -0.5 Z"/><text text-anchor="middle" pointer-events="none" font-size="8px" fill="#000000" x="64.15956194647502" y="3" transform="rotate(180 64.15956194647502 0)" font-family="Helvetica Neue, Helvetica, Arial, sans-serif">HAS_COMPART…</text></g><g class="relationship" transform="translate(29.187008020352927 -195.5211450651348) rotate(435.48136134653043)"><path class="b-outline" fill="#A5ABB6" stroke="none" d="M 25 0.5 L 27.352704405389794 0.5 L 27.352704405389794 -0.5 L 25 -0.5 Z M 88.4855169053898 0.5 L 90.83822131077959 0.5 L 90.83822131077959 3.5 L 97.83822131077959 0 L 90.83822131077959 -3.5 L 90.83822131077959 -0.5 L 88.4855169053898 -0.5 Z"/><text text-anchor="middle" pointer-events="none" font-size="8px" fill="#000000" x="57.919110655389794" y="3" font-family="Helvetica Neue, Helvetica, Arial, sans-serif">HAS_LOCAL…</text></g><g class="relationship" transform="translate(158.24580549736262 -64.566169695878) rotate(500.23089199959406)"><path class="b-outline" fill="#A5ABB6" stroke="none" d="M 25 0.5 L 46.670037934345515 0.5 L 46.670037934345515 -0.5 L 25 -0.5 Z M 137.56456918434552 0.5 L 159.23460711869103 0.5 L 159.23460711869103 3.5 L 166.23460711869103 0 L 159.23460711869103 -3.5 L 159.23460711869103 -0.5 L 137.56456918434552 -0.5 Z"/><text text-anchor="middle" pointer-events="none" font-size="8px" fill="#000000" x="92.11730355934552" y="3" transform="rotate(180 92.11730355934552 0)" font-family="Helvetica Neue, Helvetica, Arial, sans-serif">HAS_UNITDEFINITION</text></g><g class="relationship" transform="translate(29.187008020352927 -195.5211450651348) rotate(470.38896182054054)"><path class="b-outline" fill="#A5ABB6" stroke="none" d="M 24.018736134675446,-6.953439040707552 L 24.277555179777966,-5.987513214418485 A 230.870808002984 230.870808002984 0 0 1 48.655618500972615,-11.127886921783158 L 48.5023912521308,-12.116077900396277 A 231.870808002984 231.870808002984 0 0 0 24.018736134675446,-6.953439040707552 Z M 114.86698457220886,-12.794736394838054 L 114.73399815796971,-11.8036185342242 A 230.870808002984 230.870808002984 0 0 1 139.21208544280037,-7.162858249556046 L 138.49505107187727,-4.24980800781374 L 146.1287084020196,-5.975286424359192 L 140.16813127069784,-11.04692523854579 L 139.45109689977474,-8.133874996803481 A 231.870808002984 231.870808002984 0 0 0 114.86698457220886,-12.794736394838054"/><text text-anchor="middle" pointer-events="none" font-size="8px" fill="#000000" x="81.66539369420433" y="-11.342148327749413" transform="rotate(180 81.66539369420433 -14.342148327749413)" font-family="Helvetica Neue, Helvetica, Arial, sans-serif">HAS_PRODUCT</text></g><g class="relationship" transform="translate(158.24580549736262 -64.566169695878) rotate(531.3178479554983)"><path class="b-outline" fill="#A5ABB6" stroke="none" d="M 25 0.5 L 61.01611457394826 0.5 L 61.01611457394826 -0.5 L 25 -0.5 Z M 122.59423957394826 0.5 L 158.61035414789652 0.5 L 158.61035414789652 3.5 L 165.61035414789652 0 L 158.61035414789652 -3.5 L 158.61035414789652 -0.5 L 122.59423957394826 -0.5 Z"/><text text-anchor="middle" pointer-events="none" font-size="8px" fill="#000000" x="91.80517707394826" y="3" transform="rotate(180 91.80517707394826 0)" font-family="Helvetica Neue, Helvetica, Arial, sans-serif">HAS_SPECIES</text></g><g class="relationship" transform="translate(-30.180336489803068 -35.79298557908265) rotate(394.8141648296599)"><path class="b-outline" fill="#A5ABB6" stroke="none" d="M 25 0.5 L 42.01419661151813 0.5 L 42.01419661151813 -0.5 L 25 -0.5 Z M 122.39700911151813 0.5 L 139.41120572303626 0.5 L 139.41120572303626 3.5 L 146.41120572303626 0 L 139.41120572303626 -3.5 L 139.41120572303626 -0.5 L 122.39700911151813 -0.5 Z"/><text text-anchor="middle" pointer-events="none" font-size="8px" fill="#000000" x="82.20560286151813" y="3" font-family="Helvetica Neue, Helvetica, Arial, sans-serif">IN_COMPARTMENT</text></g><g class="relationship" transform="translate(29.187008020352927 -195.5211450651348) rotate(184.6830374642093)"><path class="b-outline" fill="#A5ABB6" stroke="none" d="M 25 0.5 L 30.145285269840997 0.5 L 30.145285269840997 -0.5 L 25 -0.5 Z M 108.758566519841 0.5 L 113.903851789682 0.5 L 113.903851789682 3.5 L 120.903851789682 0 L 113.903851789682 -3.5 L 113.903851789682 -0.5 L 108.758566519841 -0.5 Z"/><text text-anchor="middle" pointer-events="none" font-size="8px" fill="#000000" x="69.451925894841" y="3" transform="rotate(180 69.451925894841 0)" font-family="Helvetica Neue, Helvetica, Arial, sans-serif">HAS_KENETICLAW</text></g><g class="relationship" transform="translate(11.257429012683872 57.76572368535946) rotate(460.6813262739739)"><path class="b-outline" fill="#A5ABB6" stroke="none" d="M 25 0.5 L 37.02968417076626 0.5 L 37.02968417076626 -0.5 L 25 -0.5 Z M 101.70937167076626 0.5 L 113.73905584153252 0.5 L 113.73905584153252 3.5 L 120.73905584153252 0 L 113.73905584153252 -3.5 L 113.73905584153252 -0.5 L 101.70937167076626 -0.5 Z"/><text text-anchor="middle" pointer-events="none" font-size="8px" fill="#000000" x="69.36952792076626" y="3" transform="rotate(180 69.36952792076626 0)" font-family="Helvetica Neue, Helvetica, Arial, sans-serif">IS_COMPOSED</text></g></g><g class="layer nodes"><g class="node" aria-label="graph-node-4" transform="translate(-15.75477367105658,200.979596280698)"><circle class="b-outline" cx="0" cy="0" r="25" fill="#F16667" stroke="#eb2728" stroke-width="2px"/><text class="caption" text-anchor="middle" pointer-events="none" x="0" y="5" font-size="10px" fill="#FFFFFF" font-family="Helvetica Neue, Helvetica, Arial, sans-serif"> unit</text></g><g class="node" aria-label="graph-node-8" transform="translate(59.98192791661099,-76.60562243087516)"><circle class="b-outline" cx="0" cy="0" r="25" fill="#DA7194" stroke="#cc3c6c" stroke-width="2px"/><text class="caption" text-anchor="middle" pointer-events="none" x="0" y="5" font-size="10px" fill="#FFFFFF" font-family="Helvetica Neue, Helvetica, Arial, sans-serif"> localPar…</text></g><g class="node" aria-label="graph-node-2" transform="translate(110.54965022299973,62.06850984807404)"><circle class="b-outline" cx="0" cy="0" r="25" fill="#F79767" stroke="#f36924" stroke-width="2px"/><text class="caption" text-anchor="middle" pointer-events="none" x="0" y="5" font-size="10px" fill="#FFFFFF" font-family="Helvetica Neue, Helvetica, Arial, sans-serif"> compart…</text></g><g class="node" aria-label="graph-node-3" transform="translate(158.24580549736262,-64.566169695878)"><circle class="b-outline" cx="0" cy="0" r="25" fill="#57C7E3" stroke="#23b3d7" stroke-width="2px"/><text class="caption" text-anchor="middle" pointer-events="none" x="0" y="5" font-size="10px" fill="#2A2C34" font-family="Helvetica Neue, Helvetica, Arial, sans-serif"> model</text></g><g class="node" aria-label="graph-node-6" transform="translate(29.187008020352927,-195.5211450651348)"><circle class="b-outline" cx="0" cy="0" r="25" fill="#4C8EDA" stroke="#2870c2" stroke-width="2px"/><text class="caption" text-anchor="middle" pointer-events="none" x="0" y="5" font-size="10px" fill="#FFFFFF" font-family="Helvetica Neue, Helvetica, Arial, sans-serif"> Reaction</text></g><g class="node" aria-label="graph-node-5" transform="translate(-30.180336489803068,-35.79298557908265)"><circle class="b-outline" cx="0" cy="0" r="25" fill="#ECB5C9" stroke="#da7298" stroke-width="2px"/><text class="caption" text-anchor="middle" pointer-events="none" x="0" y="5" font-size="10px" fill="#2A2C34" font-family="Helvetica Neue, Helvetica, Arial, sans-serif"> Species</text></g><g class="node" aria-label="graph-node-7" transform="translate(-116.2297585269257,-207.43323866784627)"><circle class="b-outline" cx="0" cy="0" r="25" fill="#FFC454" stroke="#d7a013" stroke-width="2px"/><text class="caption" text-anchor="middle" pointer-events="none" x="0" y="5" font-size="10px" fill="#2A2C34" font-family="Helvetica Neue, Helvetica, Arial, sans-serif"> KineticL…</text></g><g class="node" aria-label="graph-node-1" transform="translate(11.257429012683872,57.76572368535946)"><circle class="b-outline" cx="0" cy="0" r="25" fill="#D9C8AE" stroke="#c0a378" stroke-width="2px"/><text class="caption" text-anchor="middle" pointer-events="none" x="0" y="5" font-size="10px" fill="#2A2C34" font-family="Helvetica Neue, Helvetica, Arial, sans-serif"> UnitDefi…</text></g></g></svg>