<svg xmlns="http://www.w3.org/2000/svg" width="549.3685913085938" height="466.3268737792969" viewBox="-273.39276123046875 -244.2144012451172 549.3685913085938 466.3268737792969"><title>Neo4j Graph Visualization</title><desc>Created using Neo4j (http://www.neo4j.com/)</desc><g class="layer relationships"><g class="relationship" transform="translate(-101.0923032295728 41.19082628030055) rotate(475.1382484329006)"><path class="b-outline" fill="#A5ABB6" stroke="none" d="M 25 0.5 L 26.14767147526392 0.5 L 26.14767147526392 -0.5 L 25 -0.5 Z M 111.58126522526392 0.5 L 112.72893670052784 0.5 L 112.72893670052784 3.5 L 119.72893670052784 0 L 112.72893670052784 -3.5 L 112.72893670052784 -0.5 L 111.58126522526392 -0.5 Z"/><text text-anchor="middle" pointer-events="none" font-size="8px" fill="#000000" x="68.86446835026392" y="3" transform="rotate(180 68.86446835026392 0)" font-family="Helvetica Neue, Helvetica, Arial, sans-serif">HAS_EVENTASSIG…</text></g><g class="relationship" transform="translate(4.902298651508649 -71.9887988778746) rotate(493.12238811585104)"><path class="b-outline" fill="#A5ABB6" stroke="none" d="M 25 0.5 L 47.24626186368148 0.5 L 47.24626186368148 -0.5 L 25 -0.5 Z M 100.81657436368148 0.5 L 123.06283622736296 0.5 L 123.06283622736296 3.5 L 130.06283622736296 0 L 123.06283622736296 -3.5 L 123.06283622736296 -0.5 L 100.81657436368148 -0.5 Z"/><text text-anchor="middle" pointer-events="none" font-size="8px" fill="#000000" x="74.03141811368148" y="3" transform="rotate(180 74.03141811368148 0)" font-family="Helvetica Neue, Helvetica, Arial, sans-serif">HAS_EVENT</text></g><g class="relationship" transform="translate(-101.0923032295728 41.19082628030055) rotate(189.91503514234114)"><path class="b-outline" fill="#A5ABB6" stroke="none" d="M 25 0.5 L 37.564732037919455 0.5 L 37.564732037919455 -0.5 L 25 -0.5 Z M 100.90848203791946 0.5 L 113.47321407583891 0.5 L 113.47321407583891 3.5 L 120.47321407583891 0 L 113.47321407583891 -3.5 L 113.47321407583891 -0.5 L 100.90848203791946 -0.5 Z"/><text text-anchor="middle" pointer-events="none" font-size="8px" fill="#000000" x="69.23660703791946" y="3" transform="rotate(180 69.23660703791946 0)" font-family="Helvetica Neue, Helvetica, Arial, sans-serif">HAS_TRIGGER</text></g><g class="relationship" transform="translate(246.97580372970134 85.92534621945686) rotate(195.16473579451485)"><path class="b-outline" fill="#A5ABB6" stroke="none" d="M 25 0.5 L 43.14585800761462 0.5 L 43.14585800761462 -0.5 L 25 -0.5 Z M 94.04429550761462 0.5 L 112.19015351522924 0.5 L 112.19015351522924 3.5 L 119.19015351522924 0 L 112.19015351522924 -3.5 L 112.19015351522924 -0.5 L 94.04429550761462 -0.5 Z"/><text text-anchor="middle" pointer-events="none" font-size="8px" fill="#000000" x="68.59507675761462" y="3" transform="rotate(180 68.59507675761462 0)" font-family="Helvetica Neue, Helvetica, Arial, sans-serif">HAS_UNITS</text></g><g class="relationship" transform="translate(4.902298651508649 -71.9887988778746) rotate(253.8059806923717)"><path class="b-outline" fill="#A5ABB6" stroke="none" d="M 25 0.5 L 26.655579471854224 0.5 L 26.655579471854224 -0.5 L 25 -0.5 Z M 115.48761072185422 0.5 L 117.14319019370845 0.5 L 117.14319019370845 3.5 L 124.14319019370845 0 L 117.14319019370845 -3.5 L 117.14319019370845 -0.5 L 115.48761072185422 -0.5 Z"/><text text-anchor="middle" pointer-events="none" font-size="8px" fill="#000000" x="71.07159509685422" y="3" transform="rotate(180 71.07159509685422 0)" font-family="Helvetica Neue, Helvetica, Arial, sans-serif">HAS_COMPARTMENT</text></g><g class="relationship" transform="translate(4.902298651508649 -71.9887988778746) rotate(409.43159782186194)"><path class="b-outline" fill="#A5ABB6" stroke="none" d="M 25 0.5 L 30.16669902985538 0.5 L 30.16669902985538 -0.5 L 25 -0.5 Z M 121.06123027985538 0.5 L 126.22792930971076 0.5 L 126.22792930971076 3.5 L 133.22792930971076 0 L 126.22792930971076 -3.5 L 126.22792930971076 -0.5 L 121.06123027985538 -0.5 Z"/><text text-anchor="middle" pointer-events="none" font-size="8px" fill="#000000" x="75.61396465485538" y="3" font-family="Helvetica Neue, Helvetica, Arial, sans-serif">HAS_UNITDEFINITION</text></g><g class="relationship" transform="translate(4.902298651508649 -71.9887988778746) rotate(195.07861150047114)"><path class="b-outline" fill="#A5ABB6" stroke="none" d="M 25 0.5 L 43.471639568586525 0.5 L 43.471639568586525 -0.5 L 25 -0.5 Z M 105.04976456858653 0.5 L 123.52140413717305 0.5 L 123.52140413717305 3.5 L 130.52140413717305 0 L 123.52140413717305 -3.5 L 123.52140413717305 -0.5 L 105.04976456858653 -0.5 Z"/><text text-anchor="middle" pointer-events="none" font-size="8px" fill="#000000" x="74.26070206858653" y="3" transform="rotate(180 74.26070206858653 0)" font-family="Helvetica Neue, Helvetica, Arial, sans-serif">HAS_SPECIES</text></g><g class="relationship" transform="translate(-145.26447397215526 -112.44677144930638) rotate(316.57323838258753)"><path class="b-outline" fill="#A5ABB6" stroke="none" d="M 25 0.5 L 31.056649333956614 0.5 L 31.056649333956614 -0.5 L 25 -0.5 Z M 111.43946183395661 0.5 L 117.49611116791323 0.5 L 117.49611116791323 3.5 L 124.49611116791323 0 L 117.49611116791323 -3.5 L 117.49611116791323 -0.5 L 111.43946183395661 -0.5 Z"/><text text-anchor="middle" pointer-events="none" font-size="8px" fill="#000000" x="71.24805558395661" y="3" font-family="Helvetica Neue, Helvetica, Arial, sans-serif">IN_COMPARTMENT</text></g><g class="relationship" transform="translate(4.902298651508649 -71.9887988778746) rotate(330.61225297207943)"><path class="b-outline" fill="#A5ABB6" stroke="none" d="M 25 0.5 L 34.82068972145237 0.5 L 34.82068972145237 -0.5 L 25 -0.5 Z M 103.80506472145237 0.5 L 113.62575444290474 0.5 L 113.62575444290474 3.5 L 120.62575444290474 0 L 113.62575444290474 -3.5 L 113.62575444290474 -0.5 L 103.80506472145237 -0.5 Z"/><text text-anchor="middle" pointer-events="none" font-size="8px" fill="#000000" x="69.31287722145237" y="3" font-family="Helvetica Neue, Helvetica, Arial, sans-serif">HAS_RATERULE</text></g><g class="relationship" transform="translate(107.80668545437972 48.20589647247737) rotate(456.9161810067701)"><path class="b-outline" fill="#A5ABB6" stroke="none" d="M 25 0.5 L 37.144512796635965 0.5 L 37.144512796635965 -0.5 L 25 -0.5 Z M 101.82420029663596 0.5 L 113.96871309327193 0.5 L 113.96871309327193 3.5 L 120.96871309327193 0 L 113.96871309327193 -3.5 L 113.96871309327193 -0.5 L 101.82420029663596 -0.5 Z"/><text text-anchor="middle" pointer-events="none" font-size="8px" fill="#000000" x="69.48435654663596" y="3" transform="rotate(180 69.48435654663596 0)" font-family="Helvetica Neue, Helvetica, Arial, sans-serif">IS_COMPOSED</text></g></g><g class="layer nodes"><g class="node" aria-label="graph-node-4" transform="translate(90.2295416671759,193.11244987290127)"><circle class="b-outline" cx="0" cy="0" r="25" fill="#F16667" stroke="#eb2728" stroke-width="2px"/><text class="caption" text-anchor="middle" pointer-events="none" x="0" y="5" font-size="10px" fill="#FFFFFF" font-family="Helvetica Neue, Helvetica, Arial, sans-serif"> unit</text></g><g class="node" aria-label="graph-node-7" transform="translate(131.7887523699889,-143.44989472598735)"><circle class="b-outline" cx="0" cy="0" r="25" fill="#A5ABB6" stroke="#9AA1AC" stroke-width="2px"/><text class="caption" text-anchor="middle" pointer-events="none" x="0" y="5" font-size="10px" fill="#FFFFFF" font-family="Helvetica Neue, Helvetica, Arial, sans-serif"> rateRule</text></g><g class="node" aria-label="graph-node-10" transform="translate(-162.57371284382796,172.21182227067442)"><circle class="b-outline" cx="0" cy="0" r="25" fill="#A5ABB6" stroke="#9AA1AC" stroke-width="2px"/><text class="caption" text-anchor="middle" pointer-events="none" x="0" y="5" font-size="10px" fill="#FFFFFF" font-family="Helvetica Neue, Helvetica, Arial, sans-serif"> eventAs…</text></g><g class="node" aria-label="graph-node-2" transform="translate(-36.69237487946516,-215.21440523025979)"><circle class="b-outline" cx="0" cy="0" r="25" fill="#F79767" stroke="#f36924" stroke-width="2px"/><text class="caption" text-anchor="middle" pointer-events="none" x="0" y="5" font-size="10px" fill="#FFFFFF" font-family="Helvetica Neue, Helvetica, Arial, sans-serif"> compart…</text></g><g class="node" aria-label="graph-node-6" transform="translate(246.97580372970134,85.92534621945686)"><circle class="b-outline" cx="0" cy="0" r="25" fill="#569480" stroke="#447666" stroke-width="2px"/><text class="caption" text-anchor="middle" pointer-events="none" x="0" y="5" font-size="10px" fill="#FFFFFF" font-family="Helvetica Neue, Helvetica, Arial, sans-serif"> Parameter</text></g><g class="node" aria-label="graph-node-3" transform="translate(4.902298651508649,-71.9887988778746)"><circle class="b-outline" cx="0" cy="0" r="25" fill="#57C7E3" stroke="#23b3d7" stroke-width="2px"/><text class="caption" text-anchor="middle" pointer-events="none" x="0" y="5" font-size="10px" fill="#2A2C34" font-family="Helvetica Neue, Helvetica, Arial, sans-serif"> model</text></g><g class="node" aria-label="graph-node-9" transform="translate(-244.3927549617194,16.14214274368365)"><circle class="b-outline" cx="0" cy="0" r="25" fill="#A5ABB6" stroke="#9AA1AC" stroke-width="2px"/><text class="caption" text-anchor="middle" pointer-events="none" x="0" y="5" font-size="10px" fill="#FFFFFF" font-family="Helvetica Neue, Helvetica, Arial, sans-serif"> trigger</text></g><g class="node" aria-label="graph-node-8" transform="translate(-101.0923032295728,41.19082628030055)"><circle class="b-outline" cx="0" cy="0" r="25" fill="#A5ABB6" stroke="#9AA1AC" stroke-width="2px"/><text class="caption" text-anchor="middle" pointer-events="none" x="0" y="5" font-size="10px" fill="#FFFFFF" font-family="Helvetica Neue, Helvetica, Arial, sans-serif"> event</text></g><g class="node" aria-label="graph-node-5" transform="translate(-145.26447397215526,-112.44677144930638)"><circle class="b-outline" cx="0" cy="0" r="25" fill="#ECB5C9" stroke="#da7298" stroke-width="2px"/><text class="caption" text-anchor="middle" pointer-events="none" x="0" y="5" font-size="10px" fill="#2A2C34" font-family="Helvetica Neue, Helvetica, Arial, sans-serif"> Species</text></g><g class="node" aria-label="graph-node-1" transform="translate(107.80668545437972,48.20589647247737)"><circle class="b-outline" cx="0" cy="0" r="25" fill="#D9C8AE" stroke="#c0a378" stroke-width="2px"/><text class="caption" text-anchor="middle" pointer-events="none" x="0" y="5" font-size="10px" fill="#2A2C34" font-family="Helvetica Neue, Helvetica, Arial, sans-serif"> UnitDefi…</text></g></g></svg>