<svg xmlns="http://www.w3.org/2000/svg" width="559.8770751953125" height="346.5075378417969" viewBox="-378.0950622558594 -233.0417938232422 559.8770751953125 346.5075378417969"><title>Neo4j Graph Visualization</title><desc>Created using Neo4j (http://www.neo4j.com/)</desc><g class="layer relationships"><g class="relationship" transform="translate(-349.0950665618245 -52.57797016770569) rotate(332.0453104190681)"><path class="b-outline" fill="#A5ABB6" stroke="none" d="M 24.018736134675446,-6.953439040707552 L 24.277555179777966,-5.987513214418485 A 218.31050658173584 218.31050658173584 0 0 1 48.3878496114472,-11.009701315027826 L 48.23947094234483,-11.998631934715263 A 219.31050658173584 219.31050658173584 0 0 0 24.018736134675446,-6.953439040707552 Z M 108.71236487012077,-12.640255743664596 L 108.58500255959416,-11.648399482980977 A 218.31050658173584 218.31050658173584 0 0 1 132.79642910030745,-7.138909959395539 L 132.08163129393083,-4.225310107665863 L 139.71396172207278,-5.956648386471729 L 133.74949284214293,-11.023709761701774 L 133.0346950357663,-8.110109909972097 A 219.31050658173584 219.31050658173584 0 0 0 108.71236487012077,-12.640255743664596"/><text text-anchor="middle" pointer-events="none" font-size="8px" fill="#000000" x="78.45900004659326" y="-10.913948153394898" font-family="Helvetica Neue, Helvetica, Arial, sans-serif">IS_REACTANT</text></g><g class="relationship" transform="translate(-126.59640826180154 -65.00513114175044) rotate(219.69608925056735)"><path class="b-outline" fill="#A5ABB6" stroke="none" d="M 25 0.5 L 26.61401432901745 0.5 L 26.61401432901745 -0.5 L 25 -0.5 Z M 67.28979557901745 0.5 L 68.9038099080349 0.5 L 68.9038099080349 3.5 L 75.9038099080349 0 L 68.9038099080349 -3.5 L 68.9038099080349 -0.5 L 67.28979557901745 -0.5 Z"/><text text-anchor="middle" pointer-events="none" font-size="8px" fill="#000000" x="46.95190495401745" y="3" transform="rotate(180 46.95190495401745 0)" font-family="Helvetica Neue, Helvetica, Arial, sans-serif">HAS_R…</text></g><g class="relationship" transform="translate(-108.82068629924036 32.46427209371444) rotate(347.4250550284346)"><path class="b-outline" fill="#A5ABB6" stroke="none" d="M 25 0.5 L 44.67512966640453 0.5 L 44.67512966640453 -0.5 L 25 -0.5 Z M 95.57356716640453 0.5 L 115.24869683280906 0.5 L 115.24869683280906 3.5 L 122.24869683280906 0 L 115.24869683280906 -3.5 L 115.24869683280906 -0.5 L 95.57356716640453 -0.5 Z"/><text text-anchor="middle" pointer-events="none" font-size="8px" fill="#000000" x="70.12434841640453" y="3" font-family="Helvetica Neue, Helvetica, Arial, sans-serif">HAS_UNITS</text></g><g class="relationship" transform="translate(-126.59640826180154 -65.00513114175044) rotate(492.6819157727982)"><path class="b-outline" fill="#A5ABB6" stroke="none" d="M 25 0.5 L 28.261904974818037 0.5 L 28.261904974818037 -0.5 L 25 -0.5 Z M 117.09393622481804 0.5 L 120.35584119963607 0.5 L 120.35584119963607 3.5 L 127.35584119963607 0 L 120.35584119963607 -3.5 L 120.35584119963607 -0.5 L 117.09393622481804 -0.5 Z"/><text text-anchor="middle" pointer-events="none" font-size="8px" fill="#000000" x="72.67792059981804" y="3" transform="rotate(180 72.67792059981804 0)" font-family="Helvetica Neue, Helvetica, Arial, sans-serif">HAS_COMPARTMENT</text></g><g class="relationship" transform="translate(-204.23615387101785 -129.45393838977498) rotate(419.4899256334201)"><path class="b-outline" fill="#A5ABB6" stroke="none" d="M 25 0.5 L 39.30616993841171 0.5 L 39.30616993841171 -0.5 L 25 -0.5 Z M 141.6342949384117 0.5 L 155.94046487682343 0.5 L 155.94046487682343 3.5 L 162.94046487682343 0 L 155.94046487682343 -3.5 L 155.94046487682343 -0.5 L 141.6342949384117 -0.5 Z"/><text text-anchor="middle" pointer-events="none" font-size="8px" fill="#000000" x="90.47023243841171" y="3" font-family="Helvetica Neue, Helvetica, Arial, sans-serif">HAS_LOCALPARAMETER</text></g><g class="relationship" transform="translate(-126.59640826180154 -65.00513114175044) rotate(382.04995505772365)"><path class="b-outline" fill="#A5ABB6" stroke="none" d="M 25 0.5 L 38.17094419398221 0.5 L 38.17094419398221 -0.5 L 25 -0.5 Z M 129.06547544398222 0.5 L 142.23641963796442 0.5 L 142.23641963796442 3.5 L 149.23641963796442 0 L 142.23641963796442 -3.5 L 142.23641963796442 -0.5 L 129.06547544398222 -0.5 Z"/><text text-anchor="middle" pointer-events="none" font-size="8px" fill="#000000" x="83.61820981898221" y="3" font-family="Helvetica Neue, Helvetica, Arial, sans-serif">HAS_UNITDEFINITION</text></g><g class="relationship" transform="translate(-204.23615387101785 -129.45393838977498) rotate(512.0453104190681)"><path class="b-outline" fill="#A5ABB6" stroke="none" d="M 24.018736134675446,-6.953439040707552 L 24.277555179777966,-5.987513214418485 A 218.31050658173584 218.31050658173584 0 0 1 45.469433834865534,-10.551612327893281 L 45.30768697830266,-11.538444610701276 A 219.31050658173584 219.31050658173584 0 0 0 24.018736134675446,-6.953439040707552 Z M 111.65325299442335,-12.242378092452668 L 111.51248098378643,-11.252336052425477 A 218.31050658173584 218.31050658173584 0 0 1 132.79642910030745,-7.138909959395539 L 132.08163129393083,-4.225310107665863 L 139.71396172207278,-5.956648386471729 L 133.74949284214293,-11.023709761701774 L 133.0346950357663,-8.110109909972097 A 219.31050658173584 219.31050658173584 0 0 0 111.65325299442335,-12.242378092452668"/><text text-anchor="middle" pointer-events="none" font-size="8px" fill="#000000" x="78.45900004659326" y="-10.913948153394898" transform="rotate(180 78.45900004659326 -13.913948153394898)" font-family="Helvetica Neue, Helvetica, Arial, sans-serif">HAS_PRODUCT</text></g><g class="relationship" transform="translate(-126.59640826180154 -65.00513114175044) rotate(536.8031948137861)"><path class="b-outline" fill="#A5ABB6" stroke="none" d="M 25 0.5 L 77.13365429866859 0.5 L 77.13365429866859 -0.5 L 25 -0.5 Z M 138.7117792986686 0.5 L 190.84543359733718 0.5 L 190.84543359733718 3.5 L 197.84543359733718 0 L 190.84543359733718 -3.5 L 190.84543359733718 -0.5 L 138.7117792986686 -0.5 Z"/><text text-anchor="middle" pointer-events="none" font-size="8px" fill="#000000" x="107.92271679866859" y="3" transform="rotate(180 107.92271679866859 0)" font-family="Helvetica Neue, Helvetica, Arial, sans-serif">HAS_SPECIES</text></g><g class="relationship" transform="translate(-349.0950665618245 -52.57797016770569) rotate(399.87083096439653)"><path class="b-outline" fill="#A5ABB6" stroke="none" d="M 25 0.5 L 33.97225496621709 0.5 L 33.97225496621709 -0.5 L 25 -0.5 Z M 114.3550674662171 0.5 L 123.32732243243419 0.5 L 123.32732243243419 3.5 L 130.3273224324342 0 L 123.32732243243419 -3.5 L 123.32732243243419 -0.5 L 114.3550674662171 -0.5 Z"/><text text-anchor="middle" pointer-events="none" font-size="8px" fill="#000000" x="74.1636612162171" y="3" font-family="Helvetica Neue, Helvetica, Arial, sans-serif">IN_COMPARTMENT</text></g><g class="relationship" transform="translate(-204.23615387101785 -129.45393838977498) rotate(329.7734387367011)"><path class="b-outline" fill="#A5ABB6" stroke="none" d="M 25 0.5 L 31.274412692558073 0.5 L 31.274412692558073 -0.5 L 25 -0.5 Z M 109.88769394255807 0.5 L 116.16210663511615 0.5 L 116.16210663511615 3.5 L 123.16210663511615 0 L 116.16210663511615 -3.5 L 116.16210663511615 -0.5 L 109.88769394255807 -0.5 Z"/><text text-anchor="middle" pointer-events="none" font-size="8px" fill="#000000" x="70.58105331755807" y="3" font-family="Helvetica Neue, Helvetica, Arial, sans-serif">HAS_KENETICLAW</text></g><g class="relationship" transform="translate(34.89581778814672 0.4058071919047639) rotate(395.49115160211073)"><path class="b-outline" fill="#A5ABB6" stroke="none" d="M 25 0.5 L 36.55356313368017 0.5 L 36.55356313368017 -0.5 L 25 -0.5 Z M 101.23325063368017 0.5 L 112.78681376736034 0.5 L 112.78681376736034 3.5 L 119.78681376736034 0 L 112.78681376736034 -3.5 L 112.78681376736034 -0.5 L 101.23325063368017 -0.5 Z"/><text text-anchor="middle" pointer-events="none" font-size="8px" fill="#000000" x="68.89340688368017" y="3" font-family="Helvetica Neue, Helvetica, Arial, sans-serif">IS_COMPOSED</text></g></g><g class="layer nodes"><g class="node" aria-label="graph-node-4" transform="translate(152.78199281869985,84.46573330161584)"><circle class="b-outline" cx="0" cy="0" r="25" fill="#F16667" stroke="#eb2728" stroke-width="2px"/><text class="caption" text-anchor="middle" pointer-events="none" x="0" y="5" font-size="10px" fill="#FFFFFF" font-family="Helvetica Neue, Helvetica, Arial, sans-serif"> unit</text></g><g class="node" aria-label="graph-node-8" transform="translate(-108.82068629924036,32.46427209371444)"><circle class="b-outline" cx="0" cy="0" r="25" fill="#DA7194" stroke="#cc3c6c" stroke-width="2px"/><text class="caption" text-anchor="middle" pointer-events="none" x="0" y="5" font-size="10px" fill="#FFFFFF" font-family="Helvetica Neue, Helvetica, Arial, sans-serif"> localPar…</text></g><g class="node" aria-label="graph-node-2" transform="translate(-229.8826495362653,46.996005955343264)"><circle class="b-outline" cx="0" cy="0" r="25" fill="#F79767" stroke="#f36924" stroke-width="2px"/><text class="caption" text-anchor="middle" pointer-events="none" x="0" y="5" font-size="10px" fill="#FFFFFF" font-family="Helvetica Neue, Helvetica, Arial, sans-serif"> compart…</text></g><g class="node" aria-label="graph-node-3" transform="translate(-126.59640826180154,-65.00513114175044)"><circle class="b-outline" cx="0" cy="0" r="25" fill="#57C7E3" stroke="#23b3d7" stroke-width="2px"/><text class="caption" text-anchor="middle" pointer-events="none" x="0" y="5" font-size="10px" fill="#2A2C34" font-family="Helvetica Neue, Helvetica, Arial, sans-serif"> model</text></g><g class="node" aria-label="graph-node-6" transform="translate(-204.23615387101785,-129.45393838977498)"><circle class="b-outline" cx="0" cy="0" r="25" fill="#4C8EDA" stroke="#2870c2" stroke-width="2px"/><text class="caption" text-anchor="middle" pointer-events="none" x="0" y="5" font-size="10px" fill="#FFFFFF" font-family="Helvetica Neue, Helvetica, Arial, sans-serif"> Reaction</text></g><g class="node" aria-label="graph-node-5" transform="translate(-349.0950665618245,-52.57797016770569)"><circle class="b-outline" cx="0" cy="0" r="25" fill="#ECB5C9" stroke="#da7298" stroke-width="2px"/><text class="caption" text-anchor="middle" pointer-events="none" x="0" y="5" font-size="10px" fill="#2A2C34" font-family="Helvetica Neue, Helvetica, Arial, sans-serif"> Species</text></g><g class="node" aria-label="graph-node-7" transform="translate(-76.21794229178892,-204.0417882489263)"><circle class="b-outline" cx="0" cy="0" r="25" fill="#FFC454" stroke="#d7a013" stroke-width="2px"/><text class="caption" text-anchor="middle" pointer-events="none" x="0" y="5" font-size="10px" fill="#2A2C34" font-family="Helvetica Neue, Helvetica, Arial, sans-serif"> KineticL…</text></g><g class="node" aria-label="graph-node-1" transform="translate(34.89581778814672,0.4058071919047639)"><circle class="b-outline" cx="0" cy="0" r="25" fill="#D9C8AE" stroke="#c0a378" stroke-width="2px"/><text class="caption" text-anchor="middle" pointer-events="none" x="0" y="5" font-size="10px" fill="#2A2C34" font-family="Helvetica Neue, Helvetica, Arial, sans-serif"> UnitDefi…</text></g></g></svg>