<svg xmlns="http://www.w3.org/2000/svg" width="239.9110565185547" height="460.3426513671875" viewBox="-170.6044464111328 -263.45965576171875 239.9110565185547 460.3426513671875"><title>Neo4j Graph Visualization</title><desc>Created using Neo4j (http://www.neo4j.com/)</desc><g class="layer relationships"><g class="relationship" transform="translate(-85.50805483318933 -142.01764530748972) rotate(373.33231494450035)"><path class="b-outline" fill="#A5ABB6" stroke="none" d="M 25 0.5 L 26.4387726934783 0.5 L 26.4387726934783 -0.5 L 25 -0.5 Z M 95.8606476934783 0.5 L 97.2994203869566 0.5 L 97.2994203869566 3.5 L 104.2994203869566 0 L 97.2994203869566 -3.5 L 97.2994203869566 -0.5 L 95.8606476934783 -0.5 Z"/><text text-anchor="middle" pointer-events="none" font-size="8px" fill="#000000" x="61.1497101934783" y="3" font-family="Helvetica Neue, Helvetica, Arial, sans-serif">HAS_COMPAR…</text></g><g class="relationship" transform="translate(-85.50805483318933 -142.01764530748972) rotate(320.44447313854016)"><path class="b-outline" fill="#A5ABB6" stroke="none" d="M 25 0.5 L 31.03343708332605 0.5 L 31.03343708332605 -0.5 L 25 -0.5 Z M 107.12718708332605 0.5 L 113.1606241666521 0.5 L 113.1606241666521 3.5 L 120.1606241666521 0 L 113.1606241666521 -3.5 L 113.1606241666521 -0.5 L 107.12718708332605 -0.5 Z"/><text text-anchor="middle" pointer-events="none" font-size="8px" fill="#000000" x="69.08031208332605" y="3" font-family="Helvetica Neue, Helvetica, Arial, sans-serif">HAS_PARAMETER</text></g><g class="relationship" transform="translate(-85.50805483318933 -142.01764530748972) rotate(447.4953396510269)"><path class="b-outline" fill="#A5ABB6" stroke="none" d="M 25 0.5 L 40.15021348269917 0.5 L 40.15021348269917 -0.5 L 25 -0.5 Z M 131.04474473269917 0.5 L 146.19495821539834 0.5 L 146.19495821539834 3.5 L 153.19495821539834 0 L 146.19495821539834 -3.5 L 146.19495821539834 -0.5 L 131.04474473269917 -0.5 Z"/><text text-anchor="middle" pointer-events="none" font-size="8px" fill="#000000" x="85.59747910769917" y="3" font-family="Helvetica Neue, Helvetica, Arial, sans-serif">HAS_UNITDEFINITION</text></g><g class="relationship" transform="translate(-85.50805483318933 -142.01764530748972) rotate(478.8310345206947)"><path class="b-outline" fill="#A5ABB6" stroke="none" d="M 25 0.5 L 25.210612628046427 0.5 L 25.210612628046427 -0.5 L 25 -0.5 Z M 84.11686262804642 0.5 L 84.32747525609285 0.5 L 84.32747525609285 3.5 L 91.32747525609285 0 L 84.32747525609285 -3.5 L 84.32747525609285 -0.5 L 84.11686262804642 -0.5 Z"/><text text-anchor="middle" pointer-events="none" font-size="8px" fill="#000000" x="54.66373762804643" y="3" transform="rotate(180 54.66373762804643 0)" font-family="Helvetica Neue, Helvetica, Arial, sans-serif">HAS_SPECI…</text></g><g class="relationship" transform="translate(-141.60445069094325 -40.10947158610923) rotate(338.3814255018707)"><path class="b-outline" fill="#A5ABB6" stroke="none" d="M 25 0.5 L 54.14631497463719 0.5 L 54.14631497463719 -0.5 L 25 -0.5 Z M 134.5291274746372 0.5 L 163.67544244927439 0.5 L 163.67544244927439 3.5 L 170.67544244927439 0 L 163.67544244927439 -3.5 L 163.67544244927439 -0.5 L 134.5291274746372 -0.5 Z"/><text text-anchor="middle" pointer-events="none" font-size="8px" fill="#000000" x="94.33772122463719" y="3" font-family="Helvetica Neue, Helvetica, Arial, sans-serif">IN_COMPARTMENT</text></g><g class="relationship" transform="translate(-85.50805483318933 -142.01764530748972) rotate(413.5965863566888)"><path class="b-outline" fill="#A5ABB6" stroke="none" d="M 25 0.5 L 38.197323666254235 0.5 L 38.197323666254235 -0.5 L 25 -0.5 Z M 107.18169866625423 0.5 L 120.37902233250847 0.5 L 120.37902233250847 3.5 L 127.37902233250847 0 L 120.37902233250847 -3.5 L 120.37902233250847 -0.5 L 107.18169866625423 -0.5 Z"/><text text-anchor="middle" pointer-events="none" font-size="8px" fill="#000000" x="72.68951116625423" y="3" font-family="Helvetica Neue, Helvetica, Arial, sans-serif">HAS_RATERULE</text></g><g class="relationship" transform="translate(-77.72081964631516 36.00707797984435) rotate(424.00639542196257)"><path class="b-outline" fill="#A5ABB6" stroke="none" d="M 25 0.5 L 37.518855954856306 0.5 L 37.518855954856306 -0.5 L 25 -0.5 Z M 102.1985434548563 0.5 L 114.71739940971261 0.5 L 114.71739940971261 3.5 L 121.71739940971261 0 L 114.71739940971261 -3.5 L 114.71739940971261 -0.5 L 102.1985434548563 -0.5 Z"/><text text-anchor="middle" pointer-events="none" font-size="8px" fill="#000000" x="69.8586997048563" y="3" font-family="Helvetica Neue, Helvetica, Arial, sans-serif">IS_COMPOSED</text></g></g><g class="layer nodes"><g class="node" aria-label="graph-node-4" transform="translate(-13.418864755227055,167.88298133877345)"><circle class="b-outline" cx="0" cy="0" r="25" fill="#F16667" stroke="#eb2728" stroke-width="2px"/><text class="caption" text-anchor="middle" pointer-events="none" x="0" y="5" font-size="10px" fill="#FFFFFF" font-family="Helvetica Neue, Helvetica, Arial, sans-serif"> unit</text></g><g class="node" aria-label="graph-node-6" transform="translate(4.923842119897434,-19.374103037717454)"><circle class="b-outline" cx="0" cy="0" r="25" fill="#A5ABB6" stroke="#9AA1AC" stroke-width="2px"/><text class="caption" text-anchor="middle" pointer-events="none" x="0" y="5" font-size="10px" fill="#FFFFFF" font-family="Helvetica Neue, Helvetica, Arial, sans-serif"> rateRule</text></g><g class="node" aria-label="graph-node-2" transform="translate(40.306612924502964,-112.20138314362292)"><circle class="b-outline" cx="0" cy="0" r="25" fill="#F79767" stroke="#f36924" stroke-width="2px"/><text class="caption" text-anchor="middle" pointer-events="none" x="0" y="5" font-size="10px" fill="#FFFFFF" font-family="Helvetica Neue, Helvetica, Arial, sans-serif"> compart…</text></g><g class="node" aria-label="graph-node-7" transform="translate(26.411915869742863,-234.4596647916335)"><circle class="b-outline" cx="0" cy="0" r="25" fill="#569480" stroke="#447666" stroke-width="2px"/><text class="caption" text-anchor="middle" pointer-events="none" x="0" y="5" font-size="10px" fill="#FFFFFF" font-family="Helvetica Neue, Helvetica, Arial, sans-serif"> Parameter</text></g><g class="node" aria-label="graph-node-3" transform="translate(-85.50805483318933,-142.01764530748972)"><circle class="b-outline" cx="0" cy="0" r="25" fill="#57C7E3" stroke="#23b3d7" stroke-width="2px"/><text class="caption" text-anchor="middle" pointer-events="none" x="0" y="5" font-size="10px" fill="#2A2C34" font-family="Helvetica Neue, Helvetica, Arial, sans-serif"> model</text></g><g class="node" aria-label="graph-node-5" transform="translate(-141.60445069094325,-40.10947158610923)"><circle class="b-outline" cx="0" cy="0" r="25" fill="#ECB5C9" stroke="#da7298" stroke-width="2px"/><text class="caption" text-anchor="middle" pointer-events="none" x="0" y="5" font-size="10px" fill="#2A2C34" font-family="Helvetica Neue, Helvetica, Arial, sans-serif"> Species</text></g><g class="node" aria-label="graph-node-1" transform="translate(-77.72081964631516,36.00707797984435)"><circle class="b-outline" cx="0" cy="0" r="25" fill="#D9C8AE" stroke="#c0a378" stroke-width="2px"/><text class="caption" text-anchor="middle" pointer-events="none" x="0" y="5" font-size="10px" fill="#2A2C34" font-family="Helvetica Neue, Helvetica, Arial, sans-serif"> UnitDefi…</text></g></g></svg>