<svg xmlns="http://www.w3.org/2000/svg" width="555.229736328125" height="521.8507690429688" viewBox="-339.6722412109375 -154.88107299804688 555.229736328125 521.8507690429688"><title>Neo4j Graph Visualization</title><desc>Created using Neo4j (http://www.neo4j.com/)</desc><g class="layer relationships"><g class="relationship" transform="translate(-127.29663994258853 74.16193188948405) rotate(283.77375737730335)"><path class="b-outline" fill="#A5ABB6" stroke="none" d="M 25 0.5 L 55.066917190263595 0.5 L 55.066917190263595 -0.5 L 25 -0.5 Z M 143.8989484402636 0.5 L 173.9658656305272 0.5 L 173.9658656305272 3.5 L 180.9658656305272 0 L 173.9658656305272 -3.5 L 173.9658656305272 -0.5 L 143.8989484402636 -0.5 Z"/><text text-anchor="middle" pointer-events="none" font-size="8px" fill="#000000" x="99.4829328152636" y="3" font-family="Helvetica Neue, Helvetica, Arial, sans-serif">HAS_COMPARTMENT</text></g><g class="relationship" transform="translate(46.83567172571468 251.0633955860489) rotate(314.9524996941408)"><path class="b-outline" fill="#A5ABB6" stroke="none" d="M 25 0.5 L 63.04036637098538 0.5 L 63.04036637098538 -0.5 L 25 -0.5 Z M 127.72005387098538 0.5 L 165.76042024197076 0.5 L 165.76042024197076 3.5 L 172.76042024197076 0 L 165.76042024197076 -3.5 L 165.76042024197076 -0.5 L 127.72005387098538 -0.5 Z"/><text text-anchor="middle" pointer-events="none" font-size="8px" fill="#000000" x="95.38021012098538" y="3" font-family="Helvetica Neue, Helvetica, Arial, sans-serif">IS_COMPOSED</text></g><g class="relationship" transform="translate(42.08501522431939 21.21107746952749) rotate(329.8066012637601)"><path class="b-outline" fill="#A5ABB6" stroke="none" d="M 25 0.5 L 42.47134569238524 0.5 L 42.47134569238524 -0.5 L 25 -0.5 Z M 107.15103319238524 0.5 L 124.62237888477048 0.5 L 124.62237888477048 3.5 L 131.62237888477048 0 L 124.62237888477048 -3.5 L 124.62237888477048 -0.5 L 107.15103319238524 -0.5 Z"/><text text-anchor="middle" pointer-events="none" font-size="8px" fill="#000000" x="74.81118944238524" y="3" font-family="Helvetica Neue, Helvetica, Arial, sans-serif">IS_COMPOSED</text></g><g class="relationship" transform="translate(42.08501522431939 21.21107746952749) rotate(292.655533932465)"><path class="b-outline" fill="#A5ABB6" stroke="none" d="M 25 0.5 L 42.6256218191873 0.5 L 42.6256218191873 -0.5 L 25 -0.5 Z M 107.3053093191873 0.5 L 124.9309311383746 0.5 L 124.9309311383746 3.5 L 131.9309311383746 0 L 124.9309311383746 -3.5 L 124.9309311383746 -0.5 L 107.3053093191873 -0.5 Z"/><text text-anchor="middle" pointer-events="none" font-size="8px" fill="#000000" x="74.9654655691873" y="3" font-family="Helvetica Neue, Helvetica, Arial, sans-serif">IS_COMPOSED</text></g><g class="relationship" transform="translate(42.08501522431939 21.21107746952749) rotate(391.89215153840746)"><path class="b-outline" fill="#A5ABB6" stroke="none" d="M 25 0.5 L 49.23961080391079 0.5 L 49.23961080391079 -0.5 L 25 -0.5 Z M 113.9192983039108 0.5 L 138.1589091078216 0.5 L 138.1589091078216 3.5 L 145.1589091078216 0 L 138.1589091078216 -3.5 L 138.1589091078216 -0.5 L 113.9192983039108 -0.5 Z"/><text text-anchor="middle" pointer-events="none" font-size="8px" fill="#000000" x="81.5794545539108" y="3" font-family="Helvetica Neue, Helvetica, Arial, sans-serif">IS_COMPOSED</text></g><g class="relationship" transform="translate(-127.29663994258853 74.16193188948405) rotate(405.4519719872698)"><path class="b-outline" fill="#A5ABB6" stroke="none" d="M 25 0.5 L 75.16577742944104 0.5 L 75.16577742944104 -0.5 L 25 -0.5 Z M 166.06030867944105 0.5 L 216.22608610888207 0.5 L 216.22608610888207 3.5 L 223.22608610888207 0 L 216.22608610888207 -3.5 L 216.22608610888207 -0.5 L 166.06030867944105 -0.5 Z"/><text text-anchor="middle" pointer-events="none" font-size="8px" fill="#000000" x="120.61304305444104" y="3" font-family="Helvetica Neue, Helvetica, Arial, sans-serif">HAS_UNITDEFINITION</text></g><g class="relationship" transform="translate(-127.29663994258853 74.16193188948405) rotate(342.64009346224384)"><path class="b-outline" fill="#A5ABB6" stroke="none" d="M 25 0.5 L 39.78539196351802 0.5 L 39.78539196351802 -0.5 L 25 -0.5 Z M 130.679923213518 0.5 L 145.46531517703605 0.5 L 145.46531517703605 3.5 L 152.46531517703605 0 L 145.46531517703605 -3.5 L 145.46531517703605 -0.5 L 130.679923213518 -0.5 Z"/><text text-anchor="middle" pointer-events="none" font-size="8px" fill="#000000" x="85.23265758851802" y="3" font-family="Helvetica Neue, Helvetica, Arial, sans-serif">HAS_UNITDEFINITION</text></g><g class="relationship" transform="translate(-127.29663994258853 74.16193188948405) rotate(247.31857538880774)"><path class="b-outline" fill="#A5ABB6" stroke="none" d="M 25 0.5 L 27.08941393889215 0.5 L 27.08941393889215 -0.5 L 25 -0.5 Z M 72.65972643889215 0.5 L 74.7491403777843 0.5 L 74.7491403777843 3.5 L 81.7491403777843 0 L 74.7491403777843 -3.5 L 74.7491403777843 -0.5 L 72.65972643889215 -0.5 Z"/><text text-anchor="middle" pointer-events="none" font-size="8px" fill="#000000" x="49.87457018889215" y="3" transform="rotate(180 49.87457018889215 0)" font-family="Helvetica Neue, Helvetica, Arial, sans-serif">HAS_SP…</text></g><g class="relationship" transform="translate(-127.29663994258853 74.16193188948405) rotate(314.5762039542044)"><path class="b-outline" fill="#A5ABB6" stroke="none" d="M 25 0.5 L 27.436836345893518 0.5 L 27.436836345893518 -0.5 L 25 -0.5 Z M 67.67121134589351 0.5 L 70.10804769178704 0.5 L 70.10804769178704 3.5 L 77.10804769178704 0 L 70.10804769178704 -3.5 L 70.10804769178704 -0.5 L 67.67121134589351 -0.5 Z"/><text text-anchor="middle" pointer-events="none" font-size="8px" fill="#000000" x="47.55402384589352" y="3" font-family="Helvetica Neue, Helvetica, Arial, sans-serif">HAS_S…</text></g><g class="relationship" transform="translate(-127.29663994258853 74.16193188948405) rotate(236.86623228952112)"><path class="b-outline" fill="#A5ABB6" stroke="none" d="M 25 0.5 L 66.8960598499871 0.5 L 66.8960598499871 -0.5 L 25 -0.5 Z M 128.4741848499871 0.5 L 170.3702446999742 0.5 L 170.3702446999742 3.5 L 177.3702446999742 0 L 170.3702446999742 -3.5 L 170.3702446999742 -0.5 L 128.4741848499871 -0.5 Z"/><text text-anchor="middle" pointer-events="none" font-size="8px" fill="#000000" x="97.6851223499871" y="3" transform="rotate(180 97.6851223499871 0)" font-family="Helvetica Neue, Helvetica, Arial, sans-serif">HAS_SPECIES</text></g><g class="relationship" transform="translate(-127.29663994258853 74.16193188948405) rotate(208.44690265149853)"><path class="b-outline" fill="#A5ABB6" stroke="none" d="M 25 0.5 L 43.75321305660053 0.5 L 43.75321305660053 -0.5 L 25 -0.5 Z M 105.33133805660053 0.5 L 124.08455111320106 0.5 L 124.08455111320106 3.5 L 131.08455111320106 0 L 124.08455111320106 -3.5 L 124.08455111320106 -0.5 L 105.33133805660053 -0.5 Z"/><text text-anchor="middle" pointer-events="none" font-size="8px" fill="#000000" x="74.54227555660053" y="3" transform="rotate(180 74.54227555660053 0)" font-family="Helvetica Neue, Helvetica, Arial, sans-serif">HAS_SPECIES</text></g><g class="relationship" transform="translate(-168.45984863205396 -24.331566483674642) rotate(311.6130843888844)"><path class="b-outline" fill="#A5ABB6" stroke="none" d="M 25 0.5 L 25.553403328014824 0.5 L 25.553403328014824 -0.5 L 25 -0.5 Z M 103.27215332801482 0.5 L 103.82555665602965 0.5 L 103.82555665602965 3.5 L 110.82555665602965 0 L 103.82555665602965 -3.5 L 103.82555665602965 -0.5 L 103.27215332801482 -0.5 Z"/><text text-anchor="middle" pointer-events="none" font-size="8px" fill="#000000" x="64.41277832801482" y="3" font-family="Helvetica Neue, Helvetica, Arial, sans-serif">IN_COMPARTME…</text></g><g class="relationship" transform="translate(-55.631363910317674 1.4285721798798285) rotate(259.921879715566)"><path class="b-outline" fill="#A5ABB6" stroke="none" d="M 25 0.5 L 28.2930237634108 0.5 L 28.2930237634108 -0.5 L 25 -0.5 Z M 94.0117737634108 0.5 L 97.3047975268216 0.5 L 97.3047975268216 3.5 L 104.3047975268216 0 L 97.3047975268216 -3.5 L 97.3047975268216 -0.5 L 94.0117737634108 -0.5 Z"/><text text-anchor="middle" pointer-events="none" font-size="8px" fill="#000000" x="61.1523987634108" y="3" transform="rotate(180 61.1523987634108 0)" font-family="Helvetica Neue, Helvetica, Arial, sans-serif">IN_COMPART…</text></g><g class="relationship" transform="translate(-237.91132165294644 -95.30224759999875) rotate(349.157271538523)"><path class="b-outline" fill="#A5ABB6" stroke="none" d="M 25 0.5 L 37.58602706174189 0.5 L 37.58602706174189 -0.5 L 25 -0.5 Z M 117.96883956174189 0.5 L 130.55486662348378 0.5 L 130.55486662348378 3.5 L 137.55486662348378 0 L 130.55486662348378 -3.5 L 130.55486662348378 -0.5 L 117.96883956174189 -0.5 Z"/><text text-anchor="middle" pointer-events="none" font-size="8px" fill="#000000" x="77.77743331174189" y="3" font-family="Helvetica Neue, Helvetica, Arial, sans-serif">IN_COMPARTMENT</text></g><g class="relationship" transform="translate(-264.5353752643355 -0.18802859131873506) rotate(325.9899171659103)"><path class="b-outline" fill="#A5ABB6" stroke="none" d="M 25 0.5 L 68.66718242439192 0.5 L 68.66718242439192 -0.5 L 25 -0.5 Z M 149.0499949243919 0.5 L 192.71717734878385 0.5 L 192.71717734878385 3.5 L 199.71717734878385 0 L 192.71717734878385 -3.5 L 192.71717734878385 -0.5 L 149.0499949243919 -0.5 Z"/><text text-anchor="middle" pointer-events="none" font-size="8px" fill="#000000" x="108.85858867439192" y="3" font-family="Helvetica Neue, Helvetica, Arial, sans-serif">IN_COMPARTMENT</text></g><g class="relationship" transform="translate(-127.29663994258853 74.16193188948405) rotate(478.74582201222006)"><path class="b-outline" fill="#A5ABB6" stroke="none" d="M 25 0.5 L 26.263615229737162 0.5 L 26.263615229737162 -0.5 L 25 -0.5 Z M 83.38861522973716 0.5 L 84.65223045947432 0.5 L 84.65223045947432 3.5 L 91.65223045947432 0 L 84.65223045947432 -3.5 L 84.65223045947432 -0.5 L 83.38861522973716 -0.5 Z"/><text text-anchor="middle" pointer-events="none" font-size="8px" fill="#000000" x="54.82611522973716" y="3" transform="rotate(180 54.82611522973716 0)" font-family="Helvetica Neue, Helvetica, Arial, sans-serif">HAS_REAC…</text></g><g class="relationship" transform="translate(-127.29663994258853 74.16193188948405) rotate(534.9579180255699)"><path class="b-outline" fill="#A5ABB6" stroke="none" d="M 25 0.5 L 54.42677765163616 0.5 L 54.42677765163616 -0.5 L 25 -0.5 Z M 122.66115265163616 0.5 L 152.08793030327232 0.5 L 152.08793030327232 3.5 L 159.08793030327232 0 L 152.08793030327232 -3.5 L 152.08793030327232 -0.5 L 122.66115265163616 -0.5 Z"/><text text-anchor="middle" pointer-events="none" font-size="8px" fill="#000000" x="88.54396515163616" y="3" transform="rotate(180 88.54396515163616 0)" font-family="Helvetica Neue, Helvetica, Arial, sans-serif">HAS_REACTION</text></g><g class="relationship" transform="translate(-183.39759486651798 176.43815457977286) rotate(386.50425530226505)"><path class="b-outline" fill="#A5ABB6" stroke="none" d="M 25 0.5 L 30.745025908188026 0.5 L 30.745025908188026 -0.5 L 25 -0.5 Z M 109.35830715818803 0.5 L 115.10333306637605 0.5 L 115.10333306637605 3.5 L 122.10333306637605 0 L 115.10333306637605 -3.5 L 115.10333306637605 -0.5 L 109.35830715818803 -0.5 Z"/><text text-anchor="middle" pointer-events="none" font-size="8px" fill="#000000" x="70.05166653318803" y="3" font-family="Helvetica Neue, Helvetica, Arial, sans-serif">HAS_KENETICLAW</text></g><g class="relationship" transform="translate(-310.6722265747276 90.34094022316448) rotate(433.6430080534576)"><path class="b-outline" fill="#A5ABB6" stroke="none" d="M 25 0.5 L 43.049913263493536 0.5 L 43.049913263493536 -0.5 L 25 -0.5 Z M 121.66319451349354 0.5 L 139.71310777698707 0.5 L 139.71310777698707 3.5 L 146.71310777698707 0 L 139.71310777698707 -3.5 L 139.71310777698707 -0.5 L 121.66319451349354 -0.5 Z"/><text text-anchor="middle" pointer-events="none" font-size="8px" fill="#000000" x="82.35655388849354" y="3" font-family="Helvetica Neue, Helvetica, Arial, sans-serif">HAS_KENETICLAW</text></g><g class="relationship" transform="translate(-168.45984863205396 -24.331566483674642) rotate(454.2551025681656)"><path class="b-outline" fill="#A5ABB6" stroke="none" d="M 25 0.5 L 66.89670305580715 0.5 L 66.89670305580715 -0.5 L 25 -0.5 Z M 127.42795305580715 0.5 L 169.3246561116143 0.5 L 169.3246561116143 3.5 L 176.3246561116143 0 L 169.3246561116143 -3.5 L 169.3246561116143 -0.5 L 127.42795305580715 -0.5 Z"/><text text-anchor="middle" pointer-events="none" font-size="8px" fill="#000000" x="97.16232805580715" y="3" transform="rotate(180 97.16232805580715 0)" font-family="Helvetica Neue, Helvetica, Arial, sans-serif">IS_REACTANT</text></g><g class="relationship" transform="translate(-55.631363910317674 1.4285721798798285) rotate(486.13141661496417)"><path class="b-outline" fill="#A5ABB6" stroke="none" d="M 25 0.5 L 74.57707630532336 0.5 L 74.57707630532336 -0.5 L 25 -0.5 Z M 135.10832630532337 0.5 L 184.68540261064672 0.5 L 184.68540261064672 3.5 L 191.68540261064672 0 L 184.68540261064672 -3.5 L 184.68540261064672 -0.5 L 135.10832630532337 -0.5 Z"/><text text-anchor="middle" pointer-events="none" font-size="8px" fill="#000000" x="104.84270130532336" y="3" transform="rotate(180 104.84270130532336 0)" font-family="Helvetica Neue, Helvetica, Arial, sans-serif">IS_REACTANT</text></g><g class="relationship" transform="translate(-264.5353752643355 -0.18802859131873506) rotate(477.005043303997)"><path class="b-outline" fill="#A5ABB6" stroke="none" d="M 25 0.5 L 26.07528158409378 0.5 L 26.07528158409378 -0.5 L 25 -0.5 Z M 68.53231283409377 0.5 L 69.60759441818756 0.5 L 69.60759441818756 3.5 L 76.60759441818756 0 L 69.60759441818756 -3.5 L 69.60759441818756 -0.5 L 68.53231283409377 -0.5 Z"/><text text-anchor="middle" pointer-events="none" font-size="8px" fill="#000000" x="47.30379720909378" y="3" transform="rotate(180 47.30379720909378 0)" font-family="Helvetica Neue, Helvetica, Arial, sans-serif">IS_REA…</text></g><g class="relationship" transform="translate(-183.39759486651798 176.43815457977286) rotate(245.32709847627723)"><path class="b-outline" fill="#A5ABB6" stroke="none" d="M 25 0.5 L 60.45901769257854 0.5 L 60.45901769257854 -0.5 L 25 -0.5 Z M 126.91214269257854 0.5 L 162.37116038515708 0.5 L 162.37116038515708 3.5 L 169.37116038515708 0 L 162.37116038515708 -3.5 L 162.37116038515708 -0.5 L 126.91214269257854 -0.5 Z"/><text text-anchor="middle" pointer-events="none" font-size="8px" fill="#000000" x="93.68558019257854" y="3" transform="rotate(180 93.68558019257854 0)" font-family="Helvetica Neue, Helvetica, Arial, sans-serif">HAS_PRODUCT</text></g><g class="relationship" transform="translate(-310.6722265747276 90.34094022316448) rotate(321.1191399029631)"><path class="b-outline" fill="#A5ABB6" stroke="none" d="M 25 0.5 L 54.61639595129485 0.5 L 54.61639595129485 -0.5 L 25 -0.5 Z M 121.06952095129485 0.5 L 150.6859169025897 0.5 L 150.6859169025897 3.5 L 157.6859169025897 0 L 150.6859169025897 -3.5 L 150.6859169025897 -0.5 L 121.06952095129485 -0.5 Z"/><text text-anchor="middle" pointer-events="none" font-size="8px" fill="#000000" x="87.84295845129485" y="3" font-family="Helvetica Neue, Helvetica, Arial, sans-serif">HAS_PRODUCT</text></g><g class="relationship" transform="translate(-310.6722265747276 90.34094022316448) rotate(291.40217647992887)"><path class="b-outline" fill="#A5ABB6" stroke="none" d="M 25 0.5 L 62.96990492761593 0.5 L 62.96990492761593 -0.5 L 25 -0.5 Z M 129.42302992761591 0.5 L 167.39293485523186 0.5 L 167.39293485523186 3.5 L 174.39293485523186 0 L 167.39293485523186 -3.5 L 167.39293485523186 -0.5 L 129.42302992761591 -0.5 Z"/><text text-anchor="middle" pointer-events="none" font-size="8px" fill="#000000" x="96.19646742761593" y="3" font-family="Helvetica Neue, Helvetica, Arial, sans-serif">HAS_PRODUCT</text></g><g class="relationship" transform="translate(111.70461051562393 176.35709870924387) rotate(245.83251222503054)"><path class="b-outline" fill="#A5ABB6" stroke="none" d="M 25 0.5 L 56.076036255556374 0.5 L 56.076036255556374 -0.5 L 25 -0.5 Z M 106.97447375555637 0.5 L 138.05051001111275 0.5 L 138.05051001111275 3.5 L 145.05051001111275 0 L 138.05051001111275 -3.5 L 138.05051001111275 -0.5 L 106.97447375555637 -0.5 Z"/><text text-anchor="middle" pointer-events="none" font-size="8px" fill="#000000" x="81.52525500555637" y="3" transform="rotate(180 81.52525500555637 0)" font-family="Helvetica Neue, Helvetica, Arial, sans-serif">HAS_UNITS</text></g><g class="relationship" transform="translate(29.89774968859436 119.87526161575224) rotate(442.64314395132806)"><path class="b-outline" fill="#A5ABB6" stroke="none" d="M 25 0.5 L 37.18930954014279 0.5 L 37.18930954014279 -0.5 L 25 -0.5 Z M 88.08774704014279 0.5 L 100.27705658028557 0.5 L 100.27705658028557 3.5 L 107.27705658028557 0 L 100.27705658028557 -3.5 L 100.27705658028557 -0.5 L 88.08774704014279 -0.5 Z"/><text text-anchor="middle" pointer-events="none" font-size="8px" fill="#000000" x="62.63852829014279" y="3" font-family="Helvetica Neue, Helvetica, Arial, sans-serif">HAS_UNITS</text></g><g class="relationship" transform="translate(-100.51408169819628 337.96966877758973) rotate(329.4680724965156)"><path class="b-outline" fill="#A5ABB6" stroke="none" d="M 25 0.5 L 56.58535051022672 0.5 L 56.58535051022672 -0.5 L 25 -0.5 Z M 107.48378801022672 0.5 L 139.06913852045344 0.5 L 139.06913852045344 3.5 L 146.06913852045344 0 L 139.06913852045344 -3.5 L 139.06913852045344 -0.5 L 107.48378801022672 -0.5 Z"/><text text-anchor="middle" pointer-events="none" font-size="8px" fill="#000000" x="82.03456926022672" y="3" font-family="Helvetica Neue, Helvetica, Arial, sans-serif">HAS_UNITS</text></g><g class="relationship" transform="translate(-51.754642572744615 242.0851172712522) rotate(338.0946228714888)"><path class="b-outline" fill="#A5ABB6" stroke="none" d="M 25 0.5 L 33.42552236151333 0.5 L 33.42552236151333 -0.5 L 25 -0.5 Z M 135.75364736151334 0.5 L 144.17916972302666 0.5 L 144.17916972302666 3.5 L 151.17916972302666 0 L 144.17916972302666 -3.5 L 144.17916972302666 -0.5 L 135.75364736151334 -0.5 Z"/><text text-anchor="middle" pointer-events="none" font-size="8px" fill="#000000" x="84.58958486151333" y="3" font-family="Helvetica Neue, Helvetica, Arial, sans-serif">HAS_LOCALPARAMETER</text></g><g class="relationship" transform="translate(-51.754642572744615 242.0851172712522) rotate(303.74817754015925)"><path class="b-outline" fill="#A5ABB6" stroke="none" d="M 25 0.5 L 25.492616235510184 0.5 L 25.492616235510184 -0.5 L 25 -0.5 Z M 114.48480373551018 0.5 L 114.97741997102037 0.5 L 114.97741997102037 3.5 L 121.97741997102037 0 L 114.97741997102037 -3.5 L 114.97741997102037 -0.5 L 114.48480373551018 -0.5 Z"/><text text-anchor="middle" pointer-events="none" font-size="8px" fill="#000000" x="69.98870998551018" y="3" font-family="Helvetica Neue, Helvetica, Arial, sans-serif">HAS_LOCALPARAM…</text></g><g class="relationship" transform="translate(-262.31416043076274 255.10406965826323) rotate(387.1191680504849)"><path class="b-outline" fill="#A5ABB6" stroke="none" d="M 25 0.5 L 36.22869435563405 0.5 L 36.22869435563405 -0.5 L 25 -0.5 Z M 138.55681935563405 0.5 L 149.7855137112681 0.5 L 149.7855137112681 3.5 L 156.7855137112681 0 L 149.7855137112681 -3.5 L 149.7855137112681 -0.5 L 138.55681935563405 -0.5 Z"/><text text-anchor="middle" pointer-events="none" font-size="8px" fill="#000000" x="87.39275685563405" y="3" font-family="Helvetica Neue, Helvetica, Arial, sans-serif">HAS_LOCALPARAMETER</text></g></g><g class="layer nodes"><g class="node" aria-label="graph-node0" transform="translate(46.83567172571468,251.0633955860489)"><circle class="b-outline" cx="0" cy="0" r="25" fill="#C990C0" stroke="#b261a5" stroke-width="2px"/><text class="caption" text-anchor="middle" pointer-events="none" x="0" y="5" font-size="10px" fill="#FFFFFF" font-family="Helvetica Neue, Helvetica, Arial, sans-serif"> per_sec…</text></g><g class="node" aria-label="graph-node1" transform="translate(42.08501522431939,21.21107746952749)"><circle class="b-outline" cx="0" cy="0" r="25" fill="#C990C0" stroke="#b261a5" stroke-width="2px"/><text class="caption" text-anchor="middle" pointer-events="none" x="0" y="5" font-size="10px" fill="#FFFFFF" font-family="Helvetica Neue, Helvetica, Arial, sans-serif"> litre_per…</text></g><g class="node" aria-label="graph-node2" transform="translate(-78.25850844992038,-125.88106215089759)"><circle class="b-outline" cx="0" cy="0" r="25" fill="#F79767" stroke="#f36924" stroke-width="2px"/><text class="caption" text-anchor="middle" pointer-events="none" x="0" y="5" font-size="10px" fill="#FFFFFF" font-family="Helvetica Neue, Helvetica, Arial, sans-serif"> comp</text></g><g class="node" aria-label="graph-node3" transform="translate(-127.29663994258853,74.16193188948405)"><circle class="b-outline" cx="0" cy="0" r="25" fill="#57C7E3" stroke="#23b3d7" stroke-width="2px"/><text class="caption" text-anchor="middle" pointer-events="none" x="0" y="5" font-size="10px" fill="#2A2C34" font-family="Helvetica Neue, Helvetica, Arial, sans-serif"> b3a773d…</text></g><g class="node" aria-label="graph-node4" transform="translate(186.55742726871884,111.10977883299077)"><circle class="b-outline" cx="0" cy="0" r="25" fill="#F16667" stroke="#eb2728" stroke-width="2px"/><text class="caption" text-anchor="middle" pointer-events="none" x="0" y="5" font-size="10px" fill="#FFFFFF" font-family="Helvetica Neue, Helvetica, Arial, sans-serif"> f5f0cb65…</text></g><g class="node" aria-label="graph-node5" transform="translate(177.45886684186416,-57.557506786859676)"><circle class="b-outline" cx="0" cy="0" r="25" fill="#F16667" stroke="#eb2728" stroke-width="2px"/><text class="caption" text-anchor="middle" pointer-events="none" x="0" y="5" font-size="10px" fill="#FFFFFF" font-family="Helvetica Neue, Helvetica, Arial, sans-serif"> 56985b5…</text></g><g class="node" aria-label="graph-node6" transform="translate(102.53323485853932,-123.61064013874555)"><circle class="b-outline" cx="0" cy="0" r="25" fill="#F16667" stroke="#eb2728" stroke-width="2px"/><text class="caption" text-anchor="middle" pointer-events="none" x="0" y="5" font-size="10px" fill="#FFFFFF" font-family="Helvetica Neue, Helvetica, Arial, sans-serif"> 372a959…</text></g><g class="node" aria-label="graph-node7" transform="translate(-168.45984863205396,-24.331566483674642)"><circle class="b-outline" cx="0" cy="0" r="25" fill="#D9C8AE" stroke="#c0a378" stroke-width="2px"/><text class="caption" text-anchor="middle" pointer-events="none" x="0" y="5" font-size="10px" fill="#2A2C34" font-family="Helvetica Neue, Helvetica, Arial, sans-serif"> E</text></g><g class="node" aria-label="graph-node8" transform="translate(-55.631363910317674,1.4285721798798285)"><circle class="b-outline" cx="0" cy="0" r="25" fill="#D9C8AE" stroke="#c0a378" stroke-width="2px"/><text class="caption" text-anchor="middle" pointer-events="none" x="0" y="5" font-size="10px" fill="#2A2C34" font-family="Helvetica Neue, Helvetica, Arial, sans-serif"> S</text></g><g class="node" aria-label="graph-node9" transform="translate(-237.91132165294644,-95.30224759999875)"><circle class="b-outline" cx="0" cy="0" r="25" fill="#D9C8AE" stroke="#c0a378" stroke-width="2px"/><text class="caption" text-anchor="middle" pointer-events="none" x="0" y="5" font-size="10px" fill="#2A2C34" font-family="Helvetica Neue, Helvetica, Arial, sans-serif"> P</text></g><g class="node" aria-label="graph-node10" transform="translate(-264.5353752643355,-0.18802859131873506)"><circle class="b-outline" cx="0" cy="0" r="25" fill="#D9C8AE" stroke="#c0a378" stroke-width="2px"/><text class="caption" text-anchor="middle" pointer-events="none" x="0" y="5" font-size="10px" fill="#2A2C34" font-family="Helvetica Neue, Helvetica, Arial, sans-serif"> ES</text></g><g class="node" aria-label="graph-node11" transform="translate(-183.39759486651798,176.43815457977286)"><circle class="b-outline" cx="0" cy="0" r="25" fill="#8DCC93" stroke="#5db665" stroke-width="2px"/><text class="caption" text-anchor="middle" pointer-events="none" x="0" y="5" font-size="10px" fill="#2A2C34" font-family="Helvetica Neue, Helvetica, Arial, sans-serif"> veq</text></g><g class="node" aria-label="graph-node12" transform="translate(-310.6722265747276,90.34094022316448)"><circle class="b-outline" cx="0" cy="0" r="25" fill="#8DCC93" stroke="#5db665" stroke-width="2px"/><text class="caption" text-anchor="middle" pointer-events="none" x="0" y="5" font-size="10px" fill="#2A2C34" font-family="Helvetica Neue, Helvetica, Arial, sans-serif"> vcat</text></g><g class="node" aria-label="graph-node13" transform="translate(-51.754642572744615,242.0851172712522)"><circle class="b-outline" cx="0" cy="0" r="25" fill="#ECB5C9" stroke="#da7298" stroke-width="2px"/><text class="caption" text-anchor="middle" pointer-events="none" x="0" y="5" font-size="10px" fill="#2A2C34" font-family="Helvetica Neue, Helvetica, Arial, sans-serif"> 0114e0e…</text></g><g class="node" aria-label="graph-node14" transform="translate(-262.31416043076274,255.10406965826323)"><circle class="b-outline" cx="0" cy="0" r="25" fill="#ECB5C9" stroke="#da7298" stroke-width="2px"/><text class="caption" text-anchor="middle" pointer-events="none" x="0" y="5" font-size="10px" fill="#2A2C34" font-family="Helvetica Neue, Helvetica, Arial, sans-serif"> af0a419…</text></g><g class="node" aria-label="graph-node15" transform="translate(111.70461051562393,176.35709870924387)"><circle class="b-outline" cx="0" cy="0" r="25" fill="#4C8EDA" stroke="#2870c2" stroke-width="2px"/><text class="caption" text-anchor="middle" pointer-events="none" x="0" y="5" font-size="10px" fill="#FFFFFF" font-family="Helvetica Neue, Helvetica, Arial, sans-serif"> kon</text></g><g class="node" aria-label="graph-node16" transform="translate(29.89774968859436,119.87526161575224)"><circle class="b-outline" cx="0" cy="0" r="25" fill="#4C8EDA" stroke="#2870c2" stroke-width="2px"/><text class="caption" text-anchor="middle" pointer-events="none" x="0" y="5" font-size="10px" fill="#FFFFFF" font-family="Helvetica Neue, Helvetica, Arial, sans-serif"> koff</text></g><g class="node" aria-label="graph-node17" transform="translate(-100.51408169819628,337.96966877758973)"><circle class="b-outline" cx="0" cy="0" r="25" fill="#4C8EDA" stroke="#2870c2" stroke-width="2px"/><text class="caption" text-anchor="middle" pointer-events="none" x="0" y="5" font-size="10px" fill="#FFFFFF" font-family="Helvetica Neue, Helvetica, Arial, sans-serif"> kcat</text></g></g></svg>