<svg xmlns="http://www.w3.org/2000/svg" width="395.0135498046875" height="361.1470947265625" viewBox="-347.7303466796875 -197.7506561279297 395.0135498046875 361.1470947265625"><title>Neo4j Graph Visualization</title><desc>Created using Neo4j (http://www.neo4j.com/)</desc><g class="layer relationships"><g class="relationship" transform="translate(-304.24879956096527 -7.545805444000649) rotate(326.25478562390947)"><path class="b-outline" fill="#A5ABB6" stroke="none" d="M 21.40063509461097,-12.933012701892217 L 21.90063509461097,-12.06698729810778 A 120.54489587394497 120.54489587394497 0 0 1 49.986504219541835,-23.840440470673073 L 49.71949516388095,-24.804134490678948 A 121.54489587394497 121.54489587394497 0 0 0 21.40063509461097,-12.933012701892217 Z M 109.85710143734869,-26.022190243991986 L 109.62933359727026,-25.04847477681176 A 120.54489587394497 120.54489587394497 0 0 1 138.16890275457047,-14.42194023233251 L 136.77533517171216,-11.7652563233952 L 144.60009313923393,-11.613063190485985 L 140.02699286504824,-17.964185444248923 L 138.63342528218993,-15.307501535311612 A 121.54489587394497 121.54489587394497 0 0 0 109.85710143734869,-26.022190243991986"/><text text-anchor="middle" pointer-events="none" font-size="8px" fill="#000000" x="79.721884734773" y="-25.692119724541072" font-family="Helvetica Neue, Helvetica, Arial, sans-serif">IS_REACTANT</text></g><g class="relationship" transform="translate(-122.94134854187973 49.978567954596606) rotate(254.13869487551835)"><path class="b-outline" fill="#A5ABB6" stroke="none" d="M 25 0.5 L 40.42835402836819 0.5 L 40.42835402836819 -0.5 L 25 -0.5 Z M 108.66272902836819 0.5 L 124.09108305673638 0.5 L 124.09108305673638 3.5 L 131.09108305673638 0 L 124.09108305673638 -3.5 L 124.09108305673638 -0.5 L 108.66272902836819 -0.5 Z"/><text text-anchor="middle" pointer-events="none" font-size="8px" fill="#000000" x="74.54554152836819" y="3" transform="rotate(180 74.54554152836819 0)" font-family="Helvetica Neue, Helvetica, Arial, sans-serif">HAS_REACTION</text></g><g class="relationship" transform="translate(-165.60254647854086 -100.16952027976618) rotate(506.25478562390947)"><path class="b-outline" fill="#A5ABB6" stroke="none" d="M 25 0.5 L 54.64690660685575 0.5 L 54.64690660685575 -0.5 L 25 -0.5 Z M 105.09221910685575 0.5 L 134.7391257137115 0.5 L 134.7391257137115 3.5 L 141.7391257137115 0 L 134.7391257137115 -3.5 L 134.7391257137115 -0.5 L 105.09221910685575 -0.5 Z"/><text text-anchor="middle" pointer-events="none" font-size="8px" fill="#000000" x="79.86956285685575" y="3" transform="rotate(180 79.86956285685575 0)" font-family="Helvetica Neue, Helvetica, Arial, sans-serif">MODIFIERS</text></g><g class="relationship" transform="translate(-122.94134854187973 49.978567954596606) rotate(502.7188593913595)"><path class="b-outline" fill="#A5ABB6" stroke="none" d="M 25 0.5 L 25.76713058310999 0.5 L 25.76713058310999 -0.5 L 25 -0.5 Z M 106.59916183310999 0.5 L 107.36629241621998 0.5 L 107.36629241621998 3.5 L 114.36629241621998 0 L 107.36629241621998 -3.5 L 107.36629241621998 -0.5 L 106.59916183310999 -0.5 Z"/><text text-anchor="middle" pointer-events="none" font-size="8px" fill="#000000" x="66.18314620810999" y="3" transform="rotate(180 66.18314620810999 0)" font-family="Helvetica Neue, Helvetica, Arial, sans-serif">HAS_COMPARTM…</text></g><g class="relationship" transform="translate(-165.60254647854086 -100.16952027976618) rotate(189.45305954956797)"><path class="b-outline" fill="#A5ABB6" stroke="none" d="M 25 0.5 L 26.953844154297812 0.5 L 26.953844154297812 -0.5 L 25 -0.5 Z M 121.28196915429781 0.5 L 123.23581330859562 0.5 L 123.23581330859562 3.5 L 130.23581330859562 0 L 123.23581330859562 -3.5 L 123.23581330859562 -0.5 L 121.28196915429781 -0.5 Z"/><text text-anchor="middle" pointer-events="none" font-size="8px" fill="#000000" x="74.11790665429781" y="3" transform="rotate(180 74.11790665429781 0)" font-family="Helvetica Neue, Helvetica, Arial, sans-serif">HAS_LOCALPARAME…</text></g><g class="relationship" transform="translate(-122.94134854187973 49.978567954596606) rotate(388.13507398683043)"><path class="b-outline" fill="#A5ABB6" stroke="none" d="M 25 0.5 L 31.126669448582604 0.5 L 31.126669448582604 -0.5 L 25 -0.5 Z M 122.0212006985826 0.5 L 128.1478701471652 0.5 L 128.1478701471652 3.5 L 135.1478701471652 0 L 128.1478701471652 -3.5 L 128.1478701471652 -0.5 L 122.0212006985826 -0.5 Z"/><text text-anchor="middle" pointer-events="none" font-size="8px" fill="#000000" x="76.5739350735826" y="3" font-family="Helvetica Neue, Helvetica, Arial, sans-serif">HAS_UNITDEFINITION</text></g><g class="relationship" transform="translate(-165.60254647854086 -100.16952027976618) rotate(506.25478562390947)"><path class="b-outline" fill="#A5ABB6" stroke="none" d="M 21.40063509461097,-12.933012701892217 L 21.90063509461097,-12.06698729810778 A 120.54489587394497 120.54489587394497 0 0 1 47.15476569704944,-23.01843381484366 L 46.86426548896802,-23.9753087435071 A 121.54489587394497 121.54489587394497 0 0 0 21.40063509461097,-12.933012701892217 Z M 112.7435504877759,-25.309659195569424 L 112.49203464059548,-24.34180601526927 A 120.54489587394497 120.54489587394497 0 0 1 138.16890275457047,-14.42194023233251 L 136.77533517171216,-11.7652563233952 L 144.60009313923393,-11.613063190485985 L 140.02699286504824,-17.964185444248923 L 138.63342528218993,-15.307501535311612 A 121.54489587394497 121.54489587394497 0 0 0 112.7435504877759,-25.309659195569424"/><text text-anchor="middle" pointer-events="none" font-size="8px" fill="#000000" x="79.721884734773" y="-25.692119724541072" transform="rotate(180 79.721884734773 -28.692119724541072)" font-family="Helvetica Neue, Helvetica, Arial, sans-serif">HAS_PRODUCT</text></g><g class="relationship" transform="translate(-122.94134854187973 49.978567954596606) rotate(197.602946426907)"><path class="b-outline" fill="#A5ABB6" stroke="none" d="M 25 0.5 L 60.8180420321265 0.5 L 60.8180420321265 -0.5 L 25 -0.5 Z M 122.3961670321265 0.5 L 158.214209064253 0.5 L 158.214209064253 3.5 L 165.214209064253 0 L 158.214209064253 -3.5 L 158.214209064253 -0.5 L 122.3961670321265 -0.5 Z"/><text text-anchor="middle" pointer-events="none" font-size="8px" fill="#000000" x="91.6071045321265" y="3" transform="rotate(180 91.6071045321265 0)" font-family="Helvetica Neue, Helvetica, Arial, sans-serif">HAS_SPECIES</text></g><g class="relationship" transform="translate(-304.24879956096527 -7.545805444000649) rotate(423.6140143373198)"><path class="b-outline" fill="#A5ABB6" stroke="none" d="M 25 0.5 L 35.53330218140566 0.5 L 35.53330218140566 -0.5 L 25 -0.5 Z M 115.91611468140566 0.5 L 126.44941686281132 0.5 L 126.44941686281132 3.5 L 133.44941686281132 0 L 126.44941686281132 -3.5 L 126.44941686281132 -0.5 L 115.91611468140566 -0.5 Z"/><text text-anchor="middle" pointer-events="none" font-size="8px" fill="#000000" x="75.72470843140566" y="3" font-family="Helvetica Neue, Helvetica, Arial, sans-serif">IN_COMPARTMENT</text></g><g class="relationship" transform="translate(-165.60254647854086 -100.16952027976618) rotate(332.485659436985)"><path class="b-outline" fill="#A5ABB6" stroke="none" d="M 25 0.5 L 31.42009110883356 0.5 L 31.42009110883356 -0.5 L 25 -0.5 Z M 110.03337235883356 0.5 L 116.45346346766712 0.5 L 116.45346346766712 3.5 L 123.45346346766712 0 L 116.45346346766712 -3.5 L 116.45346346766712 -0.5 L 110.03337235883356 -0.5 Z"/><text text-anchor="middle" pointer-events="none" font-size="8px" fill="#000000" x="70.72673173383356" y="3" font-family="Helvetica Neue, Helvetica, Arial, sans-serif">HAS_KENETICLAW</text></g><g class="relationship" transform="translate(18.283187866428435 125.49658321540527) rotate(261.9130486195942)"><path class="b-outline" fill="#A5ABB6" stroke="none" d="M 25 0.5 L 34.42520665595444 0.5 L 34.42520665595444 -0.5 L 25 -0.5 Z M 99.10489415595444 0.5 L 108.53010081190888 0.5 L 108.53010081190888 3.5 L 115.53010081190888 0 L 108.53010081190888 -3.5 L 108.53010081190888 -0.5 L 99.10489415595444 -0.5 Z"/><text text-anchor="middle" pointer-events="none" font-size="8px" fill="#000000" x="66.76505040595444" y="3" transform="rotate(180 66.76505040595444 0)" font-family="Helvetica Neue, Helvetica, Arial, sans-serif">IS_COMPOSED</text></g></g><g class="layer nodes"><g class="node" aria-label="graph-node-4" transform="translate(-1.4859907187347687,-13.63604707768306)"><circle class="b-outline" cx="0" cy="0" r="25" fill="#F16667" stroke="#eb2728" stroke-width="2px"/><text class="caption" text-anchor="middle" pointer-events="none" x="0" y="5" font-size="10px" fill="#FFFFFF" font-family="Helvetica Neue, Helvetica, Arial, sans-serif"> unit</text></g><g class="node" aria-label="graph-node-8" transform="translate(-318.7303332474098,-125.66537588119587)"><circle class="b-outline" cx="0" cy="0" r="25" fill="#DA7194" stroke="#cc3c6c" stroke-width="2px"/><text class="caption" text-anchor="middle" pointer-events="none" x="0" y="5" font-size="10px" fill="#FFFFFF" font-family="Helvetica Neue, Helvetica, Arial, sans-serif"> localPar…</text></g><g class="node" aria-label="graph-node-2" transform="translate(-233.83133114500183,134.39642874319168)"><circle class="b-outline" cx="0" cy="0" r="25" fill="#F79767" stroke="#f36924" stroke-width="2px"/><text class="caption" text-anchor="middle" pointer-events="none" x="0" y="5" font-size="10px" fill="#FFFFFF" font-family="Helvetica Neue, Helvetica, Arial, sans-serif"> compart…</text></g><g class="node" aria-label="graph-node-3" transform="translate(-122.94134854187973,49.978567954596606)"><circle class="b-outline" cx="0" cy="0" r="25" fill="#57C7E3" stroke="#23b3d7" stroke-width="2px"/><text class="caption" text-anchor="middle" pointer-events="none" x="0" y="5" font-size="10px" fill="#2A2C34" font-family="Helvetica Neue, Helvetica, Arial, sans-serif"> model</text></g><g class="node" aria-label="graph-node-6" transform="translate(-165.60254647854086,-100.16952027976618)"><circle class="b-outline" cx="0" cy="0" r="25" fill="#4C8EDA" stroke="#2870c2" stroke-width="2px"/><text class="caption" text-anchor="middle" pointer-events="none" x="0" y="5" font-size="10px" fill="#FFFFFF" font-family="Helvetica Neue, Helvetica, Arial, sans-serif"> Reaction</text></g><g class="node" aria-label="graph-node-5" transform="translate(-304.24879956096527,-7.545805444000649)"><circle class="b-outline" cx="0" cy="0" r="25" fill="#ECB5C9" stroke="#da7298" stroke-width="2px"/><text class="caption" text-anchor="middle" pointer-events="none" x="0" y="5" font-size="10px" fill="#2A2C34" font-family="Helvetica Neue, Helvetica, Arial, sans-serif"> Species</text></g><g class="node" aria-label="graph-node-7" transform="translate(-33.93987721128033,-168.75065716860718)"><circle class="b-outline" cx="0" cy="0" r="25" fill="#FFC454" stroke="#d7a013" stroke-width="2px"/><text class="caption" text-anchor="middle" pointer-events="none" x="0" y="5" font-size="10px" fill="#2A2C34" font-family="Helvetica Neue, Helvetica, Arial, sans-serif"> KineticL…</text></g><g class="node" aria-label="graph-node-1" transform="translate(18.283187866428435,125.49658321540527)"><circle class="b-outline" cx="0" cy="0" r="25" fill="#D9C8AE" stroke="#c0a378" stroke-width="2px"/><text class="caption" text-anchor="middle" pointer-events="none" x="0" y="5" font-size="10px" fill="#2A2C34" font-family="Helvetica Neue, Helvetica, Arial, sans-serif"> UnitDefi…</text></g></g></svg>