<svg xmlns="http://www.w3.org/2000/svg" width="838" height="168" viewBox="0 0 838 168"><defs><style type="text/css"/></defs><g transform="translate(-217.1602129706581 -150.9486452592879) scale(1)"><g class="relationship"><g transform="translate(911.4042829893231 204.9486452592879) rotate(180)" stroke-width="5" stroke="#000000"><path d="M 58.695178092152055 -5.989663490593891 L 95.96898050729243 -9.793341079425122 A 40 40 0 0 1 100.02976931447472 -10 L 179.6214698221255 -10 L 259.2131703297763 -10 A 40 40 0 0 1 263.27395913695864 -9.79334107942512 L 275.8140605645965 -8.51366206436971 L 275.8140605645965 -8.51366206436971"/><polygon points="-24.8621506177483,0 -27.62461179749811,9.20820393249937 0,0 -27.62461179749811,-9.20820393249937" fill="#000000" transform="translate(359.242939644251 0) rotate(5.826689442008371) translate(-59 0)" stroke="none"/></g><g transform="translate(731.7828131671976 214.94864525928793) rotate(360) translate(0 -13)"><g transform="translate(0 0)"><g transform="translate(-65.453125 0)" fill="#ffffff" stroke="#000000" stroke-width="0"><rect x="0" y="0" width="130.90625" height="26" rx="5" ry="5" stroke="none"/><text xml:space="preserve" x="5" y="17.45703125" stroke="none" text-anchor="left" font-family="sans-serif" font-size="16" font-weight="normal" fill="#000000">HAS_PRODUCT</text></g></g></g></g><g class="relationship"><g transform="translate(552.161343345072 204.94864525928796) rotate(-9.065976347493017e-15)" stroke-width="5" stroke="#000000"><path d="M 58.695178092152055 -5.989663490593891 L 95.96898050729243 -9.793341079425122 A 40 40 0 0 1 100.02976931447472 -10 L 179.6214698221255 -10 L 259.2131703297763 -10 A 40 40 0 0 1 263.27395913695864 -9.79334107942512 L 275.8140605645965 -8.51366206436971 L 275.8140605645965 -8.51366206436971"/><polygon points="-24.8621506177483,0 -27.62461179749811,9.20820393249937 0,0 -27.62461179749811,-9.20820393249937" fill="#000000" transform="translate(359.242939644251 0) rotate(5.826689442008371) translate(-59 0)" stroke="none"/></g><g transform="translate(731.7828131671976 194.94864525928793) rotate(-9.065976347493017e-15) translate(0 -13)"><g transform="translate(0 0)"><g transform="translate(-68.421875 0)" fill="#ffffff" stroke="#000000" stroke-width="0"><rect x="0" y="0" width="136.84375" height="26" rx="5" ry="5" stroke="none"/><text xml:space="preserve" x="5" y="17.45703125" stroke="none" text-anchor="left" font-family="sans-serif" font-size="16" font-weight="normal" fill="#000000">HAS_REACTANT</text></g></g></g></g><g class="relationship"><g transform="translate(552.161343345072 204.94864525928796) rotate(180)" stroke-width="5" stroke="#000000"><path d="M 59 0 L 164.90460475666566 0"/><polygon points="-24.8621506177483,0 -27.62461179749811,9.20820393249937 0,0 -27.62461179749811,-9.20820393249937" fill="#000000" transform="translate(189.76675537441395 0) rotate(0)" stroke="none"/></g><g transform="translate(440.2090409667392 204.94864525928796) rotate(360) translate(0 -13)"><g transform="translate(0 0)"><g transform="translate(-60.578125 0)" fill="#ffffff" stroke="#000000" stroke-width="0"><rect x="0" y="0" width="121.15625" height="26" rx="5" ry="5" stroke="none"/><text xml:space="preserve" x="5" y="17.45703125" stroke="none" text-anchor="left" font-family="sans-serif" font-size="16" font-weight="normal" fill="#000000">HAS_SPECIES</text></g></g></g></g><g class="node"><g fill="#ffffff" stroke="#000000" stroke-width="4"><circle cx="552.161343345072" cy="204.94864525928796" r="52"/></g><g transform="translate(552.161343345072 204.94864525928796)"><g transform="scale(0.23397003463921004) translate(0 -27)"><g transform="translate(0 0)"><g transform="translate(-190.427734375 0)"><g fill="#ffffff" stroke="#000000" stroke-width="4"><rect x="0" y="0" width="380.85546875" height="54" rx="27" ry="27"/><text xml:space="preserve" x="27" y="38.142578125" stroke="none" font-family="sans-serif" font-size="40" font-weight="normal" fill="#000000">SpeciesReference</text></g></g></g></g><g transform="translate(3.429011037612589e-15 56)"><g transform="translate(0 0)"><g transform="translate(-56.015625 0)" fill="white"><rect x="0" y="0" width="112.03125" height="57.599999999999994" rx="0" ry="0" stroke="none"/><g font-family="sans-serif" font-size="16" font-weight="normal" fill="#000000" text-anchor="end"><text xml:space="preserve" x="103.140625" y="14.05703125" stroke="none">id:</text><text xml:space="preserve" x="107.5859375" y="14.05703125" stroke="none" text-anchor="start"></text><text xml:space="preserve" x="103.140625" y="33.25703125" stroke="none" text-anchor="end">stoichiometry:</text><text xml:space="preserve" x="107.5859375" y="33.25703125" stroke="none" text-anchor="start"></text><text xml:space="preserve" x="103.140625" y="52.45703125" stroke="none" text-anchor="end">constant:</text><text xml:space="preserve" x="107.5859375" y="52.45703125" stroke="none" text-anchor="start"></text></g></g></g></g></g></g><g class="node"><g fill="#ffffff" stroke="#000000" stroke-width="4"><circle cx="911.4042829893231" cy="204.9486452592879" r="52"/></g><g transform="translate(911.4042829893231 204.9486452592879)"><g transform="scale(0.41162733875169777) translate(0 -27)"><g transform="translate(0 0)"><g transform="translate(-105.935546875 0)"><g fill="#ffffff" stroke="#000000" stroke-width="4"><rect x="0" y="0" width="211.87109375" height="54" rx="27" ry="27"/><text xml:space="preserve" x="27" y="38.142578125" stroke="none" font-family="sans-serif" font-size="40" font-weight="normal" fill="#000000">Reaction</text></g></g></g></g><g transform="translate(56 -28.799999999999997)"><g transform="translate(0 0)"><g transform="translate(0 0)" fill="white"><rect x="0" y="0" width="87.140625" height="57.599999999999994" rx="0" ry="0" stroke="none"/><g font-family="sans-serif" font-size="16" font-weight="normal" fill="#000000" text-anchor="end"><text xml:space="preserve" x="78.25" y="14.05703125" stroke="none">id:</text><text xml:space="preserve" x="82.6953125" y="14.05703125" stroke="none" text-anchor="start"></text><text xml:space="preserve" x="78.25" y="33.25703125" stroke="none" text-anchor="end">name:</text><text xml:space="preserve" x="82.6953125" y="33.25703125" stroke="none" text-anchor="start"></text><text xml:space="preserve" x="78.25" y="52.45703125" stroke="none" text-anchor="end">reversible:</text><text xml:space="preserve" x="82.6953125" y="52.45703125" stroke="none" text-anchor="start"></text></g></g></g></g></g></g><g class="node"><g fill="#ffffff" stroke="#000000" stroke-width="4"><circle cx="303.3945879706581" cy="204.94864525928796" r="52"/></g><g transform="translate(303.3945879706581 204.94864525928796)"><g transform="scale(0.4420508449855404) translate(0 -27)"><g transform="translate(0 0)"><g transform="translate(-98.15234375 0)"><g fill="#ffffff" stroke="#000000" stroke-width="4"><rect x="0" y="0" width="196.3046875" height="54" rx="27" ry="27"/><text xml:space="preserve" x="27" y="38.142578125" stroke="none" font-family="sans-serif" font-size="40" font-weight="normal" fill="#000000">Species</text></g></g></g></g><g transform="translate(-56 -9.599999999999993)"><g transform="translate(0 0)"><g transform="translate(-30.234375 0)" fill="white"><rect x="0" y="0" width="30.234375" height="19.2" rx="0" ry="0" stroke="none"/><g font-family="sans-serif" font-size="16" font-weight="normal" fill="#000000" text-anchor="end"><text xml:space="preserve" x="21.34375" y="14.05703125" stroke="none">id:</text><text xml:space="preserve" x="25.7890625" y="14.05703125" stroke="none" text-anchor="start"></text></g></g></g></g></g></g></g></svg>