<svg xmlns="http://www.w3.org/2000/svg" width="1032" height="924" viewBox="0 0 1032 924"><defs><style type="text/css"/></defs><g transform="translate(-2.2613952535533457 58) scale(1)"><g class="relationship"><g transform="translate(616.4851831281619 366.0077114354925) rotate(-46.79380167496767)" stroke-width="5" stroke="#000000"><path d="M 59 0 L 233.8459411644288 0"/><polygon points="-24.8621506177483,0 -27.62461179749811,9.20820393249937 0,0 -27.62461179749811,-9.20820393249937" fill="#000000" transform="translate(258.7080917821771 0) rotate(0)" stroke="none"/></g><g transform="translate(716.7301503110931 259.2808035414986) rotate(-46.79380167496767) translate(0 -13)"><g transform="translate(0 0)"><g transform="translate(-87.83203125 0)" fill="#ffffff" stroke="#000000" stroke-width="0"><rect x="0" y="0" width="175.6640625" height="26" rx="5" ry="5" stroke="none"/><text xml:space="preserve" x="5" y="17.45703125" stroke="none" text-anchor="left" font-family="sans-serif" font-size="16" font-weight="normal" fill="#000000">HAS_COMPARTMENT</text></g></g></g></g><g class="relationship"><g transform="translate(616.4851831281619 732.8591654390065) rotate(0)" stroke-width="5" stroke="#000000"><path d="M 59 0 L 198.3475307538301 0"/><polygon points="-24.8621506177483,0 -27.62461179749811,9.20820393249937 0,0 -27.62461179749811,-9.20820393249937" fill="#000000" transform="translate(223.20968137157843 0) rotate(0)" stroke="none"/></g><g transform="translate(745.158948505077 732.8591654390065) rotate(0) translate(0 -13)"><g transform="translate(0 0)"><g transform="translate(-63.6796875 0)" fill="#ffffff" stroke="#000000" stroke-width="0"><rect x="0" y="0" width="127.359375" height="26" rx="5" ry="5" stroke="none"/><text xml:space="preserve" x="5" y="17.45703125" stroke="none" text-anchor="left" font-family="sans-serif" font-size="16" font-weight="normal" fill="#000000">IS_COMPOSED</text></g></g></g></g><g class="relationship"><g transform="translate(616.4851831281619 366.0077114354925) rotate(90)" stroke-width="5" stroke="#000000"><path d="M 59 0 L 282.98930338576565 0"/><polygon points="-24.8621506177483,0 -27.62461179749811,9.20820393249937 0,0 -27.62461179749811,-9.20820393249937" fill="#000000" transform="translate(307.85145400351394 0) rotate(0)" stroke="none"/></g><g transform="translate(616.4851831281619 537.0023631283754) rotate(270) translate(0 -13)"><g transform="translate(0 0)"><g transform="translate(-89.89453125 0)" fill="#ffffff" stroke="#000000" stroke-width="0"><rect x="0" y="0" width="179.7890625" height="26" rx="5" ry="5" stroke="none"/><text xml:space="preserve" x="5" y="17.45703125" stroke="none" text-anchor="left" font-family="sans-serif" font-size="16" font-weight="normal" fill="#000000">HAS_UNITDEFINITION</text></g></g></g></g><g class="relationship"><g transform="translate(129 396.84188613632386) rotate(90)" stroke-width="5" stroke="#000000"><path d="M 59 0 L 272.9962822740803 0"/><polygon points="-24.8621506177483,0 -27.62461179749811,9.20820393249937 0,0 -27.62461179749811,-9.20820393249937" fill="#000000" transform="translate(297.85843289182856 0) rotate(0)" stroke="none"/></g><g transform="translate(129 562.8400272733641) rotate(270) translate(0 -13)"><g transform="translate(0 0)"><g transform="translate(-77.61328125 0)" fill="#ffffff" stroke="#000000" stroke-width="0"><rect x="0" y="0" width="155.2265625" height="26" rx="5" ry="5" stroke="none"/><text xml:space="preserve" x="5" y="17.45703125" stroke="none" text-anchor="left" font-family="sans-serif" font-size="16" font-weight="normal" fill="#000000">HAS_KENETICLAW</text></g></g></g></g><g class="relationship"><g transform="translate(425.04292393257737 289.40981364186825) rotate(160.05449117389227)" stroke-width="5" stroke="#000000"><path d="M 58.695178092152055 -5.989663490593891 L 95.96898050729243 -9.793341079425122 A 40 40 0 0 1 100.02976931447472 -10 L 157.4667131578955 -10 L 214.9036570013163 -10 A 40 40 0 0 1 218.9644458084986 -9.79334107942512 L 231.5045472361365 -8.51366206436971 L 231.5045472361365 -8.51366206436971"/><polygon points="-24.8621506177483,0 -27.62461179749811,9.20820393249937 0,0 -27.62461179749811,-9.20820393249937" fill="#000000" transform="translate(314.933426315791 0) rotate(5.826689442008371) translate(-59 0)" stroke="none"/></g><g transform="translate(280.43272490370487 352.5260246306533) rotate(340.05449117389225) translate(0 -13)"><g transform="translate(0 0)"><g transform="translate(-59.53125 0)" fill="#ffffff" stroke="#000000" stroke-width="0"><rect x="0" y="0" width="119.0625" height="26" rx="5" ry="5" stroke="none"/><text xml:space="preserve" x="5" y="17.45703125" stroke="none" text-anchor="left" font-family="sans-serif" font-size="16" font-weight="normal" fill="#000000">IS_REACTANT</text></g></g></g></g><g class="relationship"><g transform="translate(129 396.84188613632386) rotate(-19.945508826107748)" stroke-width="5" stroke="#000000"><path d="M 58.695178092152055 -5.989663490593891 L 95.96898050729243 -9.793341079425122 A 40 40 0 0 1 100.02976931447472 -10 L 157.4667131578955 -10 L 214.9036570013163 -10 A 40 40 0 0 1 218.9644458084986 -9.79334107942512 L 231.5045472361365 -8.51366206436971 L 231.5045472361365 -8.51366206436971"/><polygon points="-24.8621506177483,0 -27.62461179749811,9.20820393249937 0,0 -27.62461179749811,-9.20820393249937" fill="#000000" transform="translate(314.933426315791 0) rotate(5.826689442008371) translate(-59 0)" stroke="none"/></g><g transform="translate(273.61019902887244 333.7256751475388) rotate(-19.945508826107748) translate(0 -13)"><g transform="translate(0 0)"><g transform="translate(-65.453125 0)" fill="#ffffff" stroke="#000000" stroke-width="0"><rect x="0" y="0" width="130.90625" height="26" rx="5" ry="5" stroke="none"/><text xml:space="preserve" x="5" y="17.45703125" stroke="none" text-anchor="left" font-family="sans-serif" font-size="16" font-weight="normal" fill="#000000">HAS_PRODUCT</text></g></g></g></g><g class="relationship"><g transform="translate(370.84498664700396 591.0387318768173) rotate(30.000000000000004)" stroke-width="5" stroke="#000000"><path d="M 59 0 L 199.77871650662988 0"/><polygon points="-24.8621506177483,0 -27.62461179749811,9.20820393249937 0,0 -27.62461179749811,-9.20820393249937" fill="#000000" transform="translate(224.6408671243782 0) rotate(0)" stroke="none"/></g><g transform="translate(482.8994578737404 655.7334110034748) rotate(30.000000000000004) translate(0 -13)"><g transform="translate(0 0)"><g transform="translate(-49.8984375 0)" fill="#ffffff" stroke="#000000" stroke-width="0"><rect x="0" y="0" width="99.796875" height="26" rx="5" ry="5" stroke="none"/><text xml:space="preserve" x="5" y="17.45703125" stroke="none" text-anchor="left" font-family="sans-serif" font-size="16" font-weight="normal" fill="#000000">HAS_UNITS</text></g></g></g></g><g class="relationship"><g transform="translate(616.4851831281619 366.0077114354925) rotate(137.50719605673356)" stroke-width="5" stroke="#000000"><path d="M 59 0 L 249.27155570475188 0"/><polygon points="-24.8621506177483,0 -27.62461179749811,9.20820393249937 0,0 -27.62461179749811,-9.20820393249937" fill="#000000" transform="translate(274.1337063225002 0) rotate(0)" stroke="none"/></g><g transform="translate(502.8312896978155 470.1260600695371) rotate(317.50719605673356) translate(0 -13)"><g transform="translate(0 0)"><g transform="translate(-75.09375 0)" fill="#ffffff" stroke="#000000" stroke-width="0"><rect x="0" y="0" width="150.1875" height="26" rx="5" ry="5" stroke="none"/><text xml:space="preserve" x="5" y="17.45703125" stroke="none" text-anchor="left" font-family="sans-serif" font-size="16" font-weight="normal" fill="#000000">HAS_PARAMETER</text></g></g></g></g><g class="relationship"><g transform="translate(425.04292393257737 289.40981364186825) rotate(-152.36804374592214)" stroke-width="5" stroke="#000000"><path d="M 59 0 L 250.29280252125662 0"/><polygon points="-24.8621506177483,0 -27.62461179749811,9.20820393249937 0,0 -27.62461179749811,-9.20820393249937" fill="#000000" transform="translate(275.15495313900493 0) rotate(0)" stroke="none"/></g><g transform="translate(288.0347115006575 217.6863227265958) rotate(27.631956254077885) translate(0 -13)"><g transform="translate(0 0)"><g transform="translate(-60.578125 0)" fill="#ffffff" stroke="#000000" stroke-width="0"><rect x="0" y="0" width="121.15625" height="26" rx="5" ry="5" stroke="none"/><text xml:space="preserve" x="5" y="17.45703125" stroke="none" text-anchor="left" font-family="sans-serif" font-size="16" font-weight="normal" fill="#000000">HAS_SPECIES</text></g></g></g></g><g class="relationship"><g transform="translate(129 134.43200911237832) rotate(0)" stroke-width="5" stroke="#000000"><path d="M 59 0 L 621.1342406754842 0"/><polygon points="-24.8621506177483,0 -27.62461179749811,9.20820393249937 0,0 -27.62461179749811,-9.20820393249937" fill="#000000" transform="translate(645.9963912932325 0) rotate(0)" stroke="none"/></g><g transform="translate(469.0671203377421 134.43200911237832) rotate(0) translate(0 -13)"><g transform="translate(0 0)"><g transform="translate(-79.3828125 0)" fill="#ffffff" stroke="#000000" stroke-width="0"><rect x="0" y="0" width="158.765625" height="26" rx="5" ry="5" stroke="none"/><text xml:space="preserve" x="5" y="17.45703125" stroke="none" text-anchor="left" font-family="sans-serif" font-size="16" font-weight="normal" fill="#000000">IN_COMPARTMENT</text></g></g></g></g><g class="relationship"><g transform="translate(129 134.43200911237832) rotate(-19.658248151513966)" stroke-width="5" stroke="#000000"><path d="M 59 0 L 327.63683656693684 0"/><polygon points="-24.8621506177483,0 -27.62461179749811,9.20820393249937 0,0 -27.62461179749811,-9.20820393249937" fill="#000000" transform="translate(352.4989871846851 0) rotate(0)" stroke="none"/></g><g transform="translate(311.05103571735503 69.39793156944421) rotate(-19.658248151513966) translate(0 -13)"><g transform="translate(0 0)"><g transform="translate(-103.703125 0)" fill="#ffffff" stroke="#000000" stroke-width="0"><rect x="0" y="0" width="207.40625" height="26" rx="5" ry="5" stroke="none"/><text xml:space="preserve" x="5" y="17.45703125" stroke="none" text-anchor="left" font-family="sans-serif" font-size="16" font-weight="normal" fill="#000000">BELONGS_SPECIESTYPE</text></g></g></g></g><g class="node"><g fill="#ffffff" stroke="#000000" stroke-width="4"><circle cx="616.4851831281619" cy="732.8591654390065" r="52"/></g><g transform="translate(616.4851831281619 732.8591654390065)"><g transform="scale(0.3031899383995126) translate(0 -27)"><g transform="translate(0 0)"><g transform="translate(-145.9453125 0)"><g fill="#ffffff" stroke="#000000" stroke-width="4"><rect x="0" y="0" width="291.890625" height="54" rx="27" ry="27"/><text xml:space="preserve" x="27" y="38.142578125" stroke="none" font-family="sans-serif" font-size="40" font-weight="normal" fill="#000000">UnitDefinition</text></g></g></g></g><g transform="translate(3.429011037612589e-15 56)"><g transform="translate(0 0)"><g transform="translate(-39.56640625 0)" fill="white"><rect x="0" y="0" width="79.1328125" height="76.8" rx="0" ry="0" stroke="none"/><g font-family="sans-serif" font-size="16" font-weight="normal" fill="#000000" text-anchor="end"><text xml:space="preserve" x="70.2421875" y="14.05703125" stroke="none">id:</text><text xml:space="preserve" x="74.6875" y="14.05703125" stroke="none" text-anchor="start"></text><text xml:space="preserve" x="70.2421875" y="33.25703125" stroke="none" text-anchor="end">name:</text><text xml:space="preserve" x="74.6875" y="33.25703125" stroke="none" text-anchor="start"></text><text xml:space="preserve" x="70.2421875" y="52.45703125" stroke="none" text-anchor="end">metaid:</text><text xml:space="preserve" x="74.6875" y="52.45703125" stroke="none" text-anchor="start"></text><text xml:space="preserve" x="70.2421875" y="71.65703125" stroke="none" text-anchor="end">sboTerm:</text><text xml:space="preserve" x="74.6875" y="71.65703125" stroke="none" text-anchor="start"></text></g></g></g></g></g></g><g class="node"><g fill="#ffffff" stroke="#000000" stroke-width="4"><circle cx="833.9963912932325" cy="134.43200911237832" r="52"/></g><g transform="translate(833.9963912932325 134.43200911237832)"><g transform="scale(0.29881955756447626) translate(0 -27)"><g transform="translate(0 0)"><g transform="translate(-148.15234375 0)"><g fill="#ffffff" stroke="#000000" stroke-width="4"><rect x="0" y="0" width="296.3046875" height="54" rx="27" ry="27"/><text xml:space="preserve" x="27" y="38.142578125" stroke="none" font-family="sans-serif" font-size="40" font-weight="normal" fill="#000000">Compartment</text></g></g></g></g><g transform="translate(39.59797974644666 -97.19797974644665)"><g transform="translate(0 0)"><g transform="translate(0 0)" fill="white"><rect x="0" y="0" width="147.6171875" height="57.599999999999994" rx="0" ry="0" stroke="none"/><g font-family="sans-serif" font-size="16" font-weight="normal" fill="#000000" text-anchor="end"><text xml:space="preserve" x="138.7265625" y="14.05703125" stroke="none">id:</text><text xml:space="preserve" x="143.171875" y="14.05703125" stroke="none" text-anchor="start"></text><text xml:space="preserve" x="138.7265625" y="33.25703125" stroke="none" text-anchor="end">name:</text><text xml:space="preserve" x="143.171875" y="33.25703125" stroke="none" text-anchor="start"></text><text xml:space="preserve" x="138.7265625" y="52.45703125" stroke="none" text-anchor="end">spatialDimensions:</text><text xml:space="preserve" x="143.171875" y="52.45703125" stroke="none" text-anchor="start"></text></g></g></g></g></g></g><g class="node"><g fill="#ffffff" stroke="#000000" stroke-width="4"><circle cx="616.4851831281619" cy="366.0077114354925" r="52"/></g><g transform="translate(616.4851831281619 366.0077114354925)"><g transform="scale(0.5242920341306497) translate(0 -27)"><g transform="translate(0 0)"><g transform="translate(-81.47265625 0)"><g fill="#ffffff" stroke="#000000" stroke-width="4"><rect x="0" y="0" width="162.9453125" height="54" rx="27" ry="27"/><text xml:space="preserve" x="27" y="38.142578125" stroke="none" font-family="sans-serif" font-size="40" font-weight="normal" fill="#000000">Model</text></g></g></g></g><g transform="translate(-39.597979746446654 -97.19797974644666)"><g transform="translate(0 0)"><g transform="translate(-79.1328125 0)" fill="white"><rect x="0" y="0" width="79.1328125" height="57.599999999999994" rx="0" ry="0" stroke="none"/><g font-family="sans-serif" font-size="16" font-weight="normal" fill="#000000" text-anchor="end"><text xml:space="preserve" x="70.2421875" y="14.05703125" stroke="none">id:</text><text xml:space="preserve" x="74.6875" y="14.05703125" stroke="none" text-anchor="start"></text><text xml:space="preserve" x="70.2421875" y="33.25703125" stroke="none" text-anchor="end">name:</text><text xml:space="preserve" x="74.6875" y="33.25703125" stroke="none" text-anchor="start"></text><text xml:space="preserve" x="70.2421875" y="52.45703125" stroke="none" text-anchor="end">sboTerm:</text><text xml:space="preserve" x="74.6875" y="52.45703125" stroke="none" text-anchor="start"></text></g></g></g></g></g></g><g class="node"><g fill="#ffffff" stroke="#000000" stroke-width="4"><circle cx="898.6948644997403" cy="732.8591654390065" r="52"/></g><g transform="translate(898.6948644997403 732.8591654390065)"><g transform="scale(0.6603698060836495) translate(0 -27)"><g transform="translate(0 0)"><g transform="translate(-62.56640625 0)"><g fill="#ffffff" stroke="#000000" stroke-width="4"><rect x="0" y="0" width="125.1328125" height="54" rx="27" ry="27"/><text xml:space="preserve" x="27" y="38.142578125" stroke="none" font-family="sans-serif" font-size="40" font-weight="normal" fill="#000000">Unit</text></g></g></g></g><g transform="translate(56 -48)"><g transform="translate(0 0)"><g transform="translate(0 0)" fill="white"><rect x="0" y="0" width="79.1328125" height="96" rx="0" ry="0" stroke="none"/><g font-family="sans-serif" font-size="16" font-weight="normal" fill="#000000" text-anchor="end"><text xml:space="preserve" x="70.2421875" y="14.05703125" stroke="none">id:</text><text xml:space="preserve" x="74.6875" y="14.05703125" stroke="none" text-anchor="start"></text><text xml:space="preserve" x="70.2421875" y="33.25703125" stroke="none" text-anchor="end">name:</text><text xml:space="preserve" x="74.6875" y="33.25703125" stroke="none" text-anchor="start"></text><text xml:space="preserve" x="70.2421875" y="52.45703125" stroke="none" text-anchor="end">metaid:</text><text xml:space="preserve" x="74.6875" y="52.45703125" stroke="none" text-anchor="start"></text><text xml:space="preserve" x="70.2421875" y="71.65703125" stroke="none" text-anchor="end">sboTerm:</text><text xml:space="preserve" x="74.6875" y="71.65703125" stroke="none" text-anchor="start"></text><text xml:space="preserve" x="70.2421875" y="90.85703124999999" stroke="none" text-anchor="end">kind:</text><text xml:space="preserve" x="74.6875" y="90.85703124999999" stroke="none" text-anchor="start"></text></g></g></g></g></g></g><g class="node"><g fill="#ffffff" stroke="#000000" stroke-width="4"><circle cx="425.04292393257737" cy="289.40981364186825" r="52"/></g><g transform="translate(425.04292393257737 289.40981364186825)"><g transform="scale(0.23397003463921004) translate(0 -27)"><g transform="translate(0 0)"><g transform="translate(-190.427734375 0)"><g fill="#ffffff" stroke="#000000" stroke-width="4"><rect x="0" y="0" width="380.85546875" height="54" rx="27" ry="27"/><text xml:space="preserve" x="27" y="38.142578125" stroke="none" font-family="sans-serif" font-size="40" font-weight="normal" fill="#000000">SpeciesReference</text></g></g></g></g></g></g><g class="node"><g fill="#ffffff" stroke="#000000" stroke-width="4"><circle cx="129" cy="396.84188613632386" r="52"/></g><g transform="translate(129 396.84188613632386)"><g transform="scale(0.41162733875169777) translate(0 -27)"><g transform="translate(0 0)"><g transform="translate(-105.935546875 0)"><g fill="#ffffff" stroke="#000000" stroke-width="4"><rect x="0" y="0" width="211.87109375" height="54" rx="27" ry="27"/><text xml:space="preserve" x="27" y="38.142578125" stroke="none" font-family="sans-serif" font-size="40" font-weight="normal" fill="#000000">Reaction</text></g></g></g></g><g transform="translate(-39.597979746446654 -77.99797974644666)"><g transform="translate(0 0)"><g transform="translate(-87.140625 0)" fill="white"><rect x="0" y="0" width="87.140625" height="38.4" rx="0" ry="0" stroke="none"/><g font-family="sans-serif" font-size="16" font-weight="normal" fill="#000000" text-anchor="end"><text xml:space="preserve" x="78.25" y="14.05703125" stroke="none">id:</text><text xml:space="preserve" x="82.6953125" y="14.05703125" stroke="none" text-anchor="start"></text><text xml:space="preserve" x="78.25" y="33.25703125" stroke="none" text-anchor="end">reversible:</text><text xml:space="preserve" x="82.6953125" y="33.25703125" stroke="none" text-anchor="start"></text></g></g></g></g></g></g><g class="node"><g fill="#ffffff" stroke="#000000" stroke-width="4"><circle cx="129" cy="753.7003190281524" r="52"/></g><g transform="translate(129 753.7003190281524)"><g transform="scale(0.35536411888516545) translate(0 -27)"><g transform="translate(0 0)"><g transform="translate(-123.71875 0)"><g fill="#ffffff" stroke="#000000" stroke-width="4"><rect x="0" y="0" width="247.4375" height="54" rx="27" ry="27"/><text xml:space="preserve" x="27" y="38.142578125" stroke="none" font-family="sans-serif" font-size="40" font-weight="normal" fill="#000000">KineticLaw</text></g></g></g></g><g transform="translate(3.429011037612589e-15 56)"><g transform="translate(0 0)"><g transform="translate(-35.56640625 0)" fill="white"><rect x="0" y="0" width="71.1328125" height="19.2" rx="0" ry="0" stroke="none"/><g font-family="sans-serif" font-size="16" font-weight="normal" fill="#000000" text-anchor="end"><text xml:space="preserve" x="62.2421875" y="14.05703125" stroke="none">formula:</text><text xml:space="preserve" x="66.6875" y="14.05703125" stroke="none" text-anchor="start"></text></g></g></g></g></g></g><g class="node"><g fill="#ffffff" stroke="#000000" stroke-width="4"><circle cx="370.84498664700396" cy="591.0387318768173" r="52"/></g><g transform="translate(370.84498664700396 591.0387318768173)"><g transform="scale(0.3647855078236079) translate(0 -27)"><g transform="translate(0 0)"><g transform="translate(-120.369140625 0)"><g fill="#ffffff" stroke="#000000" stroke-width="4"><rect x="0" y="0" width="240.73828125" height="54" rx="27" ry="27"/><text xml:space="preserve" x="27" y="38.142578125" stroke="none" font-family="sans-serif" font-size="40" font-weight="normal" fill="#000000">Parameter</text></g></g></g></g><g transform="translate(-56 -19.199999999999992)"><g transform="translate(0 0)"><g transform="translate(-56.03125 0)" fill="white"><rect x="0" y="0" width="56.03125" height="38.4" rx="0" ry="0" stroke="none"/><g font-family="sans-serif" font-size="16" font-weight="normal" fill="#000000" text-anchor="end"><text xml:space="preserve" x="47.140625" y="14.05703125" stroke="none">id:</text><text xml:space="preserve" x="51.5859375" y="14.05703125" stroke="none" text-anchor="start"></text><text xml:space="preserve" x="47.140625" y="33.25703125" stroke="none" text-anchor="end">value:</text><text xml:space="preserve" x="51.5859375" y="33.25703125" stroke="none" text-anchor="start"></text></g></g></g></g></g></g><g class="node"><g fill="#ffffff" stroke="#000000" stroke-width="4"><circle cx="129" cy="134.43200911237832" r="52"/></g><g transform="translate(129 134.43200911237832)"><g transform="scale(0.4420508449855404) translate(0 -27)"><g transform="translate(0 0)"><g transform="translate(-98.15234375 0)"><g fill="#ffffff" stroke="#000000" stroke-width="4"><rect x="0" y="0" width="196.3046875" height="54" rx="27" ry="27"/><text xml:space="preserve" x="27" y="38.142578125" stroke="none" font-family="sans-serif" font-size="40" font-weight="normal" fill="#000000">Species</text></g></g></g></g><g transform="translate(-56 -9.599999999999993)"><g transform="translate(0 0)"><g transform="translate(-30.234375 0)" fill="white"><rect x="0" y="0" width="30.234375" height="19.2" rx="0" ry="0" stroke="none"/><g font-family="sans-serif" font-size="16" font-weight="normal" fill="#000000" text-anchor="end"><text xml:space="preserve" x="21.34375" y="14.05703125" stroke="none">id:</text><text xml:space="preserve" x="25.7890625" y="14.05703125" stroke="none" text-anchor="start"></text></g></g></g></g></g></g><g class="node"><g fill="#ffffff" stroke="#000000" stroke-width="4"><circle cx="516.5151549386579" cy="-4" r="52"/></g><g transform="translate(516.5151549386579 -4)"><g transform="scale(0.312339393919367) translate(0 -27)"><g transform="translate(0 0)"><g transform="translate(-141.521484375 0)"><g fill="#ffffff" stroke="#000000" stroke-width="4"><rect x="0" y="0" width="283.04296875" height="54" rx="27" ry="27"/><text xml:space="preserve" x="27" y="38.142578125" stroke="none" font-family="sans-serif" font-size="40" font-weight="normal" fill="#000000">SpeciesType</text></g></g></g></g><g transform="translate(56 -9.6)"><g transform="translate(0 0)"><g transform="translate(0 0)" fill="white"><rect x="0" y="0" width="30.234375" height="19.2" rx="0" ry="0" stroke="none"/><g font-family="sans-serif" font-size="16" font-weight="normal" fill="#000000" text-anchor="end"><text xml:space="preserve" x="21.34375" y="14.05703125" stroke="none">id:</text><text xml:space="preserve" x="25.7890625" y="14.05703125" stroke="none" text-anchor="start"></text></g></g></g></g></g></g></g></svg>