<svg xmlns="http://www.w3.org/2000/svg" width="1084" height="707" viewBox="0 0 1084 707"><defs><style type="text/css"/></defs><g transform="translate(-4.941082753553346 136.8) scale(1)"><g class="relationship"><g transform="translate(560.2494455950304 512.4882057789567) rotate(0)" stroke-width="5" stroke="#000000"><path d="M 59 0 L 240.55191757450004 0"/><polygon points="-24.8621506177483,0 -27.62461179749811,9.20820393249937 0,0 -27.62461179749811,-9.20820393249937" fill="#000000" transform="translate(265.41406819224835 0) rotate(0)" stroke="none"/></g><g transform="translate(710.0254043822804 512.4882057789567) rotate(0) translate(0 -13)"><g transform="translate(0 0)"><g transform="translate(-79.3828125 0)" fill="#ffffff" stroke="#000000" stroke-width="0"><rect x="0" y="0" width="158.765625" height="26" rx="5" ry="5" stroke="none"/><text xml:space="preserve" x="5" y="17.45703125" stroke="none" text-anchor="left" font-family="sans-serif" font-size="16" font-weight="normal" fill="#000000">IN_COMPARTMENT</text></g></g></g></g><g class="relationship"><g transform="translate(833.1523435518487 337.07869655036575) rotate(147.26894360280295)" stroke-width="5" stroke="#000000"><path d="M 58.695178092152055 -5.989663490593891 L 95.96898050729243 -9.793341079425122 A 40 40 0 0 1 100.02976931447472 -10 L 162.20703409612418 -10 L 224.38429887777366 -10 A 40 40 0 0 1 228.44508768495595 -9.79334107942512 L 240.98518911259384 -8.51366206436971 L 240.98518911259384 -8.51366206436971"/><polygon points="-24.8621506177483,0 -27.62461179749811,9.20820393249937 0,0 -27.62461179749811,-9.20820393249937" fill="#000000" transform="translate(324.41406819224835 0) rotate(5.826689442008371) translate(-59 0)" stroke="none"/></g><g transform="translate(702.1078582789914 433.1956294489611) rotate(327.26894360280295) translate(0 -13)"><g transform="translate(0 0)"><g transform="translate(-65.453125 0)" fill="#ffffff" stroke="#000000" stroke-width="0"><rect x="0" y="0" width="130.90625" height="26" rx="5" ry="5" stroke="none"/><text xml:space="preserve" x="5" y="17.45703125" stroke="none" text-anchor="left" font-family="sans-serif" font-size="16" font-weight="normal" fill="#000000">HAS_PRODUCT</text></g></g></g></g><g class="relationship"><g transform="translate(560.2494455950304 512.4882057789567) rotate(-32.73105639719706)" stroke-width="5" stroke="#000000"><path d="M 58.695178092152055 -5.989663490593891 L 95.96898050729243 -9.793341079425122 A 40 40 0 0 1 100.02976931447472 -10 L 162.20703409612418 -10 L 224.38429887777366 -10 A 40 40 0 0 1 228.44508768495595 -9.79334107942512 L 240.98518911259384 -8.51366206436971 L 240.98518911259384 -8.51366206436971"/><polygon points="-24.8621506177483,0 -27.62461179749811,9.20820393249937 0,0 -27.62461179749811,-9.20820393249937" fill="#000000" transform="translate(324.41406819224835 0) rotate(5.826689442008371) translate(-59 0)" stroke="none"/></g><g transform="translate(691.2939308678876 416.37127288036146) rotate(-32.73105639719706) translate(0 -13)"><g transform="translate(0 0)"><g transform="translate(-59.53125 0)" fill="#ffffff" stroke="#000000" stroke-width="0"><rect x="0" y="0" width="119.0625" height="26" rx="5" ry="5" stroke="none"/><text xml:space="preserve" x="5" y="17.45703125" stroke="none" text-anchor="left" font-family="sans-serif" font-size="16" font-weight="normal" fill="#000000">IS_REACTANT</text></g></g></g></g><g class="relationship"><g transform="translate(833.1523435518487 337.07869655036575) rotate(-179.99999999999997)" stroke-width="5" stroke="#000000"><path d="M 58.695178092152055 -5.989663490593891 L 95.96898050729243 -9.793341079425122 A 40 40 0 0 1 100.02976931447472 -10 L 200.4514489784092 -10 L 300.87312864234366 -10 A 40 40 0 0 1 304.933917449526 -9.79334107942512 L 317.47401887716387 -8.51366206436971 L 317.47401887716387 -8.51366206436971"/><polygon points="-24.8621506177483,0 -27.62461179749811,9.20820393249937 0,0 -27.62461179749811,-9.20820393249937" fill="#000000" transform="translate(400.9028979568184 0) rotate(5.826689442008371) translate(-59 0)" stroke="none"/></g><g transform="translate(632.7008945734395 347.07869655036563) rotate(2.5444437451708134e-14) translate(0 -13)"><g transform="translate(0 0)"><g transform="translate(-104.57421875 0)" fill="#ffffff" stroke="#000000" stroke-width="0"><rect x="0" y="0" width="209.1484375" height="26" rx="5" ry="5" stroke="none"/><text xml:space="preserve" x="5" y="17.45703125" stroke="none" text-anchor="left" font-family="sans-serif" font-size="16" font-weight="normal" fill="#000000">HAS_LOWERFLUXBOUND</text></g></g></g></g><g class="relationship"><g transform="translate(833.1523435518487 337.07869655036575) rotate(-179.99999999999997)" stroke-width="5" stroke="#000000"><path d="M 58.695178092152055 5.989663490593891 L 95.96898050729243 9.793341079425122 A 40 40 0 0 0 100.02976931447472 10 L 200.4514489784092 10 L 300.87312864234366 10 A 40 40 0 0 0 304.933917449526 9.79334107942512 L 317.47401887716387 8.51366206436971 L 317.47401887716387 8.51366206436971"/><polygon points="-24.8621506177483,0 -27.62461179749811,9.20820393249937 0,0 -27.62461179749811,-9.20820393249937" fill="#000000" transform="translate(400.9028979568184 0) rotate(-5.826689442008371) translate(-59 0)" stroke="none"/></g><g transform="translate(632.7008945734395 327.07869655036563) rotate(2.5444437451708134e-14) translate(0 -13)"><g transform="translate(0 0)"><g transform="translate(-102.80078125 0)" fill="#ffffff" stroke="#000000" stroke-width="0"><rect x="0" y="0" width="205.6015625" height="26" rx="5" ry="5" stroke="none"/><text xml:space="preserve" x="5" y="17.45703125" stroke="none" text-anchor="left" font-family="sans-serif" font-size="16" font-weight="normal" fill="#000000">HAS_UPPERFLUXBOUND</text></g></g></g></g><g class="relationship"><g transform="translate(129 337.0786965503655) rotate(0)" stroke-width="5" stroke="#000000"><path d="M 59 0 L 219.38729497728204 0"/><polygon points="-24.8621506177483,0 -27.62461179749811,9.20820393249937 0,0 -27.62461179749811,-9.20820393249937" fill="#000000" transform="translate(244.24944559503035 0) rotate(0)" stroke="none"/></g><g transform="translate(268.19364748864103 337.0786965503655) rotate(0) translate(0 -13)"><g transform="translate(0 0)"><g transform="translate(-75.09375 0)" fill="#ffffff" stroke="#000000" stroke-width="0"><rect x="0" y="0" width="150.1875" height="26" rx="5" ry="5" stroke="none"/><text xml:space="preserve" x="5" y="17.45703125" stroke="none" text-anchor="left" font-family="sans-serif" font-size="16" font-weight="normal" fill="#000000">HAS_PARAMETER</text></g></g></g></g><g class="relationship"><g transform="translate(129 337.0786965503655) rotate(-39.589248281361996)" stroke-width="5" stroke="#000000"><path d="M 59 0 L 309.64488465683667 0"/><polygon points="-24.8621506177483,0 -27.62461179749811,9.20820393249937 0,0 -27.62461179749811,-9.20820393249937" fill="#000000" transform="translate(334.507035274585 0) rotate(0)" stroke="none"/></g><g transform="translate(271.0449278824492 219.61380303411994) rotate(-39.589248281361996) translate(0 -13)"><g transform="translate(0 0)"><g transform="translate(-70.3515625 0)" fill="#ffffff" stroke="#000000" stroke-width="0"><rect x="0" y="0" width="140.703125" height="26" rx="5" ry="5" stroke="none"/><text xml:space="preserve" x="5" y="17.45703125" stroke="none" text-anchor="left" font-family="sans-serif" font-size="16" font-weight="normal" fill="#000000">HAS_OBJECTIVE</text></g></g></g></g><g class="relationship"><g transform="translate(432.24944559503035 86.30477335080269) rotate(0)" stroke-width="5" stroke="#000000"><path d="M 59 0 L 317.0407473390701 0"/><polygon points="-24.8621506177483,0 -27.62461179749811,9.20820393249937 0,0 -27.62461179749811,-9.20820393249937" fill="#000000" transform="translate(341.9028979568184 0) rotate(0)" stroke="none"/></g><g transform="translate(620.2698192645654 86.30477335080269) rotate(0) translate(0 -13)"><g transform="translate(0 0)"><g transform="translate(-90.80078125 0)" fill="#ffffff" stroke="#000000" stroke-width="0"><rect x="0" y="0" width="181.6015625" height="26" rx="5" ry="5" stroke="none"/><text xml:space="preserve" x="5" y="17.45703125" stroke="none" text-anchor="left" font-family="sans-serif" font-size="16" font-weight="normal" fill="#000000">HAS_FLUXOBJECTIVE</text></g></g></g></g><g class="relationship"><g transform="translate(129 337.0786965503655) rotate(-90)" stroke-width="5" stroke="#000000"><path d="M 59 0 L 257.21654593261724 0"/><polygon points="-24.8621506177483,0 -27.62461179749811,9.20820393249937 0,0 -27.62461179749811,-9.20820393249937" fill="#000000" transform="translate(282.0786965503655 0) rotate(0)" stroke="none"/></g><g transform="translate(129 178.9704235840569) rotate(90) translate(0 -13)"><g transform="translate(0 0)"><g transform="translate(-89.89453125 0)" fill="#ffffff" stroke="#000000" stroke-width="0"><rect x="0" y="0" width="179.7890625" height="26" rx="5" ry="5" stroke="none"/><text xml:space="preserve" x="5" y="17.45703125" stroke="none" text-anchor="left" font-family="sans-serif" font-size="16" font-weight="normal" fill="#000000">HAS_UNITDEFINITION</text></g></g></g></g><g class="node"><g fill="#ffffff" stroke="#000000" stroke-width="4"><circle cx="884.6635137872787" cy="512.4882057789567" r="52"/></g><g transform="translate(884.6635137872787 512.4882057789567)"><g transform="scale(0.29881955756447626) translate(0 -27)"><g transform="translate(0 0)"><g transform="translate(-148.15234375 0)"><g fill="#ffffff" stroke="#000000" stroke-width="4"><rect x="0" y="0" width="296.3046875" height="54" rx="27" ry="27"/><text xml:space="preserve" x="27" y="38.142578125" stroke="none" font-family="sans-serif" font-size="40" font-weight="normal" fill="#000000">Compartment</text></g></g></g></g><g transform="translate(56 -48)"><g transform="translate(0 0)"><g transform="translate(0 0)" fill="white"><rect x="0" y="0" width="147.6171875" height="96" rx="0" ry="0" stroke="none"/><g font-family="sans-serif" font-size="16" font-weight="normal" fill="#000000" text-anchor="end"><text xml:space="preserve" x="138.7265625" y="14.05703125" stroke="none">id:</text><text xml:space="preserve" x="143.171875" y="14.05703125" stroke="none" text-anchor="start"></text><text xml:space="preserve" x="138.7265625" y="33.25703125" stroke="none" text-anchor="end">spatialDimensions:</text><text xml:space="preserve" x="143.171875" y="33.25703125" stroke="none" text-anchor="start"></text><text xml:space="preserve" x="138.7265625" y="52.45703125" stroke="none" text-anchor="end">size:</text><text xml:space="preserve" x="143.171875" y="52.45703125" stroke="none" text-anchor="start"></text><text xml:space="preserve" x="138.7265625" y="71.65703125" stroke="none" text-anchor="end">constant:</text><text xml:space="preserve" x="143.171875" y="71.65703125" stroke="none" text-anchor="start"></text><text xml:space="preserve" x="138.7265625" y="90.85703124999999" stroke="none" text-anchor="end">units:</text><text xml:space="preserve" x="143.171875" y="90.85703124999999" stroke="none" text-anchor="start"></text></g></g></g></g></g></g><g class="node"><g fill="#ffffff" stroke="#000000" stroke-width="4"><circle cx="560.2494455950304" cy="512.4882057789567" r="52"/></g><g transform="translate(560.2494455950304 512.4882057789567)"><g transform="scale(0.4420508449855404) translate(0 -27)"><g transform="translate(0 0)"><g transform="translate(-98.15234375 0)"><g fill="#ffffff" stroke="#000000" stroke-width="4"><rect x="0" y="0" width="196.3046875" height="54" rx="27" ry="27"/><text xml:space="preserve" x="27" y="38.142578125" stroke="none" font-family="sans-serif" font-size="40" font-weight="normal" fill="#000000">Species</text></g></g></g></g><g transform="translate(-56 -57.59999999999999)"><g transform="translate(0 0)"><g transform="translate(-188.5390625 0)" fill="white"><rect x="0" y="0" width="188.5390625" height="115.19999999999999" rx="0" ry="0" stroke="none"/><g font-family="sans-serif" font-size="16" font-weight="normal" fill="#000000" text-anchor="end"><text xml:space="preserve" x="179.6484375" y="14.05703125" stroke="none">id:</text><text xml:space="preserve" x="184.09375" y="14.05703125" stroke="none" text-anchor="start"></text><text xml:space="preserve" x="179.6484375" y="33.25703125" stroke="none" text-anchor="end">initialConcentration:</text><text xml:space="preserve" x="184.09375" y="33.25703125" stroke="none" text-anchor="start"></text><text xml:space="preserve" x="179.6484375" y="52.45703125" stroke="none" text-anchor="end">substanceUnits:</text><text xml:space="preserve" x="184.09375" y="52.45703125" stroke="none" text-anchor="start"></text><text xml:space="preserve" x="179.6484375" y="71.65703125" stroke="none" text-anchor="end">hasOnlySubstanceUnits:</text><text xml:space="preserve" x="184.09375" y="71.65703125" stroke="none" text-anchor="start"></text><text xml:space="preserve" x="179.6484375" y="90.85703124999999" stroke="none" text-anchor="end">constant:</text><text xml:space="preserve" x="184.09375" y="90.85703124999999" stroke="none" text-anchor="start"></text><text xml:space="preserve" x="179.6484375" y="110.05703125" stroke="none" text-anchor="end">boundaryCondition:</text><text xml:space="preserve" x="184.09375" y="110.05703125" stroke="none" text-anchor="start"></text></g></g></g></g></g></g><g class="node"><g fill="#ffffff" stroke="#000000" stroke-width="4"><circle cx="432.24944559503035" cy="337.0786965503655" r="52"/></g><g transform="translate(432.24944559503035 337.0786965503655)"><g transform="scale(0.3647855078236079) translate(0 -27)"><g transform="translate(0 0)"><g transform="translate(-120.369140625 0)"><g fill="#ffffff" stroke="#000000" stroke-width="4"><rect x="0" y="0" width="240.73828125" height="54" rx="27" ry="27"/><text xml:space="preserve" x="27" y="38.142578125" stroke="none" font-family="sans-serif" font-size="40" font-weight="normal" fill="#000000">Parameter</text></g></g></g></g><g transform="translate(3.429011037612589e-15 -132.8)"><g transform="translate(0 0)"><g transform="translate(-39.56640625 0)" fill="white"><rect x="0" y="0" width="79.1328125" height="76.8" rx="0" ry="0" stroke="none"/><g font-family="sans-serif" font-size="16" font-weight="normal" fill="#000000" text-anchor="end"><text xml:space="preserve" x="70.2421875" y="14.05703125" stroke="none">id:</text><text xml:space="preserve" x="74.6875" y="14.05703125" stroke="none" text-anchor="start"></text><text xml:space="preserve" x="70.2421875" y="33.25703125" stroke="none" text-anchor="end">sboTerm:</text><text xml:space="preserve" x="74.6875" y="33.25703125" stroke="none" text-anchor="start"></text><text xml:space="preserve" x="70.2421875" y="52.45703125" stroke="none" text-anchor="end">value:</text><text xml:space="preserve" x="74.6875" y="52.45703125" stroke="none" text-anchor="start"></text><text xml:space="preserve" x="70.2421875" y="71.65703125" stroke="none" text-anchor="end">constant:</text><text xml:space="preserve" x="74.6875" y="71.65703125" stroke="none" text-anchor="start"></text></g></g></g></g></g></g><g class="node"><g fill="#ffffff" stroke="#000000" stroke-width="4"><circle cx="833.1523435518487" cy="337.07869655036575" r="52"/></g><g transform="translate(833.1523435518487 337.07869655036575)"><g transform="scale(0.41162733875169777) translate(0 -27)"><g transform="translate(0 0)"><g transform="translate(-105.935546875 0)"><g fill="#ffffff" stroke="#000000" stroke-width="4"><rect x="0" y="0" width="211.87109375" height="54" rx="27" ry="27"/><text xml:space="preserve" x="27" y="38.142578125" stroke="none" font-family="sans-serif" font-size="40" font-weight="normal" fill="#000000">Reaction</text></g></g></g></g><g transform="translate(56 -48)"><g transform="translate(0 0)"><g transform="translate(0 0)" fill="white"><rect x="0" y="0" width="135.1953125" height="96" rx="0" ry="0" stroke="none"/><g font-family="sans-serif" font-size="16" font-weight="normal" fill="#000000" text-anchor="end"><text xml:space="preserve" x="126.3046875" y="14.05703125" stroke="none">id:</text><text xml:space="preserve" x="130.75" y="14.05703125" stroke="none" text-anchor="start"></text><text xml:space="preserve" x="126.3046875" y="33.25703125" stroke="none" text-anchor="end">reversible:</text><text xml:space="preserve" x="130.75" y="33.25703125" stroke="none" text-anchor="start"></text><text xml:space="preserve" x="126.3046875" y="52.45703125" stroke="none" text-anchor="end">fast:</text><text xml:space="preserve" x="130.75" y="52.45703125" stroke="none" text-anchor="start"></text><text xml:space="preserve" x="126.3046875" y="71.65703125" stroke="none" text-anchor="end">lowerFluxBound:</text><text xml:space="preserve" x="130.75" y="71.65703125" stroke="none" text-anchor="start"></text><text xml:space="preserve" x="126.3046875" y="90.85703124999999" stroke="none" text-anchor="end">upperFluxBound:</text><text xml:space="preserve" x="130.75" y="90.85703124999999" stroke="none" text-anchor="start"></text></g></g></g></g></g></g><g class="node"><g fill="#ffffff" stroke="#000000" stroke-width="4"><circle cx="129" cy="337.0786965503655" r="52"/></g><g transform="translate(129 337.0786965503655)"><g transform="scale(0.5242920341306497) translate(0 -27)"><g transform="translate(0 0)"><g transform="translate(-81.47265625 0)"><g fill="#ffffff" stroke="#000000" stroke-width="4"><rect x="0" y="0" width="162.9453125" height="54" rx="27" ry="27"/><text xml:space="preserve" x="27" y="38.142578125" stroke="none" font-family="sans-serif" font-size="40" font-weight="normal" fill="#000000">Model</text></g></g></g></g><g transform="translate(-39.597979746446654 39.59797974644666)"><g transform="translate(0 0)"><g transform="translate(-84.4609375 0)" fill="white"><rect x="0" y="0" width="84.4609375" height="57.599999999999994" rx="0" ry="0" stroke="none"/><g font-family="sans-serif" font-size="16" font-weight="normal" fill="#000000" text-anchor="end"><text xml:space="preserve" x="75.5703125" y="14.05703125" stroke="none">id:</text><text xml:space="preserve" x="80.015625" y="14.05703125" stroke="none" text-anchor="start"></text><text xml:space="preserve" x="75.5703125" y="33.25703125" stroke="none" text-anchor="end">timeUnits:</text><text xml:space="preserve" x="80.015625" y="33.25703125" stroke="none" text-anchor="start"></text><text xml:space="preserve" x="75.5703125" y="52.45703125" stroke="none" text-anchor="end">strict:</text><text xml:space="preserve" x="80.015625" y="52.45703125" stroke="none" text-anchor="start"></text></g></g></g></g></g></g><g class="node"><g fill="#ffffff" stroke="#000000" stroke-width="4"><circle cx="129" cy="-4" r="52"/></g><g transform="translate(129 -4)"><g transform="scale(0.3031899383995126) translate(0 -27)"><g transform="translate(0 0)"><g transform="translate(-145.9453125 0)"><g fill="#ffffff" stroke="#000000" stroke-width="4"><rect x="0" y="0" width="291.890625" height="54" rx="27" ry="27"/><text xml:space="preserve" x="27" y="38.142578125" stroke="none" font-family="sans-serif" font-size="40" font-weight="normal" fill="#000000">UnitDefinition</text></g></g></g></g><g transform="translate(3.429011037612589e-15 -132.8)"><g transform="translate(0 0)"><g transform="translate(-39.56640625 0)" fill="white"><rect x="0" y="0" width="79.1328125" height="76.8" rx="0" ry="0" stroke="none"/><g font-family="sans-serif" font-size="16" font-weight="normal" fill="#000000" text-anchor="end"><text xml:space="preserve" x="70.2421875" y="14.05703125" stroke="none">id:</text><text xml:space="preserve" x="74.6875" y="14.05703125" stroke="none" text-anchor="start"></text><text xml:space="preserve" x="70.2421875" y="33.25703125" stroke="none" text-anchor="end">name:</text><text xml:space="preserve" x="74.6875" y="33.25703125" stroke="none" text-anchor="start"></text><text xml:space="preserve" x="70.2421875" y="52.45703125" stroke="none" text-anchor="end">metaid:</text><text xml:space="preserve" x="74.6875" y="52.45703125" stroke="none" text-anchor="start"></text><text xml:space="preserve" x="70.2421875" y="71.65703125" stroke="none" text-anchor="end">sboTerm:</text><text xml:space="preserve" x="74.6875" y="71.65703125" stroke="none" text-anchor="start"></text></g></g></g></g></g></g><g class="node"><g fill="#ffffff" stroke="#000000" stroke-width="4"><circle cx="432.24944559503035" cy="86.30477335080269" r="52"/></g><g transform="translate(432.24944559503035 86.30477335080269)"><g transform="scale(0.39604410447255894) translate(0 -27)"><g transform="translate(0 0)"><g transform="translate(-110.369140625 0)"><g fill="#ffffff" stroke="#000000" stroke-width="4"><rect x="0" y="0" width="220.73828125" height="54" rx="27" ry="27"/><text xml:space="preserve" x="27" y="38.142578125" stroke="none" font-family="sans-serif" font-size="40" font-weight="normal" fill="#000000">Objective</text></g></g></g></g><g transform="translate(3.429011037612589e-15 -94.4)"><g transform="translate(0 0)"><g transform="translate(-24.01171875 0)" fill="white"><rect x="0" y="0" width="48.0234375" height="38.4" rx="0" ry="0" stroke="none"/><g font-family="sans-serif" font-size="16" font-weight="normal" fill="#000000" text-anchor="end"><text xml:space="preserve" x="39.1328125" y="14.05703125" stroke="none">id:</text><text xml:space="preserve" x="43.578125" y="14.05703125" stroke="none" text-anchor="start"></text><text xml:space="preserve" x="39.1328125" y="33.25703125" stroke="none" text-anchor="end">type:</text><text xml:space="preserve" x="43.578125" y="33.25703125" stroke="none" text-anchor="start"></text></g></g></g></g></g></g><g class="node"><g fill="#ffffff" stroke="#000000" stroke-width="4"><circle cx="833.1523435518487" cy="86.30477335080269" r="52"/></g><g transform="translate(833.1523435518487 86.30477335080269)"><g transform="scale(0.29881955756447626) translate(0 -27)"><g transform="translate(0 0)"><g transform="translate(-148.15234375 0)"><g fill="#ffffff" stroke="#000000" stroke-width="4"><rect x="0" y="0" width="296.3046875" height="54" rx="27" ry="27"/><text xml:space="preserve" x="27" y="38.142578125" stroke="none" font-family="sans-serif" font-size="40" font-weight="normal" fill="#000000">FluxObjective</text></g></g></g></g><g transform="translate(56 -19.2)"><g transform="translate(0 0)"><g transform="translate(0 0)" fill="white"><rect x="0" y="0" width="89.8203125" height="38.4" rx="0" ry="0" stroke="none"/><g font-family="sans-serif" font-size="16" font-weight="normal" fill="#000000" text-anchor="end"><text xml:space="preserve" x="80.9296875" y="14.05703125" stroke="none">reaction:</text><text xml:space="preserve" x="85.375" y="14.05703125" stroke="none" text-anchor="start"></text><text xml:space="preserve" x="80.9296875" y="33.25703125" stroke="none" text-anchor="end">coefficient:</text><text xml:space="preserve" x="85.375" y="33.25703125" stroke="none" text-anchor="start"></text></g></g></g></g></g></g></g></svg>