<svg xmlns="http://www.w3.org/2000/svg" width="1044" height="629" viewBox="0 0 1044 629"><defs><style type="text/css"/></defs><g transform="translate(12.832354746446654 -96.02664302263958) scale(1)"><g class="relationship"><g transform="translate(410.13715680605134 512.4882057789567) rotate(0)" stroke-width="5" stroke="#000000"><path d="M 59 0 L 333.1123860591634 0"/><polygon points="-24.8621506177483,0 -27.62461179749811,9.20820393249937 0,0 -27.62461179749811,-9.20820393249937" fill="#000000" transform="translate(357.97453667691167 0) rotate(0)" stroke="none"/></g><g transform="translate(606.1933498356331 512.4882057789567) rotate(0) translate(0 -13)"><g transform="translate(0 0)"><g transform="translate(-79.3828125 0)" fill="#ffffff" stroke="#000000" stroke-width="0"><rect x="0" y="0" width="158.765625" height="26" rx="5" ry="5" stroke="none"/><text xml:space="preserve" x="5" y="17.45703125" stroke="none" text-anchor="left" font-family="sans-serif" font-size="16" font-weight="normal" fill="#000000">IN_COMPARTMENT</text></g></g></g></g><g class="relationship"><g transform="translate(129 337.0786965503655) rotate(-26.267449153409373)" stroke-width="5" stroke="#000000"><path d="M 59 0 L 247.50863394963855 0"/><polygon points="-24.8621506177483,0 -27.62461179749811,9.20820393249937 0,0 -27.62461179749811,-9.20820393249937" fill="#000000" transform="translate(272.37078456738686 0) rotate(0)" stroke="none"/></g><g transform="translate(266.4289701635741 269.2541889502521) rotate(-26.267449153409373) translate(0 -13)"><g transform="translate(0 0)"><g transform="translate(-55.234375 0)" fill="#ffffff" stroke="#000000" stroke-width="0"><rect x="0" y="0" width="110.46875" height="26" rx="5" ry="5" stroke="none"/><text xml:space="preserve" x="5" y="17.45703125" stroke="none" text-anchor="left" font-family="sans-serif" font-size="16" font-weight="normal" fill="#000000">HAS_GROUP</text></g></g></g></g><g class="relationship"><g transform="translate(426.15277562376315 190.42664302263958) rotate(0)" stroke-width="5" stroke="#000000"><path d="M 59 0 L 317.0967672414516 0"/><polygon points="-24.8621506177483,0 -27.62461179749811,9.20820393249937 0,0 -27.62461179749811,-9.20820393249937" fill="#000000" transform="translate(341.95891785919986 0) rotate(0)" stroke="none"/></g><g transform="translate(614.201159244489 190.42664302263958) rotate(0) translate(0 -13)"><g transform="translate(0 0)"><g transform="translate(-61.01171875 0)" fill="#ffffff" stroke="#000000" stroke-width="0"><rect x="0" y="0" width="122.0234375" height="26" rx="5" ry="5" stroke="none"/><text xml:space="preserve" x="5" y="17.45703125" stroke="none" text-anchor="left" font-family="sans-serif" font-size="16" font-weight="normal" fill="#000000">HAS_MEMBER</text></g></g></g></g><g class="relationship"><g transform="translate(129 337.0786965503655) rotate(31.961218204266007)" stroke-width="5" stroke="#000000"><path d="M 59 0 L 247.50863394963855 0"/><polygon points="-24.8621506177483,0 -27.62461179749811,9.20820393249937 0,0 -27.62461179749811,-9.20820393249937" fill="#000000" transform="translate(272.37078456738686 0) rotate(0)" stroke="none"/></g><g transform="translate(259.021972210988 418.2031220570121) rotate(31.961218204266007) translate(0 -13)"><g transform="translate(0 0)"><g transform="translate(-60.578125 0)" fill="#ffffff" stroke="#000000" stroke-width="0"><rect x="0" y="0" width="121.15625" height="26" rx="5" ry="5" stroke="none"/><text xml:space="preserve" x="5" y="17.45703125" stroke="none" text-anchor="left" font-family="sans-serif" font-size="16" font-weight="normal" fill="#000000">HAS_SPECIES</text></g></g></g></g><g class="relationship"><g transform="translate(129 337.0786965503655) rotate(90)" stroke-width="5" stroke="#000000"><path d="M 59 0 L 190.41657723268426 0"/><polygon points="-24.8621506177483,0 -27.62461179749811,9.20820393249937 0,0 -27.62461179749811,-9.20820393249937" fill="#000000" transform="translate(215.27872785043257 0) rotate(0)" stroke="none"/></g><g transform="translate(129 461.78698516670767) rotate(270) translate(0 -13)"><g transform="translate(0 0)"><g transform="translate(-47.23828125 0)" fill="#ffffff" stroke="#000000" stroke-width="0"><rect x="0" y="0" width="94.4765625" height="26" rx="5" ry="5" stroke="none"/><text xml:space="preserve" x="5" y="17.45703125" stroke="none" text-anchor="left" font-family="sans-serif" font-size="16" font-weight="normal" fill="#000000">HAS_RULE</text></g></g></g></g><g class="node"><g fill="#ffffff" stroke="#000000" stroke-width="4"><circle cx="827.111693482963" cy="512.4882057789567" r="52"/></g><g transform="translate(827.111693482963 512.4882057789567)"><g transform="scale(0.29881955756447626) translate(0 -27)"><g transform="translate(0 0)"><g transform="translate(-148.15234375 0)"><g fill="#ffffff" stroke="#000000" stroke-width="4"><rect x="0" y="0" width="296.3046875" height="54" rx="27" ry="27"/><text xml:space="preserve" x="27" y="38.142578125" stroke="none" font-family="sans-serif" font-size="40" font-weight="normal" fill="#000000">Compartment</text></g></g></g></g><g transform="translate(56 -48)"><g transform="translate(0 0)"><g transform="translate(0 0)" fill="white"><rect x="0" y="0" width="147.6171875" height="96" rx="0" ry="0" stroke="none"/><g font-family="sans-serif" font-size="16" font-weight="normal" fill="#000000" text-anchor="end"><text xml:space="preserve" x="138.7265625" y="14.05703125" stroke="none">id:</text><text xml:space="preserve" x="143.171875" y="14.05703125" stroke="none" text-anchor="start"></text><text xml:space="preserve" x="138.7265625" y="33.25703125" stroke="none" text-anchor="end">spatialDimensions:</text><text xml:space="preserve" x="143.171875" y="33.25703125" stroke="none" text-anchor="start"></text><text xml:space="preserve" x="138.7265625" y="52.45703125" stroke="none" text-anchor="end">size:</text><text xml:space="preserve" x="143.171875" y="52.45703125" stroke="none" text-anchor="start"></text><text xml:space="preserve" x="138.7265625" y="71.65703125" stroke="none" text-anchor="end">constant:</text><text xml:space="preserve" x="143.171875" y="71.65703125" stroke="none" text-anchor="start"></text><text xml:space="preserve" x="138.7265625" y="90.85703124999999" stroke="none" text-anchor="end">units:</text><text xml:space="preserve" x="143.171875" y="90.85703124999999" stroke="none" text-anchor="start"></text></g></g></g></g></g></g><g class="node"><g fill="#ffffff" stroke="#000000" stroke-width="4"><circle cx="410.13715680605134" cy="512.4882057789567" r="52"/></g><g transform="translate(410.13715680605134 512.4882057789567)"><g transform="scale(0.4420508449855404) translate(0 -27)"><g transform="translate(0 0)"><g transform="translate(-98.15234375 0)"><g fill="#ffffff" stroke="#000000" stroke-width="4"><rect x="0" y="0" width="196.3046875" height="54" rx="27" ry="27"/><text xml:space="preserve" x="27" y="38.142578125" stroke="none" font-family="sans-serif" font-size="40" font-weight="normal" fill="#000000">Species</text></g></g></g></g><g transform="translate(3.429011037612589e-15 56)"><g transform="translate(0 0)"><g transform="translate(-94.26953125 0)" fill="white"><rect x="0" y="0" width="188.5390625" height="115.19999999999999" rx="0" ry="0" stroke="none"/><g font-family="sans-serif" font-size="16" font-weight="normal" fill="#000000" text-anchor="end"><text xml:space="preserve" x="179.6484375" y="14.05703125" stroke="none">id:</text><text xml:space="preserve" x="184.09375" y="14.05703125" stroke="none" text-anchor="start"></text><text xml:space="preserve" x="179.6484375" y="33.25703125" stroke="none" text-anchor="end">initialConcentration:</text><text xml:space="preserve" x="184.09375" y="33.25703125" stroke="none" text-anchor="start"></text><text xml:space="preserve" x="179.6484375" y="52.45703125" stroke="none" text-anchor="end">substanceUnits:</text><text xml:space="preserve" x="184.09375" y="52.45703125" stroke="none" text-anchor="start"></text><text xml:space="preserve" x="179.6484375" y="71.65703125" stroke="none" text-anchor="end">hasOnlySubstanceUnits:</text><text xml:space="preserve" x="184.09375" y="71.65703125" stroke="none" text-anchor="start"></text><text xml:space="preserve" x="179.6484375" y="90.85703124999999" stroke="none" text-anchor="end">constant:</text><text xml:space="preserve" x="184.09375" y="90.85703124999999" stroke="none" text-anchor="start"></text><text xml:space="preserve" x="179.6484375" y="110.05703125" stroke="none" text-anchor="end">boundaryCondition:</text><text xml:space="preserve" x="184.09375" y="110.05703125" stroke="none" text-anchor="start"></text></g></g></g></g></g></g><g class="node"><g fill="#ffffff" stroke="#000000" stroke-width="4"><circle cx="129" cy="337.0786965503655" r="52"/></g><g transform="translate(129 337.0786965503655)"><g transform="scale(0.5242920341306497) translate(0 -27)"><g transform="translate(0 0)"><g transform="translate(-81.47265625 0)"><g fill="#ffffff" stroke="#000000" stroke-width="4"><rect x="0" y="0" width="162.9453125" height="54" rx="27" ry="27"/><text xml:space="preserve" x="27" y="38.142578125" stroke="none" font-family="sans-serif" font-size="40" font-weight="normal" fill="#000000">model</text></g></g></g></g><g transform="translate(-39.597979746446654 -77.99797974644666)"><g transform="translate(0 0)"><g transform="translate(-102.234375 0)" fill="white"><rect x="0" y="0" width="102.234375" height="38.4" rx="0" ry="0" stroke="none"/><g font-family="sans-serif" font-size="16" font-weight="normal" fill="#000000" text-anchor="end"><text xml:space="preserve" x="75.5703125" y="14.05703125" stroke="none">id:</text><text xml:space="preserve" x="80.015625" y="14.05703125" stroke="none" text-anchor="start">str</text><text xml:space="preserve" x="75.5703125" y="33.25703125" stroke="none" text-anchor="end">timeUnits:</text><text xml:space="preserve" x="80.015625" y="33.25703125" stroke="none" text-anchor="start">str</text></g></g></g></g></g></g><g class="node"><g fill="#ffffff" stroke="#000000" stroke-width="4"><circle cx="426.15277562376315" cy="190.42664302263958" r="52"/></g><g transform="translate(426.15277562376315 190.42664302263958)"><g transform="scale(0.5442349532366113) translate(0 -27)"><g transform="translate(0 0)"><g transform="translate(-78.15234375 0)"><g fill="#ffffff" stroke="#000000" stroke-width="4"><rect x="0" y="0" width="156.3046875" height="54" rx="27" ry="27"/><text xml:space="preserve" x="27" y="38.142578125" stroke="none" font-family="sans-serif" font-size="40" font-weight="normal" fill="#000000">group</text></g></g></g></g><g transform="translate(3.429011037612589e-15 -94.4)"><g transform="translate(0 0)"><g transform="translate(-23.56640625 0)" fill="white"><rect x="0" y="0" width="47.1328125" height="38.4" rx="0" ry="0" stroke="none"/><g font-family="sans-serif" font-size="16" font-weight="normal" fill="#000000" text-anchor="end"><text xml:space="preserve" x="38.2421875" y="14.05703125" stroke="none">id:</text><text xml:space="preserve" x="42.6875" y="14.05703125" stroke="none" text-anchor="start"></text><text xml:space="preserve" x="38.2421875" y="33.25703125" stroke="none" text-anchor="end">kind:</text><text xml:space="preserve" x="42.6875" y="33.25703125" stroke="none" text-anchor="start"></text></g></g></g></g></g></g><g class="node"><g fill="#ffffff" stroke="#000000" stroke-width="4"><circle cx="827.111693482963" cy="190.42664302263958" r="52"/></g><g transform="translate(827.111693482963 190.42664302263958)"><g transform="scale(0.43303186594673865) translate(0 -27)"><g transform="translate(0 0)"><g transform="translate(-100.349609375 0)"><g fill="#ffffff" stroke="#000000" stroke-width="4"><rect x="0" y="0" width="200.69921875" height="54" rx="27" ry="27"/><text xml:space="preserve" x="27" y="38.142578125" stroke="none" font-family="sans-serif" font-size="40" font-weight="normal" fill="#000000">member</text></g></g></g></g><g transform="translate(56 -9.6)"><g transform="translate(0 0)"><g transform="translate(0 0)" fill="white"><rect x="0" y="0" width="91.59375" height="19.2" rx="0" ry="0" stroke="none"/><g font-family="sans-serif" font-size="16" font-weight="normal" fill="#000000" text-anchor="end"><text xml:space="preserve" x="82.703125" y="14.05703125" stroke="none">metaIdRef:</text><text xml:space="preserve" x="87.1484375" y="14.05703125" stroke="none" text-anchor="start"></text></g></g></g></g></g></g><g class="node"><g fill="#ffffff" stroke="#000000" stroke-width="4"><circle cx="129" cy="611.3574244007981" r="52"/></g><g transform="translate(129 611.3574244007981)"><g transform="scale(0.26081826913331074) translate(0 -27)"><g transform="translate(0 0)"><g transform="translate(-170.408203125 0)"><g fill="#ffffff" stroke="#000000" stroke-width="4"><rect x="0" y="0" width="340.81640625" height="54" rx="27" ry="27"/><text xml:space="preserve" x="27" y="38.142578125" stroke="none" font-family="sans-serif" font-size="40" font-weight="normal" fill="#000000">assignmentRule</text></g></g></g></g><g transform="translate(3.429011037612589e-15 56)"><g transform="translate(0 0)"><g transform="translate(-36.90625 0)" fill="white"><rect x="0" y="0" width="73.8125" height="57.599999999999994" rx="0" ry="0" stroke="none"/><g font-family="sans-serif" font-size="16" font-weight="normal" fill="#000000" text-anchor="end"><text xml:space="preserve" x="64.921875" y="14.05703125" stroke="none">id:</text><text xml:space="preserve" x="69.3671875" y="14.05703125" stroke="none" text-anchor="start"></text><text xml:space="preserve" x="64.921875" y="33.25703125" stroke="none" text-anchor="end">variable:</text><text xml:space="preserve" x="69.3671875" y="33.25703125" stroke="none" text-anchor="start"></text><text xml:space="preserve" x="64.921875" y="52.45703125" stroke="none" text-anchor="end">math:</text><text xml:space="preserve" x="69.3671875" y="52.45703125" stroke="none" text-anchor="start"></text></g></g></g></g></g></g></g></svg>