<svg xmlns="http://www.w3.org/2000/svg" width="987" height="762" viewBox="0 0 987 762"><defs><style type="text/css"/></defs><g transform="translate(-59.167645253553346 136.8) scale(1)"><g class="relationship"><g transform="translate(129 375.06175603591373) rotate(-90)" stroke-width="5" stroke="#000000"><path d="M 59 0 L 295.19960541816545 0"/><polygon points="-24.8621506177483,0 -27.62461179749811,9.20820393249937 0,0 -27.62461179749811,-9.20820393249937" fill="#000000" transform="translate(320.06175603591373 0) rotate(0)" stroke="none"/></g><g transform="translate(129 197.961953326831) rotate(90) translate(0 -13)"><g transform="translate(0 0)"><g transform="translate(-111.41015625 0)" fill="#ffffff" stroke="#000000" stroke-width="0"><rect x="0" y="0" width="222.8203125" height="26" rx="5" ry="5" stroke="none"/><text xml:space="preserve" x="5" y="17.45703125" stroke="none" text-anchor="left" font-family="sans-serif" font-size="16" font-weight="normal" fill="#000000">HAS_QUALITATIVESPECIES</text></g></g></g></g><g class="relationship"><g transform="translate(129 375.06175603591373) rotate(0)" stroke-width="5" stroke="#000000"><path d="M 59 0 L 295.19960541816545 0"/><polygon points="-24.8621506177483,0 -27.62461179749811,9.20820393249937 0,0 -27.62461179749811,-9.20820393249937" fill="#000000" transform="translate(320.06175603591373 0) rotate(0)" stroke="none"/></g><g transform="translate(306.0998027090827 375.06175603591373) rotate(0) translate(0 -13)"><g transform="translate(0 0)"><g transform="translate(-74.34375 0)" fill="#ffffff" stroke="#000000" stroke-width="0"><rect x="0" y="0" width="148.6875" height="26" rx="5" ry="5" stroke="none"/><text xml:space="preserve" x="5" y="17.45703125" stroke="none" text-anchor="left" font-family="sans-serif" font-size="16" font-weight="normal" fill="#000000">HAS_TRANSITION</text></g></g></g></g><g class="relationship"><g transform="translate(129 375.06175603591373) rotate(-36.08029468517052)" stroke-width="5" stroke="#000000"><path d="M 59 0 L 295.19960541816556 0"/><polygon points="-24.8621506177483,0 -27.62461179749811,9.20820393249937 0,0 -27.62461179749811,-9.20820393249937" fill="#000000" transform="translate(320.06175603591385 0) rotate(0)" stroke="none"/></g><g transform="translate(272.13072770798647 270.7644171179035) rotate(-36.08029468517052) translate(0 -13)"><g transform="translate(0 0)"><g transform="translate(-87.83203125 0)" fill="#ffffff" stroke="#000000" stroke-width="0"><rect x="0" y="0" width="175.6640625" height="26" rx="5" ry="5" stroke="none"/><text xml:space="preserve" x="5" y="17.45703125" stroke="none" text-anchor="left" font-family="sans-serif" font-size="16" font-weight="normal" fill="#000000">HAS_COMPARTMENT</text></g></g></g></g><g class="relationship"><g transform="translate(508.06175603591373 375.06175603591373) rotate(-41.86955504012691)" stroke-width="5" stroke="#000000"><path d="M 59 0 L 250.60607634281698 0"/><polygon points="-24.8621506177483,0 -27.62461179749811,9.20820393249937 0,0 -27.62461179749811,-9.20820393249937" fill="#000000" transform="translate(275.4682269605653 0) rotate(0)" stroke="none"/></g><g transform="translate(623.3383622946359 271.7404867997584) rotate(-41.86955504012691) translate(0 -13)"><g transform="translate(0 0)"><g transform="translate(-49.8984375 0)" fill="#ffffff" stroke="#000000" stroke-width="0"><rect x="0" y="0" width="99.796875" height="26" rx="5" ry="5" stroke="none"/><text xml:space="preserve" x="5" y="17.45703125" stroke="none" text-anchor="left" font-family="sans-serif" font-size="16" font-weight="normal" fill="#000000">HAS_INPUT</text></g></g></g></g><g class="relationship"><g transform="translate(508.06175603591373 375.06175603591373) rotate(-9.737510864380661e-15)" stroke-width="5" stroke="#000000"><path d="M 59 0 L 250.60607634281698 0"/><polygon points="-24.8621506177483,0 -27.62461179749811,9.20820393249937 0,0 -27.62461179749811,-9.20820393249937" fill="#000000" transform="translate(275.4682269605653 0) rotate(0)" stroke="none"/></g><g transform="translate(662.8647942073222 375.06175603591373) rotate(-9.737510864380661e-15) translate(0 -13)"><g transform="translate(0 0)"><g transform="translate(-58.78515625 0)" fill="#ffffff" stroke="#000000" stroke-width="0"><rect x="0" y="0" width="117.5703125" height="26" rx="5" ry="5" stroke="none"/><text xml:space="preserve" x="5" y="17.45703125" stroke="none" text-anchor="left" font-family="sans-serif" font-size="16" font-weight="normal" fill="#000000">HAS_OUTPUT</text></g></g></g></g><g class="relationship"><g transform="translate(508.06175603591373 375.06175603591373) rotate(34.83732640194649)" stroke-width="5" stroke="#000000"><path d="M 59 0 L 250.60607634281703 0"/><polygon points="-24.8621506177483,0 -27.62461179749811,9.20820393249937 0,0 -27.62461179749811,-9.20820393249937" fill="#000000" transform="translate(275.46822696056535 0) rotate(0)" stroke="none"/></g><g transform="translate(635.1205653556722 463.49274382494514) rotate(34.83732640194649) translate(0 -13)"><g transform="translate(0 0)"><g transform="translate(-89.890625 0)" fill="#ffffff" stroke="#000000" stroke-width="0"><rect x="0" y="0" width="179.78125" height="26" rx="5" ry="5" stroke="none"/><text xml:space="preserve" x="5" y="17.45703125" stroke="none" text-anchor="left" font-family="sans-serif" font-size="16" font-weight="normal" fill="#000000">HAS_FUNCTIONTERM</text></g></g></g></g><g class="node"><g fill="#ffffff" stroke="#000000" stroke-width="4"><circle cx="435.35485843432286" cy="151.82529932976408" r="52"/></g><g transform="translate(435.35485843432286 151.82529932976408)"><g transform="scale(0.29881955756447626) translate(0 -27)"><g transform="translate(0 0)"><g transform="translate(-148.15234375 0)"><g fill="#ffffff" stroke="#000000" stroke-width="4"><rect x="0" y="0" width="296.3046875" height="54" rx="27" ry="27"/><text xml:space="preserve" x="27" y="38.142578125" stroke="none" font-family="sans-serif" font-size="40" font-weight="normal" fill="#000000">Compartment</text></g></g></g></g><g transform="translate(39.59797974644666 -97.19797974644665)"><g transform="translate(0 0)"><g transform="translate(0 0)" fill="white"><rect x="0" y="0" width="78.265625" height="57.599999999999994" rx="0" ry="0" stroke="none"/><g font-family="sans-serif" font-size="16" font-weight="normal" fill="#000000" text-anchor="end"><text xml:space="preserve" x="69.375" y="14.05703125" stroke="none">id:</text><text xml:space="preserve" x="73.8203125" y="14.05703125" stroke="none" text-anchor="start"></text><text xml:space="preserve" x="69.375" y="33.25703125" stroke="none" text-anchor="end">name:</text><text xml:space="preserve" x="73.8203125" y="33.25703125" stroke="none" text-anchor="start"></text><text xml:space="preserve" x="69.375" y="52.45703125" stroke="none" text-anchor="end">constant:</text><text xml:space="preserve" x="73.8203125" y="52.45703125" stroke="none" text-anchor="start"></text></g></g></g></g></g></g><g class="node"><g fill="#ffffff" stroke="#000000" stroke-width="4"><circle cx="129" cy="375.06175603591373" r="52"/></g><g transform="translate(129 375.06175603591373)"><g transform="scale(0.5242920341306497) translate(0 -27)"><g transform="translate(0 0)"><g transform="translate(-81.47265625 0)"><g fill="#ffffff" stroke="#000000" stroke-width="4"><rect x="0" y="0" width="162.9453125" height="54" rx="27" ry="27"/><text xml:space="preserve" x="27" y="38.142578125" stroke="none" font-family="sans-serif" font-size="40" font-weight="normal" fill="#000000">Model</text></g></g></g></g><g transform="translate(-39.597979746446654 39.59797974644666)"><g transform="translate(0 0)"><g transform="translate(-30.234375 0)" fill="white"><rect x="0" y="0" width="30.234375" height="19.2" rx="0" ry="0" stroke="none"/><g font-family="sans-serif" font-size="16" font-weight="normal" fill="#000000" text-anchor="end"><text xml:space="preserve" x="21.34375" y="14.05703125" stroke="none">id:</text><text xml:space="preserve" x="25.7890625" y="14.05703125" stroke="none" text-anchor="start"></text></g></g></g></g></g></g><g class="node"><g fill="#ffffff" stroke="#000000" stroke-width="4"><circle cx="129" cy="-4" r="52"/></g><g transform="translate(129 -4)"><g transform="scale(0.23132986093962446) translate(0 -27)"><g transform="translate(0 0)"><g transform="translate(-192.64453125 0)"><g fill="#ffffff" stroke="#000000" stroke-width="4"><rect x="0" y="0" width="385.2890625" height="54" rx="27" ry="27"/><text xml:space="preserve" x="27" y="38.142578125" stroke="none" font-family="sans-serif" font-size="40" font-weight="normal" fill="#000000">QualitativeSpecies</text></g></g></g></g><g transform="translate(3.429011037612589e-15 -132.8)"><g transform="translate(0 0)"><g transform="translate(-55.57421875 0)" fill="white"><rect x="0" y="0" width="111.1484375" height="76.8" rx="0" ry="0" stroke="none"/><g font-family="sans-serif" font-size="16" font-weight="normal" fill="#000000" text-anchor="end"><text xml:space="preserve" x="102.2578125" y="14.05703125" stroke="none">id:</text><text xml:space="preserve" x="106.703125" y="14.05703125" stroke="none" text-anchor="start"></text><text xml:space="preserve" x="102.2578125" y="33.25703125" stroke="none" text-anchor="end">constant:</text><text xml:space="preserve" x="106.703125" y="33.25703125" stroke="none" text-anchor="start"></text><text xml:space="preserve" x="102.2578125" y="52.45703125" stroke="none" text-anchor="end">compartment:</text><text xml:space="preserve" x="106.703125" y="52.45703125" stroke="none" text-anchor="start"></text><text xml:space="preserve" x="102.2578125" y="71.65703125" stroke="none" text-anchor="end">maxLevel:</text><text xml:space="preserve" x="106.703125" y="71.65703125" stroke="none" text-anchor="start"></text></g></g></g></g></g></g><g class="node"><g fill="#ffffff" stroke="#000000" stroke-width="4"><circle cx="508.06175603591373" cy="375.06175603591373" r="52"/></g><g transform="translate(508.06175603591373 375.06175603591373)"><g transform="scale(0.3838553214329478) translate(0 -27)"><g transform="translate(0 0)"><g transform="translate(-114.080078125 0)"><g fill="#ffffff" stroke="#000000" stroke-width="4"><rect x="0" y="0" width="228.16015625" height="54" rx="27" ry="27"/><text xml:space="preserve" x="27" y="38.142578125" stroke="none" font-family="sans-serif" font-size="40" font-weight="normal" fill="#000000">Transition</text></g></g></g></g><g transform="translate(3.429011037612589e-15 56)"><g transform="translate(0 0)"><g transform="translate(-15.1171875 0)" fill="white"><rect x="0" y="0" width="30.234375" height="19.2" rx="0" ry="0" stroke="none"/><g font-family="sans-serif" font-size="16" font-weight="normal" fill="#000000" text-anchor="end"><text xml:space="preserve" x="21.34375" y="14.05703125" stroke="none">id:</text><text xml:space="preserve" x="25.7890625" y="14.05703125" stroke="none" text-anchor="start"></text></g></g></g></g></g></g><g class="node"><g fill="#ffffff" stroke="#000000" stroke-width="4"><circle cx="757.1289743594571" cy="151.82529932976408" r="52"/></g><g transform="translate(757.1289743594571 151.82529932976408)"><g transform="scale(0.5889156161994341) translate(0 -27)"><g transform="translate(0 0)"><g transform="translate(-71.482421875 0)"><g fill="#ffffff" stroke="#000000" stroke-width="4"><rect x="0" y="0" width="142.96484375" height="54" rx="27" ry="27"/><text xml:space="preserve" x="27" y="38.142578125" stroke="none" font-family="sans-serif" font-size="40" font-weight="normal" fill="#000000">Input</text></g></g></g></g><g transform="translate(39.59797974644666 -135.59797974644664)"><g transform="translate(0 0)"><g transform="translate(0 0)" fill="white"><rect x="0" y="0" width="146.75" height="96" rx="0" ry="0" stroke="none"/><g font-family="sans-serif" font-size="16" font-weight="normal" fill="#000000" text-anchor="end"><text xml:space="preserve" x="137.859375" y="14.05703125" stroke="none">id:</text><text xml:space="preserve" x="142.3046875" y="14.05703125" stroke="none" text-anchor="start"></text><text xml:space="preserve" x="137.859375" y="33.25703125" stroke="none" text-anchor="end">qualitativeSpecies:</text><text xml:space="preserve" x="142.3046875" y="33.25703125" stroke="none" text-anchor="start"></text><text xml:space="preserve" x="137.859375" y="52.45703125" stroke="none" text-anchor="end">thresholdLevel:</text><text xml:space="preserve" x="142.3046875" y="52.45703125" stroke="none" text-anchor="start"></text><text xml:space="preserve" x="137.859375" y="71.65703125" stroke="none" text-anchor="end">transitionEffect:</text><text xml:space="preserve" x="142.3046875" y="71.65703125" stroke="none" text-anchor="start"></text><text xml:space="preserve" x="137.859375" y="90.85703124999999" stroke="none" text-anchor="end">sign:</text><text xml:space="preserve" x="142.3046875" y="90.85703124999999" stroke="none" text-anchor="start"></text></g></g></g></g></g></g><g class="node"><g fill="#ffffff" stroke="#000000" stroke-width="4"><circle cx="842.529982996479" cy="375.0617560359137" r="52"/></g><g transform="translate(842.529982996479 375.0617560359137)"><g transform="scale(0.4937964536294197) translate(0 -27)"><g transform="translate(0 0)"><g transform="translate(-87.0390625 0)"><g fill="#ffffff" stroke="#000000" stroke-width="4"><rect x="0" y="0" width="174.078125" height="54" rx="27" ry="27"/><text xml:space="preserve" x="27" y="38.142578125" stroke="none" font-family="sans-serif" font-size="40" font-weight="normal" fill="#000000">Output</text></g></g></g></g><g transform="translate(56 -19.2)"><g transform="translate(0 0)"><g transform="translate(0 0)" fill="white"><rect x="0" y="0" width="146.75" height="38.4" rx="0" ry="0" stroke="none"/><g font-family="sans-serif" font-size="16" font-weight="normal" fill="#000000" text-anchor="end"><text xml:space="preserve" x="137.859375" y="14.05703125" stroke="none">transitionEffect:</text><text xml:space="preserve" x="142.3046875" y="14.05703125" stroke="none" text-anchor="start"></text><text xml:space="preserve" x="137.859375" y="33.25703125" stroke="none" text-anchor="end">qualitativeSpecies:</text><text xml:space="preserve" x="142.3046875" y="33.25703125" stroke="none" text-anchor="start"></text></g></g></g></g></g></g><g class="node"><g fill="#ffffff" stroke="#000000" stroke-width="4"><circle cx="782.5856618641988" cy="566.126195361831" r="52"/></g><g transform="translate(782.5856618641988 566.126195361831)"><g transform="scale(0.29881955756447626) translate(0 -27)"><g transform="translate(0 0)"><g transform="translate(-148.15234375 0)"><g fill="#ffffff" stroke="#000000" stroke-width="4"><rect x="0" y="0" width="296.3046875" height="54" rx="27" ry="27"/><text xml:space="preserve" x="27" y="38.142578125" stroke="none" font-family="sans-serif" font-size="40" font-weight="normal" fill="#000000">FunctionTerm</text></g></g></g></g><g transform="translate(39.59797974644666 39.597979746446654)"><g transform="translate(0 0)"><g transform="translate(0 0)" fill="white"><rect x="0" y="0" width="53.3515625" height="19.2" rx="0" ry="0" stroke="none"/><g font-family="sans-serif" font-size="16" font-weight="normal" fill="#000000" text-anchor="end"><text xml:space="preserve" x="44.4609375" y="14.05703125" stroke="none">math:</text><text xml:space="preserve" x="48.90625" y="14.05703125" stroke="none" text-anchor="start"></text></g></g></g></g></g></g></g></svg>