<svg xmlns="http://www.w3.org/2000/svg" width="1579" height="1007" viewBox="0 0 1579 1007"><defs><style type="text/css"/></defs><g transform="translate(-2.1484375 147.60345589396132) scale(1)"><g class="relationship"><g transform="translate(1173.0663664623225 7.194523852485304) rotate(56.304112960135676)" stroke-width="5" stroke="#000000"><path d="M 59 0 L 304.2762666989264 0"/><polygon points="-24.8621506177483,0 -27.62461179749811,9.20820393249937 0,0 -27.62461179749811,-9.20820393249937" fill="#000000" transform="translate(329.1384173166747 0) rotate(0)" stroke="none"/></g><g transform="translate(1273.8364245884425 158.31635176604573) rotate(56.304112960135676) translate(0 -13)"><g transform="translate(0 0)"><g transform="translate(-79.3828125 0)" fill="#ffffff" stroke="#000000" stroke-width="0"><rect x="0" y="0" width="158.765625" height="26" rx="5" ry="5" stroke="none"/><text xml:space="preserve" x="5" y="17.45703125" stroke="none" text-anchor="left" font-family="sans-serif" font-size="16" font-weight="normal" fill="#000000">IN_COMPARTMENT</text></g></g></g></g><g class="relationship"><g transform="translate(750.3664526245086 7.194523852485247) rotate(139.2774046407383)" stroke-width="5" stroke="#000000"><path d="M 59 0 L 184.92705100708952 0"/><polygon points="-24.8621506177483,0 -27.62461179749811,9.20820393249937 0,0 -27.62461179749811,-9.20820393249937" fill="#000000" transform="translate(209.7892016248378 0) rotate(0)" stroke="none"/></g><g transform="translate(657.9330879638995 86.7632026826171) rotate(319.27740464073827) translate(0 -13)"><g transform="translate(0 0)"><g transform="translate(-67.234375 0)" fill="#ffffff" stroke="#000000" stroke-width="0"><rect x="0" y="0" width="134.46875" height="26" rx="5" ry="5" stroke="none"/><text xml:space="preserve" x="5" y="17.45703125" stroke="none" text-anchor="left" font-family="sans-serif" font-size="16" font-weight="normal" fill="#000000">HAS_REACTION</text></g></g></g></g><g class="relationship"><g transform="translate(750.3664526245086 7.194523852485247) rotate(7.70496488690622e-15)" stroke-width="5" stroke="#000000"><path d="M 59 0 L 338.83776322006565 0"/><polygon points="-24.8621506177483,0 -27.62461179749811,9.20820393249937 0,0 -27.62461179749811,-9.20820393249937" fill="#000000" transform="translate(363.69991383781394 0) rotate(0)" stroke="none"/></g><g transform="translate(949.2853342345414 7.194523852485274) rotate(7.70496488690622e-15) translate(0 -13)"><g transform="translate(0 0)"><g transform="translate(-60.578125 0)" fill="#ffffff" stroke="#000000" stroke-width="0"><rect x="0" y="0" width="121.15625" height="26" rx="5" ry="5" stroke="none"/><text xml:space="preserve" x="5" y="17.45703125" stroke="none" text-anchor="left" font-family="sans-serif" font-size="16" font-weight="normal" fill="#000000">HAS_SPECIES</text></g></g></g></g><g class="relationship"><g transform="translate(750.3664526245086 7.194523852485247) rotate(90)" stroke-width="5" stroke="#000000"><path d="M 59 0 L 239.06666409056234 0"/><polygon points="-24.8621506177483,0 -27.62461179749811,9.20820393249937 0,0 -27.62461179749811,-9.20820393249937" fill="#000000" transform="translate(263.92881470831065 0) rotate(0)" stroke="none"/></g><g transform="translate(750.3664526245086 156.2278558977664) rotate(270) translate(0 -13)"><g transform="translate(0 0)"><g transform="translate(-57.31640625 0)" fill="#ffffff" stroke="#000000" stroke-width="0"><rect x="0" y="0" width="114.6328125" height="26" rx="5" ry="5" stroke="none"/><text xml:space="preserve" x="5" y="17.45703125" stroke="none" text-anchor="left" font-family="sans-serif" font-size="16" font-weight="normal" fill="#000000">HAS_LAYOUT</text></g></g></g></g><g class="relationship"><g transform="translate(750.3664526245086 330.1233385607959) rotate(90)" stroke-width="5" stroke="#000000"><path d="M 59 0 L 331.5175260354557 0"/><polygon points="-24.8621506177483,0 -27.62461179749811,9.20820393249937 0,0 -27.62461179749811,-9.20820393249937" fill="#000000" transform="translate(356.379676653204 0) rotate(0)" stroke="none"/></g><g transform="translate(750.3664526245086 525.3821015785238) rotate(270) translate(0 -13)"><g transform="translate(0 0)"><g transform="translate(-114.36328125 0)" fill="#ffffff" stroke="#000000" stroke-width="0"><rect x="0" y="0" width="228.7265625" height="26" rx="5" ry="5" stroke="none"/><text xml:space="preserve" x="5" y="17.45703125" stroke="none" text-anchor="left" font-family="sans-serif" font-size="16" font-weight="normal" fill="#000000">HAS_COMPARTMENTGLYPH</text></g></g></g></g><g class="relationship"><g transform="translate(750.3664526245086 745.5030152139999) rotate(-0.008743780762596706)" stroke-width="5" stroke="#000000"><path d="M 59 0 L 338.8377681422222 0"/><polygon points="-24.8621506177483,0 -27.62461179749811,9.20820393249937 0,0 -27.62461179749811,-9.20820393249937" fill="#000000" transform="translate(363.6999187599705 0) rotate(0)" stroke="none"/></g><g transform="translate(949.2853343792959 745.4726586481256) rotate(-0.008743780762596706) translate(0 -13)"><g transform="translate(0 0)"><g transform="translate(-85.90625 0)" fill="#ffffff" stroke="#000000" stroke-width="0"><rect x="0" y="0" width="171.8125" height="26" rx="5" ry="5" stroke="none"/><text xml:space="preserve" x="5" y="17.45703125" stroke="none" text-anchor="left" font-family="sans-serif" font-size="16" font-weight="normal" fill="#000000">HAS_BOUNDINGBOX</text></g></g></g></g><g class="relationship"><g transform="translate(1173.0663664623225 745.4385079250675) rotate(-30.00000000000003)" stroke-width="5" stroke="#000000"><path d="M 59 0 L 251.25653108815337 0"/><polygon points="-24.8621506177483,0 -27.62461179749811,9.20820393249937 0,0 -27.62461179749811,-9.20820393249937" fill="#000000" transform="translate(276.1186817059017 0) rotate(0)" stroke="none"/></g><g transform="translate(1307.4113852685111 667.8743751530291) rotate(-30.00000000000003) translate(0 -13)"><g transform="translate(0 0)"><g transform="translate(-64.125 0)" fill="#ffffff" stroke="#000000" stroke-width="0"><rect x="0" y="0" width="128.25" height="26" rx="5" ry="5" stroke="none"/><text xml:space="preserve" x="5" y="17.45703125" stroke="none" text-anchor="left" font-family="sans-serif" font-size="16" font-weight="normal" fill="#000000">HAS_POSITION</text></g></g></g></g><g class="relationship"><g transform="translate(1173.0663664623225 745.4385079250675) rotate(-0.7323761460133017)" stroke-width="5" stroke="#000000"><path d="M 59 0 L 206.38285213631215 0"/><polygon points="-24.8621506177483,0 -27.62461179749811,9.20820393249937 0,0 -27.62461179749811,-9.20820393249937" fill="#000000" transform="translate(231.24500275406047 0) rotate(0)" stroke="none"/></g><g transform="translate(1305.7469525108393 743.7424425303683) rotate(-0.7323761460133017) translate(0 -13)"><g transform="translate(0 0)"><g transform="translate(-76.5703125 0)" fill="#ffffff" stroke="#000000" stroke-width="0"><rect x="0" y="0" width="153.140625" height="26" rx="5" ry="5" stroke="none"/><text xml:space="preserve" x="5" y="17.45703125" stroke="none" text-anchor="left" font-family="sans-serif" font-size="16" font-weight="normal" fill="#000000">HAS_DIMENSIONS</text></g></g></g></g><g class="relationship"><g transform="translate(750.3664526245086 330.1233385607959) rotate(0)" stroke-width="5" stroke="#000000"><path d="M 59 0 L 338.83776322006565 0"/><polygon points="-24.8621506177483,0 -27.62461179749811,9.20820393249937 0,0 -27.62461179749811,-9.20820393249937" fill="#000000" transform="translate(363.69991383781394 0) rotate(0)" stroke="none"/></g><g transform="translate(949.2853342345414 330.1233385607959) rotate(0) translate(0 -13)"><g transform="translate(0 0)"><g transform="translate(-87.109375 0)" fill="#ffffff" stroke="#000000" stroke-width="0"><rect x="0" y="0" width="174.21875" height="26" rx="5" ry="5" stroke="none"/><text xml:space="preserve" x="5" y="17.45703125" stroke="none" text-anchor="left" font-family="sans-serif" font-size="16" font-weight="normal" fill="#000000">HAS_SPECIESGLYPH</text></g></g></g></g><g class="relationship"><g transform="translate(1173.0663664623225 330.1233385607959) rotate(90)" stroke-width="5" stroke="#000000"><path d="M 59 0 L 331.4530187465233 0"/><polygon points="-24.8621506177483,0 -27.62461179749811,9.20820393249937 0,0 -27.62461179749811,-9.20820393249937" fill="#000000" transform="translate(356.3151693642716 0) rotate(0)" stroke="none"/></g><g transform="translate(1173.0663664623225 525.3498479340576) rotate(270) translate(0 -13)"><g transform="translate(0 0)"><g transform="translate(-85.90625 0)" fill="#ffffff" stroke="#000000" stroke-width="0"><rect x="0" y="0" width="171.8125" height="26" rx="5" ry="5" stroke="none"/><text xml:space="preserve" x="5" y="17.45703125" stroke="none" text-anchor="left" font-family="sans-serif" font-size="16" font-weight="normal" fill="#000000">HAS_BOUNDINGBOX</text></g></g></g></g><g class="relationship"><g transform="translate(750.3664526245086 330.1233385607959) rotate(45)" stroke-width="5" stroke="#000000"><path d="M 59 0 L 212.44393116486734 0"/><polygon points="-24.8621506177483,0 -27.62461179749811,9.20820393249937 0,0 -27.62461179749811,-9.20820393249937" fill="#000000" transform="translate(237.30608178261565 0) rotate(0)" stroke="none"/></g><g transform="translate(846.3363748438146 426.09326078010196) rotate(45) translate(0 -13)"><g transform="translate(0 0)"><g transform="translate(-72.875 0)" fill="#ffffff" stroke="#000000" stroke-width="0"><rect x="0" y="0" width="145.75" height="26" rx="5" ry="5" stroke="none"/><text xml:space="preserve" x="5" y="17.45703125" stroke="none" text-anchor="left" font-family="sans-serif" font-size="16" font-weight="normal" fill="#000000">HAS_TEXTGLYPH</text></g></g></g></g><g class="relationship"><g transform="translate(959.8864923598119 539.6433782960992) rotate(43.990224047661414)" stroke-width="5" stroke="#000000"><path d="M 59 0 L 212.4439311648674 0"/><polygon points="-24.8621506177483,0 -27.62461179749811,9.20820393249937 0,0 -27.62461179749811,-9.20820393249937" fill="#000000" transform="translate(237.3060817826157 0) rotate(0)" stroke="none"/></g><g transform="translate(1057.5327889249809 633.9071184545843) rotate(43.990224047661414) translate(0 -13)"><g transform="translate(0 0)"><g transform="translate(-85.90625 0)" fill="#ffffff" stroke="#000000" stroke-width="0"><rect x="0" y="0" width="171.8125" height="26" rx="5" ry="5" stroke="none"/><text xml:space="preserve" x="5" y="17.45703125" stroke="none" text-anchor="left" font-family="sans-serif" font-size="16" font-weight="normal" fill="#000000">HAS_BOUNDINGBOX</text></g></g></g></g><g class="relationship"><g transform="translate(750.3664526245086 330.1233385607959) rotate(180)" stroke-width="5" stroke="#000000"><path d="M 59 0 L 264.24958104781433 0"/><polygon points="-24.8621506177483,0 -27.62461179749811,9.20820393249937 0,0 -27.62461179749811,-9.20820393249937" fill="#000000" transform="translate(289.1117316655626 0) rotate(0)" stroke="none"/></g><g transform="translate(588.7416621006014 330.1233385607959) rotate(360) translate(0 -13)"><g transform="translate(0 0)"><g transform="translate(-93.765625 0)" fill="#ffffff" stroke="#000000" stroke-width="0"><rect x="0" y="0" width="187.53125" height="26" rx="5" ry="5" stroke="none"/><text xml:space="preserve" x="5" y="17.45703125" stroke="none" text-anchor="left" font-family="sans-serif" font-size="16" font-weight="normal" fill="#000000">HAS_REACTIONGLYPH</text></g></g></g></g><g class="relationship"><g transform="translate(402.254720958946 330.1233385607959) rotate(-90)" stroke-width="5" stroke="#000000"><path d="M 59 0 L 250.2611879430476 0"/><polygon points="-24.8621506177483,0 -27.62461179749811,9.20820393249937 0,0 -27.62461179749811,-9.20820393249937" fill="#000000" transform="translate(275.1233385607959 0) rotate(0)" stroke="none"/></g><g transform="translate(402.254720958946 175.4927445892721) rotate(90) translate(0 -13)"><g transform="translate(0 0)"><g transform="translate(-93.3203125 0)" fill="#ffffff" stroke="#000000" stroke-width="0"><rect x="0" y="0" width="186.640625" height="26" rx="5" ry="5" stroke="none"/><text xml:space="preserve" x="5" y="17.45703125" stroke="none" text-anchor="left" font-family="sans-serif" font-size="16" font-weight="normal" fill="#000000">HAS_CURVESEGMENT</text></g></g></g></g><g class="relationship"><g transform="translate(402.254720958946 -4) rotate(180)" stroke-width="5" stroke="#000000"><path d="M 59 0 L 189.3925703411977 0"/><polygon points="-24.8621506177483,0 -27.62461179749811,9.20820393249937 0,0 -27.62461179749811,-9.20820393249937" fill="#000000" transform="translate(214.254720958946 0) rotate(0)" stroke="none"/></g><g transform="translate(278.05843578834714 -3.999999999999985) rotate(360) translate(0 -13)"><g transform="translate(0 0)"><g transform="translate(-51.390625 0)" fill="#ffffff" stroke="#000000" stroke-width="0"><rect x="0" y="0" width="102.78125" height="26" rx="5" ry="5" stroke="none"/><text xml:space="preserve" x="5" y="17.45703125" stroke="none" text-anchor="left" font-family="sans-serif" font-size="16" font-weight="normal" fill="#000000">HAS_START</text></g></g></g></g><g class="relationship"><g transform="translate(402.254720958946 -4) rotate(143.19413301198963)" stroke-width="5" stroke="#000000"><path d="M 59 0 L 189.3925703411977 0"/><polygon points="-24.8621506177483,0 -27.62461179749811,9.20820393249937 0,0 -27.62461179749811,-9.20820393249937" fill="#000000" transform="translate(214.254720958946 0) rotate(0)" stroke="none"/></g><g transform="translate(302.81447786149283 70.4066885628982) rotate(323.19413301198966) translate(0 -13)"><g transform="translate(0 0)"><g transform="translate(-42.7890625 0)" fill="#ffffff" stroke="#000000" stroke-width="0"><rect x="0" y="0" width="85.578125" height="26" rx="5" ry="5" stroke="none"/><text xml:space="preserve" x="5" y="17.45703125" stroke="none" text-anchor="left" font-family="sans-serif" font-size="16" font-weight="normal" fill="#000000">HAS_END</text></g></g></g></g><g class="relationship"><g transform="translate(402.254720958946 330.1233385607959) rotate(90)" stroke-width="5" stroke="#000000"><path d="M 59 0 L 331.51752603545685 0"/><polygon points="-24.8621506177483,0 -27.62461179749811,9.20820393249937 0,0 -27.62461179749811,-9.20820393249937" fill="#000000" transform="translate(356.37967665320514 0) rotate(0)" stroke="none"/></g><g transform="translate(402.254720958946 525.3821015785243) rotate(270) translate(0 -13)"><g transform="translate(0 0)"><g transform="translate(-136.44921875 0)" fill="#ffffff" stroke="#000000" stroke-width="0"><rect x="0" y="0" width="272.8984375" height="26" rx="5" ry="5" stroke="none"/><text xml:space="preserve" x="5" y="17.45703125" stroke="none" text-anchor="left" font-family="sans-serif" font-size="16" font-weight="normal" fill="#000000">HAS_SPECIESREFERENCEGLYPH</text></g></g></g></g><g class="relationship"><g transform="translate(402.254720958946 745.503015214001) rotate(-123.33864887544202)" stroke-width="5" stroke="#000000"><path d="M 59 0 L 413.3384309415181 0"/><polygon points="-24.8621506177483,0 -27.62461179749811,9.20820393249937 0,0 -27.62461179749811,-9.20820393249937" fill="#000000" transform="translate(438.20058155926637 0) rotate(0)" stroke="none"/></g><g transform="translate(272.45931148824536 548.1985550099627) rotate(56.66135112455799) translate(0 -13)"><g transform="translate(0 0)"><g transform="translate(-53.76171875 0)" fill="#ffffff" stroke="#000000" stroke-width="0"><rect x="0" y="0" width="107.5234375" height="26" rx="5" ry="5" stroke="none"/><text xml:space="preserve" x="5" y="17.45703125" stroke="none" text-anchor="left" font-family="sans-serif" font-size="16" font-weight="normal" fill="#000000">HAS_CURVE</text></g></g></g></g><g class="relationship"><g transform="translate(129 330.1233385607959) rotate(-50.72281055218048)" stroke-width="5" stroke="#000000"><path d="M 59 0 L 347.7702715858712 0"/><polygon points="-24.8621506177483,0 -27.62461179749811,9.20820393249937 0,0 -27.62461179749811,-9.20820393249937" fill="#000000" transform="translate(372.6324222036195 0) rotate(0)" stroke="none"/></g><g transform="translate(257.7575855506017 172.68446907587372) rotate(-50.72281055218048) translate(0 -13)"><g transform="translate(0 0)"><g transform="translate(-93.3203125 0)" fill="#ffffff" stroke="#000000" stroke-width="0"><rect x="0" y="0" width="186.640625" height="26" rx="5" ry="5" stroke="none"/><text xml:space="preserve" x="5" y="17.45703125" stroke="none" text-anchor="left" font-family="sans-serif" font-size="16" font-weight="normal" fill="#000000">HAS_CURVESEGMENT</text></g></g></g></g><g class="relationship"><g transform="translate(750.3664526245086 330.1233385607959) rotate(30.000000000000004)" stroke-width="5" stroke="#000000"><path d="M 59 0 L 739.3483491695403 0"/><polygon points="-24.8621506177483,0 -27.62461179749811,9.20820393249937 0,0 -27.62461179749811,-9.20820393249937" fill="#000000" transform="translate(764.2104997872885 0) rotate(0)" stroke="none"/></g><g transform="translate(1096.0614283496043 529.7104258531809) rotate(30.000000000000004) translate(0 -13)"><g transform="translate(0 0)"><g transform="translate(-76.5703125 0)" fill="#ffffff" stroke="#000000" stroke-width="0"><rect x="0" y="0" width="153.140625" height="26" rx="5" ry="5" stroke="none"/><text xml:space="preserve" x="5" y="17.45703125" stroke="none" text-anchor="left" font-family="sans-serif" font-size="16" font-weight="normal" fill="#000000">HAS_DIMENSIONS</text></g></g></g></g><g class="relationship"><g transform="translate(1173.0663664623225 330.1233385607959) rotate(-90)" stroke-width="5" stroke="#000000"><path d="M 59 0 L 239.06666409056228 0"/><polygon points="-24.8621506177483,0 -27.62461179749811,9.20820393249937 0,0 -27.62461179749811,-9.20820393249937" fill="#000000" transform="translate(263.9288147083106 0) rotate(0)" stroke="none"/></g><g transform="translate(1173.0663664623225 181.09000651551474) rotate(90) translate(0 -13)"><g transform="translate(0 0)"><g transform="translate(-60.578125 0)" fill="#ffffff" stroke="#000000" stroke-width="0"><rect x="0" y="0" width="121.15625" height="26" rx="5" ry="5" stroke="none"/><text xml:space="preserve" x="5" y="17.45703125" stroke="none" text-anchor="left" font-family="sans-serif" font-size="16" font-weight="normal" fill="#000000">HAS_SPECIES</text></g></g></g></g><g class="node"><g fill="#ffffff" stroke="#000000" stroke-width="4"><circle cx="1388.399623596883" cy="330.1233385607959" r="52"/></g><g transform="translate(1388.399623596883 330.1233385607959)"><g transform="scale(0.29881955756447626) translate(0 -27)"><g transform="translate(0 0)"><g transform="translate(-148.15234375 0)"><g fill="#ffffff" stroke="#000000" stroke-width="4"><rect x="0" y="0" width="296.3046875" height="54" rx="27" ry="27"/><text xml:space="preserve" x="27" y="38.142578125" stroke="none" font-family="sans-serif" font-size="40" font-weight="normal" fill="#000000">Compartment</text></g></g></g></g><g transform="translate(39.59797974644666 39.597979746446654)"><g transform="translate(0 0)"><g transform="translate(0 0)" fill="white"><rect x="0" y="0" width="147.6171875" height="96" rx="0" ry="0" stroke="none"/><g font-family="sans-serif" font-size="16" font-weight="normal" fill="#000000" text-anchor="end"><text xml:space="preserve" x="138.7265625" y="14.05703125" stroke="none">id:</text><text xml:space="preserve" x="143.171875" y="14.05703125" stroke="none" text-anchor="start"></text><text xml:space="preserve" x="138.7265625" y="33.25703125" stroke="none" text-anchor="end">spatialDimensions:</text><text xml:space="preserve" x="143.171875" y="33.25703125" stroke="none" text-anchor="start"></text><text xml:space="preserve" x="138.7265625" y="52.45703125" stroke="none" text-anchor="end">size:</text><text xml:space="preserve" x="143.171875" y="52.45703125" stroke="none" text-anchor="start"></text><text xml:space="preserve" x="138.7265625" y="71.65703125" stroke="none" text-anchor="end">constant:</text><text xml:space="preserve" x="143.171875" y="71.65703125" stroke="none" text-anchor="start"></text><text xml:space="preserve" x="138.7265625" y="90.85703124999999" stroke="none" text-anchor="end">units:</text><text xml:space="preserve" x="143.171875" y="90.85703124999999" stroke="none" text-anchor="start"></text></g></g></g></g></g></g><g class="node"><g fill="#ffffff" stroke="#000000" stroke-width="4"><circle cx="1173.0663664623225" cy="7.194523852485304" r="52"/></g><g transform="translate(1173.0663664623225 7.194523852485304)"><g transform="scale(0.4420508449855404) translate(0 -27)"><g transform="translate(0 0)"><g transform="translate(-98.15234375 0)"><g fill="#ffffff" stroke="#000000" stroke-width="4"><rect x="0" y="0" width="196.3046875" height="54" rx="27" ry="27"/><text xml:space="preserve" x="27" y="38.142578125" stroke="none" font-family="sans-serif" font-size="40" font-weight="normal" fill="#000000">Species</text></g></g></g></g><g transform="translate(39.59797974644666 -154.79797974644663)"><g transform="translate(0 0)"><g transform="translate(0 0)" fill="white"><rect x="0" y="0" width="188.5390625" height="115.19999999999999" rx="0" ry="0" stroke="none"/><g font-family="sans-serif" font-size="16" font-weight="normal" fill="#000000" text-anchor="end"><text xml:space="preserve" x="179.6484375" y="14.05703125" stroke="none">id:</text><text xml:space="preserve" x="184.09375" y="14.05703125" stroke="none" text-anchor="start"></text><text xml:space="preserve" x="179.6484375" y="33.25703125" stroke="none" text-anchor="end">initialConcentration:</text><text xml:space="preserve" x="184.09375" y="33.25703125" stroke="none" text-anchor="start"></text><text xml:space="preserve" x="179.6484375" y="52.45703125" stroke="none" text-anchor="end">substanceUnits:</text><text xml:space="preserve" x="184.09375" y="52.45703125" stroke="none" text-anchor="start"></text><text xml:space="preserve" x="179.6484375" y="71.65703125" stroke="none" text-anchor="end">hasOnlySubstanceUnits:</text><text xml:space="preserve" x="184.09375" y="71.65703125" stroke="none" text-anchor="start"></text><text xml:space="preserve" x="179.6484375" y="90.85703124999999" stroke="none" text-anchor="end">constant:</text><text xml:space="preserve" x="184.09375" y="90.85703124999999" stroke="none" text-anchor="start"></text><text xml:space="preserve" x="179.6484375" y="110.05703125" stroke="none" text-anchor="end">boundaryCondition:</text><text xml:space="preserve" x="184.09375" y="110.05703125" stroke="none" text-anchor="start"></text></g></g></g></g></g></g><g class="node"><g fill="#ffffff" stroke="#000000" stroke-width="4"><circle cx="750.3664526245086" cy="7.194523852485247" r="52"/></g><g transform="translate(750.3664526245086 7.194523852485247)"><g transform="scale(0.5242920341306497) translate(0 -27)"><g transform="translate(0 0)"><g transform="translate(-81.47265625 0)"><g fill="#ffffff" stroke="#000000" stroke-width="4"><rect x="0" y="0" width="162.9453125" height="54" rx="27" ry="27"/><text xml:space="preserve" x="27" y="38.142578125" stroke="none" font-family="sans-serif" font-size="40" font-weight="normal" fill="#000000">Model</text></g></g></g></g><g transform="translate(3.429011037612589e-15 -94.4)"><g transform="translate(0 0)"><g transform="translate(-42.23046875 0)" fill="white"><rect x="0" y="0" width="84.4609375" height="38.4" rx="0" ry="0" stroke="none"/><g font-family="sans-serif" font-size="16" font-weight="normal" fill="#000000" text-anchor="end"><text xml:space="preserve" x="75.5703125" y="14.05703125" stroke="none">id:</text><text xml:space="preserve" x="80.015625" y="14.05703125" stroke="none" text-anchor="start"></text><text xml:space="preserve" x="75.5703125" y="33.25703125" stroke="none" text-anchor="end">timeUnits:</text><text xml:space="preserve" x="80.015625" y="33.25703125" stroke="none" text-anchor="start"></text></g></g></g></g></g></g><g class="node"><g fill="#ffffff" stroke="#000000" stroke-width="4"><circle cx="546.6572683577705" cy="182.55188228234368" r="52"/></g><g transform="translate(546.6572683577705 182.55188228234368)"><g transform="scale(0.41162733875169777) translate(0 -27)"><g transform="translate(0 0)"><g transform="translate(-105.935546875 0)"><g fill="#ffffff" stroke="#000000" stroke-width="4"><rect x="0" y="0" width="211.87109375" height="54" rx="27" ry="27"/><text xml:space="preserve" x="27" y="38.142578125" stroke="none" font-family="sans-serif" font-size="40" font-weight="normal" fill="#000000">Reaction</text></g></g></g></g><g transform="translate(-39.597979746446654 39.59797974644666)"><g transform="translate(0 0)"><g transform="translate(-87.140625 0)" fill="white"><rect x="0" y="0" width="87.140625" height="57.599999999999994" rx="0" ry="0" stroke="none"/><g font-family="sans-serif" font-size="16" font-weight="normal" fill="#000000" text-anchor="end"><text xml:space="preserve" x="78.25" y="14.05703125" stroke="none">id:</text><text xml:space="preserve" x="82.6953125" y="14.05703125" stroke="none" text-anchor="start"></text><text xml:space="preserve" x="78.25" y="33.25703125" stroke="none" text-anchor="end">reversible:</text><text xml:space="preserve" x="82.6953125" y="33.25703125" stroke="none" text-anchor="start"></text><text xml:space="preserve" x="78.25" y="52.45703125" stroke="none" text-anchor="end">fast:</text><text xml:space="preserve" x="82.6953125" y="52.45703125" stroke="none" text-anchor="start"></text></g></g></g></g></g></g><g class="node"><g fill="#ffffff" stroke="#000000" stroke-width="4"><circle cx="750.3664526245086" cy="330.1233385607959" r="52"/></g><g transform="translate(750.3664526245086 330.1233385607959)"><g transform="scale(0.49374591879921614) translate(0 -27)"><g transform="translate(0 0)"><g transform="translate(-87.048828125 0)"><g fill="#ffffff" stroke="#000000" stroke-width="4"><rect x="0" y="0" width="174.09765625" height="54" rx="27" ry="27"/><text xml:space="preserve" x="27" y="38.142578125" stroke="none" font-family="sans-serif" font-size="40" font-weight="normal" fill="#000000">Layout</text></g></g></g></g><g transform="translate(-39.597979746446654 -58.79797974644666)"><g transform="translate(0 0)"><g transform="translate(-30.234375 0)" fill="white"><rect x="0" y="0" width="30.234375" height="19.2" rx="0" ry="0" stroke="none"/><g font-family="sans-serif" font-size="16" font-weight="normal" fill="#000000" text-anchor="end"><text xml:space="preserve" x="21.34375" y="14.05703125" stroke="none">id:</text><text xml:space="preserve" x="25.7890625" y="14.05703125" stroke="none" text-anchor="start"></text></g></g></g></g></g></g><g class="node"><g fill="#ffffff" stroke="#000000" stroke-width="4"><circle cx="750.3664526245086" cy="745.5030152139999" r="52"/></g><g transform="translate(750.3664526245086 745.5030152139999)"><g transform="scale(0.22254187620603255) translate(0 -27)"><g transform="translate(0 0)"><g transform="translate(-200.3984375 0)"><g fill="#ffffff" stroke="#000000" stroke-width="4"><rect x="0" y="0" width="400.796875" height="54" rx="27" ry="27"/><text xml:space="preserve" x="27" y="38.142578125" stroke="none" font-family="sans-serif" font-size="40" font-weight="normal" fill="#000000">CompartmentGlyph</text></g></g></g></g><g transform="translate(-39.597979746446654 39.59797974644666)"><g transform="translate(0 0)"><g transform="translate(-111.1484375 0)" fill="white"><rect x="0" y="0" width="111.1484375" height="38.4" rx="0" ry="0" stroke="none"/><g font-family="sans-serif" font-size="16" font-weight="normal" fill="#000000" text-anchor="end"><text xml:space="preserve" x="102.2578125" y="14.05703125" stroke="none">id:</text><text xml:space="preserve" x="106.703125" y="14.05703125" stroke="none" text-anchor="start"></text><text xml:space="preserve" x="102.2578125" y="33.25703125" stroke="none" text-anchor="end">compartment:</text><text xml:space="preserve" x="106.703125" y="33.25703125" stroke="none" text-anchor="start"></text></g></g></g></g></g></g><g class="node"><g fill="#ffffff" stroke="#000000" stroke-width="4"><circle cx="1173.0663664623225" cy="745.4385079250675" r="52"/></g><g transform="translate(1173.0663664623225 745.4385079250675)"><g transform="scale(0.3031114945213928) translate(0 -27)"><g transform="translate(0 0)"><g transform="translate(-145.984375 0)"><g fill="#ffffff" stroke="#000000" stroke-width="4"><rect x="0" y="0" width="291.96875" height="54" rx="27" ry="27"/><text xml:space="preserve" x="27" y="38.142578125" stroke="none" font-family="sans-serif" font-size="40" font-weight="normal" fill="#000000">BoundingBox</text></g></g></g></g><g transform="translate(3.429011037612589e-15 56)"><g transform="translate(0 0)"><g transform="translate(-15.1171875 0)" fill="white"><rect x="0" y="0" width="30.234375" height="19.2" rx="0" ry="0" stroke="none"/><g font-family="sans-serif" font-size="16" font-weight="normal" fill="#000000" text-anchor="end"><text xml:space="preserve" x="21.34375" y="14.05703125" stroke="none">id:</text><text xml:space="preserve" x="25.7890625" y="14.05703125" stroke="none" text-anchor="start"></text></g></g></g></g></g></g><g class="node"><g fill="#ffffff" stroke="#000000" stroke-width="4"><circle cx="1463.2876581023847" cy="577.8791670721165" r="52"/></g><g transform="translate(1463.2876581023847 577.8791670721165)"><g transform="scale(0.4420508449855404) translate(0 -27)"><g transform="translate(0 0)"><g transform="translate(-98.15234375 0)"><g fill="#ffffff" stroke="#000000" stroke-width="4"><rect x="0" y="0" width="196.3046875" height="54" rx="27" ry="27"/><text xml:space="preserve" x="27" y="38.142578125" stroke="none" font-family="sans-serif" font-size="40" font-weight="normal" fill="#000000">Position</text></g></g></g></g><g transform="translate(39.59797974644666 -77.99797974644665)"><g transform="translate(0 0)"><g transform="translate(0 0)" fill="white"><rect x="0" y="0" width="70.8515625" height="38.4" rx="0" ry="0" stroke="none"/><g font-family="sans-serif" font-size="16" font-weight="normal" fill="#000000" text-anchor="end"><text xml:space="preserve" x="61.9609375" y="14.05703125" stroke="none">XOffset:</text><text xml:space="preserve" x="66.40625" y="14.05703125" stroke="none" text-anchor="start"></text><text xml:space="preserve" x="61.9609375" y="33.25703125" stroke="none" text-anchor="end">YOffset:</text><text xml:space="preserve" x="66.40625" y="33.25703125" stroke="none" text-anchor="start"></text></g></g></g></g></g></g><g class="node"><g fill="#ffffff" stroke="#000000" stroke-width="4"><circle cx="1463.2876581023847" cy="741.7285884544402" r="52"/></g><g transform="translate(1463.2876581023847 741.7285884544402)"><g transform="scale(0.33525538849997794) translate(0 -27)"><g transform="translate(0 0)"><g transform="translate(-131.482421875 0)"><g fill="#ffffff" stroke="#000000" stroke-width="4"><rect x="0" y="0" width="262.96484375" height="54" rx="27" ry="27"/><text xml:space="preserve" x="27" y="38.142578125" stroke="none" font-family="sans-serif" font-size="40" font-weight="normal" fill="#000000">Dimensions</text></g></g></g></g><g transform="translate(56 -19.2)"><g transform="translate(0 0)"><g transform="translate(0 0)" fill="white"><rect x="0" y="0" width="61.375" height="38.4" rx="0" ry="0" stroke="none"/><g font-family="sans-serif" font-size="16" font-weight="normal" fill="#000000" text-anchor="end"><text xml:space="preserve" x="52.484375" y="14.05703125" stroke="none">width:</text><text xml:space="preserve" x="56.9296875" y="14.05703125" stroke="none" text-anchor="start"></text><text xml:space="preserve" x="52.484375" y="33.25703125" stroke="none" text-anchor="end">height:</text><text xml:space="preserve" x="56.9296875" y="33.25703125" stroke="none" text-anchor="start"></text></g></g></g></g></g></g><g class="node"><g fill="#ffffff" stroke="#000000" stroke-width="4"><circle cx="1173.0663664623225" cy="330.1233385607959" r="52"/></g><g transform="translate(1173.0663664623225 330.1233385607959)"><g transform="scale(0.2944972571100956) translate(0 -27)"><g transform="translate(0 0)"><g transform="translate(-150.3984375 0)"><g fill="#ffffff" stroke="#000000" stroke-width="4"><rect x="0" y="0" width="300.796875" height="54" rx="27" ry="27"/><text xml:space="preserve" x="27" y="38.142578125" stroke="none" font-family="sans-serif" font-size="40" font-weight="normal" fill="#000000">SpeciesGlyph</text></g></g></g></g><g transform="translate(56 -9.6)"><g transform="translate(0 0)"><g transform="translate(0 0)" fill="white"><rect x="0" y="0" width="30.234375" height="19.2" rx="0" ry="0" stroke="none"/><g font-family="sans-serif" font-size="16" font-weight="normal" fill="#000000" text-anchor="end"><text xml:space="preserve" x="21.34375" y="14.05703125" stroke="none">id:</text><text xml:space="preserve" x="25.7890625" y="14.05703125" stroke="none" text-anchor="start"></text></g></g></g></g></g></g><g class="node"><g fill="#ffffff" stroke="#000000" stroke-width="4"><circle cx="959.8864923598119" cy="539.6433782960992" r="52"/></g><g transform="translate(959.8864923598119 539.6433782960992)"><g transform="scale(0.3780606772424586) translate(0 -27)"><g transform="translate(0 0)"><g transform="translate(-115.92578125 0)"><g fill="#ffffff" stroke="#000000" stroke-width="4"><rect x="0" y="0" width="231.8515625" height="54" rx="27" ry="27"/><text xml:space="preserve" x="27" y="38.142578125" stroke="none" font-family="sans-serif" font-size="40" font-weight="normal" fill="#000000">TextGlyph</text></g></g></g></g><g transform="translate(-39.597979746446654 39.59797974644666)"><g transform="translate(0 0)"><g transform="translate(-128.953125 0)" fill="white"><rect x="0" y="0" width="128.953125" height="57.599999999999994" rx="0" ry="0" stroke="none"/><g font-family="sans-serif" font-size="16" font-weight="normal" fill="#000000" text-anchor="end"><text xml:space="preserve" x="120.0625" y="14.05703125" stroke="none">id:</text><text xml:space="preserve" x="124.5078125" y="14.05703125" stroke="none" text-anchor="start"></text><text xml:space="preserve" x="120.0625" y="33.25703125" stroke="none" text-anchor="end">originOfText:</text><text xml:space="preserve" x="124.5078125" y="33.25703125" stroke="none" text-anchor="start"></text><text xml:space="preserve" x="120.0625" y="52.45703125" stroke="none" text-anchor="end">graphicalObject:</text><text xml:space="preserve" x="124.5078125" y="52.45703125" stroke="none" text-anchor="start"></text></g></g></g></g></g></g><g class="node"><g fill="#ffffff" stroke="#000000" stroke-width="4"><circle cx="402.254720958946" cy="330.1233385607959" r="52"/></g><g transform="translate(402.254720958946 330.1233385607959)"><g transform="scale(0.2804272795695071) translate(0 -27)"><g transform="translate(0 0)"><g transform="translate(-158.181640625 0)"><g fill="#ffffff" stroke="#000000" stroke-width="4"><rect x="0" y="0" width="316.36328125" height="54" rx="27" ry="27"/><text xml:space="preserve" x="27" y="38.142578125" stroke="none" font-family="sans-serif" font-size="40" font-weight="normal" fill="#000000">ReactionGlyph</text></g></g></g></g><g transform="translate(-56 -19.199999999999992)"><g transform="translate(0 0)"><g transform="translate(-74.703125 0)" fill="white"><rect x="0" y="0" width="74.703125" height="38.4" rx="0" ry="0" stroke="none"/><g font-family="sans-serif" font-size="16" font-weight="normal" fill="#000000" text-anchor="end"><text xml:space="preserve" x="65.8125" y="14.05703125" stroke="none">id:</text><text xml:space="preserve" x="70.2578125" y="14.05703125" stroke="none" text-anchor="start"></text><text xml:space="preserve" x="65.8125" y="33.25703125" stroke="none" text-anchor="end">reaction:</text><text xml:space="preserve" x="70.2578125" y="33.25703125" stroke="none" text-anchor="start"></text></g></g></g></g></g></g><g class="node"><g fill="#ffffff" stroke="#000000" stroke-width="4"><circle cx="402.254720958946" cy="-4" r="52"/></g><g transform="translate(402.254720958946 -4)"><g transform="scale(0.27665913576170886) translate(0 -27)"><g transform="translate(0 0)"><g transform="translate(-160.3984375 0)"><g fill="#ffffff" stroke="#000000" stroke-width="4"><rect x="0" y="0" width="320.796875" height="54" rx="27" ry="27"/><text xml:space="preserve" x="27" y="38.142578125" stroke="none" font-family="sans-serif" font-size="40" font-weight="normal" fill="#000000">CurveSegment</text></g></g></g></g></g></g><g class="node"><g fill="#ffffff" stroke="#000000" stroke-width="4"><circle cx="129" cy="-4" r="52"/></g><g transform="translate(129 -4)"><g transform="scale(0.6055332582026565) translate(0 -27)"><g transform="translate(0 0)"><g transform="translate(-69.236328125 0)"><g fill="#ffffff" stroke="#000000" stroke-width="4"><rect x="0" y="0" width="138.47265625" height="54" rx="27" ry="27"/><text xml:space="preserve" x="27" y="38.142578125" stroke="none" font-family="sans-serif" font-size="40" font-weight="normal" fill="#000000">Start</text></g></g></g></g><g transform="translate(-56 -19.199999999999992)"><g transform="translate(0 0)"><g transform="translate(-70.8515625 0)" fill="white"><rect x="0" y="0" width="70.8515625" height="38.4" rx="0" ry="0" stroke="none"/><g font-family="sans-serif" font-size="16" font-weight="normal" fill="#000000" text-anchor="end"><text xml:space="preserve" x="61.9609375" y="14.05703125" stroke="none">XOffset:</text><text xml:space="preserve" x="66.40625" y="14.05703125" stroke="none" text-anchor="start"></text><text xml:space="preserve" x="61.9609375" y="33.25703125" stroke="none" text-anchor="end">YOffset:</text><text xml:space="preserve" x="66.40625" y="33.25703125" stroke="none" text-anchor="start"></text></g></g></g></g></g></g><g class="node"><g fill="#ffffff" stroke="#000000" stroke-width="4"><circle cx="183.4678559383092" cy="159.70843051227723" r="52"/></g><g transform="translate(183.4678559383092 159.70843051227723)"><g transform="scale(0.6601960643272607) translate(0 -27)"><g transform="translate(0 0)"><g transform="translate(-62.5859375 0)"><g fill="#ffffff" stroke="#000000" stroke-width="4"><rect x="0" y="0" width="125.171875" height="54" rx="27" ry="27"/><text xml:space="preserve" x="27" y="38.142578125" stroke="none" font-family="sans-serif" font-size="40" font-weight="normal" fill="#000000">End</text></g></g></g></g><g transform="translate(-39.597979746446654 39.59797974644666)"><g transform="translate(0 0)"><g transform="translate(-70.8515625 0)" fill="white"><rect x="0" y="0" width="70.8515625" height="38.4" rx="0" ry="0" stroke="none"/><g font-family="sans-serif" font-size="16" font-weight="normal" fill="#000000" text-anchor="end"><text xml:space="preserve" x="61.9609375" y="14.05703125" stroke="none">XOffset:</text><text xml:space="preserve" x="66.40625" y="14.05703125" stroke="none" text-anchor="start"></text><text xml:space="preserve" x="61.9609375" y="33.25703125" stroke="none" text-anchor="end">YOffset:</text><text xml:space="preserve" x="66.40625" y="33.25703125" stroke="none" text-anchor="start"></text></g></g></g></g></g></g><g class="node"><g fill="#ffffff" stroke="#000000" stroke-width="4"><circle cx="402.254720958946" cy="745.503015214001" r="52"/></g><g transform="translate(402.254720958946 745.503015214001)"><g transform="scale(0.18429690107243127) translate(0 -27)"><g transform="translate(0 0)"><g transform="translate(-242.673828125 0)"><g fill="#ffffff" stroke="#000000" stroke-width="4"><rect x="0" y="0" width="485.34765625" height="54" rx="27" ry="27"/><text xml:space="preserve" x="27" y="38.142578125" stroke="none" font-family="sans-serif" font-size="40" font-weight="normal" fill="#000000">SpeciesReferenceGlyph</text></g></g></g></g><g transform="translate(3.429011037612589e-15 56)"><g transform="translate(0 0)"><g transform="translate(-72.92578125 0)" fill="white"><rect x="0" y="0" width="145.8515625" height="57.599999999999994" rx="0" ry="0" stroke="none"/><g font-family="sans-serif" font-size="16" font-weight="normal" fill="#000000" text-anchor="end"><text xml:space="preserve" x="136.9609375" y="14.05703125" stroke="none">id:</text><text xml:space="preserve" x="141.40625" y="14.05703125" stroke="none" text-anchor="start"></text><text xml:space="preserve" x="136.9609375" y="33.25703125" stroke="none" text-anchor="end">speciesReference:</text><text xml:space="preserve" x="141.40625" y="33.25703125" stroke="none" text-anchor="start"></text><text xml:space="preserve" x="136.9609375" y="52.45703125" stroke="none" text-anchor="end">speciesGlyph:</text><text xml:space="preserve" x="141.40625" y="52.45703125" stroke="none" text-anchor="start"></text></g></g></g></g></g></g><g class="node"><g fill="#ffffff" stroke="#000000" stroke-width="4"><circle cx="129" cy="330.1233385607959" r="52"/></g><g transform="translate(129 330.1233385607959)"><g transform="scale(0.5308811712093625) translate(0 -27)"><g transform="translate(0 0)"><g transform="translate(-80.349609375 0)"><g fill="#ffffff" stroke="#000000" stroke-width="4"><rect x="0" y="0" width="160.69921875" height="54" rx="27" ry="27"/><text xml:space="preserve" x="27" y="38.142578125" stroke="none" font-family="sans-serif" font-size="40" font-weight="normal" fill="#000000">Curve</text></g></g></g></g></g></g></g></svg>