<svg xmlns="http://www.w3.org/2000/svg" width="1302" height="632" viewBox="0 0 1302 632"><defs><style type="text/css"/></defs><g transform="translate(-1.8671875 98.39999999999992) scale(1)"><g class="relationship"><g transform="translate(866.797844062114 229.42500854976512) rotate(-44.999999999999986)" stroke-width="5" stroke="#000000"><path d="M 59 0 L 246.25066227038528 0"/><polygon points="-24.8621506177483,0 -27.62461179749811,9.20820393249937 0,0 -27.62461179749811,-9.20820393249937" fill="#000000" transform="translate(271.1128128881336 0) rotate(0)" stroke="none"/></g><g transform="translate(974.720250688651 121.50260192322813) rotate(-44.999999999999986) translate(0 -13)"><g transform="translate(0 0)"><g transform="translate(-87.83203125 0)" fill="#ffffff" stroke="#000000" stroke-width="0"><rect x="0" y="0" width="175.6640625" height="26" rx="5" ry="5" stroke="none"/><text xml:space="preserve" x="5" y="17.45703125" stroke="none" text-anchor="left" font-family="sans-serif" font-size="16" font-weight="normal" fill="#000000">HAS_COMPARTMENT</text></g></g></g></g><g class="relationship"><g transform="translate(437.04500740613366 456.2149552373287) rotate(0)" stroke-width="5" stroke="#000000"><path d="M 59 0 L 345.89068603823205 0"/><polygon points="-24.8621506177483,0 -27.62461179749811,9.20820393249937 0,0 -27.62461179749811,-9.20820393249937" fill="#000000" transform="translate(370.75283665598033 0) rotate(0)" stroke="none"/></g><g transform="translate(639.4903504252497 456.2149552373287) rotate(0) translate(0 -13)"><g transform="translate(0 0)"><g transform="translate(-63.6796875 0)" fill="#ffffff" stroke="#000000" stroke-width="0"><rect x="0" y="0" width="127.359375" height="26" rx="5" ry="5" stroke="none"/><text xml:space="preserve" x="5" y="17.45703125" stroke="none" text-anchor="left" font-family="sans-serif" font-size="16" font-weight="normal" fill="#000000">IS_COMPOSED</text></g></g></g></g><g class="relationship"><g transform="translate(866.797844062114 229.42500854976512) rotate(152.1784115685988)" stroke-width="5" stroke="#000000"><path d="M 59 0 L 402.0608685245945 0"/><polygon points="-24.8621506177483,0 -27.62461179749811,9.20820393249937 0,0 -27.62461179749811,-9.20820393249937" fill="#000000" transform="translate(426.9230191423428 0) rotate(0)" stroke="none"/></g><g transform="translate(662.9155331672353 337.0181515716481) rotate(332.17841156859885) translate(0 -13)"><g transform="translate(0 0)"><g transform="translate(-89.89453125 0)" fill="#ffffff" stroke="#000000" stroke-width="0"><rect x="0" y="0" width="179.7890625" height="26" rx="5" ry="5" stroke="none"/><text xml:space="preserve" x="5" y="17.45703125" stroke="none" text-anchor="left" font-family="sans-serif" font-size="16" font-weight="normal" fill="#000000">HAS_UNITDEFINITION</text></g></g></g></g><g class="relationship"><g transform="translate(866.797844062114 229.42500854976512) rotate(-130.06633640354553)" stroke-width="5" stroke="#000000"><path d="M 59 0 L 221.1490798400193 0"/><polygon points="-24.8621506177483,0 -27.62461179749811,9.20820393249937 0,0 -27.62461179749811,-9.20820393249937" fill="#000000" transform="translate(246.01123045776762 0) rotate(0)" stroke="none"/></g><g transform="translate(776.6354911736665 122.22600269886436) rotate(49.93366359645446) translate(0 -13)"><g transform="translate(0 0)"><g transform="translate(-60.578125 0)" fill="#ffffff" stroke="#000000" stroke-width="0"><rect x="0" y="0" width="121.15625" height="26" rx="5" ry="5" stroke="none"/><text xml:space="preserve" x="5" y="17.45703125" stroke="none" text-anchor="left" font-family="sans-serif" font-size="16" font-weight="normal" fill="#000000">HAS_SPECIES</text></g></g></g></g><g class="relationship"><g transform="translate(670.4700159558989 -3.9999999999999147) rotate(-1.1367771365378326e-14)" stroke-width="5" stroke="#000000"><path d="M 59 0 L 345.89068603823205 0"/><polygon points="-24.8621506177483,0 -27.62461179749811,9.20820393249937 0,0 -27.62461179749811,-9.20820393249937" fill="#000000" transform="translate(370.75283665598033 0) rotate(0)" stroke="none"/></g><g transform="translate(872.9153589750149 -3.9999999999999547) rotate(-1.1367771365378326e-14) translate(0 -13)"><g transform="translate(0 0)"><g transform="translate(-79.3828125 0)" fill="#ffffff" stroke="#000000" stroke-width="0"><rect x="0" y="0" width="158.765625" height="26" rx="5" ry="5" stroke="none"/><text xml:space="preserve" x="5" y="17.45703125" stroke="none" text-anchor="left" font-family="sans-serif" font-size="16" font-weight="normal" fill="#000000">IN_COMPARTMENT</text></g></g></g></g><g class="relationship"><g transform="translate(866.797844062114 229.42500854976512) rotate(180)" stroke-width="5" stroke="#000000"><path d="M 59 0 L 345.89068603823205 0"/><polygon points="-24.8621506177483,0 -27.62461179749811,9.20820393249937 0,0 -27.62461179749811,-9.20820393249937" fill="#000000" transform="translate(370.75283665598033 0) rotate(0)" stroke="none"/></g><g transform="translate(664.352501042998 229.42500854976515) rotate(360) translate(0 -13)"><g transform="translate(0 0)"><g transform="translate(-67.234375 0)" fill="#ffffff" stroke="#000000" stroke-width="0"><rect x="0" y="0" width="134.46875" height="26" rx="5" ry="5" stroke="none"/><text xml:space="preserve" x="5" y="17.45703125" stroke="none" text-anchor="left" font-family="sans-serif" font-size="16" font-weight="normal" fill="#000000">HAS_REACTION</text></g></g></g></g><g class="relationship"><g transform="translate(437.04500740613366 229.42500854976524) rotate(-179.99999999999997)" stroke-width="5" stroke="#000000"><path d="M 59 0 L 224.18285678838535 0"/><polygon points="-24.8621506177483,0 -27.62461179749811,9.20820393249937 0,0 -27.62461179749811,-9.20820393249937" fill="#000000" transform="translate(249.04500740613366 0) rotate(0)" stroke="none"/></g><g transform="translate(295.453579011941 229.42500854976515) rotate(2.5444437451708134e-14) translate(0 -13)"><g transform="translate(0 0)"><g transform="translate(-77.61328125 0)" fill="#ffffff" stroke="#000000" stroke-width="0"><rect x="0" y="0" width="155.2265625" height="26" rx="5" ry="5" stroke="none"/><text xml:space="preserve" x="5" y="17.45703125" stroke="none" text-anchor="left" font-family="sans-serif" font-size="16" font-weight="normal" fill="#000000">HAS_KENETICLAW</text></g></g></g></g><g class="relationship"><g transform="translate(670.4700159558989 -3.9999999999999147) rotate(135.00000000000003)" stroke-width="5" stroke="#000000"><path d="M 57.78386207693039 -11.917436111609138 L 92.97590692370865 -19.17549971317315 A 40 40 0 0 1 101.0555246264945 -20 L 165.05640644406682 -20 L 229.05728826163914 -20 A 40 40 0 0 1 237.13690596442495 -19.175499713173153 L 247.97927145134162 -16.939352918121326 L 247.97927145134162 -16.939352918121326"/><polygon points="-24.8621506177483,0 -27.62461179749811,9.20820393249937 0,0 -27.62461179749811,-9.20820393249937" fill="#000000" transform="translate(330.11281288813365 0) rotate(11.653378884016742) translate(-59 0)" stroke="none"/></g><g transform="translate(567.8996473047472 126.85463989861361) rotate(315.00000000000006) translate(0 -13)"><g transform="translate(0 0)"><g transform="translate(-59.53125 0)" fill="#ffffff" stroke="#000000" stroke-width="0"><rect x="0" y="0" width="119.0625" height="26" rx="5" ry="5" stroke="none"/><text xml:space="preserve" x="5" y="17.45703125" stroke="none" text-anchor="left" font-family="sans-serif" font-size="16" font-weight="normal" fill="#000000">IS_REACTANT</text></g></g></g></g><g class="relationship"><g transform="translate(437.04500740613366 229.42500854976524) rotate(-44.999999999999986)" stroke-width="5" stroke="#000000"><path d="M 59 0 L 246.25066227038533 0"/><polygon points="-24.8621506177483,0 -27.62461179749811,9.20820393249937 0,0 -27.62461179749811,-9.20820393249937" fill="#000000" transform="translate(271.11281288813365 0) rotate(0)" stroke="none"/></g><g transform="translate(544.9674140326707 121.50260192322824) rotate(-44.999999999999986) translate(0 -13)"><g transform="translate(0 0)"><g transform="translate(-65.453125 0)" fill="#ffffff" stroke="#000000" stroke-width="0"><rect x="0" y="0" width="130.90625" height="26" rx="5" ry="5" stroke="none"/><text xml:space="preserve" x="5" y="17.45703125" stroke="none" text-anchor="left" font-family="sans-serif" font-size="16" font-weight="normal" fill="#000000">HAS_PRODUCT</text></g></g></g></g><g class="relationship"><g transform="translate(437.04500740613366 229.42500854976524) rotate(-44.999999999999986)" stroke-width="5" stroke="#000000"><path d="M 57.78386207693039 -11.917436111609138 L 92.97590692370865 -19.17549971317315 A 40 40 0 0 1 101.0555246264945 -20 L 165.05640644406682 -20 L 229.05728826163914 -20 A 40 40 0 0 1 237.13690596442495 -19.175499713173153 L 247.97927145134162 -16.939352918121326 L 247.97927145134162 -16.939352918121326"/><polygon points="-24.8621506177483,0 -27.62461179749811,9.20820393249937 0,0 -27.62461179749811,-9.20820393249937" fill="#000000" transform="translate(330.11281288813365 0) rotate(11.653378884016742) translate(-59 0)" stroke="none"/></g><g transform="translate(539.6153760572854 98.57036865115171) rotate(-44.999999999999986) translate(0 -13)"><g transform="translate(0 0)"><g transform="translate(-49.4453125 0)" fill="#ffffff" stroke="#000000" stroke-width="0"><rect x="0" y="0" width="98.890625" height="26" rx="5" ry="5" stroke="none"/><text xml:space="preserve" x="5" y="17.45703125" stroke="none" text-anchor="left" font-family="sans-serif" font-size="16" font-weight="normal" fill="#000000">MODIFIERS</text></g></g></g></g><g class="relationship"><g transform="translate(866.797844062114 229.42500854976512) rotate(2.135585623474016e-14)" stroke-width="5" stroke="#000000"><path d="M 59 0 L 221.1490798400192 0"/><polygon points="-24.8621506177483,0 -27.62461179749811,9.20820393249937 0,0 -27.62461179749811,-9.20820393249937" fill="#000000" transform="translate(246.0112304577675 0) rotate(0)" stroke="none"/></g><g transform="translate(1006.8723839821237 229.42500854976518) rotate(2.135585623474016e-14) translate(0 -13)"><g transform="translate(0 0)"><g transform="translate(-100.1328125 0)" fill="#ffffff" stroke="#000000" stroke-width="0"><rect x="0" y="0" width="200.265625" height="26" rx="5" ry="5" stroke="none"/><text xml:space="preserve" x="5" y="17.45703125" stroke="none" text-anchor="left" font-family="sans-serif" font-size="16" font-weight="normal" fill="#000000">HAS_ASSIGNMENTRULE</text></g></g></g></g><g class="relationship"><g transform="translate(866.797844062114 229.42500854976512) rotate(38.67096480626682)" stroke-width="5" stroke="#000000"><path d="M 59 0 L 246.25066227038533 0"/><polygon points="-24.8621506177483,0 -27.62461179749811,9.20820393249937 0,0 -27.62461179749811,-9.20820393249937" fill="#000000" transform="translate(271.11281288813365 0) rotate(0)" stroke="none"/></g><g transform="translate(985.9596371138522 324.7925018628533) rotate(38.67096480626682) translate(0 -13)"><g transform="translate(0 0)"><g transform="translate(-75.09375 0)" fill="#ffffff" stroke="#000000" stroke-width="0"><rect x="0" y="0" width="150.1875" height="26" rx="5" ry="5" stroke="none"/><text xml:space="preserve" x="5" y="17.45703125" stroke="none" text-anchor="left" font-family="sans-serif" font-size="16" font-weight="normal" fill="#000000">HAS_PARAMETER</text></g></g></g></g><g class="node"><g fill="#ffffff" stroke="#000000" stroke-width="4"><circle cx="437.04500740613366" cy="456.2149552373287" r="52"/></g><g transform="translate(437.04500740613366 456.2149552373287)"><g transform="scale(0.3031899383995126) translate(0 -27)"><g transform="translate(0 0)"><g transform="translate(-145.9453125 0)"><g fill="#ffffff" stroke="#000000" stroke-width="4"><rect x="0" y="0" width="291.890625" height="54" rx="27" ry="27"/><text xml:space="preserve" x="27" y="38.142578125" stroke="none" font-family="sans-serif" font-size="40" font-weight="normal" fill="#000000">UnitDefinition</text></g></g></g></g><g transform="translate(-56 -38.39999999999999)"><g transform="translate(0 0)"><g transform="translate(-79.1328125 0)" fill="white"><rect x="0" y="0" width="79.1328125" height="76.8" rx="0" ry="0" stroke="none"/><g font-family="sans-serif" font-size="16" font-weight="normal" fill="#000000" text-anchor="end"><text xml:space="preserve" x="70.2421875" y="14.05703125" stroke="none">id:</text><text xml:space="preserve" x="74.6875" y="14.05703125" stroke="none" text-anchor="start"></text><text xml:space="preserve" x="70.2421875" y="33.25703125" stroke="none" text-anchor="end">name:</text><text xml:space="preserve" x="74.6875" y="33.25703125" stroke="none" text-anchor="start"></text><text xml:space="preserve" x="70.2421875" y="52.45703125" stroke="none" text-anchor="end">metaid:</text><text xml:space="preserve" x="74.6875" y="52.45703125" stroke="none" text-anchor="start"></text><text xml:space="preserve" x="70.2421875" y="71.65703125" stroke="none" text-anchor="end">sboTerm:</text><text xml:space="preserve" x="74.6875" y="71.65703125" stroke="none" text-anchor="start"></text></g></g></g></g></g></g><g class="node"><g fill="#ffffff" stroke="#000000" stroke-width="4"><circle cx="1100.2228526118793" cy="-4" r="52"/></g><g transform="translate(1100.2228526118793 -4)"><g transform="scale(0.30774835674569057) translate(0 -27)"><g transform="translate(0 0)"><g transform="translate(-143.708984375 0)"><g fill="#ffffff" stroke="#000000" stroke-width="4"><rect x="0" y="0" width="287.41796875" height="54" rx="27" ry="27"/><text xml:space="preserve" x="27" y="38.142578125" stroke="none" font-family="sans-serif" font-size="40" font-weight="normal" fill="#000000">compartment</text></g></g></g></g><g transform="translate(56 -67.2)"><g transform="translate(0 0)"><g transform="translate(0 0)" fill="white"><rect x="0" y="0" width="147.6171875" height="134.4" rx="0" ry="0" stroke="none"/><g font-family="sans-serif" font-size="16" font-weight="normal" fill="#000000" text-anchor="end"><text xml:space="preserve" x="138.7265625" y="14.05703125" stroke="none">id:</text><text xml:space="preserve" x="143.171875" y="14.05703125" stroke="none" text-anchor="start"></text><text xml:space="preserve" x="138.7265625" y="33.25703125" stroke="none" text-anchor="end">name:</text><text xml:space="preserve" x="143.171875" y="33.25703125" stroke="none" text-anchor="start"></text><text xml:space="preserve" x="138.7265625" y="52.45703125" stroke="none" text-anchor="end">metaid:</text><text xml:space="preserve" x="143.171875" y="52.45703125" stroke="none" text-anchor="start"></text><text xml:space="preserve" x="138.7265625" y="71.65703125" stroke="none" text-anchor="end">sboTerm:</text><text xml:space="preserve" x="143.171875" y="71.65703125" stroke="none" text-anchor="start"></text><text xml:space="preserve" x="138.7265625" y="90.85703124999999" stroke="none" text-anchor="end">spatialDimensions:</text><text xml:space="preserve" x="143.171875" y="90.85703124999999" stroke="none" text-anchor="start"></text><text xml:space="preserve" x="138.7265625" y="110.05703125" stroke="none" text-anchor="end">size:</text><text xml:space="preserve" x="143.171875" y="110.05703125" stroke="none" text-anchor="start"></text><text xml:space="preserve" x="138.7265625" y="129.25703125" stroke="none" text-anchor="end">constant:</text><text xml:space="preserve" x="143.171875" y="129.25703125" stroke="none" text-anchor="start"></text></g></g></g></g></g></g><g class="node"><g fill="#ffffff" stroke="#000000" stroke-width="4"><circle cx="866.797844062114" cy="229.42500854976512" r="52"/></g><g transform="translate(866.797844062114 229.42500854976512)"><g transform="scale(0.5242920341306497) translate(0 -27)"><g transform="translate(0 0)"><g transform="translate(-81.47265625 0)"><g fill="#ffffff" stroke="#000000" stroke-width="4"><rect x="0" y="0" width="162.9453125" height="54" rx="27" ry="27"/><text xml:space="preserve" x="27" y="38.142578125" stroke="none" font-family="sans-serif" font-size="40" font-weight="normal" fill="#000000">model</text></g></g></g></g><g transform="translate(3.429011037612589e-15 56)"><g transform="translate(0 0)"><g transform="translate(-48.453125 0)" fill="white"><rect x="0" y="0" width="96.90625" height="76.8" rx="0" ry="0" stroke="none"/><g font-family="sans-serif" font-size="16" font-weight="normal" fill="#000000" text-anchor="end"><text xml:space="preserve" x="70.2421875" y="14.05703125" stroke="none">id:</text><text xml:space="preserve" x="74.6875" y="14.05703125" stroke="none" text-anchor="start">str</text><text xml:space="preserve" x="70.2421875" y="33.25703125" stroke="none" text-anchor="end">name:</text><text xml:space="preserve" x="74.6875" y="33.25703125" stroke="none" text-anchor="start">str</text><text xml:space="preserve" x="70.2421875" y="52.45703125" stroke="none" text-anchor="end">metaid:</text><text xml:space="preserve" x="74.6875" y="52.45703125" stroke="none" text-anchor="start">str</text><text xml:space="preserve" x="70.2421875" y="71.65703125" stroke="none" text-anchor="end">sboTerm:</text><text xml:space="preserve" x="74.6875" y="71.65703125" stroke="none" text-anchor="start">str</text></g></g></g></g></g></g><g class="node"><g fill="#ffffff" stroke="#000000" stroke-width="4"><circle cx="866.797844062114" cy="456.2149552373287" r="52"/></g><g transform="translate(866.797844062114 456.2149552373287)"><g transform="scale(0.691155394684874) translate(0 -27)"><g transform="translate(0 0)"><g transform="translate(-59.24609375 0)"><g fill="#ffffff" stroke="#000000" stroke-width="4"><rect x="0" y="0" width="118.4921875" height="54" rx="27" ry="27"/><text xml:space="preserve" x="27" y="38.142578125" stroke="none" font-family="sans-serif" font-size="40" font-weight="normal" fill="#000000">unit</text></g></g></g></g><g transform="translate(56 -76.8)"><g transform="translate(0 0)"><g transform="translate(0 0)" fill="white"><rect x="0" y="0" width="83.6171875" height="153.6" rx="0" ry="0" stroke="none"/><g font-family="sans-serif" font-size="16" font-weight="normal" fill="#000000" text-anchor="end"><text xml:space="preserve" x="74.7265625" y="14.05703125" stroke="none">id:</text><text xml:space="preserve" x="79.171875" y="14.05703125" stroke="none" text-anchor="start"></text><text xml:space="preserve" x="74.7265625" y="33.25703125" stroke="none" text-anchor="end">name:</text><text xml:space="preserve" x="79.171875" y="33.25703125" stroke="none" text-anchor="start"></text><text xml:space="preserve" x="74.7265625" y="52.45703125" stroke="none" text-anchor="end">metaid:</text><text xml:space="preserve" x="79.171875" y="52.45703125" stroke="none" text-anchor="start"></text><text xml:space="preserve" x="74.7265625" y="71.65703125" stroke="none" text-anchor="end">sboTerm:</text><text xml:space="preserve" x="79.171875" y="71.65703125" stroke="none" text-anchor="start"></text><text xml:space="preserve" x="74.7265625" y="90.85703124999999" stroke="none" text-anchor="end">kind:</text><text xml:space="preserve" x="79.171875" y="90.85703124999999" stroke="none" text-anchor="start"></text><text xml:space="preserve" x="74.7265625" y="110.05703125" stroke="none" text-anchor="end">exponent:</text><text xml:space="preserve" x="79.171875" y="110.05703125" stroke="none" text-anchor="start"></text><text xml:space="preserve" x="74.7265625" y="129.25703125" stroke="none" text-anchor="end">scale:</text><text xml:space="preserve" x="79.171875" y="129.25703125" stroke="none" text-anchor="start"></text><text xml:space="preserve" x="74.7265625" y="148.45703125" stroke="none" text-anchor="end">multiplier:</text><text xml:space="preserve" x="79.171875" y="148.45703125" stroke="none" text-anchor="start"></text></g></g></g></g></g></g><g class="node"><g fill="#ffffff" stroke="#000000" stroke-width="4"><circle cx="670.4700159558989" cy="-3.9999999999999147" r="52"/></g><g transform="translate(670.4700159558989 -3.9999999999999147)"><g transform="scale(0.4420508449855404) translate(0 -27)"><g transform="translate(0 0)"><g transform="translate(-98.15234375 0)"><g fill="#ffffff" stroke="#000000" stroke-width="4"><rect x="0" y="0" width="196.3046875" height="54" rx="27" ry="27"/><text xml:space="preserve" x="27" y="38.142578125" stroke="none" font-family="sans-serif" font-size="40" font-weight="normal" fill="#000000">Species</text></g></g></g></g><g transform="translate(3.429011037612589e-15 -94.4)"><g transform="translate(0 0)"><g transform="translate(-54.69140625 0)" fill="white"><rect x="0" y="0" width="109.3828125" height="38.4" rx="0" ry="0" stroke="none"/><g font-family="sans-serif" font-size="16" font-weight="normal" fill="#000000" text-anchor="end"><text xml:space="preserve" x="100.4921875" y="14.05703125" stroke="none">initialAmount:</text><text xml:space="preserve" x="104.9375" y="14.05703125" stroke="none" text-anchor="start"></text><text xml:space="preserve" x="100.4921875" y="33.25703125" stroke="none" text-anchor="end">id:</text><text xml:space="preserve" x="104.9375" y="33.25703125" stroke="none" text-anchor="start"></text></g></g></g></g></g></g><g class="node"><g fill="#ffffff" stroke="#000000" stroke-width="4"><circle cx="437.04500740613366" cy="229.42500854976524" r="52"/></g><g transform="translate(437.04500740613366 229.42500854976524)"><g transform="scale(0.41162733875169777) translate(0 -27)"><g transform="translate(0 0)"><g transform="translate(-105.935546875 0)"><g fill="#ffffff" stroke="#000000" stroke-width="4"><rect x="0" y="0" width="211.87109375" height="54" rx="27" ry="27"/><text xml:space="preserve" x="27" y="38.142578125" stroke="none" font-family="sans-serif" font-size="40" font-weight="normal" fill="#000000">Reaction</text></g></g></g></g><g transform="translate(3.429011037612589e-15 56)"><g transform="translate(0 0)"><g transform="translate(-43.5703125 0)" fill="white"><rect x="0" y="0" width="87.140625" height="38.4" rx="0" ry="0" stroke="none"/><g font-family="sans-serif" font-size="16" font-weight="normal" fill="#000000" text-anchor="end"><text xml:space="preserve" x="78.25" y="14.05703125" stroke="none">id:</text><text xml:space="preserve" x="82.6953125" y="14.05703125" stroke="none" text-anchor="start"></text><text xml:space="preserve" x="78.25" y="33.25703125" stroke="none" text-anchor="end">reversible:</text><text xml:space="preserve" x="82.6953125" y="33.25703125" stroke="none" text-anchor="start"></text></g></g></g></g></g></g><g class="node"><g fill="#ffffff" stroke="#000000" stroke-width="4"><circle cx="129" cy="229.42500854976512" r="52"/></g><g transform="translate(129 229.42500854976512)"><g transform="scale(0.35536411888516545) translate(0 -27)"><g transform="translate(0 0)"><g transform="translate(-123.71875 0)"><g fill="#ffffff" stroke="#000000" stroke-width="4"><rect x="0" y="0" width="247.4375" height="54" rx="27" ry="27"/><text xml:space="preserve" x="27" y="38.142578125" stroke="none" font-family="sans-serif" font-size="40" font-weight="normal" fill="#000000">KineticLaw</text></g></g></g></g><g transform="translate(-56 -9.599999999999993)"><g transform="translate(0 0)"><g transform="translate(-71.1328125 0)" fill="white"><rect x="0" y="0" width="71.1328125" height="19.2" rx="0" ry="0" stroke="none"/><g font-family="sans-serif" font-size="16" font-weight="normal" fill="#000000" text-anchor="end"><text xml:space="preserve" x="62.2421875" y="14.05703125" stroke="none">formula:</text><text xml:space="preserve" x="66.6875" y="14.05703125" stroke="none" text-anchor="start"></text></g></g></g></g></g></g><g class="node"><g fill="#ffffff" stroke="#000000" stroke-width="4"><circle cx="1124.5324835254619" cy="435.6950375254115" r="52"/></g><g transform="translate(1124.5324835254619 435.6950375254115)"><g transform="scale(0.3647855078236079) translate(0 -27)"><g transform="translate(0 0)"><g transform="translate(-120.369140625 0)"><g fill="#ffffff" stroke="#000000" stroke-width="4"><rect x="0" y="0" width="240.73828125" height="54" rx="27" ry="27"/><text xml:space="preserve" x="27" y="38.142578125" stroke="none" font-family="sans-serif" font-size="40" font-weight="normal" fill="#000000">Parameter</text></g></g></g></g><g transform="translate(39.59797974644666 39.597979746446654)"><g transform="translate(0 0)"><g transform="translate(0 0)" fill="white"><rect x="0" y="0" width="56.03125" height="57.599999999999994" rx="0" ry="0" stroke="none"/><g font-family="sans-serif" font-size="16" font-weight="normal" fill="#000000" text-anchor="end"><text xml:space="preserve" x="47.140625" y="14.05703125" stroke="none">id:</text><text xml:space="preserve" x="51.5859375" y="14.05703125" stroke="none" text-anchor="start"></text><text xml:space="preserve" x="47.140625" y="33.25703125" stroke="none" text-anchor="end">value:</text><text xml:space="preserve" x="51.5859375" y="33.25703125" stroke="none" text-anchor="start"></text><text xml:space="preserve" x="47.140625" y="52.45703125" stroke="none" text-anchor="end">units:</text><text xml:space="preserve" x="51.5859375" y="52.45703125" stroke="none" text-anchor="start"></text></g></g></g></g></g></g><g class="node"><g fill="#ffffff" stroke="#000000" stroke-width="4"><circle cx="1171.8090745198815" cy="229.42500854976524" r="52"/></g><g transform="translate(1171.8090745198815 229.42500854976524)"><g transform="scale(0.4241721125152988) translate(0 -27)"><g transform="translate(0 0)"><g transform="translate(-102.595703125 0)"><g fill="#ffffff" stroke="#000000" stroke-width="4"><rect x="0" y="0" width="205.19140625" height="54" rx="27" ry="27"/><text xml:space="preserve" x="27" y="38.142578125" stroke="none" font-family="sans-serif" font-size="40" font-weight="normal" fill="#000000">rateRule</text></g></g></g></g><g transform="translate(56 -9.6)"><g transform="translate(0 0)"><g transform="translate(0 0)" fill="white"><rect x="0" y="0" width="71.1328125" height="19.2" rx="0" ry="0" stroke="none"/><g font-family="sans-serif" font-size="16" font-weight="normal" fill="#000000" text-anchor="end"><text xml:space="preserve" x="62.2421875" y="14.05703125" stroke="none">formula:</text><text xml:space="preserve" x="66.6875" y="14.05703125" stroke="none" text-anchor="start"></text></g></g></g></g></g></g></g></svg>