<svg xmlns="http://www.w3.org/2000/svg" width="1111" height="906" viewBox="0 0 1111 906"><defs><style type="text/css"/></defs><g transform="translate(81.49988205861463 -395.89912777535454) scale(1)"><g class="relationship"><g transform="translate(508.39012733406054 801.4728098449154) rotate(-44.99999999999999)" stroke-width="5" stroke="#000000"><path d="M 59 0 L 243.6353483236745 0"/><polygon points="-24.8621506177483,0 -27.62461179749811,9.20820393249937 0,0 -27.62461179749811,-9.20820393249937" fill="#000000" transform="translate(268.4974989414228 0) rotate(0)" stroke="none"/></g><g transform="translate(615.3878808472721 694.4750563317039) rotate(-44.99999999999999) translate(0 -13)"><g transform="translate(0 0)"><g transform="translate(-87.83203125 0)" fill="#ffffff" stroke="#000000" stroke-width="0"><rect x="0" y="0" width="175.6640625" height="26" rx="5" ry="5" stroke="none"/><text xml:space="preserve" x="5" y="17.45703125" stroke="none" text-anchor="left" font-family="sans-serif" font-size="16" font-weight="normal" fill="#000000">HAS_COMPARTMENT</text></g></g></g></g><g class="relationship"><g transform="translate(522.4546214921043 1168.3242638484294) rotate(-39.02685371665497)" stroke-width="5" stroke="#000000"><path d="M 59 0 L 196.12877407298348 0"/><polygon points="-24.8621506177483,0 -27.62461179749811,9.20820393249937 0,0 -27.62461179749811,-9.20820393249937" fill="#000000" transform="translate(220.9909246907318 0) rotate(0)" stroke="none"/></g><g transform="translate(621.5531332520551 1087.9989390314156) rotate(-39.02685371665497) translate(0 -13)"><g transform="translate(0 0)"><g transform="translate(-63.6796875 0)" fill="#ffffff" stroke="#000000" stroke-width="0"><rect x="0" y="0" width="127.359375" height="26" rx="5" ry="5" stroke="none"/><text xml:space="preserve" x="5" y="17.45703125" stroke="none" text-anchor="left" font-family="sans-serif" font-size="16" font-weight="normal" fill="#000000">IS_COMPOSED</text></g></g></g></g><g class="relationship"><g transform="translate(508.39012733406054 801.4728098449154) rotate(87.80444732972386)" stroke-width="5" stroke="#000000"><path d="M 59 0 L 283.25880942187405 0"/><polygon points="-24.8621506177483,0 -27.62461179749811,9.20820393249937 0,0 -27.62461179749811,-9.20820393249937" fill="#000000" transform="translate(308.12096003962233 0) rotate(0)" stroke="none"/></g><g transform="translate(514.9461368644527 972.4765872761673) rotate(87.80444732972386) translate(0 -13)"><g transform="translate(0 0)"><g transform="translate(-89.89453125 0)" fill="#ffffff" stroke="#000000" stroke-width="0"><rect x="0" y="0" width="179.7890625" height="26" rx="5" ry="5" stroke="none"/><text xml:space="preserve" x="5" y="17.45703125" stroke="none" text-anchor="left" font-family="sans-serif" font-size="16" font-weight="normal" fill="#000000">HAS_UNITDEFINITION</text></g></g></g></g><g class="relationship"><g transform="translate(508.39012733406054 801.4728098449154) rotate(-135)" stroke-width="5" stroke="#000000"><path d="M 59 0 L 243.6353483236745 0"/><polygon points="-24.8621506177483,0 -27.62461179749811,9.20820393249937 0,0 -27.62461179749811,-9.20820393249937" fill="#000000" transform="translate(268.4974989414228 0) rotate(0)" stroke="none"/></g><g transform="translate(401.392373820849 694.4750563317039) rotate(45) translate(0 -13)"><g transform="translate(0 0)"><g transform="translate(-60.578125 0)" fill="#ffffff" stroke="#000000" stroke-width="0"><rect x="0" y="0" width="121.15625" height="26" rx="5" ry="5" stroke="none"/><text xml:space="preserve" x="5" y="17.45703125" stroke="none" text-anchor="left" font-family="sans-serif" font-size="16" font-weight="normal" fill="#000000">HAS_SPECIES</text></g></g></g></g><g class="relationship"><g transform="translate(276.8144250109463 569.8971075218012) rotate(0)" stroke-width="5" stroke="#000000"><path d="M 59 0 L 379.28925402848023 0"/><polygon points="-24.8621506177483,0 -27.62461179749811,9.20820393249937 0,0 -27.62461179749811,-9.20820393249937" fill="#000000" transform="translate(404.1514046462285 0) rotate(0)" stroke="none"/></g><g transform="translate(495.95905202518645 569.8971075218012) rotate(0) translate(0 -13)"><g transform="translate(0 0)"><g transform="translate(-79.3828125 0)" fill="#ffffff" stroke="#000000" stroke-width="0"><rect x="0" y="0" width="158.765625" height="26" rx="5" ry="5" stroke="none"/><text xml:space="preserve" x="5" y="17.45703125" stroke="none" text-anchor="left" font-family="sans-serif" font-size="16" font-weight="normal" fill="#000000">IN_COMPARTMENT</text></g></g></g></g><g class="relationship"><g transform="translate(508.39012733406054 801.4728098449154) rotate(180)" stroke-width="5" stroke="#000000"><path d="M 59 0 L 379.28925402848023 0"/><polygon points="-24.8621506177483,0 -27.62461179749811,9.20820393249937 0,0 -27.62461179749811,-9.20820393249937" fill="#000000" transform="translate(404.1514046462285 0) rotate(0)" stroke="none"/></g><g transform="translate(289.2455003198204 801.4728098449154) rotate(360) translate(0 -13)"><g transform="translate(0 0)"><g transform="translate(-67.234375 0)" fill="#ffffff" stroke="#000000" stroke-width="0"><rect x="0" y="0" width="134.46875" height="26" rx="5" ry="5" stroke="none"/><text xml:space="preserve" x="5" y="17.45703125" stroke="none" text-anchor="left" font-family="sans-serif" font-size="16" font-weight="normal" fill="#000000">HAS_REACTION</text></g></g></g></g><g class="relationship"><g transform="translate(45.23872268783202 801.4728098449154) rotate(35.57884680848139)" stroke-width="5" stroke="#000000"><path d="M 59 0 L 243.6353483236745 0"/><polygon points="-24.8621506177483,0 -27.62461179749811,9.20820393249937 0,0 -27.62461179749811,-9.20820393249937" fill="#000000" transform="translate(268.4974989414228 0) rotate(0)" stroke="none"/></g><g transform="translate(168.30775085640659 889.5128735624671) rotate(35.57884680848139) translate(0 -13)"><g transform="translate(0 0)"><g transform="translate(-77.61328125 0)" fill="#ffffff" stroke="#000000" stroke-width="0"><rect x="0" y="0" width="155.2265625" height="26" rx="5" ry="5" stroke="none"/><text xml:space="preserve" x="5" y="17.45703125" stroke="none" text-anchor="left" font-family="sans-serif" font-size="16" font-weight="normal" fill="#000000">HAS_KENETICLAW</text></g></g></g></g><g class="relationship"><g transform="translate(45.23872268783202 801.4728098449154) rotate(90)" stroke-width="5" stroke="#000000"><path d="M 59 0 L 282.98930338576565 0"/><polygon points="-24.8621506177483,0 -27.62461179749811,9.20820393249937 0,0 -27.62461179749811,-9.20820393249937" fill="#000000" transform="translate(307.85145400351394 0) rotate(0)" stroke="none"/></g><g transform="translate(45.23872268783203 972.4674615377983) rotate(270) translate(0 -13)"><g transform="translate(0 0)"><g transform="translate(-101.328125 0)" fill="#ffffff" stroke="#000000" stroke-width="0"><rect x="0" y="0" width="202.65625" height="26" rx="5" ry="5" stroke="none"/><text xml:space="preserve" x="5" y="17.45703125" stroke="none" text-anchor="left" font-family="sans-serif" font-size="16" font-weight="normal" fill="#000000">HAS_LOCALPARAMETER</text></g></g></g></g><g class="relationship"><g transform="translate(276.8144250109463 569.8971075218012) rotate(135)" stroke-width="5" stroke="#000000"><path d="M 58.695178092152055 -5.989663490593891 L 95.96898050729243 -9.793341079425122 A 40 40 0 0 1 100.02976931447472 -10 L 163.7487494707114 -10 L 227.4677296269481 -10 A 40 40 0 0 1 231.5285184341304 -9.79334107942512 L 244.0686198617683 -8.51366206436971 L 244.0686198617683 -8.51366206436971"/><polygon points="-24.8621506177483,0 -27.62461179749811,9.20820393249937 0,0 -27.62461179749811,-9.20820393249937" fill="#000000" transform="translate(327.4974989414228 0) rotate(5.826689442008371) translate(-59 0)" stroke="none"/></g><g transform="translate(168.09764166125467 692.7560264952239) rotate(315) translate(0 -13)"><g transform="translate(0 0)"><g transform="translate(-59.53125 0)" fill="#ffffff" stroke="#000000" stroke-width="0"><rect x="0" y="0" width="119.0625" height="26" rx="5" ry="5" stroke="none"/><text xml:space="preserve" x="5" y="17.45703125" stroke="none" text-anchor="left" font-family="sans-serif" font-size="16" font-weight="normal" fill="#000000">IS_REACTANT</text></g></g></g></g><g class="relationship"><g transform="translate(45.23872268783202 801.4728098449154) rotate(-44.99999999999999)" stroke-width="5" stroke="#000000"><path d="M 58.695178092152055 -5.989663490593891 L 95.96898050729243 -9.793341079425122 A 40 40 0 0 1 100.02976931447472 -10 L 163.7487494707114 -10 L 227.4677296269481 -10 A 40 40 0 0 1 231.5285184341304 -9.79334107942512 L 244.0686198617683 -8.51366206436971 L 244.0686198617683 -8.51366206436971"/><polygon points="-24.8621506177483,0 -27.62461179749811,9.20820393249937 0,0 -27.62461179749811,-9.20820393249937" fill="#000000" transform="translate(327.4974989414228 0) rotate(5.826689442008371) translate(-59 0)" stroke="none"/></g><g transform="translate(153.95550603752366 678.6138908714929) rotate(-44.99999999999999) translate(0 -13)"><g transform="translate(0 0)"><g transform="translate(-65.453125 0)" fill="#ffffff" stroke="#000000" stroke-width="0"><rect x="0" y="0" width="130.90625" height="26" rx="5" ry="5" stroke="none"/><text xml:space="preserve" x="5" y="17.45703125" stroke="none" text-anchor="left" font-family="sans-serif" font-size="16" font-weight="normal" fill="#000000">HAS_PRODUCT</text></g></g></g></g><g class="relationship"><g transform="translate(45.23872268783202 1168.3242638484294) rotate(0)" stroke-width="5" stroke="#000000"><path d="M 59 0 L 393.35374818652394 0"/><polygon points="-24.8621506177483,0 -27.62461179749811,9.20820393249937 0,0 -27.62461179749811,-9.20820393249937" fill="#000000" transform="translate(418.21589880427223 0) rotate(0)" stroke="none"/></g><g transform="translate(271.415596781094 1168.3242638484294) rotate(0) translate(0 -13)"><g transform="translate(0 0)"><g transform="translate(-49.8984375 0)" fill="#ffffff" stroke="#000000" stroke-width="0"><rect x="0" y="0" width="99.796875" height="26" rx="5" ry="5" stroke="none"/><text xml:space="preserve" x="5" y="17.45703125" stroke="none" text-anchor="left" font-family="sans-serif" font-size="16" font-weight="normal" fill="#000000">HAS_UNITS</text></g></g></g></g><g class="node"><g fill="#ffffff" stroke="#000000" stroke-width="4"><circle cx="522.4546214921043" cy="1168.3242638484294" r="52"/></g><g transform="translate(522.4546214921043 1168.3242638484294)"><g transform="scale(0.3031899383995126) translate(0 -27)"><g transform="translate(0 0)"><g transform="translate(-145.9453125 0)"><g fill="#ffffff" stroke="#000000" stroke-width="4"><rect x="0" y="0" width="291.890625" height="54" rx="27" ry="27"/><text xml:space="preserve" x="27" y="38.142578125" stroke="none" font-family="sans-serif" font-size="40" font-weight="normal" fill="#000000">UnitDefinition</text></g></g></g></g><g transform="translate(3.429011037612589e-15 56)"><g transform="translate(0 0)"><g transform="translate(-85.35546875 0)" fill="white"><rect x="0" y="0" width="170.7109375" height="76.8" rx="0" ry="0" stroke="none"/><g font-family="sans-serif" font-size="16" font-weight="normal" fill="#000000" text-anchor="end"><text xml:space="preserve" x="70.2421875" y="14.05703125" stroke="none">id:</text><text xml:space="preserve" x="74.6875" y="14.05703125" stroke="none" text-anchor="start">str (required)</text><text xml:space="preserve" x="70.2421875" y="33.25703125" stroke="none" text-anchor="end">name:</text><text xml:space="preserve" x="74.6875" y="33.25703125" stroke="none" text-anchor="start">str (optional)</text><text xml:space="preserve" x="70.2421875" y="52.45703125" stroke="none" text-anchor="end">metaid:</text><text xml:space="preserve" x="74.6875" y="52.45703125" stroke="none" text-anchor="start">str (optional)</text><text xml:space="preserve" x="70.2421875" y="71.65703125" stroke="none" text-anchor="end">sboTerm:</text><text xml:space="preserve" x="74.6875" y="71.65703125" stroke="none" text-anchor="start">str (optional)</text></g></g></g></g></g></g><g class="node"><g fill="#ffffff" stroke="#000000" stroke-width="4"><circle cx="739.9658296571748" cy="569.8971075218012" r="52"/></g><g transform="translate(739.9658296571748 569.8971075218012)"><g transform="scale(0.30774835674569057) translate(0 -27)"><g transform="translate(0 0)"><g transform="translate(-143.708984375 0)"><g fill="#ffffff" stroke="#000000" stroke-width="4"><rect x="0" y="0" width="287.41796875" height="54" rx="27" ry="27"/><text xml:space="preserve" x="27" y="38.142578125" stroke="none" font-family="sans-serif" font-size="40" font-weight="normal" fill="#000000">compartment</text></g></g></g></g><g transform="translate(39.59797974644666 -173.99797974644667)"><g transform="translate(0 0)"><g transform="translate(0 0)" fill="white"><rect x="0" y="0" width="249.015625" height="134.4" rx="0" ry="0" stroke="none"/><g font-family="sans-serif" font-size="16" font-weight="normal" fill="#000000" text-anchor="end"><text xml:space="preserve" x="138.7265625" y="14.05703125" stroke="none">id:</text><text xml:space="preserve" x="143.171875" y="14.05703125" stroke="none" text-anchor="start">str (required)</text><text xml:space="preserve" x="138.7265625" y="33.25703125" stroke="none" text-anchor="end">name:</text><text xml:space="preserve" x="143.171875" y="33.25703125" stroke="none" text-anchor="start">str (optional)</text><text xml:space="preserve" x="138.7265625" y="52.45703125" stroke="none" text-anchor="end">metaid:</text><text xml:space="preserve" x="143.171875" y="52.45703125" stroke="none" text-anchor="start">str (optional)</text><text xml:space="preserve" x="138.7265625" y="71.65703125" stroke="none" text-anchor="end">sboTerm:</text><text xml:space="preserve" x="143.171875" y="71.65703125" stroke="none" text-anchor="start">str (optional)</text><text xml:space="preserve" x="138.7265625" y="90.85703124999999" stroke="none" text-anchor="end">spatialDimensions:</text><text xml:space="preserve" x="143.171875" y="90.85703124999999" stroke="none" text-anchor="start">int (optional)</text><text xml:space="preserve" x="138.7265625" y="110.05703125" stroke="none" text-anchor="end">size:</text><text xml:space="preserve" x="143.171875" y="110.05703125" stroke="none" text-anchor="start">int (optional)</text><text xml:space="preserve" x="138.7265625" y="129.25703125" stroke="none" text-anchor="end">constant:</text><text xml:space="preserve" x="143.171875" y="129.25703125" stroke="none" text-anchor="start">bool (optional)</text></g></g></g></g></g></g><g class="node"><g fill="#ffffff" stroke="#000000" stroke-width="4"><circle cx="508.39012733406054" cy="801.4728098449154" r="52"/></g><g transform="translate(508.39012733406054 801.4728098449154)"><g transform="scale(0.5242920341306497) translate(0 -27)"><g transform="translate(0 0)"><g transform="translate(-81.47265625 0)"><g fill="#ffffff" stroke="#000000" stroke-width="4"><rect x="0" y="0" width="162.9453125" height="54" rx="27" ry="27"/><text xml:space="preserve" x="27" y="38.142578125" stroke="none" font-family="sans-serif" font-size="40" font-weight="normal" fill="#000000">model</text></g></g></g></g><g transform="translate(3.429011037612589e-15 -132.8)"><g transform="translate(0 0)"><g transform="translate(-48.453125 0)" fill="white"><rect x="0" y="0" width="96.90625" height="76.8" rx="0" ry="0" stroke="none"/><g font-family="sans-serif" font-size="16" font-weight="normal" fill="#000000" text-anchor="end"><text xml:space="preserve" x="70.2421875" y="14.05703125" stroke="none">id:</text><text xml:space="preserve" x="74.6875" y="14.05703125" stroke="none" text-anchor="start">str</text><text xml:space="preserve" x="70.2421875" y="33.25703125" stroke="none" text-anchor="end">name:</text><text xml:space="preserve" x="74.6875" y="33.25703125" stroke="none" text-anchor="start">str</text><text xml:space="preserve" x="70.2421875" y="52.45703125" stroke="none" text-anchor="end">metaid:</text><text xml:space="preserve" x="74.6875" y="52.45703125" stroke="none" text-anchor="start">str</text><text xml:space="preserve" x="70.2421875" y="71.65703125" stroke="none" text-anchor="end">sboTerm:</text><text xml:space="preserve" x="74.6875" y="71.65703125" stroke="none" text-anchor="start">str</text></g></g></g></g></g></g><g class="node"><g fill="#ffffff" stroke="#000000" stroke-width="4"><circle cx="739.9658296571748" cy="992.0183018626179" r="52"/></g><g transform="translate(739.9658296571748 992.0183018626179)"><g transform="scale(0.691155394684874) translate(0 -27)"><g transform="translate(0 0)"><g transform="translate(-59.24609375 0)"><g fill="#ffffff" stroke="#000000" stroke-width="4"><rect x="0" y="0" width="118.4921875" height="54" rx="27" ry="27"/><text xml:space="preserve" x="27" y="38.142578125" stroke="none" font-family="sans-serif" font-size="40" font-weight="normal" fill="#000000">unit</text></g></g></g></g><g transform="translate(39.59797974644666 -193.19797974644666)"><g transform="translate(0 0)"><g transform="translate(0 0)" fill="white"><rect x="0" y="0" width="185.0078125" height="153.6" rx="0" ry="0" stroke="none"/><g font-family="sans-serif" font-size="16" font-weight="normal" fill="#000000" text-anchor="end"><text xml:space="preserve" x="74.7265625" y="14.05703125" stroke="none">id:</text><text xml:space="preserve" x="79.171875" y="14.05703125" stroke="none" text-anchor="start">str (optional)</text><text xml:space="preserve" x="74.7265625" y="33.25703125" stroke="none" text-anchor="end">name:</text><text xml:space="preserve" x="79.171875" y="33.25703125" stroke="none" text-anchor="start">str (optional)</text><text xml:space="preserve" x="74.7265625" y="52.45703125" stroke="none" text-anchor="end">metaid:</text><text xml:space="preserve" x="79.171875" y="52.45703125" stroke="none" text-anchor="start">str (optional)</text><text xml:space="preserve" x="74.7265625" y="71.65703125" stroke="none" text-anchor="end">sboTerm:</text><text xml:space="preserve" x="79.171875" y="71.65703125" stroke="none" text-anchor="start">str (optional)</text><text xml:space="preserve" x="74.7265625" y="90.85703124999999" stroke="none" text-anchor="end">kind:</text><text xml:space="preserve" x="79.171875" y="90.85703124999999" stroke="none" text-anchor="start">str (required)</text><text xml:space="preserve" x="74.7265625" y="110.05703125" stroke="none" text-anchor="end">exponent:</text><text xml:space="preserve" x="79.171875" y="110.05703125" stroke="none" text-anchor="start">float (optional)</text><text xml:space="preserve" x="74.7265625" y="129.25703125" stroke="none" text-anchor="end">scale:</text><text xml:space="preserve" x="79.171875" y="129.25703125" stroke="none" text-anchor="start">int (optional)</text><text xml:space="preserve" x="74.7265625" y="148.45703125" stroke="none" text-anchor="end">multiplier:</text><text xml:space="preserve" x="79.171875" y="148.45703125" stroke="none" text-anchor="start">float (optional)</text></g></g></g></g></g></g><g class="node"><g fill="#ffffff" stroke="#000000" stroke-width="4"><circle cx="276.8144250109463" cy="569.8971075218012" r="52"/></g><g transform="translate(276.8144250109463 569.8971075218012)"><g transform="scale(0.4420508449855404) translate(0 -27)"><g transform="translate(0 0)"><g transform="translate(-98.15234375 0)"><g fill="#ffffff" stroke="#000000" stroke-width="4"><rect x="0" y="0" width="196.3046875" height="54" rx="27" ry="27"/><text xml:space="preserve" x="27" y="38.142578125" stroke="none" font-family="sans-serif" font-size="40" font-weight="normal" fill="#000000">Species</text></g></g></g></g></g></g><g class="node"><g fill="#ffffff" stroke="#000000" stroke-width="4"><circle cx="45.23872268783202" cy="801.4728098449154" r="52"/></g><g transform="translate(45.23872268783202 801.4728098449154)"><g transform="scale(0.41162733875169777) translate(0 -27)"><g transform="translate(0 0)"><g transform="translate(-105.935546875 0)"><g fill="#ffffff" stroke="#000000" stroke-width="4"><rect x="0" y="0" width="211.87109375" height="54" rx="27" ry="27"/><text xml:space="preserve" x="27" y="38.142578125" stroke="none" font-family="sans-serif" font-size="40" font-weight="normal" fill="#000000">Reaction</text></g></g></g></g><g transform="translate(-39.597979746446654 -77.99797974644666)"><g transform="translate(0 0)"><g transform="translate(-87.140625 0)" fill="white"><rect x="0" y="0" width="87.140625" height="38.4" rx="0" ry="0" stroke="none"/><g font-family="sans-serif" font-size="16" font-weight="normal" fill="#000000" text-anchor="end"><text xml:space="preserve" x="78.25" y="14.05703125" stroke="none">id:</text><text xml:space="preserve" x="82.6953125" y="14.05703125" stroke="none" text-anchor="start"></text><text xml:space="preserve" x="78.25" y="33.25703125" stroke="none" text-anchor="end">reversible:</text><text xml:space="preserve" x="82.6953125" y="33.25703125" stroke="none" text-anchor="start"></text></g></g></g></g></g></g><g class="node"><g fill="#ffffff" stroke="#000000" stroke-width="4"><circle cx="311.59755450051836" cy="992.0183018626179" r="52"/></g><g transform="translate(311.59755450051836 992.0183018626179)"><g transform="scale(0.35536411888516545) translate(0 -27)"><g transform="translate(0 0)"><g transform="translate(-123.71875 0)"><g fill="#ffffff" stroke="#000000" stroke-width="4"><rect x="0" y="0" width="247.4375" height="54" rx="27" ry="27"/><text xml:space="preserve" x="27" y="38.142578125" stroke="none" font-family="sans-serif" font-size="40" font-weight="normal" fill="#000000">KineticLaw</text></g></g></g></g><g transform="translate(39.59797974644666 39.597979746446654)"><g transform="translate(0 0)"><g transform="translate(0 0)" fill="white"><rect x="0" y="0" width="71.1328125" height="19.2" rx="0" ry="0" stroke="none"/><g font-family="sans-serif" font-size="16" font-weight="normal" fill="#000000" text-anchor="end"><text xml:space="preserve" x="62.2421875" y="14.05703125" stroke="none">formula:</text><text xml:space="preserve" x="66.6875" y="14.05703125" stroke="none" text-anchor="start"></text></g></g></g></g></g></g><g class="node"><g fill="#ffffff" stroke="#000000" stroke-width="4"><circle cx="45.23872268783202" cy="1168.3242638484294" r="52"/></g><g transform="translate(45.23872268783202 1168.3242638484294)"><g transform="scale(0.274820340453199) translate(0 -27)"><g transform="translate(0 0)"><g transform="translate(-161.501953125 0)"><g fill="#ffffff" stroke="#000000" stroke-width="4"><rect x="0" y="0" width="323.00390625" height="54" rx="27" ry="27"/><text xml:space="preserve" x="27" y="38.142578125" stroke="none" font-family="sans-serif" font-size="40" font-weight="normal" fill="#000000">localParameter</text></g></g></g></g><g transform="translate(-39.597979746446654 39.59797974644666)"><g transform="translate(0 0)"><g transform="translate(-56.03125 0)" fill="white"><rect x="0" y="0" width="56.03125" height="38.4" rx="0" ry="0" stroke="none"/><g font-family="sans-serif" font-size="16" font-weight="normal" fill="#000000" text-anchor="end"><text xml:space="preserve" x="47.140625" y="14.05703125" stroke="none">id:</text><text xml:space="preserve" x="51.5859375" y="14.05703125" stroke="none" text-anchor="start"></text><text xml:space="preserve" x="47.140625" y="33.25703125" stroke="none" text-anchor="end">value:</text><text xml:space="preserve" x="51.5859375" y="33.25703125" stroke="none" text-anchor="start"></text></g></g></g></g></g></g></g></svg>