<svg xmlns="http://www.w3.org/2000/svg" width="1346" height="621" viewBox="0 0 1346 621"><defs><style type="text/css"/></defs><g transform="translate(36.3828125 58) scale(1)"><g class="relationship"><g transform="translate(520.1383841335534 175.34601098301712) rotate(-29.92154277300619)" stroke-width="5" stroke="#000000"><path d="M 59 0 L 275.6829632998272 0"/><polygon points="-24.8621506177483,0 -27.62461179749811,9.20820393249937 0,0 -27.62461179749811,-9.20820393249937" fill="#000000" transform="translate(300.54511391757546 0) rotate(0)" stroke="none"/></g><g transform="translate(665.1747958787356 91.87379555254984) rotate(-29.92154277300619) translate(0 -13)"><g transform="translate(0 0)"><g transform="translate(-87.83203125 0)" fill="#ffffff" stroke="#000000" stroke-width="0"><rect x="0" y="0" width="175.6640625" height="26" rx="5" ry="5" stroke="none"/><text xml:space="preserve" x="5" y="17.45703125" stroke="none" text-anchor="left" font-family="sans-serif" font-size="16" font-weight="normal" fill="#000000">HAS_COMPARTMENT</text></g></g></g></g><g class="relationship"><g transform="translate(189.0265622806584 383.5627177379358) rotate(20.62779122724157)" stroke-width="5" stroke="#000000"><path d="M 59 0 L 269.9318408217199 0"/><polygon points="-24.8621506177483,0 -27.62461179749811,9.20820393249937 0,0 -27.62461179749811,-9.20820393249937" fill="#000000" transform="translate(294.7939914394682 0) rotate(0)" stroke="none"/></g><g transform="translate(342.94836948373586 441.5033446238262) rotate(20.62779122724157) translate(0 -13)"><g transform="translate(0 0)"><g transform="translate(-63.6796875 0)" fill="#ffffff" stroke="#000000" stroke-width="0"><rect x="0" y="0" width="127.359375" height="26" rx="5" ry="5" stroke="none"/><text xml:space="preserve" x="5" y="17.45703125" stroke="none" text-anchor="left" font-family="sans-serif" font-size="16" font-weight="normal" fill="#000000">IS_COMPOSED</text></g></g></g></g><g class="relationship"><g transform="translate(520.1383841335534 175.34601098301712) rotate(147.83663292872953)" stroke-width="5" stroke="#000000"><path d="M 59 0 L 307.27623351580496 0"/><polygon points="-24.8621506177483,0 -27.62461179749811,9.20820393249937 0,0 -27.62461179749811,-9.20820393249937" fill="#000000" transform="translate(332.1383841335533 0) rotate(0)" stroke="none"/></g><g transform="translate(365.10579732992176 272.8368661367471) rotate(327.83663292872956) translate(0 -13)"><g transform="translate(0 0)"><g transform="translate(-89.89453125 0)" fill="#ffffff" stroke="#000000" stroke-width="0"><rect x="0" y="0" width="179.7890625" height="26" rx="5" ry="5" stroke="none"/><text xml:space="preserve" x="5" y="17.45703125" stroke="none" text-anchor="left" font-family="sans-serif" font-size="16" font-weight="normal" fill="#000000">HAS_UNITDEFINITION</text></g></g></g></g><g class="relationship"><g transform="translate(520.1383841335534 175.34601098301712) rotate(-155.36744735133237)" stroke-width="5" stroke="#000000"><path d="M 59 0 L 346.433360860268 0"/><polygon points="-24.8621506177483,0 -27.62461179749811,9.20820393249937 0,0 -27.62461179749811,-9.20820393249937" fill="#000000" transform="translate(371.2955114780163 0) rotate(0)" stroke="none"/></g><g transform="translate(335.8690327103711 90.85424422025596) rotate(24.632552648667623) translate(0 -13)"><g transform="translate(0 0)"><g transform="translate(-60.578125 0)" fill="#ffffff" stroke="#000000" stroke-width="0"><rect x="0" y="0" width="121.15625" height="26" rx="5" ry="5" stroke="none"/><text xml:space="preserve" x="5" y="17.45703125" stroke="none" text-anchor="left" font-family="sans-serif" font-size="16" font-weight="normal" fill="#000000">HAS_SPECIES</text></g></g></g></g><g class="relationship"><g transform="translate(129 -4) rotate(0)" stroke-width="5" stroke="#000000"><path d="M 59 0 L 618.8973131726245 0"/><polygon points="-24.8621506177483,0 -27.62461179749811,9.20820393249937 0,0 -27.62461179749811,-9.20820393249937" fill="#000000" transform="translate(643.7594637903728 0) rotate(0)" stroke="none"/></g><g transform="translate(467.94865658631227 -4) rotate(0) translate(0 -13)"><g transform="translate(0 0)"><g transform="translate(-79.3828125 0)" fill="#ffffff" stroke="#000000" stroke-width="0"><rect x="0" y="0" width="158.765625" height="26" rx="5" ry="5" stroke="none"/><text xml:space="preserve" x="5" y="17.45703125" stroke="none" text-anchor="left" font-family="sans-serif" font-size="16" font-weight="normal" fill="#000000">IN_COMPARTMENT</text></g></g></g></g><g class="relationship"><g transform="translate(520.1383841335534 175.34601098301712) rotate(180)" stroke-width="5" stroke="#000000"><path d="M 59 0 L 307.2762335158051 0"/><polygon points="-24.8621506177483,0 -27.62461179749811,9.20820393249937 0,0 -27.62461179749811,-9.20820393249937" fill="#000000" transform="translate(332.13838413355336 0) rotate(0)" stroke="none"/></g><g transform="translate(337.0002673756508 175.34601098301715) rotate(360) translate(0 -13)"><g transform="translate(0 0)"><g transform="translate(-100.1328125 0)" fill="#ffffff" stroke="#000000" stroke-width="0"><rect x="0" y="0" width="200.265625" height="26" rx="5" ry="5" stroke="none"/><text xml:space="preserve" x="5" y="17.45703125" stroke="none" text-anchor="left" font-family="sans-serif" font-size="16" font-weight="normal" fill="#000000">HAS_ASSIGNMENTRULE</text></g></g></g></g><g class="relationship"><g transform="translate(520.1383841335534 175.34601098301712) rotate(-1.0451436717327887e-14)" stroke-width="5" stroke="#000000"><path d="M 59 0 L 227.75892903907115 0"/><polygon points="-24.8621506177483,0 -27.62461179749811,9.20820393249937 0,0 -27.62461179749811,-9.20820393249937" fill="#000000" transform="translate(252.62107965681946 0) rotate(0)" stroke="none"/></g><g transform="translate(663.517848653089 175.3460109830171) rotate(-1.0451436717327887e-14) translate(0 -13)"><g transform="translate(0 0)"><g transform="translate(-52.5703125 0)" fill="#ffffff" stroke="#000000" stroke-width="0"><rect x="0" y="0" width="105.140625" height="26" rx="5" ry="5" stroke="none"/><text xml:space="preserve" x="5" y="17.45703125" stroke="none" text-anchor="left" font-family="sans-serif" font-size="16" font-weight="normal" fill="#000000">HAS_EVENT</text></g></g></g></g><g class="relationship"><g transform="translate(831.7594637903728 175.34601098301707) rotate(9.941952491746991e-15)" stroke-width="5" stroke="#000000"><path d="M 59 0 L 243.7282292922591 0"/><polygon points="-24.8621506177483,0 -27.62461179749811,9.20820393249937 0,0 -27.62461179749811,-9.20820393249937" fill="#000000" transform="translate(268.5903799100074 0) rotate(0)" stroke="none"/></g><g transform="translate(983.1235784365024 175.3460109830171) rotate(9.941952491746991e-15) translate(0 -13)"><g transform="translate(0 0)"><g transform="translate(-62.34375 0)" fill="#ffffff" stroke="#000000" stroke-width="0"><rect x="0" y="0" width="124.6875" height="26" rx="5" ry="5" stroke="none"/><text xml:space="preserve" x="5" y="17.45703125" stroke="none" text-anchor="left" font-family="sans-serif" font-size="16" font-weight="normal" fill="#000000">HAS_TRIGGER</text></g></g></g></g><g class="relationship"><g transform="translate(831.7594637903728 175.34601098301707) rotate(29.999999999999993)" stroke-width="5" stroke="#000000"><path d="M 59 0 L 294.4066374322008 0"/><polygon points="-24.8621506177483,0 -27.62461179749811,9.20820393249937 0,0 -27.62461179749811,-9.20820393249937" fill="#000000" transform="translate(319.2687880499491 0) rotate(0)" stroke="none"/></g><g transform="translate(984.789026731534 263.69767034106724) rotate(29.999999999999993) translate(0 -13)"><g transform="translate(0 0)"><g transform="translate(-104.875 0)" fill="#ffffff" stroke="#000000" stroke-width="0"><rect x="0" y="0" width="209.75" height="26" rx="5" ry="5" stroke="none"/><text xml:space="preserve" x="5" y="17.45703125" stroke="none" text-anchor="left" font-family="sans-serif" font-size="16" font-weight="normal" fill="#000000">HAS_EVENTASSIGNMENT</text></g></g></g></g><g class="relationship"><g transform="translate(831.7594637903728 175.34601098301707) rotate(68.93871831098443)" stroke-width="5" stroke="#000000"><path d="M 59 0 L 205.96762672323516 0"/><polygon points="-24.8621506177483,0 -27.62461179749811,9.20820393249937 0,0 -27.62461179749811,-9.20820393249937" fill="#000000" transform="translate(230.82977734098347 0) rotate(0)" stroke="none"/></g><g transform="translate(879.3696778212968 298.97945436613054) rotate(68.93871831098443) translate(0 -13)"><g transform="translate(0 0)"><g transform="translate(-51.54296875 0)" fill="#ffffff" stroke="#000000" stroke-width="0"><rect x="0" y="0" width="103.0859375" height="26" rx="5" ry="5" stroke="none"/><text xml:space="preserve" x="5" y="17.45703125" stroke="none" text-anchor="left" font-family="sans-serif" font-size="16" font-weight="normal" fill="#000000">HAS_DELAY</text></g></g></g></g><g class="relationship"><g transform="translate(520.1383841335534 175.34601098301712) rotate(45)" stroke-width="5" stroke="#000000"><path d="M 59 0 L 210.60073998771938 0"/><polygon points="-24.8621506177483,0 -27.62461179749811,9.20820393249937 0,0 -27.62461179749811,-9.20820393249937" fill="#000000" transform="translate(235.4628906054677 0) rotate(0)" stroke="none"/></g><g transform="translate(615.4566398626672 270.66426671213094) rotate(45) translate(0 -13)"><g transform="translate(0 0)"><g transform="translate(-75.09375 0)" fill="#ffffff" stroke="#000000" stroke-width="0"><rect x="0" y="0" width="150.1875" height="26" rx="5" ry="5" stroke="none"/><text xml:space="preserve" x="5" y="17.45703125" stroke="none" text-anchor="left" font-family="sans-serif" font-size="16" font-weight="normal" fill="#000000">HAS_PARAMETER</text></g></g></g></g><g class="relationship"><g transform="translate(728.3550908884721 383.5627177379358) rotate(180)" stroke-width="5" stroke="#000000"><path d="M 59 0 L 455.46637799006544 0"/><polygon points="-24.8621506177483,0 -27.62461179749811,9.20820393249937 0,0 -27.62461179749811,-9.20820393249937" fill="#000000" transform="translate(480.3285286078137 0) rotate(0)" stroke="none"/></g><g transform="translate(471.1219018934394 383.5627177379359) rotate(360) translate(0 -13)"><g transform="translate(0 0)"><g transform="translate(-49.8984375 0)" fill="#ffffff" stroke="#000000" stroke-width="0"><rect x="0" y="0" width="99.796875" height="26" rx="5" ry="5" stroke="none"/><text xml:space="preserve" x="5" y="17.45703125" stroke="none" text-anchor="left" font-family="sans-serif" font-size="16" font-weight="normal" fill="#000000">HAS_UNITS</text></g></g></g></g><g class="node"><g fill="#ffffff" stroke="#000000" stroke-width="4"><circle cx="189.0265622806584" cy="383.5627177379358" r="52"/></g><g transform="translate(189.0265622806584 383.5627177379358)"><g transform="scale(0.3031899383995126) translate(0 -27)"><g transform="translate(0 0)"><g transform="translate(-145.9453125 0)"><g fill="#ffffff" stroke="#000000" stroke-width="4"><rect x="0" y="0" width="291.890625" height="54" rx="27" ry="27"/><text xml:space="preserve" x="27" y="38.142578125" stroke="none" font-family="sans-serif" font-size="40" font-weight="normal" fill="#000000">UnitDefinition</text></g></g></g></g><g transform="translate(-56 -38.39999999999999)"><g transform="translate(0 0)"><g transform="translate(-79.1328125 0)" fill="white"><rect x="0" y="0" width="79.1328125" height="76.8" rx="0" ry="0" stroke="none"/><g font-family="sans-serif" font-size="16" font-weight="normal" fill="#000000" text-anchor="end"><text xml:space="preserve" x="70.2421875" y="14.05703125" stroke="none">id:</text><text xml:space="preserve" x="74.6875" y="14.05703125" stroke="none" text-anchor="start"></text><text xml:space="preserve" x="70.2421875" y="33.25703125" stroke="none" text-anchor="end">name:</text><text xml:space="preserve" x="74.6875" y="33.25703125" stroke="none" text-anchor="start"></text><text xml:space="preserve" x="70.2421875" y="52.45703125" stroke="none" text-anchor="end">metaid:</text><text xml:space="preserve" x="74.6875" y="52.45703125" stroke="none" text-anchor="start"></text><text xml:space="preserve" x="70.2421875" y="71.65703125" stroke="none" text-anchor="end">sboTerm:</text><text xml:space="preserve" x="74.6875" y="71.65703125" stroke="none" text-anchor="start"></text></g></g></g></g></g></g><g class="node"><g fill="#ffffff" stroke="#000000" stroke-width="4"><circle cx="831.7594637903728" cy="-4" r="52"/></g><g transform="translate(831.7594637903728 -4)"><g transform="scale(0.29881955756447626) translate(0 -27)"><g transform="translate(0 0)"><g transform="translate(-148.15234375 0)"><g fill="#ffffff" stroke="#000000" stroke-width="4"><rect x="0" y="0" width="296.3046875" height="54" rx="27" ry="27"/><text xml:space="preserve" x="27" y="38.142578125" stroke="none" font-family="sans-serif" font-size="40" font-weight="normal" fill="#000000">Compartment</text></g></g></g></g><g transform="translate(56 -48)"><g transform="translate(0 0)"><g transform="translate(0 0)" fill="white"><rect x="0" y="0" width="147.6171875" height="96" rx="0" ry="0" stroke="none"/><g font-family="sans-serif" font-size="16" font-weight="normal" fill="#000000" text-anchor="end"><text xml:space="preserve" x="138.7265625" y="14.05703125" stroke="none">id:</text><text xml:space="preserve" x="143.171875" y="14.05703125" stroke="none" text-anchor="start"></text><text xml:space="preserve" x="138.7265625" y="33.25703125" stroke="none" text-anchor="end">name:</text><text xml:space="preserve" x="143.171875" y="33.25703125" stroke="none" text-anchor="start"></text><text xml:space="preserve" x="138.7265625" y="52.45703125" stroke="none" text-anchor="end">spatialDimensions:</text><text xml:space="preserve" x="143.171875" y="52.45703125" stroke="none" text-anchor="start"></text><text xml:space="preserve" x="138.7265625" y="71.65703125" stroke="none" text-anchor="end">size:</text><text xml:space="preserve" x="143.171875" y="71.65703125" stroke="none" text-anchor="start"></text><text xml:space="preserve" x="138.7265625" y="90.85703124999999" stroke="none" text-anchor="end">constant:</text><text xml:space="preserve" x="143.171875" y="90.85703124999999" stroke="none" text-anchor="start"></text></g></g></g></g></g></g><g class="node"><g fill="#ffffff" stroke="#000000" stroke-width="4"><circle cx="520.1383841335534" cy="175.34601098301712" r="52"/></g><g transform="translate(520.1383841335534 175.34601098301712)"><g transform="scale(0.5242920341306497) translate(0 -27)"><g transform="translate(0 0)"><g transform="translate(-81.47265625 0)"><g fill="#ffffff" stroke="#000000" stroke-width="4"><rect x="0" y="0" width="162.9453125" height="54" rx="27" ry="27"/><text xml:space="preserve" x="27" y="38.142578125" stroke="none" font-family="sans-serif" font-size="40" font-weight="normal" fill="#000000">Model</text></g></g></g></g><g transform="translate(3.429011037612589e-15 -132.8)"><g transform="translate(0 0)"><g transform="translate(-39.56640625 0)" fill="white"><rect x="0" y="0" width="79.1328125" height="76.8" rx="0" ry="0" stroke="none"/><g font-family="sans-serif" font-size="16" font-weight="normal" fill="#000000" text-anchor="end"><text xml:space="preserve" x="70.2421875" y="14.05703125" stroke="none">id:</text><text xml:space="preserve" x="74.6875" y="14.05703125" stroke="none" text-anchor="start"></text><text xml:space="preserve" x="70.2421875" y="33.25703125" stroke="none" text-anchor="end">name:</text><text xml:space="preserve" x="74.6875" y="33.25703125" stroke="none" text-anchor="start"></text><text xml:space="preserve" x="70.2421875" y="52.45703125" stroke="none" text-anchor="end">metaid:</text><text xml:space="preserve" x="74.6875" y="52.45703125" stroke="none" text-anchor="start"></text><text xml:space="preserve" x="70.2421875" y="71.65703125" stroke="none" text-anchor="end">sboTerm:</text><text xml:space="preserve" x="74.6875" y="71.65703125" stroke="none" text-anchor="start"></text></g></g></g></g></g></g><g class="node"><g fill="#ffffff" stroke="#000000" stroke-width="4"><circle cx="520.1383841335534" cy="508.202798803086" r="52"/></g><g transform="translate(520.1383841335534 508.202798803086)"><g transform="scale(0.6603698060836495) translate(0 -27)"><g transform="translate(0 0)"><g transform="translate(-62.56640625 0)"><g fill="#ffffff" stroke="#000000" stroke-width="4"><rect x="0" y="0" width="125.1328125" height="54" rx="27" ry="27"/><text xml:space="preserve" x="27" y="38.142578125" stroke="none" font-family="sans-serif" font-size="40" font-weight="normal" fill="#000000">Unit</text></g></g></g></g><g transform="translate(56 -48)"><g transform="translate(0 0)"><g transform="translate(0 0)" fill="white"><rect x="0" y="0" width="83.6171875" height="96" rx="0" ry="0" stroke="none"/><g font-family="sans-serif" font-size="16" font-weight="normal" fill="#000000" text-anchor="end"><text xml:space="preserve" x="74.7265625" y="14.05703125" stroke="none">id:</text><text xml:space="preserve" x="79.171875" y="14.05703125" stroke="none" text-anchor="start"></text><text xml:space="preserve" x="74.7265625" y="33.25703125" stroke="none" text-anchor="end">name:</text><text xml:space="preserve" x="79.171875" y="33.25703125" stroke="none" text-anchor="start"></text><text xml:space="preserve" x="74.7265625" y="52.45703125" stroke="none" text-anchor="end">exponent:</text><text xml:space="preserve" x="79.171875" y="52.45703125" stroke="none" text-anchor="start"></text><text xml:space="preserve" x="74.7265625" y="71.65703125" stroke="none" text-anchor="end">scale:</text><text xml:space="preserve" x="79.171875" y="71.65703125" stroke="none" text-anchor="start"></text><text xml:space="preserve" x="74.7265625" y="90.85703124999999" stroke="none" text-anchor="end">multiplier:</text><text xml:space="preserve" x="79.171875" y="90.85703124999999" stroke="none" text-anchor="start"></text></g></g></g></g></g></g><g class="node"><g fill="#ffffff" stroke="#000000" stroke-width="4"><circle cx="129" cy="-4" r="52"/></g><g transform="translate(129 -4)"><g transform="scale(0.4420508449855404) translate(0 -27)"><g transform="translate(0 0)"><g transform="translate(-98.15234375 0)"><g fill="#ffffff" stroke="#000000" stroke-width="4"><rect x="0" y="0" width="196.3046875" height="54" rx="27" ry="27"/><text xml:space="preserve" x="27" y="38.142578125" stroke="none" font-family="sans-serif" font-size="40" font-weight="normal" fill="#000000">Species</text></g></g></g></g><g transform="translate(-56 -19.199999999999992)"><g transform="translate(0 0)"><g transform="translate(-109.3828125 0)" fill="white"><rect x="0" y="0" width="109.3828125" height="38.4" rx="0" ry="0" stroke="none"/><g font-family="sans-serif" font-size="16" font-weight="normal" fill="#000000" text-anchor="end"><text xml:space="preserve" x="100.4921875" y="14.05703125" stroke="none">initialAmount:</text><text xml:space="preserve" x="104.9375" y="14.05703125" stroke="none" text-anchor="start"></text><text xml:space="preserve" x="100.4921875" y="33.25703125" stroke="none" text-anchor="end">id:</text><text xml:space="preserve" x="104.9375" y="33.25703125" stroke="none" text-anchor="start"></text></g></g></g></g></g></g><g class="node"><g fill="#ffffff" stroke="#000000" stroke-width="4"><circle cx="129" cy="175.34601098301712" r="52"/></g><g transform="translate(129 175.34601098301712)"><g transform="scale(0.2575494096555555) translate(0 -27)"><g transform="translate(0 0)"><g transform="translate(-172.625 0)"><g fill="#ffffff" stroke="#000000" stroke-width="4"><rect x="0" y="0" width="345.25" height="54" rx="27" ry="27"/><text xml:space="preserve" x="27" y="38.142578125" stroke="none" font-family="sans-serif" font-size="40" font-weight="normal" fill="#000000">AssignmentRule</text></g></g></g></g><g transform="translate(-56 -19.199999999999992)"><g transform="translate(0 0)"><g transform="translate(-73.8125 0)" fill="white"><rect x="0" y="0" width="73.8125" height="38.4" rx="0" ry="0" stroke="none"/><g font-family="sans-serif" font-size="16" font-weight="normal" fill="#000000" text-anchor="end"><text xml:space="preserve" x="64.921875" y="14.05703125" stroke="none">variable:</text><text xml:space="preserve" x="69.3671875" y="14.05703125" stroke="none" text-anchor="start"></text><text xml:space="preserve" x="64.921875" y="33.25703125" stroke="none" text-anchor="end">math:</text><text xml:space="preserve" x="69.3671875" y="33.25703125" stroke="none" text-anchor="start"></text></g></g></g></g></g></g><g class="node"><g fill="#ffffff" stroke="#000000" stroke-width="4"><circle cx="831.7594637903728" cy="175.34601098301707" r="52"/></g><g transform="translate(831.7594637903728 175.34601098301707)"><g transform="scale(0.544295713815769) translate(0 -27)"><g transform="translate(0 0)"><g transform="translate(-78.142578125 0)"><g fill="#ffffff" stroke="#000000" stroke-width="4"><rect x="0" y="0" width="156.28515625" height="54" rx="27" ry="27"/><text xml:space="preserve" x="27" y="38.142578125" stroke="none" font-family="sans-serif" font-size="40" font-weight="normal" fill="#000000">Event</text></g></g></g></g><g transform="translate(3.429011037612589e-15 -75.2)"><g transform="translate(0 0)"><g transform="translate(-106.85546875 0)" fill="white"><rect x="0" y="0" width="213.7109375" height="19.2" rx="0" ry="0" stroke="none"/><g font-family="sans-serif" font-size="16" font-weight="normal" fill="#000000" text-anchor="end"><text xml:space="preserve" x="204.8203125" y="14.05703125" stroke="none">useValuesFromTriggerTime:</text><text xml:space="preserve" x="209.265625" y="14.05703125" stroke="none" text-anchor="start"></text></g></g></g></g></g></g><g class="node"><g fill="#ffffff" stroke="#000000" stroke-width="4"><circle cx="1159.3498437003802" cy="175.34601098301712" r="52"/></g><g transform="translate(1159.3498437003802 175.34601098301712)"><g transform="scale(0.4807889793551111) translate(0 -27)"><g transform="translate(0 0)"><g transform="translate(-89.6171875 0)"><g fill="#ffffff" stroke="#000000" stroke-width="4"><rect x="0" y="0" width="179.234375" height="54" rx="27" ry="27"/><text xml:space="preserve" x="27" y="38.142578125" stroke="none" font-family="sans-serif" font-size="40" font-weight="normal" fill="#000000">Trigger</text></g></g></g></g><g transform="translate(56 -28.799999999999997)"><g transform="translate(0 0)"><g transform="translate(0 0)" fill="white"><rect x="0" y="0" width="93.984375" height="57.599999999999994" rx="0" ry="0" stroke="none"/><g font-family="sans-serif" font-size="16" font-weight="normal" fill="#000000" text-anchor="end"><text xml:space="preserve" x="85.09375" y="14.05703125" stroke="none">persistent:</text><text xml:space="preserve" x="89.5390625" y="14.05703125" stroke="none" text-anchor="start"></text><text xml:space="preserve" x="85.09375" y="33.25703125" stroke="none" text-anchor="end">initialValue:</text><text xml:space="preserve" x="89.5390625" y="33.25703125" stroke="none" text-anchor="start"></text><text xml:space="preserve" x="85.09375" y="52.45703125" stroke="none" text-anchor="end">math:</text><text xml:space="preserve" x="89.5390625" y="52.45703125" stroke="none" text-anchor="start"></text></g></g></g></g></g></g><g class="node"><g fill="#ffffff" stroke="#000000" stroke-width="4"><circle cx="1159.3498437003802" cy="364.4804050079915" r="52"/></g><g transform="translate(1159.3498437003802 364.4804050079915)"><g transform="scale(0.24374421670984706) translate(0 -27)"><g transform="translate(0 0)"><g transform="translate(-182.634765625 0)"><g fill="#ffffff" stroke="#000000" stroke-width="4"><rect x="0" y="0" width="365.26953125" height="54" rx="27" ry="27"/><text xml:space="preserve" x="27" y="38.142578125" stroke="none" font-family="sans-serif" font-size="40" font-weight="normal" fill="#000000">EventAssignment</text></g></g></g></g><g transform="translate(39.59797974644666 39.597979746446654)"><g transform="translate(0 0)"><g transform="translate(0 0)" fill="white"><rect x="0" y="0" width="89.8203125" height="57.599999999999994" rx="0" ry="0" stroke="none"/><g font-family="sans-serif" font-size="16" font-weight="normal" fill="#000000" text-anchor="end"><text xml:space="preserve" x="80.9296875" y="14.05703125" stroke="none">id:</text><text xml:space="preserve" x="85.375" y="14.05703125" stroke="none" text-anchor="start"></text><text xml:space="preserve" x="80.9296875" y="33.25703125" stroke="none" text-anchor="end">math:</text><text xml:space="preserve" x="85.375" y="33.25703125" stroke="none" text-anchor="start"></text><text xml:space="preserve" x="80.9296875" y="52.45703125" stroke="none" text-anchor="end">idAttribute:</text><text xml:space="preserve" x="85.375" y="52.45703125" stroke="none" text-anchor="start"></text></g></g></g></g></g></g><g class="node"><g fill="#ffffff" stroke="#000000" stroke-width="4"><circle cx="935.9145102191391" cy="445.8141720241008" r="52"/></g><g transform="translate(935.9145102191391 445.8141720241008)"><g transform="scale(0.544356487153433) translate(0 -27)"><g transform="translate(0 0)"><g transform="translate(-78.1328125 0)"><g fill="#ffffff" stroke="#000000" stroke-width="4"><rect x="0" y="0" width="156.265625" height="54" rx="27" ry="27"/><text xml:space="preserve" x="27" y="38.142578125" stroke="none" font-family="sans-serif" font-size="40" font-weight="normal" fill="#000000">Delay</text></g></g></g></g><g transform="translate(3.429011037612589e-15 56)"><g transform="translate(0 0)"><g transform="translate(-26.67578125 0)" fill="white"><rect x="0" y="0" width="53.3515625" height="38.4" rx="0" ry="0" stroke="none"/><g font-family="sans-serif" font-size="16" font-weight="normal" fill="#000000" text-anchor="end"><text xml:space="preserve" x="44.4609375" y="14.05703125" stroke="none">id:</text><text xml:space="preserve" x="48.90625" y="14.05703125" stroke="none" text-anchor="start"></text><text xml:space="preserve" x="44.4609375" y="33.25703125" stroke="none" text-anchor="end">math:</text><text xml:space="preserve" x="48.90625" y="33.25703125" stroke="none" text-anchor="start"></text></g></g></g></g></g></g><g class="node"><g fill="#ffffff" stroke="#000000" stroke-width="4"><circle cx="728.3550908884721" cy="383.5627177379358" r="52"/></g><g transform="translate(728.3550908884721 383.5627177379358)"><g transform="scale(0.3647855078236079) translate(0 -27)"><g transform="translate(0 0)"><g transform="translate(-120.369140625 0)"><g fill="#ffffff" stroke="#000000" stroke-width="4"><rect x="0" y="0" width="240.73828125" height="54" rx="27" ry="27"/><text xml:space="preserve" x="27" y="38.142578125" stroke="none" font-family="sans-serif" font-size="40" font-weight="normal" fill="#000000">Parameter</text></g></g></g></g><g transform="translate(56 -28.799999999999997)"><g transform="translate(0 0)"><g transform="translate(0 0)" fill="white"><rect x="0" y="0" width="78.265625" height="57.599999999999994" rx="0" ry="0" stroke="none"/><g font-family="sans-serif" font-size="16" font-weight="normal" fill="#000000" text-anchor="end"><text xml:space="preserve" x="69.375" y="14.05703125" stroke="none">id:</text><text xml:space="preserve" x="73.8203125" y="14.05703125" stroke="none" text-anchor="start"></text><text xml:space="preserve" x="69.375" y="33.25703125" stroke="none" text-anchor="end">value:</text><text xml:space="preserve" x="73.8203125" y="33.25703125" stroke="none" text-anchor="start"></text><text xml:space="preserve" x="69.375" y="52.45703125" stroke="none" text-anchor="end">constant:</text><text xml:space="preserve" x="73.8203125" y="52.45703125" stroke="none" text-anchor="start"></text></g></g></g></g></g></g></g></svg>