<svg xmlns="http://www.w3.org/2000/svg" width="1340" height="776" viewBox="0 0 1340 776"><defs><style type="text/css"/></defs><g transform="translate(-1.8671875 177.99797974644667) scale(1)"><g class="relationship"><g transform="translate(865.6671920879401 254.8489125186777) rotate(-55.5869231178609)" stroke-width="5" stroke="#000000"><path d="M 59 0 L 229.89998983326703 0"/><polygon points="-24.8621506177483,0 -27.62461179749811,9.20820393249937 0,0 -27.62461179749811,-9.20820393249937" fill="#000000" transform="translate(254.76214045101534 0) rotate(0)" stroke="none"/></g><g transform="translate(947.3038734842912 135.67990110209297) rotate(-55.5869231178609) translate(0 -13)"><g transform="translate(0 0)"><g transform="translate(-87.83203125 0)" fill="#ffffff" stroke="#000000" stroke-width="0"><rect x="0" y="0" width="175.6640625" height="26" rx="5" ry="5" stroke="none"/><text xml:space="preserve" x="5" y="17.45703125" stroke="none" text-anchor="left" font-family="sans-serif" font-size="16" font-weight="normal" fill="#000000">HAS_COMPARTMENT</text></g></g></g></g><g class="relationship"><g transform="translate(1083.692604911498 480.6497833705062) rotate(-59.16803011289054)" stroke-width="5" stroke="#000000"><path d="M 59 0 L 179.10243983364455 0"/><polygon points="-24.8621506177483,0 -27.62461179749811,9.20820393249937 0,0 -27.62461179749811,-9.20820393249937" fill="#000000" transform="translate(203.96459045139284 0) rotate(0)" stroke="none"/></g><g transform="translate(1144.708982269743 378.42358977141043) rotate(-59.16803011289054) translate(0 -13)"><g transform="translate(0 0)"><g transform="translate(-63.6796875 0)" fill="#ffffff" stroke="#000000" stroke-width="0"><rect x="0" y="0" width="127.359375" height="26" rx="5" ry="5" stroke="none"/><text xml:space="preserve" x="5" y="17.45703125" stroke="none" text-anchor="left" font-family="sans-serif" font-size="16" font-weight="normal" fill="#000000">IS_COMPOSED</text></g></g></g></g><g class="relationship"><g transform="translate(865.6671920879401 254.8489125186777) rotate(46.003670525573945)" stroke-width="5" stroke="#000000"><path d="M 59 0 L 230.01858137185147 0"/><polygon points="-24.8621506177483,0 -27.62461179749811,9.20820393249937 0,0 -27.62461179749811,-9.20820393249937" fill="#000000" transform="translate(254.88073198959978 0) rotate(0)" stroke="none"/></g><g transform="translate(966.0451208602052 358.80662752790374) rotate(46.003670525573945) translate(0 -13)"><g transform="translate(0 0)"><g transform="translate(-89.89453125 0)" fill="#ffffff" stroke="#000000" stroke-width="0"><rect x="0" y="0" width="179.7890625" height="26" rx="5" ry="5" stroke="none"/><text xml:space="preserve" x="5" y="17.45703125" stroke="none" text-anchor="left" font-family="sans-serif" font-size="16" font-weight="normal" fill="#000000">HAS_UNITDEFINITION</text></g></g></g></g><g class="relationship"><g transform="translate(865.6671920879401 254.8489125186777) rotate(-124.4130768821391)" stroke-width="5" stroke="#000000"><path d="M 59 0 L 229.89998983326703 0"/><polygon points="-24.8621506177483,0 -27.62461179749811,9.20820393249937 0,0 -27.62461179749811,-9.20820393249937" fill="#000000" transform="translate(254.76214045101534 0) rotate(0)" stroke="none"/></g><g transform="translate(784.0305106915889 135.67990110209297) rotate(55.5869231178609) translate(0 -13)"><g transform="translate(0 0)"><g transform="translate(-60.578125 0)" fill="#ffffff" stroke="#000000" stroke-width="0"><rect x="0" y="0" width="121.15625" height="26" rx="5" ry="5" stroke="none"/><text xml:space="preserve" x="5" y="17.45703125" stroke="none" text-anchor="left" font-family="sans-serif" font-size="16" font-weight="normal" fill="#000000">HAS_SPECIES</text></g></g></g></g><g class="relationship"><g transform="translate(688.342852900392 -4) rotate(0)" stroke-width="5" stroke="#000000"><path d="M 59 0 L 270.7865277573478 0"/><polygon points="-24.8621506177483,0 -27.62461179749811,9.20820393249937 0,0 -27.62461179749811,-9.20820393249937" fill="#000000" transform="translate(295.6486783750961 0) rotate(0)" stroke="none"/></g><g transform="translate(853.2361167790659 -4) rotate(0) translate(0 -13)"><g transform="translate(0 0)"><g transform="translate(-79.3828125 0)" fill="#ffffff" stroke="#000000" stroke-width="0"><rect x="0" y="0" width="158.765625" height="26" rx="5" ry="5" stroke="none"/><text xml:space="preserve" x="5" y="17.45703125" stroke="none" text-anchor="left" font-family="sans-serif" font-size="16" font-weight="normal" fill="#000000">IN_COMPARTMENT</text></g></g></g></g><g class="relationship"><g transform="translate(865.6671920879401 254.8489125186777) rotate(180)" stroke-width="5" stroke="#000000"><path d="M 59 0 L 352.31110108847747 0"/><polygon points="-24.8621506177483,0 -27.62461179749811,9.20820393249937 0,0 -27.62461179749811,-9.20820393249937" fill="#000000" transform="translate(377.17325170622576 0) rotate(0)" stroke="none"/></g><g transform="translate(660.0116415437013 254.84891251867774) rotate(360) translate(0 -13)"><g transform="translate(0 0)"><g transform="translate(-67.234375 0)" fill="#ffffff" stroke="#000000" stroke-width="0"><rect x="0" y="0" width="134.46875" height="26" rx="5" ry="5" stroke="none"/><text xml:space="preserve" x="5" y="17.45703125" stroke="none" text-anchor="left" font-family="sans-serif" font-size="16" font-weight="normal" fill="#000000">HAS_REACTION</text></g></g></g></g><g class="relationship"><g transform="translate(429.4939403817143 254.84891251867776) rotate(180)" stroke-width="5" stroke="#000000"><path d="M 59 0 L 216.631789763966 0"/><polygon points="-24.8621506177483,0 -27.62461179749811,9.20820393249937 0,0 -27.62461179749811,-9.20820393249937" fill="#000000" transform="translate(241.4939403817143 0) rotate(0)" stroke="none"/></g><g transform="translate(291.6780454997313 254.8489125186778) rotate(360) translate(0 -13)"><g transform="translate(0 0)"><g transform="translate(-77.61328125 0)" fill="#ffffff" stroke="#000000" stroke-width="0"><rect x="0" y="0" width="155.2265625" height="26" rx="5" ry="5" stroke="none"/><text xml:space="preserve" x="5" y="17.45703125" stroke="none" text-anchor="left" font-family="sans-serif" font-size="16" font-weight="normal" fill="#000000">HAS_KENETICLAW</text></g></g></g></g><g class="relationship"><g transform="translate(429.4939403817143 254.84891251867776) rotate(38.08488610730991)" stroke-width="5" stroke="#000000"><path d="M 59 0 L 282.20549207169245 0"/><polygon points="-24.8621506177483,0 -27.62461179749811,9.20820393249937 0,0 -27.62461179749811,-9.20820393249937" fill="#000000" transform="translate(307.0676426894408 0) rotate(0)" stroke="none"/></g><g transform="translate(563.7749797626766 360.08150926388737) rotate(38.08488610730991) translate(0 -13)"><g transform="translate(0 0)"><g transform="translate(-101.328125 0)" fill="#ffffff" stroke="#000000" stroke-width="0"><rect x="0" y="0" width="202.65625" height="26" rx="5" ry="5" stroke="none"/><text xml:space="preserve" x="5" y="17.45703125" stroke="none" text-anchor="left" font-family="sans-serif" font-size="16" font-weight="normal" fill="#000000">HAS_LOCALPARAMETER</text></g></g></g></g><g class="relationship"><g transform="translate(688.342852900392 -4) rotate(135)" stroke-width="5" stroke="#000000"><path d="M 58.695178092152055 -5.989663490593891 L 95.96898050729243 -9.793341079425122 A 40 40 0 0 1 100.02976931447472 -10 L 183.03382134472045 -10 L 266.0378733749662 -10 A 40 40 0 0 1 270.09866218214853 -9.79334107942512 L 282.6387636097864 -8.51366206436971 L 282.6387636097864 -8.51366206436971"/><polygon points="-24.8621506177483,0 -27.62461179749811,9.20820393249937 0,0 -27.62461179749811,-9.20820393249937" fill="#000000" transform="translate(366.0676426894409 0) rotate(5.826689442008371) translate(-59 0)" stroke="none"/></g><g transform="translate(565.9894644529186 132.49552407120436) rotate(315) translate(0 -13)"><g transform="translate(0 0)"><g transform="translate(-59.53125 0)" fill="#ffffff" stroke="#000000" stroke-width="0"><rect x="0" y="0" width="119.0625" height="26" rx="5" ry="5" stroke="none"/><text xml:space="preserve" x="5" y="17.45703125" stroke="none" text-anchor="left" font-family="sans-serif" font-size="16" font-weight="normal" fill="#000000">IS_REACTANT</text></g></g></g></g><g class="relationship"><g transform="translate(429.4939403817143 254.84891251867776) rotate(-45.00000000000001)" stroke-width="5" stroke="#000000"><path d="M 58.695178092152055 -5.989663490593891 L 95.96898050729243 -9.793341079425122 A 40 40 0 0 1 100.02976931447472 -10 L 183.03382134472045 -10 L 266.0378733749662 -10 A 40 40 0 0 1 270.09866218214853 -9.79334107942512 L 282.6387636097864 -8.51366206436971 L 282.6387636097864 -8.51366206436971"/><polygon points="-24.8621506177483,0 -27.62461179749811,9.20820393249937 0,0 -27.62461179749811,-9.20820393249937" fill="#000000" transform="translate(366.0676426894409 0) rotate(5.826689442008371) translate(-59 0)" stroke="none"/></g><g transform="translate(551.8473288291877 118.3533884474734) rotate(-45.00000000000001) translate(0 -13)"><g transform="translate(0 0)"><g transform="translate(-65.453125 0)" fill="#ffffff" stroke="#000000" stroke-width="0"><rect x="0" y="0" width="130.90625" height="26" rx="5" ry="5" stroke="none"/><text xml:space="preserve" x="5" y="17.45703125" stroke="none" text-anchor="left" font-family="sans-serif" font-size="16" font-weight="normal" fill="#000000">HAS_PRODUCT</text></g></g></g></g><g class="relationship"><g transform="translate(717.6249622220569 480.6497833705062) rotate(0)" stroke-width="5" stroke="#000000"><path d="M 59 0 L 282.2054920716928 0"/><polygon points="-24.8621506177483,0 -27.62461179749811,9.20820393249937 0,0 -27.62461179749811,-9.20820393249937" fill="#000000" transform="translate(307.0676426894411 0) rotate(0)" stroke="none"/></g><g transform="translate(888.2277082579033 480.6497833705062) rotate(0) translate(0 -13)"><g transform="translate(0 0)"><g transform="translate(-49.8984375 0)" fill="#ffffff" stroke="#000000" stroke-width="0"><rect x="0" y="0" width="99.796875" height="26" rx="5" ry="5" stroke="none"/><text xml:space="preserve" x="5" y="17.45703125" stroke="none" text-anchor="left" font-family="sans-serif" font-size="16" font-weight="normal" fill="#000000">HAS_UNITS</text></g></g></g></g><g class="node"><g fill="#ffffff" stroke="#000000" stroke-width="4"><circle cx="1083.692604911498" cy="480.6497833705062" r="52"/></g><g transform="translate(1083.692604911498 480.6497833705062)"><g transform="scale(0.3031899383995126) translate(0 -27)"><g transform="translate(0 0)"><g transform="translate(-145.9453125 0)"><g fill="#ffffff" stroke="#000000" stroke-width="4"><rect x="0" y="0" width="291.890625" height="54" rx="27" ry="27"/><text xml:space="preserve" x="27" y="38.142578125" stroke="none" font-family="sans-serif" font-size="40" font-weight="normal" fill="#000000">UnitDefinition</text></g></g></g></g><g transform="translate(39.59797974644666 39.597979746446654)"><g transform="translate(0 0)"><g transform="translate(0 0)" fill="white"><rect x="0" y="0" width="79.1328125" height="76.8" rx="0" ry="0" stroke="none"/><g font-family="sans-serif" font-size="16" font-weight="normal" fill="#000000" text-anchor="end"><text xml:space="preserve" x="70.2421875" y="14.05703125" stroke="none">id:</text><text xml:space="preserve" x="74.6875" y="14.05703125" stroke="none" text-anchor="start"></text><text xml:space="preserve" x="70.2421875" y="33.25703125" stroke="none" text-anchor="end">name:</text><text xml:space="preserve" x="74.6875" y="33.25703125" stroke="none" text-anchor="start"></text><text xml:space="preserve" x="70.2421875" y="52.45703125" stroke="none" text-anchor="end">metaid:</text><text xml:space="preserve" x="74.6875" y="52.45703125" stroke="none" text-anchor="start"></text><text xml:space="preserve" x="70.2421875" y="71.65703125" stroke="none" text-anchor="end">sboTerm:</text><text xml:space="preserve" x="74.6875" y="71.65703125" stroke="none" text-anchor="start"></text></g></g></g></g></g></g><g class="node"><g fill="#ffffff" stroke="#000000" stroke-width="4"><circle cx="1042.9915312754881" cy="-4" r="52"/></g><g transform="translate(1042.9915312754881 -4)"><g transform="scale(0.29881955756447626) translate(0 -27)"><g transform="translate(0 0)"><g transform="translate(-148.15234375 0)"><g fill="#ffffff" stroke="#000000" stroke-width="4"><rect x="0" y="0" width="296.3046875" height="54" rx="27" ry="27"/><text xml:space="preserve" x="27" y="38.142578125" stroke="none" font-family="sans-serif" font-size="40" font-weight="normal" fill="#000000">Compartment</text></g></g></g></g><g transform="translate(39.59797974644666 -173.99797974644667)"><g transform="translate(0 0)"><g transform="translate(0 0)" fill="white"><rect x="0" y="0" width="147.6171875" height="134.4" rx="0" ry="0" stroke="none"/><g font-family="sans-serif" font-size="16" font-weight="normal" fill="#000000" text-anchor="end"><text xml:space="preserve" x="138.7265625" y="14.05703125" stroke="none">id:</text><text xml:space="preserve" x="143.171875" y="14.05703125" stroke="none" text-anchor="start"></text><text xml:space="preserve" x="138.7265625" y="33.25703125" stroke="none" text-anchor="end">name:</text><text xml:space="preserve" x="143.171875" y="33.25703125" stroke="none" text-anchor="start"></text><text xml:space="preserve" x="138.7265625" y="52.45703125" stroke="none" text-anchor="end">metaid:</text><text xml:space="preserve" x="143.171875" y="52.45703125" stroke="none" text-anchor="start"></text><text xml:space="preserve" x="138.7265625" y="71.65703125" stroke="none" text-anchor="end">sboTerm:</text><text xml:space="preserve" x="143.171875" y="71.65703125" stroke="none" text-anchor="start"></text><text xml:space="preserve" x="138.7265625" y="90.85703124999999" stroke="none" text-anchor="end">spatialDimensions:</text><text xml:space="preserve" x="143.171875" y="90.85703124999999" stroke="none" text-anchor="start"></text><text xml:space="preserve" x="138.7265625" y="110.05703125" stroke="none" text-anchor="end">size:</text><text xml:space="preserve" x="143.171875" y="110.05703125" stroke="none" text-anchor="start"></text><text xml:space="preserve" x="138.7265625" y="129.25703125" stroke="none" text-anchor="end">constant:</text><text xml:space="preserve" x="143.171875" y="129.25703125" stroke="none" text-anchor="start"></text></g></g></g></g></g></g><g class="node"><g fill="#ffffff" stroke="#000000" stroke-width="4"><circle cx="865.6671920879401" cy="254.8489125186777" r="52"/></g><g transform="translate(865.6671920879401 254.8489125186777)"><g transform="scale(0.5242920341306497) translate(0 -27)"><g transform="translate(0 0)"><g transform="translate(-81.47265625 0)"><g fill="#ffffff" stroke="#000000" stroke-width="4"><rect x="0" y="0" width="162.9453125" height="54" rx="27" ry="27"/><text xml:space="preserve" x="27" y="38.142578125" stroke="none" font-family="sans-serif" font-size="40" font-weight="normal" fill="#000000">Model</text></g></g></g></g><g transform="translate(56 -38.4)"><g transform="translate(0 0)"><g transform="translate(0 0)" fill="white"><rect x="0" y="0" width="79.1328125" height="76.8" rx="0" ry="0" stroke="none"/><g font-family="sans-serif" font-size="16" font-weight="normal" fill="#000000" text-anchor="end"><text xml:space="preserve" x="70.2421875" y="14.05703125" stroke="none">id:</text><text xml:space="preserve" x="74.6875" y="14.05703125" stroke="none" text-anchor="start"></text><text xml:space="preserve" x="70.2421875" y="33.25703125" stroke="none" text-anchor="end">name:</text><text xml:space="preserve" x="74.6875" y="33.25703125" stroke="none" text-anchor="start"></text><text xml:space="preserve" x="70.2421875" y="52.45703125" stroke="none" text-anchor="end">metaid:</text><text xml:space="preserve" x="74.6875" y="52.45703125" stroke="none" text-anchor="start"></text><text xml:space="preserve" x="70.2421875" y="71.65703125" stroke="none" text-anchor="end">sboTerm:</text><text xml:space="preserve" x="74.6875" y="71.65703125" stroke="none" text-anchor="start"></text></g></g></g></g></g></g><g class="node"><g fill="#ffffff" stroke="#000000" stroke-width="4"><circle cx="1218.4677604626033" cy="254.84891251867776" r="52"/></g><g transform="translate(1218.4677604626033 254.84891251867776)"><g transform="scale(0.6603698060836495) translate(0 -27)"><g transform="translate(0 0)"><g transform="translate(-62.56640625 0)"><g fill="#ffffff" stroke="#000000" stroke-width="4"><rect x="0" y="0" width="125.1328125" height="54" rx="27" ry="27"/><text xml:space="preserve" x="27" y="38.142578125" stroke="none" font-family="sans-serif" font-size="40" font-weight="normal" fill="#000000">Unit</text></g></g></g></g><g transform="translate(39.59797974644666 -193.19797974644666)"><g transform="translate(0 0)"><g transform="translate(0 0)" fill="white"><rect x="0" y="0" width="83.6171875" height="153.6" rx="0" ry="0" stroke="none"/><g font-family="sans-serif" font-size="16" font-weight="normal" fill="#000000" text-anchor="end"><text xml:space="preserve" x="74.7265625" y="14.05703125" stroke="none">id:</text><text xml:space="preserve" x="79.171875" y="14.05703125" stroke="none" text-anchor="start"></text><text xml:space="preserve" x="74.7265625" y="33.25703125" stroke="none" text-anchor="end">name:</text><text xml:space="preserve" x="79.171875" y="33.25703125" stroke="none" text-anchor="start"></text><text xml:space="preserve" x="74.7265625" y="52.45703125" stroke="none" text-anchor="end">metaid:</text><text xml:space="preserve" x="79.171875" y="52.45703125" stroke="none" text-anchor="start"></text><text xml:space="preserve" x="74.7265625" y="71.65703125" stroke="none" text-anchor="end">sboTerm:</text><text xml:space="preserve" x="79.171875" y="71.65703125" stroke="none" text-anchor="start"></text><text xml:space="preserve" x="74.7265625" y="90.85703124999999" stroke="none" text-anchor="end">kind:</text><text xml:space="preserve" x="79.171875" y="90.85703124999999" stroke="none" text-anchor="start"></text><text xml:space="preserve" x="74.7265625" y="110.05703125" stroke="none" text-anchor="end">exponent:</text><text xml:space="preserve" x="79.171875" y="110.05703125" stroke="none" text-anchor="start"></text><text xml:space="preserve" x="74.7265625" y="129.25703125" stroke="none" text-anchor="end">scale:</text><text xml:space="preserve" x="79.171875" y="129.25703125" stroke="none" text-anchor="start"></text><text xml:space="preserve" x="74.7265625" y="148.45703125" stroke="none" text-anchor="end">multiplier:</text><text xml:space="preserve" x="79.171875" y="148.45703125" stroke="none" text-anchor="start"></text></g></g></g></g></g></g><g class="node"><g fill="#ffffff" stroke="#000000" stroke-width="4"><circle cx="688.342852900392" cy="-4" r="52"/></g><g transform="translate(688.342852900392 -4)"><g transform="scale(0.4420508449855404) translate(0 -27)"><g transform="translate(0 0)"><g transform="translate(-98.15234375 0)"><g fill="#ffffff" stroke="#000000" stroke-width="4"><rect x="0" y="0" width="196.3046875" height="54" rx="27" ry="27"/><text xml:space="preserve" x="27" y="38.142578125" stroke="none" font-family="sans-serif" font-size="40" font-weight="normal" fill="#000000">Species</text></g></g></g></g><g transform="translate(-39.597979746446654 -77.99797974644666)"><g transform="translate(0 0)"><g transform="translate(-109.3828125 0)" fill="white"><rect x="0" y="0" width="109.3828125" height="38.4" rx="0" ry="0" stroke="none"/><g font-family="sans-serif" font-size="16" font-weight="normal" fill="#000000" text-anchor="end"><text xml:space="preserve" x="100.4921875" y="14.05703125" stroke="none">initialAmount:</text><text xml:space="preserve" x="104.9375" y="14.05703125" stroke="none" text-anchor="start"></text><text xml:space="preserve" x="100.4921875" y="33.25703125" stroke="none" text-anchor="end">id:</text><text xml:space="preserve" x="104.9375" y="33.25703125" stroke="none" text-anchor="start"></text></g></g></g></g></g></g><g class="node"><g fill="#ffffff" stroke="#000000" stroke-width="4"><circle cx="429.4939403817143" cy="254.84891251867776" r="52"/></g><g transform="translate(429.4939403817143 254.84891251867776)"><g transform="scale(0.41162733875169777) translate(0 -27)"><g transform="translate(0 0)"><g transform="translate(-105.935546875 0)"><g fill="#ffffff" stroke="#000000" stroke-width="4"><rect x="0" y="0" width="211.87109375" height="54" rx="27" ry="27"/><text xml:space="preserve" x="27" y="38.142578125" stroke="none" font-family="sans-serif" font-size="40" font-weight="normal" fill="#000000">Reaction</text></g></g></g></g><g transform="translate(3.429011037612589e-15 56)"><g transform="translate(0 0)"><g transform="translate(-43.5703125 0)" fill="white"><rect x="0" y="0" width="87.140625" height="38.4" rx="0" ry="0" stroke="none"/><g font-family="sans-serif" font-size="16" font-weight="normal" fill="#000000" text-anchor="end"><text xml:space="preserve" x="78.25" y="14.05703125" stroke="none">id:</text><text xml:space="preserve" x="82.6953125" y="14.05703125" stroke="none" text-anchor="start"></text><text xml:space="preserve" x="78.25" y="33.25703125" stroke="none" text-anchor="end">reversible:</text><text xml:space="preserve" x="82.6953125" y="33.25703125" stroke="none" text-anchor="start"></text></g></g></g></g></g></g><g class="node"><g fill="#ffffff" stroke="#000000" stroke-width="4"><circle cx="129" cy="254.84891251867776" r="52"/></g><g transform="translate(129 254.84891251867776)"><g transform="scale(0.35536411888516545) translate(0 -27)"><g transform="translate(0 0)"><g transform="translate(-123.71875 0)"><g fill="#ffffff" stroke="#000000" stroke-width="4"><rect x="0" y="0" width="247.4375" height="54" rx="27" ry="27"/><text xml:space="preserve" x="27" y="38.142578125" stroke="none" font-family="sans-serif" font-size="40" font-weight="normal" fill="#000000">KineticLaw</text></g></g></g></g><g transform="translate(-56 -9.599999999999993)"><g transform="translate(0 0)"><g transform="translate(-71.1328125 0)" fill="white"><rect x="0" y="0" width="71.1328125" height="19.2" rx="0" ry="0" stroke="none"/><g font-family="sans-serif" font-size="16" font-weight="normal" fill="#000000" text-anchor="end"><text xml:space="preserve" x="62.2421875" y="14.05703125" stroke="none">formula:</text><text xml:space="preserve" x="66.6875" y="14.05703125" stroke="none" text-anchor="start"></text></g></g></g></g></g></g><g class="node"><g fill="#ffffff" stroke="#000000" stroke-width="4"><circle cx="717.6249622220569" cy="480.6497833705062" r="52"/></g><g transform="translate(717.6249622220569 480.6497833705062)"><g transform="scale(0.2641850451199503) translate(0 -27)"><g transform="translate(0 0)"><g transform="translate(-168.181640625 0)"><g fill="#ffffff" stroke="#000000" stroke-width="4"><rect x="0" y="0" width="336.36328125" height="54" rx="27" ry="27"/><text xml:space="preserve" x="27" y="38.142578125" stroke="none" font-family="sans-serif" font-size="40" font-weight="normal" fill="#000000">LocalParameter</text></g></g></g></g><g transform="translate(3.429011037612589e-15 56)"><g transform="translate(0 0)"><g transform="translate(-28.015625 0)" fill="white"><rect x="0" y="0" width="56.03125" height="38.4" rx="0" ry="0" stroke="none"/><g font-family="sans-serif" font-size="16" font-weight="normal" fill="#000000" text-anchor="end"><text xml:space="preserve" x="47.140625" y="14.05703125" stroke="none">id:</text><text xml:space="preserve" x="51.5859375" y="14.05703125" stroke="none" text-anchor="start"></text><text xml:space="preserve" x="47.140625" y="33.25703125" stroke="none" text-anchor="end">value:</text><text xml:space="preserve" x="51.5859375" y="33.25703125" stroke="none" text-anchor="start"></text></g></g></g></g></g></g></g></svg>