<svg xmlns="http://www.w3.org/2000/svg" width="1338" height="589" viewBox="0 0 1338 589"><defs><style type="text/css"/></defs><g transform="translate(18.22364250213724 81.99797974644666) scale(1)"><g class="relationship"><g transform="translate(811.747508095073 210.40545459635302) rotate(-42.94173713095263)" stroke-width="5" stroke="#000000"><path d="M 59 0 L 230.8594615996556 0"/><polygon points="-24.8621506177483,0 -27.62461179749811,9.20820393249937 0,0 -27.62461179749811,-9.20820393249937" fill="#000000" transform="translate(255.7216122174039 0) rotate(0)" stroke="none"/></g><g transform="translate(917.8428585511555 111.67145092329423) rotate(-42.94173713095263) translate(0 -13)"><g transform="translate(0 0)"><g transform="translate(-87.83203125 0)" fill="#ffffff" stroke="#000000" stroke-width="0"><rect x="0" y="0" width="175.6640625" height="26" rx="5" ry="5" stroke="none"/><text xml:space="preserve" x="5" y="17.45703125" stroke="none" text-anchor="left" font-family="sans-serif" font-size="16" font-weight="normal" fill="#000000">HAS_COMPARTMENT</text></g></g></g></g><g class="relationship"><g transform="translate(431.66344893725966 429.315407588844) rotate(0)" stroke-width="5" stroke="#000000"><path d="M 59 0 L 296.2219085400651 0"/><polygon points="-24.8621506177483,0 -27.62461179749811,9.20820393249937 0,0 -27.62461179749811,-9.20820393249937" fill="#000000" transform="translate(321.0840591578134 0) rotate(0)" stroke="none"/></g><g transform="translate(609.2744032072922 429.315407588844) rotate(0) translate(0 -13)"><g transform="translate(0 0)"><g transform="translate(-63.6796875 0)" fill="#ffffff" stroke="#000000" stroke-width="0"><rect x="0" y="0" width="127.359375" height="26" rx="5" ry="5" stroke="none"/><text xml:space="preserve" x="5" y="17.45703125" stroke="none" text-anchor="left" font-family="sans-serif" font-size="16" font-weight="normal" fill="#000000">IS_COMPOSED</text></g></g></g></g><g class="relationship"><g transform="translate(811.747508095073 210.40545459635302) rotate(150.06014759428547)" stroke-width="5" stroke="#000000"><path d="M 59 0 L 354.7555183663623 0"/><polygon points="-24.8621506177483,0 -27.62461179749811,9.20820393249937 0,0 -27.62461179749811,-9.20820393249937" fill="#000000" transform="translate(379.6176689841106 0) rotate(0)" stroke="none"/></g><g transform="translate(632.4776245038934 313.65619833149117) rotate(330.0601475942855) translate(0 -13)"><g transform="translate(0 0)"><g transform="translate(-89.89453125 0)" fill="#ffffff" stroke="#000000" stroke-width="0"><rect x="0" y="0" width="179.7890625" height="26" rx="5" ry="5" stroke="none"/><text xml:space="preserve" x="5" y="17.45703125" stroke="none" text-anchor="left" font-family="sans-serif" font-size="16" font-weight="normal" fill="#000000">HAS_UNITDEFINITION</text></g></g></g></g><g class="relationship"><g transform="translate(811.747508095073 210.40545459635302) rotate(-127.82494372670854)" stroke-width="5" stroke="#000000"><path d="M 59 0 L 187.57560409388088 0"/><polygon points="-24.8621506177483,0 -27.62461179749811,9.20820393249937 0,0 -27.62461179749811,-9.20820393249937" fill="#000000" transform="translate(212.43775471162917 0) rotate(0)" stroke="none"/></g><g transform="translate(736.1411414755296 113.02188585831202) rotate(52.17505627329146) translate(0 -13)"><g transform="translate(0 0)"><g transform="translate(-60.578125 0)" fill="#ffffff" stroke="#000000" stroke-width="0"><rect x="0" y="0" width="121.15625" height="26" rx="5" ry="5" stroke="none"/><text xml:space="preserve" x="5" y="17.45703125" stroke="none" text-anchor="left" font-family="sans-serif" font-size="16" font-weight="normal" fill="#000000">HAS_SPECIES</text></g></g></g></g><g class="relationship"><g transform="translate(645.2880363843237 -4) rotate(0)" stroke-width="5" stroke="#000000"><path d="M 59 0 L 312.9882806292926 0"/><polygon points="-24.8621506177483,0 -27.62461179749811,9.20820393249937 0,0 -27.62461179749811,-9.20820393249937" fill="#000000" transform="translate(337.8504312470409 0) rotate(0)" stroke="none"/></g><g transform="translate(831.28217669897 -4) rotate(0) translate(0 -13)"><g transform="translate(0 0)"><g transform="translate(-79.3828125 0)" fill="#ffffff" stroke="#000000" stroke-width="0"><rect x="0" y="0" width="158.765625" height="26" rx="5" ry="5" stroke="none"/><text xml:space="preserve" x="5" y="17.45703125" stroke="none" text-anchor="left" font-family="sans-serif" font-size="16" font-weight="normal" fill="#000000">IN_COMPARTMENT</text></g></g></g></g><g class="relationship"><g transform="translate(811.747508095073 210.40545459635302) rotate(180)" stroke-width="5" stroke="#000000"><path d="M 59 0 L 296.2219085400651 0"/><polygon points="-24.8621506177483,0 -27.62461179749811,9.20820393249937 0,0 -27.62461179749811,-9.20820393249937" fill="#000000" transform="translate(321.0840591578134 0) rotate(0)" stroke="none"/></g><g transform="translate(634.1365538250404 210.40545459635305) rotate(360) translate(0 -13)"><g transform="translate(0 0)"><g transform="translate(-67.234375 0)" fill="#ffffff" stroke="#000000" stroke-width="0"><rect x="0" y="0" width="134.46875" height="26" rx="5" ry="5" stroke="none"/><text xml:space="preserve" x="5" y="17.45703125" stroke="none" text-anchor="left" font-family="sans-serif" font-size="16" font-weight="normal" fill="#000000">HAS_REACTION</text></g></g></g></g><g class="relationship"><g transform="translate(431.66344893725966 210.40545459635314) rotate(180)" stroke-width="5" stroke="#000000"><path d="M 59 0 L 238.89212832164858 0"/><polygon points="-24.8621506177483,0 -27.62461179749811,9.20820393249937 0,0 -27.62461179749811,-9.20820393249937" fill="#000000" transform="translate(263.7542789393969 0) rotate(0)" stroke="none"/></g><g transform="translate(282.7173847764354 210.40545459635317) rotate(360) translate(0 -13)"><g transform="translate(0 0)"><g transform="translate(-77.61328125 0)" fill="#ffffff" stroke="#000000" stroke-width="0"><rect x="0" y="0" width="155.2265625" height="26" rx="5" ry="5" stroke="none"/><text xml:space="preserve" x="5" y="17.45703125" stroke="none" text-anchor="left" font-family="sans-serif" font-size="16" font-weight="normal" fill="#000000">HAS_KENETICLAW</text></g></g></g></g><g class="relationship"><g transform="translate(645.2880363843237 -4) rotate(134.89547382663469)" stroke-width="5" stroke="#000000"><path d="M 58.695178092152055 -5.989663490593891 L 95.96898050729243 -9.793341079425122 A 40 40 0 0 1 100.02976931447472 -10 L 151.3317244686298 -10 L 202.6336796227849 -10 A 40 40 0 0 1 206.6944684299672 -9.79334107942512 L 219.2345698576051 -8.51366206436971 L 219.2345698576051 -8.51366206436971"/><polygon points="-24.8621506177483,0 -27.62461179749811,9.20820393249937 0,0 -27.62461179749811,-9.20820393249937" fill="#000000" transform="translate(302.6634489372596 0) rotate(5.826689442008371) translate(-59 0)" stroke="none"/></g><g transform="translate(545.5596986306716 110.26088341835435) rotate(314.89547382663466) translate(0 -13)"><g transform="translate(0 0)"><g transform="translate(-59.53125 0)" fill="#ffffff" stroke="#000000" stroke-width="0"><rect x="0" y="0" width="119.0625" height="26" rx="5" ry="5" stroke="none"/><text xml:space="preserve" x="5" y="17.45703125" stroke="none" text-anchor="left" font-family="sans-serif" font-size="16" font-weight="normal" fill="#000000">IS_REACTANT</text></g></g></g></g><g class="relationship"><g transform="translate(431.66344893725966 210.40545459635314) rotate(-45.10452617336533)" stroke-width="5" stroke="#000000"><path d="M 58.695178092152055 -5.989663490593891 L 95.96898050729243 -9.793341079425122 A 40 40 0 0 1 100.02976931447472 -10 L 151.3317244686298 -10 L 202.6336796227849 -10 A 40 40 0 0 1 206.6944684299672 -9.79334107942512 L 219.2345698576051 -8.51366206436971 L 219.2345698576051 -8.51366206436971"/><polygon points="-24.8621506177483,0 -27.62461179749811,9.20820393249937 0,0 -27.62461179749811,-9.20820393249937" fill="#000000" transform="translate(302.6634489372596 0) rotate(5.826689442008371) translate(-59 0)" stroke="none"/></g><g transform="translate(531.3917866909118 96.14457117799878) rotate(-45.10452617336533) translate(0 -13)"><g transform="translate(0 0)"><g transform="translate(-65.453125 0)" fill="#ffffff" stroke="#000000" stroke-width="0"><rect x="0" y="0" width="130.90625" height="26" rx="5" ry="5" stroke="none"/><text xml:space="preserve" x="5" y="17.45703125" stroke="none" text-anchor="left" font-family="sans-serif" font-size="16" font-weight="normal" fill="#000000">HAS_PRODUCT</text></g></g></g></g><g class="relationship"><g transform="translate(811.747508095073 210.40545459635302) rotate(-8.568862374905228e-15)" stroke-width="5" stroke="#000000"><path d="M 59 0 L 296.22190854006516 0"/><polygon points="-24.8621506177483,0 -27.62461179749811,9.20820393249937 0,0 -27.62461179749811,-9.20820393249937" fill="#000000" transform="translate(321.0840591578135 0) rotate(0)" stroke="none"/></g><g transform="translate(989.3584623651057 210.405454596353) rotate(-8.568862374905228e-15) translate(0 -13)"><g transform="translate(0 0)"><g transform="translate(-100.1328125 0)" fill="#ffffff" stroke="#000000" stroke-width="0"><rect x="0" y="0" width="200.265625" height="26" rx="5" ry="5" stroke="none"/><text xml:space="preserve" x="5" y="17.45703125" stroke="none" text-anchor="left" font-family="sans-serif" font-size="16" font-weight="normal" fill="#000000">HAS_ASSIGNMENTRULE</text></g></g></g></g><g class="relationship"><g transform="translate(811.747508095073 210.40545459635302) rotate(33.11311170258856)" stroke-width="5" stroke="#000000"><path d="M 59 0 L 264.1397884531706 0"/><polygon points="-24.8621506177483,0 -27.62461179749811,9.20820393249937 0,0 -27.62461179749811,-9.20820393249937" fill="#000000" transform="translate(289.0019390709189 0) rotate(0)" stroke="none"/></g><g transform="translate(947.0774373918412 298.6700622084741) rotate(33.11311170258856) translate(0 -13)"><g transform="translate(0 0)"><g transform="translate(-75.09375 0)" fill="#ffffff" stroke="#000000" stroke-width="0"><rect x="0" y="0" width="150.1875" height="26" rx="5" ry="5" stroke="none"/><text xml:space="preserve" x="5" y="17.45703125" stroke="none" text-anchor="left" font-family="sans-serif" font-size="16" font-weight="normal" fill="#000000">HAS_PARAMETER</text></g></g></g></g><g class="node"><g fill="#ffffff" stroke="#000000" stroke-width="4"><circle cx="431.66344893725966" cy="429.315407588844" r="52"/></g><g transform="translate(431.66344893725966 429.315407588844)"><g transform="scale(0.3031899383995126) translate(0 -27)"><g transform="translate(0 0)"><g transform="translate(-145.9453125 0)"><g fill="#ffffff" stroke="#000000" stroke-width="4"><rect x="0" y="0" width="291.890625" height="54" rx="27" ry="27"/><text xml:space="preserve" x="27" y="38.142578125" stroke="none" font-family="sans-serif" font-size="40" font-weight="normal" fill="#000000">UnitDefinition</text></g></g></g></g><g transform="translate(-56 -38.39999999999999)"><g transform="translate(0 0)"><g transform="translate(-79.1328125 0)" fill="white"><rect x="0" y="0" width="79.1328125" height="76.8" rx="0" ry="0" stroke="none"/><g font-family="sans-serif" font-size="16" font-weight="normal" fill="#000000" text-anchor="end"><text xml:space="preserve" x="70.2421875" y="14.05703125" stroke="none">id:</text><text xml:space="preserve" x="74.6875" y="14.05703125" stroke="none" text-anchor="start"></text><text xml:space="preserve" x="70.2421875" y="33.25703125" stroke="none" text-anchor="end">name:</text><text xml:space="preserve" x="74.6875" y="33.25703125" stroke="none" text-anchor="start"></text><text xml:space="preserve" x="70.2421875" y="52.45703125" stroke="none" text-anchor="end">metaid:</text><text xml:space="preserve" x="74.6875" y="52.45703125" stroke="none" text-anchor="start"></text><text xml:space="preserve" x="70.2421875" y="71.65703125" stroke="none" text-anchor="end">sboTerm:</text><text xml:space="preserve" x="74.6875" y="71.65703125" stroke="none" text-anchor="start"></text></g></g></g></g></g></g><g class="node"><g fill="#ffffff" stroke="#000000" stroke-width="4"><circle cx="1042.1384676313646" cy="-4" r="52"/></g><g transform="translate(1042.1384676313646 -4)"><g transform="scale(0.29881955756447626) translate(0 -27)"><g transform="translate(0 0)"><g transform="translate(-148.15234375 0)"><g fill="#ffffff" stroke="#000000" stroke-width="4"><rect x="0" y="0" width="296.3046875" height="54" rx="27" ry="27"/><text xml:space="preserve" x="27" y="38.142578125" stroke="none" font-family="sans-serif" font-size="40" font-weight="normal" fill="#000000">Compartment</text></g></g></g></g><g transform="translate(56 -67.2)"><g transform="translate(0 0)"><g transform="translate(0 0)" fill="white"><rect x="0" y="0" width="147.6171875" height="134.4" rx="0" ry="0" stroke="none"/><g font-family="sans-serif" font-size="16" font-weight="normal" fill="#000000" text-anchor="end"><text xml:space="preserve" x="138.7265625" y="14.05703125" stroke="none">id:</text><text xml:space="preserve" x="143.171875" y="14.05703125" stroke="none" text-anchor="start"></text><text xml:space="preserve" x="138.7265625" y="33.25703125" stroke="none" text-anchor="end">name:</text><text xml:space="preserve" x="143.171875" y="33.25703125" stroke="none" text-anchor="start"></text><text xml:space="preserve" x="138.7265625" y="52.45703125" stroke="none" text-anchor="end">metaid:</text><text xml:space="preserve" x="143.171875" y="52.45703125" stroke="none" text-anchor="start"></text><text xml:space="preserve" x="138.7265625" y="71.65703125" stroke="none" text-anchor="end">sboTerm:</text><text xml:space="preserve" x="143.171875" y="71.65703125" stroke="none" text-anchor="start"></text><text xml:space="preserve" x="138.7265625" y="90.85703124999999" stroke="none" text-anchor="end">spatialDimensions:</text><text xml:space="preserve" x="143.171875" y="90.85703124999999" stroke="none" text-anchor="start"></text><text xml:space="preserve" x="138.7265625" y="110.05703125" stroke="none" text-anchor="end">size:</text><text xml:space="preserve" x="143.171875" y="110.05703125" stroke="none" text-anchor="start"></text><text xml:space="preserve" x="138.7265625" y="129.25703125" stroke="none" text-anchor="end">constant:</text><text xml:space="preserve" x="143.171875" y="129.25703125" stroke="none" text-anchor="start"></text></g></g></g></g></g></g><g class="node"><g fill="#ffffff" stroke="#000000" stroke-width="4"><circle cx="811.747508095073" cy="210.40545459635302" r="52"/></g><g transform="translate(811.747508095073 210.40545459635302)"><g transform="scale(0.5242920341306497) translate(0 -27)"><g transform="translate(0 0)"><g transform="translate(-81.47265625 0)"><g fill="#ffffff" stroke="#000000" stroke-width="4"><rect x="0" y="0" width="162.9453125" height="54" rx="27" ry="27"/><text xml:space="preserve" x="27" y="38.142578125" stroke="none" font-family="sans-serif" font-size="40" font-weight="normal" fill="#000000">Model</text></g></g></g></g><g transform="translate(3.429011037612589e-15 56)"><g transform="translate(0 0)"><g transform="translate(-39.56640625 0)" fill="white"><rect x="0" y="0" width="79.1328125" height="76.8" rx="0" ry="0" stroke="none"/><g font-family="sans-serif" font-size="16" font-weight="normal" fill="#000000" text-anchor="end"><text xml:space="preserve" x="70.2421875" y="14.05703125" stroke="none">id:</text><text xml:space="preserve" x="74.6875" y="14.05703125" stroke="none" text-anchor="start"></text><text xml:space="preserve" x="70.2421875" y="33.25703125" stroke="none" text-anchor="end">name:</text><text xml:space="preserve" x="74.6875" y="33.25703125" stroke="none" text-anchor="start"></text><text xml:space="preserve" x="70.2421875" y="52.45703125" stroke="none" text-anchor="end">metaid:</text><text xml:space="preserve" x="74.6875" y="52.45703125" stroke="none" text-anchor="start"></text><text xml:space="preserve" x="70.2421875" y="71.65703125" stroke="none" text-anchor="end">sboTerm:</text><text xml:space="preserve" x="74.6875" y="71.65703125" stroke="none" text-anchor="start"></text></g></g></g></g></g></g><g class="node"><g fill="#ffffff" stroke="#000000" stroke-width="4"><circle cx="811.747508095073" cy="429.315407588844" r="52"/></g><g transform="translate(811.747508095073 429.315407588844)"><g transform="scale(0.6603698060836495) translate(0 -27)"><g transform="translate(0 0)"><g transform="translate(-62.56640625 0)"><g fill="#ffffff" stroke="#000000" stroke-width="4"><rect x="0" y="0" width="125.1328125" height="54" rx="27" ry="27"/><text xml:space="preserve" x="27" y="38.142578125" stroke="none" font-family="sans-serif" font-size="40" font-weight="normal" fill="#000000">Unit</text></g></g></g></g><g transform="translate(56 -76.8)"><g transform="translate(0 0)"><g transform="translate(0 0)" fill="white"><rect x="0" y="0" width="83.6171875" height="153.6" rx="0" ry="0" stroke="none"/><g font-family="sans-serif" font-size="16" font-weight="normal" fill="#000000" text-anchor="end"><text xml:space="preserve" x="74.7265625" y="14.05703125" stroke="none">id:</text><text xml:space="preserve" x="79.171875" y="14.05703125" stroke="none" text-anchor="start"></text><text xml:space="preserve" x="74.7265625" y="33.25703125" stroke="none" text-anchor="end">name:</text><text xml:space="preserve" x="79.171875" y="33.25703125" stroke="none" text-anchor="start"></text><text xml:space="preserve" x="74.7265625" y="52.45703125" stroke="none" text-anchor="end">metaid:</text><text xml:space="preserve" x="79.171875" y="52.45703125" stroke="none" text-anchor="start"></text><text xml:space="preserve" x="74.7265625" y="71.65703125" stroke="none" text-anchor="end">sboTerm:</text><text xml:space="preserve" x="79.171875" y="71.65703125" stroke="none" text-anchor="start"></text><text xml:space="preserve" x="74.7265625" y="90.85703124999999" stroke="none" text-anchor="end">kind:</text><text xml:space="preserve" x="79.171875" y="90.85703124999999" stroke="none" text-anchor="start"></text><text xml:space="preserve" x="74.7265625" y="110.05703125" stroke="none" text-anchor="end">exponent:</text><text xml:space="preserve" x="79.171875" y="110.05703125" stroke="none" text-anchor="start"></text><text xml:space="preserve" x="74.7265625" y="129.25703125" stroke="none" text-anchor="end">scale:</text><text xml:space="preserve" x="79.171875" y="129.25703125" stroke="none" text-anchor="start"></text><text xml:space="preserve" x="74.7265625" y="148.45703125" stroke="none" text-anchor="end">multiplier:</text><text xml:space="preserve" x="79.171875" y="148.45703125" stroke="none" text-anchor="start"></text></g></g></g></g></g></g><g class="node"><g fill="#ffffff" stroke="#000000" stroke-width="4"><circle cx="645.2880363843237" cy="-4" r="52"/></g><g transform="translate(645.2880363843237 -4)"><g transform="scale(0.4420508449855404) translate(0 -27)"><g transform="translate(0 0)"><g transform="translate(-98.15234375 0)"><g fill="#ffffff" stroke="#000000" stroke-width="4"><rect x="0" y="0" width="196.3046875" height="54" rx="27" ry="27"/><text xml:space="preserve" x="27" y="38.142578125" stroke="none" font-family="sans-serif" font-size="40" font-weight="normal" fill="#000000">Species</text></g></g></g></g><g transform="translate(-39.597979746446654 -77.99797974644666)"><g transform="translate(0 0)"><g transform="translate(-109.3828125 0)" fill="white"><rect x="0" y="0" width="109.3828125" height="38.4" rx="0" ry="0" stroke="none"/><g font-family="sans-serif" font-size="16" font-weight="normal" fill="#000000" text-anchor="end"><text xml:space="preserve" x="100.4921875" y="14.05703125" stroke="none">initialAmount:</text><text xml:space="preserve" x="104.9375" y="14.05703125" stroke="none" text-anchor="start"></text><text xml:space="preserve" x="100.4921875" y="33.25703125" stroke="none" text-anchor="end">id:</text><text xml:space="preserve" x="104.9375" y="33.25703125" stroke="none" text-anchor="start"></text></g></g></g></g></g></g><g class="node"><g fill="#ffffff" stroke="#000000" stroke-width="4"><circle cx="431.66344893725966" cy="210.40545459635314" r="52"/></g><g transform="translate(431.66344893725966 210.40545459635314)"><g transform="scale(0.41162733875169777) translate(0 -27)"><g transform="translate(0 0)"><g transform="translate(-105.935546875 0)"><g fill="#ffffff" stroke="#000000" stroke-width="4"><rect x="0" y="0" width="211.87109375" height="54" rx="27" ry="27"/><text xml:space="preserve" x="27" y="38.142578125" stroke="none" font-family="sans-serif" font-size="40" font-weight="normal" fill="#000000">Reaction</text></g></g></g></g><g transform="translate(3.429011037612589e-15 56)"><g transform="translate(0 0)"><g transform="translate(-43.5703125 0)" fill="white"><rect x="0" y="0" width="87.140625" height="38.4" rx="0" ry="0" stroke="none"/><g font-family="sans-serif" font-size="16" font-weight="normal" fill="#000000" text-anchor="end"><text xml:space="preserve" x="78.25" y="14.05703125" stroke="none">id:</text><text xml:space="preserve" x="82.6953125" y="14.05703125" stroke="none" text-anchor="start"></text><text xml:space="preserve" x="78.25" y="33.25703125" stroke="none" text-anchor="end">reversible:</text><text xml:space="preserve" x="82.6953125" y="33.25703125" stroke="none" text-anchor="start"></text></g></g></g></g></g></g><g class="node"><g fill="#ffffff" stroke="#000000" stroke-width="4"><circle cx="108.90916999786276" cy="210.40545459635314" r="52"/></g><g transform="translate(108.90916999786276 210.40545459635314)"><g transform="scale(0.35536411888516545) translate(0 -27)"><g transform="translate(0 0)"><g transform="translate(-123.71875 0)"><g fill="#ffffff" stroke="#000000" stroke-width="4"><rect x="0" y="0" width="247.4375" height="54" rx="27" ry="27"/><text xml:space="preserve" x="27" y="38.142578125" stroke="none" font-family="sans-serif" font-size="40" font-weight="normal" fill="#000000">KineticLaw</text></g></g></g></g><g transform="translate(-56 -9.599999999999993)"><g transform="translate(0 0)"><g transform="translate(-71.1328125 0)" fill="white"><rect x="0" y="0" width="71.1328125" height="19.2" rx="0" ry="0" stroke="none"/><g font-family="sans-serif" font-size="16" font-weight="normal" fill="#000000" text-anchor="end"><text xml:space="preserve" x="62.2421875" y="14.05703125" stroke="none">formula:</text><text xml:space="preserve" x="66.6875" y="14.05703125" stroke="none" text-anchor="start"></text></g></g></g></g></g></g><g class="node"><g fill="#ffffff" stroke="#000000" stroke-width="4"><circle cx="1103.231747996596" cy="400.5167048845751" r="52"/></g><g transform="translate(1103.231747996596 400.5167048845751)"><g transform="scale(0.3647855078236079) translate(0 -27)"><g transform="translate(0 0)"><g transform="translate(-120.369140625 0)"><g fill="#ffffff" stroke="#000000" stroke-width="4"><rect x="0" y="0" width="240.73828125" height="54" rx="27" ry="27"/><text xml:space="preserve" x="27" y="38.142578125" stroke="none" font-family="sans-serif" font-size="40" font-weight="normal" fill="#000000">Parameter</text></g></g></g></g><g transform="translate(39.59797974644666 39.597979746446654)"><g transform="translate(0 0)"><g transform="translate(0 0)" fill="white"><rect x="0" y="0" width="56.03125" height="57.599999999999994" rx="0" ry="0" stroke="none"/><g font-family="sans-serif" font-size="16" font-weight="normal" fill="#000000" text-anchor="end"><text xml:space="preserve" x="47.140625" y="14.05703125" stroke="none">id:</text><text xml:space="preserve" x="51.5859375" y="14.05703125" stroke="none" text-anchor="start"></text><text xml:space="preserve" x="47.140625" y="33.25703125" stroke="none" text-anchor="end">value:</text><text xml:space="preserve" x="51.5859375" y="33.25703125" stroke="none" text-anchor="start"></text><text xml:space="preserve" x="47.140625" y="52.45703125" stroke="none" text-anchor="end">units:</text><text xml:space="preserve" x="51.5859375" y="52.45703125" stroke="none" text-anchor="start"></text></g></g></g></g></g></g><g class="node"><g fill="#ffffff" stroke="#000000" stroke-width="4"><circle cx="1191.8315672528865" cy="210.40545459635297" r="52"/></g><g transform="translate(1191.8315672528865 210.40545459635297)"><g transform="scale(0.2924001859388206) translate(0 -27)"><g transform="translate(0 0)"><g transform="translate(-151.51171875 0)"><g fill="#ffffff" stroke="#000000" stroke-width="4"><rect x="0" y="0" width="303.0234375" height="54" rx="27" ry="27"/><text xml:space="preserve" x="27" y="38.142578125" stroke="none" font-family="sans-serif" font-size="40" font-weight="normal" fill="#000000">AlgebraicRule</text></g></g></g></g><g transform="translate(56 -9.6)"><g transform="translate(0 0)"><g transform="translate(0 0)" fill="white"><rect x="0" y="0" width="71.1328125" height="19.2" rx="0" ry="0" stroke="none"/><g font-family="sans-serif" font-size="16" font-weight="normal" fill="#000000" text-anchor="end"><text xml:space="preserve" x="62.2421875" y="14.05703125" stroke="none">formula:</text><text xml:space="preserve" x="66.6875" y="14.05703125" stroke="none" text-anchor="start"></text></g></g></g></g></g></g></g></svg>