<svg xmlns="http://www.w3.org/2000/svg" width="1010" height="645" viewBox="0 0 1010 645"><defs><style type="text/css"/></defs><g transform="translate(33.1827128659901 148.12123965482556) scale(1)"><g class="relationship"><g transform="translate(545.6721092888903 3.8787603451744417) rotate(180)" stroke-width="5" stroke="#000000"><path d="M 59 0 L 266.95686783943324 0"/><polygon points="-24.8621506177483,0 -27.62461179749811,9.20820393249937 0,0 -27.62461179749811,-9.20820393249937" fill="#000000" transform="translate(291.8190184571816 0) rotate(0)" stroke="none"/></g><g transform="translate(382.69367536917366 3.8787603451744617) rotate(360) translate(0 -13)"><g transform="translate(0 0)"><g transform="translate(-79.3828125 0)" fill="#ffffff" stroke="#000000" stroke-width="0"><rect x="0" y="0" width="158.765625" height="26" rx="5" ry="5" stroke="none"/><text xml:space="preserve" x="5" y="17.45703125" stroke="none" text-anchor="left" font-family="sans-serif" font-size="16" font-weight="normal" fill="#000000">IN_COMPARTMENT</text></g></g></g></g><g class="relationship"><g transform="translate(833.1523435518487 204.94864525928796) rotate(-145.03022744238015)" stroke-width="5" stroke="#000000"><path d="M 58.695178092152055 -5.989663490593891 L 95.96898050729243 -9.793341079425122 A 40 40 0 0 1 100.02976931447472 -10 L 175.4095092285908 -10 L 250.7892491427069 -10 A 40 40 0 0 1 254.85003794988918 -9.79334107942512 L 267.3901393775271 -8.51366206436971 L 267.3901393775271 -8.51366206436971"/><polygon points="-24.8621506177483,0 -27.62461179749811,9.20820393249937 0,0 -27.62461179749811,-9.20820393249937" fill="#000000" transform="translate(350.8190184571816 0) rotate(5.826689442008371) translate(-59 0)" stroke="none"/></g><g transform="translate(683.6807844421561 112.60824811300787) rotate(34.96977255761986) translate(0 -13)"><g transform="translate(0 0)"><g transform="translate(-65.453125 0)" fill="#ffffff" stroke="#000000" stroke-width="0"><rect x="0" y="0" width="130.90625" height="26" rx="5" ry="5" stroke="none"/><text xml:space="preserve" x="5" y="17.45703125" stroke="none" text-anchor="left" font-family="sans-serif" font-size="16" font-weight="normal" fill="#000000">HAS_PRODUCT</text></g></g></g></g><g class="relationship"><g transform="translate(545.6721092888903 3.8787603451744417) rotate(34.969772557619855)" stroke-width="5" stroke="#000000"><path d="M 58.695178092152055 -5.989663490593891 L 95.96898050729243 -9.793341079425122 A 40 40 0 0 1 100.02976931447472 -10 L 175.4095092285908 -10 L 250.7892491427069 -10 A 40 40 0 0 1 254.85003794988918 -9.79334107942512 L 267.3901393775271 -8.51366206436971 L 267.3901393775271 -8.51366206436971"/><polygon points="-24.8621506177483,0 -27.62461179749811,9.20820393249937 0,0 -27.62461179749811,-9.20820393249937" fill="#000000" transform="translate(350.8190184571816 0) rotate(5.826689442008371) translate(-59 0)" stroke="none"/></g><g transform="translate(695.1436683985829 96.21915749145451) rotate(34.969772557619855) translate(0 -13)"><g transform="translate(0 0)"><g transform="translate(-59.53125 0)" fill="#ffffff" stroke="#000000" stroke-width="0"><rect x="0" y="0" width="119.0625" height="26" rx="5" ry="5" stroke="none"/><text xml:space="preserve" x="5" y="17.45703125" stroke="none" text-anchor="left" font-family="sans-serif" font-size="16" font-weight="normal" fill="#000000">IS_REACTANT</text></g></g></g></g><g class="relationship"><g transform="translate(833.1523435518487 204.94864525928796) rotate(-179.99999999999997)" stroke-width="5" stroke="#000000"><path d="M 58.695178092152055 -5.989663490593891 L 95.96898050729243 -9.793341079425122 A 40 40 0 0 1 100.02976931447472 -10 L 200.4514489784092 -10 L 300.87312864234366 -10 A 40 40 0 0 1 304.933917449526 -9.79334107942512 L 317.47401887716387 -8.51366206436971 L 317.47401887716387 -8.51366206436971"/><polygon points="-24.8621506177483,0 -27.62461179749811,9.20820393249937 0,0 -27.62461179749811,-9.20820393249937" fill="#000000" transform="translate(400.9028979568184 0) rotate(5.826689442008371) translate(-59 0)" stroke="none"/></g><g transform="translate(632.7008945734395 214.94864525928784) rotate(2.5444437451708134e-14) translate(0 -13)"><g transform="translate(0 0)"><g transform="translate(-104.57421875 0)" fill="#ffffff" stroke="#000000" stroke-width="0"><rect x="0" y="0" width="209.1484375" height="26" rx="5" ry="5" stroke="none"/><text xml:space="preserve" x="5" y="17.45703125" stroke="none" text-anchor="left" font-family="sans-serif" font-size="16" font-weight="normal" fill="#000000">HAS_LOWERFLUXBOUND</text></g></g></g></g><g class="relationship"><g transform="translate(833.1523435518487 204.94864525928796) rotate(-179.99999999999997)" stroke-width="5" stroke="#000000"><path d="M 58.695178092152055 5.989663490593891 L 95.96898050729243 9.793341079425122 A 40 40 0 0 0 100.02976931447472 10 L 200.4514489784092 10 L 300.87312864234366 10 A 40 40 0 0 0 304.933917449526 9.79334107942512 L 317.47401887716387 8.51366206436971 L 317.47401887716387 8.51366206436971"/><polygon points="-24.8621506177483,0 -27.62461179749811,9.20820393249937 0,0 -27.62461179749811,-9.20820393249937" fill="#000000" transform="translate(400.9028979568184 0) rotate(-5.826689442008371) translate(-59 0)" stroke="none"/></g><g transform="translate(632.7008945734395 194.94864525928784) rotate(2.5444437451708134e-14) translate(0 -13)"><g transform="translate(0 0)"><g transform="translate(-102.80078125 0)" fill="#ffffff" stroke="#000000" stroke-width="0"><rect x="0" y="0" width="205.6015625" height="26" rx="5" ry="5" stroke="none"/><text xml:space="preserve" x="5" y="17.45703125" stroke="none" text-anchor="left" font-family="sans-serif" font-size="16" font-weight="normal" fill="#000000">HAS_UPPERFLUXBOUND</text></g></g></g></g><g class="relationship"><g transform="translate(101.9500996340099 204.94864525928796) rotate(-3.9441652351355195e-14)" stroke-width="5" stroke="#000000"><path d="M 59 0 L 246.43719534327212 0"/><polygon points="-24.8621506177483,0 -27.62461179749811,9.20820393249937 0,0 -27.62461179749811,-9.20820393249937" fill="#000000" transform="translate(271.29934596102044 0) rotate(0)" stroke="none"/></g><g transform="translate(254.668697305646 204.94864525928784) rotate(-3.9441652351355195e-14) translate(0 -13)"><g transform="translate(0 0)"><g transform="translate(-75.09375 0)" fill="#ffffff" stroke="#000000" stroke-width="0"><rect x="0" y="0" width="150.1875" height="26" rx="5" ry="5" stroke="none"/><text xml:space="preserve" x="5" y="17.45703125" stroke="none" text-anchor="left" font-family="sans-serif" font-size="16" font-weight="normal" fill="#000000">HAS_PARAMETER</text></g></g></g></g><g class="relationship"><g transform="translate(432.24944559503035 204.94864525928773) rotate(147.92274603278943)" stroke-width="5" stroke="#000000"><path d="M 59 0 L 246.43719534327212 0"/><polygon points="-24.8621506177483,0 -27.62461179749811,9.20820393249937 0,0 -27.62461179749811,-9.20820393249937" fill="#000000" transform="translate(271.29934596102044 0) rotate(0)" stroke="none"/></g><g transform="translate(302.8459661399485 286.0517252236716) rotate(327.92274603278935) translate(0 -13)"><g transform="translate(0 0)"><g transform="translate(-44.5625 0)" fill="#ffffff" stroke="#000000" stroke-width="0"><rect x="0" y="0" width="89.125" height="26" rx="5" ry="5" stroke="none"/><text xml:space="preserve" x="5" y="17.45703125" stroke="none" text-anchor="left" font-family="sans-serif" font-size="16" font-weight="normal" fill="#000000">HAS_UNIT</text></g></g></g></g><g class="relationship"><g transform="translate(833.1523435518487 204.94864525928796) rotate(149.99999999999997)" stroke-width="5" stroke="#000000"><path d="M 59 0 L 266.95686783943347 0"/><polygon points="-24.8621506177483,0 -27.62461179749811,9.20820393249937 0,0 -27.62461179749811,-9.20820393249937" fill="#000000" transform="translate(291.81901845718176 0) rotate(0)" stroke="none"/></g><g transform="translate(692.0088795083707 286.4378622191464) rotate(329.99999999999994) translate(0 -13)"><g transform="translate(0 0)"><g transform="translate(-49.015625 0)" fill="#ffffff" stroke="#000000" stroke-width="0"><rect x="0" y="0" width="98.03125" height="26" rx="5" ry="5" stroke="none"/><text xml:space="preserve" x="5" y="17.45703125" stroke="none" text-anchor="left" font-family="sans-serif" font-size="16" font-weight="normal" fill="#000000">IS_IMPLIED</text></g></g></g></g><g class="node"><g fill="#ffffff" stroke="#000000" stroke-width="4"><circle cx="194.8530908317087" cy="3.8787603451744417" r="52"/></g><g transform="translate(194.8530908317087 3.8787603451744417)"><g transform="scale(0.29881955756447626) translate(0 -27)"><g transform="translate(0 0)"><g transform="translate(-148.15234375 0)"><g fill="#ffffff" stroke="#000000" stroke-width="4"><rect x="0" y="0" width="296.3046875" height="54" rx="27" ry="27"/><text xml:space="preserve" x="27" y="38.142578125" stroke="none" font-family="sans-serif" font-size="40" font-weight="normal" fill="#000000">Compartment</text></g></g></g></g><g transform="translate(-56 -67.2)"><g transform="translate(0 0)"><g transform="translate(-147.6171875 0)" fill="white"><rect x="0" y="0" width="147.6171875" height="134.4" rx="0" ry="0" stroke="none"/><g font-family="sans-serif" font-size="16" font-weight="normal" fill="#000000" text-anchor="end"><text xml:space="preserve" x="138.7265625" y="14.05703125" stroke="none">id:</text><text xml:space="preserve" x="143.171875" y="14.05703125" stroke="none" text-anchor="start"></text><text xml:space="preserve" x="138.7265625" y="33.25703125" stroke="none" text-anchor="end">name:</text><text xml:space="preserve" x="143.171875" y="33.25703125" stroke="none" text-anchor="start"></text><text xml:space="preserve" x="138.7265625" y="52.45703125" stroke="none" text-anchor="end">metaid:</text><text xml:space="preserve" x="143.171875" y="52.45703125" stroke="none" text-anchor="start"></text><text xml:space="preserve" x="138.7265625" y="71.65703125" stroke="none" text-anchor="end">sboTerm:</text><text xml:space="preserve" x="143.171875" y="71.65703125" stroke="none" text-anchor="start"></text><text xml:space="preserve" x="138.7265625" y="90.85703124999999" stroke="none" text-anchor="end">spatialDimensions:</text><text xml:space="preserve" x="143.171875" y="90.85703124999999" stroke="none" text-anchor="start"></text><text xml:space="preserve" x="138.7265625" y="110.05703125" stroke="none" text-anchor="end">size:</text><text xml:space="preserve" x="143.171875" y="110.05703125" stroke="none" text-anchor="start"></text><text xml:space="preserve" x="138.7265625" y="129.25703125" stroke="none" text-anchor="end">constant:</text><text xml:space="preserve" x="143.171875" y="129.25703125" stroke="none" text-anchor="start"></text></g></g></g></g></g></g><g class="node"><g fill="#ffffff" stroke="#000000" stroke-width="4"><circle cx="545.6721092888903" cy="3.8787603451744417" r="52"/></g><g transform="translate(545.6721092888903 3.8787603451744417)"><g transform="scale(0.4420508449855404) translate(0 -27)"><g transform="translate(0 0)"><g transform="translate(-98.15234375 0)"><g fill="#ffffff" stroke="#000000" stroke-width="4"><rect x="0" y="0" width="196.3046875" height="54" rx="27" ry="27"/><text xml:space="preserve" x="27" y="38.142578125" stroke="none" font-family="sans-serif" font-size="40" font-weight="normal" fill="#000000">Species</text></g></g></g></g><g transform="translate(3.429011037612589e-15 -152)"><g transform="translate(0 0)"><g transform="translate(-94.26953125 0)" fill="white"><rect x="0" y="0" width="188.5390625" height="96" rx="0" ry="0" stroke="none"/><g font-family="sans-serif" font-size="16" font-weight="normal" fill="#000000" text-anchor="end"><text xml:space="preserve" x="179.6484375" y="14.05703125" stroke="none">id:</text><text xml:space="preserve" x="184.09375" y="14.05703125" stroke="none" text-anchor="start"></text><text xml:space="preserve" x="179.6484375" y="33.25703125" stroke="none" text-anchor="end">initialAmount:</text><text xml:space="preserve" x="184.09375" y="33.25703125" stroke="none" text-anchor="start"></text><text xml:space="preserve" x="179.6484375" y="52.45703125" stroke="none" text-anchor="end">hasOnlySubstanceUnits:</text><text xml:space="preserve" x="184.09375" y="52.45703125" stroke="none" text-anchor="start"></text><text xml:space="preserve" x="179.6484375" y="71.65703125" stroke="none" text-anchor="end">boundaryCondition:</text><text xml:space="preserve" x="184.09375" y="71.65703125" stroke="none" text-anchor="start"></text><text xml:space="preserve" x="179.6484375" y="90.85703124999999" stroke="none" text-anchor="end">constant:</text><text xml:space="preserve" x="184.09375" y="90.85703124999999" stroke="none" text-anchor="start"></text></g></g></g></g></g></g><g class="node"><g fill="#ffffff" stroke="#000000" stroke-width="4"><circle cx="432.24944559503035" cy="204.94864525928773" r="52"/></g><g transform="translate(432.24944559503035 204.94864525928773)"><g transform="scale(0.3647855078236079) translate(0 -27)"><g transform="translate(0 0)"><g transform="translate(-120.369140625 0)"><g fill="#ffffff" stroke="#000000" stroke-width="4"><rect x="0" y="0" width="240.73828125" height="54" rx="27" ry="27"/><text xml:space="preserve" x="27" y="38.142578125" stroke="none" font-family="sans-serif" font-size="40" font-weight="normal" fill="#000000">Parameter</text></g></g></g></g><g transform="translate(3.429011037612589e-15 -171.2)"><g transform="translate(0 0)"><g transform="translate(-39.56640625 0)" fill="white"><rect x="0" y="0" width="79.1328125" height="115.19999999999999" rx="0" ry="0" stroke="none"/><g font-family="sans-serif" font-size="16" font-weight="normal" fill="#000000" text-anchor="end"><text xml:space="preserve" x="70.2421875" y="14.05703125" stroke="none">id:</text><text xml:space="preserve" x="74.6875" y="14.05703125" stroke="none" text-anchor="start"></text><text xml:space="preserve" x="70.2421875" y="33.25703125" stroke="none" text-anchor="end">name:</text><text xml:space="preserve" x="74.6875" y="33.25703125" stroke="none" text-anchor="start"></text><text xml:space="preserve" x="70.2421875" y="52.45703125" stroke="none" text-anchor="end">metaid:</text><text xml:space="preserve" x="74.6875" y="52.45703125" stroke="none" text-anchor="start"></text><text xml:space="preserve" x="70.2421875" y="71.65703125" stroke="none" text-anchor="end">sboTerm:</text><text xml:space="preserve" x="74.6875" y="71.65703125" stroke="none" text-anchor="start"></text><text xml:space="preserve" x="70.2421875" y="90.85703124999999" stroke="none" text-anchor="end">value:</text><text xml:space="preserve" x="74.6875" y="90.85703124999999" stroke="none" text-anchor="start"></text><text xml:space="preserve" x="70.2421875" y="110.05703125" stroke="none" text-anchor="end">constant:</text><text xml:space="preserve" x="74.6875" y="110.05703125" stroke="none" text-anchor="start"></text></g></g></g></g></g></g><g class="node"><g fill="#ffffff" stroke="#000000" stroke-width="4"><circle cx="833.1523435518487" cy="204.94864525928796" r="52"/></g><g transform="translate(833.1523435518487 204.94864525928796)"><g transform="scale(0.41162733875169777) translate(0 -27)"><g transform="translate(0 0)"><g transform="translate(-105.935546875 0)"><g fill="#ffffff" stroke="#000000" stroke-width="4"><rect x="0" y="0" width="211.87109375" height="54" rx="27" ry="27"/><text xml:space="preserve" x="27" y="38.142578125" stroke="none" font-family="sans-serif" font-size="40" font-weight="normal" fill="#000000">Reaction</text></g></g></g></g><g transform="translate(56 -48)"><g transform="translate(0 0)"><g transform="translate(0 0)" fill="white"><rect x="0" y="0" width="87.140625" height="96" rx="0" ry="0" stroke="none"/><g font-family="sans-serif" font-size="16" font-weight="normal" fill="#000000" text-anchor="end"><text xml:space="preserve" x="78.25" y="14.05703125" stroke="none">id:</text><text xml:space="preserve" x="82.6953125" y="14.05703125" stroke="none" text-anchor="start"></text><text xml:space="preserve" x="78.25" y="33.25703125" stroke="none" text-anchor="end">name:</text><text xml:space="preserve" x="82.6953125" y="33.25703125" stroke="none" text-anchor="start"></text><text xml:space="preserve" x="78.25" y="52.45703125" stroke="none" text-anchor="end">metaid:</text><text xml:space="preserve" x="82.6953125" y="52.45703125" stroke="none" text-anchor="start"></text><text xml:space="preserve" x="78.25" y="71.65703125" stroke="none" text-anchor="end">sboTerm:</text><text xml:space="preserve" x="82.6953125" y="71.65703125" stroke="none" text-anchor="start"></text><text xml:space="preserve" x="78.25" y="90.85703124999999" stroke="none" text-anchor="end">reversible:</text><text xml:space="preserve" x="82.6953125" y="90.85703124999999" stroke="none" text-anchor="start"></text></g></g></g></g></g></g><g class="node"><g fill="#ffffff" stroke="#000000" stroke-width="4"><circle cx="101.9500996340099" cy="204.94864525928796" r="52"/></g><g transform="translate(101.9500996340099 204.94864525928796)"><g transform="scale(0.5242920341306497) translate(0 -27)"><g transform="translate(0 0)"><g transform="translate(-81.47265625 0)"><g fill="#ffffff" stroke="#000000" stroke-width="4"><rect x="0" y="0" width="162.9453125" height="54" rx="27" ry="27"/><text xml:space="preserve" x="27" y="38.142578125" stroke="none" font-family="sans-serif" font-size="40" font-weight="normal" fill="#000000">Model</text></g></g></g></g><g transform="translate(-56 -38.39999999999999)"><g transform="translate(0 0)"><g transform="translate(-79.1328125 0)" fill="white"><rect x="0" y="0" width="79.1328125" height="76.8" rx="0" ry="0" stroke="none"/><g font-family="sans-serif" font-size="16" font-weight="normal" fill="#000000" text-anchor="end"><text xml:space="preserve" x="70.2421875" y="14.05703125" stroke="none">id:</text><text xml:space="preserve" x="74.6875" y="14.05703125" stroke="none" text-anchor="start"></text><text xml:space="preserve" x="70.2421875" y="33.25703125" stroke="none" text-anchor="end">name:</text><text xml:space="preserve" x="74.6875" y="33.25703125" stroke="none" text-anchor="start"></text><text xml:space="preserve" x="70.2421875" y="52.45703125" stroke="none" text-anchor="end">metaid:</text><text xml:space="preserve" x="74.6875" y="52.45703125" stroke="none" text-anchor="start"></text><text xml:space="preserve" x="70.2421875" y="71.65703125" stroke="none" text-anchor="end">sboTerm:</text><text xml:space="preserve" x="74.6875" y="71.65703125" stroke="none" text-anchor="start"></text></g></g></g></g></g></g><g class="node"><g fill="#ffffff" stroke="#000000" stroke-width="4"><circle cx="152.37597058451303" cy="380.3581544878789" r="52"/></g><g transform="translate(152.37597058451303 380.3581544878789)"><g transform="scale(0.3031899383995126) translate(0 -27)"><g transform="translate(0 0)"><g transform="translate(-145.9453125 0)"><g fill="#ffffff" stroke="#000000" stroke-width="4"><rect x="0" y="0" width="291.890625" height="54" rx="27" ry="27"/><text xml:space="preserve" x="27" y="38.142578125" stroke="none" font-family="sans-serif" font-size="40" font-weight="normal" fill="#000000">UnitDefinition</text></g></g></g></g><g transform="translate(-39.597979746446654 39.59797974644666)"><g transform="translate(0 0)"><g transform="translate(-79.1328125 0)" fill="white"><rect x="0" y="0" width="79.1328125" height="76.8" rx="0" ry="0" stroke="none"/><g font-family="sans-serif" font-size="16" font-weight="normal" fill="#000000" text-anchor="end"><text xml:space="preserve" x="70.2421875" y="14.05703125" stroke="none">id:</text><text xml:space="preserve" x="74.6875" y="14.05703125" stroke="none" text-anchor="start"></text><text xml:space="preserve" x="70.2421875" y="33.25703125" stroke="none" text-anchor="end">name:</text><text xml:space="preserve" x="74.6875" y="33.25703125" stroke="none" text-anchor="start"></text><text xml:space="preserve" x="70.2421875" y="52.45703125" stroke="none" text-anchor="end">metaid:</text><text xml:space="preserve" x="74.6875" y="52.45703125" stroke="none" text-anchor="start"></text><text xml:space="preserve" x="70.2421875" y="71.65703125" stroke="none" text-anchor="end">sboTerm:</text><text xml:space="preserve" x="74.6875" y="71.65703125" stroke="none" text-anchor="start"></text></g></g></g></g></g></g><g class="node"><g fill="#ffffff" stroke="#000000" stroke-width="4"><circle cx="529.3341614372075" cy="380.35815448787895" r="52"/></g><g transform="translate(529.3341614372075 380.35815448787895)"><g transform="scale(0.3054026833452173) translate(0 -27)"><g transform="translate(0 0)"><g transform="translate(-144.8515625 0)"><g fill="#ffffff" stroke="#000000" stroke-width="4"><rect x="0" y="0" width="289.703125" height="54" rx="27" ry="27"/><text xml:space="preserve" x="27" y="38.142578125" stroke="none" font-family="sans-serif" font-size="40" font-weight="normal" fill="#000000">GeneProduct</text></g></g></g></g><g transform="translate(-39.597979746446654 39.59797974644666)"><g transform="translate(0 0)"><g transform="translate(-57.8046875 0)" fill="white"><rect x="0" y="0" width="57.8046875" height="38.4" rx="0" ry="0" stroke="none"/><g font-family="sans-serif" font-size="16" font-weight="normal" fill="#000000" text-anchor="end"><text xml:space="preserve" x="48.9140625" y="14.05703125" stroke="none">id:</text><text xml:space="preserve" x="53.359375" y="14.05703125" stroke="none" text-anchor="start"></text><text xml:space="preserve" x="48.9140625" y="33.25703125" stroke="none" text-anchor="end">name:</text><text xml:space="preserve" x="53.359375" y="33.25703125" stroke="none" text-anchor="start"></text></g></g></g></g></g></g></g></svg>